<svg width="100" height="83" viewBox="0 0 100 83" fill="none" xmlns="http://www.w3.org/2000/svg">
<path d="M12.8993 82.7598H1.20607C0.889435 82.7594 0.585867 82.6335 0.361961 82.4096C0.138056 82.1857 0.0120971 81.8822 0.0117188 81.5655V43.037C0.0120971 42.7204 0.138056 42.4168 0.361961 42.1929C0.585867 41.9691 0.889435 41.8431 1.20607 41.8428H12.8993C13.216 41.8431 13.5195 41.9691 13.7435 42.1929C13.9674 42.4168 14.0933 42.7204 14.0937 43.037V81.5655C14.0933 81.8822 13.9674 82.1857 13.7435 82.4096C13.5195 82.6335 13.216 82.7594 12.8993 82.7598Z" fill="#FCF670"/>
<path d="M34.2236 82.7597H22.5303C22.2137 82.7594 21.9101 82.6334 21.6862 82.4096C21.4623 82.1857 21.3363 81.8821 21.3359 81.5655V27.748C21.3363 27.4313 21.4623 27.1278 21.6862 26.9039C21.9101 26.68 22.2137 26.5541 22.5303 26.5537H34.2236C34.5402 26.5541 34.8438 26.68 35.0677 26.9039C35.2916 27.1278 35.4175 27.4313 35.4179 27.748V81.5655C35.4175 81.8821 35.2916 82.1857 35.0677 82.4096C34.8438 82.6334 34.5402 82.7594 34.2236 82.7597Z" fill="#9098D9"/>
<path d="M55.5478 82.7598H43.8545C43.5379 82.7594 43.2343 82.6335 43.0104 82.4096C42.7865 82.1857 42.6605 81.8822 42.6602 81.5655V43.037C42.6605 42.7204 42.7865 42.4168 43.0104 42.1929C43.2343 41.9691 43.5379 41.8431 43.8545 41.8428H55.5478C55.8644 41.8431 56.168 41.9691 56.3919 42.1929C56.6158 42.4168 56.7417 42.7204 56.7421 43.037V81.5655C56.7417 81.8822 56.6158 82.1857 56.3919 82.4096C56.168 82.6335 55.8644 82.7594 55.5478 82.7598Z" fill="#FCF670"/>
<path d="M76.872 82.761H65.1787C64.8693 82.7676 64.5698 82.6514 64.346 82.4376C64.1221 82.2239 63.9921 81.9302 63.9844 81.6208V21.66C63.9921 21.3506 64.1221 21.0568 64.346 20.8431C64.5698 20.6294 64.8693 20.5131 65.1787 20.5198H76.872C77.1814 20.5131 77.4809 20.6294 77.7047 20.8431C77.9286 21.0568 78.0586 21.3506 78.0663 21.66V81.6208C78.0586 81.9302 77.9286 82.2239 77.7047 82.4376C77.4809 82.6514 77.1814 82.7676 76.872 82.761Z" fill="#9098D9"/>
<path d="M98.1962 82.7606H86.5029C86.1863 82.7603 85.8827 82.6344 85.6588 82.4105C85.4349 82.1866 85.309 81.883 85.3086 81.5664V10.8505C85.309 10.5339 85.4349 10.2303 85.6588 10.0064C85.8827 9.78254 86.1863 9.6566 86.5029 9.65625H98.1962C98.5128 9.6566 98.8164 9.78254 99.0403 10.0064C99.2642 10.2303 99.3902 10.5339 99.3906 10.8505V81.5664C99.3902 81.883 99.2642 82.1866 99.0403 82.4105C98.8164 82.6344 98.5129 82.7603 98.1962 82.7606Z" fill="#9098D9"/>
<path d="M7.05273 37.0156C8.38597 37.0156 9.46678 35.9348 9.46678 34.6016C9.46678 33.2683 8.38597 32.1875 7.05273 32.1875C5.71948 32.1875 4.63867 33.2683 4.63867 34.6016C4.63867 35.9348 5.71948 37.0156 7.05273 37.0156Z" fill="#5E66A7"/>
<path d="M28.3769 21.3232C29.7102 21.3232 30.791 20.2424 30.791 18.9092C30.791 17.5759 29.7102 16.4951 28.3769 16.4951C27.0437 16.4951 25.9629 17.5759 25.9629 18.9092C25.9629 20.2424 27.0437 21.3232 28.3769 21.3232Z" fill="#5E66A7"/>
<path d="M49.7012 37.0156C51.0344 37.0156 52.1152 35.9348 52.1152 34.6016C52.1152 33.2683 51.0344 32.1875 49.7012 32.1875C48.3679 32.1875 47.2871 33.2683 47.2871 34.6016C47.2871 35.9348 48.3679 37.0156 49.7012 37.0156Z" fill="#5E66A7"/>
<path d="M71.0254 13.6787C72.3586 13.6787 73.4394 12.5979 73.4394 11.2646C73.4394 9.93139 72.3586 8.85059 71.0254 8.85059C69.6921 8.85059 68.6113 9.93139 68.6113 11.2646C68.6113 12.5979 69.6921 13.6787 71.0254 13.6787Z" fill="#5E66A7"/>
<path d="M92.3496 4.82811C93.6828 4.82811 94.7636 3.7473 94.7636 2.41405C94.7636 1.08081 93.6828 0 92.3496 0C91.0164 0 89.9355 1.08081 89.9355 2.41405C89.9355 3.7473 91.0164 4.82811 92.3496 4.82811Z" fill="#5E66A7"/>
<path d="M6.92406 34.752L6.69922 34.45L28.3771 18.3109L49.6322 34.165L71.1783 10.772L71.2169 10.7562L92.1272 2.12598L92.2708 2.47417L71.399 11.0884L49.6791 34.6699L28.3769 18.7806L6.92406 34.752Z" fill="#5E66A7"/>
</svg>
