<svg width="150" height="100" viewBox="0 0 150 100" fill="none" xmlns="http://www.w3.org/2000/svg">
<path d="M142.098 86.0967C142.65 86.1055 143.105 85.665 143.113 85.1128L143.256 76.1139C143.265 75.5617 142.825 75.1069 142.272 75.0981C141.72 75.0894 141.265 75.5299 141.257 76.0821L141.13 84.0811L133.131 83.9539C132.578 83.9451 132.124 84.3857 132.115 84.9379C132.106 85.4901 132.547 85.9449 133.099 85.9537L142.098 86.0967ZM1.21427 34.7924C36.0371 32.8856 60.8161 35.0847 81.9966 43.0013C103.167 50.9142 120.844 64.5771 141.395 85.7926L142.832 84.4011C122.186 63.0877 104.264 49.1893 82.6969 41.1279C61.1394 33.0704 36.0402 30.8824 1.10492 32.7953L1.21427 34.7924Z" fill="#5E66A7"/>
</svg>
