<svg width="150" height="100" viewBox="0 0 150 100" fill="none" xmlns="http://www.w3.org/2000/svg">
<path d="M15.18 97.1906C14.6377 97.2952 14.1133 96.9403 14.0088 96.398L12.3053 87.5607C12.2007 87.0184 12.5556 86.494 13.0979 86.3895C13.6402 86.2849 14.1646 86.6398 14.2691 87.1821L15.7834 95.0375L23.6387 93.5232C24.181 93.4187 24.7054 93.7736 24.81 94.3159C24.9145 94.8582 24.5596 95.3825 24.0173 95.4871L15.18 97.1906ZM145.014 22.2015C110.389 26.3706 86.3685 32.8391 66.8845 44.3135C47.4098 55.7824 32.3741 72.3072 15.8189 96.7692L14.1626 95.6482C30.7941 71.0735 46.0295 54.2742 65.8696 42.5901C85.7003 30.9116 110.038 24.3984 144.775 20.2159L145.014 22.2015Z" fill="#5E66A7"/>
</svg>
