<svg width="400" height="330" viewBox="0 0 400 330" fill="none" xmlns="http://www.w3.org/2000/svg">
<path fill-rule="evenodd" clip-rule="evenodd" d="M188.895 17.9366C122.404 18.5312 49.5791 35.8217 27.4814 96.8949C5.19226 158.497 47.381 220.449 101.977 258.158C151.226 292.173 214.55 292.685 266.09 261.698C330.136 223.191 397.482 163.6 375.372 93.7837C353.439 24.5238 263.472 17.2697 188.895 17.9366Z" fill="#E7E7FF" fill-opacity="0.4"/>
<path d="M203.611 255.216C215.36 255.216 224.885 246.768 224.885 236.348C224.885 225.927 215.36 217.479 203.611 217.479C191.861 217.479 182.336 225.927 182.336 236.348C182.336 246.768 191.861 255.216 203.611 255.216Z" fill="#FCF670"/>
<path d="M201.327 39.4641C168.078 39.6724 140.853 63.6357 140.381 93.1219C140.377 93.3941 140.375 95.3084 140.375 97.812C140.375 101.483 142.02 105.003 144.946 107.599C147.873 110.195 151.842 111.653 155.981 111.654C158.033 111.653 160.065 111.294 161.96 110.597C163.855 109.9 165.577 108.879 167.027 107.592C168.477 106.304 169.627 104.776 170.411 103.094C171.195 101.413 171.597 99.6105 171.596 97.7907C171.594 96.0877 171.593 94.9089 171.593 94.8365C171.592 90.2795 172.928 85.8007 175.471 81.8407C178.014 77.8807 181.675 74.5759 186.094 72.2515C190.514 69.927 195.54 68.6629 200.677 68.5836C205.815 68.5042 210.887 69.6123 215.395 71.7989C219.903 73.9855 223.692 77.1752 226.388 81.0542C229.085 84.9333 230.597 89.3681 230.774 93.9224C230.952 98.4768 229.79 102.994 227.403 107.029C225.015 111.064 221.484 114.479 217.158 116.937L217.163 116.942C217.163 116.942 194.95 129.625 188.178 147.023L188.184 147.024C186.993 150.588 186.39 154.286 186.393 158.004C186.393 159.532 186.494 172.902 186.69 183.754C186.758 187.498 188.484 191.068 191.494 193.694C194.504 196.321 198.558 197.792 202.78 197.791C204.902 197.791 207.002 197.419 208.961 196.696C210.92 195.973 212.698 194.914 214.194 193.579C215.69 192.245 216.873 190.661 217.676 188.919C218.478 187.177 218.885 185.312 218.872 183.43C218.804 173.492 218.767 161.92 218.767 161.08C218.767 150.397 230.387 139.753 239.932 132.812C250.924 124.819 258.833 113.926 262.01 101.639C262.713 99.109 263.101 96.5184 263.166 93.9136C263.166 86.7299 261.563 79.6172 258.45 72.9853C255.337 66.3534 250.775 60.3334 245.027 55.2722C239.279 50.2109 232.458 46.2084 224.958 43.4953C217.458 40.7822 209.427 39.4122 201.327 39.4641Z" fill="#FCF670"/>
<path d="M160.391 105.107C156.252 105.106 152.283 103.648 149.356 101.052C146.43 98.4563 144.785 94.9358 144.785 91.2649C144.785 88.7613 144.787 86.8471 144.791 86.5749C144.923 77.9995 147.358 69.5755 151.895 62.0017C144.441 71.0514 140.342 81.9318 140.166 93.1377C140.162 93.41 140.16 95.3242 140.16 97.8278C140.16 101.499 141.805 105.019 144.731 107.615C147.658 110.211 151.627 111.669 155.767 111.67C159.168 111.668 162.476 110.683 165.187 108.862C167.899 107.042 169.867 104.486 170.792 101.583C167.934 103.856 164.23 105.111 160.391 105.107Z" fill="#3F3D56"/>
<path d="M202.391 68.6299C207.176 68.8326 211.834 70.0622 215.965 72.2131C220.096 74.3641 223.577 77.3722 226.109 80.979C228.64 84.5859 230.147 88.6838 230.5 92.9209C230.852 97.158 230.04 101.408 228.133 105.305C230.891 102.432 232.919 99.0644 234.077 95.4329C235.236 91.8015 235.498 87.9912 234.845 84.2619C234.193 80.5325 232.641 76.9718 230.296 73.8225C227.952 70.6732 224.869 68.0093 221.258 66.0124C217.647 64.0156 213.593 62.7327 209.373 62.2513C205.152 61.7699 200.864 62.1013 196.801 63.2228C192.738 64.3444 188.995 66.2298 185.828 68.7504C182.661 71.271 180.144 74.3677 178.449 77.8292C181.379 74.7723 185.062 72.3531 189.213 70.7581C193.364 69.1631 197.872 68.435 202.391 68.6299Z" fill="#3F3D56"/>
<path d="M207.18 191.244C202.958 191.245 198.904 189.773 195.894 187.147C192.884 184.521 191.159 180.951 191.09 177.207C190.894 166.355 190.793 152.985 190.793 151.457C190.79 147.739 191.394 144.041 192.584 140.477L192.579 140.476C193.282 138.687 194.131 136.946 195.12 135.266C192.085 138.853 189.67 142.821 187.954 147.039L187.959 147.04C186.769 150.604 186.165 154.302 186.168 158.02C186.168 159.548 186.269 172.918 186.465 183.77C186.534 187.514 188.259 191.084 191.269 193.71C194.279 196.336 198.333 197.808 202.555 197.807C206.037 197.806 209.424 196.805 212.209 194.952C214.995 193.1 217.028 190.496 218.003 187.532C215.045 189.925 211.184 191.249 207.18 191.244Z" fill="#3F3D56"/>
<path d="M198.928 250.614C195.906 249.446 193.231 247.672 191.115 245.431C188.998 243.19 187.498 240.543 186.732 237.699C185.967 234.856 185.957 231.893 186.703 229.046C187.45 226.198 188.932 223.543 191.033 221.291C188.597 222.868 186.567 224.888 185.078 227.215C183.588 229.541 182.674 232.122 182.396 234.787C182.117 237.451 182.481 240.137 183.462 242.667C184.444 245.197 186.021 247.513 188.088 249.461C190.156 251.409 192.668 252.945 195.456 253.966C198.244 254.988 201.246 255.472 204.261 255.386C207.276 255.3 210.236 254.646 212.945 253.468C215.653 252.29 218.048 250.615 219.971 248.553C216.972 250.497 213.452 251.71 209.76 252.071C206.068 252.433 202.333 251.931 198.928 250.614Z" fill="#3F3D56"/>
<path d="M324.838 111.906C334.969 111.906 343.183 103.711 343.183 93.6023C343.183 83.4934 334.969 75.2986 324.838 75.2986C314.706 75.2986 306.492 83.4934 306.492 93.6023C306.492 103.711 314.706 111.906 324.838 111.906Z" fill="#2F2E41"/>
<path d="M290.927 300.516H283.43L279.863 271.664H290.929L290.927 300.516Z" fill="#FFB8B8"/>
<path d="M278.08 298.378H292.539V307.461H268.977C268.977 306.268 269.212 305.087 269.67 303.985C270.127 302.883 270.798 301.882 271.643 301.038C272.488 300.195 273.492 299.526 274.596 299.07C275.701 298.613 276.885 298.378 278.08 298.378Z" fill="#2F2E41"/>
<path d="M349.024 300.516H341.528L337.961 271.664H349.026L349.024 300.516Z" fill="#FFB8B8"/>
<path d="M336.178 298.378H350.636V307.461H327.074C327.074 306.268 327.31 305.087 327.767 303.985C328.225 302.883 328.895 301.882 329.741 301.038C330.586 300.195 331.589 299.526 332.694 299.07C333.798 298.613 334.982 298.378 336.178 298.378Z" fill="#2F2E41"/>
<path d="M322.051 112.013C330.346 112.013 337.07 105.304 337.07 97.0275C337.07 88.7514 330.346 82.0422 322.051 82.0422C313.756 82.0422 307.031 88.7514 307.031 97.0275C307.031 105.304 313.756 112.013 322.051 112.013Z" fill="#FFB8B8"/>
<path d="M330.993 160.356L337.713 144.95C339.346 141.336 339.813 137.306 339.052 133.415C338.291 129.525 336.338 125.966 333.464 123.23C332.873 122.647 332.246 122.103 331.586 121.601C328.27 119.013 324.184 117.602 319.974 117.592C317.143 117.603 314.348 118.223 311.779 119.41C311.559 119.508 311.345 119.612 311.125 119.716C310.703 119.917 310.287 120.137 309.884 120.362C307.251 121.87 305.011 123.975 303.343 126.506C301.675 129.036 300.627 131.923 300.283 134.932L297.317 159.728C296.571 161.674 269.958 231.96 279.265 285.621C279.364 286.194 279.644 286.72 280.065 287.123C280.485 287.526 281.023 287.784 281.601 287.86L291.037 289.141C291.726 289.235 292.425 289.065 292.993 288.666C293.562 288.266 293.957 287.666 294.1 286.987L309.933 211.692C310.031 211.224 310.284 210.803 310.651 210.495C311.018 210.188 311.478 210.012 311.957 209.996C312.435 209.98 312.906 210.124 313.293 210.406C313.68 210.688 313.961 211.091 314.091 211.552L336.46 290.733C336.619 291.309 336.963 291.816 337.439 292.178C337.916 292.539 338.497 292.735 339.096 292.735C339.274 292.734 339.452 292.717 339.628 292.686L351.154 290.471C351.825 290.346 352.424 289.976 352.834 289.433C353.245 288.89 353.438 288.214 353.374 287.536C351.681 268.69 342.679 174.285 330.993 160.356Z" fill="#5E66A7"/>
<path d="M263.678 109.498C263.574 110.389 263.667 111.292 263.95 112.143C264.233 112.995 264.7 113.773 265.318 114.425C265.936 115.077 266.689 115.586 267.525 115.915C268.361 116.245 269.259 116.388 270.157 116.334L278.552 136.463L284.903 127.071L275.957 109.396C275.766 107.897 275.031 106.521 273.891 105.528C272.751 104.535 271.285 103.993 269.772 104.006C268.258 104.018 266.802 104.584 265.679 105.597C264.556 106.609 263.844 107.997 263.678 109.498Z" fill="#FFB8B8"/>
<path d="M321.21 180.625C322.103 180.518 322.961 180.218 323.725 179.744C324.488 179.271 325.139 178.637 325.63 177.885C326.121 177.134 326.441 176.285 326.568 175.397C326.695 174.509 326.625 173.604 326.363 172.746L344.027 159.91L333.392 155.937L318.249 168.735C316.833 169.269 315.663 170.303 314.961 171.641C314.258 172.978 314.071 174.527 314.436 175.992C314.801 177.458 315.693 178.739 316.941 179.592C318.189 180.446 319.708 180.813 321.21 180.625Z" fill="#FFB8B8"/>
<path d="M292.412 149.883C291.735 149.882 291.06 149.816 290.395 149.684C288.789 149.379 287.282 148.685 286.008 147.661C284.734 146.638 283.731 145.318 283.089 143.817L271.327 129.508C271.079 129.205 270.898 128.853 270.796 128.475C270.695 128.097 270.676 127.702 270.74 127.316C270.805 126.93 270.951 126.563 271.169 126.238C271.388 125.913 271.673 125.638 272.007 125.432L280.375 120.264C280.684 120.073 281.028 119.945 281.386 119.887C281.745 119.83 282.112 119.844 282.465 119.928C282.818 120.013 283.151 120.166 283.445 120.38C283.739 120.594 283.987 120.863 284.176 121.173L292.465 134.8L308.341 123.093C309.605 122.432 311.065 122.247 312.455 122.571C313.845 122.895 315.071 123.707 315.911 124.859C316.75 126.011 317.145 127.426 317.025 128.845C316.905 130.264 316.278 131.592 315.257 132.588L299.412 147.009C297.55 148.851 295.034 149.884 292.412 149.883Z" fill="#5E66A7"/>
<path d="M335.313 171.404C335.291 171.404 335.27 171.404 335.248 171.403C334.862 171.394 334.483 171.303 334.134 171.138C333.785 170.973 333.475 170.737 333.223 170.445L325.784 161.785C325.53 161.49 325.342 161.145 325.233 160.772C325.123 160.4 325.094 160.008 325.147 159.623C325.2 159.238 325.335 158.869 325.541 158.54C325.748 158.211 326.023 157.929 326.347 157.714L340.278 148.448L327.657 133.309C326.923 132.088 326.654 130.644 326.898 129.241C327.143 127.838 327.886 126.57 328.99 125.668C330.095 124.766 331.487 124.291 332.914 124.329C334.341 124.367 335.706 124.916 336.761 125.876L352.1 140.832C353.307 141.932 354.228 143.308 354.785 144.842C355.342 146.376 355.517 148.022 355.296 149.638C355.075 151.255 354.465 152.794 353.516 154.123C352.568 155.452 351.311 156.531 349.852 157.269L337.315 170.541C337.058 170.813 336.747 171.03 336.403 171.178C336.059 171.327 335.688 171.403 335.313 171.404Z" fill="#5E66A7"/>
<path d="M318.222 139.495C318.103 139.495 317.984 139.487 317.865 139.472C317.347 139.409 316.858 139.199 316.456 138.868C316.053 138.536 315.755 138.096 315.596 137.6L310.005 120.498C309.865 120.066 309.887 119.598 310.066 119.18C310.245 118.762 310.57 118.423 310.98 118.226L311.162 118.14C311.326 118.062 311.489 117.985 311.655 117.911C314.262 116.705 317.1 116.076 319.974 116.067C323.704 116.074 327.352 117.167 330.468 119.213C330.886 119.491 331.178 119.921 331.281 120.411C331.384 120.901 331.29 121.412 331.019 121.833L320.532 138.226C320.286 138.615 319.945 138.936 319.541 139.158C319.137 139.38 318.683 139.496 318.222 139.495Z" fill="#DDDDFF"/>
<path d="M339.304 85.4305C342.619 85.4305 345.307 82.7489 345.307 79.4411C345.307 76.1332 342.619 73.4517 339.304 73.4517C335.988 73.4517 333.301 76.1332 333.301 79.4411C333.301 82.7489 335.988 85.4305 339.304 85.4305Z" fill="#2F2E41"/>
<path d="M318.727 72.8579C314.511 72.8579 310.467 74.5292 307.485 77.5041C304.503 80.4791 302.828 84.5139 302.828 88.7211V95.4325H311.101L315.058 88.7212L316.246 95.4325H341.353L334.627 88.7211C334.627 84.5139 332.952 80.4791 329.97 77.5041C326.988 74.5292 322.944 72.8579 318.727 72.8579Z" fill="#2F2E41"/>
<path d="M342.387 75.3386C343.051 73.2675 344.425 71.4963 346.268 70.3362C348.112 69.1762 350.306 68.7016 352.465 68.996C356.291 69.6341 359.315 72.7022 361.117 76.129C362.92 79.5558 363.752 83.391 364.964 87.0673C366.175 90.7435 367.893 94.4398 370.952 96.8195C374.011 99.1992 378.704 99.8447 381.708 97.3967C381.365 99.948 380.227 102.327 378.454 104.197C376.681 106.068 374.364 107.335 371.83 107.819C369.297 108.304 366.674 107.981 364.334 106.897C361.994 105.813 360.055 104.022 358.791 101.778C357.206 98.9644 356.796 95.6667 356.326 92.4732C355.856 89.2797 355.246 85.9755 353.353 83.3576C351.461 80.7398 347.918 79.0301 344.912 80.2225L342.387 75.3386Z" fill="#2F2E41"/>
<path d="M72.5721 300.794L80.0687 300.793L83.6356 271.942L72.5703 271.942L72.5721 300.794Z" fill="#FFB8B8"/>
<path d="M94.5391 307.739L70.9771 307.74L70.9767 298.657L85.4352 298.656C87.8496 298.656 90.1651 299.613 91.8724 301.316C93.5797 303.02 94.539 305.33 94.5391 307.739Z" fill="#2F2E41"/>
<path d="M45.662 300.794L53.1585 300.793L56.7255 271.942L45.6602 271.942L45.662 300.794Z" fill="#FFB8B8"/>
<path d="M67.6367 307.739L44.0747 307.74L44.0743 298.657L58.5328 298.656C60.9472 298.656 63.2628 299.613 64.9701 301.316C66.6774 303.019 67.6366 305.33 67.6367 307.739Z" fill="#2F2E41"/>
<path d="M52.2338 291.92L44.911 291.536C44.5334 291.516 44.1635 291.422 43.8227 291.258C43.4819 291.095 43.177 290.865 42.9257 290.584C42.6744 290.302 42.4817 289.973 42.3586 289.616C42.2356 289.259 42.1847 288.882 42.209 288.505L50.9614 191.821L91.2667 202.673L95.15 201.616L83.0064 287.207C82.9029 287.851 82.5825 288.44 82.0979 288.878C81.6134 289.315 80.9937 289.575 80.3413 289.614L72.4474 289.981C72.0527 290.003 71.6577 289.942 71.2874 289.804C70.9172 289.666 70.5797 289.453 70.2962 289.178C70.0128 288.903 69.7897 288.572 69.6409 288.207C69.4921 287.841 69.4208 287.449 69.4317 287.055L70.862 235.684C70.8687 235.447 70.786 235.215 70.6302 235.036C70.4743 234.856 70.2567 234.741 70.0201 234.714C69.7836 234.686 69.5452 234.748 69.3521 234.887C69.1589 235.026 69.025 235.232 68.9766 235.465L55.1828 289.651C55.0526 290.294 54.7029 290.872 54.1934 291.287C53.6839 291.701 53.0461 291.927 52.3887 291.924C52.3374 291.924 52.2858 291.923 52.2338 291.92Z" fill="#2F2E41"/>
<path d="M73.9256 112.714C82.2206 112.714 88.945 106.005 88.945 97.7285C88.945 89.4523 82.2206 82.7432 73.9256 82.7432C65.6306 82.7432 58.9062 89.4523 58.9062 97.7285C58.9062 106.005 65.6306 112.714 73.9256 112.714Z" fill="#FFB8B8"/>
<path d="M48.9052 141.754L50.5567 177.305L51.1537 190.238C51.1774 190.801 51.369 191.345 51.7039 191.798C52.0388 192.252 52.5018 192.596 53.0336 192.786L91.7643 206.784C92.0772 206.9 92.4087 206.958 92.7425 206.955C93.124 206.957 93.5019 206.882 93.8538 206.735C94.2056 206.588 94.5241 206.372 94.7903 206.099C95.0565 205.826 95.2649 205.503 95.4031 205.148C95.5412 204.793 95.6063 204.414 95.5944 204.034L94.0065 140.113C93.9022 134.869 91.9674 129.825 88.5354 125.851C85.1035 121.878 80.3896 119.223 75.2064 118.345C74.8318 118.288 74.4506 118.231 74.0695 118.181C70.8555 117.783 67.593 118.092 64.5118 119.087C61.4305 120.082 58.6052 121.739 56.2347 123.941C53.7801 126.193 51.8514 128.956 50.5849 132.034C49.3183 135.113 48.745 138.431 48.9052 141.754Z" fill="#9098D9"/>
<path d="M110.28 199.691C109.364 199.407 108.527 198.914 107.836 198.25C107.145 197.586 106.619 196.771 106.3 195.868C105.982 194.966 105.878 194.001 105.999 193.052C106.12 192.103 106.462 191.195 106.997 190.4L93.8633 172.975L105.197 172.275L115.932 188.93C117.081 189.816 117.881 191.078 118.191 192.494C118.501 193.91 118.301 195.39 117.627 196.674C116.952 197.957 115.847 198.963 114.503 199.515C113.16 200.067 111.665 200.129 110.28 199.691Z" fill="#FFB8B8"/>
<path d="M101.059 187.247C100.711 187.106 100.394 186.898 100.127 186.634C99.8607 186.37 99.6491 186.057 99.5047 185.711L79.7173 138.673C79.329 137.753 79.1265 136.764 79.1212 135.765C79.1159 134.766 79.308 133.776 79.6865 132.851C80.065 131.926 80.6225 131.084 81.3271 130.374C82.0318 129.664 82.8697 129.1 83.793 128.713C84.7163 128.327 85.707 128.125 86.7084 128.121C87.7097 128.116 88.7022 128.309 89.6289 128.687C90.5557 129.066 91.3987 129.622 92.1097 130.326C92.8206 131.03 93.3857 131.866 93.7725 132.788L113.56 179.825C113.852 180.523 113.856 181.307 113.569 182.007C113.282 182.707 112.729 183.265 112.031 183.558L103.246 187.237C102.9 187.383 102.529 187.459 102.153 187.461C101.778 187.463 101.406 187.39 101.059 187.247Z" fill="#9098D9"/>
<path d="M69.103 185.588L88.1083 149.28C88.4748 148.582 89.1039 148.057 89.8577 147.821C90.6115 147.585 91.4283 147.657 92.1289 148.021L119.715 162.396C120.415 162.761 120.941 163.389 121.177 164.141C121.414 164.893 121.342 165.708 120.977 166.407L101.972 202.715C101.605 203.413 100.976 203.938 100.222 204.174C99.4685 204.41 98.6517 204.338 97.951 203.974L70.3648 189.599C69.6649 189.234 69.1391 188.606 68.9025 187.854C68.6659 187.102 68.738 186.287 69.103 185.588Z" fill="#3F3D56"/>
<path d="M81.8429 169C81.5051 168.104 80.9621 167.3 80.2572 166.651C79.5524 166.002 78.7053 165.526 77.7835 165.262C76.8617 164.997 75.8907 164.952 74.948 165.128C74.0053 165.305 73.1171 165.699 72.3541 166.279L54.1442 154.226L54.1133 165.556L71.4104 175.264C72.3652 176.356 73.675 177.078 75.11 177.303C76.5451 177.528 78.0137 177.242 79.2583 176.495C80.5029 175.748 81.4441 174.587 81.9167 173.216C82.3893 171.846 82.3632 170.353 81.8429 169Z" fill="#FFB8B8"/>
<path d="M58.826 171.548L43.9437 159.786C42.3338 159.247 40.879 158.326 39.7044 157.102C38.5298 155.878 37.6703 154.388 37.1998 152.76C36.7294 151.132 36.6619 149.414 37.0032 147.754C37.3446 146.094 38.0846 144.542 39.1596 143.23L52.6723 125.561C53.6113 124.416 54.9319 123.647 56.3927 123.394C57.8535 123.14 59.3569 123.42 60.6281 124.181C61.8993 124.943 62.8534 126.135 63.3159 127.541C63.7785 128.946 63.7186 130.471 63.1472 131.836L52.4557 149.286L68.1678 156.721C68.5332 156.894 68.8577 157.142 69.1197 157.45C69.3818 157.757 69.5755 158.116 69.6881 158.504C69.8007 158.891 69.8296 159.298 69.7729 159.697C69.7162 160.097 69.5752 160.48 69.3592 160.821L63.0167 170.835C62.8023 171.173 62.5191 171.463 62.1856 171.685C61.852 171.907 61.4754 172.056 61.0802 172.124C61.0645 172.126 61.0487 172.129 61.033 172.131C60.6447 172.19 60.2485 172.168 59.8689 172.068C59.4893 171.967 59.1343 171.79 58.826 171.548Z" fill="#9098D9"/>
<path d="M62.5833 107.763C62.5189 107.574 62.4985 107.374 62.5236 107.177C62.5487 106.98 62.6188 106.791 62.7283 106.625C62.8379 106.459 62.9841 106.32 63.1557 106.219C63.3274 106.118 63.5199 106.058 63.7185 106.043C64.1253 106.065 64.5234 106.169 64.8888 106.349C65.2541 106.528 65.5791 106.78 65.8442 107.089C66.3878 107.714 67.0206 108.256 67.7223 108.698C68.4488 109.063 69.4342 109.011 69.8484 108.315C70.2373 107.66 69.9708 106.784 69.7354 106.024C69.1362 104.091 68.8009 102.086 68.7387 100.064C68.6708 97.8059 68.9901 95.4498 70.2428 93.6889C71.8596 91.4164 74.7505 90.5536 77.4864 90.6162C80.2223 90.6787 82.9139 91.5214 85.6239 92.054C86.5595 92.2379 87.6592 92.3319 88.2849 91.6085C88.9503 90.8392 88.7059 89.5942 88.4229 88.5556C87.6885 85.8604 86.9094 83.0738 85.2031 80.8971C83.3582 78.6353 80.7228 77.155 77.8278 76.7543C75.0484 76.4108 72.2269 76.7304 69.5954 77.6868C65.308 79.0351 61.5354 81.6572 58.7821 85.2027C55.9439 88.9731 54.7175 93.7114 55.3711 98.3815C56.0095 102.449 58.1698 106.124 61.4163 108.665L62.5833 107.763Z" fill="#2F2E41"/>
<path d="M320.384 98.8699C320.384 99.5072 319.968 100.003 319.542 99.9725C319.117 99.9422 318.823 99.3959 318.863 98.7587C318.904 98.1214 319.289 97.6258 319.705 97.6561C320.12 97.6865 320.424 98.2226 320.384 98.8699Z" fill="#263238"/>
<path d="M313.145 98.3641C313.095 99.0013 312.72 99.497 312.304 99.4666C311.888 99.4363 311.584 98.8901 311.625 98.2528C311.665 97.6156 312.051 97.1199 312.466 97.1502C312.882 97.1806 313.186 97.7572 313.145 98.3641Z" fill="#263238"/>
<path d="M315.424 98.8397C314.523 100.743 313.363 102.513 311.977 104.1C312.395 104.445 312.884 104.694 313.41 104.83C313.935 104.967 314.484 104.986 315.018 104.889L315.424 98.8397Z" fill="#D89090"/>
<path d="M322.798 96.6849C322.729 96.6897 322.66 96.6764 322.597 96.6462C322.535 96.616 322.482 96.5701 322.443 96.5129C322.194 96.1113 321.854 95.7733 321.451 95.5257C321.048 95.2781 320.593 95.1278 320.121 95.0867C320.022 95.0867 319.926 95.0472 319.856 94.977C319.786 94.9069 319.746 94.8117 319.746 94.7124C319.746 94.6131 319.786 94.5179 319.856 94.4478C319.926 94.3776 320.022 94.3381 320.121 94.3381C320.718 94.3748 321.298 94.5538 321.811 94.8601C322.324 95.1663 322.756 95.5909 323.071 96.0982C323.1 96.1392 323.12 96.1854 323.13 96.2343C323.141 96.2831 323.141 96.3335 323.132 96.3825C323.122 96.4315 323.103 96.4781 323.075 96.5196C323.048 96.5611 323.012 96.5967 322.97 96.6242C322.916 96.6532 322.858 96.6737 322.798 96.6849Z" fill="#263238"/>
<path d="M317.8 108.014C318.73 107.997 319.642 107.756 320.459 107.312C321.276 106.869 321.974 106.235 322.494 105.465C322.508 105.443 322.518 105.418 322.522 105.392C322.526 105.366 322.525 105.339 322.518 105.313C322.512 105.287 322.5 105.264 322.483 105.243C322.467 105.222 322.446 105.205 322.423 105.192C322.401 105.178 322.376 105.168 322.349 105.164C322.323 105.16 322.296 105.161 322.271 105.168C322.245 105.174 322.221 105.186 322.2 105.203C322.179 105.219 322.162 105.24 322.149 105.263C321.654 105.966 321.001 106.544 320.242 106.951C319.484 107.358 318.641 107.584 317.78 107.61C317.753 107.609 317.726 107.615 317.701 107.626C317.676 107.637 317.654 107.653 317.636 107.673C317.618 107.693 317.604 107.717 317.595 107.742C317.587 107.768 317.584 107.795 317.587 107.822C317.587 107.849 317.592 107.876 317.603 107.901C317.614 107.925 317.63 107.947 317.65 107.966C317.67 107.984 317.694 107.997 317.72 108.006C317.746 108.014 317.773 108.017 317.8 108.014Z" fill="#263238"/>
<path d="M310.211 95.6532C310.141 95.6599 310.071 95.6475 310.008 95.6174C309.945 95.5874 309.891 95.5407 309.853 95.4825C309.814 95.4243 309.792 95.3567 309.789 95.287C309.786 95.2173 309.803 95.1481 309.836 95.0868C310.123 94.5612 310.533 94.1122 311.03 93.7777C311.528 93.4432 312.099 93.233 312.695 93.1649C312.744 93.1622 312.794 93.1692 312.84 93.1855C312.887 93.2018 312.93 93.2271 312.966 93.26C313.003 93.2929 313.033 93.3327 313.054 93.3771C313.075 93.4216 313.088 93.4697 313.09 93.5189C313.093 93.6175 313.058 93.7135 312.992 93.787C312.926 93.8604 312.834 93.9057 312.735 93.9134C312.266 93.9808 311.819 94.1568 311.43 94.4273C311.041 94.6977 310.721 95.0552 310.495 95.4712C310.465 95.521 310.423 95.5633 310.374 95.5949C310.325 95.6264 310.269 95.6464 310.211 95.6532Z" fill="#263238"/>
<path d="M76.3857 98.8699C76.3857 99.5072 76.8014 100.003 77.2272 99.9725C77.653 99.9422 77.947 99.3959 77.9064 98.7587C77.8659 98.1214 77.4806 97.6258 77.065 97.6561C76.6493 97.6865 76.3451 98.2226 76.3857 98.8699Z" fill="#263238"/>
<path d="M83.6397 98.3641C83.6904 99.0013 84.0655 99.497 84.4812 99.4666C84.8968 99.4363 85.201 98.8901 85.1604 98.2528C85.1199 97.6156 84.7346 97.1199 84.3189 97.1502C83.9033 97.1806 83.5991 97.7572 83.6397 98.3641Z" fill="#263238"/>
<path d="M81.346 98.8396C82.2465 100.743 83.4064 102.513 84.793 104.1C84.3744 104.444 83.8852 104.694 83.3598 104.83C82.8344 104.966 82.2855 104.986 81.7515 104.889L81.346 98.8396Z" fill="#D89090"/>
<path d="M73.9797 96.6849C74.0487 96.6897 74.1178 96.6764 74.1801 96.6462C74.2424 96.616 74.2956 96.5701 74.3345 96.5129C74.5835 96.1113 74.9231 95.7733 75.3262 95.5257C75.7292 95.2781 76.1846 95.1278 76.6561 95.0867C76.7556 95.0867 76.851 95.0472 76.9214 94.977C76.9917 94.9069 77.0312 94.8117 77.0312 94.7124C77.0312 94.6131 76.9917 94.5179 76.9214 94.4478C76.851 94.3776 76.7556 94.3381 76.6561 94.3381C76.0592 94.3748 75.4797 94.5538 74.9664 94.8601C74.4531 95.1663 74.0208 95.5909 73.7059 96.0982C73.6774 96.1392 73.6573 96.1854 73.6469 96.2343C73.6366 96.2831 73.6361 96.3335 73.6456 96.3825C73.655 96.4315 73.6742 96.4781 73.702 96.5196C73.7297 96.5611 73.7656 96.5967 73.8073 96.6242C73.8612 96.6532 73.9194 96.6737 73.9797 96.6849Z" fill="#263238"/>
<path d="M78.9774 108.014C78.0473 107.997 77.1351 107.756 76.318 107.312C75.5009 106.869 74.803 106.235 74.2834 105.465C74.2691 105.443 74.2595 105.418 74.2553 105.392C74.2512 105.366 74.2524 105.339 74.2591 105.313C74.2658 105.287 74.2777 105.264 74.2941 105.243C74.3105 105.222 74.331 105.205 74.3544 105.192C74.3768 105.178 74.4018 105.168 74.4281 105.164C74.4543 105.16 74.4811 105.161 74.5068 105.168C74.5325 105.174 74.5565 105.186 74.5774 105.203C74.5983 105.219 74.6156 105.24 74.6281 105.263C75.1238 105.966 75.7767 106.544 76.5351 106.951C77.2936 107.358 78.1367 107.584 78.9977 107.61C79.0248 107.609 79.0516 107.615 79.0764 107.626C79.1012 107.637 79.1234 107.653 79.1416 107.673C79.1598 107.693 79.1735 107.717 79.1819 107.742C79.1903 107.768 79.1932 107.795 79.1903 107.822C79.1905 107.849 79.1849 107.876 79.174 107.901C79.1631 107.925 79.147 107.947 79.1269 107.966C79.1068 107.984 79.0832 107.997 79.0574 108.006C79.0316 108.014 79.0044 108.017 78.9774 108.014Z" fill="#263238"/>
<path d="M86.5663 95.6532C86.6359 95.6599 86.706 95.6475 86.7691 95.6174C86.8322 95.5874 86.8859 95.5407 86.9245 95.4825C86.963 95.4243 86.985 95.3567 86.9879 95.287C86.9909 95.2173 86.9748 95.1481 86.9414 95.0868C86.6542 94.5612 86.2446 94.1122 85.747 93.7777C85.2494 93.4432 84.6785 93.233 84.0824 93.1649C84.0331 93.1622 83.9838 93.1692 83.9372 93.1855C83.8907 93.2018 83.8478 93.2271 83.8111 93.26C83.7743 93.2929 83.7445 93.3327 83.7232 93.3771C83.7019 93.4216 83.6896 93.4697 83.687 93.5189C83.6841 93.6175 83.7193 93.7135 83.7854 93.787C83.8514 93.8604 83.9433 93.9057 84.0419 93.9134C84.5112 93.9808 84.9582 94.1568 85.3472 94.4273C85.7362 94.6977 86.0565 95.0552 86.2824 95.4712C86.3128 95.521 86.3541 95.5633 86.4033 95.5949C86.4525 95.6264 86.5082 95.6464 86.5663 95.6532Z" fill="#263238"/>
</svg>
