<svg width="250" height="250" viewBox="0 0 250 250" fill="none" xmlns="http://www.w3.org/2000/svg">
<path d="M50.4063 85.7733C49.9361 85.7425 49.4953 85.534 49.1732 85.1902C48.8511 84.8463 48.6719 84.3928 48.6719 83.9216C48.6719 83.4505 48.8511 82.9969 49.1732 82.6531C49.4953 82.3092 49.9361 82.1007 50.4063 82.0699C54.9423 82.0699 58.7647 75.5751 58.7647 67.8829C58.7955 67.4127 59.0039 66.9719 59.3478 66.6498C59.6917 66.3277 60.1452 66.1484 60.6164 66.1484C61.0875 66.1484 61.5411 66.3277 61.8849 66.6498C62.2288 66.9719 62.4373 67.4127 62.4681 67.8829C62.4681 77.9145 57.1866 85.7733 50.4063 85.7733Z" fill="#5E66A7"/>
<path d="M78.3907 85.7733C77.9205 85.7425 77.4797 85.534 77.1576 85.1902C76.8355 84.8463 76.6562 84.3928 76.6562 83.9216C76.6562 83.4505 76.8355 82.9969 77.1576 82.6531C77.4797 82.3092 77.9205 82.1007 78.3907 82.0699C82.9267 82.0699 86.7491 75.5751 86.7491 67.8829C86.7798 67.4127 86.9883 66.9719 87.3322 66.6498C87.6761 66.3277 88.1296 66.1484 88.6008 66.1484C89.0719 66.1484 89.5254 66.3277 89.8693 66.6498C90.2132 66.9719 90.4217 67.4127 90.4525 67.8829C90.4921 77.9145 85.1551 85.7733 78.3907 85.7733Z" fill="#5E66A7"/>
<path d="M106.354 85.7731C105.883 85.7423 105.443 85.5338 105.12 85.19C104.798 84.8461 104.619 84.3926 104.619 83.9214C104.619 83.4503 104.798 82.9967 105.12 82.6528C105.443 82.309 105.883 82.1005 106.354 82.0697C110.882 82.0697 114.712 75.5749 114.712 67.8826C114.712 67.3926 114.907 66.9226 115.253 66.5761C115.6 66.2296 116.07 66.0349 116.56 66.0349C117.05 66.0349 117.52 66.2296 117.866 66.5761C118.213 66.9226 118.407 67.3926 118.407 67.8826C118.431 77.9143 113.142 85.7731 106.354 85.7731Z" fill="#5E66A7"/>
<path d="M134.36 85.7731C134.106 85.7897 133.852 85.7541 133.613 85.6686C133.374 85.583 133.155 85.4493 132.97 85.2757C132.785 85.1022 132.637 84.8924 132.536 84.6595C132.435 84.4265 132.383 84.1753 132.383 83.9214C132.383 83.6675 132.435 83.4163 132.536 83.1834C132.637 82.9504 132.785 82.7406 132.97 82.5671C133.155 82.3935 133.374 82.2598 133.613 82.1742C133.852 82.0887 134.106 82.0531 134.36 82.0697C138.888 82.0697 142.718 75.5749 142.718 67.8826C142.718 67.3926 142.913 66.9226 143.259 66.5761C143.606 66.2296 144.076 66.0349 144.566 66.0349C145.056 66.0349 145.526 66.2296 145.872 66.5761C146.219 66.9226 146.414 67.3926 146.414 67.8826C146.414 77.9143 141.116 85.7731 134.36 85.7731Z" fill="#5E66A7"/>
<path d="M162.34 85.7733C161.87 85.7425 161.429 85.534 161.107 85.1902C160.785 84.8463 160.605 84.3928 160.605 83.9216C160.605 83.4505 160.785 82.9969 161.107 82.6531C161.429 82.3092 161.87 82.1007 162.34 82.0699C166.876 82.0699 170.698 75.5751 170.698 67.8829C170.729 67.4127 170.938 66.9719 171.281 66.6498C171.625 66.3277 172.079 66.1484 172.55 66.1484C173.021 66.1484 173.475 66.3277 173.819 66.6498C174.162 66.9719 174.371 67.4127 174.402 67.8829C174.402 77.9145 169.104 85.7733 162.34 85.7733Z" fill="#5E66A7"/>
<path d="M190.32 85.7733C189.85 85.7425 189.409 85.534 189.087 85.1902C188.765 84.8463 188.586 84.3928 188.586 83.9216C188.586 83.4505 188.765 82.9969 189.087 82.6531C189.409 82.3092 189.85 82.1007 190.32 82.0699C194.848 82.0699 198.679 75.5751 198.679 67.8829C198.71 67.4127 198.918 66.9719 199.262 66.6498C199.606 66.3277 200.059 66.1484 200.53 66.1484C201.002 66.1484 201.455 66.3277 201.799 66.6498C202.143 66.9719 202.351 67.4127 202.382 67.8829C202.382 77.9145 197.085 85.7733 190.32 85.7733Z" fill="#5E66A7"/>
<g opacity="0.3">
<path d="M50.4024 85.7733C49.9322 85.7425 49.4914 85.534 49.1693 85.1902C48.8472 84.8463 48.668 84.3928 48.668 83.9216C48.668 83.4505 48.8472 82.9969 49.1693 82.6531C49.4914 82.3092 49.9322 82.1007 50.4024 82.0699C54.9384 82.0699 58.7608 75.5751 58.7608 67.8829C58.7916 67.4127 59 66.9719 59.3439 66.6498C59.6878 66.3277 60.1413 66.1484 60.6125 66.1484C61.0836 66.1484 61.5372 66.3277 61.881 66.6498C62.2249 66.9719 62.4334 67.4127 62.4642 67.8829C62.4642 77.9145 57.1827 85.7733 50.4024 85.7733Z" fill="black"/>
<path d="M78.3868 85.7733C77.9166 85.7425 77.4758 85.534 77.1537 85.1902C76.8316 84.8463 76.6523 84.3928 76.6523 83.9216C76.6523 83.4505 76.8316 82.9969 77.1537 82.6531C77.4758 82.3092 77.9166 82.1007 78.3868 82.0699C82.9228 82.0699 86.7452 75.5751 86.7452 67.8829C86.7759 67.4127 86.9844 66.9719 87.3283 66.6498C87.6722 66.3277 88.1257 66.1484 88.5969 66.1484C89.068 66.1484 89.5215 66.3277 89.8654 66.6498C90.2093 66.9719 90.4178 67.4127 90.4485 67.8829C90.4882 77.9145 85.1512 85.7733 78.3868 85.7733Z" fill="black"/>
<path d="M106.35 85.7725C105.879 85.7417 105.439 85.5332 105.117 85.1893C104.794 84.8455 104.615 84.392 104.615 83.9208C104.615 83.4496 104.794 82.9961 105.117 82.6522C105.439 82.3084 105.879 82.0999 106.35 82.0691C110.878 82.0691 114.708 75.5743 114.708 67.882C114.708 67.392 114.903 66.922 115.249 66.5755C115.596 66.229 116.066 66.0343 116.556 66.0343C117.046 66.0343 117.516 66.229 117.862 66.5755C118.209 66.922 118.404 67.392 118.404 67.882C118.427 77.9137 113.138 85.7725 106.35 85.7725Z" fill="black"/>
<path d="M134.36 85.7725C134.106 85.7891 133.852 85.7535 133.613 85.6679C133.374 85.5824 133.155 85.4487 132.97 85.2751C132.785 85.1016 132.637 84.8918 132.536 84.6589C132.435 84.4259 132.383 84.1747 132.383 83.9208C132.383 83.6669 132.435 83.4157 132.536 83.1827C132.637 82.9498 132.785 82.74 132.97 82.5664C133.155 82.3929 133.374 82.2592 133.613 82.1736C133.852 82.0881 134.106 82.0525 134.36 82.0691C138.888 82.0691 142.718 75.5743 142.718 67.882C142.718 67.392 142.913 66.922 143.259 66.5755C143.606 66.229 144.076 66.0343 144.566 66.0343C145.056 66.0343 145.526 66.229 145.872 66.5755C146.219 66.922 146.414 67.392 146.414 67.882C146.414 77.9137 141.116 85.7725 134.36 85.7725Z" fill="black"/>
<path d="M162.34 85.7733C161.87 85.7425 161.429 85.534 161.107 85.1902C160.785 84.8463 160.605 84.3928 160.605 83.9216C160.605 83.4505 160.785 82.9969 161.107 82.6531C161.429 82.3092 161.87 82.1007 162.34 82.0699C166.876 82.0699 170.698 75.5751 170.698 67.8829C170.729 67.4127 170.938 66.9719 171.281 66.6498C171.625 66.3277 172.079 66.1484 172.55 66.1484C173.021 66.1484 173.475 66.3277 173.819 66.6498C174.162 66.9719 174.371 67.4127 174.402 67.8829C174.402 77.9145 169.104 85.7733 162.34 85.7733Z" fill="black"/>
<path d="M190.32 85.7733C189.85 85.7425 189.409 85.534 189.087 85.1902C188.765 84.8463 188.586 84.3928 188.586 83.9216C188.586 83.4505 188.765 82.9969 189.087 82.6531C189.409 82.3092 189.85 82.1007 190.32 82.0699C194.848 82.0699 198.679 75.5751 198.679 67.8829C198.71 67.4127 198.918 66.9719 199.262 66.6498C199.606 66.3277 200.059 66.1484 200.53 66.1484C201.002 66.1484 201.455 66.3277 201.799 66.6498C202.143 66.9719 202.351 67.4127 202.382 67.8829C202.382 77.9145 197.085 85.7733 190.32 85.7733Z" fill="black"/>
</g>
<path d="M32.872 69.7778H213.03C215.445 69.8262 217.76 70.7544 219.54 72.3882C221.32 74.022 222.442 76.2491 222.696 78.6517L232.673 191.125C232.794 192.254 232.674 193.395 232.322 194.474C231.969 195.553 231.391 196.545 230.626 197.384C229.862 198.222 228.928 198.889 227.886 199.34C226.844 199.791 225.719 200.016 224.584 199.999H44.4183C42.0038 199.947 39.6908 199.018 37.9117 197.385C36.1326 195.752 35.0092 193.527 34.7514 191.125L24.7832 78.6517C24.6605 77.5229 24.7793 76.3809 25.1315 75.3015C25.4838 74.222 26.0615 73.2298 26.8265 72.3907C27.5914 71.5515 28.526 70.8846 29.5682 70.4341C30.6105 69.9837 31.7367 69.76 32.872 69.7778Z" fill="#5E66A7"/>
<path opacity="0.4" d="M32.872 69.7778H213.03C215.445 69.8262 217.76 70.7544 219.54 72.3882C221.32 74.022 222.442 76.2491 222.696 78.6517L232.673 191.125C232.794 192.254 232.674 193.395 232.322 194.474C231.969 195.553 231.391 196.545 230.626 197.384C229.862 198.222 228.928 198.889 227.886 199.34C226.844 199.791 225.719 200.016 224.584 199.999H44.4183C42.0038 199.947 39.6908 199.018 37.9117 197.385C36.1326 195.752 35.0092 193.527 34.7514 191.125L24.7832 78.6517C24.6605 77.5229 24.7793 76.3809 25.1315 75.3015C25.4838 74.222 26.0615 73.2298 26.8265 72.3907C27.5914 71.5515 28.526 70.8846 29.5682 70.4341C30.6105 69.9837 31.7367 69.76 32.872 69.7778Z" fill="#FAFAFA"/>
<path d="M211.529 69.7777H31.3634C28.9803 69.8061 26.6969 70.7381 24.9746 72.3853C23.2523 74.0325 22.2195 76.2722 22.0851 78.6516L17.0098 191.125C16.9493 192.271 17.1234 193.417 17.5214 194.493C17.9194 195.569 18.5329 196.553 19.3243 197.384C20.1157 198.215 21.0684 198.875 22.124 199.325C23.1796 199.774 24.3159 200.004 25.4633 199.999H205.645C208.028 199.971 210.311 199.039 212.033 197.391C213.756 195.744 214.789 193.505 214.923 191.125L220.006 78.6516C220.066 77.504 219.89 76.3565 219.49 75.2792C219.09 74.2019 218.475 73.2177 217.681 72.3868C216.887 71.5559 215.932 70.8959 214.874 70.4473C213.816 69.9986 212.678 69.7708 211.529 69.7777Z" fill="#5E66A7"/>
<path opacity="0.2" d="M211.529 69.7777H31.3634C28.9803 69.8061 26.6969 70.7381 24.9746 72.3853C23.2523 74.0325 22.2195 76.2722 22.0851 78.6516L17.0098 191.125C16.9493 192.271 17.1234 193.417 17.5214 194.493C17.9194 195.569 18.5329 196.553 19.3243 197.384C20.1157 198.215 21.0684 198.875 22.124 199.325C23.1796 199.774 24.3159 200.004 25.4633 199.999H205.645C208.028 199.971 210.311 199.039 212.033 197.391C213.756 195.744 214.789 193.505 214.923 191.125L220.006 78.6516C220.066 77.504 219.89 76.3565 219.49 75.2792C219.09 74.2019 218.475 73.2177 217.681 72.3868C216.887 71.5559 215.932 70.8959 214.874 70.4473C213.816 69.9986 212.678 69.7708 211.529 69.7777Z" fill="#FAFAFA"/>
<path d="M34.6723 170.277L38.8673 77.3905C38.9176 76.4793 39.3129 75.6215 39.9727 74.9911C40.6325 74.3607 41.5075 74.0051 42.42 73.9964H200.096C200.535 73.9937 200.971 74.0807 201.375 74.2523C201.78 74.4238 202.145 74.6763 202.449 74.9941C202.753 75.3119 202.988 75.6883 203.141 76.1004C203.294 76.5125 203.362 76.9515 203.339 77.3905L199.136 170.277C199.086 171.188 198.691 172.046 198.031 172.676C197.371 173.306 196.496 173.662 195.583 173.671H37.9157C37.4761 173.673 37.0406 173.586 36.6359 173.415C36.2312 173.243 35.8658 172.991 35.5621 172.673C35.2584 172.355 35.0228 171.979 34.8698 171.567C34.7168 171.155 34.6496 170.716 34.6723 170.277Z" fill="#5E66A7"/>
<path opacity="0.1" d="M34.6723 170.277L38.8673 77.3905C38.9176 76.4793 39.3129 75.6215 39.9727 74.9911C40.6325 74.3607 41.5075 74.0051 42.42 73.9964H200.096C200.535 73.9937 200.971 74.0807 201.375 74.2523C201.78 74.4238 202.145 74.6763 202.449 74.9941C202.753 75.3119 202.988 75.6883 203.141 76.1004C203.294 76.5125 203.362 76.9515 203.339 77.3905L199.136 170.277C199.086 171.188 198.691 172.046 198.031 172.676C197.371 173.306 196.496 173.662 195.583 173.671H37.9157C37.4761 173.673 37.0406 173.586 36.6359 173.415C36.2312 173.243 35.8658 172.991 35.5621 172.673C35.2584 172.355 35.0228 171.979 34.8698 171.567C34.7168 171.155 34.6496 170.716 34.6723 170.277Z" fill="#FAFAFA"/>
<path opacity="0.1" d="M30.2226 177.858L34.6239 80.3171C34.6744 79.3604 35.0883 78.4591 35.781 77.7973C36.4738 77.1355 37.393 76.7632 38.3511 76.7565H203.933C204.394 76.7525 204.852 76.8432 205.277 77.0228C205.702 77.2024 206.085 77.4672 206.404 77.8008C206.723 78.1345 206.97 78.5298 207.13 78.9626C207.29 79.3954 207.36 79.8564 207.335 80.3171L202.926 177.858C202.876 178.814 202.463 179.715 201.772 180.378C201.081 181.041 200.164 181.416 199.207 181.427H33.6088C33.1477 181.43 32.6909 181.338 32.2666 181.157C31.8424 180.977 31.4597 180.711 31.1423 180.376C30.8249 180.042 30.5795 179.646 30.4213 179.213C30.2631 178.78 30.1955 178.319 30.2226 177.858Z" fill="black"/>
<path d="M26.1286 185.725L30.7202 83.9808C30.7819 82.986 31.2159 82.0508 31.936 81.3616C32.6561 80.6724 33.6094 80.2796 34.606 80.2616H207.333C207.815 80.2576 208.292 80.3524 208.736 80.5401C209.18 80.7278 209.581 81.0044 209.914 81.3529C210.247 81.7013 210.505 82.1143 210.672 82.5663C210.839 83.0182 210.912 83.4996 210.886 83.9808L206.27 185.725C206.209 186.72 205.775 187.655 205.055 188.344C204.334 189.033 203.381 189.426 202.385 189.444H29.6814C29.1992 189.449 28.721 189.355 28.2766 189.168C27.8322 188.981 27.4311 188.704 27.098 188.355C26.7649 188.007 26.507 187.593 26.3402 187.141C26.1735 186.688 26.1015 186.206 26.1286 185.725Z" fill="#FAFAFA"/>
<path d="M190.299 86.3598C189.975 86.3604 189.653 86.2945 189.355 86.1661C189.056 86.0377 188.787 85.8496 188.565 85.6133C188.342 85.3771 188.17 85.0977 188.059 84.7924C187.948 84.487 187.901 84.1623 187.92 83.838C187.951 83.2018 188.223 82.6012 188.681 82.159C189.14 81.7167 189.75 81.4664 190.387 81.459C190.711 81.4584 191.033 81.5243 191.331 81.6527C191.63 81.7811 191.899 81.9692 192.121 82.2055C192.344 82.4418 192.516 82.7211 192.627 83.0265C192.738 83.3318 192.785 83.6566 192.766 83.9808C192.735 84.617 192.463 85.2176 192.005 85.6599C191.546 86.1021 190.936 86.3525 190.299 86.3598Z" fill="#5E66A7"/>
<path d="M162.315 86.3598C161.99 86.3604 161.669 86.2945 161.37 86.1661C161.072 86.0377 160.803 85.8496 160.58 85.6133C160.357 85.3771 160.185 85.0977 160.074 84.7924C159.964 84.487 159.916 84.1623 159.936 83.838C159.966 83.2018 160.238 82.6012 160.697 82.159C161.155 81.7167 161.765 81.4664 162.402 81.459C162.727 81.4584 163.049 81.5243 163.347 81.6527C163.645 81.7811 163.914 81.9692 164.137 82.2055C164.36 82.4418 164.532 82.7211 164.643 83.0265C164.754 83.3318 164.801 83.6566 164.781 83.9808C164.753 84.6177 164.481 85.2194 164.022 85.662C163.564 86.1046 162.952 86.3544 162.315 86.3598Z" fill="#5E66A7"/>
<path d="M134.329 86.3598C134.004 86.3604 133.682 86.2945 133.384 86.1661C133.086 86.0377 132.817 85.8496 132.594 85.6133C132.371 85.3771 132.199 85.0977 132.088 84.7924C131.977 84.487 131.93 84.1623 131.95 83.838C131.982 83.2025 132.255 82.6029 132.713 82.1611C133.171 81.7193 133.78 81.4682 134.416 81.459C134.741 81.4584 135.062 81.5243 135.361 81.6527C135.659 81.7811 135.928 81.9692 136.151 82.2055C136.374 82.4418 136.546 82.7211 136.657 83.0265C136.767 83.3318 136.814 83.6566 136.795 83.9808C136.767 84.6177 136.495 85.2194 136.036 85.662C135.577 86.1046 134.966 86.3544 134.329 86.3598Z" fill="#5E66A7"/>
<path d="M106.354 86.3598C106.029 86.3604 105.708 86.2945 105.409 86.1661C105.111 86.0377 104.842 85.8496 104.619 85.6133C104.396 85.3771 104.224 85.0977 104.113 84.7924C104.003 84.487 103.956 84.1623 103.975 83.838C104.009 83.2018 104.284 82.6022 104.743 82.1605C105.202 81.7189 105.812 81.4681 106.449 81.459C106.774 81.4584 107.095 81.5243 107.394 81.6527C107.692 81.7811 107.961 81.9692 108.184 82.2055C108.407 82.4418 108.579 82.7211 108.69 83.0265C108.801 83.3318 108.848 83.6566 108.828 83.9808C108.8 84.619 108.527 85.2219 108.067 85.6647C107.606 86.1075 106.993 86.3564 106.354 86.3598Z" fill="#5E66A7"/>
<path d="M78.3658 86.3598C78.041 86.3604 77.7195 86.2945 77.4211 86.1661C77.1228 86.0377 76.8538 85.8496 76.631 85.6133C76.4081 85.3771 76.2359 85.0977 76.1251 84.7924C76.0143 84.487 75.9672 84.1623 75.9867 83.838C76.017 83.2018 76.2892 82.6012 76.7476 82.159C77.206 81.7167 77.8161 81.4664 78.453 81.459C78.7778 81.4584 79.0993 81.5243 79.3976 81.6527C79.696 81.7811 79.9649 81.9692 80.1878 82.2055C80.4107 82.4418 80.5828 82.7211 80.6936 83.0265C80.8044 83.3318 80.8515 83.6566 80.832 83.9808C80.8018 84.617 80.5296 85.2176 80.0711 85.6599C79.6127 86.1021 79.0027 86.3525 78.3658 86.3598Z" fill="#5E66A7"/>
<path d="M50.3814 86.3598C50.0566 86.3604 49.7351 86.2945 49.4367 86.1661C49.1384 86.0377 48.8695 85.8496 48.6466 85.6133C48.4237 85.3771 48.2516 85.0977 48.1408 84.7924C48.0299 84.487 47.9828 84.1623 48.0023 83.838C48.0326 83.2018 48.3048 82.6012 48.7632 82.159C49.2217 81.7167 49.8317 81.4664 50.4686 81.459C50.7934 81.4584 51.1149 81.5243 51.4133 81.6527C51.7116 81.7811 51.9805 81.9692 52.2034 82.2055C52.4263 82.4418 52.5984 82.7211 52.7092 83.0265C52.8201 83.3318 52.8672 83.6566 52.8477 83.9808C52.8193 84.6177 52.5477 85.2194 52.0888 85.662C51.63 86.1046 51.0189 86.3544 50.3814 86.3598Z" fill="#5E66A7"/>
<g opacity="0.1">
<path d="M190.299 86.3595C189.975 86.36 189.653 86.2941 189.355 86.1657C189.056 86.0373 188.787 85.8492 188.565 85.613C188.342 85.3767 188.17 85.0973 188.059 84.792C187.948 84.4867 187.901 84.1619 187.92 83.8377C187.951 83.2014 188.223 82.6008 188.681 82.1586C189.14 81.7164 189.75 81.466 190.387 81.4586C190.711 81.458 191.033 81.524 191.331 81.6524C191.63 81.7807 191.899 81.9689 192.121 82.2051C192.344 82.4414 192.516 82.7208 192.627 83.0261C192.738 83.3314 192.785 83.6562 192.766 83.9804C192.735 84.6166 192.463 85.2173 192.005 85.6595C191.546 86.1017 190.936 86.3521 190.299 86.3595Z" fill="#FAFAFA"/>
<path d="M162.319 86.3595C161.994 86.36 161.673 86.2941 161.374 86.1657C161.076 86.0373 160.807 85.8492 160.584 85.613C160.361 85.3767 160.189 85.0973 160.078 84.792C159.967 84.4867 159.92 84.1619 159.94 83.8377C159.97 83.2014 160.242 82.6008 160.701 82.1586C161.159 81.7164 161.769 81.466 162.406 81.4586C162.731 81.458 163.052 81.524 163.351 81.6524C163.649 81.7807 163.918 81.9689 164.141 82.2051C164.364 82.4414 164.536 82.7208 164.647 83.0261C164.758 83.3314 164.805 83.6562 164.785 83.9804C164.757 84.6173 164.485 85.219 164.026 85.6616C163.567 86.1043 162.956 86.354 162.319 86.3595Z" fill="#FAFAFA"/>
<path d="M134.333 86.3595C134.008 86.36 133.686 86.2941 133.388 86.1657C133.09 86.0373 132.821 85.8492 132.598 85.613C132.375 85.3767 132.203 85.0973 132.092 84.792C131.981 84.4867 131.934 84.1619 131.954 83.8377C131.986 83.2021 132.258 82.6025 132.716 82.1607C133.174 81.7189 133.783 81.4679 134.42 81.4586C134.745 81.458 135.066 81.524 135.364 81.6524C135.663 81.7807 135.932 81.9689 136.155 82.2051C136.377 82.4414 136.55 82.7208 136.66 83.0261C136.771 83.3314 136.818 83.6562 136.799 83.9804C136.77 84.6173 136.499 85.219 136.04 85.6616C135.581 86.1043 134.97 86.354 134.333 86.3595Z" fill="#FAFAFA"/>
<path d="M106.354 86.3595C106.029 86.36 105.708 86.2941 105.409 86.1657C105.111 86.0373 104.842 85.8492 104.619 85.613C104.396 85.3767 104.224 85.0973 104.113 84.792C104.003 84.4867 103.956 84.1619 103.975 83.8377C104.009 83.2014 104.284 82.6018 104.743 82.1602C105.202 81.7185 105.812 81.4678 106.449 81.4586C106.774 81.458 107.095 81.524 107.394 81.6524C107.692 81.7807 107.961 81.9689 108.184 82.2051C108.407 82.4414 108.579 82.7208 108.69 83.0261C108.801 83.3314 108.848 83.6562 108.828 83.9804C108.8 84.6187 108.527 85.2215 108.067 85.6644C107.606 86.1072 106.993 86.356 106.354 86.3595Z" fill="#FAFAFA"/>
<path d="M78.3658 86.3595C78.041 86.36 77.7195 86.2941 77.4211 86.1657C77.1228 86.0373 76.8538 85.8492 76.631 85.613C76.4081 85.3767 76.2359 85.0973 76.1251 84.792C76.0143 84.4867 75.9672 84.1619 75.9867 83.8377C76.017 83.2014 76.2892 82.6008 76.7476 82.1586C77.206 81.7164 77.8161 81.466 78.453 81.4586C78.7778 81.458 79.0993 81.524 79.3976 81.6524C79.696 81.7807 79.9649 81.9689 80.1878 82.2051C80.4107 82.4414 80.5828 82.7208 80.6936 83.0261C80.8044 83.3314 80.8515 83.6562 80.832 83.9804C80.8018 84.6166 80.5296 85.2173 80.0711 85.6595C79.6127 86.1017 79.0027 86.3521 78.3658 86.3595Z" fill="#FAFAFA"/>
<path d="M50.3814 86.3593C50.0566 86.3599 49.7351 86.294 49.4367 86.1656C49.1384 86.0372 48.8695 85.8491 48.6466 85.6129C48.4237 85.3766 48.2516 85.0972 48.1408 84.7919C48.0299 84.4865 47.9828 84.1618 48.0023 83.8376C48.0326 83.2013 48.3048 82.6007 48.7632 82.1585C49.2217 81.7163 49.8317 81.4659 50.4686 81.4585C50.7934 81.4579 51.1149 81.5238 51.4133 81.6522C51.7116 81.7806 51.9805 81.9687 52.2034 82.205C52.4263 82.4413 52.5984 82.7206 52.7092 83.026C52.8201 83.3313 52.8672 83.6561 52.8477 83.9803C52.8193 84.6172 52.5477 85.2189 52.0888 85.6615C51.63 86.1041 51.0189 86.3539 50.3814 86.3593Z" fill="#FAFAFA"/>
</g>
<path d="M57.3718 95.2263H43.2957C43.0917 95.228 42.8895 95.1873 42.7019 95.1068C42.5144 95.0264 42.3456 94.9078 42.2062 94.7588C42.0668 94.6097 41.9599 94.4333 41.8922 94.2408C41.8244 94.0483 41.7974 93.8438 41.8128 93.6403C41.8285 93.2247 42.0006 92.8303 42.2947 92.5362C42.5888 92.2421 42.9832 92.0699 43.3988 92.0542H57.4749C57.6789 92.0526 57.8811 92.0933 58.0687 92.1738C58.2562 92.2542 58.425 92.3728 58.5644 92.5218C58.7038 92.6709 58.8107 92.8473 58.8784 93.0398C58.9461 93.2323 58.9732 93.4368 58.9578 93.6403C58.9421 94.0559 58.77 94.4503 58.4759 94.7444C58.1818 95.0385 57.7874 95.2106 57.3718 95.2263Z" fill="#5E66A7"/>
<path d="M85.3601 95.2263H71.284C71.0799 95.228 70.8777 95.1873 70.6902 95.1068C70.5026 95.0263 70.3338 94.9078 70.1945 94.7587C70.0551 94.6097 69.9482 94.4333 69.8804 94.2408C69.8127 94.0483 69.7857 93.8438 69.8011 93.6403C69.8173 93.218 69.995 92.818 70.2974 92.5229C70.5999 92.2278 71.0042 92.06 71.4267 92.0542H85.4949C85.6993 92.0527 85.9018 92.0933 86.0897 92.1737C86.2776 92.2541 86.4469 92.3725 86.5869 92.5215C86.7269 92.6704 86.8346 92.8467 86.9032 93.0392C86.9719 93.2317 87 93.4364 86.9857 93.6403C86.9695 94.0626 86.7918 94.4625 86.4893 94.7577C86.1868 95.0528 85.7826 95.2205 85.3601 95.2263Z" fill="#5E66A7"/>
<path d="M113.344 95.2263H99.2679C99.0635 95.2279 98.861 95.1872 98.6731 95.1068C98.4851 95.0264 98.3159 94.908 98.1759 94.7591C98.0359 94.6102 97.9282 94.4339 97.8595 94.2414C97.7909 94.0489 97.7628 93.8442 97.777 93.6403C97.7932 93.218 97.9709 92.818 98.2734 92.5229C98.5759 92.2278 98.9801 92.06 99.4027 92.0542H113.487C113.691 92.0526 113.893 92.0933 114.081 92.1738C114.268 92.2542 114.437 92.3728 114.576 92.5218C114.716 92.6709 114.823 92.8473 114.89 93.0398C114.958 93.2323 114.985 93.4368 114.97 93.6403C114.955 94.0632 114.778 94.4643 114.475 94.7598C114.172 95.0554 113.767 95.2225 113.344 95.2263Z" fill="#5E66A7"/>
<path d="M141.321 95.2263H127.245C127.041 95.228 126.839 95.1873 126.651 95.1068C126.464 95.0264 126.295 94.9078 126.155 94.7588C126.016 94.6097 125.909 94.4333 125.841 94.2408C125.774 94.0483 125.747 93.8438 125.762 93.6403C125.778 93.2247 125.95 92.8303 126.244 92.5362C126.538 92.2421 126.932 92.0699 127.348 92.0542H141.424C141.628 92.0526 141.83 92.0933 142.018 92.1738C142.205 92.2542 142.374 92.3728 142.514 92.5218C142.653 92.6709 142.76 92.8473 142.828 93.0398C142.895 93.2323 142.922 93.4368 142.907 93.6403C142.891 94.0559 142.719 94.4503 142.425 94.7444C142.131 95.0385 141.737 95.2106 141.321 95.2263Z" fill="#5E66A7"/>
<path d="M169.309 95.2263H155.233C155.029 95.228 154.827 95.1873 154.639 95.1068C154.452 95.0264 154.283 94.9078 154.144 94.7588C154.004 94.6097 153.897 94.4333 153.83 94.2408C153.762 94.0483 153.735 93.8438 153.75 93.6403C153.766 93.218 153.944 92.818 154.247 92.5229C154.549 92.2278 154.953 92.06 155.376 92.0542H169.452C169.656 92.0526 169.858 92.0933 170.046 92.1738C170.233 92.2542 170.402 92.3728 170.542 92.5218C170.681 92.6709 170.788 92.8473 170.856 93.0398C170.923 93.2323 170.95 93.4368 170.935 93.6403C170.919 94.0626 170.741 94.4625 170.439 94.7577C170.136 95.0528 169.732 95.2205 169.309 95.2263Z" fill="#FCF670"/>
<path d="M197.294 95.2263H183.218C183.014 95.228 182.811 95.1873 182.624 95.1068C182.436 95.0263 182.267 94.9078 182.128 94.7587C181.989 94.6097 181.882 94.4333 181.814 94.2408C181.746 94.0483 181.719 93.8438 181.735 93.6403C181.751 93.218 181.929 92.818 182.231 92.5229C182.534 92.2278 182.938 92.06 183.36 92.0542H197.428C197.633 92.0527 197.835 92.0933 198.023 92.1737C198.211 92.2541 198.38 92.3725 198.52 92.5215C198.66 92.6704 198.768 92.8467 198.837 93.0392C198.905 93.2317 198.934 93.4364 198.919 93.6403C198.903 94.0626 198.725 94.4625 198.423 94.7577C198.12 95.0528 197.716 95.2205 197.294 95.2263Z" fill="#FCF670"/>
<g opacity="0.3">
<path d="M57.3718 95.2252H43.2957C43.0917 95.2269 42.8895 95.1862 42.7019 95.1057C42.5144 95.0253 42.3456 94.9067 42.2062 94.7577C42.0668 94.6086 41.9599 94.4322 41.8922 94.2397C41.8244 94.0472 41.7974 93.8427 41.8128 93.6392C41.8285 93.2236 42.0006 92.8292 42.2947 92.5351C42.5888 92.241 42.9832 92.0689 43.3988 92.0532H57.4749C57.6789 92.0515 57.8811 92.0922 58.0687 92.1727C58.2562 92.2531 58.425 92.3717 58.5644 92.5207C58.7038 92.6698 58.8107 92.8462 58.8784 93.0387C58.9461 93.2312 58.9732 93.4357 58.9578 93.6392C58.9421 94.0548 58.77 94.4492 58.4759 94.7433C58.1818 95.0374 57.7874 95.2095 57.3718 95.2252Z" fill="black"/>
<path d="M85.3561 95.2251H71.2801C71.076 95.2268 70.8738 95.1861 70.6863 95.1056C70.4987 95.0251 70.3299 94.9066 70.1906 94.7575C70.0512 94.6085 69.9443 94.4321 69.8765 94.2396C69.8088 94.047 69.7818 93.8426 69.7972 93.6391C69.8134 93.2168 69.991 92.8168 70.2935 92.5217C70.596 92.2266 71.0003 92.0588 71.4228 92.053H85.491C85.6954 92.0514 85.8979 92.0921 86.0858 92.1725C86.2737 92.2529 86.443 92.3713 86.583 92.5202C86.723 92.6692 86.8307 92.8454 86.8993 93.038C86.968 93.2305 86.996 93.4352 86.9818 93.6391C86.9656 94.0614 86.7879 94.4613 86.4854 94.7564C86.1829 95.0516 85.7787 95.2193 85.3561 95.2251Z" fill="black"/>
<path d="M113.342 95.2251H99.266C99.0616 95.2267 98.859 95.186 98.6711 95.1056C98.4832 95.0252 98.3139 94.9068 98.1739 94.7579C98.0339 94.609 97.9262 94.4327 97.8576 94.2402C97.789 94.0476 97.7609 93.843 97.7751 93.6391C97.7913 93.2168 97.969 92.8168 98.2715 92.5217C98.574 92.2266 98.9782 92.0588 99.4008 92.053H113.485C113.689 92.0514 113.891 92.092 114.079 92.1725C114.266 92.253 114.435 92.3715 114.574 92.5206C114.714 92.6697 114.821 92.8461 114.888 93.0386C114.956 93.2311 114.983 93.4356 114.968 93.6391C114.953 94.062 114.776 94.4631 114.473 94.7586C114.17 95.0541 113.765 95.2212 113.342 95.2251Z" fill="black"/>
<path d="M141.321 95.2251H127.245C127.041 95.2268 126.839 95.1861 126.651 95.1056C126.464 95.0251 126.295 94.9066 126.155 94.7575C126.016 94.6085 125.909 94.4321 125.841 94.2396C125.774 94.047 125.747 93.8426 125.762 93.6391C125.778 93.2234 125.95 92.8291 126.244 92.535C126.538 92.2409 126.932 92.0687 127.348 92.053H141.424C141.628 92.0514 141.83 92.092 142.018 92.1725C142.205 92.253 142.374 92.3715 142.514 92.5206C142.653 92.6697 142.76 92.8461 142.828 93.0386C142.895 93.2311 142.922 93.4356 142.907 93.6391C142.891 94.0547 142.719 94.4491 142.425 94.7432C142.131 95.0373 141.737 95.2094 141.321 95.2251Z" fill="black"/>
<path d="M169.309 95.2251H155.233C155.029 95.2268 154.827 95.1861 154.639 95.1056C154.452 95.0251 154.283 94.9066 154.144 94.7575C154.004 94.6085 153.897 94.4321 153.83 94.2396C153.762 94.047 153.735 93.8426 153.75 93.6391C153.766 93.2168 153.944 92.8168 154.247 92.5217C154.549 92.2266 154.953 92.0588 155.376 92.053H169.452C169.656 92.0514 169.858 92.092 170.046 92.1725C170.233 92.253 170.402 92.3715 170.542 92.5206C170.681 92.6697 170.788 92.8461 170.856 93.0386C170.923 93.2311 170.95 93.4356 170.935 93.6391C170.919 94.0614 170.741 94.4613 170.439 94.7564C170.136 95.0516 169.732 95.2193 169.309 95.2251Z" fill="#FCF670"/>
<path d="M197.29 95.2251H183.214C183.01 95.2268 182.807 95.1861 182.62 95.1056C182.432 95.0251 182.264 94.9066 182.124 94.7575C181.985 94.6085 181.878 94.4321 181.81 94.2396C181.742 94.047 181.715 93.8426 181.731 93.6391C181.747 93.2168 181.925 92.8168 182.227 92.5217C182.53 92.2266 182.934 92.0588 183.356 92.053H197.425C197.629 92.0514 197.831 92.0921 198.019 92.1725C198.207 92.2529 198.377 92.3713 198.517 92.5202C198.657 92.6692 198.764 92.8454 198.833 93.038C198.902 93.2305 198.93 93.4352 198.915 93.6391C198.899 94.0614 198.722 94.4613 198.419 94.7564C198.117 95.0516 197.712 95.2193 197.29 95.2251Z" fill="#FCF670"/>
</g>
<path d="M58.1519 125.178H39.8174C39.4153 125.179 39.017 125.099 38.647 124.941C38.277 124.784 37.943 124.553 37.6655 124.262C37.3879 123.971 37.1725 123.626 37.0326 123.249C36.8926 122.872 36.831 122.471 36.8515 122.069L37.6445 103.735C37.6926 102.901 38.0548 102.117 38.6582 101.54C39.2616 100.963 40.0612 100.637 40.8959 100.626H59.2304C59.6326 100.624 60.0308 100.705 60.4008 100.862C60.7708 101.02 61.1048 101.251 61.3823 101.542C61.6599 101.833 61.8753 102.177 62.0152 102.554C62.1552 102.931 62.2168 103.333 62.1963 103.735L61.4033 122.069C61.3534 122.902 60.9906 123.685 60.3876 124.261C59.7846 124.838 58.9861 125.165 58.1519 125.178Z" fill="#5E66A7"/>
<path d="M86.1387 125.178H67.8041C67.4017 125.181 67.0029 125.101 66.6324 124.944C66.2619 124.787 65.9274 124.555 65.6496 124.264C65.3718 123.973 65.1565 123.628 65.017 123.251C64.8774 122.873 64.8166 122.471 64.8383 122.069L65.6313 103.735C65.6794 102.901 66.0416 102.117 66.645 101.54C67.2483 100.963 68.048 100.637 68.8826 100.626H87.241C87.6434 100.624 88.042 100.705 88.4124 100.862C88.7828 101.02 89.1173 101.251 89.3955 101.542C89.6737 101.832 89.8898 102.177 90.0307 102.554C90.1715 102.931 90.2342 103.333 90.2148 103.735L89.3821 122.069C89.336 122.902 88.9754 123.686 88.3734 124.263C87.7713 124.84 86.9726 125.167 86.1387 125.178Z" fill="#5E66A7"/>
<path d="M114.116 125.178H95.7898C95.3873 125.179 94.9887 125.099 94.6183 124.942C94.2479 124.784 93.9134 124.553 93.6352 124.262C93.357 123.971 93.1409 123.627 93.0001 123.25C92.8592 122.873 92.7966 122.471 92.8159 122.069L93.609 103.735C93.657 102.901 94.0193 102.117 94.6226 101.54C95.226 100.963 96.0256 100.637 96.8603 100.626H115.187C115.589 100.623 115.988 100.703 116.359 100.86C116.729 101.017 117.064 101.248 117.341 101.54C117.619 101.831 117.835 102.176 117.974 102.553C118.114 102.931 118.174 103.333 118.153 103.735L117.36 122.069C117.312 122.901 116.951 123.684 116.349 124.261C115.747 124.838 114.95 125.165 114.116 125.178Z" fill="#5E66A7"/>
<path d="M142.101 125.178H123.798C123.395 125.18 122.996 125.101 122.625 124.944C122.254 124.787 121.919 124.556 121.641 124.265C121.362 123.974 121.146 123.629 121.006 123.251C120.865 122.874 120.804 122.471 120.824 122.069L121.617 103.735C121.663 102.902 122.024 102.118 122.626 101.541C123.228 100.964 124.027 100.637 124.861 100.626H143.195C143.597 100.624 143.996 100.705 144.366 100.862C144.736 101.02 145.069 101.251 145.347 101.542C145.625 101.833 145.84 102.177 145.98 102.554C146.12 102.931 146.182 103.333 146.161 103.735L145.368 122.069C145.32 122.905 144.955 123.692 144.349 124.269C143.742 124.846 142.938 125.171 142.101 125.178Z" fill="#5E66A7"/>
<path d="M170.086 125.178H151.751C151.349 125.179 150.951 125.099 150.581 124.942C150.211 124.784 149.877 124.553 149.599 124.262C149.321 123.971 149.106 123.626 148.966 123.249C148.826 122.872 148.765 122.471 148.785 122.069L149.578 103.735C149.626 102.901 149.988 102.117 150.592 101.54C151.195 100.963 151.995 100.637 152.829 100.626H171.156C171.559 100.623 171.958 100.703 172.329 100.86C172.7 101.017 173.035 101.248 173.313 101.539C173.592 101.83 173.808 102.175 173.948 102.553C174.089 102.93 174.15 103.332 174.13 103.735L173.337 122.069C173.287 122.902 172.924 123.685 172.321 124.262C171.718 124.838 170.92 125.165 170.086 125.178Z" fill="#5E66A7"/>
<path d="M198.06 125.178H179.734C179.331 125.181 178.933 125.101 178.562 124.944C178.192 124.787 177.857 124.555 177.579 124.264C177.301 123.973 177.086 123.628 176.947 123.251C176.807 122.873 176.746 122.471 176.768 122.069L177.561 103.735C177.609 102.901 177.971 102.117 178.575 101.54C179.178 100.963 179.978 100.637 180.812 100.626H199.139C199.541 100.624 199.94 100.705 200.31 100.862C200.681 101.02 201.015 101.251 201.293 101.542C201.572 101.832 201.788 102.177 201.929 102.554C202.07 102.931 202.132 103.333 202.113 103.735L201.28 122.069C201.234 122.898 200.877 123.679 200.28 124.255C199.683 124.831 198.89 125.161 198.06 125.178Z" fill="#5E66A7"/>
<g opacity="0.8">
<path d="M58.1519 125.178H39.8174C39.4153 125.18 39.017 125.099 38.647 124.942C38.277 124.784 37.943 124.553 37.6655 124.262C37.3879 123.971 37.1725 123.626 37.0326 123.249C36.8926 122.872 36.831 122.471 36.8515 122.069L37.6445 103.735C37.6926 102.901 38.0548 102.117 38.6582 101.54C39.2616 100.963 40.0612 100.637 40.8959 100.626H59.2304C59.6326 100.625 60.0308 100.705 60.4008 100.862C60.7708 101.02 61.1048 101.251 61.3823 101.542C61.6599 101.833 61.8753 102.178 62.0152 102.555C62.1552 102.932 62.2168 103.333 62.1963 103.735L61.4033 122.069C61.3534 122.902 60.9906 123.685 60.3876 124.262C59.7846 124.838 58.9861 125.165 58.1519 125.178Z" fill="#FAFAFA"/>
<path d="M86.1367 125.178H67.8022C67.3997 125.181 67.001 125.101 66.6305 124.944C66.2599 124.787 65.9255 124.556 65.6477 124.264C65.3698 123.973 65.1545 123.628 65.015 123.251C64.8755 122.873 64.8147 122.471 64.8363 122.069L65.6293 103.735C65.6774 102.901 66.0396 102.117 66.643 101.54C67.2464 100.963 68.046 100.637 68.8807 100.626H87.239C87.6415 100.625 88.0401 100.705 88.4105 100.862C88.7809 101.02 89.1153 101.251 89.3936 101.542C89.6718 101.833 89.8879 102.177 90.0287 102.554C90.1696 102.931 90.2322 103.333 90.2128 103.735L89.3802 122.069C89.334 122.902 88.9735 123.686 88.3714 124.263C87.7693 124.84 86.9706 125.167 86.1367 125.178Z" fill="#FAFAFA"/>
<path d="M114.114 125.178H95.7878C95.3853 125.18 94.9868 125.099 94.6164 124.942C94.246 124.784 93.9115 124.553 93.6333 124.262C93.3551 123.971 93.139 123.627 92.9981 123.25C92.8573 122.873 92.7946 122.471 92.814 122.069L93.607 103.735C93.6551 102.901 94.0173 102.117 94.6207 101.54C95.2241 100.964 96.0237 100.637 96.8584 100.626H115.185C115.587 100.623 115.986 100.703 116.357 100.86C116.727 101.017 117.062 101.249 117.34 101.54C117.617 101.831 117.833 102.176 117.972 102.553C118.112 102.931 118.173 103.333 118.151 103.735L117.358 122.069C117.31 122.901 116.949 123.684 116.347 124.261C115.745 124.838 114.948 125.165 114.114 125.178Z" fill="#FAFAFA"/>
<path d="M142.103 125.178H123.8C123.397 125.181 122.998 125.101 122.627 124.944C122.256 124.787 121.921 124.556 121.643 124.265C121.364 123.974 121.148 123.629 121.008 123.251C120.867 122.874 120.806 122.472 120.826 122.069L121.619 103.735C121.665 102.902 122.026 102.118 122.628 101.541C123.23 100.964 124.029 100.637 124.863 100.626H143.197C143.599 100.625 143.997 100.705 144.367 100.862C144.737 101.02 145.071 101.251 145.349 101.542C145.627 101.833 145.842 102.178 145.982 102.555C146.122 102.932 146.183 103.333 146.163 103.735L145.37 122.069C145.322 122.905 144.957 123.692 144.35 124.269C143.744 124.846 142.94 125.171 142.103 125.178Z" fill="#FAFAFA"/>
<path d="M170.089 125.178H151.755C151.353 125.18 150.955 125.099 150.585 124.942C150.215 124.784 149.881 124.553 149.603 124.262C149.325 123.971 149.11 123.626 148.97 123.249C148.83 122.872 148.769 122.471 148.789 122.069L149.582 103.735C149.63 102.901 149.992 102.117 150.596 101.54C151.199 100.964 151.999 100.637 152.833 100.626H171.16C171.563 100.623 171.962 100.703 172.333 100.86C172.704 101.017 173.039 101.248 173.317 101.539C173.596 101.83 173.812 102.175 173.952 102.553C174.092 102.93 174.154 103.333 174.134 103.735L173.341 122.069C173.291 122.902 172.928 123.685 172.325 124.262C171.722 124.838 170.924 125.165 170.089 125.178Z" fill="#FAFAFA"/>
<path d="M198.062 125.178H179.736C179.333 125.181 178.935 125.101 178.564 124.944C178.194 124.787 177.859 124.556 177.581 124.264C177.303 123.973 177.088 123.628 176.949 123.251C176.809 122.873 176.748 122.471 176.77 122.069L177.563 103.735C177.611 102.901 177.973 102.117 178.577 101.54C179.18 100.963 179.98 100.637 180.814 100.626H199.141C199.543 100.625 199.942 100.705 200.312 100.862C200.683 101.02 201.017 101.251 201.295 101.542C201.574 101.833 201.79 102.177 201.931 102.554C202.071 102.931 202.134 103.333 202.115 103.735L201.282 122.069C201.236 122.898 200.879 123.679 200.282 124.255C199.685 124.832 198.892 125.161 198.062 125.178Z" fill="#FAFAFA"/>
</g>
<path d="M56.8668 153.624H38.5322C38.1301 153.625 37.7319 153.545 37.3619 153.387C36.9919 153.23 36.6579 152.998 36.3803 152.708C36.1027 152.417 35.8874 152.072 35.7474 151.695C35.6075 151.318 35.5459 150.917 35.5663 150.515L36.3594 132.18C36.4093 131.348 36.7721 130.565 37.375 129.988C37.978 129.412 38.7766 129.084 39.6107 129.072H57.977C58.3791 129.07 58.7773 129.151 59.1473 129.308C59.5173 129.466 59.8513 129.697 60.1289 129.988C60.4065 130.279 60.6218 130.623 60.7618 131C60.9017 131.377 60.9634 131.779 60.9429 132.18L60.1499 150.515C60.0995 151.353 59.7323 152.141 59.1226 152.718C58.5129 153.295 57.7064 153.619 56.8668 153.624Z" fill="#5E66A7"/>
<path d="M84.8512 153.624H66.5166C66.1145 153.625 65.7163 153.545 65.3463 153.387C64.9763 153.23 64.6423 152.999 64.3647 152.708C64.0871 152.417 63.8718 152.072 63.7318 151.695C63.5918 151.318 63.5302 150.917 63.5507 150.515L64.3437 132.18C64.3918 131.347 64.7541 130.563 65.3574 129.986C65.9608 129.409 66.7604 129.083 67.5951 129.072H85.9217C86.3277 129.069 86.7299 129.149 87.1035 129.308C87.477 129.467 87.814 129.701 88.0935 129.995C88.3731 130.29 88.5892 130.639 88.7285 131.02C88.8678 131.401 88.9274 131.807 88.9035 132.212L88.1105 150.515C88.0641 151.35 87.7013 152.137 87.0959 152.714C86.4904 153.292 85.6878 153.617 84.8512 153.624Z" fill="#5E66A7"/>
<path d="M112.83 153.624H94.5033C94.1009 153.626 93.7022 153.547 93.3316 153.39C92.9611 153.233 92.6266 153.001 92.3488 152.71C92.071 152.419 91.8557 152.074 91.7162 151.696C91.5766 151.319 91.5158 150.917 91.5375 150.515L92.3305 132.18C92.3786 131.347 92.7408 130.563 93.3442 129.986C93.9475 129.409 94.7472 129.082 95.5819 129.072H113.908C114.311 129.069 114.71 129.149 115.08 129.306C115.451 129.463 115.785 129.694 116.063 129.985C116.341 130.277 116.556 130.622 116.696 130.999C116.835 131.377 116.896 131.779 116.874 132.18L116.081 150.515C116.033 151.348 115.671 152.133 115.068 152.709C114.464 153.286 113.665 153.613 112.83 153.624Z" fill="#5E66A7"/>
<path d="M140.816 153.624H122.489C122.087 153.625 121.688 153.545 121.318 153.387C120.947 153.23 120.613 152.999 120.334 152.708C120.056 152.417 119.84 152.073 119.699 151.696C119.558 151.319 119.496 150.917 119.515 150.515L120.308 132.18C120.354 131.348 120.715 130.564 121.317 129.987C121.919 129.409 122.718 129.083 123.552 129.072H141.886C142.294 129.064 142.7 129.142 143.077 129.299C143.454 129.456 143.794 129.689 144.076 129.984C144.359 130.279 144.577 130.629 144.717 131.013C144.858 131.396 144.917 131.805 144.892 132.212L144.099 150.547C144.042 151.38 143.672 152.161 143.063 152.732C142.454 153.303 141.651 153.621 140.816 153.624Z" fill="#5E66A7"/>
<path d="M168.8 153.624H150.466C150.064 153.625 149.665 153.545 149.295 153.388C148.925 153.23 148.591 152.999 148.314 152.708C148.036 152.417 147.821 152.072 147.681 151.695C147.541 151.318 147.479 150.917 147.5 150.515L148.293 132.181C148.335 131.341 148.696 130.549 149.301 129.966C149.907 129.382 150.712 129.051 151.552 129.04H169.887C170.289 129.039 170.687 129.119 171.057 129.277C171.427 129.434 171.761 129.665 172.039 129.956C172.316 130.247 172.532 130.592 172.672 130.969C172.812 131.346 172.873 131.747 172.853 132.149L172.06 150.483C172.017 151.323 171.657 152.115 171.051 152.699C170.446 153.282 169.641 153.613 168.8 153.624Z" fill="#5E66A7"/>
<path d="M196.757 153.624H178.455C178.052 153.626 177.653 153.547 177.283 153.39C176.912 153.232 176.578 153.001 176.3 152.71C176.022 152.419 175.807 152.074 175.667 151.696C175.528 151.319 175.467 150.917 175.489 150.515L176.282 132.18C176.33 131.347 176.692 130.563 177.295 129.986C177.899 129.409 178.698 129.082 179.533 129.072H197.86C198.262 129.07 198.661 129.151 199.031 129.308C199.401 129.465 199.736 129.697 200.014 129.987C200.292 130.278 200.508 130.623 200.649 131C200.79 131.377 200.853 131.778 200.833 132.18L200.001 150.515C199.955 151.348 199.594 152.132 198.992 152.709C198.39 153.286 197.591 153.613 196.757 153.624Z" fill="#5E66A7"/>
<g opacity="0.8">
<path d="M56.8629 153.623H38.5283C38.1262 153.624 37.728 153.544 37.358 153.386C36.988 153.229 36.654 152.998 36.3764 152.707C36.0988 152.416 35.8835 152.071 35.7435 151.694C35.6036 151.317 35.5419 150.916 35.5624 150.514L36.3555 132.18C36.4054 131.347 36.7682 130.564 37.3711 129.987C37.9741 129.411 38.7727 129.083 39.6068 129.071H57.9731C58.3752 129.069 58.7734 129.15 59.1434 129.307C59.5134 129.465 59.8474 129.696 60.125 129.987C60.4026 130.278 60.6179 130.622 60.7579 130.999C60.8978 131.376 60.9595 131.778 60.939 132.18L60.146 150.514C60.0956 151.352 59.7284 152.14 59.1187 152.717C58.509 153.294 57.7025 153.618 56.8629 153.623Z" fill="#FAFAFA"/>
<path d="M84.8472 153.623H66.5127C66.1106 153.624 65.7123 153.544 65.3424 153.386C64.9724 153.229 64.6384 152.998 64.3608 152.707C64.0832 152.416 63.8678 152.071 63.7279 151.694C63.5879 151.317 63.5263 150.916 63.5468 150.514L64.3398 132.18C64.3879 131.346 64.7502 130.562 65.3535 129.985C65.9569 129.408 66.7565 129.082 67.5912 129.071H85.9178C86.3238 129.068 86.726 129.149 87.0995 129.307C87.4731 129.466 87.8101 129.7 88.0896 129.995C88.3692 130.289 88.5853 130.638 88.7246 131.019C88.8639 131.4 88.9235 131.806 88.8996 132.211L88.1065 150.514C88.0602 151.35 87.6974 152.136 87.092 152.713C86.4865 153.291 85.6839 153.616 84.8472 153.623Z" fill="#FAFAFA"/>
<path d="M112.826 153.623H94.4994C94.097 153.626 93.6982 153.546 93.3277 153.389C92.9572 153.232 92.6227 153.001 92.3449 152.709C92.0671 152.418 91.8518 152.073 91.7123 151.696C91.5727 151.318 91.5119 150.916 91.5336 150.514L92.3266 132.18C92.3747 131.346 92.7369 130.562 93.3403 129.985C93.9436 129.408 94.7433 129.082 95.5779 129.071H113.905C114.307 129.068 114.706 129.148 115.076 129.305C115.447 129.462 115.781 129.693 116.059 129.985C116.337 130.276 116.552 130.621 116.692 130.998C116.831 131.376 116.892 131.778 116.87 132.18L116.077 150.514C116.029 151.348 115.667 152.132 115.064 152.709C114.46 153.286 113.661 153.612 112.826 153.623Z" fill="#FAFAFA"/>
<path d="M140.812 153.623H122.485C122.083 153.624 121.684 153.544 121.314 153.386C120.943 153.229 120.609 152.998 120.331 152.707C120.052 152.416 119.836 152.072 119.695 151.695C119.555 151.318 119.492 150.916 119.511 150.514L120.304 132.18C120.35 131.347 120.711 130.563 121.313 129.986C121.915 129.409 122.714 129.082 123.548 129.071H141.882C142.291 129.064 142.696 129.141 143.073 129.298C143.45 129.455 143.79 129.688 144.072 129.983C144.355 130.278 144.573 130.628 144.713 131.012C144.854 131.395 144.913 131.804 144.888 132.211L144.095 150.546C144.039 151.379 143.668 152.16 143.059 152.731C142.45 153.302 141.647 153.621 140.812 153.623Z" fill="#FAFAFA"/>
<path d="M168.8 153.623H150.466C150.064 153.625 149.665 153.544 149.295 153.387C148.925 153.229 148.591 152.998 148.314 152.707C148.036 152.416 147.821 152.072 147.681 151.695C147.541 151.318 147.479 150.916 147.5 150.514L148.293 132.18C148.335 131.34 148.696 130.548 149.301 129.965C149.907 129.381 150.712 129.051 151.552 129.04H169.887C170.289 129.038 170.687 129.118 171.057 129.276C171.427 129.433 171.761 129.665 172.039 129.956C172.316 130.247 172.532 130.591 172.672 130.968C172.812 131.345 172.873 131.747 172.853 132.148L172.06 150.483C172.017 151.322 171.657 152.115 171.051 152.698C170.446 153.281 169.641 153.612 168.8 153.623Z" fill="#FAFAFA"/>
<path d="M196.75 153.623H178.447C178.044 153.626 177.646 153.546 177.275 153.389C176.904 153.232 176.57 153 176.292 152.709C176.014 152.418 175.799 152.073 175.66 151.696C175.52 151.318 175.459 150.916 175.481 150.514L176.274 132.18C176.322 131.346 176.684 130.562 177.288 129.985C177.891 129.408 178.691 129.082 179.525 129.071H197.852C198.254 129.07 198.653 129.15 199.023 129.307C199.394 129.465 199.728 129.696 200.006 129.987C200.285 130.278 200.501 130.622 200.642 130.999C200.782 131.376 200.845 131.778 200.826 132.18L199.993 150.514C199.947 151.347 199.586 152.131 198.984 152.708C198.382 153.285 197.583 153.612 196.75 153.623Z" fill="#FAFAFA"/>
</g>
<path d="M55.5979 182.061H37.2475C36.8451 182.064 36.4463 181.984 36.0758 181.827C35.7052 181.67 35.3708 181.439 35.093 181.148C34.8151 180.857 34.5998 180.512 34.4603 180.134C34.3208 179.757 34.26 179.355 34.2816 178.953L35.0746 160.626C35.1227 159.793 35.485 159.008 36.0883 158.432C36.6917 157.855 37.4913 157.528 38.326 157.517H56.6605C57.063 157.515 57.4618 157.594 57.8323 157.751C58.2028 157.909 58.5373 158.14 58.8151 158.431C59.0929 158.722 59.3082 159.067 59.4477 159.445C59.5873 159.822 59.6481 160.224 59.6264 160.626L58.8334 178.953C58.7874 179.784 58.4279 180.567 57.8275 181.144C57.2271 181.721 56.4304 182.048 55.5979 182.061Z" fill="#5E66A7"/>
<path d="M83.5703 182.061H65.2358C64.8333 182.064 64.4346 181.984 64.064 181.827C63.6935 181.67 63.3591 181.439 63.0812 181.148C62.8034 180.857 62.5881 180.512 62.4486 180.134C62.3091 179.757 62.2482 179.355 62.2699 178.953L63.0629 160.626C63.1092 159.792 63.4708 159.007 64.0746 158.43C64.6783 157.852 65.479 157.526 66.3143 157.517H84.6409C85.044 157.514 85.4436 157.592 85.8151 157.749C86.1866 157.906 86.522 158.137 86.8007 158.428C87.0793 158.719 87.2953 159.065 87.4353 159.443C87.5754 159.821 87.6364 160.224 87.6147 160.626L86.8217 178.953C86.7773 179.787 86.4162 180.574 85.8121 181.151C85.2079 181.729 84.4062 182.054 83.5703 182.061Z" fill="#5E66A7"/>
<path d="M111.543 182.061H93.2163C92.8138 182.064 92.415 181.984 92.0445 181.827C91.674 181.67 91.3395 181.439 91.0617 181.148C90.7839 180.857 90.5686 180.512 90.4291 180.134C90.2895 179.757 90.2287 179.355 90.2504 178.953L91.0434 160.626C91.0896 159.792 91.4513 159.007 92.0551 158.43C92.6588 157.852 93.4595 157.526 94.2948 157.517H112.693C113.096 157.515 113.495 157.594 113.866 157.751C114.236 157.908 114.571 158.139 114.85 158.431C115.128 158.722 115.344 159.066 115.485 159.444C115.625 159.822 115.687 160.224 115.667 160.626L114.834 178.953C114.787 179.793 114.42 180.584 113.808 181.163C113.196 181.741 112.385 182.063 111.543 182.061Z" fill="#5E66A7"/>
<path d="M139.529 182.061H121.202C120.799 182.064 120.4 181.984 120.029 181.827C119.659 181.67 119.324 181.439 119.045 181.148C118.767 180.857 118.551 180.512 118.41 180.135C118.27 179.757 118.208 179.355 118.228 178.953L119.021 160.626C119.066 159.793 119.426 159.008 120.028 158.43C120.631 157.853 121.43 157.526 122.265 157.517H140.599C141.002 157.515 141.401 157.594 141.771 157.751C142.142 157.909 142.476 158.14 142.754 158.431C143.032 158.722 143.247 159.067 143.387 159.445C143.526 159.822 143.587 160.224 143.565 160.626L142.772 178.953C142.726 179.785 142.366 180.569 141.764 181.146C141.161 181.724 140.363 182.05 139.529 182.061Z" fill="#5E66A7"/>
<path d="M167.516 182.061H149.173C148.771 182.064 148.372 181.984 148.002 181.827C147.631 181.67 147.297 181.439 147.019 181.148C146.741 180.857 146.526 180.512 146.386 180.134C146.247 179.757 146.186 179.355 146.207 178.953L147 160.626C147.049 159.793 147.411 159.008 148.014 158.432C148.617 157.855 149.417 157.528 150.252 157.517H168.586C168.989 157.515 169.388 157.594 169.758 157.751C170.129 157.909 170.463 158.14 170.741 158.431C171.019 158.722 171.234 159.067 171.374 159.445C171.513 159.822 171.574 160.224 171.552 160.626L170.759 178.953C170.711 179.785 170.35 180.568 169.748 181.144C169.147 181.721 168.349 182.049 167.516 182.061Z" fill="#5E66A7"/>
<path d="M195.504 182.061H177.169C176.767 182.064 176.368 181.984 175.998 181.827C175.627 181.67 175.293 181.439 175.015 181.148C174.737 180.857 174.522 180.512 174.382 180.134C174.243 179.757 174.182 179.355 174.203 178.953L174.997 160.626C175.043 159.792 175.404 159.007 176.008 158.43C176.612 157.852 177.413 157.526 178.248 157.517H196.574C196.977 157.515 197.376 157.594 197.747 157.751C198.118 157.908 198.453 158.139 198.732 158.431C199.01 158.722 199.226 159.066 199.367 159.444C199.507 159.822 199.569 160.224 199.548 160.626L198.716 178.953C198.672 179.781 198.316 180.561 197.72 181.138C197.125 181.715 196.333 182.044 195.504 182.061Z" fill="#5E66A7"/>
<g opacity="0.8">
<path d="M55.5999 182.06H37.2495C36.847 182.063 36.4482 181.983 36.0777 181.826C35.7072 181.669 35.3727 181.438 35.0949 181.147C34.8171 180.855 34.6018 180.51 34.4623 180.133C34.3227 179.755 34.2619 179.353 34.2836 178.951L35.0766 160.625C35.1247 159.791 35.4869 159.007 36.0903 158.43C36.6936 157.854 37.4933 157.527 38.328 157.516H56.6625C57.065 157.513 57.4637 157.593 57.8342 157.75C58.2048 157.907 58.5392 158.139 58.817 158.43C59.0949 158.721 59.3102 159.066 59.4497 159.443C59.5892 159.821 59.65 160.223 59.6284 160.625L58.8354 178.951C58.7893 179.783 58.4299 180.566 57.8295 181.143C57.2291 181.719 56.4324 182.047 55.5999 182.06Z" fill="#FAFAFA"/>
<path d="M83.5684 182.06H65.2338C64.8314 182.063 64.4326 181.983 64.0621 181.826C63.6916 181.669 63.3571 181.438 63.0793 181.147C62.8015 180.855 62.5862 180.51 62.4466 180.133C62.3071 179.755 62.2463 179.353 62.2679 178.951L63.061 160.625C63.1072 159.791 63.4689 159.006 64.0726 158.428C64.6764 157.851 65.4771 157.525 66.3123 157.516H84.6389C85.0421 157.512 85.4417 157.591 85.8131 157.748C86.1846 157.904 86.52 158.136 86.7987 158.427C87.0774 158.718 87.2934 159.064 87.4334 159.442C87.5734 159.82 87.6344 160.222 87.6128 160.625L86.8197 178.951C86.7753 179.786 86.4143 180.573 85.8101 181.15C85.2059 181.728 84.4042 182.053 83.5684 182.06Z" fill="#FAFAFA"/>
<path d="M111.547 182.06H93.2202C92.8177 182.063 92.4189 181.983 92.0484 181.826C91.6779 181.669 91.3434 181.438 91.0656 181.146C90.7878 180.855 90.5725 180.51 90.433 180.133C90.2934 179.755 90.2326 179.353 90.2543 178.951L91.0473 160.625C91.0935 159.791 91.4552 159.006 92.059 158.428C92.6627 157.851 93.4634 157.525 94.2987 157.516H112.697C113.099 157.513 113.499 157.593 113.869 157.75C114.24 157.907 114.575 158.138 114.854 158.429C115.132 158.72 115.348 159.065 115.489 159.443C115.629 159.82 115.691 160.223 115.67 160.625L114.838 178.951C114.791 179.792 114.424 180.583 113.812 181.161C113.199 181.74 112.389 182.061 111.547 182.06Z" fill="#FAFAFA"/>
<path d="M139.533 182.06H121.206C120.803 182.063 120.404 181.983 120.033 181.826C119.662 181.669 119.327 181.438 119.049 181.147C118.771 180.856 118.555 180.511 118.414 180.133C118.274 179.756 118.212 179.354 118.232 178.951L119.025 160.625C119.07 159.791 119.43 159.006 120.032 158.429C120.635 157.851 121.434 157.525 122.269 157.516H140.603C141.006 157.513 141.405 157.593 141.775 157.75C142.146 157.907 142.48 158.139 142.758 158.43C143.036 158.721 143.251 159.066 143.391 159.443C143.53 159.821 143.591 160.223 143.569 160.625L142.776 178.951C142.73 179.784 142.37 180.568 141.767 181.145C141.165 181.722 140.367 182.049 139.533 182.06Z" fill="#FAFAFA"/>
<path d="M167.516 182.06H149.173C148.771 182.063 148.372 181.983 148.002 181.826C147.631 181.669 147.297 181.438 147.019 181.147C146.741 180.855 146.526 180.51 146.386 180.133C146.247 179.755 146.186 179.353 146.207 178.951L147 160.625C147.049 159.791 147.411 159.007 148.014 158.43C148.617 157.854 149.417 157.527 150.252 157.516H168.586C168.989 157.513 169.388 157.593 169.758 157.75C170.129 157.907 170.463 158.139 170.741 158.43C171.019 158.721 171.234 159.066 171.374 159.443C171.513 159.821 171.574 160.223 171.552 160.625L170.759 178.951C170.711 179.783 170.35 180.566 169.748 181.143C169.147 181.72 168.349 182.047 167.516 182.06Z" fill="#FAFAFA"/>
<path d="M195.502 182.06H177.167C176.765 182.063 176.366 181.983 175.996 181.826C175.625 181.669 175.291 181.438 175.013 181.146C174.735 180.855 174.52 180.51 174.38 180.133C174.241 179.755 174.18 179.353 174.202 178.951L174.995 160.625C175.041 159.791 175.402 159.006 176.006 158.428C176.61 157.851 177.411 157.525 178.246 157.516H196.573C196.975 157.513 197.374 157.593 197.745 157.75C198.116 157.907 198.451 158.138 198.73 158.429C199.008 158.72 199.224 159.065 199.365 159.443C199.505 159.82 199.567 160.223 199.546 160.625L198.714 178.951C198.67 179.779 198.314 180.56 197.719 181.137C197.123 181.713 196.331 182.043 195.502 182.06Z" fill="#FAFAFA"/>
</g>
<path d="M50.4035 85.773C43.647 85.773 38.3496 77.9142 38.3496 67.8825C38.3496 57.8509 43.647 50 50.4035 50C57.16 50 62.4653 57.8588 62.4653 67.8825C62.4345 68.3527 62.226 68.7935 61.8821 69.1156C61.5382 69.4377 61.0847 69.6169 60.6136 69.6169C60.1424 69.6169 59.6889 69.4377 59.345 69.1156C59.0011 68.7935 58.7927 68.3527 58.7619 67.8825C58.7619 60.1982 54.9395 53.6955 50.4035 53.6955C45.8674 53.6955 42.0451 60.1982 42.0451 67.8825C42.0451 75.5669 45.8753 82.0696 50.4035 82.0696C50.6568 82.053 50.9109 82.0886 51.15 82.1741C51.389 82.2597 51.608 82.3934 51.7933 82.5669C51.9786 82.7405 52.1263 82.9503 52.2273 83.1833C52.3283 83.4162 52.3804 83.6674 52.3804 83.9213C52.3804 84.1752 52.3283 84.4264 52.2273 84.6594C52.1263 84.8923 51.9786 85.1021 51.7933 85.2756C51.608 85.4492 51.389 85.5829 51.15 85.6684C50.9109 85.754 50.6568 85.7896 50.4035 85.773Z" fill="#5E66A7"/>
<path d="M78.3918 85.773C71.6353 85.773 66.3379 77.9142 66.3379 67.8825C66.3379 57.8509 71.6353 50 78.3918 50C85.1483 50 90.4932 57.8588 90.4932 67.8825C90.4624 68.3527 90.2539 68.7935 89.9101 69.1156C89.5662 69.4377 89.1127 69.6169 88.6415 69.6169C88.1703 69.6169 87.7168 69.4377 87.3729 69.1156C87.0291 68.7935 86.8206 68.3527 86.7898 67.8825C86.7898 60.1982 82.9675 53.6955 78.4314 53.6955C73.8953 53.6955 70.073 60.1982 70.073 67.8825C70.073 75.5669 73.9033 82.0696 78.4314 82.0696C78.9016 82.1004 79.3424 82.3089 79.6645 82.6527C79.9866 82.9966 80.1658 83.4501 80.1658 83.9213C80.1658 84.3925 79.9866 84.846 79.6645 85.1898C79.3424 85.5337 78.9016 85.7422 78.4314 85.773H78.3918Z" fill="#5E66A7"/>
<path d="M106.351 85.773C99.5864 85.773 94.2891 77.9142 94.2891 67.8825C94.2891 57.8509 99.5864 50 106.351 50C113.115 50 118.405 57.8588 118.405 67.8825C118.405 68.3726 118.21 68.8426 117.864 69.1891C117.517 69.5356 117.047 69.7303 116.557 69.7303C116.067 69.7303 115.597 69.5356 115.25 69.1891C114.904 68.8426 114.709 68.3726 114.709 67.8825C114.709 60.1982 110.879 53.6955 106.351 53.6955C101.823 53.6955 97.9925 60.1982 97.9925 67.8825C97.9925 75.5669 101.823 82.0696 106.351 82.0696C106.821 82.1004 107.262 82.3089 107.584 82.6527C107.906 82.9966 108.085 83.4501 108.085 83.9213C108.085 84.3925 107.906 84.846 107.584 85.1898C107.262 85.5337 106.821 85.7422 106.351 85.773Z" fill="#5E66A7"/>
<path d="M134.359 85.773C127.594 85.773 122.297 77.9142 122.297 67.8825C122.297 57.8509 127.594 50 134.359 50C141.123 50 146.413 57.8588 146.413 67.8825C146.413 68.3726 146.218 68.8426 145.871 69.1891C145.525 69.5356 145.055 69.7303 144.565 69.7303C144.075 69.7303 143.605 69.5356 143.258 69.1891C142.912 68.8426 142.717 68.3726 142.717 67.8825C142.717 60.1982 138.887 53.6955 134.359 53.6955C129.831 53.6955 126 60.1982 126 67.8825C126 75.5669 129.823 82.0696 134.359 82.0696C134.829 82.1004 135.27 82.3089 135.592 82.6527C135.914 82.9966 136.093 83.4501 136.093 83.9213C136.093 84.3925 135.914 84.846 135.592 85.1898C135.27 85.5337 134.829 85.7422 134.359 85.773Z" fill="#5E66A7"/>
<path d="M162.337 85.773C155.581 85.773 150.283 77.9142 150.283 67.8825C150.283 57.8509 155.581 50 162.337 50C169.094 50 174.399 57.8588 174.399 67.8825C174.368 68.3527 174.16 68.7935 173.816 69.1156C173.472 69.4377 173.018 69.6169 172.547 69.6169C172.076 69.6169 171.622 69.4377 171.279 69.1156C170.935 68.7935 170.726 68.3527 170.695 67.8825C170.695 60.1982 166.873 53.6955 162.337 53.6955C157.801 53.6955 153.979 60.1982 153.979 67.8825C153.979 75.5669 157.809 82.0696 162.337 82.0696C162.59 82.053 162.844 82.0886 163.084 82.1741C163.323 82.2597 163.542 82.3934 163.727 82.5669C163.912 82.7405 164.06 82.9503 164.161 83.1833C164.262 83.4162 164.314 83.6674 164.314 83.9213C164.314 84.1752 164.262 84.4264 164.161 84.6594C164.06 84.8923 163.912 85.1021 163.727 85.2756C163.542 85.4492 163.323 85.5829 163.084 85.6684C162.844 85.754 162.59 85.7896 162.337 85.773Z" fill="#5E66A7"/>
<path d="M190.325 85.773C183.569 85.773 178.271 77.9142 178.271 67.8825C178.271 57.8509 183.569 50 190.325 50C197.082 50 202.387 57.8588 202.387 67.8825C202.356 68.3527 202.148 68.7935 201.804 69.1156C201.46 69.4377 201.007 69.6169 200.535 69.6169C200.064 69.6169 199.611 69.4377 199.267 69.1156C198.923 68.7935 198.715 68.3527 198.684 67.8825C198.684 60.1982 194.853 53.6955 190.325 53.6955C185.797 53.6955 181.967 60.1982 181.967 67.8825C181.967 75.5669 185.797 82.0696 190.325 82.0696C190.796 82.1004 191.236 82.3089 191.558 82.6527C191.881 82.9966 192.06 83.4501 192.06 83.9213C192.06 84.3925 191.881 84.846 191.558 85.1898C191.236 85.5337 190.796 85.7422 190.325 85.773Z" fill="#5E66A7"/>
<g opacity="0.3">
<path d="M50.3996 85.773C43.6431 85.773 38.3457 77.9142 38.3457 67.8825C38.3457 57.8509 43.6431 50 50.3996 50C57.1561 50 62.4613 57.8588 62.4613 67.8825C62.4306 68.3527 62.2221 68.7935 61.8782 69.1156C61.5343 69.4377 61.0808 69.6169 60.6096 69.6169C60.1385 69.6169 59.685 69.4377 59.3411 69.1156C58.9972 68.7935 58.7887 68.3527 58.758 67.8825C58.758 60.1982 54.9356 53.6955 50.3996 53.6955C45.8635 53.6955 42.0412 60.1982 42.0412 67.8825C42.0412 75.5669 45.8714 82.0696 50.3996 82.0696C50.6529 82.053 50.907 82.0886 51.146 82.1741C51.3851 82.2597 51.604 82.3934 51.7894 82.5669C51.9747 82.7405 52.1224 82.9503 52.2234 83.1833C52.3244 83.4162 52.3765 83.6674 52.3765 83.9213C52.3765 84.1752 52.3244 84.4264 52.2234 84.6594C52.1224 84.8923 51.9747 85.1021 51.7894 85.2756C51.604 85.4492 51.3851 85.5829 51.146 85.6684C50.907 85.754 50.6529 85.7896 50.3996 85.773Z" fill="black"/>
<path d="M78.3839 85.773C71.6274 85.773 66.3301 77.9142 66.3301 67.8825C66.3301 57.8509 71.6274 50 78.3839 50C85.1404 50 90.4854 57.8588 90.4854 67.8825C90.4546 68.3527 90.2461 68.7935 89.9022 69.1156C89.5584 69.4377 89.1048 69.6169 88.6337 69.6169C88.1625 69.6169 87.709 69.4377 87.3651 69.1156C87.0212 68.7935 86.8128 68.3527 86.782 67.8825C86.782 60.1982 82.9596 53.6955 78.4236 53.6955C73.8875 53.6955 70.0652 60.1982 70.0652 67.8825C70.0652 75.5669 73.8955 82.0696 78.4236 82.0696C78.8937 82.1004 79.3346 82.3089 79.6567 82.6527C79.9788 82.9966 80.158 83.4501 80.158 83.9213C80.158 84.3925 79.9788 84.846 79.6567 85.1898C79.3346 85.5337 78.8937 85.7422 78.4236 85.773H78.3839Z" fill="black"/>
<path d="M106.345 85.773C99.5806 85.773 94.2832 77.9142 94.2832 67.8825C94.2832 57.8509 99.5806 50 106.345 50C113.109 50 118.399 57.8588 118.399 67.8825C118.399 68.3726 118.204 68.8426 117.858 69.1891C117.511 69.5356 117.041 69.7303 116.551 69.7303C116.061 69.7303 115.591 69.5356 115.245 69.1891C114.898 68.8426 114.703 68.3726 114.703 67.8825C114.703 60.1982 110.873 53.6955 106.345 53.6955C101.817 53.6955 97.9866 60.1982 97.9866 67.8825C97.9866 75.5669 101.817 82.0696 106.345 82.0696C106.815 82.1004 107.256 82.3089 107.578 82.6527C107.9 82.9966 108.079 83.4501 108.079 83.9213C108.079 84.3925 107.9 84.846 107.578 85.1898C107.256 85.5337 106.815 85.7422 106.345 85.773Z" fill="black"/>
<path d="M134.357 85.773C127.592 85.773 122.295 77.9142 122.295 67.8825C122.295 57.8509 127.592 50 134.357 50C141.121 50 146.411 57.8588 146.411 67.8825C146.411 68.3726 146.216 68.8426 145.869 69.1891C145.523 69.5356 145.053 69.7303 144.563 69.7303C144.073 69.7303 143.603 69.5356 143.256 69.1891C142.91 68.8426 142.715 68.3726 142.715 67.8825C142.715 60.1982 138.885 53.6955 134.357 53.6955C129.829 53.6955 125.998 60.1982 125.998 67.8825C125.998 75.5669 129.821 82.0696 134.357 82.0696C134.827 82.1004 135.268 82.3089 135.59 82.6527C135.912 82.9966 136.091 83.4501 136.091 83.9213C136.091 84.3925 135.912 84.846 135.59 85.1898C135.268 85.5337 134.827 85.7422 134.357 85.773Z" fill="black"/>
<path d="M162.337 85.773C155.581 85.773 150.283 77.9142 150.283 67.8825C150.283 57.8509 155.581 50 162.337 50C169.094 50 174.399 57.8588 174.399 67.8825C174.368 68.3527 174.16 68.7935 173.816 69.1156C173.472 69.4377 173.018 69.6169 172.547 69.6169C172.076 69.6169 171.622 69.4377 171.279 69.1156C170.935 68.7935 170.726 68.3527 170.695 67.8825C170.695 60.1982 166.873 53.6955 162.337 53.6955C157.801 53.6955 153.979 60.1982 153.979 67.8825C153.979 75.5669 157.809 82.0696 162.337 82.0696C162.59 82.053 162.844 82.0886 163.084 82.1741C163.323 82.2597 163.542 82.3934 163.727 82.5669C163.912 82.7405 164.06 82.9503 164.161 83.1833C164.262 83.4162 164.314 83.6674 164.314 83.9213C164.314 84.1752 164.262 84.4264 164.161 84.6594C164.06 84.8923 163.912 85.1021 163.727 85.2756C163.542 85.4492 163.323 85.5829 163.084 85.6684C162.844 85.754 162.59 85.7896 162.337 85.773Z" fill="black"/>
<path d="M190.318 85.773C183.561 85.773 178.264 77.9142 178.264 67.8825C178.264 57.8509 183.561 50 190.318 50C197.074 50 202.379 57.8588 202.379 67.8825C202.349 68.3527 202.14 68.7935 201.796 69.1156C201.452 69.4377 200.999 69.6169 200.528 69.6169C200.056 69.6169 199.603 69.4377 199.259 69.1156C198.915 68.7935 198.707 68.3527 198.676 67.8825C198.676 60.1982 194.846 53.6955 190.318 53.6955C185.789 53.6955 181.959 60.1982 181.959 67.8825C181.959 75.5669 185.789 82.0696 190.318 82.0696C190.788 82.1004 191.229 82.3089 191.551 82.6527C191.873 82.9966 192.052 83.4501 192.052 83.9213C192.052 84.3925 191.873 84.846 191.551 85.1898C191.229 85.5337 190.788 85.7422 190.318 85.773Z" fill="black"/>
</g>
<path d="M136.232 126.201C129.761 124.916 122.497 126.415 119.904 133.235C117.818 138.723 120.49 144.67 126.248 146.121C131.323 147.398 140.078 145.836 141.886 139.983C143.956 133.29 135.542 131.117 130.823 130.721C129.404 130.602 129.412 132.822 130.823 132.941C132.972 133.124 135.431 133.243 137.334 134.424C141.299 136.907 139.666 140.887 136.287 142.791C132.909 144.694 127.731 145.17 124.392 143.06C120.744 140.737 120.625 135.63 122.806 132.299C125.669 127.898 130.895 127.406 135.605 128.334C137.001 128.612 137.596 126.47 136.192 126.193L136.232 126.201Z" fill="#FCF670"/>
<path opacity="0.1" d="M136.232 126.201C129.761 124.916 122.497 126.415 119.904 133.235C117.818 138.723 120.49 144.67 126.248 146.121C131.323 147.398 140.078 145.836 141.886 139.983C143.956 133.29 135.542 131.117 130.823 130.721C129.404 130.602 129.412 132.822 130.823 132.941C132.972 133.124 135.431 133.243 137.334 134.424C141.299 136.907 139.666 140.887 136.287 142.791C132.909 144.694 127.731 145.17 124.392 143.06C120.744 140.737 120.625 135.63 122.806 132.299C125.669 127.898 130.895 127.406 135.605 128.334C137.001 128.612 137.596 126.47 136.192 126.193L136.232 126.201Z" fill="#FAFAFA"/>
<path d="M64.837 100.658C71.0255 108.862 77.925 116.504 85.4554 123.497C86.5022 124.472 88.0803 122.902 87.0415 121.911C79.64 115.056 72.8548 107.565 66.764 99.5238C65.9155 98.3977 63.9885 99.5238 64.8529 100.642L64.837 100.658Z" fill="#FCF670"/>
<path d="M67.1286 122.569C71.8074 114.25 79.9993 107.152 87.7471 101.72C88.9049 100.927 87.8026 98.9764 86.6289 99.8011C78.5719 105.463 70.1025 112.775 65.2175 121.443C65.0834 121.695 65.052 121.99 65.1297 122.265C65.2074 122.54 65.3882 122.774 65.6345 122.92C65.8808 123.065 66.1737 123.109 66.452 123.044C66.7303 122.978 66.9727 122.808 67.1286 122.569Z" fill="#FCF670"/>
<g opacity="0.2">
<path d="M64.837 100.658C71.0255 108.862 77.925 116.504 85.4554 123.497C86.5022 124.472 88.0803 122.902 87.0415 121.911C79.64 115.056 72.8548 107.565 66.764 99.5238C65.9155 98.3977 63.9885 99.5238 64.8529 100.642L64.837 100.658Z" fill="#FCF670"/>
<path d="M67.1286 122.569C71.8074 114.25 79.9993 107.152 87.7471 101.72C88.9049 100.927 87.8026 98.9763 86.6289 99.801C78.5719 105.463 70.1025 112.775 65.2175 121.442C65.0834 121.695 65.052 121.989 65.1297 122.265C65.2074 122.54 65.3882 122.774 65.6345 122.919C65.8808 123.065 66.1737 123.109 66.452 123.044C66.7303 122.978 66.9727 122.808 67.1286 122.569Z" fill="#FCF670"/>
</g>
<path d="M153.038 107.755H167.511C167.788 107.732 168.046 107.605 168.234 107.4C168.423 107.195 168.527 106.927 168.527 106.649C168.527 106.371 168.423 106.103 168.234 105.898C168.046 105.693 167.788 105.566 167.511 105.543H153.038C152.761 105.566 152.502 105.693 152.314 105.898C152.126 106.103 152.021 106.371 152.021 106.649C152.021 106.927 152.126 107.195 152.314 107.4C152.502 107.605 152.761 107.732 153.038 107.755Z" fill="#FCF670"/>
<path d="M152.87 111.871H161.26C161.555 111.871 161.837 111.754 162.045 111.546C162.253 111.338 162.37 111.055 162.37 110.761C162.37 110.466 162.253 110.184 162.045 109.976C161.837 109.768 161.555 109.651 161.26 109.651H152.87C152.576 109.651 152.293 109.768 152.085 109.976C151.877 110.184 151.76 110.466 151.76 110.761C151.76 111.055 151.877 111.338 152.085 111.546C152.293 111.754 152.576 111.871 152.87 111.871Z" fill="#FCF670"/>
<g opacity="0.1">
<path d="M153.036 107.755H167.509C167.786 107.732 168.044 107.605 168.232 107.4C168.421 107.196 168.525 106.927 168.525 106.649C168.525 106.371 168.421 106.103 168.232 105.898C168.044 105.693 167.786 105.566 167.509 105.543H153.036C152.759 105.566 152.5 105.693 152.312 105.898C152.124 106.103 152.02 106.371 152.02 106.649C152.02 106.927 152.124 107.196 152.312 107.4C152.5 107.605 152.759 107.732 153.036 107.755Z" fill="#FAFAFA"/>
<path d="M152.87 111.871H161.26C161.555 111.871 161.837 111.754 162.045 111.546C162.253 111.338 162.37 111.055 162.37 110.761C162.37 110.467 162.253 110.184 162.045 109.976C161.837 109.768 161.555 109.651 161.26 109.651H152.87C152.576 109.651 152.293 109.768 152.085 109.976C151.877 110.184 151.76 110.467 151.76 110.761C151.76 111.055 151.877 111.338 152.085 111.546C152.293 111.754 152.576 111.871 152.87 111.871Z" fill="#FAFAFA"/>
</g>
<path d="M66.3505 164.567H78.7612C79.0556 164.567 79.338 164.45 79.5462 164.242C79.7544 164.034 79.8714 163.751 79.8714 163.457C79.8714 163.162 79.7544 162.88 79.5462 162.672C79.338 162.464 79.0556 162.347 78.7612 162.347H66.3505C66.056 162.347 65.7736 162.464 65.5654 162.672C65.3572 162.88 65.2402 163.162 65.2402 163.457C65.2402 163.751 65.3572 164.034 65.5654 164.242C65.7736 164.45 66.056 164.567 66.3505 164.567Z" fill="#5E66A7"/>
<path d="M65.9071 169.333H82.0053C82.2998 169.333 82.5822 169.216 82.7904 169.008C82.9986 168.8 83.1156 168.517 83.1156 168.223C83.1156 167.929 82.9986 167.646 82.7904 167.438C82.5822 167.23 82.2998 167.113 82.0053 167.113H65.9071C65.6126 167.113 65.3303 167.23 65.1221 167.438C64.9138 167.646 64.7969 167.929 64.7969 168.223C64.7969 168.517 64.9138 168.8 65.1221 169.008C65.3303 169.216 65.6126 169.333 65.9071 169.333Z" fill="#5E66A7"/>
<path d="M65.9071 174.242H73.9562C74.2507 174.242 74.5331 174.125 74.7413 173.917C74.9495 173.709 75.0664 173.426 75.0664 173.132C75.0664 172.837 74.9495 172.555 74.7413 172.347C74.5331 172.138 74.2507 172.021 73.9562 172.021H65.9071C65.6126 172.021 65.3303 172.138 65.1221 172.347C64.9138 172.555 64.7969 172.837 64.7969 173.132C64.7969 173.426 64.9138 173.709 65.1221 173.917C65.3303 174.125 65.6126 174.242 65.9071 174.242Z" fill="#5E66A7"/>
<g opacity="0.1">
<path d="M66.3524 164.567H78.7631C79.0576 164.567 79.34 164.45 79.5482 164.242C79.7564 164.034 79.8733 163.751 79.8733 163.457C79.8733 163.163 79.7564 162.88 79.5482 162.672C79.34 162.464 79.0576 162.347 78.7631 162.347H66.3524C66.058 162.347 65.7756 162.464 65.5674 162.672C65.3592 162.88 65.2422 163.163 65.2422 163.457C65.2422 163.751 65.3592 164.034 65.5674 164.242C65.7756 164.45 66.058 164.567 66.3524 164.567Z" fill="#FAFAFA"/>
<path d="M65.9071 169.333H82.0053C82.2998 169.333 82.5822 169.216 82.7904 169.008C82.9986 168.8 83.1156 168.517 83.1156 168.223C83.1156 167.929 82.9986 167.646 82.7904 167.438C82.5822 167.23 82.2998 167.113 82.0053 167.113H65.9071C65.6126 167.113 65.3303 167.23 65.1221 167.438C64.9138 167.646 64.7969 167.929 64.7969 168.223C64.7969 168.517 64.9138 168.8 65.1221 169.008C65.3303 169.216 65.6126 169.333 65.9071 169.333Z" fill="#FAFAFA"/>
<path d="M65.9071 174.242H73.9562C74.2507 174.242 74.5331 174.125 74.7413 173.917C74.9495 173.709 75.0664 173.426 75.0664 173.132C75.0664 172.837 74.9495 172.555 74.7413 172.347C74.5331 172.138 74.2507 172.021 73.9562 172.021H65.9071C65.6126 172.021 65.3303 172.138 65.1221 172.347C64.9138 172.555 64.7969 172.837 64.7969 173.132C64.7969 173.426 64.9138 173.709 65.1221 173.917C65.3303 174.125 65.6126 174.242 65.9071 174.242Z" fill="#FAFAFA"/>
</g>
</svg>
