<svg width="390" height="230" viewBox="0 0 390 230" fill="none" xmlns="http://www.w3.org/2000/svg">
<g clip-path="url(#clip0_556_12271)">
<path fill-rule="evenodd" clip-rule="evenodd" d="M200.502 217.238C125.766 220.756 53.3736 200.629 25.9644 158.228C-4.19292 111.575 6.24527 52.4657 73.8422 21.2989C134.745 -6.7813 208.005 21.7156 268.72 46.3009C325.9 69.4553 388.782 99.3639 371.788 141.947C353.384 188.064 276.066 213.681 200.502 217.238Z" fill="#F8FFA5" fill-opacity="0.7"/>
<path d="M157.002 141.376H15.2097C13.2982 141.373 11.4656 140.613 10.114 139.262C8.76242 137.91 8.00215 136.077 8 134.166V47.59C8.00161 46.1344 8.58055 44.7389 9.60982 43.7096C10.6391 42.6803 12.0346 42.1013 13.4902 42.0996H158.64C160.117 42.1013 161.533 42.6888 162.578 43.7334C163.623 44.778 164.21 46.1942 164.212 47.6715V134.166C164.21 136.077 163.449 137.91 162.098 139.262C160.746 140.613 158.913 141.373 157.002 141.376Z" fill="white"/>
<path d="M157.002 141.376H15.2097C13.2982 141.373 11.4656 140.613 10.114 139.262C8.76242 137.91 8.00215 136.077 8 134.166V47.59C8.00161 46.1344 8.58055 44.7389 9.60982 43.7096C10.6391 42.6803 12.0346 42.1013 13.4902 42.0996H158.64C160.117 42.1013 161.533 42.6888 162.578 43.7334C163.623 44.778 164.21 46.1942 164.212 47.6715V134.166C164.21 136.077 163.449 137.91 162.098 139.262C160.746 140.613 158.913 141.373 157.002 141.376ZM13.4902 43.6585C12.4479 43.6597 11.4486 44.0743 10.7116 44.8113C9.97459 45.5484 9.56002 46.5477 9.55885 47.59V134.166C9.56055 135.664 10.1565 137.1 11.2158 138.16C12.2752 139.219 13.7115 139.815 15.2097 139.817H157.002C158.5 139.815 159.937 139.219 160.996 138.16C162.055 137.1 162.651 135.664 162.653 134.166V47.6715C162.652 46.6075 162.229 45.5875 161.476 44.8352C160.724 44.0828 159.704 43.6596 158.64 43.6585H13.4902Z" fill="#E7E7FF"/>
<path d="M72.7362 119.456H30.2498C29.2103 119.454 28.2067 119.076 27.4252 118.391C26.6436 117.705 26.1372 116.76 26 115.729C25.9742 115.544 25.9618 115.357 25.963 115.169V68.3064C25.9643 67.1698 26.4163 66.0802 27.22 65.2765C28.0236 64.4729 29.1133 64.0208 30.2498 64.0195H72.7362C73.8728 64.0208 74.9624 64.4729 75.7661 65.2765C76.5697 66.0802 77.0218 67.1698 77.0231 68.3064V115.169C77.0218 116.306 76.5697 117.395 75.7661 118.199C74.9624 119.003 73.8728 119.455 72.7362 119.456ZM30.2498 66.3578C29.7332 66.3584 29.2379 66.5639 28.8726 66.9292C28.5073 67.2945 28.3018 67.7898 28.3012 68.3064V115.169C28.3004 115.249 28.3054 115.329 28.3161 115.409C28.3757 115.88 28.6049 116.313 28.9608 116.628C29.3167 116.942 29.7749 117.116 30.2498 117.118H72.7362C73.2529 117.117 73.7481 116.912 74.1134 116.546C74.4787 116.181 74.6842 115.686 74.6848 115.169V68.3064C74.6842 67.7898 74.4787 67.2945 74.1134 66.9292C73.7481 66.5639 73.2529 66.3584 72.7362 66.3578H30.2498Z" fill="#E7E7FF"/>
<path d="M143.132 104.218H91.69C90.8631 104.218 90.0701 103.889 89.4854 103.305C88.9007 102.72 88.5723 101.927 88.5723 101.1C88.5723 100.273 88.9007 99.4803 89.4854 98.8956C90.0701 98.3109 90.8631 97.9824 91.69 97.9824H143.132C143.959 97.9824 144.752 98.3109 145.337 98.8956C145.921 99.4803 146.25 100.273 146.25 101.1C146.25 101.927 145.921 102.72 145.337 103.305C144.752 103.889 143.959 104.218 143.132 104.218Z" fill="#E7E7FF"/>
<path d="M119.749 90.9678H91.69C90.8631 90.9678 90.0701 90.6393 89.4854 90.0547C88.9007 89.47 88.5723 88.677 88.5723 87.8501C88.5723 87.0233 88.9007 86.2303 89.4854 85.6456C90.0701 85.0609 90.8631 84.7324 91.69 84.7324H119.749C120.576 84.7324 121.369 85.0609 121.954 85.6456C122.538 86.2303 122.867 87.0233 122.867 87.8501C122.867 88.677 122.538 89.47 121.954 90.0547C121.369 90.6393 120.576 90.9678 119.749 90.9678Z" fill="#E7E7FF"/>
<path d="M65.4998 90.4494C65.4998 97.3368 59.1313 96.2951 51.2753 96.2951C43.4193 96.2951 37.0508 97.3368 37.0508 90.4494C37.0508 83.562 40.1616 71.3535 51.2753 71.3535C62.7718 71.3535 65.4998 83.562 65.4998 90.4494Z" fill="#2F2E41"/>
<path d="M66.0761 102.041C65.8017 101.249 65.2547 100.58 64.5328 100.155C64.3934 100.069 64.2475 99.9948 64.0963 99.9326C63.4632 99.6693 62.7671 99.5962 62.0931 99.7222C61.4192 99.8482 60.7965 100.168 60.3012 100.642C59.806 101.116 59.4596 101.724 59.3044 102.392C59.1493 103.06 59.192 103.759 59.4275 104.403L65.0939 117.283H72.5569L66.0761 102.041Z" fill="#9098D9"/>
<path d="M41.3511 102.742C40.9033 102.526 40.4147 102.406 39.9175 102.392C39.4202 102.378 38.9256 102.469 38.466 102.659C38.0064 102.849 37.5922 103.134 37.2506 103.496C36.9089 103.858 36.6476 104.287 36.4837 104.757L31.207 117.169C31.4772 117.245 31.7565 117.283 32.0371 117.282H38.6584L43.1321 107.119C43.4305 106.298 43.4135 105.396 43.0844 104.587C42.7554 103.779 42.1377 103.121 41.3511 102.742Z" fill="#9098D9"/>
<path d="M51.2299 96.2821C56.5163 96.2821 60.8017 91.9967 60.8017 86.7104C60.8017 81.4241 56.5163 77.1387 51.2299 77.1387C45.9436 77.1387 41.6582 81.4241 41.6582 86.7104C41.6582 91.9967 45.9436 96.2821 51.2299 96.2821Z" fill="#FFB8B8"/>
<path d="M64.6995 100.308C64.6451 100.258 64.5905 100.203 64.532 100.156C63.8648 99.5547 63.0751 99.1048 62.2173 98.8377C61.3595 98.5706 60.454 98.4926 59.5632 98.6091L41.9247 100.842C40.309 101.042 38.8346 101.864 37.8146 103.132C36.7945 104.401 36.3089 106.018 36.461 107.639C36.7026 110.359 37.0923 113.792 37.7159 117.284H65.5804L66.6052 105.374C66.6877 104.441 66.5592 103.501 66.2294 102.624C65.8995 101.747 65.3766 100.956 64.6995 100.308Z" fill="#9098D9"/>
<path d="M40.1699 85.7731H43.9557L45.6259 81.0966L45.9599 85.7731H47.7693L48.7436 83.0451L48.9385 85.7731H62.3835C62.3835 83.0858 61.316 80.5086 59.4158 78.6084C57.5156 76.7082 54.9383 75.6406 52.251 75.6406H50.3024C47.6151 75.6406 45.0379 76.7082 43.1377 78.6084C41.2375 80.5086 40.1699 83.0858 40.1699 85.7731Z" fill="#2F2E41"/>
<path d="M201.789 134.166V47.6715C201.791 46.1942 202.378 44.778 203.423 43.7334C204.467 42.6888 205.884 42.1013 207.361 42.0996H352.511C353.966 42.1013 355.362 42.6803 356.391 43.7096C357.42 44.7389 357.999 46.1344 358.001 47.59V134.166C357.999 136.077 357.238 137.91 355.887 139.262C354.535 140.613 352.703 141.373 350.791 141.376H208.999C207.087 141.373 205.255 140.613 203.903 139.262C202.551 137.91 201.791 136.077 201.789 134.166Z" fill="white"/>
<path d="M201.789 134.166V47.6715C201.791 46.1942 202.378 44.778 203.423 43.7334C204.467 42.6888 205.884 42.1013 207.361 42.0996H352.511C353.966 42.1013 355.362 42.6803 356.391 43.7096C357.42 44.7389 357.999 46.1344 358.001 47.59V134.166C357.999 136.077 357.238 137.91 355.887 139.262C354.535 140.613 352.703 141.373 350.791 141.376H208.999C207.087 141.373 205.255 140.613 203.903 139.262C202.551 137.91 201.791 136.077 201.789 134.166ZM207.361 43.6585C206.297 43.6596 205.277 44.0828 204.525 44.8352C203.772 45.5875 203.349 46.6075 203.348 47.6715V134.166C203.35 135.664 203.946 137.1 205.005 138.16C206.064 139.219 207.501 139.815 208.999 139.817H350.791C352.289 139.815 353.726 139.219 354.785 138.16C355.844 137.1 356.44 135.664 356.442 134.166V47.59C356.441 46.5477 356.026 45.5484 355.289 44.8113C354.552 44.0743 353.553 43.6597 352.511 43.6585H207.361Z" fill="#E7E7FF"/>
<path d="M288.977 115.169V68.3064C288.978 67.1698 289.43 66.0802 290.234 65.2765C291.037 64.4729 292.127 64.0208 293.263 64.0195H335.75C336.886 64.0208 337.976 64.4729 338.78 65.2765C339.583 66.0802 340.035 67.1698 340.037 68.3064V115.169C340.038 115.357 340.025 115.544 340 115.729C339.862 116.76 339.356 117.705 338.575 118.391C337.793 119.076 336.789 119.454 335.75 119.456H293.263C292.127 119.455 291.037 119.003 290.234 118.199C289.43 117.395 288.978 116.306 288.977 115.169ZM293.263 66.3578C292.747 66.3584 292.252 66.5639 291.886 66.9292C291.521 67.2945 291.315 67.7898 291.315 68.3064V115.169C291.315 115.686 291.521 116.181 291.886 116.546C292.252 116.912 292.747 117.117 293.263 117.118H335.75C336.225 117.116 336.683 116.942 337.039 116.628C337.395 116.313 337.624 115.88 337.684 115.409C337.694 115.329 337.699 115.249 337.698 115.169V68.3064C337.698 67.7898 337.492 67.2945 337.127 66.9292C336.762 66.5639 336.266 66.3584 335.75 66.3578H293.263Z" fill="#F8FFA5"/>
<path d="M219.752 101.1C219.753 100.274 220.082 99.4811 220.666 98.8966C221.251 98.3121 222.043 97.9834 222.87 97.9824H274.312C275.139 97.9824 275.932 98.3109 276.516 98.8956C277.101 99.4803 277.429 100.273 277.429 101.1C277.429 101.927 277.101 102.72 276.516 103.305C275.932 103.889 275.139 104.218 274.312 104.218H222.87C222.043 104.217 221.251 103.888 220.666 103.304C220.082 102.719 219.753 101.927 219.752 101.1Z" fill="#F8FFA5"/>
<path d="M219.752 87.8501C219.753 87.0235 220.082 86.2311 220.666 85.6466C221.251 85.0621 222.043 84.7334 222.87 84.7324H250.929C251.756 84.7324 252.549 85.0609 253.133 85.6456C253.718 86.2303 254.047 87.0233 254.047 87.8501C254.047 88.677 253.718 89.47 253.133 90.0547C252.549 90.6393 251.756 90.9678 250.929 90.9678H222.87C222.043 90.9669 221.251 90.6381 220.666 90.0536C220.082 89.4691 219.753 88.6767 219.752 87.8501Z" fill="#F8FFA5"/>
<path d="M304.007 82.2302C306.739 87.6018 308.892 93.1421 314.919 93.1421C317.813 93.1421 320.588 91.9925 322.635 89.9461C324.681 87.8997 325.831 85.1242 325.831 82.2302C325.831 79.3362 324.681 76.5607 322.635 74.5143C320.588 72.4679 317.813 71.3183 314.919 71.3183C308.794 71.2416 298.922 72.232 304.007 82.2302Z" fill="#2F2E41"/>
<path d="M314.382 93.3544C319.669 93.3544 323.954 89.069 323.954 83.7827C323.954 78.4963 319.669 74.2109 314.382 74.2109C309.096 74.2109 304.811 78.4963 304.811 83.7827C304.811 89.069 309.096 93.3544 314.382 93.3544Z" fill="#FFB8B8"/>
<path d="M327.451 101.231C326.834 100.559 326.162 99.9388 325.444 99.3764C322.302 96.9139 318.364 95.6933 314.38 95.947C314.22 95.9547 314.06 95.9664 313.9 95.982C311.593 96.1664 309.352 96.8401 307.325 97.9583C305.298 99.0764 303.533 100.613 302.147 102.467C300.739 104.349 299.749 106.509 299.244 108.805C298.738 111.1 298.729 113.476 299.216 115.775C299.321 116.263 299.415 116.754 299.504 117.245H331.235L331.601 114.79C331.967 112.363 331.785 109.885 331.066 107.539C330.348 105.192 329.112 103.037 327.451 101.231Z" fill="#5E66A7"/>
<path d="M332.309 103.79C332.085 102.509 331.42 101.348 330.428 100.508C329.436 99.6673 328.18 99.2015 326.88 99.1914C326.83 99.1914 326.775 99.1953 326.725 99.1953C326.292 99.2052 325.861 99.2654 325.442 99.3746C324.738 99.5617 324.078 99.8862 323.499 100.329C322.921 100.772 322.435 101.325 322.071 101.956C321.707 102.588 321.471 103.284 321.377 104.007C321.282 104.73 321.332 105.464 321.522 106.167L324.519 117.243H334.605L332.309 103.79Z" fill="#5E66A7"/>
<path d="M310.116 100.887C309.735 100.14 309.19 99.4901 308.522 98.9853C308.048 98.6277 307.519 98.3512 306.955 98.1669C306.725 98.0881 306.489 98.0256 306.25 97.9798C304.946 97.7332 303.598 97.9605 302.447 98.6208C301.297 99.2811 300.42 100.331 299.975 101.581L294.488 117.243H304.901L310.213 105.723C310.567 104.963 310.742 104.132 310.726 103.294C310.709 102.456 310.5 101.632 310.116 100.887Z" fill="#5E66A7"/>
<path d="M304.227 78.3737C306.414 79.8812 309.01 80.6835 311.666 80.6729C310.719 81.3299 309.64 81.7737 308.504 81.9738C312.036 82.7314 315.687 82.7519 319.227 82.034C320.014 81.9078 320.773 81.647 321.472 81.2631C321.82 81.0687 322.123 80.8033 322.362 80.484C322.6 80.1648 322.769 79.7989 322.857 79.4101C323.092 78.0662 322.045 76.8452 320.957 76.0223C319.291 74.7816 317.37 73.9269 315.332 73.5198C313.295 73.1127 311.193 73.1635 309.178 73.6686C307.862 74.0087 306.544 74.5833 305.69 75.64C304.835 76.6967 304.582 78.3257 305.396 79.4138L304.227 78.3737Z" fill="#2F2E41"/>
<path d="M253.897 197.493H112.104C110.193 197.491 108.36 196.73 107.009 195.379C105.657 194.027 104.897 192.195 104.895 190.283V103.707C104.896 102.252 105.475 100.856 106.504 99.8267C107.534 98.7975 108.929 98.2185 110.385 98.2168H255.534C257.012 98.2185 258.428 98.806 259.473 99.8506C260.517 100.895 261.105 102.311 261.106 103.789V190.283C261.104 192.195 260.344 194.027 258.992 195.379C257.641 196.73 255.808 197.491 253.897 197.493Z" fill="white"/>
<path d="M253.897 197.493H112.104C110.193 197.491 108.36 196.73 107.009 195.379C105.657 194.027 104.897 192.195 104.895 190.283V103.707C104.896 102.252 105.475 100.856 106.504 99.8267C107.534 98.7975 108.929 98.2185 110.385 98.2168H255.534C257.012 98.2185 258.428 98.806 259.473 99.8506C260.517 100.895 261.105 102.311 261.106 103.789V190.283C261.104 192.195 260.344 194.027 258.992 195.379C257.641 196.73 255.808 197.491 253.897 197.493ZM110.385 99.7756C109.342 99.7769 108.343 100.191 107.606 100.929C106.869 101.666 106.455 102.665 106.453 103.707V190.283C106.455 191.781 107.051 193.218 108.11 194.277C109.17 195.336 110.606 195.932 112.104 195.934H253.897C255.395 195.932 256.831 195.336 257.89 194.277C258.95 193.218 259.546 191.781 259.547 190.283V103.789C259.546 102.725 259.123 101.705 258.371 100.952C257.618 100.2 256.598 99.7768 255.534 99.7756H110.385Z" fill="#5E66A7"/>
<path d="M169.629 175.573H127.142C126.103 175.572 125.099 175.193 124.318 174.508C123.536 173.822 123.03 172.877 122.893 171.846C122.867 171.661 122.854 171.474 122.856 171.286V124.424C122.857 123.287 123.309 122.197 124.113 121.394C124.916 120.59 126.006 120.138 127.142 120.137H169.629C170.765 120.138 171.855 120.59 172.659 121.394C173.462 122.197 173.914 123.287 173.916 124.424V171.286C173.914 172.423 173.462 173.513 172.659 174.316C171.855 175.12 170.765 175.572 169.629 175.573ZM127.142 122.475C126.626 122.476 126.13 122.681 125.765 123.046C125.4 123.412 125.194 123.907 125.194 124.424V171.286C125.193 171.367 125.198 171.447 125.209 171.526C125.268 171.997 125.498 172.43 125.853 172.745C126.209 173.059 126.667 173.234 127.142 173.235H169.629C170.145 173.234 170.641 173.029 171.006 172.664C171.371 172.298 171.577 171.803 171.577 171.286V124.424C171.577 123.907 171.371 123.412 171.006 123.046C170.641 122.681 170.145 122.476 169.629 122.475H127.142Z" fill="#9098D9"/>
<path d="M147.77 128.705C145.005 127.418 141.609 126.996 138.795 128.192C135.98 129.388 134.062 132.452 134.972 135.164C135.384 136.394 136.324 137.603 135.958 138.845C135.676 139.801 134.693 140.432 133.728 140.881C132.762 141.33 131.706 141.707 131.008 142.464C130.31 143.221 130.164 144.523 131.037 145.11C131.324 145.304 131.683 145.395 131.962 145.599C132.199 145.792 132.37 146.054 132.452 146.349C132.533 146.644 132.52 146.957 132.415 147.245C132.183 147.823 131.799 148.328 131.304 148.706C130.314 149.56 129.006 150.537 129.313 151.749C129.427 152.073 129.618 152.365 129.869 152.6C130.119 152.834 130.423 153.005 130.754 153.097C131.441 153.295 132.154 153.389 132.869 153.376L162.084 154.297C163.049 154.369 164.018 154.315 164.969 154.135C165.431 154.051 165.87 153.873 166.26 153.611C166.65 153.349 166.981 153.009 167.234 152.614C167.794 151.578 167.426 150.302 166.735 149.335C166.044 148.368 165.067 147.606 164.259 146.718C163.451 145.83 162.79 144.721 162.932 143.574C163.046 142.655 163.652 141.861 164.087 141.026C164.522 140.192 164.774 139.148 164.211 138.381C163.417 137.298 161.512 137.396 160.609 136.388C159.928 135.627 160.059 134.532 159.992 133.55C159.829 131.19 158.195 128.961 155.869 127.926C154.686 127.418 153.399 127.199 152.115 127.286C150.83 127.374 149.585 127.765 148.482 128.429L147.77 128.705Z" fill="#2F2E41"/>
<path d="M148.851 154.069C154.137 154.069 158.423 149.784 158.423 144.497C158.423 139.211 154.137 134.926 148.851 134.926C143.565 134.926 139.279 139.211 139.279 144.497C139.279 149.784 143.565 154.069 148.851 154.069Z" fill="#FFB8B8"/>
<path d="M161.416 166.432C161.407 164.754 160.942 163.11 160.072 161.676C159.201 160.241 157.958 159.07 156.475 158.287C156.354 158.22 156.229 158.162 156.104 158.104C155.027 157.593 153.861 157.296 152.671 157.231L143.56 156.72C142.273 156.647 140.985 156.844 139.779 157.301C139.486 157.41 139.198 157.535 138.918 157.675C138.037 158.109 137.232 158.681 136.533 159.37C135.612 160.279 134.892 161.371 134.418 162.575C133.944 163.779 133.727 165.069 133.782 166.361L133.945 170.224L135.091 173.197H160.567C160.883 172.814 161.157 172.399 161.385 171.958C161.817 171.102 162.044 170.157 162.05 169.198C162.055 168.24 161.838 167.293 161.416 166.432Z" fill="#FCF670"/>
<path d="M160.793 161.31C160.377 160.408 159.725 159.635 158.907 159.073C158.316 158.668 157.653 158.38 156.954 158.223C156.674 158.162 156.39 158.121 156.105 158.103C155.542 158.064 154.977 158.113 154.429 158.247C153.611 158.45 152.85 158.837 152.203 159.378C151.556 159.919 151.041 160.599 150.696 161.368C150.351 162.138 150.185 162.975 150.212 163.818C150.238 164.66 150.455 165.486 150.847 166.232L154.351 172.865L154.526 173.196H166.292L160.793 161.31Z" fill="#FCF670"/>
<path d="M141.538 157.854C140.987 157.573 140.393 157.386 139.781 157.3C139.325 157.235 138.863 157.229 138.405 157.281C137.241 157.413 136.148 157.909 135.283 158.699C134.418 159.489 133.825 160.533 133.588 161.681L131.215 173.197H140.498L142.232 172.487L144.391 164.202C144.705 162.977 144.594 161.682 144.076 160.529C143.557 159.375 142.663 158.432 141.538 157.854Z" fill="#FCF670"/>
<path d="M139.059 143.138C142.082 142.896 144.591 139.876 144.277 136.86C144.242 138.103 144.664 139.316 145.465 140.268C146.266 141.219 147.388 141.844 148.619 142.022C150.006 142.175 151.526 141.755 152.733 142.455C154.069 143.229 154.497 145.111 155.89 145.78C157.235 146.427 158.944 145.545 159.609 144.208C160.273 142.872 160.11 141.266 159.67 139.839C159.042 137.805 157.898 135.969 156.349 134.508C154.801 133.047 152.901 132.011 150.833 131.502C148.766 130.993 146.603 131.028 144.553 131.603C142.503 132.178 140.637 133.273 139.136 134.783C137.865 136.061 136.856 137.691 136.692 139.486C136.528 141.281 137.361 143.229 138.974 144.036L139.059 143.138Z" fill="#2F2E41"/>
<path d="M240.027 160.337H188.584C187.758 160.337 186.965 160.008 186.38 159.424C185.795 158.839 185.467 158.046 185.467 157.219C185.467 156.392 185.795 155.599 186.38 155.015C186.965 154.43 187.758 154.102 188.584 154.102H240.027C240.853 154.102 241.646 154.43 242.231 155.015C242.816 155.599 243.144 156.392 243.144 157.219C243.144 158.046 242.816 158.839 242.231 159.424C241.646 160.008 240.853 160.337 240.027 160.337Z" fill="#9098D9"/>
<path d="M216.644 147.087H188.584C187.758 147.087 186.965 146.758 186.38 146.174C185.795 145.589 185.467 144.796 185.467 143.969C185.467 143.142 185.795 142.349 186.38 141.765C186.965 141.18 187.758 140.852 188.584 140.852H216.644C217.471 140.852 218.264 141.18 218.848 141.765C219.433 142.349 219.761 143.142 219.761 143.969C219.761 144.796 219.433 145.589 218.848 146.174C218.264 146.758 217.471 147.087 216.644 147.087Z" fill="#9098D9"/>
<path d="M231.698 169.855C228.975 169.86 226.365 170.946 224.442 172.873C222.518 174.8 221.438 177.412 221.438 180.135C221.437 182.858 222.518 185.47 224.442 187.397C226.365 189.325 228.975 190.41 231.698 190.415C234.421 190.41 237.031 189.325 238.955 187.397C240.879 185.47 241.959 182.858 241.959 180.135C241.959 177.412 240.879 174.8 238.955 172.873C237.031 170.946 234.421 169.86 231.698 169.855Z" fill="#9098D9"/>
<path d="M230.724 184.404C230.453 184.405 230.19 184.317 229.974 184.155L229.96 184.145L227.133 181.982C226.869 181.779 226.697 181.48 226.653 181.15C226.61 180.82 226.699 180.486 226.902 180.222C227.104 179.958 227.403 179.785 227.733 179.741C228.063 179.697 228.397 179.786 228.662 179.988L230.493 181.393L234.82 175.748C234.92 175.617 235.045 175.507 235.188 175.424C235.331 175.342 235.489 175.288 235.652 175.267C235.815 175.245 235.982 175.256 236.141 175.299C236.3 175.341 236.45 175.415 236.58 175.515L236.581 175.515L236.554 175.553L236.582 175.515C236.846 175.718 237.018 176.018 237.062 176.348C237.105 176.678 237.016 177.012 236.814 177.276L231.724 183.913C231.607 184.066 231.455 184.19 231.282 184.275C231.109 184.36 230.918 184.404 230.725 184.403L230.724 184.404Z" fill="white"/>
<path d="M145.892 144.805C145.892 145.33 146.234 145.739 146.585 145.714C146.935 145.689 147.177 145.239 147.143 144.713C147.11 144.188 146.793 143.779 146.451 143.804C146.109 143.829 145.859 144.271 145.892 144.805Z" fill="#263238"/>
<path d="M151.857 144.389C151.899 144.914 152.207 145.323 152.549 145.298C152.891 145.273 153.142 144.823 153.108 144.297C153.075 143.772 152.758 143.363 152.416 143.388C152.074 143.413 151.824 143.888 151.857 144.389Z" fill="#263238"/>
<path d="M150.026 146.02C150.238 147.24 150.617 148.425 151.153 149.542C150.863 149.672 150.547 149.737 150.228 149.732C149.909 149.728 149.596 149.653 149.309 149.514L150.026 146.02Z" fill="#D89090"/>
<path d="M143.907 143.004C143.964 143.008 144.021 142.997 144.072 142.972C144.123 142.947 144.167 142.909 144.199 142.862C144.404 142.531 144.683 142.252 145.015 142.048C145.347 141.844 145.721 141.72 146.109 141.686C146.191 141.686 146.27 141.653 146.328 141.595C146.385 141.537 146.418 141.459 146.418 141.377C146.418 141.295 146.385 141.217 146.328 141.159C146.27 141.101 146.191 141.068 146.109 141.068C145.618 141.099 145.141 141.246 144.719 141.499C144.297 141.751 143.941 142.101 143.682 142.52C143.658 142.554 143.642 142.592 143.633 142.632C143.625 142.672 143.624 142.714 143.632 142.754C143.64 142.795 143.656 142.833 143.679 142.867C143.701 142.902 143.731 142.931 143.765 142.954C143.81 142.978 143.857 142.994 143.907 143.004Z" fill="#263238"/>
<path d="M151.907 151.726C151.224 152.071 150.468 152.247 149.702 152.238C148.937 152.229 148.185 152.035 147.51 151.674C147.491 151.663 147.475 151.649 147.462 151.631C147.448 151.614 147.439 151.594 147.434 151.573C147.429 151.551 147.428 151.529 147.432 151.508C147.436 151.486 147.444 151.466 147.457 151.448C147.467 151.429 147.482 151.412 147.499 151.399C147.517 151.386 147.537 151.376 147.558 151.371C147.579 151.366 147.601 151.366 147.623 151.37C147.644 151.373 147.665 151.382 147.683 151.394C148.315 151.716 149.012 151.886 149.721 151.891C150.43 151.896 151.13 151.736 151.766 151.423C151.786 151.413 151.807 151.407 151.83 151.405C151.852 151.403 151.874 151.407 151.895 151.414C151.916 151.422 151.935 151.434 151.951 151.449C151.967 151.465 151.98 151.484 151.988 151.504C151.999 151.524 152.005 151.546 152.006 151.568C152.008 151.59 152.005 151.612 151.997 151.633C151.99 151.654 151.978 151.673 151.962 151.689C151.947 151.705 151.928 151.718 151.907 151.726Z" fill="#263238"/>
<path d="M154.266 142.152C154.323 142.158 154.381 142.147 154.433 142.123C154.485 142.098 154.529 142.059 154.561 142.011C154.593 141.963 154.611 141.908 154.613 141.85C154.615 141.793 154.602 141.736 154.575 141.685C154.338 141.252 154.001 140.881 153.592 140.605C153.183 140.33 152.713 140.156 152.222 140.1C152.182 140.098 152.141 140.104 152.103 140.117C152.065 140.131 152.029 140.151 151.999 140.179C151.969 140.206 151.944 140.238 151.927 140.275C151.909 140.312 151.899 140.351 151.897 140.392C151.895 140.473 151.924 140.553 151.978 140.613C152.032 140.674 152.108 140.711 152.189 140.717C152.575 140.773 152.943 140.918 153.263 141.141C153.583 141.364 153.847 141.659 154.032 142.002C154.057 142.043 154.091 142.078 154.132 142.104C154.172 142.13 154.218 142.147 154.266 142.152Z" fill="#263238"/>
<path d="M47.3777 87.6025C47.3777 88.0629 47.6773 88.421 47.9843 88.3991C48.2912 88.3771 48.5031 87.9825 48.4739 87.5221C48.4446 87.0617 48.167 86.7036 47.8673 86.7256C47.5677 86.7475 47.3485 87.1348 47.3777 87.6025Z" fill="#263238"/>
<path d="M52.6278 87.6025C52.6643 88.0629 52.9347 88.421 53.2343 88.3991C53.5339 88.3771 53.7532 87.9825 53.7239 87.5221C53.6947 87.0617 53.417 86.7036 53.1174 86.7256C52.8178 86.7475 52.5986 87.164 52.6278 87.6025Z" fill="#263238"/>
<path d="M50.9524 88.5061C51.3081 89.5309 51.8038 90.5017 52.4254 91.3908C52.1924 91.5446 51.9286 91.6455 51.6524 91.6865C51.3763 91.7275 51.0945 91.7076 50.8269 91.6281L50.9524 88.5061Z" fill="#D89090"/>
<path d="M45.8707 85.7696C45.9205 85.7731 45.9703 85.7635 46.0152 85.7417C46.06 85.7199 46.0984 85.6867 46.1264 85.6454C46.306 85.3553 46.5508 85.1111 46.8413 84.9322C47.1318 84.7533 47.46 84.6447 47.7999 84.615C47.8716 84.615 47.9404 84.5865 47.9911 84.5358C48.0418 84.4851 48.0703 84.4163 48.0703 84.3446C48.0703 84.2729 48.0418 84.2041 47.9911 84.1534C47.9404 84.1027 47.8716 84.0742 47.7999 84.0742C47.3696 84.1007 46.952 84.23 46.582 84.4513C46.2119 84.6725 45.9004 84.9793 45.6734 85.3458C45.6528 85.3754 45.6383 85.4088 45.6309 85.4441C45.6234 85.4794 45.623 85.5158 45.6299 85.5512C45.6367 85.5866 45.6505 85.6203 45.6705 85.6502C45.6905 85.6802 45.7164 85.7059 45.7464 85.7258C45.7853 85.7468 45.8272 85.7616 45.8707 85.7696Z" fill="#263238"/>
<path d="M52.886 93.2298C52.3185 93.587 51.6733 93.8022 51.005 93.8571C50.3367 93.9121 49.665 93.8051 49.0468 93.5454C49.0293 93.5376 49.0136 93.5263 49.0007 93.5121C48.9878 93.498 48.978 93.4813 48.9718 93.4632C48.9657 93.445 48.9634 93.4258 48.965 93.4068C48.9666 93.3877 48.9722 93.3692 48.9813 93.3523C48.9891 93.3349 49.0005 93.3192 49.0146 93.3063C49.0288 93.2934 49.0454 93.2836 49.0635 93.2774C49.0817 93.2713 49.1009 93.269 49.1199 93.2706C49.139 93.2722 49.1575 93.2778 49.1744 93.2869C49.7516 93.5156 50.3741 93.6067 50.9927 93.553C51.6112 93.4992 52.2088 93.3021 52.7379 92.9773C52.7542 92.9665 52.7725 92.9593 52.7918 92.9561C52.8111 92.9528 52.8308 92.9537 52.8497 92.9586C52.8686 92.9636 52.8863 92.9724 52.9015 92.9846C52.9167 92.9969 52.9292 93.0121 52.9382 93.0295C52.949 93.0458 52.9562 93.0641 52.9594 93.0834C52.9627 93.1027 52.9618 93.1224 52.9569 93.1413C52.9519 93.1602 52.9431 93.1779 52.9309 93.1931C52.9187 93.2083 52.9034 93.2208 52.886 93.2298Z" fill="#263238"/>
<path d="M54.9458 85.0227C54.996 85.0276 55.0465 85.0186 55.092 84.9969C55.1375 84.9752 55.1762 84.9415 55.204 84.8994C55.2318 84.8573 55.2476 84.8085 55.2497 84.7581C55.2519 84.7078 55.2403 84.6578 55.2162 84.6135C55.0092 84.2338 54.7139 83.9094 54.3553 83.6677C53.9966 83.4261 53.5851 83.2742 53.1554 83.225C53.1199 83.2231 53.0843 83.2281 53.0507 83.2399C53.0172 83.2517 52.9863 83.27 52.9598 83.2938C52.9333 83.3175 52.9118 83.3463 52.8965 83.3784C52.8811 83.4105 52.8723 83.4453 52.8704 83.4808C52.8683 83.5521 52.8937 83.6214 52.9413 83.6744C52.9889 83.7275 53.0551 83.7602 53.1262 83.7658C53.4645 83.8145 53.7867 83.9416 54.0671 84.137C54.3475 84.3324 54.5783 84.5907 54.7412 84.8912C54.7631 84.9272 54.7929 84.9578 54.8283 84.9806C54.8638 85.0034 54.9039 85.0178 54.9458 85.0227Z" fill="#263238"/>
<path d="M315.101 85.2392C315.101 85.6596 314.828 85.9866 314.547 85.9666C314.267 85.9466 314.073 85.5862 314.1 85.1658C314.127 84.7454 314.38 84.4184 314.654 84.4384C314.928 84.4584 315.128 84.8121 315.101 85.2392Z" fill="#263238"/>
<path d="M310.33 84.9072C310.296 85.3276 310.049 85.6546 309.776 85.6346C309.502 85.6146 309.302 85.2542 309.329 84.8338C309.355 84.4133 309.609 84.0863 309.882 84.1063C310.156 84.1264 310.356 84.5068 310.33 84.9072Z" fill="#263238"/>
<path d="M311.831 85.2188C311.239 86.4746 310.475 87.6424 309.562 88.689C309.838 88.9165 310.16 89.0811 310.506 89.171C310.852 89.2609 311.213 89.2741 311.565 89.2095L311.831 85.2188Z" fill="#D89090"/>
<path d="M316.688 83.7963C316.643 83.7995 316.597 83.7907 316.556 83.7708C316.515 83.7509 316.48 83.7206 316.455 83.6829C316.291 83.4179 316.067 83.1949 315.802 83.0315C315.537 82.8682 315.237 82.769 314.927 82.7419C314.861 82.7419 314.798 82.7159 314.752 82.6696C314.706 82.6233 314.68 82.5605 314.68 82.495C314.68 82.4295 314.706 82.3667 314.752 82.3204C314.798 82.2741 314.861 82.248 314.927 82.248C315.32 82.2723 315.701 82.3903 316.039 82.5924C316.377 82.7944 316.661 83.0745 316.869 83.4092C316.887 83.4363 316.901 83.4668 316.907 83.499C316.914 83.5312 316.915 83.5645 316.908 83.5968C316.902 83.6291 316.889 83.6599 316.871 83.6873C316.853 83.7147 316.829 83.7381 316.802 83.7563C316.766 83.7754 316.728 83.7889 316.688 83.7963Z" fill="#263238"/>
<path d="M311.062 91.1534C311.656 91.3037 312.277 91.3086 312.873 91.1679C313.469 91.0272 314.022 90.7449 314.486 90.345C314.499 90.3333 314.509 90.319 314.516 90.3031C314.524 90.2872 314.527 90.2699 314.528 90.2524C314.528 90.235 314.524 90.2176 314.518 90.2015C314.511 90.1854 314.501 90.1709 314.488 90.1589C314.476 90.1459 314.462 90.1355 314.446 90.1282C314.43 90.121 314.413 90.1172 314.396 90.117C314.378 90.1168 314.361 90.1201 314.345 90.1269C314.329 90.1337 314.314 90.1438 314.302 90.1565C313.865 90.5179 313.35 90.7725 312.798 90.9003C312.245 91.028 311.671 91.0253 311.119 90.8924C311.102 90.8876 311.084 90.8865 311.067 90.8891C311.049 90.8917 311.032 90.8981 311.017 90.9077C311.002 90.9173 310.989 90.93 310.979 90.9449C310.97 90.9598 310.963 90.9766 310.96 90.9942C310.955 91.0114 310.954 91.0294 310.957 91.047C310.96 91.0646 310.966 91.0815 310.976 91.0966C310.985 91.1116 310.998 91.1244 311.013 91.1342C311.028 91.144 311.044 91.1505 311.062 91.1534Z" fill="#263238"/>
<path d="M308.403 83.1167C308.357 83.1211 308.311 83.1129 308.269 83.0931C308.228 83.0732 308.192 83.0424 308.167 83.004C308.142 82.9656 308.127 82.921 308.125 82.875C308.123 82.829 308.134 82.7834 308.156 82.743C308.345 82.3962 308.615 82.1 308.942 81.8793C309.27 81.6586 309.645 81.5199 310.038 81.475C310.07 81.4732 310.103 81.4778 310.133 81.4886C310.164 81.4993 310.192 81.5161 310.216 81.5378C310.241 81.5595 310.26 81.5857 310.274 81.615C310.288 81.6443 310.296 81.6761 310.298 81.7086C310.3 81.7736 310.277 81.8369 310.233 81.8854C310.19 81.9338 310.129 81.9637 310.064 81.9688C309.756 82.0133 309.461 82.1294 309.205 82.3079C308.949 82.4863 308.738 82.7221 308.59 82.9965C308.57 83.0294 308.542 83.0573 308.51 83.0782C308.478 83.099 308.441 83.1121 308.403 83.1167Z" fill="#263238"/>
</g>
<defs>
<clipPath id="clip0_556_12271">
<rect width="390" height="230" fill="white"/>
</clipPath>
</defs>
</svg>
