<svg width="574.000000" height="453.000000" viewBox="0 0 574 453" fill="none" xmlns="http://www.w3.org/2000/svg" xmlns:xlink="http://www.w3.org/1999/xlink">
	<desc>
			Created with Pixso.
	</desc>
	<defs>
		<clipPath id="clip314_25215">
			<rect id="Online-communication-skills" width="574.000000" height="453.000000" fill="white" fill-opacity="0"/>
		</clipPath>
	</defs>
	<g clip-path="url(#clip314_25215)">
		<rect id="rect" x="376.707031" y="24.619873" rx="6.140000" width="120.361305" height="100.230408" fill="#5E66A7" fill-opacity="1.000000"/>
		<path id="path" d="M493 125.18L380.77 125.18C378.33 125.18 376.35 123.2 376.35 120.77L376.35 28.69C376.35 26.25 378.33 24.27 380.77 24.27L493 24.27C495.43 24.27 497.41 26.25 497.41 28.69L497.41 120.77C497.41 123.21 495.43 125.18 493 125.18ZM380.77 24.96C378.72 24.96 377.05 26.63 377.05 28.69L377.05 120.77C377.05 122.83 378.72 124.5 380.77 124.5L493 124.5C495.05 124.5 496.73 122.83 496.73 120.77L496.73 28.69C496.73 26.63 495.05 24.96 493 24.96L380.77 24.96Z" fill="#002346" fill-opacity="1.000000" fill-rule="nonzero"/>
		<ellipse id="circle" cx="283.136719" cy="101.238525" rx="12.242265" ry="12.250237" fill="#002346" fill-opacity="1.000000"/>
		<path id="path" d="M270.42 101.23C270.42 94.22 276.12 88.51 283.14 88.51C290.15 88.51 295.85 94.22 295.85 101.23C295.85 108.25 290.15 113.96 283.14 113.96C276.12 113.96 270.42 108.25 270.42 101.23ZM271.36 101.23C271.36 107.73 276.64 113.01 283.13 113.01C289.62 113.01 294.9 107.73 294.9 101.23C294.9 94.73 289.62 89.45 283.13 89.45C276.64 89.45 271.36 94.74 271.36 101.23Z" fill="#0D2445" fill-opacity="1.000000" fill-rule="nonzero"/>
		<ellipse id="circle" cx="453.316406" cy="38.753662" rx="12.242243" ry="12.250237" fill="#002346" fill-opacity="1.000000"/>
		<path id="path" d="M440.59 38.75C440.59 31.73 446.3 26.02 453.31 26.02C460.32 26.02 466.03 31.73 466.03 38.75C466.03 45.77 460.32 51.48 453.31 51.48C446.3 51.48 440.59 45.77 440.59 38.75ZM441.53 38.75C441.53 45.25 446.81 50.53 453.3 50.53C459.8 50.53 465.07 45.24 465.07 38.75C465.07 32.25 459.79 26.97 453.3 26.97C446.81 26.97 441.53 32.26 441.53 38.75Z" fill="#0D2445" fill-opacity="1.000000" fill-rule="nonzero"/>
		<ellipse id="circle" cx="285.527344" cy="112.076172" rx="9.418651" ry="9.424793" fill="#5E66A7" fill-opacity="1.000000"/>
		<path id="path" d="M275.64 112.07C275.64 106.61 280.07 102.18 285.53 102.18C290.98 102.18 295.41 106.61 295.41 112.07C295.41 117.53 290.98 121.97 285.53 121.97C280.07 121.97 275.64 117.53 275.64 112.07ZM276.58 112.07C276.58 117.01 280.59 121.03 285.53 121.03C290.46 121.03 294.47 117.01 294.47 112.07C294.47 107.14 290.46 103.12 285.53 103.12C280.59 103.12 276.58 107.14 276.58 112.07Z" fill="#002346" fill-opacity="1.000000" fill-rule="nonzero"/>
		<ellipse id="circle" cx="449.523438" cy="42.036865" rx="9.418671" ry="9.424789" fill="#A2A8D5" fill-opacity="1.000000"/>
		<path id="path" d="M439.63 42.03C439.63 36.57 444.06 32.14 449.52 32.14C454.97 32.14 459.41 36.57 459.41 42.03C459.41 47.49 454.97 51.93 449.52 51.93C444.06 51.93 439.63 47.49 439.63 42.03ZM440.57 42.03C440.57 46.97 444.59 50.99 449.52 50.99C454.45 50.99 458.46 46.97 458.46 42.03C458.46 37.1 454.45 33.08 449.52 33.08C444.59 33.08 440.57 37.1 440.57 42.03Z" fill="#002346" fill-opacity="1.000000" fill-rule="nonzero"/>
		<rect id="rect" x="76.773438" y="132.431152" rx="6.140000" width="117.842560" height="92.649437" fill="#A2A8D5" fill-opacity="1.000000"/>
		<path id="path" d="M190.53 225.41L80.84 225.41C78.41 225.41 76.42 223.43 76.42 221L76.42 136.49C76.42 134.06 78.41 132.08 80.84 132.08L190.54 132.08C192.98 132.08 194.96 134.06 194.96 136.49L194.96 221C194.96 223.43 192.97 225.41 190.53 225.41ZM80.84 132.76C78.78 132.76 77.11 134.44 77.11 136.49L77.11 221C77.11 223.05 78.78 224.72 80.84 224.72L190.54 224.72C192.6 224.72 194.27 223.05 194.27 221L194.27 136.49C194.27 134.44 192.6 132.76 190.54 132.76L80.84 132.76Z" fill="#002346" fill-opacity="1.000000" fill-rule="nonzero"/>
		<path id="path" d="M84.53 225.07L187.02 225.07C187.02 225.07 170.24 193.91 139.09 193.07C139.09 193.07 113.89 187.66 94.49 205.94C89.47 211.27 86.01 217.89 84.53 225.07Z" fill="#5E66A7" fill-opacity="1.000000" fill-rule="nonzero"/>
		<path id="path" d="M187.59 225.41L84.11 225.41L84.19 225C85.69 217.76 89.17 211.09 94.24 205.71C113.56 187.5 138.91 192.68 139.16 192.74C170.08 193.57 187.15 224.6 187.32 224.91L187.59 225.41ZM84.96 224.72L186.43 224.72C184.07 220.71 167.49 194.18 139.08 193.41C138.77 193.35 113.77 188.24 94.73 206.19C89.85 211.36 86.48 217.76 84.96 224.72Z" fill="#002346" fill-opacity="1.000000" fill-rule="nonzero"/>
		<path id="path" d="M207.72 45.67L138.58 45.67C136.52 45.68 134.87 47.34 134.87 49.4L134.87 97.53C134.87 99.59 136.54 101.26 138.59 101.26L166.73 101.26L173.59 116.81L181.29 101.26L207.74 101.26C209.8 101.26 211.47 99.59 211.47 97.53L211.47 49.4C211.47 47.34 209.78 45.67 207.72 45.67Z" fill="#5E66A7" fill-opacity="1.000000" fill-rule="nonzero"/>
		<path id="path" d="M173.56 117.62L166.5 101.61L138.59 101.61C136.34 101.61 134.52 99.77 134.52 97.53L134.52 49.4C134.52 47.17 136.33 45.33 138.57 45.33L207.73 45.33C209.97 45.33 211.8 47.15 211.81 49.4L211.81 97.53C211.81 99.77 209.97 101.6 207.73 101.61L181.5 101.61L173.56 117.62ZM138.57 46.01C136.71 46.02 135.2 47.54 135.2 49.39L135.2 97.52C135.2 99.38 136.72 100.91 138.59 100.91L166.94 100.91L173.59 115.99L181.07 100.91L207.72 100.91C209.59 100.91 211.11 99.38 211.11 97.51L211.11 49.4C211.11 48.5 210.75 47.64 210.12 47.01C209.47 46.37 208.62 46.02 207.72 46.02L138.57 46.01Z" fill="#002346" fill-opacity="1.000000" fill-rule="nonzero"/>
		<path id="path" d="M370.32 41.98L353.42 38.32L353.42 31.45C353.42 25.19 348.35 20.1 342.09 20.08L292.39 20.08C286.12 20.08 281.03 25.16 281.02 31.43L281.02 65.99C281.02 72.26 286.1 77.35 292.38 77.35L342.09 77.35C348.36 77.35 353.45 72.27 353.45 66L353.45 49.67L370.32 41.98Z" fill="#A2A8D5" fill-opacity="1.000000" fill-rule="nonzero"/>
		<path id="path" d="M342.09 77.7L292.37 77.7C285.92 77.7 280.67 72.45 280.67 66L280.67 31.45C280.67 28.3 281.9 25.36 284.1 23.16C286.31 20.95 289.25 19.73 292.37 19.73L342.08 19.73C348.52 19.75 353.76 25.01 353.75 31.45L353.75 38.04L371.4 41.86L353.79 49.89L353.79 65.99C353.79 69.13 352.57 72.06 350.35 74.27C348.15 76.48 345.22 77.7 342.09 77.7ZM292.38 20.42C289.44 20.42 286.68 21.56 284.6 23.64C282.52 25.72 281.37 28.49 281.37 31.43L281.37 65.98C281.37 72.06 286.3 77.01 292.38 77.01L342.11 77.01C345.04 77.01 347.81 75.86 349.89 73.78C351.97 71.7 353.12 68.93 353.12 65.99L353.12 49.45L369.25 42.08L353.09 38.58L353.09 31.44C353.09 25.37 348.16 20.43 342.09 20.41L292.38 20.42Z" fill="#002346" fill-opacity="1.000000" fill-rule="nonzero"/>
		<path id="path" d="M410.09 104.63C406.72 105.47 388.24 124.85 388.24 124.85L482.48 124.85C482.48 124.85 484.16 101.27 473.21 97.05C473.21 97.05 465.66 91.99 465.66 99.58L456.39 109.68L430.72 98.88L410.09 104.63Z" fill="#A2A8D5" fill-opacity="1.000000" fill-rule="nonzero"/>
		<path id="path" d="M482.8 125.18L387.44 125.18L388 124.6C388.76 123.8 406.57 105.17 410.01 104.29L430.76 98.51L430.87 98.55L456.32 109.27L465.33 99.44C465.35 97.37 465.94 96.02 467.08 95.4C469.36 94.18 472.97 96.47 473.37 96.73C484.39 101.02 482.9 123.88 482.82 124.86L482.8 125.18ZM389.05 124.49L482.16 124.49C482.31 121.68 482.99 101.17 473.09 97.36C473.06 97.33 469.42 94.94 467.41 96.01C466.48 96.51 466.02 97.71 466.02 99.57L466.02 99.7L456.5 110.09L430.71 99.23L410.18 104.95C407.66 105.59 395.58 117.68 389.05 124.49Z" fill="#002346" fill-opacity="1.000000" fill-rule="nonzero"/>
		<path id="path" d="M346.96 261.29L231.68 261.29L233.21 174.62C233.29 169.9 237.14 166.11 241.86 166.11L335.55 166.11C340.5 166.11 344.54 170.06 344.67 175.01L346.96 261.29Z" fill="#E6E7E8" fill-opacity="1.000000" fill-rule="nonzero"/>
		<path id="path" d="M347.31 261.63L231.33 261.63L231.33 261.28L232.87 174.62C232.96 169.74 236.99 165.77 241.86 165.77L335.56 165.77C340.73 165.77 344.89 169.82 345.01 174.99L347.31 261.63ZM232.03 260.94L346.61 260.94L344.33 175.01C344.21 170.21 340.36 166.46 335.56 166.46L241.86 166.46C237.36 166.46 233.63 170.13 233.56 174.63L232.03 260.94Z" fill="#002346" fill-opacity="1.000000" fill-rule="nonzero"/>
		<rect id="rect" x="181.984375" y="289.091064" width="4.208904" height="132.232239" fill="#E6E7E8" fill-opacity="1.000000"/>
		<path id="path" d="M186.53 421.66L181.64 421.66L181.64 288.74L186.53 288.74L186.53 421.66ZM182.32 420.97L185.84 420.97L185.84 289.42L182.32 289.42L182.32 420.97Z" fill="#002346" fill-opacity="1.000000" fill-rule="nonzero"/>
		<rect id="rect" x="195.457031" y="287.406250" width="4.208904" height="119.597351" fill="#E6E7E8" fill-opacity="1.000000"/>
		<path id="path" d="M200 407.34L195.11 407.34L195.11 287.06L200 287.06L200 407.34ZM195.79 406.65L199.31 406.65L199.31 287.74L195.79 287.74L195.79 406.65Z" fill="#002346" fill-opacity="1.000000" fill-rule="nonzero"/>
		<rect id="rect" x="391.574219" y="288.255371" width="4.208883" height="132.232239" fill="#E6E7E8" fill-opacity="1.000000"/>
		<path id="path" d="M396.12 420.83L391.23 420.83L391.23 287.91L396.12 287.91L396.12 420.83ZM391.91 420.14L395.43 420.14L395.43 288.59L391.91 288.59L391.91 420.14Z" fill="#002346" fill-opacity="1.000000" fill-rule="nonzero"/>
		<rect id="rect" x="378.113281" y="288.255371" width="4.208883" height="119.597328" fill="#E6E7E8" fill-opacity="1.000000"/>
		<path id="path" d="M382.65 408.19L377.76 408.19L377.76 287.91L382.65 287.91L382.65 408.19ZM378.44 407.5L381.96 407.5L381.96 288.59L378.44 288.59L378.44 407.5Z" fill="#002346" fill-opacity="1.000000" fill-rule="nonzero"/>
		<rect id="rect" x="224.066406" y="395.822510" width="107.996864" height="3.996826" transform="rotate(-86.7421 224.066406 395.822510)" fill="#FFFFFF" fill-opacity="1.000000"/>
		<path id="path" d="M228.37 396.41L223.7 396.15L229.87 287.64L234.55 287.91L228.37 396.41ZM224.42 395.5L227.72 395.68L233.82 288.55L230.52 288.36L224.42 395.5Z" fill="#002346" fill-opacity="1.000000" fill-rule="nonzero"/>
		<rect id="rect" x="343.585938" y="288.226074" width="3.996825" height="107.996872" transform="rotate(-3.26212 343.585938 288.226074)" fill="#FFFFFF" fill-opacity="1.000000"/>
		<path id="path" d="M349.4 396.4L343.22 287.89L347.89 287.63L354.07 396.14L349.4 396.4ZM343.94 288.54L350.04 395.68L353.34 395.49L347.25 288.36L343.94 288.54Z" fill="#002346" fill-opacity="1.000000" fill-rule="nonzero"/>
		<path id="path" d="M292.35 383.11L306.91 394.45C319.26 404.47 322.58 398.42 322.58 398.42L320.29 383.57C308.78 388.38 292.25 378.36 292.25 378.36L292.35 383.11Z" fill="#FFFFFF" fill-opacity="1.000000" fill-rule="nonzero"/>
		<path id="path" d="M318.69 400.57C316.27 400.57 312.44 399.37 306.7 394.72L292.02 383.28L291.9 377.76L292.43 378.08C292.59 378.18 308.95 387.95 320.16 383.26L320.56 383.1L322.93 398.49L322.87 398.59C322.84 398.65 322.06 400.04 319.93 400.46C319.56 400.53 319.15 400.57 318.69 400.57ZM292.68 382.94L307.12 394.19C313.73 399.55 317.64 400.2 319.76 399.8C321.32 399.5 322.03 398.64 322.23 398.35L320.03 384.04C309.55 388.08 295.52 380.63 292.6 378.96L292.68 382.94Z" fill="#002346" fill-opacity="1.000000" fill-rule="nonzero"/>
		<path id="path" d="M292 389.78C299.19 389.99 303.83 403.52 303.83 403.52L316.87 413.97C331.78 427.33 334.88 421.37 334.88 421.37L322.64 398.41C322.64 398.41 319.3 404.46 306.97 394.44L292.41 383.1L292 389.78Z" fill="#5E66A7" fill-opacity="1.000000" fill-rule="nonzero"/>
		<path id="path" d="M331.9 423.03C329.22 423.03 324.54 421.3 316.63 414.22L303.53 403.72L303.49 403.62C303.44 403.49 298.85 390.32 291.98 390.12L291.63 390.11L292.09 382.41L307.16 394.16C313.76 399.52 317.67 400.17 319.79 399.77C321.63 399.42 322.29 398.28 322.32 398.23L322.62 397.69L322.91 398.24L335.24 421.36L335.16 421.52C335.13 421.56 334.56 422.63 332.85 422.94C332.57 423 332.26 423.03 331.9 423.03ZM304.12 403.3L317.07 413.69C325.8 421.51 330.39 422.68 332.71 422.27C333.77 422.09 334.27 421.59 334.47 421.34L322.57 399.03C322.16 399.5 321.34 400.17 319.96 400.44C317.69 400.88 313.57 400.24 306.74 394.7L292.7 383.77L292.36 389.46C299.26 390.05 303.66 402.01 304.12 403.3Z" fill="#002346" fill-opacity="1.000000" fill-rule="nonzero"/>
		<path id="path" d="M291.82 397.74C291.8 398.94 292.33 400.08 293.25 400.85L312.33 416.76C320.82 424.67 327.68 426.51 327.68 426.51C336.21 428.03 334.83 421.39 334.83 421.39C334.83 421.39 331.73 427.34 316.82 413.98L303.78 403.53C303.78 403.53 299.14 389.99 291.95 389.79L291.82 397.74Z" fill="#FFFFFF" fill-opacity="1.000000" fill-rule="nonzero"/>
		<path id="path" d="M330.01 427.08C329.28 427.08 328.49 427 327.62 426.84C327.31 426.76 320.55 424.88 312.1 417.01L293.03 401.12C292.02 400.28 291.46 399.05 291.48 397.74L291.62 389.45L291.96 389.45C299.07 389.65 303.6 402.01 304.07 403.33L317.03 413.72C325.76 421.54 330.35 422.7 332.66 422.3C334.04 422.06 334.49 421.26 334.52 421.23L334.96 420.4L335.15 421.31C335.17 421.42 335.69 423.98 334.03 425.68C333.14 426.61 331.8 427.08 330.01 427.08ZM292.17 397.75C292.15 398.85 292.62 399.88 293.47 400.59L312.55 416.5C320.89 424.26 327.71 426.16 327.77 426.18C330.5 426.66 332.45 426.34 333.56 425.21C334.46 424.29 334.59 423 334.57 422.2C334.21 422.5 333.65 422.82 332.84 422.97C330.38 423.42 325.57 422.27 316.6 414.24L303.49 403.74L303.46 403.65C303.41 403.52 298.97 390.78 292.29 390.17L292.17 397.75Z" fill="#002346" fill-opacity="1.000000" fill-rule="nonzero"/>
		<path id="path" d="M348.56 291.61C348.51 295.18 347.74 302.92 347.27 307.18C347.07 309.1 346.77 311.01 346.37 312.9L334.85 367.42L330.97 385.72C310.76 404.47 286.37 373.31 286.37 373.31L288.53 359.48L288.81 357.77C294.35 325.09 302.47 291.61 302.47 291.61L348.56 291.61Z" fill="#A2A8D5" fill-opacity="1.000000" fill-rule="nonzero"/>
		<path id="path" d="M316.62 392.07C316.07 392.07 315.5 392.05 314.94 392C299.79 390.8 286.24 373.7 286.1 373.52L286.01 373.41L288.48 357.71C293.95 325.41 302.07 291.87 302.15 291.53L302.21 291.27L348.91 291.27L348.91 291.62C348.84 295.6 347.9 304.57 347.62 307.22C347.42 309.14 347.11 311.08 346.71 312.98L331.28 385.9L331.21 385.97C326.84 390.03 321.94 392.07 316.62 392.07ZM286.73 373.21C287.94 374.71 300.79 390.19 314.99 391.31C320.73 391.77 326 389.83 330.66 385.54L346.05 312.82C346.44 310.95 346.74 309.04 346.94 307.14C347.22 304.57 348.1 296.06 348.21 291.95L302.76 291.95C301.99 295.16 294.38 327.05 289.16 357.83L288.88 359.54L286.73 373.21Z" fill="#002346" fill-opacity="1.000000" fill-rule="nonzero"/>
		<path id="path" d="M286.36 378.94L276.26 394.4C267.84 407.87 262.72 403.23 262.72 403.23L260.07 388.44C272.51 389.23 285.69 377.53 285.69 377.53L286.36 378.94Z" fill="#FFFFFF" fill-opacity="1.000000" fill-rule="nonzero"/>
		<path id="path" d="M265.15 404.35C263.46 404.35 262.53 403.52 262.49 403.48L262.4 403.4L262.38 403.29L259.66 388.08L260.09 388.1C272.24 388.89 285.34 377.39 285.47 377.28L285.81 376.98L286.75 378.96L286.64 379.12L276.54 394.58C271.89 402.02 268.19 403.97 265.91 404.29C265.64 404.33 265.38 404.35 265.15 404.35ZM263.03 403.05C263.3 403.26 264.26 403.85 265.84 403.62C267.97 403.31 271.46 401.43 275.96 394.22L285.97 378.92L285.57 378.09C283.49 379.83 272.22 388.83 261.26 388.83C261 388.83 260.73 388.83 260.47 388.82L263.03 403.05Z" fill="#002346" fill-opacity="1.000000" fill-rule="nonzero"/>
		<path id="path" d="M288.88 385.12C282.15 387.65 282.15 401.96 282.15 401.96L273.23 416.07C263.45 433.54 258.59 428.91 258.59 428.91L262.71 403.21C262.71 403.21 267.83 407.85 276.25 394.38L286.36 378.94L288.88 385.12Z" fill="#5E66A7" fill-opacity="1.000000" fill-rule="nonzero"/>
		<path id="path" d="M260.34 429.82C259.05 429.82 258.39 429.2 258.35 429.17L258.22 429.04L258.25 428.86L262.46 402.54L262.93 402.97C262.98 403 263.98 403.86 265.82 403.6C267.96 403.29 271.45 401.41 275.95 394.2L286.42 378.2L289.32 385.31L288.99 385.44C282.56 387.85 282.48 401.82 282.48 401.96L282.48 402.06L282.43 402.14L273.51 416.25C267.64 426.73 263.46 429.38 260.99 429.76C260.75 429.79 260.54 429.82 260.34 429.82ZM258.96 428.77C259.23 428.94 259.88 429.25 260.93 429.08C263.25 428.71 267.22 426.12 272.93 415.91L281.8 401.87C281.82 400.49 282.1 387.73 288.43 384.93L286.28 379.67L276.53 394.57C271.88 402.02 268.18 403.96 265.9 404.28C264.51 404.47 263.51 404.1 262.96 403.8L258.96 428.77Z" fill="#002346" fill-opacity="1.000000" fill-rule="nonzero"/>
		<path id="path" d="M291.6 392.59C292.02 393.72 291.9 394.99 291.26 396.02L278.37 417.25C272.88 427.49 267.01 431.45 267.01 431.45C259.46 435.67 258.59 428.93 258.59 428.93C258.59 428.93 263.45 433.56 273.23 416.09L282.14 401.98C282.14 401.98 282.14 387.66 288.88 385.14L291.6 392.59Z" fill="#FFFFFF" fill-opacity="1.000000" fill-rule="nonzero"/>
		<path id="path" d="M262.66 433.18C261.95 433.18 261.3 433.03 260.73 432.74C258.61 431.67 258.26 429.07 258.24 428.97L258.12 428L258.82 428.67C258.82 428.67 259.53 429.31 260.92 429.09C263.24 428.71 267.2 426.13 272.92 415.91L281.79 401.87C281.8 400.48 282.1 387.31 288.75 384.81L289.07 384.69L291.92 392.47C292.38 393.71 292.25 395.07 291.55 396.19L278.66 417.43C273.2 427.61 267.44 431.57 267.19 431.73C265.47 432.69 263.95 433.18 262.66 433.18ZM259.1 429.6C259.34 430.37 259.89 431.55 261.04 432.13C262.44 432.84 264.4 432.51 266.83 431.15C266.87 431.12 272.69 427.12 278.06 417.09L290.97 395.84C291.55 394.89 291.66 393.75 291.28 392.71L288.67 385.58C282.55 388.34 282.48 401.83 282.48 401.97L282.48 402.07L282.42 402.16L273.5 416.26C267.64 426.74 263.45 429.4 260.98 429.77C260.16 429.89 259.53 429.77 259.1 429.6Z" fill="#002346" fill-opacity="1.000000" fill-rule="nonzero"/>
		<path id="path" d="M175.6 285.36L211.45 248.66L373.9 248.66L401.42 285.38C401.52 285.52 401.42 285.72 401.25 285.72L175.75 285.72C175.56 285.72 175.47 285.49 175.6 285.36Z" fill="#E6E7E8" fill-opacity="1.000000" fill-rule="nonzero"/>
		<path id="path" d="M401.25 286.06L175.75 286.06C175.52 286.06 175.32 285.93 175.24 285.72C175.15 285.52 175.2 285.28 175.35 285.12L211.3 248.32L374.06 248.32L374.16 248.46L401.68 285.17C401.81 285.34 401.83 285.56 401.74 285.76C401.64 285.95 401.46 286.06 401.25 286.06ZM176.06 285.37L400.98 285.37L373.72 249L211.59 249L176.06 285.37Z" fill="#002346" fill-opacity="1.000000" fill-rule="nonzero"/>
		<path id="path" d="M309.72 139.08C310.19 144.57 311.2 155.12 312.09 157.62C312.09 157.62 310.38 156.86 307.97 155.95C305.14 154.89 302.2 154.17 299.21 153.82L295.35 153.36C295.48 153.27 295.6 153.17 295.73 153.06C298.56 150.75 300.61 147.62 301.6 144.11L301.6 144.02C302.11 142.36 302.44 140.64 302.61 138.91C302.61 138.68 302.66 138.46 302.67 138.22L302.67 137.73C302.73 136.54 302.67 135.8 302.67 135.8C294.68 135.8 290.48 131.59 290.48 131.59C290.48 134.95 292.41 135.8 292.41 135.8C283.46 134.95 278.36 123.51 278.36 123.51C276.25 128.08 271.64 130.51 271.64 130.51C271.64 131.98 271.64 133.66 270.8 134.91C270.48 135.41 270.8 136.08 270.8 136.62L270.8 137.11C270.8 137.54 270.8 137.98 270.85 138.42L270.85 139.09C271.79 144.32 273.37 147.39 274.96 149.67C276.09 151.42 277.53 152.92 279.23 154.11C273.15 155.13 267.3 157.19 261.92 160.2C261.92 160.2 265.28 154.31 264.44 137.45C264.44 137.45 263.6 107.98 279.6 109.66C279.6 109.66 293.06 101.24 304.85 113.03C304.85 113.03 315.54 125.99 310.88 133.92C309.97 135.48 309.57 137.29 309.72 139.08Z" fill="#002346" fill-opacity="1.000000" fill-rule="nonzero"/>
		<path id="path" d="M261.03 161.1L261.63 160.03C261.66 159.97 264.93 153.99 264.11 137.47C264.09 136.72 263.67 119.04 271.23 112.03C273.51 109.91 276.3 108.99 279.52 109.31C280.81 108.56 293.8 101.49 305.09 112.79C305.55 113.35 315.89 126.05 311.18 134.1C310.3 135.6 309.9 137.31 310.05 139.05C310.45 143.75 311.5 154.95 312.39 157.5L312.66 158.25L311.93 157.92C311.93 157.92 310.21 157.16 307.84 156.27C305.04 155.22 302.12 154.51 299.15 154.16L294.43 153.59L295.14 153.08C295.23 153.01 295.32 152.95 295.41 152.87L295.51 152.79C298.28 150.52 300.26 147.5 301.25 144.05L301.26 143.91C301.76 142.28 302.1 140.58 302.26 138.87C302.26 138.75 302.27 138.61 302.29 138.47C302.31 138.38 302.32 138.29 302.32 138.2L302.32 137.78C302.35 137.03 302.35 136.47 302.34 136.15C296.16 136.06 292.29 133.53 290.86 132.39C291.11 134.81 292.48 135.46 292.54 135.5L294.41 136.35L292.37 136.15C284.46 135.4 279.59 126.77 278.35 124.3C276.35 128.06 272.82 130.23 271.98 130.72C271.98 132.19 271.94 133.83 271.08 135.11C270.94 135.33 271 135.66 271.06 136C271.1 136.21 271.14 136.41 271.14 136.62L271.14 137.1C271.14 137.52 271.14 137.96 271.18 138.37L271.18 139.03C272.17 144.54 273.87 147.5 275.24 149.47C276.34 151.2 277.74 152.66 279.41 153.82L280.1 154.31L279.27 154.45C273.22 155.46 267.44 157.5 262.08 160.5L261.03 161.1ZM278.33 109.94C275.78 109.94 273.56 110.8 271.7 112.53C264.37 119.33 264.79 137.27 264.8 137.45C265.46 150.66 263.57 157.13 262.67 159.4C267.6 156.76 272.89 154.91 278.39 153.9C276.93 152.78 275.69 151.42 274.69 149.85C273.28 147.83 271.54 144.78 270.52 139.14L270.52 139.03L270.52 138.41C270.47 138 270.47 137.54 270.47 137.1L270.47 136.62C270.47 136.47 270.44 136.3 270.41 136.12C270.33 135.7 270.23 135.17 270.53 134.73C271.31 133.56 271.31 131.94 271.31 130.52L271.31 130.31L271.49 130.21C271.54 130.18 276.03 127.78 278.06 123.37L278.38 122.68L278.69 123.37C278.74 123.47 283.36 133.62 291.28 135.28C290.73 134.62 290.16 133.47 290.16 131.6L290.16 130.77L290.74 131.35C290.78 131.39 294.95 135.46 302.69 135.46L303 135.46L303.03 135.77C303.03 135.77 303.1 136.54 303.03 137.74L303.03 138.21C303.03 138.34 303.01 138.44 303 138.55C302.98 138.67 302.97 138.78 302.97 138.9C302.8 140.67 302.47 142.39 301.96 144.07L301.95 144.2C300.96 147.69 298.98 150.77 296.21 153.11L299.26 153.49C302.27 153.84 305.25 154.56 308.1 155.63C309.6 156.2 310.85 156.71 311.57 157.01C310.69 153.47 309.76 143.48 309.39 139.11C309.23 137.23 309.65 135.38 310.6 133.76C315.08 126.11 304.71 113.38 304.6 113.25C293.17 101.81 279.94 109.87 279.8 109.96L279.71 110.02L279.59 110.01C279.16 109.96 278.73 109.94 278.33 109.94Z" fill="#002346" fill-opacity="1.000000" fill-rule="nonzero"/>
		<g opacity="0.200000">
			<path id="path" d="M267.82 157.38C267.82 157.38 270.28 151.58 269.88 146.64C269.88 146.64 272 147.16 272.85 146.1C272.85 146.1 274.97 151.38 279.23 154.13C279.25 154.13 274.55 154.55 267.82 157.38Z" fill="#000000" fill-opacity="1.000000" fill-rule="nonzero"/>
		</g>
		<rect id="rect" x="270.621094" y="136.642822" width="0.344659" height="0.484170" fill="#FF0000" fill-opacity="1.000000"/>
		<path id="path" d="M270.67 138.45C270.62 138 270.62 137.56 270.62 137.12L270.97 137.12C270.97 137.51 270.99 137.86 271 138.14L271.01 138.42L270.67 138.45Z" fill="#FF0000" fill-opacity="1.000000" fill-rule="nonzero"/>
		<path id="path" d="M302.84 138.93L302.5 138.88L302.53 138.64C302.54 138.5 302.55 138.35 302.57 138.2L302.91 138.21C302.91 138.43 302.88 138.67 302.84 138.93Z" fill="#FF0000" fill-opacity="1.000000" fill-rule="nonzero"/>
		<path id="path" d="M301.82 144.06L301.5 143.96C302 142.31 302.34 140.6 302.5 138.88L302.84 138.91C302.71 140.66 302.35 142.39 301.82 144.06Z" fill="#FF0000" fill-opacity="1.000000" fill-rule="nonzero"/>
		<g opacity="0.200000">
			<path id="path" d="M305.83 146.1C305.83 146.1 305.14 152.57 307.95 155.98C307.95 155.98 303.48 154.12 295.34 153.39C297.65 151.67 299.48 149.39 300.62 146.75C302.25 147.95 304.54 147.67 305.83 146.1Z" fill="#000000" fill-opacity="1.000000" fill-rule="nonzero"/>
		</g>
		<path id="path" d="M247.64 215.81C247.64 215.81 240.09 180.15 247.64 169.77C247.64 169.77 257.52 158.54 270.28 156.44L272.97 164.46C274.21 168.15 277.68 170.62 281.57 170.57L291.48 170.44C296.41 170.38 300.67 167 301.84 162.21L303.72 154.55C303.72 154.55 326.79 158.55 327.62 177.89L327.62 215.8L247.64 215.81Z" fill="#5E66A7" fill-opacity="1.000000" fill-rule="nonzero"/>
		<path id="path" d="M247.36 216.16L247.3 215.88C246.99 214.42 239.81 179.95 247.36 169.56C247.48 169.42 257.49 158.19 270.23 156.09L270.51 156.05L273.3 164.34C274.49 167.9 277.8 170.25 281.57 170.22L291.47 170.09C296.24 170.03 300.37 166.75 301.5 162.11L303.45 154.14L303.77 154.19C304 154.23 327.12 158.47 327.96 177.87L327.96 216.13L247.36 216.16ZM270.05 156.82C257.69 159 247.99 169.89 247.89 169.99C240.88 179.64 247.24 212.15 247.91 215.47L327.28 215.44L327.28 177.88C326.51 160.28 306.71 155.51 303.96 154.93L302.16 162.27C300.95 167.21 296.55 170.71 291.47 170.78L281.57 170.9C281.53 170.9 281.49 170.9 281.45 170.9C277.44 170.9 273.91 168.37 272.63 164.56L270.05 156.82Z" fill="#002346" fill-opacity="1.000000" fill-rule="nonzero"/>
		<path id="path" d="M303.7 154.53L301.82 162.21C300.64 166.99 296.4 170.37 291.48 170.44L281.68 170.56C277.72 170.62 274.17 168.1 272.91 164.34L270.26 156.43C272.09 155.75 273.95 155.19 275.85 154.75C276.9 154.5 277.95 154.31 279.01 154.18L279.26 154.18C281.5 155.67 284.12 156.48 286.81 156.48C289.93 156.46 292.94 155.39 295.37 153.43C295.91 153.27 303.7 154.53 303.7 154.53Z" fill="#F7D1D9" fill-opacity="1.000000" fill-rule="nonzero"/>
		<path id="path" d="M281.55 170.9C277.48 170.9 273.88 168.32 272.59 164.44L269.83 156.22L270.13 156.11C271.96 155.43 273.85 154.86 275.76 154.42C276.81 154.17 277.88 153.98 278.96 153.85L279.35 153.85L279.44 153.9C281.62 155.36 284.17 156.14 286.8 156.14C289.82 156.12 292.79 155.07 295.16 153.17L295.26 153.11C295.81 152.95 301.38 153.82 303.75 154.2L304.1 154.26L302.13 162.29C300.91 167.22 296.53 170.7 291.46 170.78L281.67 170.9C281.62 170.9 281.59 170.9 281.55 170.9ZM270.68 156.64L273.22 164.23C274.43 167.83 277.77 170.23 281.55 170.23C281.59 170.23 281.63 170.23 281.67 170.23L291.47 170.1C296.23 170.04 300.35 166.76 301.48 162.13L303.28 154.81C300.44 154.36 296.19 153.73 295.5 153.76C293.03 155.71 289.94 156.8 286.8 156.82C284.07 156.81 281.43 156.02 279.15 154.52L279 154.52C277.99 154.64 276.94 154.84 275.91 155.08C274.14 155.49 272.38 156.01 270.68 156.64Z" fill="#002346" fill-opacity="1.000000" fill-rule="nonzero"/>
		<rect id="rect" x="175.257812" y="285.721680" width="226.418900" height="5.896307" fill="#FFFFFF" fill-opacity="1.000000"/>
		<path id="path" d="M402.02 291.96L174.91 291.96L174.91 285.37L402.02 285.37L402.02 291.96ZM175.59 291.27L401.32 291.27L401.32 286.06L175.59 286.06L175.59 291.27Z" fill="#002346" fill-opacity="1.000000" fill-rule="nonzero"/>
		<path id="path" d="M330.2 260.02L345.03 260.02C346.78 260.04 348.25 258.74 348.46 257.01C349.04 252.15 347.97 243.28 331.9 244.48L330.2 260.02Z" fill="#5E66A7" fill-opacity="1.000000" fill-rule="nonzero"/>
		<path id="path" d="M345.06 260.37L329.82 260.37L331.59 244.15L331.88 244.13C338.64 243.63 343.47 244.85 346.25 247.75C348.94 250.57 349.12 254.37 348.8 257.05C348.57 258.95 346.96 260.37 345.06 260.37ZM330.59 259.68L345.06 259.68C346.62 259.68 347.94 258.52 348.13 256.97C348.43 254.42 348.26 250.84 345.76 248.22C343.16 245.51 338.61 244.36 332.21 244.79L330.59 259.68Z" fill="#002346" fill-opacity="1.000000" fill-rule="nonzero"/>
		<path id="path" d="M422.72 174.54C422.72 186.17 408.77 195.59 391.57 195.59L390.05 195.59C387.59 198.75 381.78 203.67 370.42 201.66C370.3 201.64 370.29 201.45 370.42 201.43C372.2 201.12 376.68 199.71 377.51 193.35C367.37 189.91 360.43 182.77 360.43 174.56C360.43 162.93 374.38 153.51 391.57 153.51C408.77 153.51 422.72 162.9 422.72 174.54Z" fill="#5E66A7" fill-opacity="1.000000" fill-rule="nonzero"/>
		<path id="path" d="M375.5 202.47C373.93 202.47 372.22 202.33 370.37 202C370.15 201.96 369.99 201.76 369.99 201.54C369.99 201.31 370.14 201.13 370.37 201.09C372.12 200.79 376.25 199.44 377.14 193.58C366.62 189.93 360.09 182.66 360.09 174.56C360.09 162.76 374.22 153.17 391.59 153.17C408.95 153.17 423.07 162.75 423.07 174.54C423.07 186.32 408.95 195.94 391.59 195.94L390.23 195.94C388.09 198.61 383.6 202.47 375.5 202.47ZM371.6 201.5C382.07 202.98 387.47 198.35 389.79 195.38L389.89 195.25L391.58 195.25C408.57 195.25 422.38 185.96 422.38 174.54C422.38 163.12 408.56 153.86 391.58 153.86C374.6 153.86 360.78 163.15 360.78 174.56C360.78 182.43 367.23 189.51 377.62 193.02L377.89 193.11L377.85 193.39C377.14 198.88 373.81 200.81 371.6 201.5Z" fill="#002346" fill-opacity="1.000000" fill-rule="nonzero"/>
		<rect id="rect" x="373.894531" y="163.597412" width="35.354774" height="3.369313" fill="#E6E7E8" fill-opacity="1.000000"/>
		<path id="path" d="M409.59 167.31L373.55 167.31L373.55 163.25L409.59 163.25L409.59 167.31ZM374.24 166.62L408.9 166.62L408.9 163.93L374.24 163.93L374.24 166.62Z" fill="#002346" fill-opacity="1.000000" fill-rule="nonzero"/>
		<rect id="rect" x="373.894531" y="172.856445" width="35.354774" height="3.369303" fill="#E6E7E8" fill-opacity="1.000000"/>
		<path id="path" d="M409.59 176.57L373.55 176.57L373.55 172.51L409.59 172.51L409.59 176.57ZM374.24 175.88L408.9 175.88L408.9 173.19L374.24 173.19L374.24 175.88Z" fill="#002346" fill-opacity="1.000000" fill-rule="nonzero"/>
		<rect id="rect" x="373.894531" y="182.122070" width="35.354774" height="3.369303" fill="#E6E7E8" fill-opacity="1.000000"/>
		<path id="path" d="M409.59 185.83L373.55 185.83L373.55 181.77L409.59 181.77L409.59 185.83ZM374.24 185.14L408.9 185.14L408.9 182.46L374.24 182.46L374.24 185.14Z" fill="#002346" fill-opacity="1.000000" fill-rule="nonzero"/>
		<rect id="rect" x="411.781250" y="43.754639" rx="19.211794" width="38.423588" height="46.003048" fill="#F7D1D9" fill-opacity="1.000000"/>
		<path id="path" d="M431 90.09C420.22 90.09 411.44 81.32 411.44 70.53L411.44 62.97C411.44 52.19 420.21 43.4 431 43.4C441.78 43.4 450.55 52.18 450.55 62.97L450.55 70.53C450.55 81.31 441.78 90.09 431 90.09ZM431 44.09C420.59 44.09 412.12 52.56 412.12 62.98L412.12 70.53C412.12 80.94 420.58 89.42 431 89.42C441.41 89.42 449.87 80.95 449.87 70.53L449.87 62.98C449.87 52.56 441.41 44.09 431 44.09Z" fill="#002346" fill-opacity="1.000000" fill-rule="nonzero"/>
		<path id="path" d="M438.2 88.03L438.73 96.21L430.74 98.88L410.16 104.64C410.16 104.64 407.63 100.87 411.84 94.34C411.84 94.34 415.53 90.81 413.21 82.05C412.93 81.01 412.53 80 412.04 79.05C409.8 74.58 408.41 69.73 407.96 64.75C407.34 58.26 409.14 51.76 413.02 46.52C413.02 46.52 429.44 25.47 447.97 38.11C447.97 38.11 456.74 36.93 462.1 48.75C463.11 50.98 463.81 53.34 464.16 55.76C464.46 57.92 464.53 60.12 464.35 62.3C463.83 68.55 463.36 79.01 465.68 81.91C465.65 81.91 472.38 89.49 473.22 97.07C473.22 97.07 470.23 95.07 468 95.47C466.68 95.71 465.65 96.79 465.65 99.59C465.65 99.59 464.81 104.64 460.6 111.39C458.89 113.29 457.73 115.61 457.23 118.13C456.14 115.47 455.85 112.55 456.39 109.73C456.39 109.73 450.52 114.76 450.52 124.87L427.78 124.87C427.78 124.87 426.94 117.32 432.83 113.93C432.83 113.93 442.09 110.56 441.24 103.82C441.24 103.82 438.71 99.01 446.29 91.72C446.29 91.72 451.34 87.76 450.51 83.16L449.53 74.79L450.03 63.33C450.03 63.33 438.72 69.3 427.78 55.81C426.81 58.88 427.12 62.22 428.62 65.07C428.62 65.07 422.73 65.07 419.36 60.02C420.04 62.98 421.18 65.82 422.73 68.44C422.73 68.44 414.99 67.33 412.19 60.65C412.15 60.54 412 60.57 412 60.68L411.8 70.56C411.8 70.56 411.59 83.52 424.21 88.54C424.21 88.54 433.4 91.47 438.2 88.03Z" fill="#002346" fill-opacity="1.000000" fill-rule="nonzero"/>
		<path id="path" d="M450.85 125.18L427.46 125.18L427.43 124.88C427.42 124.8 426.62 117.06 432.65 113.6C432.8 113.54 441.64 110.23 440.9 103.89C440.62 103.27 438.74 98.47 446.05 91.44C446.12 91.38 450.95 87.52 450.16 83.19L449.17 74.8L449.66 63.84C447.3 64.79 437.45 67.81 427.92 56.5C427.21 59.3 427.56 62.33 428.91 64.89L429.18 65.39L428.6 65.39C428.38 65.39 423.56 65.35 420.1 61.52C420.78 63.87 421.77 66.13 423.01 68.24L423.37 68.86L422.67 68.76C422.59 68.75 415.44 67.65 412.3 61.68L412.12 70.54C412.12 70.66 412.07 83.33 424.32 88.19C424.39 88.21 433.39 91.05 438 87.76L438.5 87.4L439.1 96.45L430.85 99.2L410.02 105.02L409.87 104.82C409.77 104.66 407.28 100.78 411.55 94.14C411.59 94.1 415.12 90.56 412.88 82.12C412.6 81.11 412.22 80.12 411.75 79.19C409.47 74.66 408.09 69.81 407.63 64.77C406.99 58.18 408.82 51.62 412.76 46.3C412.93 46.08 429.53 25.21 448.07 37.73C449.22 37.65 457.39 37.48 462.42 48.58C463.44 50.84 464.15 53.23 464.5 55.69C464.82 57.88 464.88 60.1 464.69 62.3C463.83 72.69 464.27 79.57 465.95 81.66L466.02 81.75C467.6 83.64 472.83 90.34 473.57 97L473.64 97.73L473.03 97.32C473.03 97.32 470.12 95.4 468.06 95.78C466.67 96.03 466 97.27 466 99.56C465.96 99.82 465.09 104.81 460.89 111.53C459.19 113.44 458.05 115.71 457.57 118.15L457.35 119.27L456.92 118.22C455.94 115.83 455.59 113.25 455.89 110.69C454.34 112.42 450.86 117.16 450.86 124.83L450.85 125.18ZM428.09 124.49L450.17 124.49C450.3 114.57 456.09 109.48 456.15 109.44L456.89 108.8L456.71 109.76C456.26 112.16 456.42 114.61 457.16 116.91C457.76 114.77 458.85 112.79 460.34 111.14C464.42 104.58 465.3 99.56 465.3 99.51C465.3 96.93 466.19 95.43 467.93 95.11C469.66 94.79 471.75 95.79 472.78 96.38C471.79 90.14 466.98 83.99 465.48 82.2C465.46 82.16 465.43 82.13 465.41 82.09C463.12 79.24 463.38 69.72 464.01 62.25C464.19 60.1 464.12 57.92 463.82 55.79C463.47 53.39 462.79 51.07 461.78 48.87C456.61 37.44 448.1 38.41 448.01 38.42L447.88 38.44L447.77 38.37C429.73 26.06 413.46 46.51 413.3 46.71C409.46 51.89 407.68 58.28 408.3 64.7C408.75 69.66 410.12 74.43 412.35 78.88C412.86 79.85 413.25 80.88 413.55 81.94C415.81 90.48 412.5 94.14 412.11 94.53C408.66 99.9 409.91 103.35 410.33 104.21L430.66 98.53L438.38 95.96L437.9 88.64C432.92 91.62 424.46 88.95 424.09 88.83C411.37 83.78 411.44 70.64 411.44 70.51L411.64 60.64C411.64 60.42 411.79 60.24 412 60.2C412.21 60.16 412.42 60.28 412.5 60.48C414.69 65.71 420.08 67.45 422.04 67.92C420.66 65.45 419.64 62.81 419.01 60.06L418.59 58.23L419.62 59.79C422.24 63.72 426.49 64.5 428.02 64.66C426.72 61.86 426.5 58.62 427.43 55.67L427.62 55.06L428.03 55.56C438.66 68.66 449.41 63.23 449.85 62.99L450.39 62.71L449.85 74.77L450.83 83.09C451.69 87.81 446.7 91.79 446.49 91.96C439.25 98.94 441.5 103.59 441.53 103.63L441.56 103.75C442.43 110.68 433.32 114.08 432.93 114.22C428.01 117.06 428.02 123.07 428.09 124.49Z" fill="#002346" fill-opacity="1.000000" fill-rule="nonzero"/>
		<path id="path" d="M446.28 91.69C438.73 98.97 441.23 103.79 441.23 103.79C442.07 110.53 432.82 113.9 432.82 113.9C432.38 114.14 431.97 114.42 431.59 114.73C429.83 114.74 428.08 114.61 426.34 114.33C425.59 114.21 425.08 113.51 425.19 112.76C425.22 112.59 425.28 112.42 425.37 112.27L429.87 104.64L430.71 98.89L438.71 96.22L438.25 87.98C447.85 83.11 449.52 74.74 449.52 74.74L450.51 83.13C451.33 87.72 446.28 91.69 446.28 91.69Z" fill="#F7D1D9" fill-opacity="1.000000" fill-rule="nonzero"/>
		<path id="path" d="M431.39 115.08C429.69 115.08 427.97 114.94 426.29 114.66C425.36 114.52 424.72 113.64 424.86 112.71C424.9 112.49 424.98 112.28 425.08 112.09L429.55 104.52L430.42 98.63L438.37 95.98L437.91 87.78L438.11 87.68C447.44 82.95 449.18 74.76 449.19 74.68L449.61 72.59L450.85 83.09C451.69 87.73 446.87 91.66 446.51 91.94C439.28 98.93 441.52 103.58 441.54 103.63L441.57 103.74C442.44 110.67 433.33 114.07 432.94 114.21C432.57 114.42 432.18 114.69 431.8 114.99L431.71 115.06L431.59 115.06C431.53 115.06 431.46 115.08 431.39 115.08ZM431.02 99.14L430.17 104.82L425.67 112.44C425.6 112.56 425.55 112.68 425.53 112.81C425.45 113.38 425.83 113.91 426.39 114C428.07 114.27 429.76 114.41 431.46 114.4C431.84 114.1 432.24 113.84 432.66 113.6C432.8 113.55 441.65 110.24 440.91 103.89C440.62 103.28 438.77 98.47 446.05 91.45C446.09 91.41 450.95 87.53 450.18 83.19L449.37 76.37C448.39 79.05 445.6 84.57 438.6 88.19L439.07 96.46L431.02 99.14Z" fill="#002346" fill-opacity="1.000000" fill-rule="nonzero"/>
		<rect id="rect" x="291.984375" y="28.930908" width="47.981441" height="3.369311" fill="#FFFFFF" fill-opacity="1.000000"/>
		<path id="path" d="M340.3 32.64L291.64 32.64L291.64 28.58L340.3 28.58L340.3 32.64ZM292.32 31.95L339.61 31.95L339.61 29.26L292.32 29.26L292.32 31.95Z" fill="#002346" fill-opacity="1.000000" fill-rule="nonzero"/>
		<rect id="rect" x="291.984375" y="53.358398" width="47.981441" height="3.369313" fill="#FFFFFF" fill-opacity="1.000000"/>
		<path id="path" d="M340.3 57.07L291.64 57.07L291.64 53.01L340.3 53.01L340.3 57.07ZM292.32 56.38L339.61 56.38L339.61 53.69L292.32 53.69L292.32 56.38Z" fill="#002346" fill-opacity="1.000000" fill-rule="nonzero"/>
		<rect id="rect" x="291.972656" y="65.144531" width="27.778740" height="3.369313" fill="#FFFFFF" fill-opacity="1.000000"/>
		<path id="path" d="M320.09 68.85L291.63 68.85L291.63 64.79L320.09 64.79L320.09 68.85ZM292.31 68.16L319.4 68.16L319.4 65.48L292.31 65.48L292.31 68.16Z" fill="#002346" fill-opacity="1.000000" fill-rule="nonzero"/>
		<rect id="rect" x="291.972656" y="40.730225" width="23.569836" height="3.369311" fill="#FFFFFF" fill-opacity="1.000000"/>
		<path id="path" d="M315.88 44.44L291.62 44.44L291.62 40.38L315.88 40.38L315.88 44.44ZM292.31 43.75L315.2 43.75L315.2 41.06L292.31 41.06L292.31 43.75Z" fill="#002346" fill-opacity="1.000000" fill-rule="nonzero"/>
		<rect id="rect" x="319.757812" y="40.723633" width="20.202724" height="3.369313" fill="#FFFFFF" fill-opacity="1.000000"/>
		<path id="path" d="M340.3 44.43L319.41 44.43L319.41 40.37L340.3 40.37L340.3 44.43ZM320.1 43.74L339.61 43.74L339.61 41.06L320.1 41.06L320.1 43.74Z" fill="#002346" fill-opacity="1.000000" fill-rule="nonzero"/>
		<rect id="rect" x="145.792969" y="54.943604" width="54.709061" height="4.211639" fill="#FFFFFF" fill-opacity="1.000000"/>
		<path id="path" d="M200.84 59.49L145.44 59.49L145.44 54.59L200.84 54.59L200.84 59.49ZM146.13 58.8L200.16 58.8L200.16 55.28L146.13 55.28L146.13 58.8Z" fill="#002346" fill-opacity="1.000000" fill-rule="nonzero"/>
		<rect id="rect" x="145.792969" y="69.256592" width="54.709061" height="4.211639" fill="#FFFFFF" fill-opacity="1.000000"/>
		<path id="path" d="M200.84 73.81L145.44 73.81L145.44 68.91L200.84 68.91L200.84 73.81ZM146.13 73.12L200.16 73.12L200.16 69.6L146.13 69.6L146.13 73.12Z" fill="#002346" fill-opacity="1.000000" fill-rule="nonzero"/>
		<rect id="rect" x="145.792969" y="83.582764" width="27.778730" height="4.211639" fill="#FFFFFF" fill-opacity="1.000000"/>
		<path id="path" d="M173.91 88.13L145.45 88.13L145.45 83.23L173.91 83.23L173.91 88.13ZM146.14 87.44L173.23 87.44L173.23 83.92L146.14 83.92L146.14 87.44Z" fill="#002346" fill-opacity="1.000000" fill-rule="nonzero"/>
		<rect id="rect" x="178.625000" y="83.582764" width="21.879660" height="4.211639" fill="#FFFFFF" fill-opacity="1.000000"/>
		<path id="path" d="M200.84 88.13L178.27 88.13L178.27 83.23L200.84 83.23L200.84 88.13ZM178.96 87.44L200.15 87.44L200.15 83.92L178.96 83.92L178.96 87.44Z" fill="#002346" fill-opacity="1.000000" fill-rule="nonzero"/>
		<path id="path" d="M123.88 182.12L120.73 195.5C120.59 196.11 120.75 196.74 121.15 197.22C123.36 199.81 129.77 207.39 134.82 205.71C134.82 205.71 140.71 203.79 139.45 195.91C139.22 194.41 139.22 192.89 139.45 191.4L126.41 179.6L123.88 182.12Z" fill="#F7D1D9" fill-opacity="1.000000" fill-rule="nonzero"/>
		<path id="path" d="M133.28 206.29C128.42 206.29 123.08 200.01 120.93 197.48C120.42 196.88 120.24 196.13 120.4 195.42L123.58 181.95L126.4 179.13L139.81 191.26L139.78 191.44C139.56 192.9 139.56 194.38 139.78 195.85C141.08 203.92 134.98 206.01 134.92 206.03C134.39 206.21 133.83 206.29 133.28 206.29ZM124.19 182.29L121.06 195.57C120.94 196.07 121.07 196.6 121.41 196.99C123.53 199.5 129.91 206.98 134.71 205.38C134.94 205.3 140.32 203.43 139.11 195.95C138.89 194.47 138.87 192.98 139.09 191.51L126.42 180.05L124.19 182.29Z" fill="#002346" fill-opacity="1.000000" fill-rule="nonzero"/>
		<ellipse id="ellipse" cx="302.773438" cy="141.696777" rx="4.633097" ry="5.896296" fill="#F7D1D9" fill-opacity="1.000000"/>
		<path id="path" d="M302.77 147.93C300.03 147.93 297.8 145.13 297.8 141.69C297.8 138.26 300.03 135.46 302.77 135.46C305.51 135.46 307.74 138.26 307.74 141.69C307.74 145.13 305.51 147.93 302.77 147.93ZM302.77 136.13C300.41 136.13 298.48 138.62 298.48 141.69C298.48 144.75 300.41 147.24 302.77 147.24C305.14 147.24 307.07 144.75 307.07 141.69C307.07 138.62 305.14 136.13 302.77 136.13Z" fill="#002346" fill-opacity="1.000000" fill-rule="nonzero"/>
		<ellipse id="ellipse" cx="270.792969" cy="140.854492" rx="4.633097" ry="5.896296" fill="#F7D1D9" fill-opacity="1.000000"/>
		<path id="path" d="M270.79 147.08C268.05 147.08 265.82 144.28 265.82 140.85C265.82 137.41 268.05 134.62 270.79 134.62C273.53 134.62 275.76 137.41 275.76 140.85C275.76 144.28 273.53 147.08 270.79 147.08ZM270.79 135.28C268.43 135.28 266.5 137.78 266.5 140.84C266.5 143.91 268.43 146.4 270.79 146.4C273.16 146.4 275.09 143.91 275.09 140.84C275.09 137.78 273.16 135.28 270.79 135.28Z" fill="#002346" fill-opacity="1.000000" fill-rule="nonzero"/>
		<path id="path" d="M333.09 246.26C333.11 246.19 333.18 246.15 333.25 246.17C333.32 246.19 333.36 246.25 333.34 246.33C333.1 251.42 333.6 254.29 334.18 255.82C334.39 256.43 335.06 256.75 335.67 256.53C335.98 256.42 336.23 256.19 336.36 255.88C337.44 253.27 338.59 248.2 339.1 245.78C339.12 245.74 339.18 245.71 339.23 245.73C339.26 245.74 339.29 245.78 339.29 245.82C339.02 250.57 339.54 253.22 340.09 254.66C340.4 255.35 341.21 255.66 341.9 255.35C342.18 255.23 342.42 255 342.56 254.72C343.56 252.53 344.09 248.54 344.31 246.49C344.43 245.42 344.35 244.34 344.07 243.31C342.01 235.93 332.63 235.5 332.63 235.5L330.97 251.33L333.09 246.26Z" fill="#F7D1D9" fill-opacity="1.000000" fill-rule="nonzero"/>
		<path id="path" d="M335.28 256.93C334.66 256.93 334.07 256.55 333.85 255.93C333.36 254.6 332.83 252.07 332.96 247.44L330.39 253.58L332.32 235.14L332.64 235.16C332.74 235.16 342.29 235.68 344.39 243.21C344.68 244.29 344.77 245.4 344.64 246.52C344.41 248.69 343.87 252.65 342.86 254.86C342.69 255.22 342.39 255.51 342.03 255.67C341.61 255.85 341.15 255.86 340.72 255.7C340.3 255.53 339.96 255.21 339.78 254.8C339.34 253.66 338.87 251.67 338.87 248.34C338.3 250.81 337.46 254.07 336.66 256.01C336.5 256.4 336.18 256.71 335.77 256.85C335.6 256.91 335.45 256.93 335.28 256.93ZM333.21 245.82C333.25 245.82 333.28 245.82 333.32 245.84C333.57 245.9 333.72 246.15 333.66 246.4C333.42 251.58 333.98 254.32 334.49 255.7C334.64 256.14 335.12 256.36 335.55 256.21C335.77 256.13 335.94 255.96 336.04 255.75C337.14 253.09 338.31 247.84 338.76 245.71C338.82 245.55 338.91 245.46 339.02 245.42C339.12 245.37 339.24 245.37 339.34 245.42C339.5 245.48 339.61 245.64 339.62 245.81C339.34 250.62 339.89 253.21 340.4 254.54C340.5 254.78 340.71 254.97 340.97 255.07C341.23 255.17 341.51 255.16 341.76 255.05C341.98 254.95 342.16 254.78 342.26 254.57C343.22 252.46 343.75 248.58 343.98 246.45C344.09 245.42 344.02 244.39 343.75 243.39C341.99 237.09 334.57 236.02 332.94 235.85L331.55 249.07L332.77 246.15C332.8 246.04 332.87 245.95 332.97 245.89C333.04 245.84 333.12 245.82 333.21 245.82Z" fill="#002346" fill-opacity="1.000000" fill-rule="nonzero"/>
		<path id="path" d="M241.84 223.19L246.8 268.03L329.39 268.03L333.88 223.12C334.27 219.21 331.2 215.81 327.27 215.81L248.45 215.81C244.5 215.81 241.41 219.25 241.84 223.19Z" fill="#A2A8D5" fill-opacity="1.000000" fill-rule="nonzero"/>
		<path id="path" d="M329.71 268.37L246.49 268.37L246.46 268.07L241.5 223.23C241.28 221.25 241.92 219.27 243.23 217.79C244.56 216.31 246.46 215.47 248.44 215.47L327.26 215.47C329.23 215.47 331.12 216.3 332.44 217.77C333.76 219.23 334.41 221.19 334.21 223.15L329.71 268.37ZM247.1 267.68L329.09 267.68L333.54 223.09C333.72 221.32 333.13 219.54 331.94 218.23C330.75 216.91 329.04 216.16 327.27 216.16L248.44 216.16C246.66 216.16 244.94 216.92 243.75 218.25C242.56 219.58 241.99 221.37 242.18 223.15L247.1 267.68Z" fill="#002346" fill-opacity="1.000000" fill-rule="nonzero"/>
		<rect id="rect" x="246.800781" y="268.032715" width="82.487793" height="3.369303" fill="#FFFFFF" fill-opacity="1.000000"/>
		<path id="path" d="M329.63 271.74L246.46 271.74L246.46 267.68L329.63 267.68L329.63 271.74ZM247.14 271.05L328.94 271.05L328.94 268.37L247.14 268.37L247.14 271.05Z" fill="#002346" fill-opacity="1.000000" fill-rule="nonzero"/>
		<ellipse id="ellipse" cx="287.625000" cy="243.611816" rx="5.295916" ry="5.445281" fill="#FFFFFF" fill-opacity="1.000000"/>
		<path id="path" d="M287.62 249.4C284.51 249.4 281.98 246.8 281.98 243.61C281.98 240.42 284.51 237.82 287.62 237.82C290.73 237.82 293.26 240.42 293.26 243.61C293.26 246.8 290.73 249.4 287.62 249.4ZM287.62 238.5C284.89 238.5 282.66 240.79 282.66 243.61C282.66 246.43 284.88 248.71 287.62 248.71C290.36 248.71 292.58 246.43 292.58 243.61C292.58 240.79 290.36 238.5 287.62 238.5Z" fill="#002346" fill-opacity="1.000000" fill-rule="nonzero"/>
		<path id="polygon" d="M178.93 271.97L178.93 277.06L227.47 277.06L227.47 272.17L178.93 271.97Z" fill="#FFFFFF" fill-opacity="1.000000" fill-rule="nonzero"/>
		<path id="path" d="M227.81 277.4L178.58 277.4L178.58 271.62L227.81 271.82L227.81 277.4ZM179.27 276.71L227.13 276.71L227.13 272.51L179.27 272.31L179.27 276.71Z" fill="#002346" fill-opacity="1.000000" fill-rule="nonzero"/>
		<path id="path" d="M227.32 272.2L179.02 271.97L198.72 258.78L235.43 259.76C235.5 259.76 235.54 259.84 235.5 259.9L227.32 272.2Z" fill="#5E66A7" fill-opacity="1.000000" fill-rule="nonzero"/>
		<path id="path" d="M227.51 272.54L227.32 272.54L178.77 272.31L178.59 271.81L178.81 271.63L198.63 258.43L198.73 258.43L235.44 259.42C235.6 259.42 235.74 259.51 235.81 259.65C235.89 259.79 235.88 259.96 235.79 260.09L227.51 272.54ZM180.05 271.63L227.14 271.85L234.97 260.09L198.84 259.12L180.05 271.63Z" fill="#002346" fill-opacity="1.000000" fill-rule="nonzero"/>
		<path id="path" d="M227.33 272.17L227.45 276.74C227.45 276.84 227.59 276.88 227.64 276.8L235.75 265.47L235.75 259.77L227.33 272.17Z" fill="#5E66A7" fill-opacity="1.000000" fill-rule="nonzero"/>
		<path id="path" d="M227.57 277.19C227.52 277.19 227.48 277.19 227.43 277.17C227.25 277.11 227.12 276.94 227.12 276.75L226.98 272.07L227.04 271.97L235.6 259.37L236.09 259.53L236.09 259.78L236.09 265.58L227.93 277C227.84 277.11 227.71 277.19 227.57 277.19ZM227.68 272.27L227.78 276.03L235.41 265.37L235.41 260.88L227.68 272.27Z" fill="#002346" fill-opacity="1.000000" fill-rule="nonzero"/>
		<path id="path" d="M225.93 264.03L173.27 263.84C173.12 263.84 173.06 263.64 173.19 263.56L193.28 250.64L234.25 251.63C234.29 251.63 234.32 251.68 234.29 251.73L225.93 264.03Z" fill="#A2A8D5" fill-opacity="1.000000" fill-rule="nonzero"/>
		<path id="path" d="M226.11 264.37L173.26 264.18C173.04 264.18 172.85 264.04 172.79 263.83C172.72 263.62 172.81 263.4 172.99 263.28L193.17 250.29L193.28 250.29L234.45 251.29L234.6 251.51C234.66 251.64 234.66 251.8 234.57 251.92L226.11 264.37ZM173.92 263.5L225.75 263.68L233.71 251.96L193.37 250.99L173.92 263.5Z" fill="#002346" fill-opacity="1.000000" fill-rule="nonzero"/>
		<path id="polygon" d="M224.2 255.9L224.2 262.31L171.73 262.31L171.73 255.7L224.2 255.9Z" fill="#FFFFFF" fill-opacity="1.000000" fill-rule="nonzero"/>
		<path id="path" d="M224.54 262.65L171.39 262.65L171.39 255.35L224.54 255.55L224.54 262.65ZM172.07 261.96L223.85 261.96L223.85 256.23L172.07 256.03L172.07 261.96Z" fill="#002346" fill-opacity="1.000000" fill-rule="nonzero"/>
		<path id="path" d="M225.93 264.04L225.93 270.43L234.35 257.34L234.35 251.65L225.93 264.04Z" fill="#A2A8D5" fill-opacity="1.000000" fill-rule="nonzero"/>
		<path id="path" d="M226.1 270.83L225.59 270.69L225.59 270.42L225.59 263.89L225.69 263.78L234.2 251.23L234.69 251.39L234.69 251.65L234.69 257.48L234.62 257.55L226.1 270.83ZM226.28 264.14L226.28 269.28L234.01 257.24L234.01 252.75L226.28 264.14Z" fill="#002346" fill-opacity="1.000000" fill-rule="nonzero"/>
		<path id="polygon" d="M225.93 264.03L225.93 270.44L173.33 270.44L173.33 263.84L225.93 264.03Z" fill="#FFFFFF" fill-opacity="1.000000" fill-rule="nonzero"/>
		<path id="path" d="M226.28 270.79L172.99 270.79L172.99 263.49L226.28 263.68L226.28 270.79ZM173.68 270.1L225.59 270.1L225.59 264.37L173.68 264.17L173.68 270.1Z" fill="#002346" fill-opacity="1.000000" fill-rule="nonzero"/>
		<ellipse id="ellipse" cx="453.023438" cy="69.681152" rx="6.734221" ry="7.163106" fill="#F7D1D9" fill-opacity="1.000000"/>
		<path id="path" d="M453.02 77.18C449.12 77.18 445.95 73.81 445.95 69.68C445.95 65.54 449.12 62.17 453.02 62.17C456.92 62.17 460.09 65.54 460.09 69.68C460.09 73.81 456.91 77.18 453.02 77.18ZM453.02 62.85C449.5 62.85 446.62 65.92 446.62 69.68C446.62 73.44 449.5 76.5 453.02 76.5C456.55 76.5 459.42 73.44 459.42 69.68C459.42 65.92 456.55 62.85 453.02 62.85Z" fill="#002346" fill-opacity="1.000000" fill-rule="nonzero"/>
		<rect id="rect" x="122.898438" y="153.615479" rx="16.467733" width="32.935467" height="39.138405" fill="#F7D1D9" fill-opacity="1.000000"/>
		<path id="path" d="M139.37 193.09C130.1 193.09 122.56 185.55 122.56 176.27L122.56 170.09C122.56 160.81 130.09 153.27 139.37 153.27C148.64 153.27 156.17 160.81 156.17 170.09L156.17 176.27C156.17 185.54 148.64 193.09 139.37 193.09ZM139.37 153.95C130.47 153.95 123.23 161.19 123.23 170.09L123.23 176.27C123.23 185.17 130.47 192.42 139.37 192.42C148.26 192.42 155.5 185.17 155.5 176.27L155.5 170.09C155.5 161.19 148.26 153.95 139.37 153.95Z" fill="#002346" fill-opacity="1.000000" fill-rule="nonzero"/>
		<path id="path" d="M128.12 178.32C128.12 181.35 125.66 183.82 122.63 183.82C119.6 183.82 117.14 181.35 117.14 178.32C117.14 175.29 119.6 172.83 122.63 172.83C123.3 172.83 123.96 172.96 124.59 173.2C126.72 174.01 128.13 176.05 128.12 178.32Z" fill="#F7D1D9" fill-opacity="1.000000" fill-rule="nonzero"/>
		<path id="path" d="M122.62 184.15C119.41 184.15 116.8 181.54 116.8 178.32C116.8 175.11 119.41 172.49 122.62 172.49C123.34 172.49 124.03 172.63 124.7 172.89C126.94 173.73 128.46 175.92 128.44 178.33C128.44 181.55 125.84 184.15 122.62 184.15ZM122.62 173.17C119.78 173.17 117.47 175.48 117.47 178.32C117.47 181.16 119.78 183.48 122.62 183.48C125.46 183.48 127.77 181.16 127.77 178.32C127.78 176.19 126.45 174.26 124.46 173.52C123.87 173.28 123.25 173.17 122.62 173.17Z" fill="#002346" fill-opacity="1.000000" fill-rule="nonzero"/>
		<path id="path" d="M155.83 168.03C153.96 163.96 149.99 161.27 145.53 160.99C143.35 160.85 141.14 160.64 139.67 160.3C139.67 160.3 139.91 161.9 143.28 163.59C143.28 163.59 138.16 165.01 130.2 162.22C130.2 162.22 130.37 169.42 124.61 173.26C123.99 173.01 123.33 172.89 122.66 172.89C119.96 172.89 117.67 174.86 117.25 177.53L117.18 177.57C116.2 176.3 115.33 174.95 114.57 173.54C111.83 168.5 109.18 160.05 118.87 156.06C118.87 156.06 115.51 146.79 127.28 144.27C127.28 144.27 143.28 140.05 142.44 147.63C142.44 147.63 158.43 147.63 151.69 155.18C151.69 155.16 164.07 158.42 155.83 168.03Z" fill="#002346" fill-opacity="1.000000" fill-rule="nonzero"/>
		<path id="path" d="M117.09 178.01L116.91 177.77C115.92 176.49 115.03 175.13 114.26 173.7C112.53 170.53 110.78 165.9 112.22 161.84C113.13 159.26 115.23 157.25 118.44 155.86C118.16 154.9 117.51 151.89 119.1 149.01C120.49 146.49 123.22 144.78 127.2 143.93C127.63 143.81 137.97 141.14 141.57 144.25C142.44 145 142.85 146.02 142.79 147.29C144.58 147.33 152.05 147.68 153.45 150.8C153.98 151.99 153.59 153.4 152.28 155C153.59 155.38 156.18 156.56 157.68 158.39C159.2 160.26 160.16 163.49 156.09 168.24L155.75 168.65L155.51 168.14C153.7 164.2 149.87 161.59 145.5 161.32C143.29 161.19 141.53 160.99 140.24 160.75C140.59 161.32 141.43 162.27 143.42 163.27L144.22 163.67L143.36 163.91C143.14 163.97 138.23 165.28 130.52 162.68C130.43 164.4 129.76 170.21 124.79 173.53L124.64 173.63L124.47 173.56C123.89 173.33 123.28 173.22 122.66 173.22C120.11 173.22 117.97 175.05 117.57 177.57L117.55 177.73L117.09 178.01ZM135.82 143.44C131.84 143.44 127.44 144.58 127.36 144.6C123.57 145.41 120.99 147 119.7 149.34C117.96 152.47 119.18 155.91 119.18 155.94L119.3 156.25L118.99 156.38C115.8 157.69 113.73 159.61 112.86 162.07C111.51 165.89 113.2 170.32 114.86 173.38C115.5 174.57 116.24 175.72 117.04 176.82C117.73 174.31 119.99 172.55 122.65 172.53C123.3 172.53 123.95 172.65 124.57 172.87C129.95 169.16 129.85 162.29 129.85 162.22L129.84 161.72L130.31 161.89C136.14 163.94 140.47 163.69 142.27 163.43C139.59 161.85 139.34 160.41 139.33 160.34L139.25 159.85L139.75 159.96C141.02 160.25 142.97 160.48 145.55 160.64C150 160.91 153.92 163.49 155.92 167.4C158.02 164.81 158.75 162.49 158.09 160.49C156.89 156.91 151.68 155.53 151.63 155.52L151.7 155.19L151.44 154.95C152.82 153.4 153.29 152.1 152.84 151.08C151.46 148.01 142.52 147.97 142.44 147.97L142.05 147.97L142.09 147.58C142.23 146.36 141.91 145.43 141.13 144.76C139.97 143.75 137.96 143.44 135.82 143.44Z" fill="#002346" fill-opacity="1.000000" fill-rule="nonzero"/>
		<path id="path" d="M302.77 136.84L302.77 138.2C302.63 140.17 302.27 142.11 301.7 144L301.7 144.09C300.62 147.58 298.57 150.7 295.79 153.07C295.66 153.18 295.53 153.28 295.41 153.37C292.98 155.32 289.96 156.4 286.85 156.42C284.16 156.42 281.53 155.62 279.3 154.12C277.66 153.03 276.23 151.67 275.06 150.1C273.48 147.81 271.87 144.33 270.94 139.11L270.94 138.44C270.94 138.1 270.91 137.66 270.9 137.14L270.9 136.64C270.9 136.06 270.9 135.48 270.98 134.91C271.09 133.43 271.35 131.97 271.75 130.54C271.75 130.54 276.37 128.12 278.47 123.54C278.47 123.54 283.58 134.97 292.6 135.81C292.6 135.81 290.68 134.97 290.68 131.6C290.68 131.6 294.88 135.8 302.87 135.81C302.8 136.15 302.77 136.5 302.77 136.84Z" fill="#F7D1D9" fill-opacity="1.000000" fill-rule="nonzero"/>
		<path id="path" d="M286.84 156.76C284.08 156.75 281.4 155.94 279.1 154.41C277.44 153.3 275.98 151.92 274.79 150.3C272.82 147.46 271.42 143.72 270.62 139.17L270.62 139.07L270.62 138.44C270.62 138.28 270.61 138.1 270.6 137.9C270.58 137.67 270.57 137.41 270.57 137.14L270.57 136.65C270.57 136.07 270.57 135.46 270.66 134.87C270.77 133.39 271.03 131.9 271.44 130.46L271.48 130.32L271.6 130.25C271.65 130.22 276.14 127.82 278.17 123.41L278.48 122.73L278.79 123.41C278.84 123.51 283.47 133.67 291.48 135.31C290.92 134.64 290.34 133.49 290.34 131.6L290.34 130.79L290.92 131.37C290.96 131.41 295.13 135.47 302.87 135.48L303.27 135.48L303.21 135.88C303.16 136.2 303.12 136.53 303.12 136.86L303.12 138.22C302.98 140.21 302.62 142.17 302.05 144.06L302.03 144.2C300.93 147.76 298.85 150.92 296.01 153.35L295.9 153.44C295.8 153.52 295.71 153.59 295.62 153.66C293.15 155.64 290.02 156.74 286.84 156.76ZM272.04 130.77C271.66 132.13 271.42 133.53 271.32 134.93C271.24 135.5 271.24 136.05 271.24 136.64L271.24 137.13C271.24 137.39 271.25 137.64 271.26 137.86C271.28 138.08 271.28 138.27 271.28 138.44L271.28 139.06C272.07 143.5 273.44 147.15 275.34 149.9C276.48 151.45 277.88 152.78 279.48 153.84C281.67 155.3 284.22 156.08 286.85 156.08C289.87 156.06 292.84 155 295.2 153.11C295.3 153.03 295.38 152.97 295.46 152.9L295.58 152.81C298.3 150.49 300.3 147.46 301.36 144.03L301.38 143.89C301.94 142.04 302.29 140.11 302.44 138.17L302.44 136.84C302.44 136.61 302.45 136.37 302.48 136.13C296.31 136.03 292.47 133.5 291.05 132.37C291.3 134.81 292.68 135.46 292.74 135.49L294.56 136.32L292.57 136.13C284.59 135.38 279.71 126.76 278.47 124.3C276.43 128.16 272.79 130.35 272.04 130.77Z" fill="#002346" fill-opacity="1.000000" fill-rule="nonzero"/>
		<path id="path" d="M258.76 201.33C258.57 201.32 258.41 201.16 258.41 200.97C259.1 188.64 266.65 179.46 266.73 179.37C266.86 179.23 267.07 179.21 267.21 179.33C267.36 179.44 267.38 179.66 267.26 179.81C267.19 179.9 259.77 188.91 259.1 201.01C259.09 201.19 258.94 201.33 258.76 201.33Z" fill="#002346" fill-opacity="1.000000" fill-rule="nonzero"/>
		<path id="path" d="M283.32 203.54C283.16 204.28 282.6 205.48 281.07 207.39C278.51 210.42 275.71 213.24 272.69 215.81L255.16 215.81C255.16 215.81 252.68 203.18 258.59 196.44C259.53 194.89 260.31 193.25 260.93 191.56C261.08 191.04 261.62 190.75 262.13 190.89C262.24 190.93 262.34 190.97 262.43 191.04C262.52 191.1 262.61 191.18 262.69 191.25C263.68 192.17 264.59 194.22 263.64 198.97C263.64 198.97 268.85 192.66 272.53 190.09C272.86 189.85 273.2 189.64 273.56 189.45C274.16 189.13 274.91 189.37 275.22 189.97C275.35 190.21 275.39 190.48 275.35 190.75C275.04 192.34 274.04 195.21 270.93 199.89C271.33 199.34 272.54 197.72 274 195.97C275.97 193.61 278.43 191.04 280.1 190.47C280.65 190.29 281.25 190.58 281.43 191.13C281.45 191.18 281.47 191.24 281.47 191.29C281.51 191.42 281.51 191.56 281.47 191.68C281.22 193.09 279.74 196.15 273.68 202.29C274.54 201.46 279.37 196.89 282.08 196.41C282.54 196.32 282.99 196.62 283.09 197.09C283.11 197.21 283.1 197.34 283.08 197.46C282.82 198.71 281.49 201.31 276.35 206.46C276.94 205.93 280.2 203.06 282.13 202.45C282.63 202.31 283.15 202.59 283.3 203.09C283.34 203.24 283.35 203.39 283.32 203.54Z" fill="#F7D1D9" fill-opacity="1.000000" fill-rule="nonzero"/>
		<path id="path" d="M272.82 216.15L254.88 216.15L254.83 215.88C254.73 215.35 252.39 203 258.34 196.22C259.22 194.74 260 193.11 260.61 191.44C260.8 190.77 261.52 190.37 262.22 190.57C262.37 190.61 262.5 190.67 262.62 190.76C262.71 190.83 262.82 190.91 262.91 191C264.23 192.23 264.66 194.51 264.18 197.8C265.78 195.93 269.47 191.79 272.31 189.8C272.65 189.56 273.01 189.34 273.38 189.14C273.76 188.94 274.18 188.9 274.58 189.04C274.98 189.16 275.31 189.43 275.5 189.8C275.66 190.1 275.71 190.45 275.66 190.79C275.46 191.83 274.97 193.39 273.85 195.59C276.48 192.46 278.54 190.63 279.98 190.14C280.7 189.9 281.49 190.29 281.73 191.01C281.76 191.08 281.77 191.15 281.78 191.22C281.82 191.38 281.82 191.58 281.78 191.75C281.58 192.89 280.65 194.9 277.75 198.34C279.23 197.24 280.8 196.29 282 196.07C282.3 196.01 282.62 196.07 282.89 196.25C283.15 196.43 283.33 196.7 283.4 197.01C283.43 197.19 283.43 197.36 283.38 197.53C283.17 198.54 282.32 200.33 279.68 203.37C280.51 202.81 281.33 202.34 282.01 202.13C282.69 201.93 283.4 202.31 283.6 202.99C283.66 203.19 283.67 203.41 283.63 203.61C283.4 204.63 282.63 205.97 281.31 207.6C278.74 210.64 275.91 213.49 272.88 216.07L272.82 216.15ZM255.44 215.47L272.57 215.47C275.53 212.94 278.3 210.14 280.82 207.17C282.37 205.25 282.86 204.1 283 203.47C283.02 203.37 283.01 203.28 282.98 203.18C282.89 202.86 282.55 202.67 282.24 202.77C280.41 203.34 277.22 206.15 276.6 206.7L276.13 206.21C281.4 200.92 282.54 198.41 282.76 197.38C282.78 197.29 282.78 197.22 282.76 197.15C282.74 197.01 282.66 196.89 282.55 196.82C282.43 196.74 282.29 196.71 282.16 196.74C279.57 197.2 274.85 201.64 273.93 202.53L273.45 202.05C279.66 195.75 280.94 192.82 281.16 191.62C281.18 191.52 281.18 191.44 281.16 191.36C281.14 191.3 281.14 191.27 281.12 191.24C281.06 191.06 280.93 190.91 280.76 190.83C280.59 190.74 280.4 190.73 280.22 190.79C278.9 191.24 276.85 193.1 274.27 196.19C272.63 198.15 271.35 199.9 271.21 200.1L270.65 199.71C273.71 195.12 274.71 192.27 275.02 190.69C275.05 190.51 275.02 190.31 274.93 190.14C274.81 189.92 274.63 189.76 274.4 189.69C274.17 189.62 273.93 189.64 273.72 189.75C273.38 189.94 273.04 190.14 272.73 190.37C269.13 192.88 263.96 199.13 263.91 199.2L263.06 200.23L263.32 198.92C264.23 194.29 263.36 192.34 262.47 191.52C262.4 191.45 262.32 191.38 262.25 191.33C262.19 191.28 262.12 191.26 262.05 191.24C261.71 191.14 261.36 191.33 261.26 191.67C260.63 193.41 259.83 195.07 258.89 196.64C253.6 202.67 255.13 213.61 255.44 215.47Z" fill="#002346" fill-opacity="1.000000" fill-rule="nonzero"/>
		<path id="path" d="M312.73 216.18C312.6 216.18 312.48 216.1 312.42 215.97C311.39 213.59 312.35 210.31 313.34 207.96C314.45 205.33 315.16 202.9 315.53 200.54C317.66 186.67 310.67 181.61 310.6 181.56C310.44 181.45 310.41 181.24 310.51 181.08C310.62 180.93 310.84 180.89 310.99 181C311.29 181.21 318.41 186.32 316.21 200.64C315.84 203.06 315.1 205.54 313.96 208.23C313.19 210.04 312.06 213.42 313.05 215.69C313.12 215.86 313.05 216.07 312.87 216.14C312.82 216.16 312.78 216.18 312.73 216.18Z" fill="#002346" fill-opacity="1.000000" fill-rule="nonzero"/>
		<path id="path" d="M293.93 369.94L283.83 379.21C274.05 386.64 266.56 388.65 261.1 388.39C254.95 388.08 249.66 383.94 247.86 378.04C246.8 374.57 245.8 371 244.83 367.36C235.44 331.93 231.5 291.61 231.5 291.61L278.36 291.61L290.15 350.89L293.93 369.94Z" fill="#A2A8D5" fill-opacity="1.000000" fill-rule="nonzero"/>
		<path id="path" d="M262.02 388.76C261.71 388.76 261.4 388.75 261.09 388.74C254.82 388.41 249.37 384.16 247.54 378.14C246.6 375.09 245.64 371.69 244.5 367.46C235.21 332.4 231.21 292.05 231.16 291.65L231.13 291.28L278.65 291.28L294.31 370.08L284.07 379.47C275.93 385.65 268.52 388.76 262.02 388.76ZM231.89 291.96C232.32 296.14 236.37 334.08 245.16 367.28C246.3 371.51 247.27 374.9 248.19 377.94C249.94 383.68 255.14 387.75 261.12 388.06C267.7 388.36 275.26 385.29 283.63 378.94L293.56 369.82L278.09 291.96L231.89 291.96Z" fill="#002346" fill-opacity="1.000000" fill-rule="nonzero"/>
		<path id="path" d="M224.2 255.9L171.94 255.7C171.87 255.7 171.85 255.62 171.91 255.58L191.21 242.72C191.43 242.58 191.67 242.51 191.93 242.51L232.47 243.49C232.53 243.49 232.57 243.56 232.53 243.62L224.2 255.9Z" fill="#5E66A7" fill-opacity="1.000000" fill-rule="nonzero"/>
		<path id="path" d="M224.39 256.24L171.94 256.04C171.76 256.04 171.6 255.92 171.55 255.74C171.5 255.57 171.57 255.39 171.72 255.29L191.03 242.43C191.3 242.25 191.62 242.17 191.94 242.17L232.48 243.14C232.64 243.14 232.78 243.24 232.85 243.38C232.92 243.51 232.91 243.68 232.82 243.81L224.39 256.24ZM172.87 255.35L224.03 255.55L231.99 243.82L191.93 242.86C191.73 242.86 191.56 242.9 191.41 243.01L172.87 255.35Z" fill="#002346" fill-opacity="1.000000" fill-rule="nonzero"/>
		<path id="path" d="M224.2 255.9L224.2 262.11C224.2 262.17 224.28 262.19 224.31 262.15L232.62 249.21L232.62 243.65C232.62 243.6 232.56 243.58 232.53 243.62L224.2 255.9Z" fill="#5E66A7" fill-opacity="1.000000" fill-rule="nonzero"/>
		<path id="path" d="M224.26 262.51C224.22 262.51 224.18 262.51 224.15 262.49C223.98 262.44 223.86 262.28 223.86 262.1L223.86 255.78L223.92 255.7L232.4 243.21L232.7 243.27C232.86 243.32 232.97 243.47 232.97 243.64L232.97 249.3L232.92 249.38L224.6 262.32C224.53 262.44 224.39 262.51 224.26 262.51ZM224.55 256L224.55 261.14L232.28 249.11L232.28 244.62L224.55 256Z" fill="#002346" fill-opacity="1.000000" fill-rule="nonzero"/>
		<ellipse id="ellipse" cx="287.703125" cy="129.579346" rx="14.065017" ry="8.237569" fill="#002346" fill-opacity="1.000000"/>
		<path id="path" d="M287.7 138.16C279.75 138.16 273.29 134.3 273.29 129.57C273.29 124.85 279.75 120.99 287.7 120.99C295.64 120.99 302.11 124.85 302.11 129.57C302.11 134.3 295.64 138.16 287.7 138.16ZM287.7 121.68C280.13 121.68 273.97 125.22 273.97 129.57C273.97 133.93 280.13 137.47 287.7 137.47C295.27 137.47 301.43 133.93 301.43 129.57C301.43 125.22 295.27 121.68 287.7 121.68Z" fill="#002346" fill-opacity="1.000000" fill-rule="nonzero"/>
		<ellipse id="ellipse" cx="141.546875" cy="162.535889" rx="14.409685" ry="5.146820" fill="#002346" fill-opacity="1.000000"/>
		<path id="path" d="M141.54 168.02C133.27 168.02 126.78 165.61 126.78 162.53C126.78 159.45 133.27 157.04 141.54 157.04C149.81 157.04 156.29 159.45 156.29 162.53C156.29 165.61 149.81 168.02 141.54 168.02ZM141.54 157.72C133.92 157.72 127.47 159.92 127.47 162.53C127.47 165.14 133.92 167.34 141.54 167.34C149.16 167.34 155.6 165.14 155.6 162.53C155.6 159.92 149.16 157.72 141.54 157.72Z" fill="#002346" fill-opacity="1.000000" fill-rule="nonzero"/>
		<path id="path" d="M387.05 259.61L387.05 261.91C387.05 269.77 380.68 276.13 372.83 276.13L368.04 276.13C360.18 276.13 353.82 269.77 353.82 261.91L353.82 259.61C353.82 259.17 354.18 258.82 354.62 258.82L386.25 258.82C386.58 258.82 386.87 259.02 387 259.33C387.03 259.42 387.05 259.51 387.05 259.61Z" fill="#FFFFFF" fill-opacity="1.000000" fill-rule="nonzero"/>
		<path id="path" d="M372.83 276.29L368.04 276.29C360.12 276.29 353.68 269.84 353.68 261.91L353.68 259.62C353.68 259.09 354.1 258.67 354.62 258.67L386.26 258.67C386.65 258.67 387 258.91 387.14 259.27C387.18 259.39 387.2 259.5 387.2 259.61L387.2 261.91C387.2 269.83 380.75 276.29 372.83 276.29ZM354.62 258.96C354.26 258.96 353.97 259.25 353.97 259.61L353.97 261.91C353.97 269.67 360.28 275.99 368.04 275.99L372.83 275.99C380.59 275.99 386.9 269.67 386.9 261.91L386.9 259.61C386.9 259.53 386.89 259.45 386.85 259.37C386.76 259.12 386.52 258.96 386.25 258.95L354.62 258.96Z" fill="#002346" fill-opacity="1.000000" fill-rule="nonzero"/>
		<path id="path" d="M357.38 258.82L357.38 247.01C357.38 246.32 357.7 245.66 358.26 245.25C358.77 244.89 359.41 244.75 360.03 244.85C360.03 244.85 361.49 244.82 362.23 246.95L362.23 229.57C362.23 227.21 364.15 225.29 366.52 225.29C368.88 225.29 370.8 227.21 370.8 229.58L370.8 258.81L357.38 258.82Z" fill="#7CD295" fill-opacity="1.000000" fill-rule="nonzero"/>
		<path id="path" d="M357.23 258.96L357.23 247.01C357.23 246.27 357.58 245.57 358.17 245.14C358.73 244.75 359.39 244.61 360.05 244.71C360.09 244.71 361.28 244.7 362.08 246.24L362.08 229.57C362.09 227.13 364.07 225.14 366.52 225.14C368.96 225.14 370.95 227.13 370.95 229.58L370.95 258.95L357.23 258.96ZM359.64 244.98C359.17 244.98 358.73 245.12 358.34 245.38C357.82 245.76 357.52 246.37 357.53 247.02L357.53 258.68L370.66 258.68L370.66 229.59C370.66 227.3 368.8 225.44 366.52 225.44C364.24 225.44 362.38 227.3 362.38 229.57L362.38 247.83L362.09 247.01C361.4 245.02 360.09 245.01 360.03 245.01C359.9 244.99 359.77 244.98 359.64 244.98Z" fill="#002346" fill-opacity="1.000000" fill-rule="nonzero"/>
		<path id="path" d="M374.93 232.54C377.21 232.54 379.05 234.39 379.05 236.66L379.05 258.78L370.8 258.78L370.8 236.66C370.8 234.38 372.65 232.54 374.93 232.54Z" fill="#7CD295" fill-opacity="1.000000" fill-rule="nonzero"/>
		<path id="path" d="M379.2 258.92L370.66 258.92L370.66 236.66C370.66 234.31 372.57 232.39 374.93 232.39C377.28 232.39 379.19 234.31 379.19 236.66L379.2 258.92ZM370.95 258.63L378.91 258.63L378.91 236.66C378.91 234.47 377.12 232.68 374.93 232.68C372.74 232.68 370.95 234.47 370.95 236.66L370.95 258.63Z" fill="#002346" fill-opacity="1.000000" fill-rule="nonzero"/>
		<path id="path" d="M381.35 242.12C382.61 242.12 383.64 243.14 383.64 244.41L383.64 258.78L379.05 258.78L379.05 244.41C379.05 243.14 380.08 242.12 381.35 242.12Z" fill="#7CD295" fill-opacity="1.000000" fill-rule="nonzero"/>
		<path id="path" d="M383.79 258.92L378.91 258.92L378.91 244.41C378.91 243.76 379.16 243.14 379.62 242.69C380.08 242.23 380.69 241.97 381.34 241.97C382.69 241.97 383.78 243.06 383.78 244.41L383.79 258.92ZM379.2 258.63L383.5 258.63L383.5 244.41C383.5 243.23 382.53 242.26 381.35 242.26C380.78 242.26 380.23 242.49 379.83 242.89C379.43 243.3 379.2 243.84 379.2 244.41L379.2 258.63Z" fill="#002346" fill-opacity="1.000000" fill-rule="nonzero"/>
		<path id="path" d="M386.01 261.42L354.87 261.42C354.79 261.42 354.72 261.36 354.72 261.28C354.72 261.2 354.79 261.13 354.87 261.13L386.01 261.13C386.09 261.13 386.15 261.2 386.15 261.28C386.15 261.36 386.09 261.42 386.01 261.42Z" fill="#002346" fill-opacity="1.000000" fill-rule="nonzero"/>
		<path id="path" d="M386.01 263.47L354.87 263.47C354.79 263.47 354.72 263.41 354.72 263.33C354.72 263.25 354.79 263.18 354.87 263.18L386.01 263.18C386.09 263.18 386.15 263.25 386.15 263.33C386.15 263.41 386.09 263.47 386.01 263.47Z" fill="#002346" fill-opacity="1.000000" fill-rule="nonzero"/>
		<path id="path" d="M366.58 258.98C366.5 258.98 366.43 258.92 366.43 258.84L366.43 230.06C366.43 229.98 366.5 229.92 366.58 229.92C366.66 229.92 366.73 229.98 366.73 230.06L366.73 258.84C366.73 258.92 366.66 258.98 366.58 258.98Z" fill="#002346" fill-opacity="1.000000" fill-rule="nonzero"/>
		<path id="path" d="M375.04 258.76C374.96 258.76 374.89 258.69 374.89 258.61L374.89 236.52C374.89 236.44 374.96 236.38 375.04 236.38C375.12 236.38 375.19 236.44 375.19 236.52L375.19 258.61C375.19 258.69 375.12 258.76 375.04 258.76Z" fill="#002346" fill-opacity="1.000000" fill-rule="nonzero"/>
		<path id="path" d="M381.35 258.78C381.27 258.78 381.2 258.72 381.2 258.64L381.2 245.47C381.2 245.39 381.27 245.33 381.35 245.33C381.43 245.33 381.5 245.39 381.5 245.47L381.5 258.64C381.5 258.72 381.43 258.78 381.35 258.78Z" fill="#002346" fill-opacity="1.000000" fill-rule="nonzero"/>
	</g>
</svg>
