<svg width="460.000000" height="363.000000" viewBox="0 0 460 363" fill="none" xmlns="http://www.w3.org/2000/svg" xmlns:xlink="http://www.w3.org/1999/xlink">
	<desc>
			Created with Pixso.
	</desc>
	<defs>
		<clipPath id="clip306_24290">
			<rect id="Online-communication-skills" width="460.000000" height="363.000000" fill="white" fill-opacity="0"/>
		</clipPath>
	</defs>
	<g clip-path="url(#clip306_24290)">
		<rect id="rect" x="301.890625" y="19.728455" rx="6.140000" width="96.456795" height="80.317085" fill="#5E66A7" fill-opacity="1.000000"/>
		<path id="path" d="M395.08 100.31L305.14 100.31C303.19 100.31 301.6 98.72 301.6 96.77L301.6 22.99C301.6 21.04 303.19 19.45 305.14 19.45L395.08 19.45C397.03 19.45 398.62 21.04 398.62 22.99L398.62 96.78C398.62 98.73 397.03 100.31 395.08 100.31ZM305.15 20C303.5 20 302.16 21.34 302.16 22.99L302.16 96.78C302.16 98.42 303.5 99.76 305.15 99.76L395.09 99.76C396.73 99.76 398.07 98.42 398.07 96.78L398.07 22.99C398.07 21.34 396.73 20 395.09 20L305.15 20Z" fill="#002346" fill-opacity="1.000000" fill-rule="nonzero"/>
		<ellipse id="circle" cx="226.906250" cy="81.124886" rx="9.810874" ry="9.816416" fill="#002346" fill-opacity="1.000000"/>
		<path id="path" d="M216.71 81.12C216.71 75.5 221.28 70.92 226.9 70.92C232.52 70.92 237.1 75.5 237.1 81.12C237.1 86.74 232.52 91.32 226.9 91.32C221.28 91.32 216.71 86.74 216.71 81.12ZM217.46 81.12C217.46 86.33 221.7 90.56 226.9 90.56C232.1 90.56 236.33 86.32 236.33 81.12C236.33 75.91 232.1 71.68 226.9 71.68C221.69 71.68 217.46 75.92 217.46 81.12Z" fill="#0D2445" fill-opacity="1.000000" fill-rule="nonzero"/>
		<ellipse id="circle" cx="363.285156" cy="31.054306" rx="9.810857" ry="9.816416" fill="#002346" fill-opacity="1.000000"/>
		<path id="path" d="M353.09 31.05C353.09 25.43 357.66 20.85 363.28 20.85C368.9 20.85 373.47 25.43 373.47 31.05C373.47 36.67 368.9 41.25 363.28 41.25C357.66 41.25 353.09 36.67 353.09 31.05ZM353.84 31.05C353.84 36.26 358.07 40.49 363.27 40.49C368.48 40.49 372.71 36.25 372.71 31.05C372.71 25.84 368.47 21.61 363.27 21.61C358.07 21.61 353.84 25.85 353.84 31.05Z" fill="#0D2445" fill-opacity="1.000000" fill-rule="nonzero"/>
		<ellipse id="circle" cx="228.820312" cy="89.809273" rx="7.548048" ry="7.552318" fill="#5E66A7" fill-opacity="1.000000"/>
		<path id="path" d="M220.89 89.8C220.89 85.43 224.44 81.87 228.82 81.87C233.19 81.87 236.74 85.43 236.74 89.8C236.74 94.18 233.19 97.73 228.82 97.73C224.44 97.73 220.89 94.18 220.89 89.8ZM221.64 89.8C221.64 93.76 224.86 96.98 228.82 96.98C232.77 96.98 235.99 93.76 235.99 89.8C235.99 85.85 232.77 82.63 228.82 82.63C224.86 82.63 221.64 85.85 221.64 89.8Z" fill="#002346" fill-opacity="1.000000" fill-rule="nonzero"/>
		<ellipse id="circle" cx="360.242188" cy="33.685120" rx="7.548064" ry="7.552315" fill="#A2A8D5" fill-opacity="1.000000"/>
		<path id="path" d="M352.32 33.68C352.32 29.31 355.87 25.75 360.24 25.75C364.61 25.75 368.17 29.31 368.17 33.68C368.17 38.05 364.61 41.61 360.24 41.61C355.87 41.61 352.32 38.05 352.32 33.68ZM353.07 33.68C353.07 37.63 356.29 40.86 360.24 40.86C364.19 40.86 367.41 37.63 367.41 33.68C367.41 29.73 364.19 26.51 360.24 26.51C356.29 26.51 353.07 29.73 353.07 33.68Z" fill="#002346" fill-opacity="1.000000" fill-rule="nonzero"/>
		<rect id="rect" x="61.527344" y="106.120392" rx="6.140000" width="94.438286" height="74.242264" fill="#A2A8D5" fill-opacity="1.000000"/>
		<path id="path" d="M152.69 180.63L64.78 180.63C62.83 180.63 61.25 179.04 61.25 177.09L61.25 109.37C61.25 107.42 62.83 105.83 64.78 105.83L152.7 105.83C154.65 105.83 156.24 107.42 156.24 109.37L156.24 177.09C156.24 179.04 154.64 180.63 152.69 180.63ZM64.78 106.39C63.14 106.39 61.8 107.73 61.8 109.37L61.8 177.09C61.8 178.74 63.14 180.08 64.78 180.08L152.7 180.08C154.35 180.08 155.68 178.74 155.68 177.09L155.68 109.37C155.68 107.73 154.35 106.39 152.7 106.39L64.78 106.39Z" fill="#002346" fill-opacity="1.000000" fill-rule="nonzero"/>
		<path id="path" d="M67.74 180.35L149.87 180.35C149.87 180.35 136.43 155.38 111.47 154.71C111.47 154.71 91.27 150.37 75.73 165.02C71.7 169.3 68.93 174.6 67.74 180.35Z" fill="#5E66A7" fill-opacity="1.000000" fill-rule="nonzero"/>
		<path id="path" d="M150.33 180.63L67.4 180.63L67.47 180.3C68.67 174.5 71.46 169.15 75.52 164.84C91 150.24 111.32 154.4 111.52 154.44C136.3 155.11 149.98 179.98 150.11 180.23L150.33 180.63ZM68.08 180.08L149.4 180.08C147.52 176.86 134.23 155.6 111.46 154.98C111.21 154.93 91.17 150.84 75.91 165.22C72.01 169.37 69.3 174.5 68.08 180.08Z" fill="#002346" fill-opacity="1.000000" fill-rule="nonzero"/>
		<path id="path" d="M166.46 36.6L111.05 36.6C109.41 36.6 108.08 37.94 108.08 39.58L108.08 78.15C108.08 79.8 109.42 81.14 111.07 81.14L133.62 81.14L139.11 93.6L145.28 81.14L166.48 81.14C168.13 81.14 169.47 79.8 169.47 78.15L169.47 39.58C169.47 37.93 168.12 36.59 166.46 36.6Z" fill="#5E66A7" fill-opacity="1.000000" fill-rule="nonzero"/>
		<path id="path" d="M139.09 94.25L133.43 81.42L111.06 81.42C109.26 81.42 107.8 79.95 107.8 78.15L107.8 39.58C107.8 37.79 109.26 36.33 111.05 36.32L166.48 36.32C168.27 36.32 169.73 37.78 169.74 39.58L169.74 78.15C169.74 79.95 168.27 81.41 166.48 81.42L145.45 81.42L139.09 94.25ZM111.05 36.87C109.56 36.87 108.35 38.09 108.35 39.58L108.35 78.14C108.35 79.64 109.57 80.86 111.06 80.86L133.78 80.86L139.12 92.95L145.1 80.86L166.47 80.86C167.96 80.86 169.18 79.64 169.18 78.14L169.18 39.58C169.18 38.86 168.9 38.18 168.39 37.67C167.87 37.16 167.19 36.87 166.47 36.87L111.05 36.87Z" fill="#002346" fill-opacity="1.000000" fill-rule="nonzero"/>
		<path id="path" d="M296.78 33.64L283.23 30.7L283.23 25.2C283.23 20.18 279.17 16.1 274.15 16.09L234.32 16.09C229.3 16.09 225.21 20.16 225.21 25.19L225.21 52.88C225.21 57.9 229.28 61.98 234.31 61.98L274.15 61.98C279.17 61.98 283.25 57.91 283.25 52.88L283.25 39.8L296.78 33.64Z" fill="#A2A8D5" fill-opacity="1.000000" fill-rule="nonzero"/>
		<path id="path" d="M274.15 62.26L234.3 62.26C229.14 62.26 224.93 58.05 224.93 52.88L224.93 25.2C224.93 22.68 225.91 20.32 227.68 18.55C229.45 16.78 231.8 15.81 234.3 15.81L274.14 15.81C279.3 15.82 283.5 20.04 283.5 25.2L283.5 30.48L297.64 33.54L283.52 39.98L283.52 52.88C283.52 55.39 282.55 57.75 280.77 59.52C279 61.29 276.66 62.26 274.15 62.26ZM234.31 16.36C231.96 16.36 229.74 17.28 228.08 18.94C226.41 20.61 225.49 22.83 225.49 25.18L225.49 52.87C225.49 57.74 229.44 61.71 234.32 61.71L274.16 61.71C276.52 61.71 278.73 60.79 280.4 59.12C282.07 57.45 282.99 55.24 282.99 52.88L282.99 39.62L295.92 33.72L282.96 30.92L282.96 25.19C282.96 20.33 279.01 16.37 274.15 16.35L234.31 16.36Z" fill="#002346" fill-opacity="1.000000" fill-rule="nonzero"/>
		<path id="path" d="M328.64 83.84C325.94 84.52 311.13 100.04 311.13 100.04L386.66 100.04C386.66 100.04 388 81.15 379.23 77.77C379.23 77.77 373.18 73.72 373.18 79.79L365.75 87.89L345.18 79.23L328.64 83.84Z" fill="#A2A8D5" fill-opacity="1.000000" fill-rule="nonzero"/>
		<path id="path" d="M386.92 100.31L310.5 100.31L310.94 99.84C311.55 99.21 325.82 84.27 328.58 83.57L345.21 78.94L345.3 78.97L365.69 87.56L372.91 79.68C372.93 78.03 373.4 76.94 374.32 76.45C376.14 75.47 379.03 77.3 379.36 77.51C388.19 80.95 386.99 99.27 386.93 100.05L386.92 100.31ZM311.78 99.76L386.4 99.76C386.52 97.5 387.07 81.07 379.14 78.02C379.11 77.99 376.19 76.08 374.58 76.94C373.83 77.34 373.46 78.29 373.46 79.79L373.46 79.89L365.84 88.22L345.17 79.51L328.71 84.1C326.69 84.61 317.01 94.3 311.78 99.76Z" fill="#002346" fill-opacity="1.000000" fill-rule="nonzero"/>
		<path id="path" d="M278.05 209.38L185.67 209.38L186.89 139.93C186.96 136.14 190.04 133.11 193.83 133.11L268.91 133.11C272.87 133.11 276.11 136.27 276.21 140.24L278.05 209.38Z" fill="#E6E7E8" fill-opacity="1.000000" fill-rule="nonzero"/>
		<path id="path" d="M278.33 209.65L185.39 209.65L185.39 209.37L186.62 139.92C186.69 136.02 189.92 132.83 193.83 132.83L268.91 132.83C273.06 132.83 276.39 136.08 276.49 140.23L278.33 209.65ZM185.94 209.1L277.77 209.1L275.94 140.24C275.85 136.39 272.76 133.39 268.91 133.39L193.83 133.39C190.22 133.39 187.23 136.33 187.17 139.93L185.94 209.1Z" fill="#002346" fill-opacity="1.000000" fill-rule="nonzero"/>
		<rect id="rect" x="145.839844" y="231.655701" width="3.372989" height="105.960930" fill="#E6E7E8" fill-opacity="1.000000"/>
		<path id="path" d="M149.49 337.89L145.57 337.89L145.57 231.37L149.49 231.37L149.49 337.89ZM146.11 337.34L148.93 337.34L148.93 231.92L146.11 231.92L146.11 337.34Z" fill="#002346" fill-opacity="1.000000" fill-rule="nonzero"/>
		<rect id="rect" x="156.640625" y="230.305725" width="3.372989" height="95.836288" fill="#E6E7E8" fill-opacity="1.000000"/>
		<path id="path" d="M160.28 326.41L156.36 326.41L156.36 230.02L160.28 230.02L160.28 326.41ZM156.91 325.86L159.73 325.86L159.73 230.57L156.91 230.57L156.91 325.86Z" fill="#002346" fill-opacity="1.000000" fill-rule="nonzero"/>
		<rect id="rect" x="313.804688" y="230.986023" width="3.372973" height="105.960930" fill="#E6E7E8" fill-opacity="1.000000"/>
		<path id="path" d="M317.45 337.22L313.53 337.22L313.53 230.71L317.45 230.71L317.45 337.22ZM314.08 336.67L316.9 336.67L316.9 231.25L314.08 231.25L314.08 336.67Z" fill="#002346" fill-opacity="1.000000" fill-rule="nonzero"/>
		<rect id="rect" x="303.015625" y="230.986084" width="3.372973" height="95.836273" fill="#E6E7E8" fill-opacity="1.000000"/>
		<path id="path" d="M306.66 327.09L302.73 327.09L302.73 230.71L306.66 230.71L306.66 327.09ZM303.28 326.54L306.1 326.54L306.1 231.25L303.28 231.25L303.28 326.54Z" fill="#002346" fill-opacity="1.000000" fill-rule="nonzero"/>
		<rect id="rect" x="179.566406" y="317.182251" width="86.540550" height="3.203031" transform="rotate(-86.7418 179.566406 317.182251)" fill="#FFFFFF" fill-opacity="1.000000"/>
		<path id="path" d="M183.02 317.66L179.27 317.44L184.22 230.49L187.96 230.71L183.02 317.66ZM179.85 316.92L182.49 317.07L187.38 231.22L184.73 231.07L179.85 316.92Z" fill="#002346" fill-opacity="1.000000" fill-rule="nonzero"/>
		<rect id="rect" x="275.347656" y="230.962585" width="3.203030" height="86.540558" transform="rotate(-3.26184 275.347656 230.962585)" fill="#FFFFFF" fill-opacity="1.000000"/>
		<path id="path" d="M280 317.64L275.05 230.69L278.8 230.48L283.75 317.43L280 317.64ZM275.63 231.22L280.52 317.07L283.16 316.92L278.28 231.07L275.63 231.22Z" fill="#002346" fill-opacity="1.000000" fill-rule="nonzero"/>
		<path id="path" d="M234.29 306.99L245.96 316.08C255.85 324.11 258.51 319.26 258.51 319.26L256.68 307.36C247.46 311.21 234.2 303.19 234.2 303.19L234.29 306.99Z" fill="#F2B3C1" fill-opacity="1.000000" fill-rule="nonzero"/>
		<path id="path" d="M255.39 320.98C253.46 320.98 250.39 320.03 245.78 316.29L234.02 307.13L233.93 302.71L234.34 302.97C234.48 303.04 247.59 310.87 256.57 307.12L256.89 306.98L258.79 319.32L258.75 319.4C258.72 319.45 258.09 320.56 256.38 320.9C256.09 320.96 255.76 320.98 255.39 320.98ZM234.55 306.86L246.12 315.87C251.42 320.17 254.56 320.69 256.26 320.37C257.5 320.13 258.07 319.44 258.23 319.21L256.46 307.74C248.07 310.98 236.82 305.01 234.48 303.67L234.55 306.86Z" fill="#002346" fill-opacity="1.000000" fill-rule="nonzero"/>
		<path id="path" d="M234.01 312.34C239.77 312.51 243.49 323.35 243.49 323.35L253.94 331.72C265.89 342.43 268.37 337.65 268.37 337.65L258.56 319.25C258.56 319.25 255.89 324.1 246.01 316.08L234.34 306.99L234.01 312.34Z" fill="#5E66A7" fill-opacity="1.000000" fill-rule="nonzero"/>
		<path id="path" d="M265.98 338.98C263.84 338.98 260.09 337.6 253.75 331.92L243.25 323.51L243.22 323.43C243.18 323.32 239.5 312.77 233.99 312.61L233.71 312.6L234.08 306.44L246.16 315.85C251.45 320.14 254.58 320.66 256.28 320.34C257.75 320.07 258.28 319.15 258.3 319.11L258.55 318.68L258.78 319.12L268.66 337.64L268.59 337.77C268.57 337.81 268.12 338.66 266.75 338.91C266.51 338.96 266.27 338.98 265.98 338.98ZM243.72 323.18L254.1 331.5C261.1 337.77 264.77 338.7 266.63 338.38C267.48 338.23 267.89 337.83 268.04 337.63L258.51 319.75C258.18 320.13 257.52 320.66 256.41 320.88C254.6 321.24 251.29 320.72 245.82 316.28L234.57 307.52L234.3 312.08C239.82 312.55 243.35 322.14 243.72 323.18Z" fill="#002346" fill-opacity="1.000000" fill-rule="nonzero"/>
		<path id="path" d="M233.86 318.72C233.85 319.68 234.27 320.59 235.01 321.21L250.3 333.96C257.1 340.3 262.6 341.77 262.6 341.77C269.44 342.99 268.33 337.67 268.33 337.67C268.33 337.67 265.85 342.44 253.89 331.73L243.44 323.36C243.44 323.36 239.73 312.51 233.96 312.35L233.86 318.72Z" fill="#FFFFFF" fill-opacity="1.000000" fill-rule="nonzero"/>
		<path id="path" d="M264.47 342.23C263.89 342.23 263.25 342.16 262.55 342.04C262.3 341.98 256.88 340.47 250.11 334.16L234.83 321.42C234.02 320.75 233.57 319.76 233.59 318.72L233.7 312.07L233.97 312.07C239.67 312.23 243.31 322.14 243.68 323.2L254.06 331.52C261.06 337.79 264.74 338.72 266.59 338.4C267.7 338.21 268.06 337.56 268.07 337.54L268.43 336.88L268.59 337.61C268.6 337.69 269.01 339.75 267.69 341.11C266.97 341.85 265.9 342.23 264.47 342.23ZM234.14 318.72C234.13 319.6 234.5 320.43 235.18 321L250.48 333.75C257.16 339.97 262.62 341.49 262.67 341.51C264.85 341.9 266.42 341.64 267.31 340.73C268.03 339.99 268.13 338.96 268.12 338.32C267.83 338.56 267.39 338.82 266.73 338.94C264.76 339.3 260.91 338.38 253.72 331.94L243.21 323.53L243.19 323.45C243.15 323.35 239.59 313.14 234.24 312.65L234.14 318.72Z" fill="#002346" fill-opacity="1.000000" fill-rule="nonzero"/>
		<path id="path" d="M279.33 233.68C279.29 236.53 278.68 242.73 278.3 246.15C278.14 247.69 277.9 249.22 277.58 250.73L268.34 294.42L265.23 309.08C249.04 324.11 229.49 299.14 229.49 299.14L231.22 288.06L231.45 286.69C235.89 260.51 242.4 233.67 242.4 233.67L279.33 233.68Z" fill="#A2A8D5" fill-opacity="1.000000" fill-rule="nonzero"/>
		<path id="path" d="M253.74 314.17C253.3 314.17 252.84 314.16 252.39 314.12C240.25 313.15 229.39 299.45 229.28 299.31L229.21 299.22L231.19 286.64C235.57 260.76 242.08 233.88 242.14 233.61L242.19 233.4L279.62 233.4L279.62 233.68C279.56 236.87 278.81 244.06 278.58 246.18C278.42 247.72 278.18 249.28 277.86 250.8L265.49 309.23L265.43 309.29C261.93 312.54 258 314.17 253.74 314.17ZM229.78 299.06C230.76 300.26 241.05 312.66 252.43 313.57C257.03 313.93 261.26 312.38 264.99 308.94L277.32 250.67C277.64 249.17 277.88 247.64 278.04 246.12C278.26 244.06 278.97 237.24 279.06 233.95L242.63 233.95C242.02 236.52 235.91 262.07 231.73 286.73L231.51 288.1L229.78 299.06Z" fill="#002346" fill-opacity="1.000000" fill-rule="nonzero"/>
		<path id="path" d="M229.48 303.66L221.39 316.04C214.64 326.84 210.54 323.12 210.54 323.12L208.41 311.27C218.38 311.9 228.95 302.52 228.95 302.52L229.48 303.66Z" fill="#F2B3C1" fill-opacity="1.000000" fill-rule="nonzero"/>
		<path id="path" d="M212.49 324.01C211.14 324.01 210.39 323.35 210.36 323.32L210.29 323.26L210.27 323.17L208.09 310.97L208.43 311C218.17 311.62 228.67 302.41 228.77 302.32L229.04 302.08L229.8 303.67L229.71 303.8L221.62 316.18C217.89 322.15 214.93 323.71 213.1 323.96C212.89 324 212.68 324.01 212.49 324.01ZM210.79 322.98C211.01 323.14 211.78 323.61 213.04 323.43C214.75 323.18 217.55 321.68 221.16 315.9L229.17 303.64L228.85 302.97C227.19 304.37 218.16 311.58 209.37 311.58C209.16 311.58 208.95 311.58 208.74 311.57L210.79 322.98Z" fill="#002346" fill-opacity="1.000000" fill-rule="nonzero"/>
		<path id="path" d="M231.51 308.6C226.11 310.63 226.11 322.1 226.11 322.1L218.96 333.4C211.13 347.4 207.23 343.69 207.23 343.69L210.53 323.1C210.53 323.1 214.63 326.82 221.39 316.02L229.48 303.65L231.51 308.6Z" fill="#5E66A7" fill-opacity="1.000000" fill-rule="nonzero"/>
		<path id="path" d="M208.64 344.42C207.6 344.42 207.07 343.93 207.04 343.9L206.94 343.8L206.96 343.66L210.34 322.57L210.71 322.91C210.75 322.93 211.55 323.62 213.03 323.41C214.74 323.16 217.54 321.66 221.15 315.88L229.53 303.06L231.86 308.76L231.59 308.86C226.44 310.79 226.38 321.99 226.38 322.1L226.38 322.18L226.34 322.25L219.19 333.55C214.48 341.95 211.13 344.08 209.15 344.37C208.96 344.4 208.8 344.42 208.64 344.42ZM207.53 343.58C207.75 343.72 208.27 343.97 209.11 343.83C210.97 343.53 214.14 341.46 218.72 333.28L225.84 322.02C225.85 320.92 226.07 310.7 231.15 308.46L229.43 304.24L221.61 316.18C217.89 322.15 214.92 323.7 213.09 323.96C211.97 324.11 211.18 323.82 210.73 323.57L207.53 343.58Z" fill="#002346" fill-opacity="1.000000" fill-rule="nonzero"/>
		<path id="path" d="M233.69 314.59C234.02 315.5 233.92 316.51 233.42 317.34L223.08 334.35C218.68 342.56 213.98 345.73 213.98 345.73C207.93 349.11 207.23 343.71 207.23 343.71C207.23 343.71 211.12 347.42 218.96 333.42L226.11 322.11C226.11 322.11 226.11 310.64 231.5 308.62L233.69 314.59Z" fill="#FFFFFF" fill-opacity="1.000000" fill-rule="nonzero"/>
		<path id="path" d="M210.49 347.11C209.92 347.11 209.41 347 208.94 346.76C207.25 345.91 206.96 343.83 206.95 343.74L206.85 342.97L207.41 343.51C207.41 343.51 207.99 344.02 209.1 343.84C210.96 343.54 214.13 341.47 218.71 333.28L225.82 322.03C225.84 320.91 226.07 310.36 231.4 308.35L231.66 308.26L233.94 314.49C234.31 315.49 234.2 316.58 233.65 317.48L223.31 334.49C218.94 342.65 214.32 345.82 214.12 345.96C212.74 346.73 211.53 347.11 210.49 347.11ZM207.64 344.25C207.84 344.87 208.27 345.81 209.19 346.28C210.32 346.84 211.89 346.58 213.84 345.49C213.86 345.47 218.53 342.26 222.84 334.22L233.18 317.2C233.64 316.44 233.73 315.52 233.43 314.68L231.33 308.98C226.43 311.18 226.37 322 226.37 322.11L226.37 322.19L226.33 322.26L219.18 333.56C214.48 341.96 211.13 344.09 209.14 344.38C208.49 344.48 207.99 344.38 207.64 344.25Z" fill="#002346" fill-opacity="1.000000" fill-rule="nonzero"/>
		<path id="path" d="M140.73 228.66L169.45 199.26L299.64 199.26L321.69 228.68C321.78 228.79 321.69 228.95 321.56 228.95L140.84 228.95C140.69 228.95 140.62 228.77 140.73 228.66Z" fill="#E6E7E8" fill-opacity="1.000000" fill-rule="nonzero"/>
		<path id="path" d="M321.55 229.23L140.84 229.23C140.66 229.23 140.5 229.12 140.43 228.96C140.36 228.79 140.4 228.6 140.52 228.47L169.33 198.98L299.76 198.98L299.85 199.09L321.91 228.52C322 228.65 322.02 228.83 321.95 228.98C321.87 229.14 321.72 229.23 321.55 229.23ZM141.09 228.67L321.34 228.67L299.5 199.53L169.56 199.53L141.09 228.67Z" fill="#002346" fill-opacity="1.000000" fill-rule="nonzero"/>
		<path id="path" d="M248.21 111.45C248.58 115.85 249.39 124.3 250.1 126.3C250.1 126.3 248.74 125.7 246.8 124.97C244.54 124.12 242.18 123.54 239.78 123.26L236.69 122.89C236.8 122.82 236.89 122.74 237 122.65C239.27 120.8 240.91 118.29 241.7 115.48L241.7 115.41C242.11 114.07 242.38 112.7 242.51 111.31C242.51 111.13 242.55 110.95 242.56 110.76L242.56 110.36C242.6 109.41 242.56 108.82 242.56 108.82C236.16 108.82 232.79 105.45 232.79 105.45C232.79 108.14 234.34 108.82 234.34 108.82C227.16 108.14 223.07 98.97 223.07 98.97C221.39 102.63 217.69 104.58 217.69 104.58C217.69 105.76 217.69 107.1 217.02 108.11C216.76 108.51 217.02 109.04 217.02 109.47L217.02 109.87C217.02 110.21 217.02 110.56 217.06 110.92L217.06 111.45C217.81 115.65 219.08 118.11 220.35 119.93C221.25 121.33 222.41 122.54 223.77 123.49C218.9 124.31 214.21 125.96 209.9 128.37C209.9 128.37 212.59 123.65 211.93 110.14C211.93 110.14 211.25 86.53 224.07 87.87C224.07 87.87 234.85 81.13 244.3 90.57C244.3 90.57 252.87 100.96 249.14 107.32C248.41 108.56 248.08 110.01 248.21 111.45Z" fill="#002346" fill-opacity="1.000000" fill-rule="nonzero"/>
		<path id="path" d="M209.18 129.09L209.67 128.24C209.69 128.19 212.31 123.39 211.65 110.16C211.64 109.55 211.3 95.38 217.36 89.77C219.19 88.07 221.42 87.34 224 87.59C225.04 86.99 235.44 81.32 244.49 90.38C244.86 90.83 253.16 101 249.37 107.46C248.67 108.66 248.35 110.03 248.47 111.42C248.79 115.19 249.63 124.16 250.35 126.21L250.56 126.81L249.98 126.55C249.98 126.55 248.6 125.93 246.69 125.22C244.45 124.38 242.12 123.81 239.74 123.53L235.96 123.08L236.52 122.67C236.59 122.61 236.67 122.56 236.74 122.5L236.82 122.43C239.03 120.61 240.63 118.2 241.42 115.43L241.43 115.32C241.83 114.01 242.1 112.65 242.23 111.28C242.23 111.19 242.24 111.07 242.25 110.96C242.27 110.88 242.27 110.81 242.28 110.74L242.28 110.4C242.3 109.8 242.3 109.36 242.29 109.1C237.34 109.03 234.24 107 233.09 106.08C233.29 108.02 234.39 108.55 234.44 108.58L235.93 109.26L234.3 109.1C227.96 108.5 224.06 101.58 223.06 99.6C221.46 102.62 218.64 104.36 217.96 104.75C217.96 105.93 217.93 107.24 217.24 108.27C217.13 108.44 217.18 108.7 217.23 108.98C217.26 109.15 217.28 109.31 217.28 109.47L217.28 109.86C217.28 110.2 217.28 110.55 217.32 110.88L217.32 111.41C218.11 115.82 219.48 118.2 220.57 119.77C221.46 121.16 222.58 122.33 223.92 123.26L224.47 123.65L223.81 123.76C218.96 124.57 214.32 126.21 210.03 128.61L209.18 129.09ZM223.05 88.09C221.01 88.09 219.23 88.79 217.73 90.17C211.86 95.62 212.2 110 212.21 110.14C212.73 120.73 211.22 125.91 210.5 127.73C214.45 125.62 218.69 124.13 223.09 123.33C221.93 122.42 220.93 121.33 220.13 120.08C219 118.46 217.61 116.02 216.79 111.49L216.79 111.41L216.79 110.91C216.75 110.58 216.75 110.21 216.75 109.86L216.75 109.47C216.75 109.36 216.73 109.22 216.7 109.08C216.64 108.74 216.56 108.32 216.8 107.96C217.42 107.02 217.42 105.73 217.42 104.59L217.42 104.42L217.57 104.34C217.61 104.32 221.2 102.39 222.84 98.86L223.09 98.3L223.34 98.86C223.38 98.94 227.08 107.07 233.43 108.41C232.98 107.87 232.53 106.95 232.53 105.45L232.53 104.79L233 105.25C233.03 105.29 236.37 108.54 242.57 108.54L242.82 108.54L242.84 108.79C242.84 108.79 242.9 109.41 242.84 110.37L242.84 110.75C242.84 110.85 242.83 110.94 242.82 111.02C242.81 111.12 242.8 111.21 242.8 111.3C242.66 112.72 242.39 114.1 241.99 115.44L241.98 115.55C241.18 118.35 239.6 120.81 237.38 122.69L239.82 122.99C242.24 123.27 244.62 123.85 246.91 124.71C248.11 125.16 249.11 125.57 249.69 125.82C248.98 122.98 248.24 114.98 247.94 111.47C247.81 109.96 248.15 108.48 248.92 107.18C252.5 101.06 244.19 90.85 244.1 90.75C234.94 81.58 224.34 88.04 224.23 88.11L224.15 88.16L224.06 88.15C223.72 88.11 223.37 88.09 223.05 88.09Z" fill="#002346" fill-opacity="1.000000" fill-rule="nonzero"/>
		<g opacity="0.200000">
			<path id="path" d="M214.63 126.12C214.63 126.12 216.6 121.46 216.28 117.51C216.28 117.51 217.98 117.92 218.66 117.07C218.66 117.07 220.36 121.3 223.78 123.51C223.79 123.51 220.02 123.85 214.63 126.12Z" fill="#000000" fill-opacity="1.000000" fill-rule="nonzero"/>
		</g>
		<rect id="rect" x="216.875000" y="109.495270" width="0.276207" height="0.387977" fill="#FF0000" fill-opacity="1.000000"/>
		<path id="path" d="M216.91 110.94C216.87 110.59 216.87 110.23 216.87 109.88L217.15 109.88C217.15 110.19 217.17 110.47 217.18 110.7L217.19 110.92L216.91 110.94Z" fill="#FF0000" fill-opacity="1.000000" fill-rule="nonzero"/>
		<path id="path" d="M242.69 111.32L242.42 111.29L242.44 111.1C242.45 110.98 242.46 110.86 242.48 110.74L242.75 110.75C242.75 110.93 242.73 111.12 242.69 111.32Z" fill="#FF0000" fill-opacity="1.000000" fill-rule="nonzero"/>
		<path id="path" d="M241.88 115.44L241.62 115.36C242.02 114.03 242.28 112.66 242.42 111.29L242.69 111.31C242.58 112.72 242.3 114.1 241.88 115.44Z" fill="#FF0000" fill-opacity="1.000000" fill-rule="nonzero"/>
		<g opacity="0.200000">
			<path id="path" d="M245.09 117.07C245.09 117.07 244.54 122.26 246.79 124.99C246.79 124.99 243.21 123.5 236.68 122.91C238.54 121.54 240 119.71 240.92 117.6C242.22 118.56 244.05 118.33 245.09 117.07Z" fill="#000000" fill-opacity="1.000000" fill-rule="nonzero"/>
		</g>
		<path id="path" d="M198.45 172.93C198.45 172.93 192.41 144.36 198.45 136.04C198.45 136.04 206.37 127.04 216.6 125.36L218.76 131.79C219.75 134.74 222.53 136.72 225.65 136.68L233.59 136.58C237.54 136.53 240.95 133.82 241.89 129.98L243.4 123.84C243.4 123.84 261.89 127.05 262.56 142.55L262.56 172.92L198.45 172.93Z" fill="#5E66A7" fill-opacity="1.000000" fill-rule="nonzero"/>
		<path id="path" d="M198.23 173.21L198.18 172.99C197.93 171.82 192.18 144.2 198.23 135.87C198.33 135.76 206.35 126.76 216.55 125.08L216.78 125.04L219.02 131.69C219.97 134.54 222.62 136.43 225.64 136.4L233.58 136.3C237.41 136.25 240.71 133.62 241.62 129.9L243.18 123.52L243.44 123.56C243.62 123.59 262.15 126.98 262.83 142.53L262.83 173.19L198.23 173.21ZM216.41 125.66C206.51 127.41 198.73 136.13 198.66 136.22C193.04 143.95 198.14 170 198.67 172.66L262.27 172.64L262.27 142.54C261.66 128.43 245.8 124.61 243.59 124.15L242.15 130.03C241.18 133.99 237.66 136.79 233.58 136.85L225.64 136.95C225.61 136.95 225.58 136.95 225.55 136.95C222.34 136.95 219.51 134.92 218.48 131.87L216.41 125.66Z" fill="#002346" fill-opacity="1.000000" fill-rule="nonzero"/>
		<path id="path" d="M243.38 123.83L241.87 129.98C240.93 133.81 237.53 136.52 233.59 136.57L225.74 136.67C222.56 136.72 219.72 134.7 218.71 131.69L216.59 125.35C218.05 124.81 219.54 124.36 221.06 124C221.9 123.8 222.75 123.65 223.6 123.55L223.8 123.55C225.59 124.74 227.69 125.39 229.85 125.39C232.35 125.38 234.76 124.52 236.71 122.95C237.14 122.82 243.38 123.83 243.38 123.83Z" fill="#F2B3C1" fill-opacity="1.000000" fill-rule="nonzero"/>
		<path id="path" d="M225.64 136.95C222.37 136.95 219.49 134.88 218.45 131.77L216.24 125.19L216.48 125.09C217.95 124.55 219.46 124.1 220.99 123.74C221.83 123.54 222.69 123.39 223.55 123.28L223.87 123.28L223.94 123.33C225.69 124.49 227.73 125.12 229.84 125.12C232.27 125.11 234.64 124.26 236.53 122.74L236.62 122.69C237.06 122.57 241.52 123.26 243.42 123.56L243.71 123.61L242.12 130.05C241.15 134 237.64 136.79 233.57 136.85L225.73 136.95C225.69 136.95 225.67 136.95 225.64 136.95ZM216.92 125.51L218.96 131.6C219.93 134.49 222.6 136.4 225.64 136.4C225.67 136.4 225.7 136.4 225.73 136.4L233.58 136.3C237.39 136.26 240.7 133.63 241.6 129.92L243.05 124.05C240.77 123.69 237.37 123.19 236.81 123.21C234.84 124.78 232.36 125.65 229.84 125.66C227.65 125.66 225.53 125.02 223.71 123.82L223.59 123.82C222.78 123.92 221.94 124.07 221.11 124.27C219.69 124.6 218.28 125.02 216.92 125.51Z" fill="#002346" fill-opacity="1.000000" fill-rule="nonzero"/>
		<rect id="rect" x="140.449219" y="228.955811" width="181.450684" height="4.724855" fill="#FFFFFF" fill-opacity="1.000000"/>
		<path id="path" d="M322.17 233.95L140.17 233.95L140.17 228.67L322.17 228.67L322.17 233.95ZM140.71 233.4L321.62 233.4L321.62 229.22L140.71 229.22L140.71 233.4Z" fill="#002346" fill-opacity="1.000000" fill-rule="nonzero"/>
		<path id="path" d="M264.62 208.36L276.5 208.36C277.9 208.37 279.09 207.33 279.26 205.95C279.72 202.05 278.86 194.94 265.98 195.9L264.62 208.36Z" fill="#5E66A7" fill-opacity="1.000000" fill-rule="nonzero"/>
		<path id="path" d="M276.53 208.64L264.31 208.64L265.73 195.64L265.96 195.63C271.38 195.23 275.25 196.2 277.48 198.53C279.64 200.79 279.78 203.83 279.53 205.98C279.34 207.5 278.05 208.64 276.53 208.64ZM264.93 208.09L276.53 208.09C277.78 208.09 278.84 207.16 278.99 205.91C279.23 203.88 279.09 201.01 277.09 198.91C275.01 196.73 271.36 195.81 266.23 196.16L264.93 208.09Z" fill="#002346" fill-opacity="1.000000" fill-rule="nonzero"/>
		<path id="path" d="M338.76 139.86C338.76 149.18 327.58 156.73 313.8 156.73L312.58 156.73C310.61 159.26 305.95 163.21 296.85 161.59C296.75 161.58 296.74 161.43 296.85 161.41C298.27 161.16 301.86 160.03 302.53 154.93C294.41 152.18 288.84 146.46 288.84 139.88C288.84 130.56 300.02 123.01 313.8 123.01C327.58 123.01 338.76 130.54 338.76 139.86Z" fill="#5E66A7" fill-opacity="1.000000" fill-rule="nonzero"/>
		<path id="path" d="M300.93 162.25C299.66 162.25 298.29 162.13 296.81 161.86C296.63 161.83 296.5 161.68 296.5 161.5C296.5 161.32 296.62 161.17 296.81 161.14C298.21 160.89 301.52 159.82 302.23 155.12C293.8 152.2 288.57 146.37 288.57 139.88C288.57 130.42 299.89 122.74 313.81 122.74C327.73 122.74 339.05 130.42 339.05 139.86C339.05 149.3 327.73 157.01 313.81 157.01L312.73 157.01C311.01 159.15 307.41 162.25 300.93 162.25ZM297.8 161.46C306.18 162.65 310.51 158.94 312.37 156.56L312.46 156.46L313.8 156.46C327.42 156.46 338.49 149.01 338.49 139.86C338.49 130.71 327.41 123.29 313.8 123.29C300.19 123.29 289.12 130.73 289.12 139.88C289.12 146.18 294.3 151.85 302.62 154.67L302.84 154.75L302.81 154.97C302.23 159.36 299.56 160.92 297.8 161.46Z" fill="#002346" fill-opacity="1.000000" fill-rule="nonzero"/>
		<rect id="rect" x="299.636719" y="131.094543" width="28.333096" height="2.699913" fill="#E6E7E8" fill-opacity="1.000000"/>
		<path id="path" d="M328.24 134.07L299.36 134.07L299.36 130.81L328.24 130.81L328.24 134.07ZM299.91 133.51L327.69 133.51L327.69 131.36L299.91 131.36L299.91 133.51Z" fill="#002346" fill-opacity="1.000000" fill-rule="nonzero"/>
		<rect id="rect" x="299.636719" y="138.514008" width="28.333096" height="2.699905" fill="#E6E7E8" fill-opacity="1.000000"/>
		<path id="path" d="M328.24 141.49L299.36 141.49L299.36 138.23L328.24 138.23L328.24 141.49ZM299.91 140.93L327.69 140.93L327.69 138.78L299.91 138.78L299.91 140.93Z" fill="#002346" fill-opacity="1.000000" fill-rule="nonzero"/>
		<rect id="rect" x="299.636719" y="145.938782" width="28.333096" height="2.699905" fill="#E6E7E8" fill-opacity="1.000000"/>
		<path id="path" d="M328.24 148.91L299.36 148.91L299.36 145.66L328.24 145.66L328.24 148.91ZM299.91 148.36L327.69 148.36L327.69 146.21L299.91 146.21L299.91 148.36Z" fill="#002346" fill-opacity="1.000000" fill-rule="nonzero"/>
		<rect id="rect" x="330.000000" y="35.061646" rx="15.396212" width="30.792423" height="36.863369" fill="#F2B3C1" fill-opacity="1.000000"/>
		<path id="path" d="M345.39 72.19C336.76 72.19 329.73 65.16 329.73 56.51L329.73 50.46C329.73 41.82 336.75 34.78 345.39 34.78C354.04 34.78 361.07 41.81 361.07 50.46L361.07 56.51C361.07 65.15 354.04 72.19 345.39 72.19ZM345.39 35.33C337.06 35.33 330.27 42.11 330.27 50.46L330.27 56.52C330.27 64.86 337.05 71.65 345.39 71.65C353.74 71.65 360.52 64.87 360.52 56.52L360.52 50.46C360.52 42.12 353.74 35.33 345.39 35.33Z" fill="#002346" fill-opacity="1.000000" fill-rule="nonzero"/>
		<path id="path" d="M351.17 70.54L351.6 77.1L345.19 79.23L328.69 83.85C328.69 83.85 326.67 80.83 330.04 75.59C330.04 75.59 333 72.77 331.14 65.74C330.91 64.92 330.6 64.11 330.21 63.34C328.41 59.76 327.3 55.87 326.94 51.89C326.44 46.69 327.88 41.48 331 37.28C331 37.28 344.15 20.41 359 30.53C359 30.53 366.03 29.59 370.32 39.06C371.14 40.85 371.69 42.74 371.98 44.68C372.22 46.41 372.27 48.17 372.13 49.92C371.71 54.93 371.33 63.31 373.19 65.63C373.17 65.63 378.56 71.71 379.24 77.78C379.24 77.78 376.84 76.18 375.05 76.5C373.99 76.69 373.17 77.56 373.17 79.8C373.17 79.8 372.5 83.85 369.12 89.26C367.75 90.78 366.82 92.64 366.43 94.66C365.55 92.53 365.31 90.19 365.75 87.93C365.75 87.93 361.04 91.96 361.04 100.06L342.82 100.06C342.82 100.06 342.14 94.01 346.87 91.29C346.87 91.29 354.28 88.59 353.6 83.19C353.6 83.19 351.58 79.34 357.66 73.5C357.66 73.5 361.7 70.32 361.03 66.64L360.25 59.93L360.66 50.75C360.66 50.75 351.59 55.53 342.82 44.72C342.04 47.19 342.29 49.86 343.49 52.14C343.49 52.14 338.78 52.14 336.07 48.09C336.62 50.47 337.53 52.74 338.77 54.84C338.77 54.84 332.57 53.95 330.33 48.6C330.29 48.51 330.17 48.54 330.17 48.63L330.01 56.54C330.01 56.54 329.84 66.93 339.96 70.95C339.96 70.95 347.32 73.3 351.17 70.54Z" fill="#002346" fill-opacity="1.000000" fill-rule="nonzero"/>
		<path id="path" d="M361.31 100.31L342.56 100.31L342.53 100.07C342.53 100 341.89 93.8 346.72 91.03C346.84 90.98 353.93 88.33 353.34 83.25C353.1 82.75 351.6 78.91 357.46 73.28C357.52 73.23 361.39 70.13 360.75 66.66L359.96 59.94L360.35 51.16C358.46 51.92 350.57 54.34 342.93 45.28C342.36 47.52 342.64 49.94 343.73 51.99L343.94 52.4L343.48 52.4C343.3 52.4 339.44 52.36 336.67 49.3C337.21 51.18 338 52.99 339 54.68L339.29 55.18L338.72 55.1C338.66 55.09 332.93 54.21 330.41 49.43L330.27 56.52C330.27 56.62 330.23 66.77 340.05 70.67C340.1 70.69 347.32 72.96 351.01 70.32L351.41 70.03L351.89 77.29L345.28 79.49L328.58 84.15L328.47 83.99C328.39 83.86 326.39 80.76 329.81 75.43C329.84 75.41 332.67 72.57 330.88 65.8C330.66 64.99 330.35 64.2 329.97 63.45C328.15 59.82 327.03 55.94 326.67 51.9C326.16 46.62 327.62 41.37 330.78 37.1C330.92 36.93 344.23 20.2 359.08 30.24C360 30.17 366.55 30.03 370.58 38.93C371.4 40.74 371.96 42.65 372.25 44.62C372.5 46.38 372.55 48.16 372.41 49.92C371.71 58.25 372.06 63.76 373.41 65.44L373.46 65.51C374.73 67.03 378.92 72.39 379.51 77.73L379.57 78.31L379.09 77.98C379.09 77.98 376.75 76.45 375.1 76.75C373.99 76.95 373.44 77.94 373.44 79.78C373.41 79.99 372.72 83.98 369.35 89.37C367.99 90.9 367.08 92.72 366.69 94.68L366.52 95.58L366.17 94.73C365.39 92.81 365.1 90.75 365.34 88.7C364.1 90.08 361.32 93.88 361.32 100.03L361.31 100.31ZM343.07 99.76L360.76 99.76C360.87 91.81 365.51 87.73 365.56 87.69L366.15 87.18L366.01 87.95C365.64 89.87 365.77 91.83 366.36 93.68C366.85 91.97 367.72 90.38 368.91 89.05C372.18 83.8 372.89 79.78 372.89 79.74C372.89 77.67 373.6 76.47 375 76.21C376.38 75.95 378.05 76.76 378.88 77.23C378.09 72.23 374.24 67.3 373.03 65.87C373.02 65.84 372.99 65.81 372.97 65.78C371.14 63.5 371.35 55.87 371.85 49.88C372 48.16 371.94 46.41 371.7 44.7C371.42 42.78 370.87 40.92 370.07 39.16C365.93 30 359.1 30.78 359.03 30.79L358.93 30.8L358.84 30.75C344.38 20.88 331.34 37.27 331.21 37.43C328.14 41.58 326.71 46.7 327.21 51.85C327.57 55.82 328.67 59.64 330.46 63.2C330.86 63.99 331.18 64.81 331.41 65.66C333.22 72.5 330.57 75.44 330.26 75.75C327.5 80.05 328.5 82.82 328.84 83.51L345.12 78.96L351.32 76.89L350.93 71.03C346.94 73.41 340.16 71.28 339.86 71.18C329.66 67.13 329.72 56.61 329.72 56.5L329.88 48.59C329.88 48.42 330 48.27 330.18 48.24C330.34 48.21 330.51 48.3 330.57 48.46C332.33 52.65 336.65 54.05 338.22 54.42C337.12 52.45 336.3 50.33 335.79 48.13L335.45 46.66L336.28 47.91C338.38 51.06 341.78 51.69 343.02 51.81C341.97 49.57 341.79 46.97 342.54 44.61L342.69 44.12L343.02 44.52C351.53 55.02 360.15 50.67 360.51 50.47L360.94 50.25L360.5 59.91L361.29 66.58C361.98 70.36 357.98 73.55 357.81 73.69C352.01 79.28 353.82 83.01 353.84 83.04L353.87 83.13C354.56 88.69 347.26 91.41 346.94 91.53C343 93.8 343.01 98.62 343.07 99.76Z" fill="#002346" fill-opacity="1.000000" fill-rule="nonzero"/>
		<path id="path" d="M357.64 73.47C351.59 79.3 353.6 83.17 353.6 83.17C354.27 88.57 346.85 91.27 346.85 91.27C346.5 91.46 346.18 91.69 345.87 91.94C344.46 91.95 343.06 91.83 341.66 91.61C341.07 91.52 340.66 90.96 340.75 90.36C340.77 90.22 340.82 90.09 340.89 89.96L344.5 83.85L345.17 79.24L351.58 77.1L351.21 70.5C358.91 66.6 360.24 59.89 360.24 59.89L361.03 66.61C361.69 70.29 357.64 73.47 357.64 73.47Z" fill="#F2B3C1" fill-opacity="1.000000" fill-rule="nonzero"/>
		<path id="path" d="M345.71 92.21C344.35 92.21 342.97 92.1 341.62 91.88C340.88 91.77 340.36 91.06 340.48 90.31C340.51 90.14 340.57 89.97 340.66 89.82L344.24 83.76L344.93 79.03L351.3 76.91L350.93 70.34L351.09 70.26C358.58 66.47 359.96 59.9 359.98 59.84L360.32 58.17L361.31 66.58C361.98 70.3 358.12 73.45 357.83 73.67C352.03 79.27 353.82 83 353.85 83.04L353.87 83.13C354.57 88.68 347.27 91.4 346.96 91.52C346.66 91.69 346.34 91.9 346.04 92.14L345.97 92.2L345.87 92.2C345.82 92.2 345.77 92.21 345.71 92.21ZM345.42 79.45L344.73 83.99L341.12 90.1C341.07 90.19 341.03 90.29 341.02 90.4C340.95 90.85 341.26 91.28 341.71 91.35C343.05 91.56 344.41 91.68 345.77 91.67C346.07 91.43 346.39 91.22 346.73 91.03C346.84 90.99 353.94 88.34 353.34 83.25C353.11 82.76 351.62 78.91 357.46 73.28C357.5 73.25 361.39 70.14 360.77 66.66L360.12 61.2C359.33 63.34 357.1 67.76 351.49 70.67L351.86 77.3L345.42 79.45Z" fill="#002346" fill-opacity="1.000000" fill-rule="nonzero"/>
		<rect id="rect" x="233.996094" y="23.183105" width="38.452026" height="2.699911" fill="#FFFFFF" fill-opacity="1.000000"/>
		<path id="path" d="M272.71 26.15L233.71 26.15L233.71 22.9L272.71 22.9L272.71 26.15ZM234.26 25.6L272.16 25.6L272.16 23.45L234.26 23.45L234.26 25.6Z" fill="#002346" fill-opacity="1.000000" fill-rule="nonzero"/>
		<rect id="rect" x="233.996094" y="42.757477" width="38.452026" height="2.699913" fill="#FFFFFF" fill-opacity="1.000000"/>
		<path id="path" d="M272.71 45.73L233.71 45.73L233.71 42.48L272.71 42.48L272.71 45.73ZM234.26 45.18L272.16 45.18L272.16 43.02L234.26 43.02L234.26 45.18Z" fill="#002346" fill-opacity="1.000000" fill-rule="nonzero"/>
		<rect id="rect" x="233.984375" y="52.201874" width="22.261707" height="2.699913" fill="#FFFFFF" fill-opacity="1.000000"/>
		<path id="path" d="M256.52 55.17L233.71 55.17L233.71 51.92L256.52 51.92L256.52 55.17ZM234.26 54.62L255.97 54.62L255.97 52.47L234.26 52.47L234.26 54.62Z" fill="#002346" fill-opacity="1.000000" fill-rule="nonzero"/>
		<rect id="rect" x="233.984375" y="32.638153" width="18.888718" height="2.699911" fill="#FFFFFF" fill-opacity="1.000000"/>
		<path id="path" d="M253.14 35.61L233.7 35.61L233.7 32.36L253.14 32.36L253.14 35.61ZM234.25 35.06L252.6 35.06L252.6 32.9L234.25 32.9L234.25 35.06Z" fill="#002346" fill-opacity="1.000000" fill-rule="nonzero"/>
		<rect id="rect" x="256.250000" y="32.632782" width="16.190336" height="2.699913" fill="#FFFFFF" fill-opacity="1.000000"/>
		<path id="path" d="M272.71 35.6L255.98 35.6L255.98 32.35L272.71 32.35L272.71 35.6ZM256.52 35.05L272.16 35.05L272.16 32.9L256.52 32.9L256.52 35.05Z" fill="#002346" fill-opacity="1.000000" fill-rule="nonzero"/>
		<rect id="rect" x="116.839844" y="44.027710" width="43.843498" height="3.374890" fill="#FFFFFF" fill-opacity="1.000000"/>
		<path id="path" d="M160.95 47.67L116.56 47.67L116.56 43.75L160.95 43.75L160.95 47.67ZM117.11 47.12L160.41 47.12L160.41 44.29L117.11 44.29L117.11 47.12Z" fill="#002346" fill-opacity="1.000000" fill-rule="nonzero"/>
		<rect id="rect" x="116.839844" y="55.497009" width="43.843498" height="3.374890" fill="#FFFFFF" fill-opacity="1.000000"/>
		<path id="path" d="M160.95 59.14L116.56 59.14L116.56 55.22L160.95 55.22L160.95 59.14ZM117.11 58.59L160.41 58.59L160.41 55.77L117.11 55.77L117.11 58.59Z" fill="#002346" fill-opacity="1.000000" fill-rule="nonzero"/>
		<rect id="rect" x="116.839844" y="66.976990" width="22.261700" height="3.374890" fill="#FFFFFF" fill-opacity="1.000000"/>
		<path id="path" d="M139.37 70.62L116.56 70.62L116.56 66.7L139.37 66.7L139.37 70.62ZM117.11 70.07L138.82 70.07L138.82 67.24L117.11 67.24L117.11 70.07Z" fill="#002346" fill-opacity="1.000000" fill-rule="nonzero"/>
		<rect id="rect" x="143.148438" y="66.976959" width="17.534222" height="3.374890" fill="#FFFFFF" fill-opacity="1.000000"/>
		<path id="path" d="M160.95 70.62L142.87 70.62L142.87 66.7L160.95 66.7L160.95 70.62ZM143.41 70.07L160.4 70.07L160.4 67.24L143.41 67.24L143.41 70.07Z" fill="#002346" fill-opacity="1.000000" fill-rule="nonzero"/>
		<path id="path" d="M99.28 145.93L96.75 156.65C96.64 157.14 96.76 157.65 97.09 158.04C98.86 160.11 104 166.18 108.04 164.84C108.04 164.84 112.77 163.3 111.75 156.98C111.57 155.79 111.57 154.57 111.75 153.37L101.31 143.91L99.28 145.93Z" fill="#F2B3C1" fill-opacity="1.000000" fill-rule="nonzero"/>
		<path id="path" d="M106.81 165.3C102.92 165.3 98.64 160.27 96.91 158.24C96.5 157.77 96.35 157.16 96.49 156.59L99.03 145.8L101.3 143.54L112.04 153.26L112.02 153.4C111.84 154.57 111.84 155.76 112.02 156.94C113.06 163.4 108.18 165.08 108.13 165.09C107.7 165.24 107.25 165.3 106.81 165.3ZM99.52 146.07L97.01 156.71C96.92 157.12 97.03 157.54 97.29 157.86C99 159.86 104.1 165.85 107.95 164.57C108.14 164.51 112.44 163.02 111.48 157.02C111.3 155.84 111.29 154.64 111.46 153.46L101.31 144.28L99.52 146.07Z" fill="#002346" fill-opacity="1.000000" fill-rule="nonzero"/>
		<ellipse id="ellipse" cx="242.644531" cy="113.545128" rx="3.712935" ry="4.724846" fill="#F2B3C1" fill-opacity="1.000000"/>
		<path id="path" d="M242.64 118.54C240.44 118.54 238.66 116.29 238.66 113.54C238.66 110.79 240.44 108.54 242.64 108.54C244.84 108.54 246.62 110.79 246.62 113.54C246.62 116.29 244.84 118.54 242.64 118.54ZM242.64 109.08C240.74 109.08 239.2 111.08 239.2 113.54C239.2 115.99 240.74 117.99 242.64 117.99C244.53 117.99 246.08 115.99 246.08 113.54C246.08 111.08 244.53 109.08 242.64 109.08Z" fill="#002346" fill-opacity="1.000000" fill-rule="nonzero"/>
		<ellipse id="ellipse" cx="217.015625" cy="112.870140" rx="3.712935" ry="4.724846" fill="#F2B3C1" fill-opacity="1.000000"/>
		<path id="path" d="M217.01 117.86C214.82 117.86 213.03 115.62 213.03 112.87C213.03 110.11 214.81 107.87 217.01 107.87C219.21 107.87 221 110.11 221 112.87C221 115.62 219.21 117.86 217.01 117.86ZM217.01 108.41C215.11 108.41 213.57 110.4 213.57 112.86C213.57 115.32 215.11 117.31 217.01 117.31C218.91 117.31 220.45 115.32 220.45 112.86C220.45 110.4 218.91 108.41 217.01 108.41Z" fill="#002346" fill-opacity="1.000000" fill-rule="nonzero"/>
		<path id="path" d="M266.93 197.33C266.95 197.28 267 197.24 267.06 197.26C267.12 197.28 267.15 197.33 267.14 197.39C266.94 201.47 267.35 203.77 267.8 205C267.98 205.49 268.51 205.74 269 205.57C269.25 205.48 269.44 205.29 269.55 205.05C270.42 202.95 271.34 198.89 271.75 196.95C271.77 196.91 271.81 196.89 271.85 196.91C271.88 196.92 271.9 196.95 271.9 196.98C271.68 200.79 272.1 202.91 272.54 204.06C272.79 204.61 273.44 204.86 273.99 204.62C274.22 204.52 274.41 204.34 274.52 204.12C275.33 202.36 275.75 199.16 275.93 197.51C276.02 196.66 275.96 195.8 275.73 194.97C274.08 189.05 266.57 188.71 266.57 188.71L265.23 201.39L266.93 197.33Z" fill="#F2B3C1" fill-opacity="1.000000" fill-rule="nonzero"/>
		<path id="path" d="M268.69 205.89C268.19 205.89 267.73 205.58 267.55 205.08C267.15 204.02 266.73 201.99 266.83 198.28L264.77 203.2L266.32 188.43L266.58 188.44C266.65 188.44 274.31 188.86 275.99 194.89C276.23 195.76 276.29 196.65 276.19 197.54C276.01 199.28 275.58 202.46 274.77 204.23C274.62 204.51 274.39 204.74 274.1 204.87C273.76 205.02 273.39 205.03 273.05 204.9C272.71 204.76 272.44 204.51 272.3 204.17C271.94 203.26 271.57 201.67 271.57 199C271.11 200.98 270.44 203.59 269.8 205.15C269.66 205.46 269.41 205.7 269.09 205.82C268.95 205.86 268.83 205.89 268.69 205.89ZM267.03 196.98C267.06 196.98 267.09 196.98 267.12 196.99C267.32 197.04 267.44 197.25 267.4 197.45C267.2 201.6 267.65 203.79 268.05 204.9C268.18 205.25 268.56 205.43 268.91 205.31C269.08 205.24 269.23 205.11 269.3 204.94C270.18 202.8 271.12 198.6 271.48 196.89C271.53 196.76 271.6 196.7 271.68 196.66C271.77 196.62 271.86 196.62 271.95 196.66C272.08 196.71 272.16 196.83 272.17 196.97C271.94 200.83 272.39 202.9 272.79 203.97C272.88 204.16 273.04 204.31 273.25 204.39C273.46 204.47 273.68 204.47 273.88 204.38C274.06 204.3 274.2 204.16 274.28 203.99C275.06 202.3 275.48 199.19 275.66 197.48C275.75 196.66 275.69 195.83 275.48 195.03C274.07 189.98 268.12 189.13 266.81 188.99L265.7 199.58L266.68 197.24C266.71 197.16 266.76 197.08 266.84 197.04C266.9 197 266.96 196.98 267.03 196.98Z" fill="#002346" fill-opacity="1.000000" fill-rule="nonzero"/>
		<path id="path" d="M193.81 178.84L197.78 214.78L263.98 214.78L267.57 178.79C267.89 175.65 265.43 172.93 262.28 172.93L199.11 172.93C195.94 172.93 193.46 175.69 193.81 178.84Z" fill="#A2A8D5" fill-opacity="1.000000" fill-rule="nonzero"/>
		<path id="path" d="M264.23 215.05L197.54 215.05L197.51 214.81L193.54 178.88C193.36 177.29 193.87 175.71 194.93 174.52C195.99 173.34 197.51 172.66 199.1 172.66L262.26 172.66C263.84 172.66 265.36 173.33 266.41 174.5C267.47 175.68 267.99 177.24 267.83 178.82L264.23 215.05ZM198.03 214.5L263.73 214.5L267.3 178.76C267.44 177.34 266.97 175.93 266.01 174.87C265.06 173.82 263.69 173.21 262.27 173.21L199.1 173.21C197.67 173.21 196.3 173.82 195.34 174.89C194.39 175.96 193.93 177.39 194.09 178.82L198.03 214.5Z" fill="#002346" fill-opacity="1.000000" fill-rule="nonzero"/>
		<rect id="rect" x="197.785156" y="214.781189" width="66.105202" height="2.699905" fill="#FFFFFF" fill-opacity="1.000000"/>
		<path id="path" d="M264.16 217.75L197.51 217.75L197.51 214.5L264.16 214.5L264.16 217.75ZM198.05 217.2L263.61 217.2L263.61 215.05L198.05 215.05L198.05 217.2Z" fill="#002346" fill-opacity="1.000000" fill-rule="nonzero"/>
		<ellipse id="ellipse" cx="230.496094" cy="195.212189" rx="4.244114" ry="4.363437" fill="#FFFFFF" fill-opacity="1.000000"/>
		<path id="path" d="M230.5 199.85C228 199.85 225.98 197.76 225.98 195.21C225.98 192.65 228 190.57 230.5 190.57C232.99 190.57 235.02 192.65 235.02 195.21C235.02 197.76 232.99 199.85 230.5 199.85ZM230.5 191.12C228.31 191.12 226.52 192.95 226.52 195.21C226.52 197.47 228.3 199.3 230.5 199.3C232.69 199.3 234.47 197.47 234.47 195.21C234.47 192.95 232.69 191.12 230.5 191.12Z" fill="#002346" fill-opacity="1.000000" fill-rule="nonzero"/>
		<path id="polygon" d="M143.39 217.93L143.39 222.01L182.29 222.01L182.29 218.09L143.39 217.93Z" fill="#FFFFFF" fill-opacity="1.000000" fill-rule="nonzero"/>
		<path id="path" d="M182.57 222.29L143.11 222.29L143.11 217.66L182.57 217.82L182.57 222.29ZM143.66 221.73L182.02 221.73L182.02 218.36L143.66 218.2L143.66 221.73Z" fill="#002346" fill-opacity="1.000000" fill-rule="nonzero"/>
		<path id="path" d="M182.18 218.12L143.46 217.93L159.25 207.37L188.67 208.15C188.73 208.15 188.76 208.22 188.73 208.27L182.18 218.12Z" fill="#5E66A7" fill-opacity="1.000000" fill-rule="nonzero"/>
		<path id="path" d="M182.32 218.4L182.18 218.4L143.26 218.21L143.12 217.81L143.3 217.66L159.18 207.09L159.27 207.09L188.68 207.88C188.81 207.88 188.92 207.95 188.98 208.06C189.04 208.18 189.03 208.31 188.96 208.41L182.32 218.4ZM144.29 217.66L182.03 217.84L188.3 208.41L159.34 207.64L144.29 217.66Z" fill="#002346" fill-opacity="1.000000" fill-rule="nonzero"/>
		<path id="path" d="M182.18 218.09L182.28 221.76C182.28 221.83 182.39 221.87 182.43 221.8L188.93 212.73L188.93 208.16L182.18 218.09Z" fill="#5E66A7" fill-opacity="1.000000" fill-rule="nonzero"/>
		<path id="path" d="M182.37 222.12C182.33 222.12 182.3 222.12 182.26 222.1C182.11 222.06 182.02 221.92 182.01 221.77L181.9 218.01L181.95 217.94L188.81 207.84L189.19 207.96L189.19 208.17L189.19 212.82L182.66 221.96C182.59 222.06 182.48 222.12 182.37 222.12ZM182.46 218.18L182.55 221.19L188.65 212.65L188.65 209.05L182.46 218.18Z" fill="#002346" fill-opacity="1.000000" fill-rule="nonzero"/>
		<path id="path" d="M181.06 211.57L138.85 211.42C138.73 211.42 138.69 211.26 138.79 211.2L154.89 200.84L187.72 201.63C187.76 201.63 187.78 201.68 187.76 201.71L181.06 211.57Z" fill="#A2A8D5" fill-opacity="1.000000" fill-rule="nonzero"/>
		<path id="path" d="M181.2 211.85L138.85 211.69C138.67 211.69 138.52 211.58 138.47 211.41C138.42 211.25 138.49 211.07 138.63 210.97L154.8 200.56L154.89 200.56L187.89 201.36L188 201.54C188.05 201.64 188.05 201.77 187.98 201.87L181.2 211.85ZM139.38 211.15L180.92 211.3L187.3 201.9L154.96 201.12L139.38 211.15Z" fill="#002346" fill-opacity="1.000000" fill-rule="nonzero"/>
		<path id="polygon" d="M179.67 205.06L179.67 210.2L137.62 210.2L137.62 204.9L179.67 205.06Z" fill="#FFFFFF" fill-opacity="1.000000" fill-rule="nonzero"/>
		<path id="path" d="M179.95 210.47L137.35 210.47L137.35 204.61L179.95 204.77L179.95 210.47ZM137.89 209.91L179.39 209.91L179.39 205.32L137.89 205.16L137.89 209.91Z" fill="#002346" fill-opacity="1.000000" fill-rule="nonzero"/>
		<path id="path" d="M181.06 211.58L181.06 216.7L187.81 206.21L187.81 201.65L181.06 211.58Z" fill="#A2A8D5" fill-opacity="1.000000" fill-rule="nonzero"/>
		<path id="path" d="M181.19 217.02L180.79 216.91L180.79 216.7L180.79 211.46L180.87 211.38L187.69 201.32L188.08 201.44L188.08 201.65L188.08 206.32L188.02 206.38L181.19 217.02ZM181.34 211.66L181.34 215.78L187.53 206.13L187.53 202.54L181.34 211.66Z" fill="#002346" fill-opacity="1.000000" fill-rule="nonzero"/>
		<path id="polygon" d="M181.06 211.57L181.06 216.71L138.91 216.71L138.91 211.42L181.06 211.57Z" fill="#FFFFFF" fill-opacity="1.000000" fill-rule="nonzero"/>
		<path id="path" d="M181.34 216.99L138.63 216.99L138.63 211.14L181.34 211.3L181.34 216.99ZM139.18 216.43L180.78 216.43L180.78 211.84L139.18 211.69L139.18 216.43Z" fill="#002346" fill-opacity="1.000000" fill-rule="nonzero"/>
		<ellipse id="ellipse" cx="363.050781" cy="55.837173" rx="5.396763" ry="5.739973" fill="#F2B3C1" fill-opacity="1.000000"/>
		<path id="path" d="M363.05 61.84C359.92 61.84 357.38 59.15 357.38 55.83C357.38 52.52 359.92 49.82 363.05 49.82C366.17 49.82 368.71 52.52 368.71 55.83C368.71 59.15 366.16 61.84 363.05 61.84ZM363.05 50.36C360.22 50.36 357.92 52.82 357.92 55.83C357.92 58.85 360.22 61.3 363.05 61.3C365.87 61.3 368.17 58.85 368.17 55.83C368.17 52.82 365.87 50.36 363.05 50.36Z" fill="#002346" fill-opacity="1.000000" fill-rule="nonzero"/>
		<rect id="rect" x="98.492188" y="123.095825" rx="13.197139" width="26.394278" height="31.362562" fill="#F2B3C1" fill-opacity="1.000000"/>
		<path id="path" d="M111.68 154.72C104.26 154.72 98.21 148.68 98.21 141.25L98.21 136.29C98.21 128.86 104.25 122.81 111.68 122.81C119.12 122.81 125.16 128.86 125.16 136.29L125.16 141.25C125.16 148.68 119.12 154.72 111.68 154.72ZM111.68 123.36C104.56 123.36 98.76 129.17 98.76 136.3L98.76 141.25C98.76 148.38 104.56 154.19 111.68 154.19C118.81 154.19 124.61 148.38 124.61 141.25L124.61 136.3C124.61 129.17 118.81 123.36 111.68 123.36Z" fill="#002346" fill-opacity="1.000000" fill-rule="nonzero"/>
		<path id="path" d="M102.67 142.89C102.67 145.32 100.7 147.29 98.27 147.29C95.84 147.29 93.87 145.32 93.87 142.89C93.87 140.47 95.84 138.49 98.27 138.49C98.81 138.49 99.34 138.59 99.84 138.79C101.55 139.43 102.68 141.07 102.67 142.89Z" fill="#F2B3C1" fill-opacity="1.000000" fill-rule="nonzero"/>
		<path id="path" d="M98.27 147.57C95.69 147.57 93.6 145.47 93.6 142.89C93.6 140.32 95.69 138.22 98.27 138.22C98.84 138.22 99.4 138.33 99.93 138.54C101.73 139.22 102.94 140.97 102.93 142.9C102.93 145.48 100.85 147.57 98.27 147.57ZM98.27 138.76C95.99 138.76 94.14 140.62 94.14 142.89C94.14 145.17 96 147.02 98.27 147.02C100.54 147.02 102.4 145.17 102.4 142.89C102.4 141.19 101.34 139.64 99.74 139.04C99.27 138.85 98.77 138.76 98.27 138.76Z" fill="#002346" fill-opacity="1.000000" fill-rule="nonzero"/>
		<path id="path" d="M124.88 134.64C123.38 131.39 120.19 129.22 116.62 129C114.88 128.89 113.11 128.72 111.93 128.45C111.93 128.45 112.12 129.73 114.82 131.09C114.82 131.09 110.71 132.23 104.34 129.99C104.34 129.99 104.48 135.76 99.86 138.83C99.36 138.64 98.83 138.54 98.3 138.54C96.13 138.54 94.3 140.12 93.96 142.26L93.91 142.29C93.12 141.27 92.42 140.19 91.82 139.06C89.62 135.02 87.5 128.25 95.26 125.05C95.26 125.05 92.56 117.63 102 115.6C102 115.6 114.82 112.22 114.14 118.3C114.14 118.3 126.96 118.3 121.57 124.35C121.56 124.33 131.48 126.94 124.88 134.64Z" fill="#002346" fill-opacity="1.000000" fill-rule="nonzero"/>
		<path id="path" d="M93.83 142.64L93.68 142.45C92.89 141.43 92.18 140.33 91.57 139.19C90.18 136.65 88.78 132.94 89.93 129.69C90.66 127.62 92.34 126 94.92 124.89C94.69 124.12 94.17 121.71 95.44 119.4C96.56 117.39 98.75 116.02 101.94 115.33C102.28 115.24 110.57 113.09 113.45 115.59C114.15 116.19 114.48 117.01 114.43 118.03C115.86 118.06 121.85 118.34 122.97 120.84C123.4 121.79 123.09 122.92 122.04 124.2C123.08 124.51 125.16 125.45 126.36 126.92C127.58 128.42 128.35 131.01 125.09 134.82L124.81 135.14L124.62 134.73C123.17 131.57 120.1 129.48 116.6 129.27C114.83 129.16 113.42 129.01 112.39 128.82C112.67 129.27 113.34 130.03 114.94 130.83L115.57 131.15L114.88 131.35C114.71 131.39 110.77 132.44 104.59 130.36C104.53 131.73 103.99 136.39 100 139.05L99.88 139.13L99.75 139.08C99.28 138.89 98.79 138.8 98.3 138.8C96.25 138.81 94.54 140.27 94.22 142.29L94.2 142.42L93.83 142.64ZM108.84 114.94C105.65 114.94 102.12 115.85 102.07 115.87C99.02 116.52 96.96 117.8 95.92 119.67C94.53 122.18 95.51 124.93 95.51 124.96L95.6 125.21L95.36 125.31C92.8 126.36 91.14 127.9 90.44 129.87C89.36 132.93 90.71 136.48 92.05 138.93C92.56 139.89 93.15 140.81 93.8 141.69C94.34 139.68 96.16 138.27 98.29 138.25C98.81 138.25 99.33 138.34 99.82 138.52C104.14 135.55 104.06 130.05 104.06 129.99L104.05 129.59L104.43 129.72C109.1 131.37 112.57 131.16 114.01 130.96C111.86 129.69 111.66 128.54 111.66 128.49L111.6 128.09L111.99 128.18C113.01 128.41 114.57 128.6 116.64 128.72C120.21 128.94 123.35 131 124.95 134.14C126.63 132.06 127.22 130.2 126.69 128.6C125.73 125.73 121.55 124.63 121.51 124.62L121.57 124.36L121.36 124.16C122.47 122.92 122.85 121.88 122.48 121.06C121.38 118.6 114.21 118.57 114.14 118.57L113.84 118.57L113.87 118.26C113.98 117.28 113.73 116.54 113.1 116C112.17 115.19 110.55 114.94 108.84 114.94Z" fill="#002346" fill-opacity="1.000000" fill-rule="nonzero"/>
		<path id="path" d="M242.64 109.66L242.64 110.75C242.53 112.32 242.23 113.88 241.78 115.39L241.78 115.46C240.91 118.26 239.27 120.76 237.04 122.66C236.93 122.75 236.84 122.83 236.74 122.9C234.79 124.46 232.37 125.32 229.87 125.34C227.72 125.34 225.61 124.7 223.82 123.5C222.51 122.63 221.36 121.54 220.43 120.27C219.16 118.45 217.87 115.65 217.13 111.47L217.13 110.94C217.13 110.67 217.1 110.31 217.09 109.89L217.09 109.5C217.09 109.03 217.09 108.56 217.16 108.1C217.25 106.92 217.45 105.75 217.78 104.61C217.78 104.61 221.48 102.66 223.16 98.99C223.16 98.99 227.25 108.15 234.49 108.83C234.49 108.83 232.94 108.15 232.94 105.45C232.94 105.45 236.31 108.82 242.71 108.83C242.66 109.1 242.64 109.38 242.64 109.66Z" fill="#F2B3C1" fill-opacity="1.000000" fill-rule="nonzero"/>
		<path id="path" d="M229.87 125.62C227.66 125.61 225.51 124.96 223.67 123.73C222.34 122.84 221.17 121.74 220.21 120.44C218.64 118.16 217.51 115.17 216.87 111.52L216.87 111.44L216.87 110.94C216.87 110.81 216.86 110.67 216.85 110.5C216.84 110.32 216.83 110.11 216.83 109.89L216.83 109.5C216.83 109.03 216.83 108.54 216.9 108.07C216.99 106.89 217.2 105.7 217.53 104.54L217.56 104.43L217.66 104.37C217.7 104.35 221.29 102.42 222.93 98.89L223.18 98.35L223.42 98.89C223.46 98.97 227.17 107.12 233.59 108.42C233.14 107.89 232.68 106.97 232.68 105.46L232.68 104.8L233.14 105.27C233.17 105.3 236.51 108.56 242.71 108.56L243.04 108.56L242.99 108.88C242.94 109.14 242.92 109.4 242.92 109.67L242.92 110.76C242.8 112.36 242.52 113.92 242.06 115.44L242.05 115.55C241.16 118.4 239.5 120.94 237.22 122.88L237.13 122.95C237.05 123.02 236.98 123.08 236.91 123.13C234.93 124.72 232.42 125.6 229.87 125.62ZM218.01 104.79C217.71 105.88 217.51 107 217.43 108.12C217.37 108.58 217.37 109.02 217.37 109.5L217.37 109.88C217.37 110.09 217.38 110.29 217.39 110.47C217.4 110.64 217.41 110.8 217.41 110.93L217.41 111.43C218.03 114.99 219.13 117.91 220.66 120.12C221.57 121.36 222.69 122.42 223.98 123.27C225.73 124.45 227.77 125.07 229.88 125.07C232.3 125.05 234.68 124.21 236.57 122.69C236.65 122.63 236.71 122.58 236.78 122.52L236.87 122.45C239.05 120.59 240.66 118.16 241.51 115.42L241.52 115.31C241.97 113.82 242.25 112.27 242.37 110.72L242.37 109.65C242.37 109.46 242.38 109.27 242.4 109.09C237.46 109 234.38 106.98 233.25 106.07C233.44 108.02 234.55 108.55 234.6 108.57L236.06 109.24L234.47 109.09C228.07 108.49 224.16 101.57 223.16 99.6C221.53 102.69 218.61 104.45 218.01 104.79Z" fill="#002346" fill-opacity="1.000000" fill-rule="nonzero"/>
		<path id="path" d="M207.37 161.33C207.21 161.32 207.09 161.19 207.09 161.04C207.64 151.16 213.69 143.81 213.76 143.73C213.86 143.62 214.03 143.6 214.15 143.7C214.27 143.79 214.28 143.97 214.18 144.08C214.12 144.16 208.18 151.38 207.64 161.07C207.64 161.22 207.52 161.33 207.37 161.33Z" fill="#002346" fill-opacity="1.000000" fill-rule="nonzero"/>
		<path id="path" d="M227.05 163.1C226.92 163.7 226.47 164.66 225.25 166.18C223.19 168.61 220.95 170.87 218.53 172.93L204.48 172.93C204.48 172.93 202.5 162.81 207.23 157.41C207.98 156.17 208.61 154.86 209.11 153.5C209.23 153.09 209.66 152.85 210.07 152.97C210.16 152.99 210.23 153.03 210.31 153.08C210.39 153.14 210.45 153.19 210.52 153.25C211.31 153.99 212.03 155.63 211.28 159.44C211.28 159.44 215.46 154.38 218.4 152.32C218.67 152.13 218.94 151.96 219.23 151.81C219.71 151.55 220.31 151.74 220.56 152.23C220.66 152.42 220.69 152.64 220.66 152.85C220.41 154.12 219.62 156.42 217.12 160.18C217.44 159.73 218.41 158.43 219.59 157.03C221.16 155.14 223.13 153.09 224.47 152.63C224.91 152.48 225.39 152.72 225.54 153.16C225.55 153.2 225.57 153.24 225.57 153.28C225.6 153.39 225.6 153.5 225.57 153.6C225.37 154.73 224.18 157.17 219.32 162.1C220.02 161.43 223.89 157.78 226.05 157.39C226.43 157.31 226.79 157.55 226.86 157.93C226.88 158.03 226.88 158.13 226.85 158.23C226.65 159.23 225.58 161.32 221.47 165.44C221.94 165.01 224.55 162.72 226.1 162.23C226.5 162.11 226.91 162.34 227.03 162.74C227.07 162.86 227.08 162.98 227.05 163.1Z" fill="#F2B3C1" fill-opacity="1.000000" fill-rule="nonzero"/>
		<path id="path" d="M218.64 173.2L204.26 173.2L204.22 172.99C204.14 172.57 202.27 162.67 207.03 157.23C207.73 156.05 208.36 154.75 208.85 153.4C209 152.86 209.58 152.55 210.14 152.71C210.26 152.74 210.36 152.79 210.46 152.86C210.54 152.92 210.62 152.98 210.69 153.05C211.76 154.03 212.1 155.86 211.71 158.5C213 157 215.95 153.69 218.23 152.09C218.5 151.9 218.79 151.72 219.09 151.56C219.39 151.4 219.73 151.37 220.05 151.48C220.37 151.58 220.63 151.8 220.78 152.09C220.91 152.33 220.96 152.61 220.91 152.89C220.75 153.72 220.36 154.97 219.46 156.73C221.57 154.22 223.22 152.75 224.37 152.37C224.95 152.17 225.58 152.48 225.78 153.06C225.8 153.11 225.81 153.17 225.82 153.23C225.85 153.36 225.85 153.51 225.82 153.66C225.66 154.57 224.91 156.18 222.59 158.93C223.78 158.05 225.03 157.29 225.99 157.12C226.23 157.07 226.49 157.12 226.7 157.26C226.91 157.4 227.06 157.62 227.11 157.87C227.14 158.01 227.14 158.15 227.1 158.28C226.93 159.09 226.25 160.53 224.14 162.96C224.8 162.52 225.46 162.14 226 161.97C226.55 161.81 227.12 162.12 227.28 162.66C227.32 162.82 227.33 162.99 227.3 163.16C227.12 163.97 226.5 165.05 225.44 166.35C223.38 168.79 221.11 171.07 218.69 173.14L218.64 173.2ZM204.71 172.66L218.44 172.66C220.81 170.63 223.03 168.39 225.05 166.01C226.29 164.47 226.68 163.55 226.79 163.04C226.81 162.97 226.8 162.89 226.78 162.81C226.71 162.55 226.44 162.4 226.18 162.48C224.72 162.94 222.16 165.19 221.66 165.64L221.29 165.24C225.52 161 226.43 158.99 226.6 158.16C226.62 158.09 226.62 158.04 226.61 157.98C226.59 157.87 226.52 157.78 226.43 157.71C226.34 157.65 226.23 157.63 226.12 157.65C224.04 158.02 220.26 161.58 219.52 162.29L219.14 161.91C224.12 156.86 225.15 154.51 225.32 153.55C225.33 153.47 225.33 153.4 225.32 153.34C225.3 153.3 225.3 153.27 225.29 153.24C225.24 153.1 225.14 152.98 225 152.91C224.87 152.84 224.71 152.83 224.57 152.89C223.51 153.24 221.86 154.74 219.8 157.21C218.48 158.78 217.46 160.18 217.34 160.34L216.9 160.03C219.35 156.35 220.15 154.07 220.4 152.81C220.43 152.66 220.4 152.5 220.32 152.36C220.23 152.19 220.09 152.06 219.91 152C219.72 151.95 219.53 151.96 219.35 152.05C219.09 152.2 218.82 152.37 218.56 152.55C215.68 154.56 211.54 159.57 211.5 159.62L210.82 160.45L211.02 159.4C211.76 155.69 211.05 154.12 210.34 153.47C210.28 153.41 210.23 153.36 210.16 153.32C210.11 153.28 210.06 153.26 210 153.24C209.74 153.16 209.46 153.32 209.37 153.59C208.87 154.98 208.23 156.31 207.48 157.57C203.23 162.4 204.46 171.17 204.71 172.66Z" fill="#002346" fill-opacity="1.000000" fill-rule="nonzero"/>
		<path id="path" d="M250.62 173.23C250.52 173.23 250.42 173.16 250.37 173.06C249.55 171.15 250.32 168.52 251.11 166.65C252 164.54 252.57 162.59 252.87 160.69C254.57 149.58 248.97 145.52 248.91 145.49C248.79 145.4 248.76 145.23 248.84 145.11C248.93 144.98 249.1 144.95 249.23 145.04C249.47 145.21 255.17 149.3 253.41 160.78C253.11 162.72 252.52 164.71 251.61 166.86C251 168.31 250.09 171.02 250.88 172.84C250.94 172.98 250.88 173.14 250.73 173.2C250.7 173.22 250.66 173.23 250.62 173.23Z" fill="#002346" fill-opacity="1.000000" fill-rule="nonzero"/>
		<path id="path" d="M235.56 296.44L227.46 303.87C219.62 309.82 213.62 311.43 209.25 311.23C204.32 310.97 200.08 307.66 198.64 302.93C197.78 300.15 196.98 297.29 196.2 294.38C188.68 265.98 185.53 233.68 185.53 233.68L223.08 233.68L232.53 281.18L235.56 296.44Z" fill="#A2A8D5" fill-opacity="1.000000" fill-rule="nonzero"/>
		<path id="path" d="M209.98 311.52C209.73 311.52 209.48 311.52 209.24 311.51C204.21 311.25 199.84 307.83 198.38 303.01C197.63 300.57 196.86 297.85 195.94 294.45C188.5 266.36 185.29 234.03 185.26 233.71L185.23 233.41L223.31 233.41L235.86 296.55L227.66 304.07C221.13 309.03 215.19 311.52 209.98 311.52ZM185.84 233.95C186.18 237.31 189.43 267.71 196.48 294.31C197.38 297.7 198.16 300.41 198.9 302.85C200.3 307.45 204.47 310.71 209.27 310.96C214.53 311.2 220.59 308.74 227.3 303.65L235.26 296.35L222.86 233.95L185.84 233.95Z" fill="#002346" fill-opacity="1.000000" fill-rule="nonzero"/>
		<path id="path" d="M179.67 205.06L137.79 204.9C137.73 204.9 137.72 204.83 137.76 204.8L153.23 194.5C153.41 194.38 153.6 194.33 153.81 194.33L186.3 195.11C186.35 195.11 186.38 195.17 186.35 195.22L179.67 205.06Z" fill="#5E66A7" fill-opacity="1.000000" fill-rule="nonzero"/>
		<path id="path" d="M179.82 205.33L137.79 205.17C137.64 205.17 137.52 205.07 137.48 204.93C137.44 204.8 137.49 204.65 137.61 204.57L153.09 194.27C153.3 194.12 153.56 194.05 153.82 194.05L186.3 194.84C186.43 194.84 186.54 194.91 186.6 195.02C186.66 195.13 186.65 195.27 186.58 195.37L179.82 205.33ZM138.53 204.62L179.53 204.77L185.91 195.38L153.81 194.61C153.65 194.61 153.52 194.64 153.39 194.73L138.53 204.62Z" fill="#002346" fill-opacity="1.000000" fill-rule="nonzero"/>
		<path id="path" d="M179.67 205.06L179.67 210.04C179.67 210.08 179.73 210.1 179.76 210.06L186.42 199.69L186.42 195.24C186.42 195.2 186.37 195.19 186.35 195.22L179.67 205.06Z" fill="#5E66A7" fill-opacity="1.000000" fill-rule="nonzero"/>
		<path id="path" d="M179.72 210.35C179.69 210.35 179.66 210.35 179.63 210.34C179.49 210.3 179.4 210.17 179.4 210.03L179.4 204.97L179.45 204.9L186.24 194.89L186.48 194.94C186.62 194.98 186.7 195.1 186.7 195.23L186.7 199.77L186.66 199.84L180 210.21C179.93 210.3 179.83 210.35 179.72 210.35ZM179.95 205.14L179.95 209.26L186.15 199.61L186.15 196.02L179.95 205.14Z" fill="#002346" fill-opacity="1.000000" fill-rule="nonzero"/>
		<ellipse id="ellipse" cx="230.566406" cy="103.835007" rx="11.271616" ry="6.600966" fill="#002346" fill-opacity="1.000000"/>
		<path id="path" d="M230.56 110.71C224.19 110.71 219.01 107.62 219.01 103.83C219.01 100.04 224.19 96.95 230.56 96.95C236.93 96.95 242.1 100.04 242.1 103.83C242.1 107.62 236.93 110.71 230.56 110.71ZM230.56 97.5C224.49 97.5 219.56 100.34 219.56 103.83C219.56 107.32 224.49 110.16 230.56 110.16C236.62 110.16 241.56 107.32 241.56 103.83C241.56 100.34 236.62 97.5 230.56 97.5Z" fill="#002346" fill-opacity="1.000000" fill-rule="nonzero"/>
		<ellipse id="ellipse" cx="113.433594" cy="130.244141" rx="11.547832" ry="4.124273" fill="#002346" fill-opacity="1.000000"/>
		<path id="path" d="M113.43 134.64C106.8 134.64 101.6 132.71 101.6 130.24C101.6 127.77 106.8 125.84 113.43 125.84C120.06 125.84 125.25 127.77 125.25 130.24C125.25 132.71 120.06 134.64 113.43 134.64ZM113.43 126.39C107.32 126.39 102.16 128.15 102.16 130.24C102.16 132.33 107.32 134.09 113.43 134.09C119.54 134.09 124.7 132.33 124.7 130.24C124.7 128.15 119.54 126.39 113.43 126.39Z" fill="#002346" fill-opacity="1.000000" fill-rule="nonzero"/>
		<path id="path" d="M310.18 208.03L310.18 209.87C310.18 216.17 305.08 221.27 298.78 221.27L294.94 221.27C288.65 221.27 283.55 216.17 283.55 209.87L283.55 208.03C283.55 207.68 283.84 207.39 284.19 207.39L309.54 207.39C309.81 207.39 310.04 207.56 310.14 207.8C310.16 207.88 310.18 207.95 310.18 208.03Z" fill="#FFFFFF" fill-opacity="1.000000" fill-rule="nonzero"/>
		<path id="path" d="M298.78 221.39L294.94 221.39C288.6 221.39 283.43 216.23 283.43 209.88L283.43 208.04C283.43 207.62 283.77 207.28 284.19 207.28L309.55 207.28C309.86 207.28 310.14 207.47 310.25 207.76C310.28 207.85 310.3 207.94 310.3 208.03L310.3 209.87C310.3 216.22 305.13 221.39 298.78 221.39ZM284.19 207.51C283.9 207.51 283.67 207.75 283.67 208.03L283.67 209.87C283.67 216.09 288.72 221.15 294.94 221.15L298.78 221.15C305 221.15 310.06 216.09 310.06 209.87L310.06 208.03C310.06 207.97 310.05 207.9 310.02 207.84C309.94 207.64 309.75 207.51 309.53 207.51L284.19 207.51Z" fill="#002346" fill-opacity="1.000000" fill-rule="nonzero"/>
		<path id="path" d="M286.4 207.39L286.4 197.93C286.4 197.38 286.66 196.86 287.1 196.53C287.52 196.24 288.03 196.13 288.52 196.21C288.52 196.21 289.69 196.18 290.28 197.89L290.28 183.96C290.29 182.06 291.82 180.53 293.72 180.53C295.62 180.53 297.16 182.07 297.16 183.97L297.16 207.39L286.4 207.39Z" fill="#7CD295" fill-opacity="1.000000" fill-rule="nonzero"/>
		<path id="path" d="M286.28 207.51L286.28 197.93C286.28 197.34 286.56 196.78 287.03 196.44C287.48 196.13 288.01 196.01 288.54 196.1C288.57 196.1 289.52 196.08 290.17 197.32L290.17 183.96C290.17 182.01 291.76 180.41 293.72 180.41C295.68 180.41 297.27 182.01 297.27 183.97L297.27 207.51L286.28 207.51ZM288.21 196.31C287.84 196.31 287.48 196.42 287.17 196.63C286.76 196.93 286.51 197.42 286.52 197.94L286.52 207.28L297.04 207.28L297.04 183.97C297.04 182.14 295.55 180.65 293.72 180.65C291.9 180.65 290.41 182.14 290.41 183.96L290.41 198.59L290.18 197.93C289.62 196.34 288.57 196.33 288.53 196.33C288.42 196.32 288.31 196.31 288.21 196.31Z" fill="#002346" fill-opacity="1.000000" fill-rule="nonzero"/>
		<path id="path" d="M300.46 186.34C302.29 186.34 303.76 187.82 303.76 189.64L303.76 207.36L297.15 207.36L297.15 189.64C297.15 187.81 298.64 186.34 300.46 186.34Z" fill="#7CD295" fill-opacity="1.000000" fill-rule="nonzero"/>
		<path id="path" d="M303.89 207.48L297.04 207.48L297.04 189.64C297.04 187.76 298.58 186.22 300.46 186.22C302.35 186.22 303.88 187.76 303.88 189.64L303.89 207.48ZM297.28 207.25L303.66 207.25L303.66 189.64C303.66 187.88 302.23 186.45 300.47 186.45C298.71 186.45 297.28 187.88 297.28 189.64L297.28 207.25Z" fill="#002346" fill-opacity="1.000000" fill-rule="nonzero"/>
		<path id="path" d="M305.61 194.01C306.62 194.01 307.45 194.84 307.45 195.85L307.45 207.36L303.77 207.36L303.77 195.85C303.77 194.84 304.6 194.01 305.61 194.01Z" fill="#7CD295" fill-opacity="1.000000" fill-rule="nonzero"/>
		<path id="path" d="M307.57 207.48L303.66 207.48L303.66 195.85C303.66 195.33 303.86 194.84 304.23 194.47C304.59 194.1 305.09 193.89 305.6 193.89C306.68 193.89 307.56 194.77 307.56 195.85L307.57 207.48ZM303.89 207.25L307.33 207.25L307.33 195.85C307.33 194.9 306.56 194.13 305.61 194.13C305.15 194.13 304.72 194.31 304.39 194.63C304.07 194.96 303.89 195.39 303.89 195.85L303.89 207.25Z" fill="#002346" fill-opacity="1.000000" fill-rule="nonzero"/>
		<path id="path" d="M309.34 209.48L284.39 209.48C284.33 209.48 284.27 209.43 284.27 209.37C284.27 209.3 284.33 209.25 284.39 209.25L309.34 209.25C309.41 209.25 309.46 209.3 309.46 209.37C309.46 209.43 309.41 209.48 309.34 209.48Z" fill="#002346" fill-opacity="1.000000" fill-rule="nonzero"/>
		<path id="path" d="M309.34 211.13L284.39 211.13C284.33 211.13 284.27 211.07 284.27 211.01C284.27 210.94 284.33 210.89 284.39 210.89L309.34 210.89C309.41 210.89 309.46 210.94 309.46 211.01C309.46 211.07 309.41 211.13 309.34 211.13Z" fill="#002346" fill-opacity="1.000000" fill-rule="nonzero"/>
		<path id="path" d="M293.78 207.53C293.71 207.53 293.66 207.47 293.66 207.41L293.66 184.35C293.66 184.29 293.71 184.24 293.78 184.24C293.84 184.24 293.89 184.29 293.89 184.35L293.89 207.41C293.89 207.47 293.84 207.53 293.78 207.53Z" fill="#002346" fill-opacity="1.000000" fill-rule="nonzero"/>
		<path id="path" d="M300.55 207.35C300.49 207.35 300.44 207.29 300.44 207.23L300.44 189.53C300.44 189.47 300.49 189.41 300.55 189.41C300.62 189.41 300.67 189.47 300.67 189.53L300.67 207.23C300.67 207.29 300.62 207.35 300.55 207.35Z" fill="#002346" fill-opacity="1.000000" fill-rule="nonzero"/>
		<path id="path" d="M305.61 207.37C305.55 207.37 305.49 207.31 305.49 207.25L305.49 196.7C305.49 196.64 305.55 196.58 305.61 196.58C305.67 196.58 305.73 196.64 305.73 196.7L305.73 207.25C305.73 207.31 305.67 207.37 305.61 207.37Z" fill="#002346" fill-opacity="1.000000" fill-rule="nonzero"/>
	</g>
</svg>
