<svg width="90" height="140" viewBox="0 0 90 140" fill="none" xmlns="http://www.w3.org/2000/svg">
<g clip-path="url(#clip0_485_10539)">
<path d="M44.7306 117.336C66.9483 117.336 84.9593 98.6577 84.9593 75.6171C84.9593 52.5765 66.9483 33.8984 44.7306 33.8984C22.513 33.8984 4.50195 52.5765 4.50195 75.6171C4.50195 98.6577 22.513 117.336 44.7306 117.336Z" fill="#9098D9"/>
<path d="M79.346 75.6172C79.3501 81.2185 78.0883 86.7429 75.662 91.7472C73.2357 96.7516 69.7124 101.097 65.3745 104.434C65.0845 104.659 64.7888 104.878 64.4913 105.092C58.6906 109.273 51.7951 111.515 44.7306 111.515C37.6661 111.515 30.7707 109.273 24.9699 105.092C24.6724 104.878 24.3768 104.659 24.0867 104.434C19.7519 101.094 16.2307 96.7481 13.8047 91.7444C11.3787 86.7407 10.1152 81.2177 10.1152 75.6172C10.1152 70.0166 11.3787 64.4937 13.8047 59.49C16.2307 54.4863 19.7519 50.1406 24.0867 46.8003C24.3768 46.5752 24.6724 46.3559 24.9699 46.1425C30.7707 41.9609 37.6661 39.7197 44.7306 39.7197C51.7951 39.7197 58.6906 41.9609 64.4913 46.1425C64.7888 46.3559 65.0845 46.5752 65.3745 46.8003C69.7124 50.1376 73.2357 54.4827 75.662 59.4871C78.0883 64.4915 79.3501 70.0158 79.346 75.6172Z" fill="white"/>
<path d="M44.729 108.41C62.1932 108.41 76.3507 93.7278 76.3507 75.6169C76.3507 57.5059 62.1932 42.8241 44.729 42.8241C27.2649 42.8241 13.1074 57.5059 13.1074 75.6169C13.1074 93.7278 27.2649 108.41 44.729 108.41Z" fill="#FCF670"/>
<path opacity="0.2" d="M44.812 42.9152C44.3326 42.9152 43.8562 42.9282 43.382 42.9501C51.3742 43.6784 58.8006 47.53 64.1566 53.7246C69.5127 59.9192 72.3978 67.9936 72.2276 76.3119C72.0573 84.6301 68.8444 92.5702 63.2397 98.5236C57.6351 104.477 50.0578 107.998 42.043 108.374C42.9557 108.456 43.8787 108.501 44.812 108.501C53.1985 108.501 61.2416 105.046 67.1718 98.896C73.102 92.7462 76.4336 84.4052 76.4336 75.708C76.4336 67.0108 73.102 58.6699 67.1718 52.52C61.2416 46.3702 53.1985 42.9152 44.812 42.9152Z" fill="#9098D9"/>
<path d="M44.824 40.4961C44.5512 40.4966 44.2898 40.6092 44.0969 40.8092C43.904 41.0093 43.7954 41.2804 43.7949 41.5633V46.2203C43.7949 46.5033 43.9033 46.7748 44.0963 46.9749C44.2893 47.1751 44.5511 47.2875 44.824 47.2875C45.097 47.2875 45.3587 47.1751 45.5517 46.9749C45.7447 46.7748 45.8531 46.5033 45.8531 46.2203V41.5633C45.8527 41.2804 45.7441 41.0093 45.5512 40.8092C45.3583 40.6092 45.0968 40.4966 44.824 40.4961Z" fill="white"/>
<path d="M65.3735 46.8008C65.0835 46.5757 64.7878 46.3565 64.4903 46.143C64.3118 46.131 64.1334 46.1674 63.9726 46.2487C63.8118 46.3301 63.6742 46.4535 63.5735 46.6068L61.0456 50.4546C60.8921 50.6885 60.8344 50.9761 60.8852 51.2541C60.9361 51.5321 61.0914 51.7778 61.317 51.9371C61.5425 52.0964 61.8198 52.1562 62.0879 52.1034C62.356 52.0507 62.5929 51.8896 62.7465 51.6557L65.2743 47.8079C65.3705 47.6619 65.43 47.4933 65.4473 47.3174C65.4646 47.1415 65.4392 46.964 65.3735 46.8008Z" fill="white"/>
<path d="M76.8587 64.3451C76.8078 64.2154 76.7328 64.0973 76.638 63.9977C76.5432 63.898 76.4303 63.8187 76.3059 63.7643C76.1815 63.7098 76.0479 63.6814 75.9129 63.6805C75.7779 63.6796 75.644 63.7063 75.5189 63.7591L71.3576 65.5113C71.105 65.618 70.9036 65.8244 70.7976 66.085C70.6917 66.3456 70.6898 66.6392 70.7925 66.9013C70.8951 67.1633 71.0939 67.3724 71.3451 67.4825C71.5964 67.5926 71.8795 67.5948 72.1322 67.4886L76.2936 65.7364C76.5461 65.6292 76.7473 65.4226 76.8532 65.1618C76.9591 64.901 76.9611 64.6074 76.8587 64.3451Z" fill="white"/>
<path d="M28.4128 50.4546L25.8849 46.6068C25.7842 46.4535 25.6467 46.3301 25.4859 46.2487C25.3251 46.1674 25.1466 46.131 24.9681 46.143C24.6706 46.3565 24.375 46.5757 24.0849 46.8008C24.0192 46.964 23.9938 47.1415 24.0111 47.3174C24.0285 47.4933 24.0879 47.6619 24.1841 47.8079L26.712 51.6557C26.8656 51.8896 27.1025 52.0507 27.3705 52.1034C27.6386 52.1562 27.9159 52.0964 28.1415 51.9371C28.367 51.7778 28.5223 51.5321 28.5732 51.2541C28.6241 50.9761 28.5664 50.6885 28.4128 50.4546Z" fill="white"/>
<path d="M18.1029 65.5122L13.9415 63.76C13.6887 63.6536 13.4055 63.6556 13.1541 63.7657C12.9027 63.8758 12.7038 64.0849 12.6011 64.3471C12.4984 64.6093 12.5003 64.903 12.6064 65.1637C12.7125 65.4244 12.9141 65.6307 13.1669 65.7373L17.3282 67.4895C17.581 67.5957 17.8641 67.5935 18.1153 67.4834C18.3666 67.3733 18.5653 67.1642 18.668 66.9021C18.7707 66.6401 18.7688 66.3465 18.6628 66.0859C18.5569 65.8253 18.3555 65.6189 18.1029 65.5122Z" fill="white"/>
<path d="M44.824 103.946C44.5512 103.947 44.2898 104.06 44.0969 104.26C43.904 104.46 43.7954 104.731 43.7949 105.014V109.671C43.7949 109.954 43.9033 110.225 44.0963 110.425C44.2893 110.625 44.5511 110.738 44.824 110.738C45.097 110.738 45.3587 110.625 45.5517 110.425C45.7447 110.225 45.8531 109.954 45.8531 109.671V105.014C45.8527 104.731 45.7441 104.46 45.5512 104.26C45.3583 104.06 45.0968 103.947 44.824 103.946Z" fill="white"/>
<path d="M65.2743 103.427L62.7465 99.5787C62.6704 99.4629 62.5731 99.3638 62.4601 99.2869C62.3471 99.2101 62.2206 99.1571 62.0879 99.131C61.9552 99.1049 61.8188 99.1061 61.6865 99.1347C61.5542 99.1632 61.4286 99.2185 61.317 99.2974C61.2053 99.3762 61.1097 99.4771 61.0356 99.5943C60.9615 99.7115 60.9104 99.8427 60.8852 99.9803C60.86 100.118 60.8612 100.259 60.8888 100.397C60.9163 100.534 60.9696 100.664 61.0456 100.78L63.5735 104.628C63.6742 104.781 63.8118 104.904 63.9726 104.986C64.1334 105.067 64.3118 105.103 64.4903 105.091C64.7879 104.878 65.0835 104.659 65.3735 104.434C65.4392 104.27 65.4646 104.093 65.4473 103.917C65.43 103.741 65.3705 103.573 65.2743 103.427Z" fill="white"/>
<path d="M76.2943 85.4976L72.1329 83.7454C71.8801 83.6389 71.5969 83.641 71.3455 83.7511C71.0941 83.8611 70.8952 84.0703 70.7925 84.3324C70.6898 84.5946 70.6917 84.8883 70.7978 85.1491C70.9039 85.4098 71.1055 85.6161 71.3583 85.7227L75.5196 87.4748C75.7724 87.5811 76.0555 87.5789 76.3067 87.4687C76.558 87.3586 76.7567 87.1495 76.8594 86.8875C76.9621 86.6254 76.9602 86.3319 76.8542 86.0712C76.7483 85.8106 76.5469 85.6043 76.2943 85.4976Z" fill="white"/>
<path d="M28.1415 99.2982C27.9159 99.139 27.6386 99.0792 27.3706 99.132C27.1025 99.1848 26.8656 99.3458 26.712 99.5796L24.1841 103.427C24.0879 103.573 24.0285 103.742 24.0111 103.918C23.9938 104.094 24.0192 104.271 24.0849 104.434C24.375 104.66 24.6706 104.879 24.9681 105.092C25.1466 105.104 25.3251 105.068 25.4859 104.987C25.6467 104.905 25.7842 104.782 25.8849 104.629L28.4128 100.781C28.4889 100.665 28.5422 100.535 28.5697 100.398C28.5972 100.26 28.5984 100.119 28.5732 99.9812C28.548 99.8435 28.4969 99.7124 28.4229 99.5952C28.3488 99.478 28.2532 99.3771 28.1415 99.2982Z" fill="white"/>
<path d="M18.6692 84.3317C18.6184 84.2019 18.5434 84.0838 18.4485 83.9842C18.3537 83.8845 18.2408 83.8052 18.1164 83.7508C17.992 83.6964 17.8585 83.6679 17.7234 83.667C17.5884 83.6661 17.4546 83.6929 17.3295 83.7457L13.1682 85.4978C12.9156 85.6045 12.7142 85.8109 12.6082 86.0715C12.5022 86.3321 12.5004 86.6257 12.603 86.8878C12.7057 87.1498 12.9045 87.3589 13.1557 87.469C13.4069 87.5791 13.69 87.5813 13.9428 87.4751L18.1041 85.7229C18.3566 85.6157 18.5578 85.4091 18.6637 85.1483C18.7696 84.8876 18.7716 84.5939 18.6692 84.3317Z" fill="white"/>
<path d="M46.1577 75.0872C46.2527 75.6706 46.1208 76.2692 45.7907 76.7517C45.4607 77.2343 44.9595 77.5614 44.3972 77.6613L26.1356 80.8826C25.8571 80.9317 25.5719 80.9235 25.2964 80.8583C25.0209 80.7932 24.7605 80.6724 24.53 80.5029C24.2995 80.3333 24.1035 80.1184 23.9531 79.8703C23.8027 79.6222 23.7009 79.3458 23.6535 79.0569C23.6061 78.768 23.6141 78.4723 23.6769 78.1866C23.7397 77.9009 23.8562 77.6308 24.0197 77.3918C24.1832 77.1527 24.3904 76.9495 24.6297 76.7935C24.8689 76.6375 25.1354 76.532 25.414 76.4829L43.6756 73.2615C44.2381 73.163 44.8153 73.2999 45.2807 73.6421C45.746 73.9844 46.0614 74.5041 46.1577 75.0872Z" fill="#9098D9"/>
<path d="M65.3792 96.0702C65.1169 96.3438 64.7606 96.4983 64.3886 96.4998C64.0165 96.5013 63.6591 96.3497 63.3946 96.0783L43.7363 75.8517C43.4725 75.5798 43.3236 75.2104 43.3223 74.8246C43.321 74.4389 43.4674 74.0684 43.7294 73.7946C43.9914 73.5207 44.3475 73.366 44.7194 73.3643C45.0914 73.3626 45.4488 73.5141 45.7131 73.7855L65.3714 94.0121C65.6353 94.2841 65.7843 94.6536 65.7857 95.0394C65.7872 95.4253 65.641 95.796 65.3792 96.0702Z" fill="#9098D9"/>
<path d="M44.7313 78.1396C46.0747 78.1396 47.1637 77.0103 47.1637 75.6171C47.1637 74.224 46.0747 73.0946 44.7313 73.0946C43.3879 73.0946 42.2988 74.224 42.2988 75.6171C42.2988 77.0103 43.3879 78.1396 44.7313 78.1396Z" fill="#CCCCCC"/>
<path d="M27.9763 31.8768C24.2426 37.9643 18.5457 42.0042 11.52 44.6583C11.3812 44.7661 11.2232 44.8445 11.0552 44.889C10.8871 44.9336 10.7123 44.9433 10.5406 44.9178C10.3689 44.8922 10.2037 44.8318 10.0545 44.7401C9.90535 44.6483 9.77504 44.527 9.67107 44.3831C5.85479 39.0989 6.7165 31.5467 11.7532 27.509C12.9709 26.5345 14.3631 25.8205 15.8491 25.4086C17.335 24.9966 18.885 24.8949 20.4092 25.1093C21.9333 25.3236 23.4013 25.8498 24.7277 26.6573C26.0542 27.4649 27.2127 28.5376 28.1362 29.8132L28.2417 29.9594C28.3457 30.1033 28.4213 30.2671 28.4642 30.4414C28.5072 30.6157 28.5166 30.797 28.4919 30.9751C28.4673 31.1531 28.4091 31.3244 28.3206 31.4791C28.2321 31.6338 28.1151 31.7689 27.9763 31.8768Z" fill="#9098D9"/>
<path d="M61.3243 29.8132C62.2477 28.5376 63.4062 27.4648 64.7327 26.6573C66.0591 25.8498 67.5271 25.3236 69.0512 25.1093C70.5754 24.8949 72.1254 24.9966 73.6114 25.4086C75.0973 25.8205 76.4895 26.5345 77.7072 27.5089C82.7439 31.5467 83.6056 39.0989 79.7893 44.383C79.6854 44.527 79.5551 44.6483 79.4059 44.7401C79.2567 44.8318 79.0915 44.8922 78.9198 44.9178C78.7482 44.9433 78.5733 44.9336 78.4052 44.889C78.2372 44.8445 78.0792 44.7661 77.9404 44.6583C71.4183 42.0687 66.0697 37.5876 61.4841 31.8768C61.2037 31.659 61.0183 31.3346 60.9685 30.9751C60.9187 30.6155 61.0087 30.2501 61.2187 29.9593L61.3243 29.8132Z" fill="#9098D9"/>
<path d="M59.688 111.761C59.4502 111.9 59.275 112.131 59.2009 112.403C59.1268 112.675 59.1597 112.967 59.2925 113.214L65.2317 124.22C65.3651 124.467 65.5875 124.649 65.8501 124.726C66.1128 124.803 66.3941 124.768 66.6322 124.63C66.8704 124.492 67.0458 124.261 67.12 123.989C67.1942 123.717 67.1611 123.425 67.0278 123.178L61.0886 112.171C60.955 111.925 60.7325 111.743 60.47 111.666C60.2075 111.589 59.9263 111.624 59.688 111.761Z" fill="#9098D9"/>
<path d="M28.3709 112.171L22.4317 123.178C22.2985 123.425 22.2654 123.716 22.3395 123.989C22.4137 124.261 22.5892 124.492 22.8273 124.63C23.0655 124.768 23.3468 124.803 23.6094 124.726C23.8721 124.649 24.0945 124.467 24.2278 124.22L30.1671 113.214C30.2331 113.091 30.2752 112.957 30.2911 112.817C30.307 112.678 30.2962 112.537 30.2595 112.402C30.2228 112.267 30.1608 112.141 30.0771 112.031C29.9934 111.921 29.8896 111.829 29.7717 111.761C29.6537 111.692 29.5239 111.649 29.3897 111.632C29.2555 111.616 29.1194 111.627 28.9893 111.665C28.8593 111.703 28.7377 111.768 28.6316 111.854C28.5255 111.941 28.4369 112.049 28.3709 112.171Z" fill="#9098D9"/>
<path d="M66.4348 127.038C68.1915 127.038 69.6157 125.561 69.6157 123.739C69.6157 121.917 68.1915 120.44 66.4348 120.44C64.678 120.44 63.2539 121.917 63.2539 123.739C63.2539 125.561 64.678 127.038 66.4348 127.038Z" fill="#9098D9"/>
<path d="M68.6809 42.6315C70.4376 42.6315 71.8617 41.1547 71.8617 39.3329C71.8617 37.5111 70.4376 36.0342 68.6809 36.0342C66.9241 36.0342 65.5 37.5111 65.5 39.3329C65.5 41.1547 66.9241 42.6315 68.6809 42.6315Z" fill="#9098D9"/>
<path d="M44.5422 34.8689C46.2989 34.8689 47.7231 33.392 47.7231 31.5702C47.7231 29.7484 46.2989 28.2715 44.5422 28.2715C42.7855 28.2715 41.3613 29.7484 41.3613 31.5702C41.3613 33.392 42.7855 34.8689 44.5422 34.8689Z" fill="#9098D9"/>
<path d="M21.5285 42.2419C23.2853 42.2419 24.7094 40.765 24.7094 38.9432C24.7094 37.1214 23.2853 35.6445 21.5285 35.6445C19.7718 35.6445 18.3477 37.1214 18.3477 38.9432C18.3477 40.765 19.7718 42.2419 21.5285 42.2419Z" fill="#9098D9"/>
<path d="M23.5871 127.038C25.3439 127.038 26.768 125.561 26.768 123.739C26.768 121.917 25.3439 120.44 23.5871 120.44C21.8304 120.44 20.4062 121.917 20.4062 123.739C20.4062 125.561 21.8304 127.038 23.5871 127.038Z" fill="#9098D9"/>
</g>
<defs>
<clipPath id="clip0_485_10539">
<rect width="90" height="140" fill="white"/>
</clipPath>
</defs>
</svg>
