<svg width="200" height="80" fill="none" xmlns="http://www.w3.org/2000/svg" xml:space='preserve'>
<g xmlns="http://www.w3.org/2000/svg" fill="#2c3475" stroke="#2c3475" stroke-width=".1" stroke-miterlimit="10"><path d="M12.8 29.5c.6 0 1.1-.5 1.1-1.1 0-.6-.5-1.2-1.1-1.2-.6 0-1.2.5-1.2 1.2 0 .6.6 1.1 1.2 1.1zm0-1.5c.2 0 .4.2.4.4s-.2.4-.4.4-.4-.2-.4-.4c0-.3.2-.4.4-.4z"/><path d="M10 23c-3.8 0-7 3.1-7 7 0 3.8 3.1 7 7 7s7-3.1 7-7c0-3.8-3.2-7-7-7zm0 13.2c-3.4 0-6.2-2.8-6.2-6.2 0-3.4 2.8-6.2 6.2-6.2s6.2 2.8 6.2 6.2c0 3.4-2.8 6.2-6.2 6.2z"/><path d="M14.6 31.2c-.1-.1-.2-.2-.3-.2H5.7c-.1 0-.2.1-.3.2-.1.1-.1.2 0 .4.7 2 2.5 3.3 4.6 3.3s3.9-1.3 4.6-3.3c.1-.1.1-.3 0-.4zM10 34.1c-1.6 0-3-.9-3.7-2.2h7.3c-.6 1.3-2 2.2-3.6 2.2zm-2.8-4.6c.6 0 1.2-.5 1.2-1.1 0-.6-.5-1.2-1.2-1.2-.6 0-1.1.5-1.1 1.2 0 .6.5 1.1 1.1 1.1zm0-1.5c.2 0 .4.2.4.4s-.2.4-.4.4-.4-.2-.4-.4c0-.3.2-.4.4-.4z"/></g>
<path xmlns="http://www.w3.org/2000/svg" fill="none" stroke="#2c3475" d="M64.1 33.4h2.3c.2 0 .4.2.4.4v2.1c0 .2-.2.4-.4.4h-2.3c-.2 0-.4-.2-.4-.4v-2.1c0-.2.1-.4.4-.4zm9.4.1h2.4c.2 0 .4.2.4.4v2c0 .2-.2.4-.4.4h-2.4c-.2 0-.4-.2-.4-.4v-2c0-.3.2-.4.4-.4zm-9.8-5.1h12.6v5H63.7v-5z"/>
<path xmlns="http://www.w3.org/2000/svg" fill="none" stroke="#2c3475" d="M65.5 23.6h8.9c1 0 1.9.8 1.9 1.9v3.1H63.7v-3.1c0-1 .8-1.9 1.8-1.9z"/>
<ellipse xmlns="http://www.w3.org/2000/svg" fill="#2c3475" cx="66.2" cy="30.9" rx=".9" ry="1"/>
<ellipse xmlns="http://www.w3.org/2000/svg" fill="#2c3475" cx="73.8" cy="30.9" rx=".9" ry="1"/>
<g xmlns="http://www.w3.org/2000/svg" fill="none" stroke="#2c3475"><path d="M96.4 30c0 3.6-2.9 6.5-6.4 6.5s-6.4-2.9-6.4-6.5 2.9-6.5 6.4-6.5 6.4 2.9 6.4 6.5z"/><path d="M96.3 28.6v.1c-.9.1-2.9.1-4.6-1.1-1.1-.8-2-1.7-2.6-2.5-.3-.4-.6-.8-.7-1-.1-.1-.1-.1-.1-.2.5-.1 1.2-.2 2-.1 1.2 0 2.5.3 3.5 1.1s1.7 1.8 2.1 2.8c.2.2.3.6.4.9zM84 32.2v-.1c.9-.2 2.9-.4 4.7.6 1.1.7 1.9 1.5 2.4 2.3.4.5.6 1 .7 1.3-.4.1-1 .2-1.7.3-1 0-2.1-.1-3.2-.8s-1.9-1.6-2.4-2.5c-.3-.5-.4-.8-.5-1.1z"/></g>
<g xmlns="http://www.w3.org/2000/svg" fill="none" stroke="#2c3475"><path stroke-linecap="round" d="m116.3 26.8-1.4 2-.8-.8-.6-.6v.9l-.1 8.2h-6.8l-.1-8.2v-.9l-.6.6-.8.8-1.4-2 2.6-2.9c.1-.1.2-.1.3-.1h1.3l.4.7c.7 1.3 2.6 1.3 3.3-.1l.3-.6h1.2c.1 0 .2 0 .3.1l.3-.3-.3.3 2.9 2.9z"/><path d="M110.1 27.7h2v.9c0 .4-.4.7-1 .7s-1-.3-1-.7v-.9z"/></g>
<path xmlns="http://www.w3.org/2000/svg" d="M126.8 34.3c0 1.2-1 2.2-2.2 2.2s-2.2-1-2.2-2.2 1-2.2 2.2-2.2 2.2 1 2.2 2.2zm10.8 0c0 1.2-1 2.2-2.2 2.2-1.2 0-2.2-1-2.2-2.2s1-2.2 2.2-2.2c1.2 0 2.2 1 2.2 2.2zm-10.8-9.9v9.9m10.9-9.9v9.9m-10.9-10.8h10.8v2.7h-10.8v-2.7z" fill="none" stroke="#2c3475"/>
<g xmlns="http://www.w3.org/2000/svg" fill="#2c3475"><path d="M170.8 23.1h-.8c-2.1 0-4 1-5.3 2.5h-.1l-.1-.1-1-1.2-.3 3.4 3.4.3-1.1-1.3-.1-.1.1-.1c1.1-1.5 3-2.3 5-2.1 3.2.3 5.5 3.1 5.2 6.3-.3 3-3.1 5.3-6.1 5.1-3.1-.2-5.4-2.9-5.3-6l-1.3-.1c-.2 3.8 2.6 7.1 6.3 7.4 3.9.3 7.3-2.6 7.6-6.5.3-3.8-2.5-7.1-6.1-7.5z"/><path d="M170.3 27.4c0-.3-.3-.6-.6-.6s-.6.3-.6.6v3.2c0 .2.1.3.2.4.1.1.3.2.4.2h2.4c.4 0 .6-.3.6-.6 0-.4-.3-.6-.6-.6h-1.8v-2.6z"/></g>
<path xmlns="http://www.w3.org/2000/svg" fill="none" stroke="#2c3475" d="M186.2 23.4h7.7c1.5 0 2.7 1.2 2.7 2.7v7.7c0 1.5-1.2 2.7-2.7 2.7h-7.7c-1.5 0-2.7-1.2-2.7-2.7v-7.7c-.1-1.5 1.2-2.7 2.7-2.7z"/>
<circle xmlns="http://www.w3.org/2000/svg" fill="#2c3475" cx="186" cy="28.9" r=".7"/>
<circle xmlns="http://www.w3.org/2000/svg" fill="#2c3475" cx="194" cy="26.7" r=".7"/>
<path xmlns="http://www.w3.org/2000/svg" fill="none" stroke="#2c3475" stroke-linecap="round" d="m186 33.3.4-.3c.4-.3 1-.3 1.5-.1l1 .4c.5.2 1 .2 1.5-.1l.8-.5c.4-.3 1-.3 1.5-.1l1.8.8"/>
<path xmlns="http://www.w3.org/2000/svg" fill="#2c3475" stroke="#2c3475" stroke-width=".25" stroke-miterlimit="10" d="M156 24.3c-.2-.1-.4-.1-.5 0 0 0-.2.1-.9.2-.7 0-2.4-.1-3.8-.6-.8-.3-1.7-.5-2.5-.5h-.5c-1.3 0-2.5.3-3.6 1-.2.1-.2.2-.2.4v11.6c0 .3.1.5.3.5.6 0 .5-.4.5-.6v-5.7c.7-.3 3.2-1.1 5.8-.1 1.6.6 3.5.7 4.3.7.8 0 1.3-.3 1.3-.3.2-.1.3-.2.3-.4v-5.7c-.3-.2-.4-.4-.5-.5zm-.4 5.9c-.1 0-.7.1-1 .1-.7 0-2.4-.1-3.8-.6-2.5-1-5-.5-6.2-.1v-4.9c.9-.5 2.2-.7 3.2-.7h.4c.7 0 1.5.2 2.2.4 1.6.6 3.5.7 4.3.7.2 0 .8 0 1-.1v5.2z"/>
<path xmlns="http://www.w3.org/2000/svg" fill="none" stroke="#2c3475" d="M48.1 23.5h3.7c2.5 0 4.5 2 4.5 4.5 0 .5-.4.9-.9.9H44.5c-.5 0-.9-.4-.9-.9 0-2.5 2-4.5 4.5-4.5z"/>
<path xmlns="http://www.w3.org/2000/svg" fill="none" stroke="#2c3475" stroke-linecap="round" d="M43.5 28.8c-.2.1-.5 1.2 0 1.5 1.4 1 8.5.8 11.3.6.8-.1 1.6-.4 1.7-1.2 0-.3-.1-.6-.6-.9"/>
<path xmlns="http://www.w3.org/2000/svg" fill="none" stroke="#2c3475" stroke-linecap="round" d="m43.5 30.6-.2.4c-.2.5.2 1 .7.9.3-.1.5 0 .7.3l.1.2c.3.5 1 .6 1.5.2h0c.3-.2.7-.3 1-.2l.8.3c.4.2.8.1 1.2 0l.5-.2c.4-.2.9-.2 1.3 0l.5.2c.4.2.8.2 1.2 0l.2-.1c.3-.2.8-.2 1.1.1l.2.2c.3.3.8.2 1-.2l.1-.2c.1-.2 0-.3.2-.3.5 0 1.2-.3 1.1-.7l-.4-1.1"/>
<path xmlns="http://www.w3.org/2000/svg" fill="none" stroke="#2c3475" stroke-linecap="round" d="M43.5 32.2c-.1.2-.3.8 0 1.1.3.4 3 1.1 6.4 1.1 2.2 0 4.6-.3 6-.6.5-.1.9-.5.8-.9 0-.2-.2-.5-.4-.7"/>
<path xmlns="http://www.w3.org/2000/svg" fill="none" stroke="#2c3475" stroke-linecap="round" d="M43.5 33.3c0 .5.6 2.3 1.3 2.7 1.8.8 5.7.7 8.1.5 1.3-.1 2.5-.7 3.2-1.8.3-.5.5-1 .5-1.4"/>
<ellipse xmlns="http://www.w3.org/2000/svg" fill="#2c3475" cx="51.6" cy="26.5" rx=".3" ry=".4"/>
<ellipse xmlns="http://www.w3.org/2000/svg" fill="#2c3475" cx="53" cy="25" rx=".3" ry=".4"/>
<ellipse xmlns="http://www.w3.org/2000/svg" fill="#2c3475" cx="53" cy="27.2" rx=".3" ry=".4"/>
<ellipse xmlns="http://www.w3.org/2000/svg" fill="#2c3475" cx="54.3" cy="26.5" rx=".3" ry=".4"/>
<ellipse xmlns="http://www.w3.org/2000/svg" fill="#2c3475" cx="50.9" cy="25" rx=".3" ry=".4"/>
<path xmlns="http://www.w3.org/2000/svg" fill="none" stroke="#2c3475" d="M24.2 31v-7.6c.1.1.8.9 2.8 3.1 2.5-1.6 5.6-.7 6.9 0l2.4-3.1v7.1c0 1.2-.1 2.5-.9 3.4-1 1.2-2.7 2.5-5.3 2.5-2.9 0-4.5-1.5-5.3-2.9-.6-.6-.6-1.5-.6-2.5z"/>
<path xmlns="http://www.w3.org/2000/svg" fill="none" stroke="#2c3475" stroke-linecap="round" d="m21.2 30 5.4 1.2m-5.4 2.9 5.4-1.2M38.8 30l-5.4 1.2m5.4 2.9-5.4-1.2"/>
<path xmlns="http://www.w3.org/2000/svg" fill-rule="evenodd" clip-rule="evenodd" fill="#2c3475" d="m29.5 32.4-.5-.7c-.2-.3 0-.6.3-.6h1.4c.3 0 .5.4.3.6l-.7 1c-.7 1.2-2.6 1.1-3.1-.3l-.1-.2c-.1-.2 0-.4.2-.5s.4 0 .5.2l.1.2c.4.7 1.2.8 1.6.3z"/>
<path xmlns="http://www.w3.org/2000/svg" fill="none" stroke="#2c3475" stroke-linecap="round" d="m32.4 32.1-.1.2c-.4 1-1.8 1.1-2.3.2"/>
<circle xmlns="http://www.w3.org/2000/svg" fill="#2c3475" cx="27.6" cy="29.7" r=".7"/>
<circle xmlns="http://www.w3.org/2000/svg" fill="#2c3475" cx="32.4" cy="29.7" r=".7"/>
<g xmlns="http://www.w3.org/2000/svg" fill="#C0C0BF" stroke="#C0C0BF" stroke-width=".1" stroke-miterlimit="10"><path d="M12.8 49.5c.6 0 1.1-.5 1.1-1.1 0-.6-.5-1.2-1.1-1.2-.6 0-1.2.5-1.2 1.2 0 .6.6 1.1 1.2 1.1zm0-1.5c.2 0 .4.2.4.4s-.2.4-.4.4-.4-.2-.4-.4c0-.3.2-.4.4-.4zm1.8 3.2c-.1-.1-.2-.2-.3-.2H5.7c-.1 0-.2.1-.3.2-.1.1-.1.2 0 .4.7 2 2.5 3.3 4.6 3.3s3.9-1.3 4.6-3.3c.1-.1.1-.3 0-.4zM10 54.1c-1.6 0-3-.9-3.7-2.2h7.3c-.6 1.3-2 2.2-3.6 2.2zm-2.8-4.6c.6 0 1.2-.5 1.2-1.1 0-.6-.5-1.2-1.2-1.2-.6 0-1.1.5-1.1 1.2 0 .6.5 1.1 1.1 1.1zm0-1.5c.2 0 .4.2.4.4s-.2.4-.4.4-.4-.2-.4-.4c0-.3.2-.4.4-.4z"/><path d="M10 43c-3.8 0-7 3.1-7 7 0 3.8 3.1 7 7 7s7-3.1 7-7c0-3.8-3.2-7-7-7zm0 13.2c-3.4 0-6.2-2.8-6.2-6.2 0-3.4 2.8-6.2 6.2-6.2s6.2 2.8 6.2 6.2c0 3.4-2.8 6.2-6.2 6.2z"/></g>
<path xmlns="http://www.w3.org/2000/svg" fill="none" stroke="#C0C0BF" d="M64.1 53.4h2.3c.2 0 .4.2.4.4v2.1c0 .2-.2.4-.4.4h-2.3c-.2 0-.4-.2-.4-.4v-2.1c0-.2.1-.4.4-.4zm9.4.1h2.4c.2 0 .4.2.4.4v2c0 .2-.2.4-.4.4h-2.4c-.2 0-.4-.2-.4-.4v-2c0-.3.2-.4.4-.4zm-9.8-5.1h12.6v5H63.7v-5z"/>
<path xmlns="http://www.w3.org/2000/svg" fill="none" stroke="#C0C0BF" d="M65.5 43.6h8.9c1 0 1.9.8 1.9 1.9v3.1H63.7v-3.1c0-1 .8-1.9 1.8-1.9z"/>
<ellipse xmlns="http://www.w3.org/2000/svg" fill="#C0C0BF" cx="66.2" cy="50.9" rx=".9" ry="1"/>
<ellipse xmlns="http://www.w3.org/2000/svg" fill="#C0C0BF" cx="73.8" cy="50.9" rx=".9" ry="1"/>
<g xmlns="http://www.w3.org/2000/svg" fill="none" stroke="#C0C0BF"><path d="M96.4 50c0 3.6-2.9 6.5-6.4 6.5s-6.4-2.9-6.4-6.5 2.9-6.5 6.4-6.5 6.4 2.9 6.4 6.5z"/><path d="M96.3 48.6v.1c-.9.1-2.9.1-4.6-1.2-1.1-.8-2-1.7-2.6-2.5-.3-.4-.6-.8-.7-1-.1-.1-.1-.2-.1-.2.5-.1 1.2-.2 2-.2 1.2 0 2.5.3 3.5 1.1s1.7 1.8 2.1 2.8c.2.4.3.8.4 1.1zM84 52.2v-.1c.9-.2 2.9-.4 4.7.6 1.1.7 1.9 1.5 2.4 2.3.4.5.6 1 .7 1.3-.4.1-1 .2-1.7.3-1 0-2.1-.1-3.2-.8s-1.9-1.6-2.4-2.5c-.3-.5-.4-.8-.5-1.1z"/></g>
<g xmlns="http://www.w3.org/2000/svg" fill="none" stroke="#C0C0BF"><path stroke-linecap="round" d="m116.3 46.8-1.4 2-.8-.8-.6-.7v.9l-.1 8.2h-6.8l-.1-8.2v-.9l-.6.7-.8.8-1.4-2 2.6-2.9c.1-.1.2-.1.3-.1h1.3l.4.7c.7 1.3 2.6 1.3 3.3-.1l.3-.6h1.2c.1 0 .2 0 .3.1l.3-.3-.3.3 2.9 2.9z"/><path d="M110.1 47.7h2v.9c0 .4-.4.7-1 .7s-1-.3-1-.7v-.9z"/></g>
<path xmlns="http://www.w3.org/2000/svg" d="M126.8 54.3c0 1.2-1 2.2-2.2 2.2s-2.2-1-2.2-2.2 1-2.2 2.2-2.2 2.2 1 2.2 2.2zm10.8 0c0 1.2-1 2.2-2.2 2.2-1.2 0-2.2-1-2.2-2.2s1-2.2 2.2-2.2c1.2 0 2.2 1 2.2 2.2zm-10.8-9.9v9.9m10.9-9.9v9.9m-10.9-10.8h10.8v2.7h-10.8v-2.7z" fill="none" stroke="#C0C0BF"/>
<g xmlns="http://www.w3.org/2000/svg" fill="#C0C0BF"><path d="M170.8 43.1h-.8c-2.1 0-4 1-5.3 2.5h-.1l-.1-.1-1-1.2-.3 3.4 3.4.3-1.1-1.3-.1-.1.1-.1c1.1-1.5 3-2.3 5-2.1 3.2.3 5.5 3.1 5.2 6.3-.3 3-3.1 5.3-6.1 5.1-3.1-.2-5.4-2.9-5.3-6l-1.3-.1c-.2 3.8 2.6 7.1 6.3 7.4 3.9.3 7.3-2.6 7.6-6.5.3-3.8-2.5-7.1-6.1-7.5z"/><path d="M170.3 47.4c0-.3-.3-.6-.6-.6s-.6.3-.6.6v3.2c0 .2.1.3.2.4.1.1.3.2.4.2h2.4c.4 0 .6-.3.6-.6s-.3-.6-.6-.6h-1.8v-2.6z"/></g>
<path xmlns="http://www.w3.org/2000/svg" fill="none" stroke="#C0C0BF" d="M186.2 43.4h7.7c1.5 0 2.7 1.2 2.7 2.7v7.7c0 1.5-1.2 2.7-2.7 2.7h-7.7c-1.5 0-2.7-1.2-2.7-2.7v-7.7c-.1-1.4 1.2-2.7 2.7-2.7z"/>
<circle xmlns="http://www.w3.org/2000/svg" fill="#C0C0BF" cx="186" cy="48.9" r=".7"/>
<circle xmlns="http://www.w3.org/2000/svg" fill="#C0C0BF" cx="194" cy="46.7" r=".7"/>
<path xmlns="http://www.w3.org/2000/svg" fill="none" stroke="#C0C0BF" stroke-linecap="round" d="m186 53.3.4-.3c.4-.3 1-.3 1.5-.1l1 .4c.5.2 1 .2 1.5-.1l.8-.5c.4-.3 1-.3 1.5-.1l1.8.8"/>
<path xmlns="http://www.w3.org/2000/svg" fill="#C0C0BF" stroke="#C0C0BF" stroke-width=".25" stroke-miterlimit="10" d="M156 44.3c-.2-.1-.4-.1-.5 0 0 0-.2.1-.9.2-.7 0-2.4-.1-3.8-.6-.8-.3-1.7-.5-2.5-.5h-.5c-1.3 0-2.5.3-3.6 1-.2.1-.2.2-.2.4v11.6c0 .3.1.5.3.5.6 0 .5-.4.5-.6v-5.7c.7-.3 3.2-1.1 5.8-.1 1.6.6 3.5.7 4.3.7.8 0 1.3-.3 1.3-.3.2-.1.3-.2.3-.4v-5.7c-.3-.2-.4-.4-.5-.5zm-.4 5.9c-.1 0-.7.1-1 .1-.7 0-2.4-.1-3.8-.6-2.5-1-5-.5-6.2-.1v-4.9c.9-.5 2.2-.7 3.2-.7h.4c.7 0 1.5.2 2.2.4 1.6.6 3.5.7 4.3.7.2 0 .8 0 1-.1v5.2z"/>
<path xmlns="http://www.w3.org/2000/svg" fill="none" stroke="#C0C0BF" d="M48.1 43.5h3.7c2.5 0 4.5 2 4.5 4.5 0 .5-.4.9-.9.9H44.5c-.5 0-.9-.4-.9-.9 0-2.5 2-4.5 4.5-4.5z"/>
<path xmlns="http://www.w3.org/2000/svg" fill="none" stroke="#C0C0BF" stroke-linecap="round" d="M43.5 48.8c-.2.1-.5 1.2 0 1.5 1.4 1 8.5.8 11.3.6.8-.1 1.6-.4 1.7-1.2 0-.3-.1-.6-.6-.9"/>
<path xmlns="http://www.w3.org/2000/svg" fill="none" stroke="#C0C0BF" stroke-linecap="round" d="m43.5 50.6-.2.4c-.2.5.2 1 .7.9.3-.1.5 0 .7.3l.1.2c.3.5 1 .6 1.5.2h0c.3-.2.7-.3 1-.2l.8.3c.4.2.8.1 1.2 0l.5-.2c.4-.2.9-.2 1.3 0l.5.2c.4.2.8.2 1.2 0l.2-.1c.3-.2.8-.2 1.1.1l.2.2c.3.3.8.2 1-.2l.1-.2c.1-.2 0-.3.2-.3.5 0 1.2-.3 1.1-.7l-.4-1.1"/>
<path xmlns="http://www.w3.org/2000/svg" fill="none" stroke="#C0C0BF" stroke-linecap="round" d="M43.5 52.2c-.1.2-.3.8 0 1.1.3.4 3 1.1 6.4 1.1 2.2 0 4.6-.3 6-.6.5-.1.9-.5.8-.9 0-.2-.2-.5-.4-.7"/>
<path xmlns="http://www.w3.org/2000/svg" fill="none" stroke="#C0C0BF" stroke-linecap="round" d="M43.5 53.3c0 .5.6 2.3 1.3 2.7 1.8.8 5.7.7 8.1.5 1.3-.1 2.5-.7 3.2-1.8.3-.5.5-1 .5-1.4"/>
<ellipse xmlns="http://www.w3.org/2000/svg" fill="#C0C0BF" cx="51.6" cy="46.5" rx=".3" ry=".4"/>
<ellipse xmlns="http://www.w3.org/2000/svg" fill="#C0C0BF" cx="53" cy="45" rx=".3" ry=".4"/>
<ellipse xmlns="http://www.w3.org/2000/svg" fill="#C0C0BF" cx="53" cy="47.2" rx=".3" ry=".4"/>
<ellipse xmlns="http://www.w3.org/2000/svg" fill="#C0C0BF" cx="54.3" cy="46.5" rx=".3" ry=".4"/>
<ellipse xmlns="http://www.w3.org/2000/svg" fill="#C0C0BF" cx="50.9" cy="45" rx=".3" ry=".4"/>
<path xmlns="http://www.w3.org/2000/svg" fill="none" stroke="#C0C0BF" d="M24.2 51v-7.6c.1.1.8.9 2.8 3.1 2.5-1.7 5.6-.7 6.9 0l2.4-3.1v7.1c0 1.2-.1 2.5-.9 3.4-1 1.2-2.7 2.5-5.3 2.5-2.9 0-4.5-1.5-5.3-2.9-.6-.6-.6-1.5-.6-2.5z"/>
<path xmlns="http://www.w3.org/2000/svg" fill="none" stroke="#C0C0BF" stroke-linecap="round" d="m21.2 50 5.4 1.2m-5.4 2.9 5.4-1.2M38.8 50l-5.4 1.2m5.4 2.9-5.4-1.2"/>
<path xmlns="http://www.w3.org/2000/svg" fill-rule="evenodd" clip-rule="evenodd" fill="#C0C0BF" d="m29.5 52.4-.5-.7c-.2-.3 0-.6.3-.6h1.4c.3 0 .5.4.3.6l-.7 1c-.7 1.2-2.6 1.1-3.1-.3l-.1-.2c-.1-.2 0-.4.2-.5s.4 0 .5.2l.1.2c.4.7 1.2.8 1.6.3z"/>
<path xmlns="http://www.w3.org/2000/svg" fill="none" stroke="#C0C0BF" stroke-linecap="round" d="m32.4 52.1-.1.2c-.4 1-1.8 1.1-2.3.2"/>
<circle xmlns="http://www.w3.org/2000/svg" fill="#C0C0BF" cx="27.6" cy="49.7" r=".7"/>
<circle xmlns="http://www.w3.org/2000/svg" fill="#C0C0BF" cx="32.4" cy="49.7" r=".7"/>
<g xmlns="http://www.w3.org/2000/svg" fill="#5e66a7" stroke="#5e66a7" stroke-width=".1" stroke-miterlimit="10"><path d="M14.6 71.2c-.1-.1-.2-.2-.3-.2H5.7c-.1 0-.2.1-.3.2-.1.1-.1.2 0 .4.7 2 2.5 3.3 4.6 3.3s3.9-1.3 4.6-3.3c.1-.1.1-.3 0-.4zM10 74.1c-1.6 0-3-.9-3.7-2.2h7.3c-.6 1.3-2 2.2-3.6 2.2zm2.8-4.6c.6 0 1.1-.5 1.1-1.1 0-.6-.5-1.2-1.1-1.2-.6 0-1.2.5-1.2 1.2 0 .6.6 1.1 1.2 1.1zm0-1.5c.2 0 .4.2.4.4s-.2.4-.4.4-.4-.2-.4-.4c0-.3.2-.4.4-.4zm-5.6 1.5c.6 0 1.2-.5 1.2-1.1 0-.6-.5-1.2-1.2-1.2-.6 0-1.1.5-1.1 1.2 0 .6.5 1.1 1.1 1.1zm0-1.5c.2 0 .4.2.4.4s-.2.4-.4.4-.4-.2-.4-.4c0-.3.2-.4.4-.4z"/><path d="M10 63c-3.8 0-7 3.1-7 7 0 3.8 3.1 7 7 7s7-3.1 7-7c0-3.8-3.2-7-7-7zm0 13.2c-3.4 0-6.2-2.8-6.2-6.2 0-3.4 2.8-6.2 6.2-6.2s6.2 2.8 6.2 6.2c0 3.4-2.8 6.2-6.2 6.2z"/></g>
<path xmlns="http://www.w3.org/2000/svg" fill="none" stroke="#5e66a7" d="M64.1 73.4h2.3c.2 0 .4.2.4.4v2.1c0 .2-.2.4-.4.4h-2.3c-.2 0-.4-.2-.4-.4v-2.1c0-.2.1-.4.4-.4zm9.4.1h2.4c.2 0 .4.2.4.4V76c0 .2-.2.4-.4.4h-2.4c-.2 0-.4-.2-.4-.4v-2.1c0-.3.2-.4.4-.4zm-9.8-5.1h12.6v5H63.7v-5z"/>
<path xmlns="http://www.w3.org/2000/svg" fill="none" stroke="#5e66a7" d="M65.5 63.6h8.9c1 0 1.9.8 1.9 1.9v3.1H63.7v-3.1c0-1 .8-1.9 1.8-1.9z"/>
<circle xmlns="http://www.w3.org/2000/svg" fill="#5e66a7" cx="66.2" cy="70.9" r=".9"/>
<circle xmlns="http://www.w3.org/2000/svg" fill="#5e66a7" cx="73.8" cy="70.9" r=".9"/>
<g xmlns="http://www.w3.org/2000/svg" fill="none" stroke="#5e66a7"><path d="M96.4 70c0 3.6-2.9 6.5-6.4 6.5s-6.4-2.9-6.4-6.5 2.9-6.5 6.4-6.5 6.4 2.9 6.4 6.5z"/><path d="M96.3 68.6v.1c-.9.1-2.9.1-4.6-1.2-1.1-.8-2-1.7-2.6-2.5-.3-.4-.6-.8-.7-1.1-.1-.1-.1-.2-.1-.2.5-.1 1.2-.2 2-.2 1.2 0 2.5.3 3.5 1.1s1.7 1.8 2.1 2.8c.2.5.3.9.4 1.2zM84 72.2v-.1c.9-.2 2.9-.4 4.7.6 1.1.7 1.9 1.5 2.4 2.3.4.5.6 1 .7 1.3-.4.1-1 .2-1.7.3-1 0-2.1-.1-3.2-.8s-1.9-1.6-2.4-2.5c-.3-.5-.4-.9-.5-1.1z"/></g>
<g xmlns="http://www.w3.org/2000/svg" fill="none" stroke="#5e66a7"><path stroke-linecap="round" d="m116.3 66.8-1.4 2-.8-.8-.6-.7v.9l-.1 8.2h-6.8l-.1-8.2v-.9l-.6.7-.8.8-1.4-2 2.6-2.9c.1-.1.2-.1.3-.1h1.3l.4.7c.7 1.3 2.6 1.3 3.3-.1l.3-.6h1.2c.1 0 .2 0 .3.1l.3-.3-.3.3 2.9 2.9z"/><path d="M110.1 67.7h2v.9c0 .4-.4.7-1 .7s-1-.3-1-.7v-.9z"/></g>
<path xmlns="http://www.w3.org/2000/svg" d="M126.8 74.3c0 1.2-1 2.2-2.2 2.2s-2.2-1-2.2-2.2 1-2.2 2.2-2.2 2.2 1 2.2 2.2zm10.8 0c0 1.2-1 2.2-2.2 2.2-1.2 0-2.2-1-2.2-2.2s1-2.2 2.2-2.2c1.2 0 2.2 1 2.2 2.2zm-10.8-9.9v9.9m10.9-9.9v9.9m-10.9-10.8h10.8v2.7h-10.8v-2.7z" fill="none" stroke="#5e66a7"/>
<g xmlns="http://www.w3.org/2000/svg" fill="#5e66a7"><path d="M170.8 63.1h-.8c-2.1 0-4 1-5.3 2.5h-.1l-.1-.1-1-1.2-.3 3.4 3.4.3-1.1-1.3-.1-.1.1-.1c1.1-1.4 3-2.3 5-2.1 3.2.3 5.5 3.1 5.2 6.3-.3 3-3.1 5.3-6.1 5.1-3.1-.2-5.4-2.9-5.3-6l-1.3-.1c-.2 3.8 2.6 7.1 6.3 7.4 3.9.3 7.3-2.6 7.6-6.5.3-3.8-2.5-7.1-6.1-7.5z"/><path d="M170.3 67.4c0-.3-.3-.6-.6-.6s-.6.3-.6.6v3.2c0 .2.1.3.2.4.1.1.3.2.4.2h2.4c.4 0 .6-.3.6-.6s-.3-.6-.7-.6h-1.8v-.2l.1-2.4z"/></g>
<path xmlns="http://www.w3.org/2000/svg" fill="none" stroke="#5e66a7" d="M186.2 63.4h7.7c1.5 0 2.7 1.2 2.7 2.7v7.7c0 1.5-1.2 2.7-2.7 2.7h-7.7c-1.5 0-2.7-1.2-2.7-2.7v-7.7c-.1-1.4 1.2-2.7 2.7-2.7z"/>
<circle xmlns="http://www.w3.org/2000/svg" fill="#5e66a7" cx="186" cy="68.9" r=".7"/>
<circle xmlns="http://www.w3.org/2000/svg" fill="#5e66a7" cx="194" cy="66.7" r=".7"/>
<path xmlns="http://www.w3.org/2000/svg" fill="none" stroke="#5e66a7" stroke-linecap="round" d="m186 73.3.4-.3c.4-.3 1-.3 1.5-.1l1 .4c.5.2 1 .2 1.5-.1l.8-.5c.4-.3 1-.3 1.5-.1l1.8.8"/>
<path xmlns="http://www.w3.org/2000/svg" fill="#5e66a7" stroke="#5e66a7" stroke-width=".25" stroke-miterlimit="10" d="M156 64.3c-.2-.1-.4-.1-.5 0 0 0-.2.1-.9.2-.7 0-2.4-.1-3.8-.6-.8-.3-1.7-.5-2.5-.5h-.5c-1.3 0-2.5.3-3.6 1-.2.1-.2.2-.2.4v11.6c0 .3.1.5.3.5.6 0 .5-.4.5-.6v-5.7c.7-.3 3.2-1.1 5.8-.1 1.6.6 3.5.7 4.3.7.8 0 1.3-.3 1.3-.3.2-.1.3-.2.3-.4v-5.7c-.3-.2-.4-.4-.5-.5zm-.4 5.9c-.1 0-.7.1-1 .1-.7 0-2.4-.1-3.8-.6-2.5-1-5-.5-6.2-.1v-4.9c.9-.5 2.2-.7 3.2-.7h.4c.7 0 1.5.2 2.2.4 1.6.6 3.5.7 4.3.7.2 0 .8 0 1-.1v5.2z"/>
<path xmlns="http://www.w3.org/2000/svg" fill="none" stroke="#5e66a7" d="M48.1 63.5h3.7c2.5 0 4.5 2 4.5 4.5 0 .5-.4.9-.9.9H44.5c-.5 0-.9-.4-.9-.9 0-2.5 2-4.5 4.5-4.5z"/>
<path xmlns="http://www.w3.org/2000/svg" fill="none" stroke="#5e66a7" stroke-linecap="round" d="M43.5 68.8c-.2.1-.5 1.2 0 1.5 1.4.9 8.5.8 11.3.6.8-.1 1.6-.4 1.7-1.2 0-.3-.1-.6-.6-.9"/>
<path xmlns="http://www.w3.org/2000/svg" fill="none" stroke="#5e66a7" stroke-linecap="round" d="m43.5 70.6-.2.4c-.2.5.2 1 .7.9.3-.1.5.1.7.3l.1.2c.3.5 1 .6 1.5.2h0c.3-.2.7-.3 1-.2l.8.3c.4.2.8.1 1.2 0l.5-.2c.4-.2.9-.2 1.3 0l.5.2c.4.2.8.2 1.2-.1l.2-.1c.3-.2.8-.2 1.1.1l.2.2c.3.3.8.2 1-.2l.1-.2c.1-.2 0-.3.2-.3.5 0 1.2-.3 1.1-.7l-.4-1.1"/>
<path xmlns="http://www.w3.org/2000/svg" fill="none" stroke="#5e66a7" stroke-linecap="round" d="M43.5 72.2c-.1.2-.3.8 0 1.1.3.4 3 1.1 6.4 1.1 2.2 0 4.6-.3 6-.6.5-.1.9-.4.8-.9 0-.2-.2-.5-.4-.7"/>
<path xmlns="http://www.w3.org/2000/svg" fill="none" stroke="#5e66a7" stroke-linecap="round" d="M43.5 73.3c0 .5.6 2.3 1.3 2.7 1.8.8 5.7.7 8.1.5 1.3-.1 2.5-.7 3.2-1.8.3-.5.5-1 .5-1.4"/>
<ellipse xmlns="http://www.w3.org/2000/svg" fill="#5e66a7" cx="51.6" cy="66.5" rx=".3" ry=".4"/>
<ellipse xmlns="http://www.w3.org/2000/svg" fill="#5e66a7" cx="53" cy="65" rx=".3" ry=".4"/>
<ellipse xmlns="http://www.w3.org/2000/svg" fill="#5e66a7" cx="53" cy="67.2" rx=".3" ry=".4"/>
<ellipse xmlns="http://www.w3.org/2000/svg" fill="#5e66a7" cx="54.3" cy="66.5" rx=".3" ry=".4"/>
<ellipse xmlns="http://www.w3.org/2000/svg" fill="#5e66a7" cx="50.9" cy="65" rx=".3" ry=".4"/>
<path xmlns="http://www.w3.org/2000/svg" fill="none" stroke="#5e66a7" d="M24.2 71v-7.6c.1.1.8.9 2.8 3.1 2.5-1.7 5.6-.7 6.9 0l2.4-3.1v7.1c0 1.2-.1 2.5-.9 3.4-1 1.2-2.7 2.5-5.3 2.5-2.9 0-4.5-1.5-5.3-2.9-.6-.6-.6-1.5-.6-2.5z"/>
<path xmlns="http://www.w3.org/2000/svg" fill="none" stroke="#5e66a7" stroke-linecap="round" d="m21.2 70.1 5.4 1.2m-5.4 2.8 5.4-1.2m12.2-2.8-5.4 1.2m5.4 2.8-5.4-1.2"/>
<path xmlns="http://www.w3.org/2000/svg" fill-rule="evenodd" clip-rule="evenodd" fill="#5e66a7" d="m29.5 72.4-.5-.7c-.2-.3 0-.6.3-.6h1.4c.3 0 .5.4.3.6l-.7 1c-.7 1.2-2.6 1.1-3.1-.3l-.1-.2c-.1-.2 0-.4.2-.5.2-.1.4 0 .5.2l.1.2c.4.7 1.2.8 1.6.3z"/>
<path xmlns="http://www.w3.org/2000/svg" fill="none" stroke="#5e66a7" stroke-linecap="round" d="m32.4 72.1-.1.2c-.4 1-1.8 1.1-2.3.2"/>
<circle xmlns="http://www.w3.org/2000/svg" fill="#5e66a7" cx="27.6" cy="69.7" r=".7"/>
<circle xmlns="http://www.w3.org/2000/svg" fill="#5e66a7" cx="32.4" cy="69.7" r=".7"/>
<g xmlns="http://www.w3.org/2000/svg" fill="#868686" stroke="#868686" stroke-width=".1" stroke-miterlimit="10"><path d="M12.8 9.5c.6 0 1.1-.5 1.1-1.2 0-.6-.5-1.1-1.1-1.1-.6 0-1.2.5-1.2 1.1s.6 1.2 1.2 1.2zm0-1.6c.2 0 .4.2.4.4s-.2.4-.4.4-.4-.2-.4-.4.2-.4.4-.4zM7.2 9.5c.6 0 1.2-.5 1.2-1.2 0-.6-.5-1.1-1.2-1.1-.6 0-1.1.5-1.1 1.1s.5 1.2 1.1 1.2zm0-1.6c.2 0 .4.2.4.4s-.2.4-.4.4-.4-.2-.4-.4.2-.4.4-.4zm7.4 3.3c-.1-.1-.2-.2-.3-.2H5.7c-.1 0-.2.1-.3.2-.1.1-.1.2 0 .4.7 2 2.5 3.3 4.6 3.3s3.9-1.3 4.6-3.3c.1-.2.1-.3 0-.4zM10 14.1c-1.6 0-3-.9-3.7-2.2h7.3c-.6 1.3-2 2.2-3.6 2.2z"/><path d="M10 3c-3.8 0-7 3.1-7 7s3.1 7 7 7 7-3.1 7-7-3.2-7-7-7zm0 13.2c-3.4 0-6.2-2.8-6.2-6.2S6.6 3.8 10 3.8s6.2 2.8 6.2 6.2-2.8 6.2-6.2 6.2z"/></g>
<path xmlns="http://www.w3.org/2000/svg" fill="none" stroke="#868686" d="M64.1 13.4h2.3c.2 0 .4.2.4.4v2.1c0 .2-.2.4-.4.4h-2.3c-.2 0-.4-.2-.4-.4v-2.1c0-.2.1-.4.4-.4zm9.4 0h2.4c.2 0 .4.2.4.4v2.1c0 .2-.2.4-.4.4h-2.4c-.2 0-.4-.2-.4-.4v-2.1c0-.2.2-.4.4-.4zm-9.8-5h12.6v5H63.7v-5z"/>
<path xmlns="http://www.w3.org/2000/svg" fill="none" stroke="#868686" d="M65.5 3.6h8.9c1 0 1.9.8 1.9 1.9v3.1H63.7V5.5c0-1.1.8-1.9 1.8-1.9z"/>
<circle xmlns="http://www.w3.org/2000/svg" fill="#868686" cx="66.2" cy="10.9" r=".9"/>
<circle xmlns="http://www.w3.org/2000/svg" fill="#868686" cx="73.8" cy="10.9" r=".9"/>
<g xmlns="http://www.w3.org/2000/svg" fill="none" stroke="#868686"><path d="M96.4 10c0 3.6-2.9 6.5-6.4 6.5s-6.4-2.9-6.4-6.5 2.9-6.5 6.4-6.5 6.4 2.9 6.4 6.5z"/><path d="M96.3 8.6v.1c-.9.1-2.9.1-4.6-1.2-1.1-.8-2-1.7-2.6-2.5-.3-.4-.6-.8-.7-1.1-.1-.1-.1-.2-.1-.2.5-.1 1.2-.2 2-.2 1.2 0 2.5.3 3.5 1.1s1.7 1.8 2.1 2.8c.2.5.3.9.4 1.2zM84 12.1V12c.9-.2 2.9-.4 4.7.6 1.1.6 1.9 1.5 2.4 2.3.4.5.6 1 .7 1.3-.4.1-1 .2-1.7.3-1 0-2.1-.1-3.2-.8-1.1-.6-1.9-1.6-2.4-2.5-.3-.4-.4-.8-.5-1.1z"/></g>
<g xmlns="http://www.w3.org/2000/svg" fill="none" stroke="#868686"><path stroke-linecap="round" d="m116.3 6.8-1.4 2-.8-.8-.6-.7v.9l-.1 8.2h-6.8l-.1-8.2v-.9l-.6.7-.8.8-1.4-2 2.6-2.9c.1-.1.2-.1.3-.1h1.3l.4.7c.7 1.3 2.6 1.3 3.3-.1l.3-.6h1.2c.1 0 .2 0 .3.1l.3-.3-.3.3 2.9 2.9z"/><path d="M110.1 7.7h2v.9c0 .4-.4.7-1 .7s-1-.3-1-.7v-.9z"/></g>
<path xmlns="http://www.w3.org/2000/svg" d="M126.8 14.3c0 1.2-1 2.2-2.2 2.2s-2.2-1-2.2-2.2 1-2.2 2.2-2.2 2.2 1 2.2 2.2zm10.8 0c0 1.2-1 2.2-2.2 2.2-1.2 0-2.2-1-2.2-2.2s1-2.2 2.2-2.2c1.2 0 2.2 1 2.2 2.2zm-10.8-9.9v9.9m10.9-9.9v9.9M126.8 3.5h10.8v2.7h-10.8V3.5z" fill="none" stroke="#868686"/>
<g xmlns="http://www.w3.org/2000/svg" fill="#868686"><path d="M170.8 3.1h-.8c-2.1 0-4 1-5.3 2.5h-.1l-.1-.1-1-1.2-.3 3.4 3.4.3-1.1-1.3-.1-.1.1-.1c1.1-1.4 3-2.3 5-2.1 3.2.3 5.5 3.1 5.2 6.3-.3 3-3.1 5.3-6.1 5.1-3.1-.2-5.4-2.9-5.3-6l-1.3-.3c-.2 3.8 2.6 7.1 6.3 7.4 3.9.4 7.3-2.6 7.6-6.5.3-3.6-2.5-6.9-6.1-7.3z"/><path d="M170.3 7.4c0-.3-.3-.6-.6-.6s-.7.3-.7.6v3.2c0 .2.1.3.2.4.1.1.3.2.4.2h2.4c.4 0 .6-.3.6-.6s-.3-.6-.6-.6h-1.8v-.2l.1-2.4z"/></g>
<path xmlns="http://www.w3.org/2000/svg" fill="none" stroke="#868686" d="M186.2 3.4h7.7c1.5 0 2.7 1.2 2.7 2.7v7.7c0 1.5-1.2 2.7-2.7 2.7h-7.7c-1.5 0-2.7-1.2-2.7-2.7V6.1c-.1-1.5 1.2-2.7 2.7-2.7z"/>
<circle xmlns="http://www.w3.org/2000/svg" fill="#868686" cx="186" cy="8.9" r=".7"/>
<circle xmlns="http://www.w3.org/2000/svg" fill="#868686" cx="194" cy="6.7" r=".7"/>
<path xmlns="http://www.w3.org/2000/svg" fill="none" stroke="#868686" stroke-linecap="round" d="m186 13.3.4-.3c.4-.3 1-.3 1.5-.1l1 .4c.5.2 1 .2 1.5-.1l.8-.5c.4-.3 1-.3 1.5-.1l1.8.8"/>
<path xmlns="http://www.w3.org/2000/svg" fill="#868686" stroke="#868686" stroke-width=".25" stroke-miterlimit="10" d="M156 4.3c-.2-.1-.4-.1-.5 0 0 0-.2.1-.9.1s-2.4-.1-3.8-.6c-.8-.3-1.7-.5-2.5-.5h-.5c-1.3 0-2.5.3-3.6 1-.2.1-.2.2-.2.4v11.6c0 .3.1.5.3.5.6 0 .5-.4.5-.6v-5.7c.7-.3 3.2-1.1 5.8-.1 1.6.6 3.5.7 4.3.7.8 0 1.3-.3 1.3-.3.2-.1.3-.2.3-.4V4.7c-.3-.2-.4-.3-.5-.4zm-.4 5.9c-.1 0-.7.1-1 .1-.7 0-2.4-.1-3.8-.6-2.5-1-5-.5-6.2-.1V4.7c.9-.5 2.2-.7 3.2-.7h.4c.7 0 1.5.2 2.2.4 1.6.6 3.5.7 4.3.7.2 0 .8 0 1-.1v5.2z"/>
<path xmlns="http://www.w3.org/2000/svg" fill="none" stroke="#868686" d="M48.1 3.5h3.7c2.5 0 4.5 2 4.5 4.5 0 .5-.4.9-.9.9H44.5c-.5 0-.9-.4-.9-.9 0-2.5 2-4.5 4.5-4.5z"/>
<path xmlns="http://www.w3.org/2000/svg" fill="none" stroke="#868686" stroke-linecap="round" d="M43.5 8.7c-.2.1-.5 1.2 0 1.5 1.4.9 8.5.8 11.3.6.8-.1 1.6-.4 1.7-1.2 0-.3-.1-.6-.6-.9"/>
<path xmlns="http://www.w3.org/2000/svg" fill="none" stroke="#868686" stroke-linecap="round" d="m43.5 10.6-.2.4c-.2.5.2 1 .7.9.3-.1.5.1.7.3l.1.2c.3.5 1 .6 1.5.2h0c.3-.2.7-.3 1-.2l.8.3c.4.1.8.1 1.2 0l.5-.2c.4-.2.9-.2 1.3 0l.5.2c.4.2.8.1 1.2-.1l.2-.1c.3-.2.8-.1 1.1.1l.2.2c.3.3.8.2 1-.2l.1-.2c.1-.2 0-.3.2-.4.5 0 1.2-.3 1.1-.7l-.4-1.1"/>
<path xmlns="http://www.w3.org/2000/svg" fill="none" stroke="#868686" stroke-linecap="round" d="M43.5 12.1c-.1.2-.3.8 0 1.1.3.4 3 1.1 6.4 1.1 2.2 0 4.6-.3 6-.6.5-.1.9-.4.8-.9 0-.2-.2-.5-.4-.7"/>
<path xmlns="http://www.w3.org/2000/svg" fill="none" stroke="#868686" stroke-linecap="round" d="M43.5 13.3c0 .5.6 2.4 1.3 2.6 1.8.8 5.7.7 8.1.5 1.3-.1 2.5-.7 3.2-1.8.3-.5.5-1 .5-1.4"/>
<ellipse xmlns="http://www.w3.org/2000/svg" fill="#868686" cx="51.6" cy="6.5" rx=".3" ry=".4"/>
<ellipse xmlns="http://www.w3.org/2000/svg" fill="#868686" cx="53" cy="4.9" rx=".3" ry=".4"/>
<ellipse xmlns="http://www.w3.org/2000/svg" fill="#868686" cx="53" cy="7.2" rx=".3" ry=".4"/>
<ellipse xmlns="http://www.w3.org/2000/svg" fill="#868686" cx="54.3" cy="6.5" rx=".3" ry=".4"/>
<ellipse xmlns="http://www.w3.org/2000/svg" fill="#868686" cx="50.9" cy="4.9" rx=".3" ry=".4"/>
<path xmlns="http://www.w3.org/2000/svg" fill="none" stroke="#868686" d="M24.2 11V3.5c.1.1.8.9 2.8 3.1 2.5-1.7 5.6-.7 6.9 0l2.4-3.1v7.1c0 1.2-.1 2.5-.9 3.4-1 1.2-2.7 2.5-5.3 2.5-2.9 0-4.5-1.5-5.3-2.9-.6-.7-.6-1.7-.6-2.6z"/>
<path xmlns="http://www.w3.org/2000/svg" fill="none" stroke="#868686" stroke-linecap="round" d="m21.2 10 5.4 1.2m-5.4 2.9 5.4-1.2M38.8 10l-5.4 1.2m5.4 2.9-5.4-1.2"/>
<path xmlns="http://www.w3.org/2000/svg" fill-rule="evenodd" clip-rule="evenodd" fill="#868686" d="m29.5 12.4-.5-.7c-.2-.3 0-.6.3-.6h1.4c.3 0 .5.4.3.6l-.7 1c-.7 1.2-2.6 1.1-3.1-.3l-.1-.2c-.1-.2 0-.4.2-.5s.4 0 .5.2l.1.2c.4.6 1.2.8 1.6.3z"/>
<path xmlns="http://www.w3.org/2000/svg" fill="none" stroke="#868686" stroke-linecap="round" d="m32.4 12.1-.1.2c-.4 1-1.8 1.1-2.3.2"/>
<circle xmlns="http://www.w3.org/2000/svg" fill="#868686" cx="27.6" cy="9.7" r=".7"/>
<circle xmlns="http://www.w3.org/2000/svg" fill="#868686" cx="32.4" cy="9.7" r=".7"/>
</svg>