<svg width="79" height="103" viewBox="0 0 79 103" fill="none" xmlns="http://www.w3.org/2000/svg">
<path d="M0.845962 95.4491L1.08212 7.34051C1.08885 5.5572 1.77987 3.84947 3.00357 2.59196C4.22727 1.33446 5.88372 0.629893 7.60952 0.632822L72.0046 0.817302C73.7304 0.82427 75.3831 1.53833 76.6 2.80282C77.8169 4.06731 78.4988 5.77897 78.4959 7.56229L78.2598 95.6709C78.253 97.4542 77.562 99.162 76.3383 100.419C75.1146 101.677 73.4582 102.382 71.7324 102.379L7.3373 102.194C5.61151 102.187 3.95886 101.473 2.74192 100.209C1.52498 98.9441 0.843131 97.2325 0.845962 95.4491Z" fill="#9098D9"/>
<path d="M5.85762 68.85L6.00945 12.2058C6.01572 10.5356 6.66287 8.93629 7.8089 7.75859C8.95494 6.5809 10.5063 5.92106 12.1225 5.92384L67.4647 6.08238C69.081 6.08885 70.6288 6.75756 71.7686 7.94179C72.9083 9.12603 73.547 10.7291 73.5444 12.3993L73.3342 90.8039C73.3279 92.4741 72.6806 94.0735 71.5346 95.2512C70.3885 96.4289 68.8371 97.0887 67.2208 97.0859L32.9375 96.9877C25.7381 96.9587 18.8437 93.9799 13.767 88.7049C8.69034 83.4299 5.84585 76.2894 5.85762 68.85Z" fill="#E7E7FF"/>
<path d="M61.1208 30.805L17.9681 30.805C17.2814 30.805 16.6228 30.5232 16.1373 30.0214C15.6517 29.5197 15.3789 28.8391 15.3789 28.1296C15.3789 27.42 15.6517 26.7395 16.1373 26.2377C16.6228 25.736 17.2814 25.4541 17.9681 25.4541L61.1208 25.4541C61.8075 25.4541 62.466 25.736 62.9516 26.2377C63.4371 26.7395 63.7099 27.42 63.7099 28.1296C63.7099 28.8391 63.4372 29.5197 62.9516 30.0214C62.466 30.5232 61.8075 30.805 61.1208 30.805Z" fill="#FCF670"/>
<path d="M27.4617 18.4701L17.9681 18.4701C17.2814 18.4701 16.6228 18.1882 16.1373 17.6865C15.6517 17.1847 15.3789 16.5042 15.3789 15.7946C15.3789 15.085 15.6517 14.4045 16.1373 13.9028C16.6228 13.401 17.2814 13.1191 17.9681 13.1191L27.4617 13.1191C28.1484 13.1191 28.8069 13.401 29.2925 13.9028C29.778 14.4045 30.0508 15.085 30.0508 15.7946C30.0508 16.5042 29.778 17.1847 29.2925 17.6865C28.8069 18.1882 28.1484 18.4701 27.4617 18.4701Z" fill="#FCF670"/>
<path d="M61.1208 43.1429L17.9681 43.1429C17.2814 43.1429 16.6228 42.8611 16.1373 42.3593C15.6517 41.8576 15.3789 41.177 15.3789 40.4675C15.3789 39.7579 15.6517 39.0774 16.1373 38.5756C16.6228 38.0739 17.2814 37.792 17.9681 37.792L61.1208 37.792C61.8075 37.792 62.466 38.0739 62.9516 38.5756C63.4371 39.0774 63.7099 39.7579 63.7099 40.4675C63.7099 41.177 63.4372 41.8576 62.9516 42.3593C62.466 42.8611 61.8075 43.1429 61.1208 43.1429Z" fill="#FCF670"/>
<path d="M61.1208 55.4818L17.9681 55.4818C17.2814 55.4818 16.6228 55.1999 16.1373 54.6982C15.6517 54.1964 15.3789 53.5159 15.3789 52.8063C15.3789 52.0967 15.6517 51.4162 16.1373 50.9145C16.6228 50.4127 17.2814 50.1309 17.9681 50.1309L61.1208 50.1309C61.8075 50.1309 62.466 50.4127 62.9516 50.9145C63.4371 51.4162 63.7099 52.0967 63.7099 52.8063C63.7099 53.5159 63.4372 54.1964 62.9516 54.6982C62.466 55.1999 61.8075 55.4818 61.1208 55.4818Z" fill="#FCF670"/>
<path d="M57.6305 87.9867C63.3203 87.9867 67.9327 83.2204 67.9327 77.341C67.9327 71.4615 63.3202 66.6953 57.6304 66.6953C51.9406 66.6953 47.3281 71.4615 47.3282 77.341C47.3282 83.2204 51.9407 87.9867 57.6305 87.9867Z" fill="#9098D9"/>
<path d="M57.1624 82.7661C56.9845 82.7661 56.8091 82.7233 56.65 82.641C56.4908 82.5588 56.3524 82.4394 56.2457 82.2923L53.4351 78.4198C53.3446 78.2954 53.2787 78.1538 53.2412 78.0031C53.2037 77.8524 53.1953 77.6955 53.2165 77.5414C53.2377 77.3873 53.2881 77.2391 53.3648 77.1052C53.4415 76.9712 53.543 76.8542 53.6635 76.7609C53.784 76.6675 53.9211 76.5996 54.067 76.561C54.2129 76.5224 54.3648 76.5139 54.5139 76.5361C54.6629 76.5582 54.8063 76.6104 54.9358 76.6898C55.0654 76.7693 55.1785 76.8743 55.2687 76.9989L57.1075 79.5322L61.8302 72.212C61.9135 72.0821 62.0207 71.9705 62.1458 71.8835C62.2709 71.7964 62.4114 71.7358 62.5592 71.705C62.707 71.6742 62.8593 71.6738 63.0072 71.704C63.1552 71.7341 63.2959 71.7941 63.4214 71.8805C63.5469 71.967 63.6546 72.0781 63.7384 72.2077C63.8222 72.3372 63.8805 72.4826 63.9098 72.6354C63.9392 72.7883 63.939 72.9456 63.9094 73.0984C63.8798 73.2512 63.8213 73.3964 63.7373 73.5258L58.1161 82.2387C58.0144 82.3963 57.8776 82.5264 57.7172 82.6181C57.5569 82.7098 57.3775 82.7604 57.1943 82.7657C57.1837 82.7659 57.1731 82.7661 57.1624 82.7661Z" fill="#FEFEFF"/>
</svg>
