<svg width="226" height="200" viewBox="0 0 226 200" fill="none" xmlns="http://www.w3.org/2000/svg">
<path fill-rule="evenodd" clip-rule="evenodd" d="M216.464 97.5288C217.146 127.965 194.776 157.602 152.27 169.051C105.503 181.649 48.046 177.783 20.044 150.438C-5.18481 125.802 25.4077 95.7563 51.709 70.8499C76.4795 47.3932 108.07 21.5685 149.113 28.2146C193.562 35.4123 215.774 66.7553 216.464 97.5288Z" fill="#F8FFA5" fill-opacity="0.7"/>
<path d="M161.029 63.1599C159.322 56.9354 173.092 51.5977 176.707 56.6103C177.21 55.8977 179.068 55.4648 179.921 55.6834C180.774 55.902 181.491 56.4486 182.19 56.9776C183.152 57.7165 184.149 58.4816 184.739 59.5441C185.334 60.6021 185.426 62.045 184.625 62.9631C183.992 63.6932 182.12 64.1655 181.167 64.3578C180.503 64.4934 179.943 64.6027 179.462 64.6814C179.025 64.052 178.824 63.2888 178.894 62.5259C178.57 62.7443 178.298 63.0316 178.099 63.3672C177.899 63.7028 177.777 64.0784 177.739 64.4671C177.726 64.6289 183.113 84.4479 183.113 84.4479C182.466 84.8163 181.785 85.1222 181.08 85.3617C179.685 83.2298 178.616 80.9014 177.91 78.4537C177.747 80.0904 177.768 81.7402 177.971 83.3724C178.079 84.2876 178.234 85.1968 178.434 86.0962C172.034 87.4779 162.406 87.0232 158.218 81.147C158.217 81.1227 158.216 81.0983 158.215 81.074C158.212 80.842 158.128 80.6184 157.978 80.4415C157.828 80.2645 157.622 80.1452 157.393 80.104C157.165 80.0628 156.93 80.1023 156.727 80.2156C156.525 80.3289 156.368 80.5091 156.284 80.7253C156.182 80.9845 156.089 81.2089 156.005 81.3874C154.785 77.024 156.364 71.9741 161.029 63.1599Z" fill="#2F2E41"/>
<path d="M150.139 167.516V167.719C150.131 167.652 150.131 167.583 150.139 167.516Z" fill="#2F2E41"/>
<path d="M156.406 132.289C156.569 132.245 156.735 132.213 156.902 132.193C156.71 132.224 156.545 132.256 156.406 132.289Z" fill="#2F2E41"/>
<path d="M156.262 132.326C156.306 132.314 156.355 132.301 156.407 132.289C156.358 132.302 156.312 132.311 156.262 132.326Z" fill="#2F2E41"/>
<path d="M202.575 187.912H179.112C178.778 187.645 178.545 187.271 178.454 186.852C178.362 186.434 178.417 185.997 178.61 185.615C179.251 184.145 177.995 182.801 177.995 182.801C177.569 182.302 177.272 181.705 177.132 181.063C176.992 180.422 177.012 179.755 177.191 179.123C177.813 176.952 175.377 170.824 175.377 170.824C175.377 170.824 174.063 178.737 172.454 187.912H150.14C149.767 187.275 149.57 186.551 149.57 185.812C149.57 185.074 149.767 184.349 150.14 183.712C151.441 181.507 150.14 181.084 150.14 181.084C150.14 181.084 148.84 178.617 150.14 176.826C151.441 175.034 150.14 167.719 150.14 167.719C150.189 168.043 150.56 167.455 151.13 166.222C151.999 164.346 153.326 160.973 154.666 157.056C155.625 154.261 156.591 151.186 157.399 148.179H157.401C157.612 147.389 157.813 146.607 158.002 145.831C158.373 144.31 158.69 142.832 158.931 141.444C159.455 138.455 159.627 135.888 159.225 134.218C158.892 132.828 158.163 132.061 156.905 132.193C157.579 132.081 158.567 131.975 159.784 131.875C160.004 131.858 160.231 131.84 160.466 131.82C169.545 131.134 189.025 130.74 189.025 130.74L194.991 141.425L202.547 154.959C202.547 154.959 202.341 173.115 202.575 187.912Z" fill="#2F2E41"/>
<path d="M177.527 84.5603L163.781 81.6444L161.052 87.1382L151.86 92.4595C151.86 92.4595 157.785 116.684 157.751 120.091C157.665 128.741 143.825 148.131 154.279 146.64C164.733 145.148 166.857 138.9 170.213 139.888C173.239 140.779 176.935 144.742 179.409 141.908C181.884 139.073 182.755 142.346 184.319 142.459C185.063 142.513 184.615 138.88 186.486 142.572C188.357 146.265 198.276 141.294 194.914 137.932C189.315 132.333 188.177 91.0556 188.177 91.0556L181.944 89.1376L177.527 84.5603Z" fill="#9098D9"/>
<path d="M151.604 172.533C152.157 171.874 152.43 171.026 152.367 170.169C152.303 169.312 151.908 168.513 151.265 167.943C151.132 167.829 150.99 167.727 150.841 167.636L153.139 156.357L147.826 153.176L146.348 168.969C146.021 169.618 145.918 170.357 146.055 171.071C146.192 171.784 146.562 172.432 147.106 172.914C147.419 173.185 147.781 173.392 148.174 173.523C148.566 173.653 148.98 173.706 149.393 173.677C149.805 173.647 150.208 173.537 150.578 173.352C150.948 173.167 151.278 172.912 151.549 172.599C151.568 172.577 151.586 172.555 151.604 172.533Z" fill="#FFB6B6"/>
<path d="M168.101 113.076C168.067 112.713 167.605 112.549 166.964 112.321C166.32 112.123 165.708 111.833 165.147 111.461C163.728 110.436 164.286 109.364 165.059 107.882C165.21 107.594 165.366 107.294 165.513 106.982C165.951 106.059 165.255 102.25 163.442 95.6607C162.883 93.632 162.885 92.1992 162.499 91.2485C162.115 90.2979 161.344 89.8294 159.245 89.7314C156.708 89.6033 154.223 90.4865 152.336 92.1874C152.285 92.2325 152.232 92.2815 152.181 92.3285C152.085 92.4187 151.991 92.5108 151.899 92.6049C150.153 94.3607 149.155 96.7233 149.111 99.1986L149.102 99.62L148.668 119.754L147.451 137.422L145.773 161.761L147.016 161.821L151.975 162.068L152.577 162.098L154.004 156.112L155.721 148.908L156.352 146.262L158.31 138.053L159.224 134.218L159.782 131.875L160.01 130.919L161.119 126.269C161.144 126.171 163.696 116.102 166.639 114.419C167.736 113.791 168.132 113.427 168.101 113.076Z" fill="#9098D9"/>
<path d="M201.111 172.413C200.491 171.818 200.128 171.004 200.099 170.145C200.07 169.286 200.377 168.449 200.956 167.813C201.075 167.686 201.205 167.569 201.344 167.463L197.848 156.495L202.789 152.763L205.954 168.305C206.349 168.915 206.531 169.639 206.471 170.363C206.411 171.087 206.113 171.771 205.624 172.309C205.342 172.612 205.004 172.856 204.628 173.028C204.252 173.201 203.846 173.297 203.433 173.312C203.019 173.328 202.607 173.261 202.219 173.117C201.832 172.973 201.476 172.754 201.173 172.473C201.152 172.453 201.131 172.433 201.111 172.413Z" fill="#FFB6B6"/>
<path d="M203.529 148.614C203.529 148.614 199.675 135.056 200.85 133.588C202.026 132.12 198.555 131.833 200.05 129.1C201.546 126.366 199.482 125.909 199.482 125.909L198.361 119.624L196.358 104.186L196.298 103.727L195.715 99.2354C195.552 97.9526 195.133 96.7157 194.481 95.5988C193.829 94.4818 192.959 93.5078 191.923 92.7349C191.87 92.6943 191.816 92.6554 191.761 92.6165C191.515 92.4389 191.263 92.2745 191.006 92.1231C189.083 90.9889 186.826 90.5601 184.621 90.9103C180.467 91.5573 181.76 93.1063 181.086 97.256C179.992 104.003 179.708 107.864 180.241 108.736C180.421 109.029 180.61 109.31 180.79 109.58C181.718 110.972 182.388 111.977 181.087 113.151C180.568 113.58 179.991 113.933 179.373 114.199C178.761 114.495 178.318 114.708 178.324 115.072C178.331 115.425 178.764 115.743 179.922 116.249C181.325 116.863 182.832 119.184 184.066 121.556C185.045 123.467 185.919 125.431 186.683 127.439L197.292 157.277L199.022 162.144L199.619 162.049L204.521 161.272L205.751 161.077L203.529 148.614Z" fill="#9098D9"/>
<path d="M171.73 81.4384C177.924 81.4384 182.945 76.4173 182.945 70.2235C182.945 64.0297 177.924 59.0087 171.73 59.0087C165.537 59.0087 160.516 64.0297 160.516 70.2235C160.516 76.4173 165.537 81.4384 171.73 81.4384Z" fill="#FFB6B6"/>
<path d="M154.912 64.0343C153.204 57.8098 166.974 52.4722 170.59 57.4848C171.093 56.7721 172.951 56.3393 173.804 56.5579C174.656 56.7765 175.373 57.323 176.073 57.852C177.035 58.5909 178.032 59.3561 178.622 60.4185C179.217 61.4766 179.308 62.9194 178.508 63.8375C177.874 64.5677 176.003 65.0399 175.05 65.2323C174.385 65.3678 173.826 65.4771 173.345 65.5558C172.908 64.9264 172.707 64.1633 172.776 63.4003C172.453 63.6187 172.181 63.906 171.982 64.2416C171.782 64.5772 171.659 64.9529 171.622 65.3416C171.609 65.5033 176.996 85.3224 176.996 85.3224C176.348 85.6907 175.668 85.9967 174.962 86.2362C173.568 84.1043 172.499 81.7759 171.793 79.3281C171.63 80.9649 171.651 82.6146 171.854 84.2468C171.962 85.1621 172.117 86.0712 172.317 86.9707C165.916 88.3523 156.289 87.8976 152.1 82.0214C152.1 81.9971 152.099 81.9728 152.098 81.9484C152.095 81.7165 152.011 81.4929 151.861 81.3159C151.711 81.139 151.504 81.0197 151.276 80.9785C151.048 80.9373 150.812 80.9767 150.61 81.0901C150.408 81.2034 150.251 81.3836 150.167 81.5997C150.065 81.859 149.972 82.0834 149.888 82.2619C148.668 77.8984 150.247 72.8486 154.912 64.0343Z" fill="#2F2E41"/>
<path d="M56.4474 56.6106C56.239 57.0962 49.8134 57.0442 49.5191 57.4766C47.2501 60.8152 55.4294 75.0199 53.1604 78.3628L52.8444 78.7395C53.5846 78.3984 54.2957 77.9972 54.9704 77.54C55.0311 76.1717 55.0917 74.7991 55.1566 73.4307C55.8363 74.3001 56.3848 75.2645 56.7848 76.293C57.3131 75.9206 57.7464 75.2302 60.0108 73.8724C60.9275 72.8654 61.9842 71.9955 63.1486 71.2894L56.4474 56.6106Z" fill="#2F2E41"/>
<path d="M61.1132 83.9719C60.4042 83.51 59.5952 83.2238 58.7533 83.1372C57.9115 83.0505 57.0612 83.1659 56.2729 83.4737C55.4846 83.7815 54.7811 84.2728 54.2207 84.9069C53.6603 85.5411 53.2592 86.2997 53.0507 87.1199L43.2861 112.562L26.502 103.034C26.4283 101.938 26.0096 100.894 25.306 100.052C24.6024 99.2092 23.65 98.6111 22.5855 98.3432C21.5209 98.0753 20.3988 98.1514 19.3802 98.5607C18.3616 98.9699 17.4988 99.6912 16.9154 100.621C16.3321 101.551 16.0583 102.642 16.1332 103.737C16.2082 104.832 16.628 105.876 17.3325 106.717C18.0371 107.559 18.9901 108.156 20.055 108.423C21.1199 108.69 22.2418 108.612 23.26 108.202C26.7946 111.974 42.1184 127.441 48.4623 121.398C53.7947 116.318 61.49 96.6312 63.3424 89.8328C63.6391 88.7457 63.5832 87.5925 63.1826 86.5392C62.782 85.486 62.0574 84.587 61.1132 83.9719Z" fill="#FFB6B6"/>
<path d="M42.7812 122.464L45.8626 136.392L68.3949 138.43L70.4657 126.303L42.7812 122.464Z" fill="#FFB6B6"/>
<path d="M77.1989 158.179C77.1886 158.379 77.1762 158.577 77.1618 158.776C76.9457 161.662 76.6987 164.991 76.4311 168.638C76.0091 174.426 75.5378 181.017 75.0623 187.912H27.8008L36.9667 160.362C36.9667 160.362 40.6676 158.324 38.7834 154.901C36.8992 151.478 40.6066 154.206 40.6411 149.318C40.6756 144.429 43.9979 139.228 43.9979 139.228L44.5433 131.827L44.8541 131.833L69.4492 132.242L69.8979 132.251L70.6533 138.605C75.24 144.063 77.5799 151.06 77.1989 158.179Z" fill="#5E66A7"/>
<path d="M56.8411 77.2222L68.0564 76.6445L73.2657 84.8757C73.2657 84.8757 83.067 86.5144 82.3876 98.064C81.7082 109.614 70.4623 119.748 70.4623 119.748L70.9431 118.1L70.1082 120.486L70.2152 121.826L71.3542 123.244L71.4715 124.711L70.4623 127.032C70.5936 127.243 70.6632 127.486 70.6634 127.734C70.6635 127.981 70.5942 128.224 70.4633 128.435C70.3323 128.646 70.145 128.815 69.9225 128.925C69.7001 129.034 69.4514 129.079 69.2048 129.054L52.9994 127.43C52.6305 126.415 52.3344 125.201 50.8555 127.222L49.3289 127.075L42.983 126.46L42.6095 125.099C42.3972 124.326 42.3642 123.515 42.5128 122.727C42.6614 121.939 42.9877 121.195 43.467 120.553C42.9158 118.827 43.0602 116.953 43.8694 115.332L43.8997 115.271L44.5736 114.71C44.5736 114.71 37.2008 103.633 45.6646 95.2904L49.0615 89.5156L52.8624 84.8783L56.8411 77.2222Z" fill="#5E66A7"/>
<path d="M59.6353 72.3633C65.509 72.3633 70.2705 67.6018 70.2705 61.7281C70.2705 55.8544 65.509 51.0928 59.6353 51.0928C53.7616 51.0928 49 55.8544 49 61.7281C49 67.6018 53.7616 72.3633 59.6353 72.3633Z" fill="#FFB6B6"/>
<path d="M67.7088 77.0489C66.8427 76.3252 66.2399 75.3358 65.994 74.2343C65.7973 75.5717 65.8487 76.9339 66.1456 78.2527C65.5697 78.6857 65.0111 79.0971 64.4828 79.4695C64.0828 78.441 63.5343 77.4766 62.8546 76.6072C62.7897 77.9755 62.7291 79.3482 62.6685 80.7165C61.9937 81.1737 61.2826 81.5749 60.5424 81.916L60.8584 81.5393C63.1274 78.1964 57.2558 72.0432 59.5248 68.7047C60.1613 67.7694 57.2861 60.3778 55.095 60.0444C53.1464 59.7499 53.2287 60.3128 51.3408 60.7242C51.1447 59.9065 50.8403 59.1187 50.4358 58.3816C50.5435 59.203 50.5186 60.0363 50.3622 60.8498C49.691 60.8758 49.1629 60.4481 48.4482 60.3388C43.8886 59.6417 44.3519 54.7096 45.6206 53.1464C46.8937 51.5876 51.1199 51.1199 53.0685 50.6133C53.246 50.4401 53.6487 50.5483 53.8263 50.3838C57.5606 46.9662 62.555 46.4002 67.0495 47.915C71.8426 49.5303 74.831 52.6568 76.3647 57.4766L76.8046 61.3337C77.1993 62.5738 76.7028 68.3443 76.3647 69.601C75.0505 74.4863 72.2516 72.0476 67.7088 77.0489Z" fill="#2F2E41"/>
<path d="M83.2176 127.436L82.7989 94.8269C82.7771 93.4454 82.213 92.1279 81.2283 91.1587C80.2436 90.1894 78.9174 89.6462 77.5357 89.6462C76.8209 89.6462 76.1137 89.7918 75.457 90.0741C74.8003 90.3563 74.208 90.7694 73.7162 91.288C73.2243 91.8066 72.8433 92.42 72.5962 93.0907C72.3492 93.7615 72.2413 94.4755 72.2792 95.1892L73.7526 129.049L73.7806 149.661C72.9122 150.029 72.1782 150.656 71.6784 151.456C71.1786 152.256 70.9371 153.19 70.9869 154.132C71.0366 155.074 71.375 155.978 71.9563 156.72C72.5375 157.463 73.3334 158.009 74.2357 158.284C75.138 158.559 76.103 158.549 76.9996 158.256C77.8963 157.964 78.6811 157.402 79.2474 156.648C79.8137 155.893 80.134 154.983 80.165 154.04C80.1959 153.098 79.9358 152.168 79.4201 151.378L83.2176 127.436Z" fill="#FFB6B6"/>
<path d="M138.108 169.625C138.108 169.625 137.461 181.271 137.163 187.913H114.87C114.411 181.868 114.256 177.427 114.256 177.427L113.037 187.913H90.5025L89.1055 168.493L95.8566 151.759C95.8566 151.759 132.443 149.221 135.836 152.44C139.228 155.657 138.108 169.625 138.108 169.625Z" fill="#2F2E41"/>
<path d="M118.392 71.6541C125.117 71.6541 130.569 66.2022 130.569 59.4769C130.569 52.7516 125.117 47.2997 118.392 47.2997C111.667 47.2997 106.215 52.7516 106.215 59.4769C106.215 66.2022 111.667 71.6541 118.392 71.6541Z" fill="#FFB6B6"/>
<path d="M132.587 55.52C131.336 56.0904 130.526 60.2209 129.543 59.2607C128.56 58.3004 128.625 57.0507 127.3 56.6964C126.23 56.4089 125.078 56.7374 124.101 57.2555C123.927 57.3469 123.758 57.4463 123.593 57.5451C123.485 57.4725 123.377 57.4041 123.26 57.341C122.387 56.8737 121.368 56.7591 120.413 57.0207C121.167 57.2735 121.824 57.7573 122.289 58.4035C121.962 58.6224 121.631 58.842 121.292 59.0365C118.464 60.6686 114.44 57.1197 111.463 55.7865C113.328 59.2856 112.409 60.7347 110.79 64.3536L110.734 64.5597C110.826 63.6527 108.02 62.9768 108.183 64.2535C108.298 65.16 109.083 67.175 109.522 67.9753C106.392 64.3563 104.253 59.9276 104.705 55.3591C104.803 54.3994 104.773 53.3868 105.268 52.5538C105.764 51.7251 106.797 51.1436 107.711 51.4596C107.633 50.0026 107.952 48.5519 108.633 47.2617C109.315 45.9714 110.333 44.8899 111.579 44.1321C112.826 43.3742 114.255 42.9684 115.714 42.9577C117.173 42.947 118.608 43.3319 119.865 44.0714C121.034 44.7572 122.01 45.727 123.081 46.5636C124.152 47.4002 125.387 48.1295 126.745 48.1985C127.607 48.2401 128.544 48.0297 129.284 48.476C130.142 48.9938 130.289 50.078 130.417 51.1212C129.653 51.1966 128.928 51.4984 128.335 51.9878C129.126 51.9071 129.923 52.078 130.612 52.4762C130.625 52.4821 130.637 52.4892 130.649 52.4974C131.102 54.2215 131.056 54.6037 132.587 55.52Z" fill="#2F2E41"/>
<path d="M90.5586 157.65C100.929 145.512 97.4259 130.073 93.3101 114.488L94.0933 91.465C94.1317 90.3356 94.4413 89.2321 94.996 88.2475C95.5506 87.263 96.334 86.4264 97.2801 85.8083L107.866 78.8923L111.987 72.9349L123.345 74.0706L129.643 80.7314L136.615 86.0536C138.365 87.39 139.697 89.1989 140.453 91.2672C141.21 93.3356 141.359 95.577 140.883 97.7273L134.212 127.899C134.212 127.899 137.002 143.54 135.3 145.267C133.597 146.994 129.21 145.268 132.689 147.207C136.864 149.534 140.66 149.105 138.547 151.217C136.435 153.33 139.109 156.268 139.109 156.268L90.5586 157.65Z" fill="#9098D9"/>
<path d="M94.989 175.291L96.7178 162.974L89.8196 161.005L88.4552 174.092C87.8843 174.615 87.4707 175.288 87.261 176.033C87.0513 176.779 87.0537 177.568 87.268 178.313C87.4822 179.057 87.8999 179.727 88.4739 180.247C89.048 180.767 89.7557 181.116 90.5175 181.256C91.2794 181.396 92.0651 181.32 92.7863 181.038C93.5076 180.756 94.1358 180.278 94.6004 179.658C95.065 179.038 95.3475 178.301 95.4161 177.53C95.4848 176.758 95.3369 175.983 94.989 175.291Z" fill="#FFB6B6"/>
<path d="M108.125 81.1125C108.125 81.1125 88.4902 87.5031 88.022 92.1791C87.5538 96.855 87.7091 99.7174 85.6367 118.428L85.7459 168.831C85.7459 168.831 98.9101 171.649 97.56 168.636C96.21 165.622 96.681 164.205 96.681 164.205C96.681 164.205 99.5035 163.091 98.797 159.553C98.0904 156.014 101.633 138.48 101.633 138.48L103.87 107.032L108.125 81.1125Z" fill="#9098D9"/>
<path d="M132.334 174.639L131.414 162.235L138.426 160.721L138.932 173.869C139.468 174.429 139.836 175.127 139.997 175.885C140.158 176.642 140.104 177.43 139.841 178.159C139.579 178.887 139.118 179.528 138.511 180.01C137.904 180.491 137.175 180.793 136.406 180.883C135.637 180.973 134.858 180.846 134.156 180.517C133.455 180.189 132.859 179.671 132.436 179.022C132.013 178.373 131.78 177.619 131.762 176.845C131.743 176.07 131.942 175.306 132.334 174.639Z" fill="#FFB6B6"/>
<path d="M125.387 79.8032C125.387 79.8032 144.562 87.4636 144.724 92.1601C144.885 96.8567 144.543 99.7029 145.388 118.509L141.985 168.797C141.985 168.797 128.664 170.749 130.208 167.83C131.753 164.911 131.375 163.466 131.375 163.466C131.375 163.466 128.632 162.17 129.568 158.685C130.504 155.201 128.115 137.472 128.115 137.472L127.939 105.946L125.387 79.8032Z" fill="#9098D9"/>
<path d="M55.2794 63.5989C55.4149 64.0518 55.2248 64.4925 54.9157 64.5614C54.6066 64.6304 54.2815 64.3047 54.1748 63.8431C54.0682 63.3815 54.2366 62.9473 54.5385 62.8805C54.8404 62.8137 55.1706 63.1301 55.2794 63.5989Z" fill="#263238"/>
<path d="M50.0176 64.781C50.1171 65.2447 49.9558 65.6767 49.6539 65.7435C49.352 65.8104 49.0197 65.4868 48.9131 65.0252C48.8064 64.5636 48.9749 64.1294 49.2768 64.0626C49.5787 63.9958 49.9174 64.341 50.0176 64.781Z" fill="#263238"/>
<path d="M51.7469 64.6318C51.5116 66.1762 51.0634 67.6809 50.4152 69.1033C50.786 69.2595 51.1867 69.3327 51.5891 69.3179C51.9916 69.303 52.386 69.2005 52.7447 69.0174L51.7469 64.6318Z" fill="#D89090"/>
<path d="M56.5273 61.5339C56.4792 61.552 56.4273 61.5573 56.3766 61.549C56.3259 61.5408 56.2783 61.5195 56.2386 61.4871C55.9761 61.2547 55.6629 61.0866 55.3238 60.9963C54.9847 60.906 54.629 60.8959 54.2851 60.967C54.2144 60.9881 54.1382 60.9804 54.0733 60.9455C54.0084 60.9105 53.96 60.8513 53.9389 60.7807C53.9178 60.7102 53.9257 60.6341 53.9608 60.5693C53.9958 60.5044 54.0553 60.4561 54.126 60.4349C54.5581 60.3341 55.008 60.3381 55.438 60.4467C55.8679 60.5552 56.2654 60.7651 56.5971 61.0587C56.6262 61.0818 56.6502 61.1104 56.668 61.1429C56.6857 61.1754 56.6968 61.2111 56.7005 61.248C56.7042 61.2848 56.7005 61.322 56.6896 61.3574C56.6786 61.3928 56.6607 61.4257 56.6369 61.4541C56.6048 61.4863 56.5678 61.5132 56.5273 61.5339Z" fill="#263238"/>
<path d="M55.3836 70.6488C56.041 70.4387 56.6382 70.0737 57.1247 69.5846C57.6111 69.0955 57.9724 68.4967 58.178 67.839C58.1835 67.8201 58.1849 67.8003 58.1824 67.7808C58.1798 67.7613 58.1732 67.7426 58.163 67.7258C58.1528 67.709 58.1393 67.6944 58.1232 67.6831C58.1071 67.6718 58.0888 67.6639 58.0695 67.66C58.0506 67.6546 58.0307 67.6531 58.0112 67.6557C57.9917 67.6583 57.9729 67.6649 57.956 67.6751C57.9392 67.6853 57.9246 67.6989 57.9132 67.7149C57.9019 67.731 57.894 67.7492 57.89 67.7685C57.6871 68.3735 57.346 68.9231 56.8935 69.3739C56.441 69.8247 55.8896 70.1642 55.2831 70.3655C55.2638 70.3712 55.246 70.3808 55.2306 70.3938C55.2153 70.4068 55.203 70.4229 55.1943 70.441C55.1856 70.4592 55.1809 70.4789 55.1804 70.4989C55.1799 70.519 55.1836 70.5389 55.1914 70.5574C55.197 70.5767 55.2067 70.5945 55.2197 70.6098C55.2327 70.6251 55.2488 70.6374 55.267 70.646C55.2851 70.6546 55.3049 70.6593 55.3249 70.6598C55.345 70.6603 55.365 70.6565 55.3836 70.6488Z" fill="#263238"/>
<path d="M47.3604 63.4766C47.3123 63.4962 47.2598 63.5023 47.2086 63.4943C47.1573 63.4863 47.1092 63.4646 47.0695 63.4314C47.0297 63.3982 46.9997 63.3549 46.9828 63.306C46.9658 63.257 46.9626 63.2044 46.9733 63.1538C47.0657 62.7191 47.2614 62.3129 47.5439 61.9693C47.8265 61.6258 48.1876 61.355 48.5968 61.1799C48.6313 61.1675 48.6678 61.1619 48.7044 61.1637C48.741 61.1654 48.7768 61.1743 48.8099 61.1898C48.843 61.2054 48.8727 61.2273 48.8973 61.2544C48.9218 61.2814 48.9408 61.3131 48.9531 61.3475C48.9762 61.4169 48.9715 61.4926 48.9402 61.5589C48.9089 61.6251 48.8532 61.6768 48.7848 61.7033C48.4655 61.851 48.1852 62.0711 47.9662 62.3461C47.7472 62.621 47.5956 62.9432 47.5234 63.2869C47.5124 63.3287 47.4921 63.3676 47.4638 63.4005C47.4356 63.4334 47.4002 63.4594 47.3604 63.4766Z" fill="#263238"/>
<path d="M175.241 70.6103C175.241 71.1253 175.577 71.5258 175.921 71.5012C176.265 71.4767 176.502 71.0353 176.47 70.5204C176.437 70.0055 176.126 69.605 175.79 69.6295C175.454 69.654 175.208 70.0872 175.241 70.6103Z" fill="#263238"/>
<path d="M181.1 70.2015C181.141 70.7165 181.444 71.1169 181.78 71.0924C182.116 71.0679 182.362 70.6265 182.329 70.1116C182.296 69.5967 181.985 69.1962 181.649 69.2207C181.313 69.2452 181.068 69.7111 181.1 70.2015Z" fill="#263238"/>
<path d="M179.25 70.5859C179.977 72.124 180.915 73.5542 182.035 74.8361C181.697 75.1148 181.302 75.3163 180.877 75.4264C180.453 75.5366 180.009 75.5527 179.578 75.4736L179.25 70.5859Z" fill="#D89090"/>
<path d="M173.296 68.8448C173.352 68.8487 173.408 68.8379 173.458 68.8136C173.508 68.7892 173.551 68.752 173.583 68.7059C173.784 68.3814 174.058 68.1082 174.384 67.9082C174.71 67.7081 175.078 67.5866 175.459 67.5534C175.539 67.5534 175.616 67.5215 175.673 67.4648C175.73 67.4081 175.762 67.3312 175.762 67.251C175.762 67.1708 175.73 67.0939 175.673 67.0371C175.616 66.9804 175.539 66.9486 175.459 66.9486C174.976 66.9782 174.508 67.1229 174.093 67.3703C173.678 67.6178 173.329 67.9608 173.075 68.3707C173.052 68.4039 173.035 68.4412 173.027 68.4807C173.019 68.5201 173.018 68.5609 173.026 68.6005C173.034 68.6401 173.049 68.6777 173.072 68.7113C173.094 68.7448 173.123 68.7736 173.157 68.7958C173.2 68.8193 173.247 68.8358 173.296 68.8448Z" fill="#263238"/>
<path d="M177.335 77.9991C176.583 77.9852 175.846 77.7907 175.186 77.4321C174.526 77.0736 173.962 76.5616 173.542 75.9394C173.53 75.9214 173.523 75.9012 173.519 75.8801C173.516 75.8589 173.517 75.8373 173.522 75.8166C173.528 75.7959 173.537 75.7765 173.551 75.7596C173.564 75.7428 173.58 75.7289 173.599 75.7188C173.617 75.7072 173.638 75.6995 173.659 75.6961C173.68 75.6927 173.702 75.6938 173.722 75.6991C173.743 75.7045 173.763 75.7141 173.78 75.7273C173.796 75.7405 173.81 75.7571 173.821 75.776C174.221 76.3439 174.749 76.811 175.361 77.1401C175.974 77.4692 176.656 77.6514 177.351 77.6722C177.373 77.6721 177.395 77.6766 177.415 77.6854C177.435 77.6942 177.453 77.7071 177.468 77.7233C177.482 77.7395 177.493 77.7586 177.5 77.7794C177.507 77.8002 177.509 77.8221 177.507 77.8438C177.507 77.8657 177.503 77.8873 177.494 77.9073C177.485 77.9273 177.472 77.9452 177.456 77.9599C177.439 77.9745 177.42 77.9856 177.4 77.9924C177.379 77.9991 177.357 78.0014 177.335 77.9991Z" fill="#263238"/>
<path d="M183.468 68.0111C183.524 68.0165 183.58 68.0065 183.631 67.9822C183.682 67.9579 183.726 67.9202 183.757 67.8732C183.788 67.8261 183.806 67.7715 183.808 67.7152C183.811 67.6589 183.798 67.6029 183.771 67.5534C183.539 67.1287 183.208 66.7659 182.806 66.4956C182.404 66.2253 181.942 66.0555 181.461 66.0005C181.421 65.9983 181.381 66.0039 181.343 66.0171C181.306 66.0303 181.271 66.0508 181.241 66.0773C181.212 66.1039 181.187 66.1361 181.17 66.172C181.153 66.2079 181.143 66.2468 181.141 66.2865C181.139 66.3662 181.167 66.4438 181.221 66.5031C181.274 66.5625 181.348 66.599 181.428 66.6053C181.807 66.6598 182.168 66.802 182.483 67.0205C182.797 67.2391 183.056 67.5279 183.238 67.864C183.263 67.9043 183.296 67.9385 183.336 67.964C183.376 67.9895 183.421 68.0056 183.468 68.0111Z" fill="#263238"/>
<path d="M115.748 60.5307C115.748 61.1123 116.133 61.5647 116.528 61.537C116.922 61.5093 117.194 61.0108 117.157 60.4292C117.119 59.8475 116.762 59.3952 116.377 59.4228C115.993 59.4505 115.711 59.9399 115.748 60.5307Z" fill="#263238"/>
<path d="M122.495 60.5307C122.542 61.1123 122.889 61.5647 123.274 61.537C123.659 61.5093 123.94 61.0108 123.903 60.4292C123.865 59.8475 123.509 59.3952 123.124 59.4228C122.739 59.4505 122.457 59.9768 122.495 60.5307Z" fill="#263238"/>
<path d="M120.341 61.6722C120.798 62.967 121.435 64.1934 122.234 65.3166C121.934 65.5108 121.595 65.6383 121.241 65.6901C120.886 65.7419 120.524 65.7168 120.18 65.6164L120.341 61.6722Z" fill="#D89090"/>
<path d="M113.815 58.2152C113.879 58.2196 113.943 58.2074 114 58.1799C114.058 58.1523 114.107 58.1104 114.143 58.0582C114.374 57.6917 114.688 57.3832 115.062 57.1572C115.435 56.9312 115.857 56.794 116.293 56.7565C116.385 56.7565 116.474 56.7205 116.539 56.6565C116.604 56.5924 116.641 56.5055 116.641 56.4149C116.641 56.3243 116.604 56.2374 116.539 56.1734C116.474 56.1093 116.385 56.0733 116.293 56.0733C115.74 56.1068 115.204 56.2702 114.728 56.5497C114.253 56.8292 113.853 57.2167 113.561 57.6797C113.535 57.7171 113.516 57.7593 113.507 57.8039C113.497 57.8485 113.497 57.8945 113.505 57.9392C113.514 57.9839 113.532 58.0265 113.558 58.0644C113.583 58.1023 113.616 58.1347 113.655 58.1598C113.705 58.1863 113.759 58.205 113.815 58.2152Z" fill="#263238"/>
<path d="M122.821 67.6398C122.092 68.0911 121.263 68.3629 120.405 68.4323C119.546 68.5017 118.683 68.3667 117.889 68.0385C117.867 68.0287 117.846 68.0143 117.83 67.9965C117.813 67.9786 117.801 67.9575 117.793 67.9346C117.785 67.9117 117.782 67.8875 117.784 67.8634C117.786 67.8393 117.793 67.8159 117.805 67.7946C117.815 67.7726 117.83 67.7527 117.848 67.7365C117.866 67.7202 117.887 67.7078 117.911 67.7C117.934 67.6922 117.959 67.6893 117.983 67.6914C118.008 67.6934 118.031 67.7004 118.053 67.712C118.795 68.0009 119.594 68.116 120.389 68.0481C121.184 67.9802 121.951 67.7312 122.631 67.3209C122.652 67.3072 122.676 67.2981 122.7 67.294C122.725 67.2899 122.751 67.291 122.775 67.2973C122.799 67.3035 122.822 67.3147 122.841 67.3301C122.861 67.3455 122.877 67.3648 122.889 67.3868C122.902 67.4073 122.912 67.4305 122.916 67.4549C122.92 67.4792 122.919 67.5041 122.913 67.528C122.906 67.5519 122.895 67.5742 122.879 67.5935C122.863 67.6127 122.844 67.6285 122.821 67.6398Z" fill="#263238"/>
<path d="M125.472 57.2716C125.537 57.2777 125.602 57.2664 125.66 57.239C125.719 57.2115 125.768 57.1689 125.804 57.1158C125.84 57.0627 125.86 57.001 125.863 56.9374C125.866 56.8737 125.851 56.8106 125.82 56.7546C125.554 56.2749 125.175 55.8651 124.714 55.5598C124.253 55.2545 123.724 55.0627 123.172 55.0005C123.127 54.998 123.081 55.0044 123.038 55.0193C122.995 55.0342 122.955 55.0573 122.921 55.0874C122.887 55.1174 122.859 55.1537 122.84 55.1943C122.82 55.2348 122.809 55.2788 122.806 55.3236C122.803 55.4137 122.836 55.5013 122.897 55.5683C122.958 55.6353 123.043 55.6766 123.135 55.6837C123.569 55.7452 123.983 55.9059 124.344 56.1527C124.704 56.3996 125 56.7258 125.21 57.1054C125.238 57.1509 125.276 57.1896 125.322 57.2183C125.367 57.2471 125.419 57.2654 125.472 57.2716Z" fill="#263238"/>
</svg>
