<svg width="100" height="140" viewBox="0 0 100 140" fill="none" xmlns="http://www.w3.org/2000/svg">
<path d="M50 20C37.0064 20.0051 24.5246 25.1023 15.1965 34.2128C5.86835 43.3234 0.425989 55.7322 0.0212751 68.8129C0.0069894 69.3237 0 69.8417 0 70.3597C0 80.3199 2.93242 90.0564 8.42649 98.338C13.9206 106.62 21.7295 113.074 30.8658 116.886C40.0021 120.698 50.0555 121.695 59.7545 119.752C69.4536 117.809 78.3627 113.012 85.3553 105.969C92.348 98.9265 97.11 89.9532 99.0392 80.1844C100.969 70.4156 99.9783 60.2899 96.194 51.0879C92.4096 41.8859 86.001 34.0207 77.7785 28.4871C69.5561 22.9536 59.889 20 50 20ZM50 119.281C37.1222 119.267 24.7756 114.109 15.6696 104.937C6.56362 95.7655 1.44197 83.3302 1.42855 70.3597C1.42855 69.6906 1.44285 69.0288 1.47145 68.3741C1.85823 58.7912 5.03326 49.5342 10.6017 41.7543C16.1701 33.9743 23.8862 28.0145 32.7906 24.616C41.695 21.2175 51.3948 20.5302 60.6839 22.6396C69.973 24.749 78.4416 29.562 85.0366 36.4802C91.6316 43.3984 96.0621 52.1165 97.7771 61.5504C99.4922 70.9844 98.4161 80.718 94.6827 89.5409C90.9493 98.3638 84.7234 105.887 76.779 111.174C68.8346 116.462 59.5223 119.281 50 119.281Z" fill="#5E66A7"/>
<path d="M92.1431 70.3618C92.1431 81.6192 87.7031 92.4155 79.7998 100.376C71.8965 108.336 61.1773 112.808 50.0003 112.808C38.8233 112.808 28.1041 108.336 20.2008 100.376C12.2975 92.4155 7.85742 81.6192 7.85742 70.3618C7.85742 69.0165 7.9216 67.6927 8.04297 66.3834C9.05854 55.5188 14.1896 45.4656 22.3708 38.3111C30.552 31.1567 41.1548 27.4507 51.9775 27.9627C62.8002 28.4747 73.0113 33.1653 80.4907 41.0606C87.9701 48.9558 92.1431 59.4492 92.1431 70.3618Z" fill="#9098D9"/>
<path d="M62.5461 73.1782C61.5246 71.8254 60.1808 70.754 58.6392 70.0631C56.7376 69.2559 54.7739 68.6063 52.7676 68.1206V56.5667C55.8516 57.035 58.744 58.3632 61.1175 60.4012L63.4463 55.4012C62.107 54.1995 60.5695 53.2426 58.9032 52.5739C57.0564 51.8206 55.1178 51.3198 53.139 51.0846V45.2285H47.7463V51.1422C45.6639 51.3778 43.6551 52.0571 41.8534 53.135C40.2259 54.1052 38.8559 55.4579 37.8604 57.0774C36.9103 58.658 36.418 60.4746 36.4391 62.322C36.3463 64.3241 36.9222 66.2998 38.0748 67.9335C39.1357 69.3481 40.5368 70.4672 42.146 71.1854C44.0779 72.0163 46.0754 72.6829 48.1177 73.1782V84.2501C44.4784 83.9736 41.0107 82.5801 38.1819 80.2573L35.8535 85.2645C37.4352 86.5815 39.2338 87.609 41.1678 88.3005C43.2869 89.0643 45.5007 89.5291 47.7463 89.6818V95.4875H53.1391V89.5738C56.1345 89.2442 58.9435 87.9469 61.1462 85.876C62.1162 84.939 62.8825 83.8094 63.3965 82.5586C63.9104 81.3078 64.1609 79.9632 64.132 78.6098C64.2215 76.6716 63.6632 74.759 62.5461 73.1782ZM48.1177 66.8976C46.8041 66.4963 45.5827 65.8361 44.5247 64.9551C44.1055 64.5795 43.7742 64.115 43.5544 63.5951C43.3346 63.0752 43.2318 62.5126 43.2534 61.948C43.2145 60.6666 43.682 59.422 44.5533 58.4875C45.5194 57.5071 46.7657 56.8556 48.1177 56.6242V66.8976ZM56.1535 82.2069C55.2422 83.1482 54.0556 83.7709 52.7676 83.9839V74.4587C53.9988 74.7914 55.1505 75.3714 56.1535 76.1638C56.5336 76.4908 56.8357 76.9 57.0373 77.3608C57.2388 77.8217 57.3347 78.3224 57.3177 78.8256C57.3673 80.0603 56.9514 81.2683 56.1535 82.2069Z" fill="#FCF670"/>
</svg>
