<svg width="460.000000" height="363.000000" viewBox="0 0 460 363" fill="none" xmlns="http://www.w3.org/2000/svg" xmlns:xlink="http://www.w3.org/1999/xlink">
	<desc>
			Created with Pixso.
	</desc>
	<defs>
		<clipPath id="clip306_23635">
			<rect id="Man-with-Gadgets" width="460.000000" height="363.000000" fill="white" fill-opacity="0"/>
		</clipPath>
	</defs>
	<g clip-path="url(#clip306_23635)">
		<path id="path" d="M94.53 135.42C94.53 131.6 90.82 129.57 87.63 130.1C85.78 130.41 84.34 131.23 83.14 132.46C83 132.59 82.78 132.56 82.69 132.39C82.19 131.41 81.21 131.33 80.51 131.58C80.33 131.64 80.14 131.49 80.16 131.3C80.18 131.08 80.19 130.86 80.19 130.63C80.19 126.75 76.98 123.61 73.08 123.73C69.51 123.84 66.55 126.76 66.39 130.32C66.35 131.25 66.5 132.14 66.79 132.96C66.95 133.41 66.81 133.9 66.43 134.19C64.69 135.53 63.6 137.67 63.74 140.08C63.93 143.53 66.76 146.36 70.21 146.57C73.85 146.78 76.91 144.18 77.45 140.74C77.47 140.58 77.69 140.54 77.77 140.69C78.91 142.92 81.23 144.45 83.92 144.45C85.94 144.45 87.76 143.57 89.02 142.19C92.17 141.54 94.53 138.76 94.53 135.42Z" fill="#A2A8D5" fill-opacity="1.000000" fill-rule="nonzero"/>
		<path id="path" d="M70.63 146.84C70.49 146.84 70.34 146.84 70.19 146.83C66.63 146.62 63.67 143.66 63.47 140.09C63.33 137.72 64.38 135.44 66.26 133.99C66.55 133.76 66.66 133.4 66.54 133.05C66.22 132.16 66.08 131.24 66.12 130.31C66.29 126.58 69.34 123.57 73.07 123.46C75.03 123.4 76.87 124.12 78.28 125.49C79.68 126.85 80.46 128.68 80.46 130.64C80.46 130.86 80.45 131.09 80.42 131.33C81.21 131.06 82.34 131.14 82.93 132.28C84.26 130.94 85.78 130.15 87.58 129.85C89.45 129.53 91.48 130.08 92.89 131.27C93.76 132.01 94.8 133.33 94.8 135.42C94.8 138.79 92.43 141.72 89.15 142.43C87.8 143.89 85.89 144.72 83.91 144.72C81.3 144.72 78.94 143.32 77.66 141.06C77 144.44 74.07 146.84 70.63 146.84ZM73.29 123.99C73.22 123.99 73.15 123.99 73.08 123.99C69.63 124.09 66.81 126.88 66.66 130.32C66.62 131.19 66.75 132.04 67.04 132.86C67.24 133.42 67.06 134.04 66.59 134.4C64.84 135.75 63.87 137.86 64 140.06C64.19 143.36 66.92 146.1 70.23 146.3C73.67 146.5 76.66 144.1 77.19 140.7C77.22 140.51 77.36 140.36 77.55 140.33C77.73 140.31 77.92 140.4 78.01 140.57C79.15 142.8 81.41 144.18 83.91 144.18C85.77 144.18 87.56 143.39 88.82 142L88.88 141.94L88.96 141.92C92.04 141.29 94.27 138.56 94.27 135.41C94.27 133.52 93.33 132.33 92.55 131.66C91.26 130.57 89.39 130.07 87.67 130.36C85.98 130.64 84.56 131.38 83.32 132.64C83.2 132.76 83.03 132.82 82.85 132.79C82.69 132.76 82.53 132.66 82.46 132.5C82.02 131.67 81.21 131.61 80.6 131.82C80.42 131.88 80.24 131.85 80.09 131.73C79.94 131.62 79.87 131.44 79.89 131.25C79.91 131.05 79.92 130.83 79.92 130.62C79.92 128.8 79.21 127.11 77.91 125.85C76.66 124.64 75.03 123.99 73.29 123.99Z" fill="#231F20" fill-opacity="1.000000" fill-rule="nonzero"/>
		<path id="path" d="M132.35 270.45C132.27 270.45 132.18 270.41 132.13 270.33L68.82 176.49C68.74 176.37 68.77 176.2 68.89 176.12C69.01 176.04 69.17 176.07 69.25 176.19L132.56 270.03C132.64 270.16 132.61 270.32 132.5 270.4C132.45 270.43 132.41 270.45 132.35 270.45Z" fill="#231F20" fill-opacity="1.000000" fill-rule="nonzero"/>
		<path id="path" d="M68.95 270.17C68.9 270.17 68.85 270.15 68.8 270.12C68.68 270.04 68.65 269.88 68.73 269.76L132.02 175.67C132.1 175.54 132.27 175.51 132.39 175.59C132.51 175.67 132.54 175.84 132.46 175.96L69.17 270.05C69.12 270.12 69.04 270.17 68.95 270.17Z" fill="#231F20" fill-opacity="1.000000" fill-rule="nonzero"/>
		<path id="polygon" d="M63.86 173.17L63.86 326.24L138.17 326.24L138.17 172.89L132.17 172.89L132.17 319.35L69.11 319.35L69.11 172.89L63.86 173.17Z" fill="#FFFFFF" fill-opacity="1.000000" fill-rule="nonzero"/>
		<path id="path" d="M138.44 326.51L63.59 326.51L63.59 172.92L69.37 172.6L69.37 319.08L131.9 319.08L131.9 172.62L138.44 172.62L138.44 326.51ZM64.12 325.98L137.91 325.98L137.91 173.15L132.43 173.15L132.43 319.62L68.84 319.62L68.84 173.17L64.12 173.43L64.12 325.98Z" fill="#231F20" fill-opacity="1.000000" fill-rule="nonzero"/>
		<path id="path" d="M84.97 28.28L96.02 138.06C96.08 138.72 96.64 139.22 97.3 139.22L238.77 138.47L224.6 30.31C224.55 29.88 224.18 29.56 223.75 29.55L85.85 27.32C85.33 27.31 84.92 27.76 84.97 28.28Z" fill="#5E66A7" fill-opacity="1.000000" fill-rule="nonzero"/>
		<path id="path" d="M97.29 139.48C96.49 139.48 95.83 138.89 95.75 138.09L84.7 28.3C84.67 27.98 84.78 27.66 85 27.42C85.21 27.19 85.52 27.05 85.85 27.06L223.75 29.28C224.31 29.3 224.78 29.72 224.85 30.27L239.06 138.73L97.29 139.48ZM85.83 27.59C85.66 27.59 85.51 27.66 85.39 27.78C85.27 27.91 85.22 28.07 85.23 28.25L96.28 138.04C96.33 138.56 96.77 138.95 97.29 138.95L238.46 138.21L224.34 30.34C224.3 30.04 224.05 29.82 223.76 29.82L85.83 27.59Z" fill="#231F20" fill-opacity="1.000000" fill-rule="nonzero"/>
		<path id="path" d="M88.73 31.28L98.27 125.3C98.33 125.96 98.89 126.45 99.54 126.45L232.75 126.45L221.58 32.56C221.53 32.13 221.17 31.8 220.73 31.8L89.59 30.32C89.07 30.31 88.67 30.77 88.73 31.28Z" fill="#FFFFFF" fill-opacity="1.000000" fill-rule="nonzero"/>
		<path id="path" d="M233.05 126.72L99.54 126.72C98.75 126.72 98.08 126.12 98.01 125.33L88.46 31.3C88.43 30.98 88.53 30.66 88.75 30.42C88.97 30.18 89.26 30.05 89.6 30.06L220.74 31.54C221.3 31.54 221.78 31.97 221.85 32.54L233.05 126.72ZM88.99 31.25L98.53 125.28C98.58 125.8 99.02 126.18 99.54 126.18L232.46 126.18L221.33 32.6C221.29 32.3 221.04 32.07 220.74 32.07L89.59 30.59C89.43 30.59 89.26 30.66 89.14 30.78C89.03 30.91 88.97 31.08 88.99 31.25Z" fill="#231F20" fill-opacity="1.000000" fill-rule="nonzero"/>
		<path id="path" d="M128.41 37.34L110.39 37.34C110.25 37.34 110.13 37.22 110.13 37.07C110.13 36.92 110.25 36.81 110.39 36.81L128.41 36.81C128.56 36.81 128.67 36.92 128.67 37.07C128.67 37.22 128.56 37.34 128.41 37.34Z" fill="#231F20" fill-opacity="1.000000" fill-rule="nonzero"/>
		<path id="path" d="M135.92 47.1L118.66 47.1C118.51 47.1 118.39 46.98 118.39 46.83C118.39 46.69 118.51 46.57 118.66 46.57L135.92 46.57C136.07 46.57 136.18 46.69 136.18 46.83C136.18 46.98 136.07 47.1 135.92 47.1Z" fill="#231F20" fill-opacity="1.000000" fill-rule="nonzero"/>
		<path id="path" d="M185.46 47.1L148.67 47.1C148.53 47.1 148.41 46.98 148.41 46.83C148.41 46.69 148.53 46.57 148.67 46.57L185.46 46.57C185.61 46.57 185.73 46.69 185.73 46.83C185.73 46.98 185.61 47.1 185.46 47.1Z" fill="#231F20" fill-opacity="1.000000" fill-rule="nonzero"/>
		<path id="path" d="M131.41 58.37L118.65 58.37C118.5 58.37 118.39 58.25 118.39 58.1C118.39 57.95 118.5 57.84 118.65 57.84L131.41 57.84C131.56 57.84 131.67 57.95 131.67 58.1C131.67 58.25 131.56 58.37 131.41 58.37Z" fill="#231F20" fill-opacity="1.000000" fill-rule="nonzero"/>
		<path id="path" d="M174.95 58.37L141.92 58.37C141.78 58.37 141.66 58.25 141.66 58.1C141.66 57.95 141.78 57.84 141.92 57.84L174.95 57.84C175.1 57.84 175.22 57.95 175.22 58.1C175.22 58.25 175.1 58.37 174.95 58.37Z" fill="#231F20" fill-opacity="1.000000" fill-rule="nonzero"/>
		<path id="path" d="M132.16 68.13L114.15 68.13C114 68.13 113.88 68.01 113.88 67.86C113.88 67.72 114 67.6 114.15 67.6L132.16 67.6C132.32 67.6 132.43 67.72 132.43 67.86C132.43 68.01 132.32 68.13 132.16 68.13Z" fill="#231F20" fill-opacity="1.000000" fill-rule="nonzero"/>
		<path id="path" d="M160.69 78.65L115.66 78.65C115.51 78.65 115.39 78.53 115.39 78.38C115.39 78.23 115.51 78.12 115.66 78.12L160.69 78.12C160.84 78.12 160.96 78.23 160.96 78.38C160.96 78.53 160.84 78.65 160.69 78.65Z" fill="#231F20" fill-opacity="1.000000" fill-rule="nonzero"/>
		<path id="path" d="M187.71 78.65L170.45 78.65C170.3 78.65 170.18 78.53 170.18 78.38C170.18 78.23 170.3 78.12 170.45 78.12L187.71 78.12C187.86 78.12 187.98 78.23 187.98 78.38C187.98 78.53 187.86 78.65 187.71 78.65Z" fill="#231F20" fill-opacity="1.000000" fill-rule="nonzero"/>
		<path id="path" d="M129.91 89.92L116.4 89.92C116.25 89.92 116.14 89.8 116.14 89.65C116.14 89.5 116.25 89.38 116.4 89.38L129.91 89.38C130.06 89.38 130.18 89.5 130.18 89.65C130.18 89.8 130.06 89.92 129.91 89.92Z" fill="#231F20" fill-opacity="1.000000" fill-rule="nonzero"/>
		<path id="path" d="M165.19 99.68L124.66 99.68C124.51 99.68 124.39 99.56 124.39 99.41C124.39 99.26 124.51 99.15 124.66 99.15L165.19 99.15C165.34 99.15 165.46 99.26 165.46 99.41C165.46 99.56 165.34 99.68 165.19 99.68Z" fill="#231F20" fill-opacity="1.000000" fill-rule="nonzero"/>
		<path id="path" d="M180.96 110.19L126.17 110.19C126.02 110.19 125.9 110.08 125.9 109.93C125.9 109.78 126.02 109.66 126.17 109.66L180.96 109.66C181.11 109.66 181.23 109.78 181.23 109.93C181.23 110.08 181.11 110.19 180.96 110.19Z" fill="#231F20" fill-opacity="1.000000" fill-rule="nonzero"/>
		<path id="path" d="M146.43 119.96L120.16 119.96C120.01 119.96 119.89 119.84 119.89 119.7C119.89 119.55 120.01 119.43 120.16 119.43L146.43 119.43C146.58 119.43 146.7 119.55 146.7 119.7C146.7 119.84 146.58 119.96 146.43 119.96Z" fill="#231F20" fill-opacity="1.000000" fill-rule="nonzero"/>
		<path id="path" d="M219.25 38.09L198.23 38.09C198.08 38.09 197.96 37.97 197.96 37.83C197.96 37.68 198.08 37.56 198.23 37.56L219.25 37.56C219.39 37.56 219.51 37.68 219.51 37.83C219.51 37.97 219.39 38.09 219.25 38.09Z" fill="#231F20" fill-opacity="1.000000" fill-rule="nonzero"/>
		<path id="path" d="M206.48 41.84L195.22 41.84C195.07 41.84 194.95 41.73 194.95 41.58C194.95 41.43 195.07 41.31 195.22 41.31L206.48 41.31C206.63 41.31 206.75 41.43 206.75 41.58C206.75 41.73 206.63 41.84 206.48 41.84Z" fill="#231F20" fill-opacity="1.000000" fill-rule="nonzero"/>
		<path id="path" d="M220.74 47.1L199.72 47.1C199.57 47.1 199.46 46.98 199.46 46.83C199.46 46.69 199.57 46.57 199.72 46.57L220.74 46.57C220.89 46.57 221.01 46.69 221.01 46.83C221.01 46.98 220.89 47.1 220.74 47.1Z" fill="#231F20" fill-opacity="1.000000" fill-rule="nonzero"/>
		<path id="path" d="M206.48 50.86L197.47 50.86C197.32 50.86 197.2 50.74 197.2 50.59C197.2 50.44 197.32 50.33 197.47 50.33L206.48 50.33C206.62 50.33 206.74 50.44 206.74 50.59C206.74 50.74 206.62 50.86 206.48 50.86Z" fill="#231F20" fill-opacity="1.000000" fill-rule="nonzero"/>
		<path id="path" d="M206.48 59.12L200.47 59.12C200.32 59.12 200.21 59.01 200.21 58.86C200.21 58.71 200.32 58.59 200.47 58.59L206.48 58.59C206.63 58.59 206.75 58.71 206.75 58.86C206.75 59.01 206.63 59.12 206.48 59.12Z" fill="#231F20" fill-opacity="1.000000" fill-rule="nonzero"/>
		<path id="path" d="M221.12 59.12L211.36 59.12C211.21 59.12 211.1 59.01 211.1 58.86C211.1 58.71 211.21 58.59 211.36 58.59L221.12 58.59C221.27 58.59 221.39 58.71 221.39 58.86C221.39 59.01 221.27 59.12 221.12 59.12Z" fill="#231F20" fill-opacity="1.000000" fill-rule="nonzero"/>
		<path id="path" d="M207.23 62.87L201.23 62.87C201.08 62.87 200.96 62.76 200.96 62.61C200.96 62.46 201.08 62.34 201.23 62.34L207.23 62.34C207.38 62.34 207.5 62.46 207.5 62.61C207.5 62.76 207.38 62.87 207.23 62.87Z" fill="#231F20" fill-opacity="1.000000" fill-rule="nonzero"/>
		<path id="path" d="M221.87 62.87L212.11 62.87C211.96 62.87 211.85 62.76 211.85 62.61C211.85 62.46 211.96 62.34 212.11 62.34L221.87 62.34C222.02 62.34 222.14 62.46 222.14 62.61C222.14 62.76 222.02 62.87 221.87 62.87Z" fill="#231F20" fill-opacity="1.000000" fill-rule="nonzero"/>
		<path id="path" d="M215.86 71.14L198.6 71.14C198.45 71.14 198.34 71.02 198.34 70.87C198.34 70.72 198.45 70.61 198.6 70.61L215.86 70.61C216.01 70.61 216.13 70.72 216.13 70.87C216.13 71.02 216.01 71.14 215.86 71.14Z" fill="#231F20" fill-opacity="1.000000" fill-rule="nonzero"/>
		<path id="polygon" d="M222.55 51.44L224.5 66.37L240.26 66.37L238.76 51.34L222.55 51.44Z" fill="#A2A8D5" fill-opacity="1.000000" fill-rule="nonzero"/>
		<path id="path" d="M240.55 66.63L224.26 66.63L222.24 51.18L239 51.08L240.55 66.63ZM224.73 66.1L239.97 66.1L238.52 51.61L222.84 51.71L224.73 66.1Z" fill="#231F20" fill-opacity="1.000000" fill-rule="nonzero"/>
		<path id="polygon" d="M226.27 72.17L228.25 87.4L244.85 87.58L242.52 72.37L226.27 72.17Z" fill="#FFFFFF" fill-opacity="1.000000" fill-rule="nonzero"/>
		<path id="path" d="M245.17 87.85L228.02 87.66L225.96 71.9L242.75 72.12L245.17 87.85ZM228.49 87.14L244.55 87.32L242.29 72.64L226.57 72.45L228.49 87.14Z" fill="#231F20" fill-opacity="1.000000" fill-rule="nonzero"/>
		<path id="path" d="M203.88 75.01L198.62 75.01C198.48 75.01 198.36 74.9 198.36 74.75C198.36 74.6 198.48 74.48 198.62 74.48L203.88 74.48C204.03 74.48 204.14 74.6 204.14 74.75C204.14 74.9 204.03 75.01 203.88 75.01Z" fill="#231F20" fill-opacity="1.000000" fill-rule="nonzero"/>
		<path id="path" d="M217.39 78.77L201.62 78.77C201.48 78.77 201.36 78.65 201.36 78.51C201.36 78.36 201.48 78.24 201.62 78.24L217.39 78.24C217.54 78.24 217.66 78.36 217.66 78.51C217.66 78.65 217.54 78.77 217.39 78.77Z" fill="#231F20" fill-opacity="1.000000" fill-rule="nonzero"/>
		<path id="path" d="M224.15 83.27L203.13 83.27C202.98 83.27 202.86 83.16 202.86 83.01C202.86 82.86 202.98 82.74 203.13 82.74L224.15 82.74C224.3 82.74 224.41 82.86 224.41 83.01C224.41 83.16 224.3 83.27 224.15 83.27Z" fill="#231F20" fill-opacity="1.000000" fill-rule="nonzero"/>
		<path id="path" d="M210.64 87.03L200.88 87.03C200.73 87.03 200.61 86.91 200.61 86.76C200.61 86.62 200.73 86.5 200.88 86.5L210.64 86.5C210.78 86.5 210.9 86.62 210.9 86.76C210.9 86.91 210.78 87.03 210.64 87.03Z" fill="#231F20" fill-opacity="1.000000" fill-rule="nonzero"/>
		<path id="path" d="M211.39 90.79L200.88 90.79C200.73 90.79 200.61 90.67 200.61 90.52C200.61 90.37 200.73 90.26 200.88 90.26L211.39 90.26C211.53 90.26 211.65 90.37 211.65 90.52C211.65 90.67 211.53 90.79 211.39 90.79Z" fill="#231F20" fill-opacity="1.000000" fill-rule="nonzero"/>
		<path id="path" d="M206.13 94.54L200.87 94.54C200.73 94.54 200.61 94.42 200.61 94.27C200.61 94.13 200.73 94.01 200.87 94.01L206.13 94.01C206.28 94.01 206.39 94.13 206.39 94.27C206.39 94.42 206.28 94.54 206.13 94.54Z" fill="#231F20" fill-opacity="1.000000" fill-rule="nonzero"/>
		<path id="path" d="M212.14 98.3L203.87 98.3C203.73 98.3 203.61 98.18 203.61 98.03C203.61 97.88 203.73 97.77 203.87 97.77L212.14 97.77C212.28 97.77 212.4 97.88 212.4 98.03C212.4 98.18 212.28 98.3 212.14 98.3Z" fill="#231F20" fill-opacity="1.000000" fill-rule="nonzero"/>
		<path id="path" d="M225.65 98.3L215.14 98.3C214.99 98.3 214.87 98.18 214.87 98.03C214.87 97.88 214.99 97.77 215.14 97.77L225.65 97.77C225.8 97.77 225.91 97.88 225.91 98.03C225.91 98.18 225.8 98.3 225.65 98.3Z" fill="#231F20" fill-opacity="1.000000" fill-rule="nonzero"/>
		<path id="path" d="M210.64 102.8L204.63 102.8C204.48 102.8 204.36 102.69 204.36 102.54C204.36 102.39 204.48 102.27 204.63 102.27L210.64 102.27C210.78 102.27 210.9 102.39 210.9 102.54C210.9 102.69 210.78 102.8 210.64 102.8Z" fill="#231F20" fill-opacity="1.000000" fill-rule="nonzero"/>
		<path id="path" d="M225.64 102.8L213.63 102.8C213.48 102.8 213.37 102.69 213.37 102.54C213.37 102.39 213.48 102.27 213.63 102.27L225.64 102.27C225.79 102.27 225.91 102.39 225.91 102.54C225.91 102.69 225.79 102.8 225.64 102.8Z" fill="#231F20" fill-opacity="1.000000" fill-rule="nonzero"/>
		<path id="path" d="M226.4 109.57L203.13 109.57C202.98 109.57 202.86 109.45 202.86 109.3C202.86 109.15 202.98 109.03 203.13 109.03L226.4 109.03C226.55 109.03 226.66 109.15 226.66 109.3C226.66 109.45 226.55 109.57 226.4 109.57Z" fill="#231F20" fill-opacity="1.000000" fill-rule="nonzero"/>
		<path id="path" d="M208.38 114.82L203.88 114.82C203.73 114.82 203.61 114.7 203.61 114.56C203.61 114.41 203.73 114.29 203.88 114.29L208.38 114.29C208.53 114.29 208.65 114.41 208.65 114.56C208.65 114.7 208.53 114.82 208.38 114.82Z" fill="#231F20" fill-opacity="1.000000" fill-rule="nonzero"/>
		<path id="path" d="M221.14 118.58L206.13 118.58C205.98 118.58 205.86 118.46 205.86 118.31C205.86 118.16 205.98 118.05 206.13 118.05L221.14 118.05C221.29 118.05 221.41 118.16 221.41 118.31C221.41 118.46 221.29 118.58 221.14 118.58Z" fill="#231F20" fill-opacity="1.000000" fill-rule="nonzero"/>
		<path id="path" d="M211.38 122.33L203.88 122.33C203.73 122.33 203.61 122.21 203.61 122.07C203.61 121.92 203.73 121.8 203.88 121.8L211.38 121.8C211.53 121.8 211.65 121.92 211.65 122.07C211.65 122.21 211.53 122.33 211.38 122.33Z" fill="#231F20" fill-opacity="1.000000" fill-rule="nonzero"/>
		<rect id="rect" x="54.851562" y="158.752686" width="161.393387" height="17.273064" fill="#FFFFFF" fill-opacity="1.000000"/>
		<path id="path" d="M216.51 176.29L54.58 176.29L54.58 158.49L216.51 158.49L216.51 176.29ZM55.11 175.76L215.98 175.76L215.98 159.02L55.11 159.02L55.11 175.76Z" fill="#231F20" fill-opacity="1.000000" fill-rule="nonzero"/>
		<path id="polygon" d="M127.44 139.01L122.41 158.75L199.73 158.75L199.73 154.24L129.16 154.24L133.61 138.92L127.44 139.01Z" fill="#FFFFFF" fill-opacity="1.000000" fill-rule="nonzero"/>
		<path id="path" d="M200 159.01L122.07 159.01L127.23 138.75L133.96 138.65L129.51 153.98L199.99 153.98L200 159.01ZM122.75 158.48L199.46 158.48L199.46 154.51L128.81 154.51L133.25 139.19L127.65 139.28L122.75 158.48Z" fill="#231F20" fill-opacity="1.000000" fill-rule="nonzero"/>
		<path id="polygon" d="M62.89 139.97L94.64 139.97L93.19 158.77L64.61 158.77L62.89 139.97Z" fill="#FFFFFF" fill-opacity="1.000000" fill-rule="nonzero"/>
		<path id="path" d="M93.44 159.04L64.37 159.04L62.6 139.71L94.92 139.71L93.44 159.04ZM64.85 158.51L92.95 158.51L94.35 140.24L63.17 140.24L64.85 158.51Z" fill="#231F20" fill-opacity="1.000000" fill-rule="nonzero"/>
		<path id="path" d="M159.94 229.35C159.94 229.35 155.26 231.74 152.25 215.73L158.44 211.32C158.44 211.32 160.54 223.37 159.94 229.35Z" fill="#231F20" fill-opacity="1.000000" fill-rule="nonzero"/>
		<path id="path" d="M159.27 229.74C158.94 229.74 158.52 229.67 158.04 229.44C156.29 228.58 153.82 225.51 151.99 215.78L151.96 215.62L158.62 210.87L158.7 211.28C158.72 211.4 160.8 223.43 160.2 229.38L160.18 229.52L160.06 229.58C160.06 229.58 159.74 229.74 159.27 229.74ZM152.54 215.85C154.32 225.19 156.62 228.13 158.25 228.95C158.94 229.3 159.46 229.23 159.69 229.16C160.17 223.87 158.6 213.94 158.24 211.79L152.54 215.85Z" fill="#231F20" fill-opacity="1.000000" fill-rule="nonzero"/>
		<path id="path" d="M86.69 206.5C86.69 206.5 87.12 203.82 88.62 203.06C88.62 203.06 94.63 199.31 101.38 201.56C108.14 203.81 141.92 221.84 141.92 221.84C141.92 221.84 142.67 225.6 141.17 230.1C141.17 230.1 139.66 236.87 131.41 234.61L108.89 220.34C108.89 220.34 97.63 218.84 96.13 217.34C94.63 215.83 86.69 206.5 86.69 206.5Z" fill="#FFFFFF" fill-opacity="1.000000" fill-rule="nonzero"/>
		<path id="path" d="M134.55 235.33C133.56 235.33 132.49 235.18 131.34 234.87L131.27 234.83L108.8 220.6C107.83 220.46 97.45 219.03 95.94 217.52C94.45 216.03 86.81 207.05 86.49 206.68L86.41 206.58L86.43 206.46C86.45 206.34 86.9 203.63 88.51 202.82C88.55 202.8 94.67 199.04 101.47 201.31C108.17 203.54 141.71 221.43 142.05 221.61L142.16 221.66L142.19 221.79C142.22 221.94 142.94 225.66 141.43 230.18C141.41 230.27 140.81 232.87 138.35 234.35C137.27 235 136 235.33 134.55 235.33ZM131.52 234.36C134.16 235.08 136.37 234.92 138.07 233.9C140.33 232.54 140.9 230.07 140.91 230.05C142.23 226.09 141.78 222.69 141.68 222.02C139.51 220.86 107.76 203.97 101.3 201.81C94.75 199.63 88.82 203.25 88.76 203.29C87.55 203.9 87.07 205.92 86.97 206.43C87.82 207.42 94.92 215.75 96.32 217.15C97.5 218.33 105.82 219.66 108.93 220.08L109.03 220.11L131.52 234.36Z" fill="#231F20" fill-opacity="1.000000" fill-rule="nonzero"/>
		<path id="path" d="M129.92 200.81C129.92 200.81 121.66 204.57 114.15 202.31C114.15 202.31 94.64 196.3 88.63 203.06C88.63 203.06 98.39 200.81 104.39 207.57C104.39 207.57 111.85 215.03 124.82 216.41C127.1 216.66 129.35 217.13 131.5 217.95C136.02 219.71 142.13 223.37 141.17 230.1L150.18 217.33L153.94 212.08L150.94 206.07L138.92 200.81L129.92 200.81Z" fill="#5E66A7" fill-opacity="1.000000" fill-rule="nonzero"/>
		<path id="path" d="M140.76 231.16L140.91 230.07C141.82 223.67 136.24 220.09 131.4 218.21C129.44 217.45 127.28 216.95 124.79 216.68C111.87 215.3 104.28 207.84 104.21 207.76C98.37 201.19 88.79 203.3 88.69 203.32L87.88 203.51L88.43 202.89C94.48 196.08 113.43 201.81 114.23 202.06C121.55 204.25 129.73 200.61 129.8 200.57L129.92 200.55L139.03 200.57L151.13 205.86L154.25 212.1L150.4 217.49L140.76 231.16ZM92.4 202.45C95.85 202.45 100.93 203.27 104.59 207.39C104.65 207.46 112.12 214.79 124.84 216.15C127.38 216.42 129.59 216.93 131.59 217.71C135.5 219.23 141.8 222.69 141.53 229.14L149.96 217.18L153.62 212.05L150.73 206.27L138.86 201.08L129.96 201.08C129.23 201.39 121.26 204.73 114.07 202.57C113.87 202.51 95.83 197.05 89.4 202.66C90.08 202.56 91.14 202.45 92.4 202.45Z" fill="#231F20" fill-opacity="1.000000" fill-rule="nonzero"/>
		<path id="path" d="M239.52 257.14L239.52 321.81C239.52 323.84 241.16 325.49 243.19 325.49L316.84 325.49L316.84 255.64L309.33 255.64L309.33 315.8C309.33 317.83 307.68 319.48 305.65 319.48L251.45 319.48C249.42 319.48 247.78 317.83 247.78 315.8L247.78 257.89L239.52 257.14Z" fill="#FFFFFF" fill-opacity="1.000000" fill-rule="nonzero"/>
		<path id="path" d="M317.1 325.76L243.19 325.76C241.02 325.76 239.25 323.99 239.25 321.82L239.25 256.85L248.03 257.65L248.03 315.81C248.03 317.69 249.57 319.22 251.44 319.22L305.65 319.22C307.53 319.22 309.06 317.69 309.06 315.81L309.06 255.38L317.09 255.38L317.1 325.76ZM239.78 257.44L239.78 321.82C239.78 323.7 241.31 325.23 243.19 325.23L316.57 325.23L316.57 255.91L309.59 255.91L309.59 315.81C309.59 317.98 307.82 319.75 305.65 319.75L251.45 319.75C249.28 319.75 247.51 317.98 247.51 315.81L247.51 258.13L239.78 257.44Z" fill="#231F20" fill-opacity="1.000000" fill-rule="nonzero"/>
		<path id="path" d="M343.67 322.49L282.25 322.49C281.03 322.49 280.05 321.5 280.05 320.28L280.05 258.65L274.04 258.65L274.04 323.99C274.04 323.99 273.61 329.14 281.7 329.94L310.74 329.94C310.74 329.94 315.92 329.92 319.75 328.83L343.67 322.49Z" fill="#FFFFFF" fill-opacity="1.000000" fill-rule="nonzero"/>
		<path id="path" d="M310.76 330.21L281.71 330.21C273.43 329.38 273.77 324.02 273.78 323.96L273.78 258.37L280.31 258.37L280.31 320.28C280.31 321.35 281.18 322.22 282.25 322.22L343.9 322.22L343.99 322.7L343.74 322.78L319.82 329.08C316 330.17 310.81 330.21 310.76 330.21ZM274.31 258.91L274.31 323.99C274.3 324.21 274.02 328.91 281.74 329.68L310.76 329.68C310.8 329.68 315.93 329.65 319.68 328.58L341.8 322.75L282.26 322.75C280.89 322.75 279.79 321.64 279.79 320.28L279.79 258.91L274.31 258.91Z" fill="#231F20" fill-opacity="1.000000" fill-rule="nonzero"/>
		<path id="path" d="M200.48 152.74L146.43 191.05C146.43 191.05 160.66 199.29 159.94 229.25C159.94 229.29 159.98 229.32 160.02 229.3L173.45 219.59L149.43 293.95C149.43 293.95 160.69 307.47 185.46 310.47C185.46 310.47 210.98 242.12 216.24 231.6C216.24 231.6 225.25 233.11 243.26 232.35C243.26 232.35 272.54 233.1 283.05 236.86C283.05 236.86 292.81 240.62 301.07 236.86C301.07 236.86 316.41 233.02 331.76 235.38C334.73 235.84 337.77 235.16 340.25 233.46C343.36 231.31 347.11 227.9 348.35 223.34L303.37 195.6L289.05 193.29C289.05 193.29 226.75 181.28 226 182.03C225.25 182.78 215.49 174.52 215.49 174.52L200.48 152.74Z" fill="#A2A8D5" fill-opacity="1.000000" fill-rule="nonzero"/>
		<path id="path" d="M185.64 310.76L185.43 310.74C160.84 307.75 149.34 294.25 149.22 294.12L149.13 294L149.17 293.87L172.94 220.28L160.03 229.61L159.83 229.54C159.73 229.48 159.66 229.37 159.66 229.25C160.37 199.78 146.42 191.36 146.28 191.28L145.92 191.07L200.53 152.37L215.68 174.35C220.09 178.08 225.04 181.87 225.83 181.82C226.1 181.62 227.73 181.53 257.84 187.12C273.34 190 288.93 193.01 289.09 193.04L303.46 195.35L348.66 223.22L348.6 223.41C347.32 228.1 343.43 231.58 340.39 233.68C337.85 235.42 334.77 236.12 331.71 235.64C316.59 233.32 301.27 237.08 301.12 237.11C292.9 240.86 283.04 237.14 282.94 237.1C272.6 233.41 243.54 232.62 243.25 232.61C226.85 233.3 217.8 232.1 216.38 231.89C211 242.83 185.96 309.87 185.7 310.55L185.64 310.76ZM149.73 293.89C150.87 295.17 162.23 307.32 185.28 310.18C186.81 306.11 210.94 241.62 216 231.49L216.09 231.31L216.28 231.34C216.37 231.36 225.48 232.83 243.25 232.09C243.56 232.1 272.71 232.89 283.13 236.62C283.23 236.65 292.89 240.29 300.95 236.63C301.15 236.57 316.57 232.79 331.79 235.13C334.73 235.58 337.67 234.91 340.09 233.25C343.02 231.23 346.75 227.9 348.04 223.47L303.26 195.86L289 193.56C272.1 190.3 227.99 181.94 226.11 182.27C225.14 182.76 219.73 178.47 215.31 174.72L215.26 174.67L200.4 153.11L146.89 191.04C149.04 192.54 160.72 201.96 160.2 228.82L173.94 218.89L149.73 293.89Z" fill="#231F20" fill-opacity="1.000000" fill-rule="nonzero"/>
		<path id="path" d="M187.39 133.54L215.07 175.76C215.78 176.82 217.05 177.36 218.31 177.11L279.87 163.22C281.34 162.88 281.97 161.13 281.04 159.93L249.28 119.17C248.8 118.56 248.04 118.27 247.28 118.4L189.53 128.71C187.27 129.06 186.14 131.63 187.39 133.54Z" fill="#A2A8D5" fill-opacity="1.000000" fill-rule="nonzero"/>
		<path id="path" d="M217.69 177.44C216.56 177.44 215.49 176.88 214.85 175.9L187.17 133.69C186.53 132.72 186.43 131.5 186.9 130.44C187.38 129.37 188.35 128.63 189.5 128.46L247.25 118.15C248.1 117.99 248.96 118.32 249.49 119.01L281.26 159.77C281.75 160.41 281.88 161.24 281.61 161.99C281.34 162.75 280.71 163.3 279.93 163.48L218.37 177.37C218.15 177.42 217.91 177.44 217.69 177.44ZM187.61 133.4L215.3 175.61C215.94 176.6 217.1 177.08 218.26 176.85L279.81 162.96C280.42 162.82 280.9 162.4 281.11 161.81C281.32 161.23 281.21 160.59 280.83 160.1L249.07 119.34C248.66 118.81 248 118.56 247.34 118.67L189.58 128.99C188.6 129.13 187.78 129.76 187.39 130.65C186.99 131.55 187.07 132.58 187.61 133.4Z" fill="#231F20" fill-opacity="1.000000" fill-rule="nonzero"/>
		<path id="polygon" d="M195.22 130.96L247.02 121.19L276.29 159.5L224.5 172.27L195.22 130.96Z" fill="#FFFFFF" fill-opacity="1.000000" fill-rule="nonzero"/>
		<path id="path" d="M224.39 172.57L224.28 172.42L194.76 130.78L247.12 120.91L276.75 159.66L224.39 172.57ZM195.68 131.14L224.61 171.97L275.84 159.34L246.91 121.49L195.68 131.14Z" fill="#231F20" fill-opacity="1.000000" fill-rule="nonzero"/>
		<rect id="rect" x="201.496094" y="149.294922" rx="1.731885" width="3.463769" height="7.434334" transform="rotate(-30.014 201.496094 149.294922)" fill="#231F20" fill-opacity="1.000000"/>
		<path id="path" d="M205.85 155.36C205.16 155.36 204.48 155.01 204.11 154.36L202.13 150.93C201.87 150.47 201.79 149.93 201.93 149.42C202.07 148.9 202.4 148.47 202.86 148.2C203.82 147.65 205.04 147.98 205.59 148.94L207.57 152.37C207.84 152.83 207.91 153.37 207.77 153.89C207.64 154.4 207.31 154.83 206.84 155.1C206.53 155.28 206.18 155.36 205.85 155.36ZM203.86 148.46C203.61 148.46 203.36 148.52 203.12 148.66C202.78 148.85 202.54 149.17 202.44 149.55C202.34 149.92 202.39 150.32 202.59 150.66L204.57 154.1C204.77 154.44 205.08 154.68 205.46 154.78C205.84 154.88 206.24 154.83 206.58 154.63C206.92 154.44 207.16 154.12 207.27 153.74C207.37 153.36 207.31 152.97 207.12 152.63L205.13 149.19C204.86 148.72 204.37 148.46 203.86 148.46Z" fill="#231F20" fill-opacity="1.000000" fill-rule="nonzero"/>
		<path id="path" d="M215.49 131.22C215.37 131.22 215.25 131.14 215.23 131.02C215.19 130.87 215.29 130.73 215.43 130.7L246.21 123.94C246.35 123.9 246.5 123.99 246.53 124.14C246.56 124.28 246.47 124.43 246.32 124.46L215.55 131.22C215.55 131.22 215.51 131.22 215.49 131.22Z" fill="#231F20" fill-opacity="1.000000" fill-rule="nonzero"/>
		<path id="path" d="M218.49 136.48C218.37 136.48 218.26 136.4 218.23 136.28C218.2 136.14 218.29 136 218.43 135.96L241.07 130.38C241.22 130.34 241.36 130.43 241.39 130.57C241.43 130.72 241.34 130.86 241.2 130.89L218.55 136.48C218.55 136.48 218.51 136.48 218.49 136.48Z" fill="#231F20" fill-opacity="1.000000" fill-rule="nonzero"/>
		<path id="path" d="M216.25 143.25C216.13 143.25 216.02 143.17 215.99 143.05C215.95 142.9 216.03 142.76 216.18 142.72L228.32 139.41C228.47 139.38 228.61 139.46 228.65 139.6C228.68 139.74 228.6 139.89 228.46 139.92L216.31 143.23C216.31 143.23 216.27 143.25 216.25 143.25Z" fill="#231F20" fill-opacity="1.000000" fill-rule="nonzero"/>
		<path id="path" d="M231.12 138.99C231 138.99 230.89 138.91 230.86 138.8C230.83 138.65 230.91 138.51 231.05 138.47L251.7 133.03C251.85 133 251.99 133.08 252.03 133.23C252.06 133.37 251.98 133.51 251.84 133.55L231.19 138.99C231.19 138.99 231.14 138.99 231.12 138.99Z" fill="#231F20" fill-opacity="1.000000" fill-rule="nonzero"/>
		<path id="path" d="M226.75 147.75C226.63 147.75 226.52 147.67 226.49 147.55C226.46 147.41 226.53 147.26 226.68 147.23L257 138.88C257.14 138.84 257.28 138.92 257.32 139.06C257.36 139.21 257.28 139.35 257.14 139.39L226.82 147.74C226.82 147.74 226.77 147.75 226.75 147.75Z" fill="#231F20" fill-opacity="1.000000" fill-rule="nonzero"/>
		<path id="path" d="M230.51 153.01C230.39 153.01 230.28 152.93 230.25 152.81C230.21 152.67 230.3 152.52 230.44 152.49L261.25 144.2C261.39 144.16 261.54 144.24 261.58 144.38C261.62 144.53 261.53 144.67 261.39 144.71L230.57 153C230.57 153 230.53 153.01 230.51 153.01Z" fill="#231F20" fill-opacity="1.000000" fill-rule="nonzero"/>
		<path id="path" d="M228.25 159.77C228.14 159.77 228.03 159.69 228 159.58C227.96 159.43 228.04 159.29 228.18 159.25L237.88 156.42C238.02 156.38 238.17 156.46 238.21 156.6C238.25 156.74 238.17 156.89 238.03 156.93L228.33 159.76C228.33 159.76 228.28 159.77 228.25 159.77Z" fill="#231F20" fill-opacity="1.000000" fill-rule="nonzero"/>
		<path id="path" d="M235.76 165.03C235.64 165.03 235.53 164.95 235.5 164.82C235.47 164.68 235.55 164.54 235.69 164.5L260.47 158.49C260.61 158.46 260.76 158.55 260.79 158.69C260.82 158.83 260.73 158.98 260.59 159.01L235.82 165.02C235.82 165.02 235.78 165.03 235.76 165.03Z" fill="#231F20" fill-opacity="1.000000" fill-rule="nonzero"/>
		<path id="polygon" d="M167.58 138.83L167.58 154.24L174.76 154.24L172.46 138.83L167.58 138.83Z" fill="#FFFFFF" fill-opacity="1.000000" fill-rule="nonzero"/>
		<path id="path" d="M175.07 154.51L167.31 154.51L167.31 138.56L172.69 138.56L175.07 154.51ZM167.84 153.98L174.45 153.98L172.23 139.09L167.84 139.09L167.84 153.98Z" fill="#231F20" fill-opacity="1.000000" fill-rule="nonzero"/>
		<path id="polygon" d="M307.91 82L308.57 90.4L332.59 85.89L328.84 72.37L322.09 67.86L310.83 65.61L307.91 82Z" fill="#F7D1D9" fill-opacity="1.000000" fill-rule="nonzero"/>
		<path id="path" d="M308.34 90.71L307.64 81.98L310.61 65.3L322.23 67.64L329.07 72.2L332.93 86.09L308.34 90.71ZM308.18 82.01L308.82 90.08L332.27 85.68L328.62 72.54L321.99 68.11L311.04 65.92L308.18 82.01Z" fill="#231F20" fill-opacity="1.000000" fill-rule="nonzero"/>
		<path id="path" d="M212.97 239.02L212.97 248.78C212.97 250.53 214.31 252 216.05 252.15L274.79 257.14C274.79 257.14 304.07 260.14 309.32 252.63L315.33 254.14L347.6 254.14C347.6 254.14 354.36 254.14 354.36 241.37L354.36 233.11C354.36 233.11 351.52 231.87 342.05 231.74C342.05 231.74 338.5 236.17 331.79 235.39C331.79 235.39 319.84 233.11 301.07 236.87C301.07 236.87 293.57 240.62 283.05 236.87C283.05 236.87 271.04 233.11 243.27 232.36C243.27 232.36 220.75 233.11 216.24 231.61L212.97 239.02Z" fill="#E6E7E8" fill-opacity="1.000000" fill-rule="nonzero"/>
		<path id="path" d="M287.52 258.02C280.9 258.02 275.28 257.46 274.76 257.41L216.03 252.41C214.13 252.25 212.7 250.69 212.7 248.78L212.72 238.91L216.09 231.27L216.32 231.35C220.73 232.82 243.02 232.09 243.25 232.09C270.76 232.83 283 236.57 283.12 236.6C293.4 240.28 300.87 236.66 300.94 236.62L301 236.6C319.6 232.88 331.71 235.1 331.83 235.13C338.27 235.88 341.8 231.61 341.84 231.57L341.91 231.47L342.04 231.47C351.45 231.6 354.33 232.81 354.45 232.86L354.61 232.93L354.61 241.37C354.61 254.26 347.87 254.4 347.59 254.4L315.24 254.39L309.41 252.93C306.28 257.08 296.07 258.02 287.52 258.02ZM213.23 239.08L213.23 248.79C213.23 250.42 214.45 251.75 216.08 251.88L274.81 256.88C275.11 256.91 303.99 259.78 309.1 252.49L309.21 252.34L315.36 253.88L347.61 253.88C347.67 253.88 354.1 253.7 354.1 241.38L354.1 233.3C353.38 233.05 350.16 232.13 342.18 232.01C341.58 232.68 337.96 236.38 331.76 235.66C331.62 235.63 319.62 233.43 301.14 237.12C300.58 237.39 293.09 240.74 282.96 237.12C282.85 237.09 270.66 233.37 243.25 232.63C242.36 232.66 221.35 233.34 216.39 231.93L213.23 239.08Z" fill="#231F20" fill-opacity="1.000000" fill-rule="nonzero"/>
		<path id="path" d="M305.57 252.9C305.42 252.89 305.3 252.77 305.3 252.62C305.46 250.16 304.71 248.01 303.08 246.21C298.05 240.64 286.16 240.13 286.04 240.13L217.73 237.13C217.58 237.13 217.47 237 217.47 236.85C217.48 236.71 217.6 236.59 217.75 236.6L286.06 239.6C286.55 239.62 298.28 240.12 303.47 245.85C305.19 247.76 305.99 250.05 305.83 252.65C305.82 252.79 305.71 252.9 305.57 252.9Z" fill="#231F20" fill-opacity="1.000000" fill-rule="nonzero"/>
		<path id="path" d="M345.35 239.38C345.29 239.38 345.23 239.36 345.18 239.32C340.07 234.94 333.93 235.78 333.86 235.79C333.71 235.81 333.58 235.71 333.56 235.56C333.53 235.42 333.64 235.28 333.78 235.26C333.84 235.25 340.23 234.38 345.52 238.92C345.63 239.01 345.64 239.18 345.55 239.29C345.49 239.35 345.43 239.38 345.35 239.38Z" fill="#231F20" fill-opacity="1.000000" fill-rule="nonzero"/>
		<path id="path" d="M173.45 219.85C173.38 219.85 173.3 219.82 173.25 219.76C173.16 219.65 173.17 219.47 173.28 219.38L201.8 195.35C202.15 195.07 210.2 188.53 215.49 188.53C215.64 188.53 215.75 188.64 215.75 188.79C215.75 188.94 215.64 189.06 215.49 189.06C210.39 189.06 202.23 195.69 202.14 195.76L173.62 219.79C173.57 219.84 173.51 219.85 173.45 219.85Z" fill="#231F20" fill-opacity="1.000000" fill-rule="nonzero"/>
		<path id="path" d="M174.21 296.46C174.18 296.46 174.15 296.46 174.12 296.45C173.98 296.4 173.91 296.25 173.96 296.11C174.17 295.47 195.82 231.35 203.25 218.7C203.33 218.58 203.5 218.53 203.62 218.61C203.74 218.68 203.78 218.85 203.71 218.97C196.31 231.57 174.68 295.64 174.46 296.28C174.42 296.4 174.32 296.46 174.21 296.46Z" fill="#231F20" fill-opacity="1.000000" fill-rule="nonzero"/>
		<path id="path" d="M216.24 231.87L207.19 230.37C207.05 230.34 206.94 230.21 206.97 230.06C207 229.91 207.13 229.81 207.28 229.84L216.29 231.34C216.43 231.37 216.53 231.5 216.51 231.65C216.49 231.78 216.37 231.87 216.24 231.87Z" fill="#231F20" fill-opacity="1.000000" fill-rule="nonzero"/>
		<path id="path" d="M272.55 227.37L226.31 221.16C224.14 220.87 222.09 219.8 220.53 218.17C219.89 217.49 219.32 217.15 218.83 217.15C218.25 217.15 217.81 217.63 217.41 218.04C217.34 218.13 217.26 218.2 217.19 218.28C215.9 219.78 214.74 220.43 213.77 220.17C212.5 219.84 211.89 218.11 211.62 216.73C211.46 215.95 211.2 215.27 210.85 214.71C210.17 213.62 209.41 213.09 208.61 213.1C206.81 213.15 205.24 215.94 205.22 215.97C205.16 216.1 204.99 216.15 204.86 216.07C204.73 216 204.69 215.84 204.76 215.71C204.83 215.58 206.5 212.63 208.6 212.57C209.6 212.55 210.52 213.17 211.31 214.43C211.69 215.04 211.98 215.78 212.14 216.63C212.31 217.44 212.81 219.37 213.91 219.66C214.66 219.86 215.67 219.26 216.81 217.92C216.89 217.84 216.97 217.76 217.04 217.68C217.48 217.21 218.03 216.62 218.84 216.62C219.49 216.62 220.18 217.01 220.93 217.81C222.4 219.36 224.34 220.36 226.39 220.64L272.59 226.85C272.73 226.87 272.84 227 272.82 227.14C272.8 227.28 272.68 227.37 272.55 227.37Z" fill="#231F20" fill-opacity="1.000000" fill-rule="nonzero"/>
		<path id="path" d="M169.96 307.08L169.96 311.87C162.46 311.87 161.45 317.98 161.45 317.98L155.8 317.57C150.26 317.19 145.48 313.53 143.68 308.27C143.51 307.77 143.43 307.46 143.43 307.46C146.43 302.21 149.44 293.94 149.44 293.94C157.69 302.95 169.96 307.08 169.96 307.08Z" fill="#F7D1D9" fill-opacity="1.000000" fill-rule="nonzero"/>
		<path id="path" d="M161.67 318.26L155.77 317.84C150.1 317.44 145.26 313.72 143.43 308.36C143.26 307.84 143.17 307.53 143.17 307.53L143.14 307.42L143.2 307.33C146.16 302.15 149.15 293.93 149.18 293.85L149.33 293.44L149.63 293.76C157.75 302.62 169.93 306.79 170.05 306.83L170.23 306.89L170.23 312.13L169.96 312.13C162.78 312.13 161.75 317.78 161.71 318.02L161.67 318.26ZM143.71 307.5C143.75 307.63 143.82 307.87 143.94 308.19C145.7 313.34 150.36 316.92 155.81 317.31L161.24 317.7C161.52 316.56 163.13 311.73 169.7 311.6L169.7 307.27C168.16 306.72 157.19 302.6 149.53 294.44C148.89 296.16 146.29 302.94 143.71 307.5Z" fill="#231F20" fill-opacity="1.000000" fill-rule="nonzero"/>
		<rect id="rect" x="109.648438" y="329.251221" width="65.308449" height="5.256334" fill="#FFFFFF" fill-opacity="1.000000"/>
		<path id="path" d="M175.22 334.77L109.38 334.77L109.38 328.98L175.22 328.98L175.22 334.77ZM109.91 334.24L174.69 334.24L174.69 329.51L109.91 329.51L109.91 334.24Z" fill="#231F20" fill-opacity="1.000000" fill-rule="nonzero"/>
		<path id="path" d="M146.43 191.05C146.43 191.05 136.67 197.06 129.91 200.81C129.91 200.81 129.31 206.84 136.74 208.63C138.02 208.94 139.35 209.05 140.67 209C143.41 208.9 150.79 209.37 150.18 217.33L158.44 211.32C158.44 211.32 156.19 197.81 146.43 191.05Z" fill="#F7D1D9" fill-opacity="1.000000" fill-rule="nonzero"/>
		<path id="path" d="M149.87 217.89L149.92 217.31C150.1 214.88 149.54 212.97 148.24 211.62C146.12 209.41 142.59 209.19 140.68 209.27C139.26 209.32 137.91 209.19 136.68 208.89C129.11 207.06 129.64 200.85 129.65 200.78L129.67 200.64L129.79 200.58C136.46 196.87 146.2 190.88 146.29 190.82L146.44 190.73L146.59 190.83C156.32 197.57 158.69 211.15 158.71 211.28L158.73 211.44L149.87 217.89ZM141.27 208.72C143.34 208.72 146.58 209.11 148.63 211.25C149.93 212.61 150.55 214.47 150.48 216.79L158.15 211.21C157.86 209.68 155.29 197.62 146.42 191.37C145.17 192.13 136.4 197.51 130.17 200.97C130.13 201.88 130.23 206.79 136.81 208.38C138 208.66 139.29 208.79 140.66 208.73C140.85 208.73 141.05 208.72 141.27 208.72Z" fill="#231F20" fill-opacity="1.000000" fill-rule="nonzero"/>
		<path id="path" d="M82.62 159.14C82.47 159.14 82.35 159.02 82.35 158.87L82.35 142.97C82.35 142.83 82.47 142.71 82.62 142.71C82.77 142.71 82.89 142.83 82.89 142.97L82.89 158.87C82.89 159.02 82.77 159.14 82.62 159.14Z" fill="#231F20" fill-opacity="1.000000" fill-rule="nonzero"/>
		<rect id="rect" x="284.273438" y="46.254395" rx="11.636081" width="23.272161" height="41.235287" transform="rotate(-17.7494 284.273438 46.254395)" fill="#F7D1D9" fill-opacity="1.000000"/>
		<path id="path" d="M304.35 82.82C302.48 82.82 300.62 82.37 298.91 81.49C296.09 80.04 294 77.56 293.03 74.54L287.56 57.43C286.59 54.4 286.86 51.18 288.31 48.35C289.77 45.52 292.24 43.43 295.26 42.46C298.29 41.49 301.52 41.76 304.34 43.22C307.17 44.67 309.26 47.14 310.23 50.17L315.69 67.28C316.66 70.3 316.4 73.53 314.94 76.36C313.49 79.19 311.01 81.27 307.99 82.25C306.79 82.63 305.57 82.82 304.35 82.82ZM298.91 42.42C297.75 42.42 296.57 42.6 295.44 42.97C292.54 43.9 290.18 45.89 288.79 48.59C287.4 51.29 287.14 54.38 288.07 57.27L293.53 74.38C294.46 77.27 296.46 79.63 299.16 81.02C301.85 82.42 304.93 82.67 307.83 81.75C310.72 80.82 313.08 78.82 314.47 76.12C315.87 73.42 316.12 70.34 315.19 67.45L309.73 50.34C308.81 47.45 306.81 45.09 304.11 43.69C302.48 42.85 300.69 42.42 298.91 42.42Z" fill="#231F20" fill-opacity="1.000000" fill-rule="nonzero"/>
		<path id="path" d="M295.82 58.1L283.06 45.34C283.06 45.34 275.55 37.07 292.82 32.57C292.82 32.57 289.06 27.31 301.08 29.57C301.08 29.57 308.59 23.56 313.09 29.57C313.09 29.57 328.1 28.06 328.1 48.34C328.1 48.34 327.35 61.86 328.85 72.38C328.85 72.38 313.28 84.49 302.3 64.92L295.82 58.1Z" fill="#002346" fill-opacity="1.000000" fill-rule="nonzero"/>
		<path id="path" d="M317.94 76.34C317 76.34 316.03 76.26 315.04 76.05C309.96 75.03 305.6 71.34 302.08 65.07L295.62 58.29L282.86 45.52C282.76 45.4 280.45 42.82 281.38 39.66C282.3 36.56 286.01 34.12 292.4 32.4C292.12 31.89 291.71 30.86 292.26 29.99C293.14 28.61 296.08 28.37 301 29.28C301.64 28.79 305.21 26.22 308.84 26.68C310.57 26.9 312.03 27.78 313.2 29.28C314.12 29.23 318.94 29.11 322.94 32.73C326.54 35.99 328.36 41.23 328.36 48.34C328.35 48.49 327.62 61.97 329.11 72.33L329.13 72.49L329.01 72.58C328.95 72.63 324.09 76.34 317.94 76.34ZM296.05 29.26C293.92 29.26 293.05 29.75 292.71 30.27C292.15 31.15 293.02 32.4 293.03 32.41L293.25 32.72L292.88 32.82C286.48 34.49 282.78 36.85 281.9 39.81C281.05 42.68 283.23 45.13 283.25 45.15L296.01 57.92L302.53 64.78C305.98 70.92 310.22 74.53 315.14 75.53C321.82 76.87 327.65 72.9 328.56 72.24C327.1 61.84 327.82 48.45 327.83 48.31C327.83 41.38 326.07 36.26 322.59 33.12C318.41 29.33 313.16 29.81 313.1 29.81L312.96 29.83L312.87 29.7C311.77 28.24 310.39 27.4 308.77 27.19C305.08 26.72 301.27 29.72 301.23 29.75L301.14 29.83L301.01 29.81C298.87 29.4 297.26 29.26 296.05 29.26Z" fill="#231F20" fill-opacity="1.000000" fill-rule="nonzero"/>
		<ellipse id="ellipse" rx="3.378505" ry="5.255991" transform="matrix(0.94188 -0.335949 0.335612 0.942 299.195 61.1123)" fill="#F7D1D9" fill-opacity="1.000000"/>
		<path id="path" d="M300.21 66.45C298.5 66.45 296.63 64.79 295.75 62.33C295.26 60.96 295.15 59.55 295.43 58.35C295.72 57.11 296.4 56.24 297.33 55.9C298.27 55.57 299.34 55.81 300.35 56.59C301.32 57.34 302.13 58.51 302.62 59.88C303.64 62.75 302.93 65.63 301.04 66.3C300.77 66.4 300.49 66.45 300.21 66.45ZM298.18 56.29C297.95 56.29 297.73 56.33 297.51 56.41C296.75 56.68 296.19 57.41 295.95 58.47C295.69 59.57 295.8 60.88 296.26 62.15C297.18 64.75 299.25 66.39 300.87 65.81C302.48 65.23 303.04 62.65 302.12 60.06C301.67 58.79 300.93 57.7 300.03 57.01C299.41 56.53 298.77 56.29 298.18 56.29Z" fill="#231F20" fill-opacity="1.000000" fill-rule="nonzero"/>
		<path id="path" d="M174.95 329.25L109.64 329.25C108.9 323.99 125.41 320.98 125.41 320.98C135.17 317.98 143.43 307.46 143.43 307.46C143.43 307.46 143.52 307.77 143.68 308.27C145.48 313.53 150.26 317.18 155.79 317.57L160.07 317.88C160.82 317.94 161.5 317.47 161.74 316.75C162.2 315.3 163.36 312.95 166.18 311.84C168.62 310.88 171.33 311.95 172.56 314.26C175.44 319.64 174.95 329.25 174.95 329.25Z" fill="#5E66A7" fill-opacity="1.000000" fill-rule="nonzero"/>
		<path id="path" d="M175.21 329.51L109.41 329.51L109.38 329.28C108.6 323.84 124.68 320.85 125.36 320.72C134.89 317.78 143.13 307.4 143.21 307.3L143.54 306.88L143.68 307.39C143.68 307.39 143.76 307.7 143.93 308.18C145.69 313.34 150.35 316.92 155.81 317.3L160.08 317.61C160.71 317.66 161.28 317.27 161.48 316.67C161.92 315.27 163.11 312.75 166.07 311.59C168.6 310.59 171.48 311.69 172.79 314.13C175.67 319.52 175.24 328.86 175.22 329.26L175.21 329.51ZM109.89 328.98L174.69 328.98C174.75 327.43 174.87 319.16 172.32 314.39C171.14 312.18 168.55 311.19 166.27 312.09C163.51 313.17 162.4 315.53 161.98 316.84C161.71 317.68 160.92 318.22 160.04 318.15L155.77 317.85C150.1 317.45 145.25 313.73 143.42 308.37C143.38 308.24 143.35 308.13 143.31 308.02C141.69 309.96 134.14 318.58 125.49 321.24C125.3 321.28 109.69 324.17 109.89 328.98Z" fill="#231F20" fill-opacity="1.000000" fill-rule="nonzero"/>
		<path id="path" d="M89.12 204.73C90.6 204.73 92.68 205.11 95.4 206.47C97.9 207.72 100.12 209.45 102.06 211.45C104.57 214.04 110.23 218.84 117.9 218.84C117.9 218.84 133.66 218.84 137.41 229.35C137.41 229.35 139.67 236.86 127.66 233.86L114.02 231.23C107.27 229.93 100.89 227.04 95.62 222.6C91.31 218.95 87.33 213.98 86.52 207.68C86.32 206.1 87.53 204.73 89.12 204.73Z" fill="#231F20" fill-opacity="1.000000" fill-rule="nonzero"/>
		<path id="path" d="M132.56 234.83C131.17 234.83 129.51 234.6 127.6 234.12L113.97 231.5C107.02 230.16 100.61 227.15 95.46 222.81C90.07 218.26 86.97 213.18 86.26 207.72C86.16 206.89 86.41 206.05 86.96 205.43C87.5 204.82 88.29 204.46 89.12 204.46C91.02 204.46 93.17 205.06 95.52 206.24C97.92 207.44 100.18 209.13 102.25 211.26C104.89 214 110.43 218.57 117.9 218.57C118.06 218.57 133.89 218.69 137.66 229.26C137.7 229.38 138.4 231.79 136.84 233.43C135.94 234.37 134.52 234.83 132.56 234.83ZM89.12 204.99C88.44 204.99 87.8 205.27 87.35 205.78C86.91 206.29 86.7 206.97 86.79 207.65C87.47 212.97 90.51 217.93 95.8 222.4C100.89 226.68 107.2 229.65 114.07 230.97L127.71 233.6C132.06 234.69 135.08 234.5 136.45 233.06C137.8 231.65 137.17 229.45 137.16 229.42C133.52 219.22 118.06 219.1 117.91 219.1C110.23 219.1 104.57 214.42 101.87 211.62C99.85 209.53 97.63 207.88 95.29 206.7C93.02 205.57 90.94 204.99 89.12 204.99Z" fill="#231F20" fill-opacity="1.000000" fill-rule="nonzero"/>
		<path id="path" d="M393.4 161C393.4 161 388.14 170.77 375.38 171.52L302.57 205.32C302.57 205.32 296.56 203.82 292.05 198.56C292.05 198.56 277.66 225.32 257.37 211.29C255.35 209.88 252.94 209.11 250.48 209C241.48 208.63 220.58 206.42 220 194.05L219.96 193.25L219.24 178.28C219.24 178.28 219.62 173.32 225.28 171.83C227.57 171.23 230.7 171.19 235.01 172.27L258.28 175.27C258.28 175.27 268.03 121.95 284.55 109.18L297.32 99.41C297.32 99.41 298.06 91.15 313.83 86.65C313.83 86.65 341.6 77.38 353.7 81.83C355.75 82.59 356.73 84.99 355.75 86.94C355.25 87.95 354.36 89.11 352.87 90.4C352.87 90.4 364.12 93.4 373.13 102.42L384.45 112.67C389.57 117.3 394.1 122.54 397.84 128.33C405.01 139.47 411.23 155.37 393.4 161Z" fill="#5E66A7" fill-opacity="1.000000" fill-rule="nonzero"/>
		<path id="path" d="M269.18 215.62C265.18 215.62 261.18 214.25 257.22 211.51C255.26 210.14 252.92 209.37 250.46 209.27C241.42 208.89 220.32 206.65 219.73 194.06L218.97 178.29C218.97 178.21 219.43 173.09 225.21 171.57C227.83 170.88 231.15 171.03 235.07 172.01L258.06 174.97C258.81 171 268.55 121.2 284.38 108.96L297.05 99.27C297.21 98.19 298.82 90.65 313.75 86.39C314.87 86.01 341.74 77.15 353.78 81.58C354.84 81.97 355.69 82.8 356.1 83.87C356.52 84.91 356.47 86.07 355.98 87.06C355.45 88.12 354.58 89.2 353.39 90.28C355.62 90.96 365.39 94.3 373.31 102.23L384.62 112.47C389.87 117.22 394.39 122.51 398.05 128.18C402.45 135.02 407.14 144.74 404.46 152.16C402.96 156.34 399.29 159.39 393.57 161.21C392.97 162.23 387.48 171.04 375.44 171.77L302.59 205.59L302.5 205.57C302.44 205.55 296.57 204.04 292.09 199C290.87 201.11 283.8 212.59 273.32 215.11C271.94 215.44 270.56 215.62 269.18 215.62ZM228.8 171.68C227.53 171.68 226.39 171.82 225.35 172.09C219.93 173.51 219.51 178.25 219.5 178.3L220.26 194.04C220.83 206.19 241.59 208.37 250.48 208.74C253.04 208.85 255.48 209.65 257.52 211.07C262.72 214.67 268 215.86 273.19 214.61C284.46 211.9 291.75 198.56 291.82 198.43L292 198.09L292.25 198.38C296.35 203.17 301.78 204.82 302.54 205.03L375.31 171.26C387.77 170.53 393.1 160.98 393.16 160.88L393.21 160.78L393.31 160.75C398.93 158.98 402.52 156.03 403.97 151.99C406.57 144.77 401.95 135.22 397.61 128.48C393.98 122.85 389.49 117.6 384.27 112.88L372.94 102.62C364.09 93.75 352.9 90.69 352.79 90.66L352.3 90.53L352.69 90.2C354.01 89.07 354.96 87.93 355.51 86.83C355.94 85.98 355.97 84.97 355.62 84.07C355.25 83.15 354.52 82.43 353.61 82.09C341.73 77.72 314.19 86.81 313.91 86.91C298.53 91.3 297.58 99.37 297.58 99.45L297.57 99.56L297.48 99.63L284.71 109.4C268.47 121.96 258.64 174.79 258.54 175.33L258.49 175.57L234.97 172.54C232.69 171.97 230.62 171.68 228.8 171.68Z" fill="#231F20" fill-opacity="1.000000" fill-rule="nonzero"/>
		<path id="path" d="M219.24 178.28L219.96 193.25C219.45 192.56 214.07 185.25 212.72 180.76C212.54 180.16 212.2 179.62 211.73 179.2C210.45 178.07 208.04 175.13 208.53 169.38C208.62 168.28 208.22 167.2 207.48 166.38L203.34 161.81C202.19 160.56 202.32 158.59 203.63 157.5C204.19 157.03 204.87 156.8 205.55 156.8C206.32 156.8 207.09 157.1 207.67 157.68L213.99 164.01C213.99 164.01 223.81 169.06 225.28 171.8C219.62 173.28 219.24 178.28 219.24 178.28Z" fill="#F7D1D9" fill-opacity="1.000000" fill-rule="nonzero"/>
		<path id="path" d="M220.26 194.11L219.74 193.41C219.14 192.59 213.8 185.31 212.46 180.84C212.29 180.28 211.98 179.79 211.55 179.41C210.11 178.13 207.77 175.13 208.26 169.36C208.35 168.36 207.99 167.34 207.28 166.56L203.14 162C202.53 161.33 202.23 160.47 202.3 159.57C202.36 158.67 202.78 157.87 203.46 157.3C204.05 156.81 204.79 156.54 205.55 156.54C206.42 156.54 207.24 156.88 207.86 157.49L214.15 163.8C214.91 164.19 224.06 168.96 225.52 171.67L225.55 171.75L225.59 171.99L225.36 172.09C220.06 173.48 219.54 177.93 219.51 178.29L220.26 194.11ZM205.54 157.07C204.91 157.07 204.28 157.29 203.8 157.7C203.21 158.18 202.87 158.86 202.82 159.61C202.77 160.36 203.02 161.08 203.52 161.63L207.67 166.2C208.48 167.09 208.89 168.26 208.79 169.4C208.32 174.94 210.53 177.8 211.9 179.01C212.41 179.45 212.77 180.03 212.97 180.68C214.09 184.43 218.13 190.27 219.64 192.37L218.97 178.28C218.97 178.23 219.42 173.29 224.88 171.67C223.02 168.98 213.96 164.3 213.86 164.25L213.8 164.2L207.48 157.87C206.96 157.36 206.27 157.07 205.54 157.07Z" fill="#231F20" fill-opacity="1.000000" fill-rule="nonzero"/>
		<path id="path" d="M306.34 226.98L363.35 224.43C367.67 224.24 371.17 220.89 371.57 216.59L377.05 157.19C377.05 157.19 371.42 150.38 368.52 145.92L324.62 147.02C314.26 147.28 305.8 155.41 305.1 165.75L301.41 221.83C301.23 224.66 303.5 227.05 306.34 226.98Z" fill="#FFFFFF" fill-opacity="1.000000" fill-rule="nonzero"/>
		<path id="path" d="M306.24 227.25C304.85 227.25 303.51 226.68 302.55 225.68C301.57 224.65 301.05 223.24 301.15 221.82L304.84 165.74C305.54 155.19 314.05 147.03 324.62 146.76L368.67 145.66L368.75 145.78C371.6 150.17 377.19 156.96 377.25 157.03L377.32 157.11L377.31 157.22L371.84 216.62C371.43 221.03 367.79 224.5 363.37 224.7L306.35 227.26C306.31 227.26 306.27 227.25 306.24 227.25ZM368.38 146.19L324.62 147.29C314.33 147.54 306.05 155.5 305.37 165.77L301.68 221.85C301.59 223.13 302.05 224.39 302.94 225.31C303.82 226.24 305.07 226.74 306.33 226.72L363.34 224.16C367.5 223.98 370.92 220.71 371.3 216.56L376.77 157.28C376.12 156.48 371.09 150.34 368.38 146.19Z" fill="#231F20" fill-opacity="1.000000" fill-rule="nonzero"/>
		<path id="path" d="M310.07 221.36C309.93 221.34 309.79 221.21 309.81 221.06L315.82 166.24C315.91 165.78 318.12 155.59 321.15 152.56C321.26 152.45 321.42 152.45 321.53 152.56C321.63 152.66 321.63 152.83 321.53 152.93C318.62 155.85 316.37 166.22 316.34 166.32L310.34 221.12C310.32 221.26 310.21 221.36 310.07 221.36Z" fill="#231F20" fill-opacity="1.000000" fill-rule="nonzero"/>
		<path id="path" d="M322.33 170.95L309.33 252.64C309.33 252.64 305.68 258.86 285.36 257.63L218.66 252.48C218.66 252.48 211.74 254.89 209.49 277.43L208.74 324.75C208.74 324.75 209.49 336.76 227.51 336.01L309.53 336.01C311.94 336.01 314.35 335.87 316.75 335.6C321.39 335.06 328.95 333.88 335.6 331.51L343.54 328.67C346.02 327.78 346.61 324.43 344.48 322.87C344.45 322.85 344.43 322.83 344.41 322.82C344.09 322.59 343.68 322.54 343.31 322.64L319.76 328.84C316.83 329.61 313.8 330 310.76 330L223.76 330C223.76 330 214.75 330 214.75 317.98L215.5 277.43C215.5 277.43 215.5 258.65 223 258.65L270.3 259.4C270.3 259.4 306.32 261.65 314.59 256.4C314.59 256.4 335.34 258.34 351.53 256.81C354.36 256.54 356.82 254.75 357.98 252.16C359.04 249.78 360.21 246.14 361.12 240.62L371.09 169.4C371.39 167.28 369.86 165.34 367.73 165.12C365.71 164.92 363.91 166.34 363.62 168.35L354.37 233.11C354.37 233.11 356.62 253.39 347.61 254.14L315.33 254.14L329.01 172.05C329.33 170.13 327.98 168.34 326.05 168.12C324.25 167.92 322.61 169.17 322.33 170.95Z" fill="#FFFFFF" fill-opacity="1.000000" fill-rule="nonzero"/>
		<path id="path" d="M225.92 336.3C209.39 336.3 208.47 324.87 208.47 324.76L209.22 277.42C211.46 254.95 218.27 252.33 218.57 252.22L218.62 252.21L218.67 252.21L285.37 257.36C304.47 258.53 308.72 253.05 309.07 252.54L322.07 170.91C322.37 168.98 324.13 167.65 326.07 167.86C327.07 167.97 327.97 168.47 328.58 169.28C329.19 170.09 329.43 171.08 329.27 172.08L315.64 253.87L347.61 253.87C349.05 253.75 350.28 253.08 351.28 251.87C355.55 246.68 354.12 233.27 354.1 233.13L354.1 233.07L363.35 168.3C363.66 166.15 365.59 164.64 367.75 164.86C368.86 164.97 369.84 165.51 370.53 166.38C371.21 167.25 371.5 168.34 371.35 169.44L361.38 240.65C360.59 245.43 359.52 249.33 358.21 252.26C357.01 254.95 354.46 256.79 351.55 257.07C336.06 258.54 316.16 256.8 314.64 256.66C306.27 261.84 271.74 259.75 270.28 259.66L223 258.91C215.84 258.91 215.76 277.24 215.76 277.42L215.01 317.98C215.01 329.58 223.4 329.73 223.76 329.73L310.76 329.73C313.77 329.73 316.78 329.34 319.69 328.57L343.24 322.37C343.7 322.25 344.18 322.33 344.55 322.59L344.63 322.65C345.69 323.42 346.2 324.67 346.01 325.98C345.81 327.33 344.9 328.45 343.62 328.91L335.69 331.74C329.16 334.08 321.8 335.26 316.77 335.85C314.39 336.13 311.96 336.27 309.53 336.27L227.51 336.27C226.96 336.29 226.43 336.3 225.92 336.3ZM218.7 252.74C218.11 253.01 211.86 256.37 209.75 277.44L209 324.74C209.03 325.2 209.96 336.46 227.49 335.74L309.53 335.74C311.94 335.74 314.35 335.6 316.71 335.32C321.71 334.74 329.02 333.56 335.5 331.25L343.44 328.41C344.53 328.02 345.31 327.06 345.48 325.9C345.64 324.79 345.21 323.72 344.32 323.07L344.25 323.02C344 322.85 343.69 322.8 343.38 322.88L319.83 329.08C316.87 329.86 313.82 330.26 310.76 330.26L223.76 330.26C223.66 330.26 214.48 330.12 214.48 317.97L215.23 277.41C215.23 276.64 215.32 258.37 223 258.37L270.3 259.12C270.67 259.14 306.35 261.31 314.44 256.16L314.51 256.12L314.6 256.13C314.81 256.15 335.52 258.06 351.5 256.54C354.22 256.27 356.6 254.55 357.73 252.04C359.02 249.15 360.07 245.29 360.85 240.57L370.82 169.36C370.95 168.4 370.69 167.46 370.1 166.7C369.51 165.94 368.65 165.47 367.69 165.38C365.82 165.19 364.14 166.5 363.86 168.37L354.62 233.11C354.72 234.03 356.02 246.92 351.68 252.2C350.59 253.53 349.22 254.27 347.62 254.4L315.01 254.4L328.73 171.99C328.87 171.14 328.66 170.29 328.14 169.6C327.62 168.91 326.86 168.48 326 168.38C324.34 168.2 322.84 169.35 322.58 170.99L309.57 252.73C309.41 252.99 305.58 259.12 285.33 257.89L218.7 252.74Z" fill="#231F20" fill-opacity="1.000000" fill-rule="nonzero"/>
		<path id="path" d="M338.82 114.4C328.98 114.4 323.63 108.37 321.57 105.37C319.94 102.98 318.22 101.08 316.32 99.57C307.17 92.3 299.98 94.65 299.92 94.67C299.78 94.72 299.62 94.65 299.58 94.51C299.53 94.37 299.6 94.22 299.74 94.17C299.82 94.14 307.27 91.7 316.65 99.15C318.59 100.7 320.35 102.63 322.01 105.06C324.43 108.61 331.57 116.47 345.52 112.99C349.03 112.12 351.99 110.3 354.07 107.76C356.88 104.3 358.93 98.5 352.65 90.56C352.56 90.44 352.58 90.28 352.69 90.19C352.81 90.1 352.98 90.12 353.07 90.23C359.56 98.45 357.41 104.48 354.47 108.09C352.33 110.73 349.27 112.6 345.64 113.5C343.16 114.12 340.9 114.4 338.82 114.4Z" fill="#231F20" fill-opacity="1.000000" fill-rule="nonzero"/>
		<path id="path" d="M335.6 100.43C335.47 100.43 335.36 100.34 335.34 100.21C335.31 100.07 335.41 99.93 335.55 99.9C335.63 99.89 343.8 98.32 350.41 90.97C350.52 90.86 350.68 90.86 350.79 90.95C350.9 91.05 350.91 91.22 350.81 91.33C344.07 98.82 335.69 100.41 335.6 100.43Z" fill="#231F20" fill-opacity="1.000000" fill-rule="nonzero"/>
		<path id="path" d="M300.31 146.25C300.18 146.25 300.06 146.14 300.05 146C298.57 121.65 282.07 111.82 281.9 111.73C281.77 111.65 281.73 111.49 281.8 111.37C281.88 111.24 282.04 111.2 282.17 111.27C282.34 111.37 299.09 121.32 300.58 145.97C300.59 146.11 300.46 146.24 300.31 146.25Z" fill="#231F20" fill-opacity="1.000000" fill-rule="nonzero"/>
		<path id="path" d="M292.06 198.82C292.01 198.82 291.95 198.81 291.9 198.77C291.78 198.68 291.76 198.51 291.85 198.4C298.46 189.57 297.81 179.9 297.8 179.8C297.05 170.83 299.3 165.46 299.32 165.4C302.29 158.73 304.55 151.23 304.57 151.16C304.61 151.02 304.76 150.94 304.9 150.98C305.03 151.02 305.12 151.17 305.08 151.31C305.06 151.38 302.79 158.91 299.82 165.61C299.79 165.66 297.6 170.92 298.33 179.75C298.34 179.85 299.01 189.72 292.28 198.71C292.22 198.78 292.14 198.82 292.06 198.82Z" fill="#231F20" fill-opacity="1.000000" fill-rule="nonzero"/>
		<path id="path" d="M251.52 195.82C251.46 195.82 251.41 195.8 251.35 195.76C251.24 195.66 251.22 195.5 251.32 195.39C257.93 187.29 258.01 175.39 258.01 175.28C258.01 175.13 258.13 175.01 258.28 175.01C258.43 175.01 258.54 175.13 258.54 175.28C258.54 175.4 258.46 187.49 251.73 195.72C251.68 195.79 251.6 195.82 251.52 195.82Z" fill="#231F20" fill-opacity="1.000000" fill-rule="nonzero"/>
		<path id="path" d="M365.62 144.74C365.59 144.74 365.55 144.74 365.52 144.72C365.38 144.67 365.32 144.52 365.37 144.38C369.8 133.29 369.11 118.35 369.1 118.2C369.1 118.05 369.21 117.93 369.35 117.93C369.49 117.91 369.62 118.03 369.63 118.18C369.64 118.32 370.33 133.39 365.86 144.57C365.82 144.68 365.72 144.74 365.62 144.74Z" fill="#231F20" fill-opacity="1.000000" fill-rule="nonzero"/>
		<path id="path" d="M371.63 137.98C371.59 137.98 371.54 137.97 371.5 137.95C371.38 137.88 371.32 137.72 371.39 137.59C378.78 123.54 378.45 107.94 378.45 107.78C378.45 107.63 378.56 107.51 378.71 107.51C378.85 107.51 378.98 107.62 378.98 107.77C378.98 107.93 379.32 123.67 371.87 137.84C371.82 137.93 371.72 137.98 371.63 137.98Z" fill="#231F20" fill-opacity="1.000000" fill-rule="nonzero"/>
		<path id="path" d="M383.64 164.28C383.58 164.28 383.51 164.25 383.46 164.21C383.35 164.11 372.85 154.3 367.64 144.61C367.57 144.48 367.62 144.32 367.75 144.25C367.87 144.18 368.04 144.23 368.11 144.36C373.28 153.97 383.71 163.72 383.82 163.81C383.93 163.91 383.93 164.08 383.84 164.19C383.78 164.25 383.71 164.28 383.64 164.28Z" fill="#231F20" fill-opacity="1.000000" fill-rule="nonzero"/>
		<path id="path" d="M299.44 62.71C299.33 62.71 299.23 62.64 299.19 62.53L298.13 59.34C298.08 59.2 298.16 59.05 298.3 59.01C298.44 58.96 298.59 59.03 298.64 59.18L299.7 62.36C299.75 62.5 299.67 62.66 299.53 62.7C299.5 62.71 299.47 62.71 299.44 62.71Z" fill="#231F20" fill-opacity="1.000000" fill-rule="nonzero"/>
		<path id="path" d="M289.22 66.87C288.85 66.87 288.52 66.63 288.41 66.27L287.11 61.95C286.99 61.55 287.19 61.1 287.58 60.93L295.71 57.33C295.84 57.27 296 57.33 296.06 57.46C296.12 57.6 296.06 57.76 295.93 57.81L287.8 61.42C287.66 61.48 287.58 61.64 287.62 61.8L288.92 66.12C288.97 66.27 289.12 66.37 289.28 66.33L290.8 66.03C290.95 65.99 291.09 66.09 291.12 66.23C291.15 66.38 291.05 66.51 290.91 66.55L289.39 66.86C289.33 66.87 289.28 66.87 289.22 66.87Z" fill="#231F20" fill-opacity="1.000000" fill-rule="nonzero"/>
	</g>
</svg>
