<svg width="460.000000" height="363.000000" viewBox="0 0 460 363" fill="none" xmlns="http://www.w3.org/2000/svg" xmlns:xlink="http://www.w3.org/1999/xlink">
	<desc>
			Created with Pixso.
	</desc>
	<defs>
		<clipPath id="clip306_23635">
			<rect id="Man-with-Gadgets" width="460.000000" height="363.000000" fill="white" fill-opacity="0"/>
		</clipPath>
	</defs>
	<g clip-path="url(#clip306_23635)">
		<path id="path" d="M94.54 135.42C94.54 131.6 90.82 129.57 87.63 130.1C85.78 130.41 84.35 131.23 83.14 132.46C83.01 132.59 82.79 132.56 82.7 132.39C82.19 131.41 81.22 131.33 80.51 131.58C80.33 131.64 80.14 131.49 80.16 131.3C80.18 131.08 80.2 130.86 80.2 130.63C80.2 126.75 76.99 123.61 73.08 123.73C69.51 123.84 66.56 126.76 66.39 130.32C66.35 131.25 66.5 132.14 66.79 132.96C66.96 133.41 66.81 133.9 66.43 134.19C64.69 135.53 63.6 137.67 63.74 140.08C63.94 143.53 66.76 146.36 70.22 146.57C73.85 146.78 76.91 144.18 77.45 140.74C77.48 140.58 77.69 140.54 77.78 140.69C78.92 142.92 81.24 144.45 83.92 144.45C85.94 144.45 87.76 143.57 89.03 142.19C92.17 141.54 94.54 138.76 94.54 135.42Z" fill="#A2A8D5" fill-opacity="1.000000" fill-rule="nonzero"/>
		<path id="path" d="M70.64 146.84C70.49 146.84 70.34 146.84 70.19 146.83C66.63 146.62 63.68 143.66 63.48 140.09C63.34 137.72 64.39 135.44 66.27 133.99C66.56 133.76 66.66 133.4 66.54 133.05C66.22 132.16 66.08 131.24 66.13 130.31C66.3 126.58 69.35 123.57 73.07 123.46C75.03 123.4 76.88 124.12 78.28 125.49C79.69 126.85 80.46 128.68 80.46 130.64C80.46 130.86 80.45 131.09 80.42 131.33C81.22 131.06 82.34 131.14 82.93 132.28C84.26 130.94 85.78 130.15 87.58 129.85C89.45 129.53 91.48 130.08 92.89 131.27C93.76 132.01 94.8 133.33 94.8 135.42C94.8 138.79 92.44 141.72 89.15 142.43C87.8 143.89 85.89 144.72 83.92 144.72C81.31 144.72 78.94 143.32 77.66 141.06C77.01 144.44 74.07 146.84 70.64 146.84ZM73.29 123.99C73.22 123.99 73.16 123.99 73.08 123.99C69.64 124.09 66.81 126.88 66.66 130.32C66.62 131.19 66.75 132.04 67.04 132.86C67.24 133.42 67.06 134.04 66.59 134.4C64.85 135.75 63.88 137.86 64.01 140.06C64.2 143.36 66.93 146.1 70.23 146.3C73.67 146.5 76.66 144.1 77.19 140.7C77.22 140.51 77.37 140.36 77.55 140.33C77.74 140.31 77.92 140.4 78.01 140.57C79.15 142.8 81.41 144.18 83.92 144.18C85.78 144.18 87.56 143.39 88.82 142L88.88 141.94L88.97 141.92C92.04 141.29 94.27 138.56 94.27 135.41C94.27 133.52 93.34 132.33 92.55 131.66C91.26 130.57 89.4 130.07 87.67 130.36C85.99 130.64 84.57 131.38 83.33 132.64C83.2 132.76 83.03 132.82 82.86 132.79C82.69 132.76 82.54 132.66 82.46 132.5C82.03 131.67 81.22 131.61 80.6 131.82C80.42 131.88 80.24 131.85 80.09 131.73C79.95 131.62 79.87 131.44 79.89 131.25C79.91 131.05 79.92 130.83 79.92 130.62C79.92 128.8 79.21 127.11 77.91 125.85C76.66 124.64 75.03 123.99 73.29 123.99Z" fill="#231F20" fill-opacity="1.000000" fill-rule="nonzero"/>
		<path id="path" d="M132.35 270.45C132.27 270.45 132.19 270.41 132.13 270.33L68.82 176.49C68.74 176.37 68.77 176.2 68.89 176.12C69.01 176.04 69.17 176.07 69.26 176.19L132.57 270.03C132.65 270.16 132.62 270.32 132.5 270.4C132.45 270.43 132.41 270.45 132.35 270.45Z" fill="#231F20" fill-opacity="1.000000" fill-rule="nonzero"/>
		<path id="path" d="M68.96 270.17C68.91 270.17 68.85 270.15 68.81 270.12C68.69 270.04 68.66 269.88 68.73 269.76L132.02 175.67C132.1 175.54 132.27 175.51 132.39 175.59C132.52 175.67 132.55 175.84 132.46 175.96L69.17 270.05C69.12 270.12 69.05 270.17 68.96 270.17Z" fill="#231F20" fill-opacity="1.000000" fill-rule="nonzero"/>
		<path id="polygon" d="M63.86 173.17L63.86 326.24L138.17 326.24L138.17 172.89L132.17 172.89L132.17 319.35L69.12 319.35L69.12 172.89L63.86 173.17Z" fill="#FFFFFF" fill-opacity="1.000000" fill-rule="nonzero"/>
		<path id="path" d="M138.44 326.51L63.6 326.51L63.6 172.92L69.37 172.6L69.37 319.08L131.9 319.08L131.9 172.62L138.44 172.62L138.44 326.51ZM64.13 325.98L137.91 325.98L137.91 173.15L132.43 173.15L132.43 319.62L68.85 319.62L68.85 173.17L64.13 173.43L64.13 325.98Z" fill="#231F20" fill-opacity="1.000000" fill-rule="nonzero"/>
		<path id="path" d="M84.98 28.28L96.03 138.06C96.09 138.72 96.65 139.22 97.31 139.22L238.77 138.47L224.6 30.31C224.55 29.88 224.19 29.56 223.76 29.55L85.85 27.32C85.34 27.31 84.93 27.76 84.98 28.28Z" fill="#5E66A7" fill-opacity="1.000000" fill-rule="nonzero"/>
		<path id="path" d="M97.3 139.48C96.5 139.48 95.84 138.89 95.76 138.09L84.71 28.3C84.68 27.98 84.78 27.66 85 27.42C85.22 27.19 85.53 27.05 85.85 27.06L223.76 29.28C224.32 29.3 224.79 29.72 224.86 30.27L239.07 138.73L97.3 139.48ZM85.84 27.59C85.67 27.59 85.51 27.66 85.4 27.78C85.28 27.91 85.23 28.07 85.24 28.25L96.29 138.04C96.34 138.56 96.78 138.95 97.3 138.95L238.47 138.21L224.35 30.34C224.31 30.04 224.06 29.82 223.77 29.82L85.84 27.59Z" fill="#231F20" fill-opacity="1.000000" fill-rule="nonzero"/>
		<path id="path" d="M88.73 31.28L98.27 125.3C98.33 125.96 98.89 126.45 99.54 126.45L232.76 126.45L221.59 32.56C221.53 32.13 221.17 31.8 220.74 31.8L89.59 30.32C89.08 30.31 88.67 30.77 88.73 31.28Z" fill="#FFFFFF" fill-opacity="1.000000" fill-rule="nonzero"/>
		<path id="path" d="M233.06 126.72L99.55 126.72C98.75 126.72 98.09 126.12 98.01 125.33L88.47 31.3C88.44 30.98 88.54 30.66 88.76 30.42C88.98 30.18 89.26 30.05 89.6 30.06L220.75 31.54C221.31 31.54 221.79 31.97 221.86 32.54L233.06 126.72ZM89 31.25L98.54 125.28C98.59 125.8 99.03 126.18 99.55 126.18L232.47 126.18L221.34 32.6C221.3 32.3 221.05 32.07 220.75 32.07L89.6 30.59C89.44 30.59 89.27 30.66 89.15 30.78C89.03 30.91 88.98 31.08 89 31.25Z" fill="#231F20" fill-opacity="1.000000" fill-rule="nonzero"/>
		<path id="path" d="M128.42 37.34L110.4 37.34C110.25 37.34 110.14 37.22 110.14 37.07C110.14 36.92 110.25 36.81 110.4 36.81L128.42 36.81C128.57 36.81 128.68 36.92 128.68 37.07C128.68 37.22 128.57 37.34 128.42 37.34Z" fill="#231F20" fill-opacity="1.000000" fill-rule="nonzero"/>
		<path id="path" d="M135.92 47.1L118.66 47.1C118.51 47.1 118.39 46.98 118.39 46.83C118.39 46.69 118.51 46.57 118.66 46.57L135.92 46.57C136.07 46.57 136.19 46.69 136.19 46.83C136.19 46.98 136.07 47.1 135.92 47.1Z" fill="#231F20" fill-opacity="1.000000" fill-rule="nonzero"/>
		<path id="path" d="M185.47 47.1L148.68 47.1C148.53 47.1 148.42 46.98 148.42 46.83C148.42 46.69 148.53 46.57 148.68 46.57L185.47 46.57C185.62 46.57 185.73 46.69 185.73 46.83C185.73 46.98 185.62 47.1 185.47 47.1Z" fill="#231F20" fill-opacity="1.000000" fill-rule="nonzero"/>
		<path id="path" d="M131.42 58.37L118.66 58.37C118.51 58.37 118.39 58.25 118.39 58.1C118.39 57.95 118.51 57.84 118.66 57.84L131.42 57.84C131.57 57.84 131.68 57.95 131.68 58.1C131.68 58.25 131.57 58.37 131.42 58.37Z" fill="#231F20" fill-opacity="1.000000" fill-rule="nonzero"/>
		<path id="path" d="M174.96 58.37L141.93 58.37C141.78 58.37 141.67 58.25 141.67 58.1C141.67 57.95 141.78 57.84 141.93 57.84L174.96 57.84C175.11 57.84 175.23 57.95 175.23 58.1C175.23 58.25 175.11 58.37 174.96 58.37Z" fill="#231F20" fill-opacity="1.000000" fill-rule="nonzero"/>
		<path id="path" d="M132.17 68.13L114.16 68.13C114.01 68.13 113.89 68.01 113.89 67.86C113.89 67.72 114.01 67.6 114.16 67.6L132.17 67.6C132.32 67.6 132.44 67.72 132.44 67.86C132.44 68.01 132.32 68.13 132.17 68.13Z" fill="#231F20" fill-opacity="1.000000" fill-rule="nonzero"/>
		<path id="path" d="M160.7 78.65L115.66 78.65C115.51 78.65 115.39 78.53 115.39 78.38C115.39 78.23 115.51 78.12 115.66 78.12L160.7 78.12C160.85 78.12 160.96 78.23 160.96 78.38C160.96 78.53 160.85 78.65 160.7 78.65Z" fill="#231F20" fill-opacity="1.000000" fill-rule="nonzero"/>
		<path id="path" d="M187.72 78.65L170.46 78.65C170.31 78.65 170.19 78.53 170.19 78.38C170.19 78.23 170.31 78.12 170.46 78.12L187.72 78.12C187.87 78.12 187.98 78.23 187.98 78.38C187.98 78.53 187.87 78.65 187.72 78.65Z" fill="#231F20" fill-opacity="1.000000" fill-rule="nonzero"/>
		<path id="path" d="M129.92 89.92L116.41 89.92C116.26 89.92 116.14 89.8 116.14 89.65C116.14 89.5 116.26 89.38 116.41 89.38L129.92 89.38C130.07 89.38 130.19 89.5 130.19 89.65C130.19 89.8 130.07 89.92 129.92 89.92Z" fill="#231F20" fill-opacity="1.000000" fill-rule="nonzero"/>
		<path id="path" d="M165.2 99.68L124.67 99.68C124.52 99.68 124.4 99.56 124.4 99.41C124.4 99.26 124.52 99.15 124.67 99.15L165.2 99.15C165.35 99.15 165.47 99.26 165.47 99.41C165.47 99.56 165.35 99.68 165.2 99.68Z" fill="#231F20" fill-opacity="1.000000" fill-rule="nonzero"/>
		<path id="path" d="M180.97 110.19L126.17 110.19C126.02 110.19 125.91 110.08 125.91 109.93C125.91 109.78 126.02 109.66 126.17 109.66L180.97 109.66C181.12 109.66 181.23 109.78 181.23 109.93C181.23 110.08 181.12 110.19 180.97 110.19Z" fill="#231F20" fill-opacity="1.000000" fill-rule="nonzero"/>
		<path id="path" d="M146.44 119.96L120.16 119.96C120.02 119.96 119.9 119.84 119.9 119.7C119.9 119.55 120.02 119.43 120.16 119.43L146.44 119.43C146.59 119.43 146.7 119.55 146.7 119.7C146.7 119.84 146.59 119.96 146.44 119.96Z" fill="#231F20" fill-opacity="1.000000" fill-rule="nonzero"/>
		<path id="path" d="M219.25 38.09L198.23 38.09C198.08 38.09 197.96 37.97 197.96 37.83C197.96 37.68 198.08 37.56 198.23 37.56L219.25 37.56C219.4 37.56 219.52 37.68 219.52 37.83C219.52 37.97 219.4 38.09 219.25 38.09Z" fill="#231F20" fill-opacity="1.000000" fill-rule="nonzero"/>
		<path id="path" d="M206.49 41.84L195.23 41.84C195.08 41.84 194.96 41.73 194.96 41.58C194.96 41.43 195.08 41.31 195.23 41.31L206.49 41.31C206.64 41.31 206.75 41.43 206.75 41.58C206.75 41.73 206.64 41.84 206.49 41.84Z" fill="#231F20" fill-opacity="1.000000" fill-rule="nonzero"/>
		<path id="path" d="M220.75 47.1L199.73 47.1C199.58 47.1 199.46 46.98 199.46 46.83C199.46 46.69 199.58 46.57 199.73 46.57L220.75 46.57C220.9 46.57 221.02 46.69 221.02 46.83C221.02 46.98 220.9 47.1 220.75 47.1Z" fill="#231F20" fill-opacity="1.000000" fill-rule="nonzero"/>
		<path id="path" d="M206.48 50.86L197.48 50.86C197.33 50.86 197.21 50.74 197.21 50.59C197.21 50.44 197.33 50.33 197.48 50.33L206.48 50.33C206.63 50.33 206.75 50.44 206.75 50.59C206.75 50.74 206.63 50.86 206.48 50.86Z" fill="#231F20" fill-opacity="1.000000" fill-rule="nonzero"/>
		<path id="path" d="M206.49 59.12L200.48 59.12C200.33 59.12 200.21 59.01 200.21 58.86C200.21 58.71 200.33 58.59 200.48 58.59L206.49 58.59C206.64 58.59 206.75 58.71 206.75 58.86C206.75 59.01 206.64 59.12 206.49 59.12Z" fill="#231F20" fill-opacity="1.000000" fill-rule="nonzero"/>
		<path id="path" d="M221.12 59.12L211.37 59.12C211.22 59.12 211.1 59.01 211.1 58.86C211.1 58.71 211.22 58.59 211.37 58.59L221.12 58.59C221.27 58.59 221.39 58.71 221.39 58.86C221.39 59.01 221.27 59.12 221.12 59.12Z" fill="#231F20" fill-opacity="1.000000" fill-rule="nonzero"/>
		<path id="path" d="M207.24 62.87L201.23 62.87C201.09 62.87 200.97 62.76 200.97 62.61C200.97 62.46 201.09 62.34 201.23 62.34L207.24 62.34C207.39 62.34 207.51 62.46 207.51 62.61C207.51 62.76 207.39 62.87 207.24 62.87Z" fill="#231F20" fill-opacity="1.000000" fill-rule="nonzero"/>
		<path id="path" d="M221.87 62.87L212.12 62.87C211.97 62.87 211.85 62.76 211.85 62.61C211.85 62.46 211.97 62.34 212.12 62.34L221.87 62.34C222.02 62.34 222.14 62.46 222.14 62.61C222.14 62.76 222.02 62.87 221.87 62.87Z" fill="#231F20" fill-opacity="1.000000" fill-rule="nonzero"/>
		<path id="path" d="M215.87 71.14L198.61 71.14C198.46 71.14 198.34 71.02 198.34 70.87C198.34 70.72 198.46 70.61 198.61 70.61L215.87 70.61C216.02 70.61 216.14 70.72 216.14 70.87C216.14 71.02 216.02 71.14 215.87 71.14Z" fill="#231F20" fill-opacity="1.000000" fill-rule="nonzero"/>
		<path id="polygon" d="M222.55 51.44L224.5 66.37L240.27 66.37L238.77 51.34L222.55 51.44Z" fill="#A2A8D5" fill-opacity="1.000000" fill-rule="nonzero"/>
		<path id="path" d="M240.56 66.63L224.27 66.63L222.25 51.18L239 51.08L240.56 66.63ZM224.74 66.1L239.98 66.1L238.53 51.61L222.85 51.71L224.74 66.1Z" fill="#231F20" fill-opacity="1.000000" fill-rule="nonzero"/>
		<path id="polygon" d="M226.27 72.17L228.26 87.4L244.86 87.58L242.52 72.37L226.27 72.17Z" fill="#FFFFFF" fill-opacity="1.000000" fill-rule="nonzero"/>
		<path id="path" d="M245.17 87.85L228.02 87.66L225.97 71.9L242.75 72.12L245.17 87.85ZM228.49 87.14L244.55 87.32L242.29 72.64L226.57 72.45L228.49 87.14Z" fill="#231F20" fill-opacity="1.000000" fill-rule="nonzero"/>
		<path id="path" d="M203.88 75.01L198.63 75.01C198.48 75.01 198.36 74.9 198.36 74.75C198.36 74.6 198.48 74.48 198.63 74.48L203.88 74.48C204.03 74.48 204.15 74.6 204.15 74.75C204.15 74.9 204.03 75.01 203.88 75.01Z" fill="#231F20" fill-opacity="1.000000" fill-rule="nonzero"/>
		<path id="path" d="M217.4 78.77L201.63 78.77C201.48 78.77 201.37 78.65 201.37 78.51C201.37 78.36 201.48 78.24 201.63 78.24L217.4 78.24C217.55 78.24 217.66 78.36 217.66 78.51C217.66 78.65 217.55 78.77 217.4 78.77Z" fill="#231F20" fill-opacity="1.000000" fill-rule="nonzero"/>
		<path id="path" d="M224.16 83.27L203.14 83.27C202.99 83.27 202.87 83.16 202.87 83.01C202.87 82.86 202.99 82.74 203.14 82.74L224.16 82.74C224.3 82.74 224.42 82.86 224.42 83.01C224.42 83.16 224.3 83.27 224.16 83.27Z" fill="#231F20" fill-opacity="1.000000" fill-rule="nonzero"/>
		<path id="path" d="M210.64 87.03L200.88 87.03C200.73 87.03 200.62 86.91 200.62 86.76C200.62 86.62 200.73 86.5 200.88 86.5L210.64 86.5C210.79 86.5 210.91 86.62 210.91 86.76C210.91 86.91 210.79 87.03 210.64 87.03Z" fill="#231F20" fill-opacity="1.000000" fill-rule="nonzero"/>
		<path id="path" d="M211.39 90.79L200.88 90.79C200.73 90.79 200.62 90.67 200.62 90.52C200.62 90.37 200.73 90.26 200.88 90.26L211.39 90.26C211.54 90.26 211.66 90.37 211.66 90.52C211.66 90.67 211.54 90.79 211.39 90.79Z" fill="#231F20" fill-opacity="1.000000" fill-rule="nonzero"/>
		<path id="path" d="M206.14 94.54L200.88 94.54C200.73 94.54 200.62 94.42 200.62 94.27C200.62 94.13 200.73 94.01 200.88 94.01L206.14 94.01C206.28 94.01 206.4 94.13 206.4 94.27C206.4 94.42 206.28 94.54 206.14 94.54Z" fill="#231F20" fill-opacity="1.000000" fill-rule="nonzero"/>
		<path id="path" d="M212.14 98.3L203.88 98.3C203.73 98.3 203.62 98.18 203.62 98.03C203.62 97.88 203.73 97.77 203.88 97.77L212.14 97.77C212.29 97.77 212.41 97.88 212.41 98.03C212.41 98.18 212.29 98.3 212.14 98.3Z" fill="#231F20" fill-opacity="1.000000" fill-rule="nonzero"/>
		<path id="path" d="M225.65 98.3L215.14 98.3C215 98.3 214.88 98.18 214.88 98.03C214.88 97.88 215 97.77 215.14 97.77L225.65 97.77C225.8 97.77 225.92 97.88 225.92 98.03C225.92 98.18 225.8 98.3 225.65 98.3Z" fill="#231F20" fill-opacity="1.000000" fill-rule="nonzero"/>
		<path id="path" d="M210.64 102.8L204.63 102.8C204.48 102.8 204.37 102.69 204.37 102.54C204.37 102.39 204.48 102.27 204.63 102.27L210.64 102.27C210.79 102.27 210.91 102.39 210.91 102.54C210.91 102.69 210.79 102.8 210.64 102.8Z" fill="#231F20" fill-opacity="1.000000" fill-rule="nonzero"/>
		<path id="path" d="M225.65 102.8L213.64 102.8C213.49 102.8 213.37 102.69 213.37 102.54C213.37 102.39 213.49 102.27 213.64 102.27L225.65 102.27C225.8 102.27 225.92 102.39 225.92 102.54C225.92 102.69 225.8 102.8 225.65 102.8Z" fill="#231F20" fill-opacity="1.000000" fill-rule="nonzero"/>
		<path id="path" d="M226.41 109.57L203.14 109.57C202.99 109.57 202.87 109.45 202.87 109.3C202.87 109.15 202.99 109.03 203.14 109.03L226.41 109.03C226.55 109.03 226.67 109.15 226.67 109.3C226.67 109.45 226.55 109.57 226.41 109.57Z" fill="#231F20" fill-opacity="1.000000" fill-rule="nonzero"/>
		<path id="path" d="M208.39 114.82L203.88 114.82C203.73 114.82 203.62 114.7 203.62 114.56C203.62 114.41 203.73 114.29 203.88 114.29L208.39 114.29C208.53 114.29 208.65 114.41 208.65 114.56C208.65 114.7 208.53 114.82 208.39 114.82Z" fill="#231F20" fill-opacity="1.000000" fill-rule="nonzero"/>
		<path id="path" d="M221.15 118.58L206.14 118.58C205.99 118.58 205.87 118.46 205.87 118.31C205.87 118.16 205.99 118.05 206.14 118.05L221.15 118.05C221.3 118.05 221.41 118.16 221.41 118.31C221.41 118.46 221.3 118.58 221.15 118.58Z" fill="#231F20" fill-opacity="1.000000" fill-rule="nonzero"/>
		<path id="path" d="M211.39 122.33L203.88 122.33C203.73 122.33 203.62 122.21 203.62 122.07C203.62 121.92 203.73 121.8 203.88 121.8L211.39 121.8C211.53 121.8 211.65 121.92 211.65 122.07C211.65 122.21 211.53 122.33 211.39 122.33Z" fill="#231F20" fill-opacity="1.000000" fill-rule="nonzero"/>
		<rect id="rect" x="54.859375" y="158.752686" width="161.393387" height="17.273064" fill="#FFFFFF" fill-opacity="1.000000"/>
		<path id="path" d="M216.52 176.29L54.59 176.29L54.59 158.49L216.52 158.49L216.52 176.29ZM55.12 175.76L215.98 175.76L215.98 159.02L55.12 159.02L55.12 175.76Z" fill="#231F20" fill-opacity="1.000000" fill-rule="nonzero"/>
		<path id="polygon" d="M127.44 139.01L122.41 158.75L199.73 158.75L199.73 154.24L129.17 154.24L133.61 138.92L127.44 139.01Z" fill="#FFFFFF" fill-opacity="1.000000" fill-rule="nonzero"/>
		<path id="path" d="M200 159.01L122.07 159.01L127.23 138.75L133.96 138.65L129.52 153.98L200 153.98L200 159.01ZM122.75 158.48L199.47 158.48L199.47 154.51L128.82 154.51L133.26 139.19L127.65 139.27L122.75 158.48Z" fill="#231F20" fill-opacity="1.000000" fill-rule="nonzero"/>
		<path id="polygon" d="M62.89 139.97L94.64 139.97L93.2 158.77L64.62 158.77L62.89 139.97Z" fill="#FFFFFF" fill-opacity="1.000000" fill-rule="nonzero"/>
		<path id="path" d="M93.44 159.04L64.37 159.04L62.6 139.71L94.93 139.71L93.44 159.04ZM64.85 158.51L92.95 158.51L94.35 140.24L63.18 140.24L64.85 158.51Z" fill="#231F20" fill-opacity="1.000000" fill-rule="nonzero"/>
		<path id="path" d="M159.94 229.35C159.94 229.35 155.27 231.74 152.26 215.73L158.44 211.32C158.44 211.32 160.55 223.37 159.94 229.35Z" fill="#231F20" fill-opacity="1.000000" fill-rule="nonzero"/>
		<path id="path" d="M159.28 229.74C158.95 229.74 158.53 229.67 158.05 229.44C156.3 228.58 153.82 225.51 152 215.78L151.96 215.62L158.63 210.87L158.71 211.28C158.73 211.4 160.81 223.43 160.21 229.38L160.19 229.52L160.07 229.58C160.07 229.58 159.75 229.74 159.28 229.74ZM152.55 215.85C154.33 225.19 156.63 228.13 158.26 228.95C158.95 229.3 159.46 229.23 159.69 229.16C160.17 223.87 158.6 213.94 158.25 211.79L152.55 215.85Z" fill="#231F20" fill-opacity="1.000000" fill-rule="nonzero"/>
		<path id="path" d="M86.7 206.5C86.7 206.5 87.13 203.82 88.63 203.06C88.63 203.06 94.64 199.31 101.39 201.56C108.15 203.81 141.92 221.84 141.92 221.84C141.92 221.84 142.67 225.6 141.17 230.1C141.17 230.1 139.67 236.86 131.42 234.61L108.9 220.34C108.9 220.34 97.64 218.84 96.14 217.34C94.64 215.83 86.7 206.5 86.7 206.5Z" fill="#FFFFFF" fill-opacity="1.000000" fill-rule="nonzero"/>
		<path id="path" d="M134.56 235.33C133.57 235.33 132.5 235.18 131.35 234.87L131.28 234.83L108.81 220.6C107.84 220.46 97.46 219.03 95.95 217.52C94.46 216.03 86.82 207.05 86.5 206.68L86.42 206.58L86.44 206.46C86.46 206.34 86.91 203.63 88.51 202.82C88.55 202.8 94.68 199.04 101.48 201.31C108.18 203.54 141.72 221.43 142.06 221.61L142.17 221.66L142.19 221.79C142.23 221.94 142.94 225.66 141.44 230.18C141.42 230.27 140.82 232.87 138.36 234.35C137.28 235 136 235.33 134.56 235.33ZM131.53 234.36C134.17 235.08 136.37 234.92 138.07 233.9C140.34 232.54 140.91 230.07 140.92 230.05C142.23 226.09 141.79 222.69 141.69 222.02C139.52 220.86 107.77 203.97 101.31 201.81C94.75 199.63 88.83 203.25 88.77 203.29C87.56 203.9 87.08 205.92 86.98 206.43C87.82 207.42 94.92 215.75 96.32 217.15C97.5 218.33 105.83 219.66 108.93 220.08L109.04 220.11L131.53 234.36Z" fill="#231F20" fill-opacity="1.000000" fill-rule="nonzero"/>
		<path id="path" d="M129.92 200.81C129.92 200.81 121.66 204.57 114.16 202.31C114.16 202.31 94.64 196.3 88.63 203.06C88.63 203.06 98.39 200.81 104.4 207.57C104.4 207.57 111.85 215.03 124.82 216.41C127.1 216.66 129.36 217.13 131.5 217.95C136.02 219.71 142.14 223.37 141.17 230.1L150.19 217.33L153.94 212.08L150.94 206.07L138.93 200.81L129.92 200.81Z" fill="#5E66A7" fill-opacity="1.000000" fill-rule="nonzero"/>
		<path id="path" d="M140.77 231.16L140.92 230.07C141.83 223.67 136.25 220.09 131.41 218.21C129.44 217.45 127.28 216.95 124.8 216.68C111.88 215.3 104.29 207.84 104.21 207.76C98.38 201.19 88.8 203.3 88.7 203.32L87.89 203.51L88.44 202.89C94.49 196.08 113.44 201.81 114.24 202.06C121.56 204.25 129.73 200.61 129.81 200.57L129.92 200.55L139.04 200.57L151.14 205.86L154.26 212.1L150.41 217.49L140.77 231.16ZM92.41 202.45C95.86 202.45 100.94 203.27 104.6 207.39C104.66 207.46 112.13 214.79 124.85 216.15C127.39 216.42 129.59 216.93 131.6 217.71C135.51 219.23 141.81 222.69 141.53 229.14L149.97 217.18L153.63 212.05L150.74 206.27L138.87 201.08L129.97 201.08C129.24 201.39 121.27 204.73 114.07 202.57C113.88 202.51 95.84 197.05 89.41 202.66C90.09 202.56 91.14 202.45 92.41 202.45Z" fill="#231F20" fill-opacity="1.000000" fill-rule="nonzero"/>
		<path id="path" d="M239.52 257.14L239.52 321.81C239.52 323.84 241.17 325.49 243.19 325.49L316.84 325.49L316.84 255.64L309.33 255.64L309.33 315.8C309.33 317.83 307.69 319.48 305.66 319.48L251.46 319.48C249.43 319.48 247.78 317.83 247.78 315.8L247.78 257.89L239.52 257.14Z" fill="#FFFFFF" fill-opacity="1.000000" fill-rule="nonzero"/>
		<path id="path" d="M317.1 325.76L243.19 325.76C241.02 325.76 239.25 323.99 239.25 321.82L239.25 256.85L248.04 257.65L248.04 315.81C248.04 317.69 249.57 319.22 251.45 319.22L305.65 319.22C307.53 319.22 309.06 317.69 309.06 315.81L309.06 255.38L317.1 255.38L317.1 325.76ZM239.78 257.44L239.78 321.82C239.78 323.7 241.32 325.23 243.19 325.23L316.57 325.23L316.57 255.91L309.6 255.91L309.6 315.81C309.6 317.98 307.83 319.75 305.66 319.75L251.46 319.75C249.28 319.75 247.52 317.98 247.52 315.81L247.52 258.13L239.78 257.44Z" fill="#231F20" fill-opacity="1.000000" fill-rule="nonzero"/>
		<path id="path" d="M343.68 322.49L282.26 322.49C281.04 322.49 280.05 321.5 280.05 320.28L280.05 258.65L274.05 258.65L274.05 323.99C274.05 323.99 273.62 329.14 281.71 329.94L310.75 329.94C310.75 329.94 315.93 329.92 319.75 328.83L343.68 322.49Z" fill="#FFFFFF" fill-opacity="1.000000" fill-rule="nonzero"/>
		<path id="path" d="M310.76 330.21L281.72 330.21C273.43 329.38 273.78 324.02 273.79 323.96L273.79 258.37L280.32 258.37L280.32 320.28C280.32 321.35 281.19 322.22 282.26 322.22L343.91 322.22L344 322.7L343.75 322.78L319.83 329.08C316.01 330.17 310.82 330.21 310.76 330.21ZM274.32 258.91L274.32 323.99C274.3 324.21 274.03 328.91 281.75 329.68L310.76 329.68C310.81 329.68 315.94 329.65 319.69 328.58L341.81 322.75L282.26 322.75C280.9 322.75 279.8 321.64 279.8 320.28L279.8 258.91L274.32 258.91Z" fill="#231F20" fill-opacity="1.000000" fill-rule="nonzero"/>
		<path id="path" d="M200.48 152.74L146.44 191.05C146.44 191.05 160.67 199.29 159.95 229.25C159.95 229.29 159.99 229.32 160.02 229.3L173.46 219.59L149.44 293.95C149.44 293.95 160.7 307.47 185.47 310.47C185.47 310.47 210.99 242.12 216.25 231.6C216.25 231.6 225.25 233.11 243.27 232.35C243.27 232.35 272.55 233.1 283.06 236.86C283.06 236.86 292.82 240.62 301.07 236.86C301.07 236.86 316.41 233.02 331.77 235.38C334.74 235.84 337.77 235.16 340.25 233.46C343.37 231.31 347.12 227.9 348.36 223.34L303.38 195.6L289.06 193.29C289.06 193.29 226.76 181.28 226.01 182.03C225.26 182.78 215.5 174.52 215.5 174.52L200.48 152.74Z" fill="#A2A8D5" fill-opacity="1.000000" fill-rule="nonzero"/>
		<path id="path" d="M185.64 310.76L185.44 310.74C160.84 307.75 149.35 294.25 149.23 294.12L149.14 294L149.18 293.87L172.95 220.28L160.03 229.61L159.84 229.54C159.73 229.48 159.67 229.37 159.67 229.25C160.37 199.78 146.42 191.36 146.29 191.28L145.93 191.07L200.54 152.37L215.68 174.35C220.1 178.08 225.05 181.87 225.84 181.82C226.11 181.62 227.74 181.53 257.85 187.12C273.35 190 288.94 193.01 289.1 193.04L303.46 195.35L348.66 223.22L348.61 223.41C347.33 228.1 343.44 231.58 340.39 233.68C337.86 235.42 334.78 236.12 331.71 235.64C316.6 233.32 301.28 237.08 301.13 237.11C292.91 240.86 283.05 237.14 282.95 237.1C272.61 233.41 243.55 232.62 243.26 232.61C226.86 233.3 217.81 232.1 216.39 231.89C211.01 242.83 185.96 309.87 185.71 310.55L185.64 310.76ZM149.74 293.89C150.88 295.17 162.24 307.32 185.29 310.18C186.82 306.11 210.95 241.62 216.01 231.49L216.1 231.31L216.29 231.34C216.38 231.36 225.49 232.83 243.26 232.09C243.57 232.1 272.71 232.89 283.14 236.62C283.24 236.65 292.9 240.29 300.96 236.63C301.16 236.57 316.57 232.79 331.8 235.13C334.73 235.58 337.68 234.91 340.09 233.25C343.02 231.23 346.76 227.9 348.05 223.47L303.27 195.86L289.01 193.56C272.11 190.3 228 181.94 226.12 182.27C225.15 182.76 219.74 178.47 215.32 174.72L215.27 174.67L200.41 153.11L146.89 191.04C149.05 192.54 160.73 201.96 160.21 228.82L173.95 218.89L149.74 293.89Z" fill="#231F20" fill-opacity="1.000000" fill-rule="nonzero"/>
		<path id="path" d="M187.39 133.54L215.08 175.76C215.78 176.82 217.06 177.36 218.31 177.11L279.87 163.22C281.35 162.88 281.98 161.13 281.05 159.93L249.28 119.17C248.81 118.56 248.04 118.27 247.29 118.4L189.53 128.71C187.28 129.06 186.14 131.63 187.39 133.54Z" fill="#A2A8D5" fill-opacity="1.000000" fill-rule="nonzero"/>
		<path id="path" d="M217.7 177.44C216.57 177.44 215.5 176.88 214.86 175.9L187.18 133.69C186.54 132.72 186.44 131.5 186.91 130.44C187.39 129.37 188.35 128.63 189.5 128.46L247.25 118.15C248.1 117.99 248.97 118.32 249.5 119.01L281.26 159.77C281.76 160.41 281.89 161.24 281.62 161.99C281.35 162.75 280.72 163.3 279.94 163.48L218.38 177.37C218.16 177.42 217.92 177.44 217.7 177.44ZM187.62 133.4L215.3 175.61C215.95 176.6 217.11 177.08 218.27 176.85L279.82 162.96C280.43 162.82 280.91 162.4 281.12 161.81C281.32 161.23 281.22 160.59 280.84 160.1L249.07 119.34C248.67 118.81 248 118.56 247.34 118.67L189.59 128.99C188.61 129.13 187.79 129.76 187.39 130.65C187 131.55 187.08 132.58 187.62 133.4Z" fill="#231F20" fill-opacity="1.000000" fill-rule="nonzero"/>
		<path id="polygon" d="M195.23 130.96L247.03 121.19L276.3 159.5L224.5 172.27L195.23 130.96Z" fill="#FFFFFF" fill-opacity="1.000000" fill-rule="nonzero"/>
		<path id="path" d="M224.39 172.57L224.29 172.42L194.77 130.78L247.13 120.91L276.76 159.66L224.39 172.57ZM195.68 131.14L224.62 171.97L275.84 159.34L246.91 121.49L195.68 131.14Z" fill="#231F20" fill-opacity="1.000000" fill-rule="nonzero"/>
		<rect id="rect" x="201.500000" y="149.294800" rx="1.731885" width="3.463769" height="7.434334" transform="rotate(-30.014 201.500000 149.294800)" fill="#231F20" fill-opacity="1.000000"/>
		<path id="path" d="M205.85 155.36C205.16 155.36 204.48 155.01 204.12 154.36L202.14 150.93C201.87 150.47 201.8 149.93 201.93 149.42C202.07 148.9 202.4 148.47 202.86 148.2C203.82 147.65 205.04 147.98 205.59 148.94L207.58 152.37C207.84 152.83 207.92 153.37 207.78 153.89C207.64 154.4 207.31 154.83 206.85 155.1C206.53 155.28 206.18 155.36 205.85 155.36ZM203.86 148.46C203.61 148.46 203.36 148.52 203.13 148.66C202.79 148.85 202.55 149.17 202.44 149.55C202.34 149.92 202.4 150.32 202.59 150.66L204.57 154.1C204.77 154.44 205.09 154.68 205.47 154.78C205.84 154.88 206.24 154.83 206.58 154.63C206.92 154.44 207.17 154.12 207.27 153.74C207.37 153.36 207.32 152.97 207.12 152.63L205.14 149.19C204.87 148.72 204.37 148.46 203.86 148.46Z" fill="#231F20" fill-opacity="1.000000" fill-rule="nonzero"/>
		<path id="path" d="M215.5 131.22C215.37 131.22 215.26 131.14 215.24 131.02C215.2 130.87 215.3 130.73 215.44 130.7L246.21 123.94C246.36 123.9 246.5 123.99 246.53 124.14C246.57 124.28 246.48 124.43 246.33 124.46L215.55 131.22C215.55 131.22 215.52 131.22 215.5 131.22Z" fill="#231F20" fill-opacity="1.000000" fill-rule="nonzero"/>
		<path id="path" d="M218.5 136.48C218.38 136.48 218.27 136.4 218.24 136.28C218.21 136.14 218.3 136 218.44 135.96L241.08 130.38C241.23 130.34 241.37 130.43 241.4 130.57C241.44 130.72 241.35 130.86 241.21 130.89L218.56 136.48C218.56 136.48 218.52 136.48 218.5 136.48Z" fill="#231F20" fill-opacity="1.000000" fill-rule="nonzero"/>
		<path id="path" d="M216.25 143.25C216.13 143.25 216.02 143.17 215.99 143.05C215.96 142.9 216.03 142.76 216.18 142.72L228.33 139.41C228.47 139.38 228.61 139.46 228.65 139.6C228.69 139.74 228.61 139.89 228.46 139.92L216.32 143.23C216.32 143.23 216.27 143.25 216.25 143.25Z" fill="#231F20" fill-opacity="1.000000" fill-rule="nonzero"/>
		<path id="path" d="M231.12 138.99C231.01 138.99 230.9 138.91 230.87 138.8C230.83 138.65 230.91 138.51 231.06 138.47L251.71 133.03C251.85 133 251.99 133.08 252.03 133.23C252.07 133.37 251.98 133.51 251.84 133.55L231.19 138.99C231.19 138.99 231.14 138.99 231.12 138.99Z" fill="#231F20" fill-opacity="1.000000" fill-rule="nonzero"/>
		<path id="path" d="M226.76 147.75C226.64 147.75 226.53 147.67 226.5 147.55C226.46 147.41 226.54 147.26 226.69 147.23L257.01 138.88C257.14 138.84 257.29 138.92 257.33 139.06C257.37 139.21 257.29 139.35 257.14 139.39L226.82 147.74C226.82 147.74 226.78 147.75 226.76 147.75Z" fill="#231F20" fill-opacity="1.000000" fill-rule="nonzero"/>
		<path id="path" d="M230.51 153.01C230.39 153.01 230.28 152.93 230.25 152.81C230.22 152.67 230.3 152.52 230.44 152.49L261.26 144.2C261.4 144.16 261.55 144.24 261.58 144.38C261.62 144.53 261.53 144.67 261.4 144.71L230.58 153C230.58 153 230.53 153.01 230.51 153.01Z" fill="#231F20" fill-opacity="1.000000" fill-rule="nonzero"/>
		<path id="path" d="M228.26 159.77C228.14 159.77 228.03 159.69 228 159.58C227.96 159.43 228.05 159.29 228.18 159.25L237.88 156.42C238.03 156.38 238.17 156.46 238.21 156.6C238.25 156.74 238.17 156.89 238.03 156.93L228.33 159.76C228.33 159.76 228.28 159.77 228.26 159.77Z" fill="#231F20" fill-opacity="1.000000" fill-rule="nonzero"/>
		<path id="path" d="M235.77 165.03C235.64 165.03 235.54 164.95 235.51 164.82C235.48 164.68 235.56 164.54 235.7 164.5L260.48 158.49C260.62 158.46 260.76 158.55 260.8 158.69C260.83 158.83 260.74 158.98 260.6 159.01L235.82 165.02C235.82 165.02 235.79 165.03 235.77 165.03Z" fill="#231F20" fill-opacity="1.000000" fill-rule="nonzero"/>
		<path id="polygon" d="M167.58 138.83L167.58 154.24L174.76 154.24L172.46 138.83L167.58 138.83Z" fill="#FFFFFF" fill-opacity="1.000000" fill-rule="nonzero"/>
		<path id="path" d="M175.07 154.51L167.32 154.51L167.32 138.56L172.69 138.56L175.07 154.51ZM167.85 153.98L174.46 153.98L172.23 139.09L167.85 139.09L167.85 153.98Z" fill="#231F20" fill-opacity="1.000000" fill-rule="nonzero"/>
		<path id="polygon" d="M307.91 82L308.58 90.4L332.6 85.89L328.85 72.37L322.09 67.86L310.83 65.61L307.91 82Z" fill="#FFFFFF" fill-opacity="1.000000" fill-rule="nonzero"/>
		<path id="path" d="M308.34 90.71L307.65 81.98L310.62 65.3L322.24 67.64L329.08 72.2L332.93 86.09L308.34 90.71ZM308.18 82.01L308.82 90.08L332.27 85.68L328.62 72.54L321.99 68.11L311.05 65.92L308.18 82.01Z" fill="#231F20" fill-opacity="1.000000" fill-rule="nonzero"/>
		<path id="path" d="M212.98 239.02L212.98 248.78C212.98 250.53 214.32 252 216.06 252.15L274.8 257.14C274.8 257.14 304.07 260.14 309.33 252.63L315.34 254.14L347.61 254.14C347.61 254.14 354.37 254.14 354.37 241.37L354.37 233.11C354.37 233.11 351.52 231.87 342.06 231.74C342.06 231.74 338.5 236.17 331.8 235.39C331.8 235.39 319.84 233.11 301.08 236.87C301.08 236.87 293.57 240.62 283.06 236.87C283.06 236.87 271.05 233.11 243.27 232.36C243.27 232.36 220.75 233.11 216.25 231.61L212.98 239.02Z" fill="#E6E7E8" fill-opacity="1.000000" fill-rule="nonzero"/>
		<path id="path" d="M287.53 258.02C280.91 258.02 275.29 257.46 274.77 257.41L216.04 252.41C214.14 252.25 212.71 250.69 212.71 248.78L212.73 238.91L216.1 231.27L216.32 231.35C220.73 232.82 243.03 232.09 243.25 232.09C270.76 232.83 283.01 236.57 283.13 236.6C293.41 240.28 300.88 236.66 300.94 236.62L301.01 236.6C319.61 232.88 331.72 235.1 331.84 235.13C338.28 235.88 341.8 231.61 341.84 231.57L341.92 231.47L342.05 231.47C351.46 231.6 354.34 232.81 354.46 232.86L354.62 232.93L354.62 241.37C354.62 254.26 347.88 254.4 347.59 254.4L315.25 254.39L309.42 252.93C306.29 257.08 296.08 258.02 287.53 258.02ZM213.24 239.08L213.24 248.79C213.24 250.42 214.46 251.75 216.09 251.88L274.82 256.88C275.12 256.91 304 259.78 309.11 252.49L309.22 252.34L315.37 253.88L347.62 253.88C347.68 253.88 354.1 253.7 354.1 241.38L354.1 233.3C353.39 233.05 350.16 232.13 342.18 232.01C341.59 232.68 337.96 236.38 331.77 235.66C331.63 235.63 319.63 233.43 301.15 237.12C300.59 237.39 293.1 240.74 282.96 237.12C282.85 237.09 270.67 233.37 243.26 232.63C242.37 232.66 221.35 233.34 216.39 231.93L213.24 239.08Z" fill="#231F20" fill-opacity="1.000000" fill-rule="nonzero"/>
		<path id="path" d="M305.58 252.9C305.43 252.89 305.3 252.77 305.31 252.62C305.46 250.16 304.71 248.01 303.09 246.21C298.05 240.64 286.17 240.13 286.05 240.13L217.73 237.13C217.59 237.13 217.48 237 217.48 236.85C217.48 236.71 217.61 236.59 217.76 236.6L286.07 239.6C286.56 239.62 298.29 240.12 303.48 245.85C305.2 247.76 306 250.05 305.84 252.65C305.83 252.79 305.71 252.9 305.58 252.9Z" fill="#231F20" fill-opacity="1.000000" fill-rule="nonzero"/>
		<path id="path" d="M345.36 239.38C345.3 239.38 345.24 239.36 345.19 239.32C340.08 234.94 333.93 235.78 333.87 235.79C333.72 235.81 333.59 235.71 333.57 235.56C333.54 235.42 333.64 235.28 333.79 235.26C333.85 235.25 340.24 234.38 345.53 238.92C345.64 239.01 345.65 239.18 345.55 239.29C345.5 239.35 345.44 239.38 345.36 239.38Z" fill="#231F20" fill-opacity="1.000000" fill-rule="nonzero"/>
		<path id="path" d="M173.46 219.85C173.38 219.85 173.31 219.82 173.25 219.76C173.16 219.65 173.18 219.47 173.28 219.38L201.81 195.35C202.16 195.07 210.2 188.53 215.49 188.53C215.64 188.53 215.76 188.64 215.76 188.79C215.76 188.94 215.64 189.06 215.49 189.06C210.39 189.06 202.23 195.69 202.15 195.76L173.62 219.79C173.58 219.84 173.52 219.85 173.46 219.85Z" fill="#231F20" fill-opacity="1.000000" fill-rule="nonzero"/>
		<path id="path" d="M174.21 296.46C174.19 296.46 174.16 296.46 174.13 296.45C173.99 296.4 173.91 296.25 173.96 296.11C174.18 295.47 195.83 231.35 203.26 218.7C203.34 218.58 203.5 218.53 203.62 218.61C203.75 218.68 203.79 218.85 203.72 218.97C196.32 231.57 174.69 295.64 174.47 296.28C174.43 296.4 174.32 296.46 174.21 296.46Z" fill="#231F20" fill-opacity="1.000000" fill-rule="nonzero"/>
		<path id="path" d="M216.25 231.87L207.2 230.37C207.05 230.34 206.95 230.21 206.98 230.06C207 229.91 207.14 229.81 207.29 229.84L216.3 231.34C216.44 231.37 216.54 231.5 216.52 231.65C216.5 231.78 216.38 231.87 216.25 231.87Z" fill="#231F20" fill-opacity="1.000000" fill-rule="nonzero"/>
		<path id="path" d="M272.55 227.37L226.32 221.16C224.14 220.87 222.09 219.8 220.53 218.17C219.89 217.49 219.32 217.15 218.83 217.15C218.25 217.15 217.81 217.63 217.42 218.04C217.34 218.13 217.27 218.2 217.19 218.28C215.91 219.78 214.75 220.43 213.77 220.17C212.5 219.84 211.9 218.11 211.62 216.73C211.46 215.95 211.21 215.27 210.86 214.71C210.17 213.62 209.41 213.09 208.62 213.1C206.82 213.15 205.24 215.94 205.23 215.97C205.16 216.1 204.99 216.15 204.87 216.07C204.74 216 204.69 215.84 204.77 215.71C204.84 215.58 206.5 212.63 208.6 212.57C209.61 212.55 210.52 213.17 211.32 214.43C211.7 215.04 211.98 215.78 212.15 216.63C212.31 217.44 212.81 219.37 213.92 219.66C214.67 219.86 215.67 219.26 216.81 217.92C216.9 217.84 216.97 217.76 217.05 217.68C217.49 217.21 218.04 216.62 218.84 216.62C219.5 216.62 220.18 217.01 220.93 217.81C222.41 219.36 224.34 220.36 226.39 220.64L272.59 226.85C272.73 226.87 272.84 227 272.82 227.14C272.8 227.28 272.68 227.37 272.55 227.37Z" fill="#231F20" fill-opacity="1.000000" fill-rule="nonzero"/>
		<path id="path" d="M169.96 307.08L169.96 311.87C162.46 311.87 161.45 317.98 161.45 317.98L155.8 317.57C150.27 317.19 145.48 313.53 143.69 308.27C143.51 307.77 143.43 307.46 143.43 307.46C146.43 302.21 149.44 293.94 149.44 293.94C157.7 302.95 169.96 307.08 169.96 307.08Z" fill="#FFFFFF" fill-opacity="1.000000" fill-rule="nonzero"/>
		<path id="path" d="M161.67 318.26L155.77 317.84C150.1 317.44 145.26 313.72 143.43 308.36C143.26 307.84 143.17 307.53 143.17 307.53L143.15 307.42L143.2 307.33C146.16 302.15 149.16 293.93 149.19 293.85L149.34 293.44L149.63 293.76C157.75 302.62 169.93 306.79 170.05 306.83L170.23 306.89L170.23 312.13L169.97 312.13C162.78 312.13 161.75 317.78 161.71 318.02L161.67 318.26ZM143.72 307.5C143.75 307.63 143.83 307.87 143.94 308.19C145.7 313.34 150.36 316.92 155.82 317.31L161.24 317.7C161.53 316.56 163.14 311.73 169.7 311.6L169.7 307.27C168.16 306.72 157.19 302.6 149.54 294.44C148.89 296.16 146.3 302.94 143.72 307.5Z" fill="#231F20" fill-opacity="1.000000" fill-rule="nonzero"/>
		<rect id="rect" x="109.656250" y="329.251221" width="65.308449" height="5.256334" fill="#FFFFFF" fill-opacity="1.000000"/>
		<path id="path" d="M175.23 334.77L109.39 334.77L109.39 328.98L175.23 328.98L175.23 334.77ZM109.92 334.24L174.69 334.24L174.69 329.51L109.92 329.51L109.92 334.24Z" fill="#231F20" fill-opacity="1.000000" fill-rule="nonzero"/>
		<path id="path" d="M146.44 191.05C146.44 191.05 136.68 197.06 129.92 200.81C129.92 200.81 129.32 206.84 136.75 208.63C138.03 208.94 139.35 209.05 140.68 209C143.42 208.9 150.8 209.37 150.19 217.33L158.44 211.32C158.44 211.32 156.19 197.81 146.44 191.05Z" fill="#FFFFFF" fill-opacity="1.000000" fill-rule="nonzero"/>
		<path id="path" d="M149.88 217.89L149.92 217.31C150.1 214.88 149.54 212.97 148.25 211.62C146.13 209.41 142.59 209.19 140.68 209.27C139.26 209.32 137.91 209.19 136.68 208.89C129.11 207.06 129.64 200.85 129.66 200.78L129.67 200.64L129.79 200.58C136.46 196.87 146.2 190.88 146.3 190.82L146.44 190.73L146.59 190.83C156.33 197.57 158.69 211.15 158.71 211.28L158.74 211.44L149.88 217.89ZM141.27 208.72C143.34 208.72 146.59 209.11 148.64 211.25C149.94 212.61 150.56 214.47 150.48 216.79L158.15 211.21C157.86 209.68 155.3 197.62 146.42 191.37C145.17 192.13 136.4 197.51 130.17 200.97C130.13 201.88 130.23 206.79 136.81 208.38C138 208.66 139.3 208.79 140.67 208.73C140.85 208.73 141.05 208.72 141.27 208.72Z" fill="#231F20" fill-opacity="1.000000" fill-rule="nonzero"/>
		<path id="path" d="M82.62 159.14C82.48 159.14 82.36 159.02 82.36 158.87L82.36 142.97C82.36 142.83 82.48 142.71 82.62 142.71C82.77 142.71 82.89 142.83 82.89 142.97L82.89 158.87C82.89 159.02 82.77 159.14 82.62 159.14Z" fill="#231F20" fill-opacity="1.000000" fill-rule="nonzero"/>
		<rect id="rect" x="284.281250" y="46.254272" rx="11.636081" width="23.272161" height="41.235287" transform="rotate(-17.7494 284.281250 46.254272)" fill="#FFFFFF" fill-opacity="1.000000"/>
		<path id="path" d="M304.36 82.82C302.49 82.82 300.63 82.37 298.92 81.49C296.09 80.04 294 77.56 293.03 74.53L287.57 57.43C286.6 54.4 286.87 51.18 288.32 48.35C289.78 45.52 292.25 43.43 295.27 42.46C298.3 41.49 301.53 41.76 304.35 43.21C307.18 44.67 309.26 47.14 310.24 50.17L315.7 67.27C316.67 70.3 316.41 73.53 314.95 76.36C313.5 79.19 311.02 81.27 308 82.25C306.8 82.63 305.57 82.82 304.36 82.82ZM298.92 42.42C297.75 42.42 296.58 42.6 295.44 42.97C292.55 43.9 290.19 45.89 288.8 48.59C287.41 51.29 287.15 54.38 288.08 57.27L293.54 74.38C294.47 77.27 296.46 79.63 299.16 81.02C301.86 82.42 304.94 82.67 307.84 81.75C310.73 80.82 313.09 78.82 314.48 76.12C315.87 73.42 316.13 70.34 315.2 67.44L309.74 50.34C308.82 47.45 306.82 45.09 304.12 43.69C302.48 42.85 300.7 42.42 298.92 42.42Z" fill="#231F20" fill-opacity="1.000000" fill-rule="nonzero"/>
		<path id="path" d="M295.82 58.1L283.06 45.34C283.06 45.34 275.55 37.07 292.82 32.57C292.82 32.57 289.06 27.31 301.08 29.57C301.08 29.57 308.59 23.56 313.09 29.57C313.09 29.57 328.1 28.06 328.1 48.34C328.1 48.34 327.35 61.86 328.85 72.38C328.85 72.38 313.28 84.49 302.3 64.92L295.82 58.1Z" fill="#FFFFFF" fill-opacity="1.000000" fill-rule="nonzero"/>
		<path id="path" d="M317.94 76.34C317 76.34 316.03 76.26 315.04 76.05C309.96 75.03 305.6 71.34 302.08 65.07L295.62 58.29L282.86 45.52C282.76 45.4 280.45 42.82 281.38 39.66C282.3 36.56 286.01 34.12 292.4 32.4C292.12 31.89 291.71 30.86 292.26 29.99C293.14 28.61 296.08 28.37 301 29.28C301.64 28.79 305.21 26.22 308.84 26.68C310.57 26.9 312.03 27.78 313.2 29.28C314.12 29.23 318.94 29.11 322.94 32.73C326.54 35.99 328.36 41.23 328.36 48.34C328.35 48.49 327.62 61.97 329.11 72.33L329.13 72.49L329.01 72.58C328.95 72.63 324.09 76.34 317.94 76.34ZM296.05 29.26C293.92 29.26 293.05 29.75 292.71 30.27C292.15 31.15 293.02 32.4 293.03 32.41L293.25 32.72L292.88 32.82C286.48 34.49 282.78 36.85 281.9 39.81C281.05 42.68 283.23 45.13 283.25 45.15L296.01 57.92L302.53 64.78C305.98 70.92 310.22 74.53 315.14 75.53C321.82 76.87 327.65 72.9 328.56 72.24C327.1 61.84 327.82 48.45 327.83 48.31C327.83 41.38 326.07 36.26 322.59 33.12C318.41 29.33 313.16 29.81 313.1 29.81L312.96 29.83L312.87 29.7C311.77 28.24 310.39 27.4 308.77 27.19C305.08 26.72 301.27 29.72 301.23 29.75L301.14 29.83L301.01 29.81C298.87 29.4 297.26 29.26 296.05 29.26Z" fill="#231F20" fill-opacity="1.000000" fill-rule="nonzero"/>
		<ellipse id="ellipse" rx="3.378505" ry="5.255991" transform="matrix(0.94188 -0.335949 0.335612 0.942 299.203 61.1123)" fill="#FFFFFF" fill-opacity="1.000000"/>
		<path id="path" d="M300.21 66.45C298.51 66.45 296.64 64.79 295.76 62.33C295.27 60.96 295.16 59.55 295.44 58.35C295.73 57.11 296.41 56.24 297.34 55.9C298.28 55.57 299.35 55.81 300.36 56.59C301.33 57.34 302.14 58.51 302.62 59.88C303.64 62.75 302.94 65.63 301.05 66.3C300.78 66.4 300.5 66.45 300.21 66.45ZM298.19 56.29C297.96 56.29 297.73 56.33 297.52 56.41C296.76 56.68 296.2 57.41 295.96 58.47C295.7 59.57 295.81 60.88 296.27 62.15C297.19 64.75 299.26 66.39 300.87 65.81C302.49 65.23 303.05 62.65 302.13 60.06C301.68 58.79 300.94 57.7 300.04 57.01C299.42 56.53 298.78 56.29 298.19 56.29Z" fill="#231F20" fill-opacity="1.000000" fill-rule="nonzero"/>
		<path id="path" d="M174.96 329.25L109.65 329.25C108.91 323.99 125.42 320.98 125.42 320.98C135.17 317.98 143.44 307.46 143.44 307.46C143.44 307.46 143.52 307.77 143.69 308.27C145.49 313.53 150.27 317.18 155.8 317.57L160.08 317.88C160.83 317.94 161.51 317.47 161.75 316.75C162.21 315.3 163.37 312.95 166.19 311.84C168.63 310.88 171.34 311.95 172.57 314.26C175.45 319.64 174.96 329.25 174.96 329.25Z" fill="#5E66A7" fill-opacity="1.000000" fill-rule="nonzero"/>
		<path id="path" d="M175.21 329.51L109.42 329.51L109.39 329.28C108.61 323.84 124.68 320.85 125.36 320.72C134.9 317.78 143.14 307.4 143.22 307.3L143.55 306.88L143.68 307.39C143.68 307.39 143.77 307.7 143.93 308.18C145.7 313.34 150.35 316.92 155.81 317.3L160.09 317.61C160.72 317.66 161.29 317.27 161.48 316.67C161.92 315.27 163.12 312.75 166.08 311.59C168.6 310.59 171.49 311.69 172.79 314.13C175.67 319.52 175.24 328.86 175.22 329.26L175.21 329.51ZM109.89 328.98L174.7 328.98C174.75 327.43 174.87 319.16 172.32 314.39C171.15 312.18 168.55 311.19 166.28 312.09C163.52 313.17 162.4 315.53 161.98 316.84C161.72 317.68 160.92 318.22 160.05 318.15L155.77 317.85C150.1 317.45 145.26 313.73 143.43 308.37C143.39 308.24 143.35 308.13 143.32 308.02C141.7 309.96 134.14 318.58 125.49 321.24C125.3 321.28 109.7 324.17 109.89 328.98Z" fill="#231F20" fill-opacity="1.000000" fill-rule="nonzero"/>
		<path id="path" d="M89.13 204.73C90.6 204.73 92.69 205.11 95.41 206.47C97.91 207.72 100.13 209.45 102.07 211.45C104.57 214.04 110.24 218.84 117.91 218.84C117.91 218.84 133.67 218.84 137.42 229.35C137.42 229.35 139.67 236.86 127.66 233.86L114.02 231.23C107.27 229.93 100.89 227.04 95.63 222.6C91.32 218.95 87.34 213.98 86.53 207.68C86.33 206.1 87.53 204.73 89.13 204.73Z" fill="#231F20" fill-opacity="1.000000" fill-rule="nonzero"/>
		<path id="path" d="M132.57 234.83C131.17 234.83 129.52 234.6 127.6 234.12L113.98 231.5C107.02 230.16 100.62 227.15 95.47 222.81C90.07 218.26 86.98 213.18 86.27 207.72C86.16 206.89 86.41 206.06 86.96 205.43C87.51 204.82 88.3 204.46 89.13 204.46C91.03 204.46 93.18 205.06 95.53 206.24C97.93 207.44 100.19 209.13 102.26 211.26C104.89 214 110.43 218.57 117.91 218.57C118.07 218.57 133.9 218.69 137.67 229.26C137.71 229.38 138.41 231.79 136.84 233.43C135.94 234.37 134.52 234.83 132.57 234.83ZM89.13 204.99C88.45 204.99 87.81 205.27 87.36 205.78C86.92 206.29 86.71 206.97 86.8 207.65C87.48 212.97 90.51 217.93 95.81 222.4C100.89 226.68 107.21 229.65 114.08 230.97L127.72 233.6C132.07 234.69 135.09 234.5 136.46 233.06C137.81 231.65 137.18 229.45 137.17 229.42C133.53 219.22 118.07 219.1 117.91 219.1C110.24 219.1 104.57 214.42 101.88 211.63C99.86 209.53 97.64 207.88 95.3 206.7C93.03 205.57 90.94 204.99 89.13 204.99Z" fill="#231F20" fill-opacity="1.000000" fill-rule="nonzero"/>
		<path id="path" d="M393.41 161C393.41 161 388.15 170.77 375.39 171.52L302.57 205.32C302.57 205.32 296.57 203.82 292.06 198.56C292.06 198.56 277.66 225.32 257.38 211.29C255.35 209.88 252.95 209.11 250.48 209C241.49 208.63 220.59 206.42 220 194.05L219.97 193.25L219.25 178.28C219.25 178.28 219.63 173.32 225.29 171.83C227.57 171.23 230.71 171.19 235.02 172.27L258.28 175.27C258.28 175.27 268.04 121.95 284.56 109.18L297.32 99.41C297.32 99.41 298.07 91.15 313.84 86.65C313.84 86.65 341.61 77.38 353.71 81.83C355.75 82.59 356.73 84.99 355.76 86.94C355.26 87.95 354.37 89.11 352.87 90.4C352.87 90.4 364.13 93.4 373.14 102.42L384.46 112.67C389.58 117.3 394.11 122.54 397.85 128.33C405.02 139.47 411.23 155.37 393.41 161Z" fill="#5E66A7" fill-opacity="1.000000" fill-rule="nonzero"/>
		<path id="path" d="M269.18 215.62C265.19 215.62 261.19 214.25 257.23 211.51C255.27 210.14 252.93 209.37 250.47 209.27C241.43 208.89 220.33 206.65 219.73 194.06L218.98 178.29C218.98 178.21 219.44 173.09 225.22 171.57C227.84 170.88 231.16 171.03 235.07 172.01L258.07 174.97C258.82 171 268.56 121.2 284.39 108.96L297.06 99.27C297.22 98.19 298.83 90.65 313.75 86.39C314.88 86.01 341.75 77.15 353.79 81.58C354.85 81.97 355.69 82.8 356.11 83.87C356.53 84.91 356.48 86.07 355.99 87.06C355.46 88.12 354.59 89.2 353.4 90.28C355.63 90.96 365.39 94.3 373.32 102.23L384.63 112.47C389.88 117.22 394.4 122.51 398.06 128.18C402.46 135.02 407.15 144.74 404.47 152.16C402.97 156.34 399.3 159.39 393.57 161.21C392.98 162.23 387.49 171.04 375.44 171.77L302.59 205.59L302.5 205.57C302.44 205.55 296.58 204.04 292.1 199C290.88 201.11 283.8 212.59 273.32 215.11C271.94 215.44 270.57 215.62 269.18 215.62ZM228.81 171.68C227.54 171.68 226.39 171.82 225.36 172.09C219.94 173.51 219.52 178.25 219.51 178.3L220.27 194.04C220.84 206.19 241.59 208.37 250.49 208.74C253.05 208.85 255.48 209.65 257.53 211.07C262.73 214.67 268 215.86 273.2 214.61C284.46 211.9 291.75 198.56 291.83 198.43L292.01 198.09L292.26 198.38C296.36 203.17 301.79 204.82 302.55 205.03L375.32 171.26C387.78 170.53 393.11 160.97 393.16 160.88L393.22 160.78L393.32 160.75C398.94 158.98 402.52 156.03 403.98 151.99C406.58 144.76 401.96 135.22 397.62 128.48C393.98 122.85 389.5 117.6 384.28 112.88L372.95 102.62C364.09 93.75 352.91 90.69 352.8 90.66L352.31 90.53L352.69 90.2C354.02 89.07 354.97 87.93 355.52 86.83C355.94 85.98 355.98 84.97 355.62 84.07C355.26 83.15 354.53 82.43 353.62 82.09C341.74 77.72 314.19 86.81 313.92 86.91C298.53 91.3 297.59 99.37 297.59 99.45L297.57 99.56L297.48 99.63L284.72 109.4C268.48 121.96 258.64 174.79 258.55 175.32L258.5 175.57L234.98 172.54C232.69 171.97 230.63 171.68 228.81 171.68Z" fill="#231F20" fill-opacity="1.000000" fill-rule="nonzero"/>
		<path id="path" d="M219.25 178.28L219.97 193.25C219.46 192.56 214.07 185.25 212.73 180.76C212.55 180.16 212.21 179.62 211.74 179.2C210.46 178.07 208.05 175.13 208.54 169.38C208.63 168.28 208.23 167.2 207.48 166.38L203.34 161.81C202.19 160.56 202.33 158.59 203.64 157.5C204.2 157.03 204.88 156.8 205.56 156.8C206.33 156.8 207.09 157.1 207.68 157.68L214 164.01C214 164.01 223.82 169.06 225.29 171.8C219.63 173.28 219.25 178.28 219.25 178.28Z" fill="#FFFFFF" fill-opacity="1.000000" fill-rule="nonzero"/>
		<path id="path" d="M220.27 194.11L219.75 193.41C219.14 192.59 213.8 185.31 212.46 180.84C212.3 180.28 211.99 179.79 211.56 179.41C210.12 178.13 207.78 175.13 208.27 169.36C208.35 168.36 208 167.34 207.29 166.56L203.14 162C202.54 161.33 202.24 160.47 202.3 159.57C202.37 158.67 202.78 157.87 203.47 157.3C204.06 156.81 204.8 156.54 205.56 156.54C206.43 156.54 207.25 156.88 207.87 157.49L214.16 163.8C214.92 164.19 224.07 168.96 225.53 171.67L225.55 171.75L225.6 171.99L225.37 172.09C220.07 173.48 219.55 177.93 219.52 178.29L220.27 194.11ZM205.55 157.07C204.91 157.07 204.29 157.29 203.8 157.7C203.22 158.18 202.88 158.86 202.82 159.61C202.77 160.36 203.02 161.08 203.53 161.63L207.68 166.2C208.49 167.09 208.9 168.26 208.8 169.4C208.33 174.94 210.54 177.8 211.91 179.01C212.41 179.45 212.78 180.03 212.98 180.68C214.1 184.43 218.14 190.27 219.65 192.37L218.98 178.28C218.98 178.23 219.43 173.29 224.89 171.67C223.03 168.98 213.96 164.3 213.87 164.25L213.8 164.2L207.48 157.87C206.96 157.36 206.28 157.07 205.55 157.07Z" fill="#231F20" fill-opacity="1.000000" fill-rule="nonzero"/>
		<path id="path" d="M306.34 226.98L363.36 224.43C367.67 224.24 371.18 220.89 371.57 216.59L377.05 157.19C377.05 157.19 371.42 150.38 368.53 145.92L324.62 147.02C314.26 147.28 305.8 155.41 305.11 165.75L301.42 221.83C301.23 224.66 303.51 227.05 306.34 226.98Z" fill="#FFFFFF" fill-opacity="1.000000" fill-rule="nonzero"/>
		<path id="path" d="M306.24 227.25C304.85 227.25 303.51 226.68 302.55 225.68C301.57 224.65 301.05 223.24 301.15 221.82L304.84 165.74C305.54 155.19 314.05 147.03 324.62 146.76L368.67 145.66L368.75 145.78C371.6 150.17 377.2 156.96 377.26 157.03L377.33 157.11L377.32 157.22L371.84 216.62C371.43 221.03 367.79 224.5 363.37 224.7L306.35 227.26C306.32 227.26 306.27 227.25 306.24 227.25ZM368.38 146.19L324.63 147.29C314.34 147.54 306.06 155.5 305.37 165.77L301.68 221.85C301.6 223.13 302.05 224.39 302.94 225.31C303.82 226.24 305.07 226.74 306.34 226.72L363.35 224.16C367.51 223.98 370.93 220.71 371.31 216.56L376.78 157.28C376.12 156.48 371.1 150.34 368.38 146.19Z" fill="#231F20" fill-opacity="1.000000" fill-rule="nonzero"/>
		<path id="path" d="M310.08 221.36C309.94 221.34 309.8 221.21 309.82 221.06L315.82 166.24C315.92 165.78 318.13 155.59 321.16 152.56C321.26 152.45 321.43 152.45 321.53 152.56C321.64 152.66 321.64 152.83 321.53 152.93C318.62 155.85 316.38 166.22 316.35 166.32L310.35 221.12C310.33 221.26 310.22 221.36 310.08 221.36Z" fill="#231F20" fill-opacity="1.000000" fill-rule="nonzero"/>
		<path id="path" d="M322.34 170.95L309.34 252.64C309.34 252.64 305.69 258.86 285.37 257.63L218.67 252.48C218.67 252.48 211.75 254.89 209.5 277.43L208.75 324.75C208.75 324.75 209.5 336.76 227.52 336.01L309.54 336.01C311.95 336.01 314.36 335.87 316.75 335.6C321.4 335.06 328.96 333.88 335.61 331.51L343.55 328.67C346.03 327.78 346.62 324.43 344.49 322.87C344.46 322.85 344.44 322.83 344.41 322.82C344.1 322.59 343.69 322.54 343.32 322.64L319.77 328.84C316.84 329.61 313.8 330 310.77 330L223.77 330C223.77 330 214.76 330 214.76 317.98L215.51 277.43C215.51 277.43 215.51 258.65 223.01 258.65L270.3 259.4C270.3 259.4 306.33 261.65 314.59 256.4C314.59 256.4 335.35 258.34 351.54 256.81C354.37 256.54 356.83 254.75 357.98 252.16C359.05 249.78 360.21 246.14 361.13 240.62L371.1 169.4C371.4 167.28 369.87 165.34 367.74 165.12C365.72 164.92 363.91 166.34 363.62 168.35L354.38 233.11C354.38 233.11 356.63 253.39 347.62 254.14L315.34 254.14L329.02 172.05C329.34 170.13 327.98 168.34 326.05 168.12C324.26 167.92 322.62 169.17 322.34 170.95Z" fill="#FFFFFF" fill-opacity="1.000000" fill-rule="nonzero"/>
		<path id="path" d="M225.92 336.3C209.39 336.3 208.48 324.87 208.47 324.76L209.22 277.42C211.47 254.95 218.28 252.33 218.57 252.22L218.62 252.21L218.68 252.21L285.37 257.36C304.48 258.53 308.72 253.05 309.07 252.54L322.07 170.91C322.38 168.98 324.14 167.65 326.07 167.86C327.08 167.97 327.97 168.47 328.58 169.28C329.19 170.09 329.44 171.08 329.27 172.08L315.65 253.87L347.61 253.87C349.05 253.75 350.28 253.08 351.28 251.87C355.55 246.68 354.12 233.27 354.1 233.13L354.1 233.07L363.35 168.3C363.66 166.15 365.59 164.64 367.76 164.85C368.86 164.97 369.84 165.51 370.53 166.38C371.21 167.25 371.51 168.34 371.35 169.44L361.39 240.65C360.59 245.43 359.53 249.33 358.22 252.26C357.02 254.95 354.46 256.79 351.55 257.07C336.07 258.54 316.16 256.8 314.65 256.66C306.28 261.84 271.75 259.75 270.28 259.66L223 258.91C215.84 258.91 215.77 277.24 215.77 277.42L215.02 317.98C215.02 329.58 223.4 329.73 223.76 329.73L310.76 329.73C313.77 329.73 316.78 329.34 319.69 328.57L343.24 322.37C343.71 322.25 344.18 322.33 344.55 322.59L344.64 322.65C345.69 323.42 346.21 324.67 346.01 325.98C345.81 327.33 344.9 328.45 343.62 328.91L335.69 331.74C329.16 334.08 321.8 335.26 316.77 335.85C314.4 336.13 311.96 336.27 309.53 336.27L227.51 336.27C226.97 336.29 226.43 336.3 225.92 336.3ZM218.7 252.74C218.11 253.01 211.86 256.37 209.75 277.44L209 324.74C209.03 325.2 209.97 336.46 227.5 335.74L309.53 335.74C311.94 335.74 314.36 335.6 316.71 335.32C321.71 334.74 329.03 333.56 335.51 331.25L343.44 328.41C344.53 328.02 345.32 327.06 345.48 325.9C345.65 324.79 345.21 323.72 344.32 323.07L344.25 323.02C344.01 322.85 343.69 322.8 343.38 322.88L319.84 329.08C316.87 329.86 313.82 330.26 310.76 330.26L223.76 330.26C223.67 330.26 214.48 330.12 214.48 317.97L215.23 277.41C215.23 276.64 215.32 258.37 223 258.37L270.3 259.12C270.67 259.14 306.35 261.31 314.44 256.16L314.51 256.12L314.61 256.13C314.82 256.15 335.52 258.06 351.5 256.54C354.22 256.27 356.61 254.55 357.73 252.04C359.02 249.15 360.07 245.29 360.85 240.57L370.82 169.36C370.95 168.4 370.7 167.46 370.1 166.7C369.51 165.94 368.66 165.47 367.69 165.38C365.82 165.19 364.14 166.5 363.87 168.37L354.62 233.11C354.73 234.03 356.03 246.92 351.68 252.2C350.59 253.53 349.22 254.27 347.62 254.4L315.01 254.4L328.74 171.99C328.88 171.14 328.67 170.29 328.15 169.6C327.62 168.91 326.87 168.48 326.01 168.38C324.35 168.2 322.85 169.35 322.59 170.99L309.57 252.73C309.42 252.99 305.58 259.12 285.34 257.89L218.7 252.74Z" fill="#231F20" fill-opacity="1.000000" fill-rule="nonzero"/>
		<path id="path" d="M338.83 114.4C328.99 114.4 323.63 108.37 321.58 105.37C319.94 102.98 318.23 101.08 316.32 99.57C307.17 92.3 299.99 94.65 299.92 94.67C299.78 94.72 299.63 94.65 299.58 94.51C299.53 94.37 299.61 94.22 299.75 94.17C299.82 94.14 307.27 91.7 316.65 99.15C318.6 100.7 320.35 102.63 322.01 105.06C324.43 108.61 331.58 116.47 345.52 112.99C349.04 112.12 352 110.3 354.07 107.76C356.88 104.3 358.93 98.5 352.66 90.56C352.57 90.44 352.59 90.28 352.7 90.19C352.82 90.1 352.98 90.12 353.07 90.23C359.56 98.45 357.41 104.48 354.48 108.09C352.33 110.73 349.28 112.6 345.65 113.5C343.17 114.12 340.9 114.4 338.83 114.4Z" fill="#231F20" fill-opacity="1.000000" fill-rule="nonzero"/>
		<path id="path" d="M335.6 100.43C335.48 100.43 335.37 100.34 335.34 100.21C335.32 100.07 335.41 99.93 335.56 99.9C335.64 99.89 343.8 98.32 350.42 90.97C350.52 90.86 350.68 90.86 350.8 90.95C350.91 91.05 350.91 91.22 350.82 91.33C344.08 98.82 335.69 100.41 335.6 100.43Z" fill="#231F20" fill-opacity="1.000000" fill-rule="nonzero"/>
		<path id="path" d="M300.32 146.25C300.18 146.25 300.07 146.14 300.05 146C298.58 121.65 282.07 111.82 281.91 111.73C281.78 111.65 281.74 111.49 281.81 111.37C281.89 111.24 282.05 111.2 282.18 111.27C282.34 111.37 299.09 121.32 300.59 145.97C300.6 146.12 300.47 146.24 300.32 146.25Z" fill="#231F20" fill-opacity="1.000000" fill-rule="nonzero"/>
		<path id="path" d="M292.06 198.82C292.01 198.82 291.95 198.81 291.9 198.77C291.79 198.68 291.76 198.51 291.85 198.4C298.46 189.57 297.81 179.9 297.8 179.8C297.05 170.83 299.3 165.46 299.33 165.4C302.29 158.73 304.55 151.23 304.57 151.16C304.61 151.02 304.76 150.94 304.9 150.98C305.04 151.02 305.12 151.17 305.08 151.31C305.06 151.38 302.79 158.91 299.82 165.61C299.8 165.66 297.6 170.92 298.34 179.75C298.34 179.85 299.01 189.72 292.28 198.71C292.23 198.78 292.14 198.82 292.06 198.82Z" fill="#231F20" fill-opacity="1.000000" fill-rule="nonzero"/>
		<path id="path" d="M251.53 195.82C251.47 195.82 251.41 195.8 251.36 195.76C251.25 195.66 251.23 195.5 251.32 195.39C257.94 187.29 258.02 175.39 258.02 175.28C258.02 175.13 258.14 175.01 258.28 175.01C258.43 175.01 258.55 175.13 258.55 175.28C258.55 175.4 258.47 187.49 251.74 195.72C251.68 195.79 251.61 195.82 251.53 195.82Z" fill="#231F20" fill-opacity="1.000000" fill-rule="nonzero"/>
		<path id="path" d="M365.63 144.74C365.6 144.74 365.56 144.74 365.53 144.72C365.39 144.67 365.32 144.52 365.38 144.38C369.81 133.29 369.12 118.35 369.11 118.2C369.1 118.05 369.22 117.93 369.36 117.93C369.5 117.91 369.63 118.03 369.64 118.18C369.64 118.32 370.34 133.39 365.87 144.57C365.82 144.68 365.73 144.74 365.63 144.74Z" fill="#231F20" fill-opacity="1.000000" fill-rule="nonzero"/>
		<path id="path" d="M371.64 137.98C371.59 137.98 371.55 137.97 371.51 137.95C371.39 137.88 371.33 137.72 371.4 137.59C378.79 123.54 378.46 107.94 378.46 107.78C378.46 107.63 378.57 107.51 378.71 107.51C378.85 107.51 378.99 107.62 378.99 107.77C378.99 107.93 379.33 123.67 371.87 137.84C371.83 137.93 371.73 137.98 371.64 137.98Z" fill="#231F20" fill-opacity="1.000000" fill-rule="nonzero"/>
		<path id="path" d="M383.64 164.28C383.58 164.28 383.52 164.25 383.46 164.21C383.35 164.11 372.86 154.3 367.64 144.61C367.57 144.48 367.62 144.32 367.75 144.25C367.88 144.18 368.04 144.23 368.11 144.36C373.28 153.97 383.72 163.72 383.82 163.81C383.93 163.91 383.94 164.08 383.84 164.19C383.79 164.25 383.72 164.28 383.64 164.28Z" fill="#231F20" fill-opacity="1.000000" fill-rule="nonzero"/>
		<path id="path" d="M299.44 62.71C299.33 62.71 299.23 62.64 299.19 62.53L298.13 59.34C298.08 59.2 298.16 59.05 298.3 59.01C298.44 58.96 298.59 59.03 298.64 59.18L299.7 62.36C299.75 62.5 299.67 62.66 299.53 62.7C299.5 62.71 299.47 62.71 299.44 62.71Z" fill="#231F20" fill-opacity="1.000000" fill-rule="nonzero"/>
		<path id="path" d="M289.22 66.87C288.85 66.87 288.52 66.63 288.41 66.27L287.11 61.95C286.99 61.55 287.19 61.1 287.58 60.93L295.71 57.33C295.84 57.27 296 57.33 296.06 57.46C296.12 57.6 296.06 57.76 295.93 57.81L287.8 61.42C287.66 61.48 287.58 61.64 287.62 61.8L288.92 66.12C288.97 66.27 289.12 66.37 289.28 66.33L290.8 66.03C290.95 65.99 291.09 66.09 291.12 66.23C291.15 66.38 291.05 66.51 290.91 66.55L289.39 66.86C289.33 66.87 289.28 66.87 289.22 66.87Z" fill="#231F20" fill-opacity="1.000000" fill-rule="nonzero"/>
	</g>
</svg>
