<svg width="280" height="300" viewBox="0 0 280 300" fill="none" xmlns="http://www.w3.org/2000/svg">
<g clip-path="url(#clip0_556_12459)">
<path fill-rule="evenodd" clip-rule="evenodd" d="M221.002 114.621C250.152 162.537 270.717 221.959 238.841 263.283C206.688 304.964 145.636 300.567 95.6216 277.16C50.5059 256.045 22.0086 210.862 20.2563 160.984C18.0789 99.0032 28.8302 25.8594 86.3268 12.5805C143.365 -0.592505 188.308 60.878 221.002 114.621Z" fill="#E7E7FF" fill-opacity="0.4"/>
<path d="M109.717 86.4857C108.027 87.1297 106.301 87.6757 104.547 88.1208C102.231 88.6852 100.924 88.9469 98.6881 88.0793C98.6096 88.0488 98.5346 88.0187 98.464 87.9891C94.2268 86.1875 90.6047 83.193 88.0386 79.37C85.4725 75.5471 84.0732 71.0606 84.0108 66.4567C83.9996 66.2987 83.9996 66.1327 83.9996 65.9707C83.9975 65.1904 84.0348 64.4105 84.1114 63.634C84.2094 62.5763 84.3786 61.5264 84.6179 60.4914L84.5955 60.4874C82.7856 58.6367 82.0892 56.1015 82.3201 53.5542C82.4783 51.8273 83.0264 50.1588 83.923 48.6744C84.8197 47.1901 86.0416 45.9286 87.4966 44.985C89.7768 43.5514 92.3479 42.6438 95.0229 42.3284C95.7412 42.2456 96.4636 42.2037 97.1866 42.2029H103.979C105.382 41.8744 106.807 41.6497 108.243 41.5306H108.255C121.926 40.3967 132.707 49.46 131.701 60.4874C131.694 60.4995 131.683 60.5117 131.675 60.5238C131.385 60.9976 131.128 61.4472 130.901 61.8764C130.681 62.2773 130.495 62.6621 130.335 63.0266C129.087 65.8452 135.016 109.576 132.889 110.24C131.679 110.617 126.8 78.0754 127.676 84.2633C128.778 92.0266 116.016 84.1576 109.717 86.4857Z" fill="#2F2E41"/>
<path d="M130.312 165.542L149.263 205.915L76.3633 198.532L91.5807 159.774L130.312 165.542Z" fill="#FFB6B6"/>
<path d="M168.36 246.487C155.683 250.707 142.324 252.496 128.983 251.761L123.182 242.353C123.182 242.353 122.939 245.857 122.577 251.213C116.227 250.477 109.959 249.149 103.856 247.244C92.2829 243.625 81.4343 238.018 70.4374 232.847C68.21 219.569 67.3742 199.094 79.6886 187.175L145.97 199.321C145.97 199.321 156.605 207.275 153.76 210.124C150.915 212.969 150.475 212.528 152.344 214.398C154.213 216.267 158.252 218.766 158.293 220.401C158.31 221.039 162.843 232.612 168.36 246.487Z" fill="#2F2E41"/>
<path d="M118.744 87.5238L102.73 88.641L92.3803 98.6425L88.7555 99.2895C85.4972 99.8705 82.5654 101.627 80.516 104.226C78.4666 106.825 77.442 110.085 77.6367 113.389C78.3823 126.022 80.0517 144.897 83.541 151.021C88.9514 160.516 93.4203 157.537 88.9514 160.516C84.4825 163.495 81.4822 161.154 83.541 165.863C85.5997 170.571 80.7584 176.611 80.7584 176.611L78.8312 178.538L80.8753 179.376L146.007 187.851C146.007 187.851 140.375 162.529 143.897 156.309C147.419 150.089 155.959 131.286 148.337 123.929L140.885 97.705L128.067 93.9244L118.744 87.5238Z" fill="#FCF670"/>
<path d="M215.676 191.453C214.604 191.419 213.553 191.152 212.594 190.672C211.635 190.192 210.793 189.509 210.124 188.671C209.455 187.833 208.976 186.859 208.721 185.818C208.465 184.777 208.439 183.692 208.644 182.64L178.092 161.949L181.737 152.091L217.844 176.931C219.59 177.408 221.101 178.508 222.09 180.024C223.079 181.539 223.477 183.365 223.21 185.155C222.943 186.945 222.028 188.575 220.639 189.736C219.251 190.896 217.485 191.507 215.676 191.453Z" fill="#FFB6B6"/>
<path d="M129.383 96.4671L124.943 98.225L148.626 144.479L197.652 177.897L204.719 165.953L167.4 133.718L152.459 105.063C150.356 101.03 146.834 97.9197 142.572 96.3322C138.31 94.7447 133.611 94.7928 129.383 96.4671Z" fill="#FCF670"/>
<path d="M109.898 83.4573C118.779 83.4573 125.978 76.258 125.978 67.3773C125.978 58.4966 118.779 51.2974 109.898 51.2974C101.018 51.2974 93.8184 58.4966 93.8184 67.3773C93.8184 76.258 101.018 83.4573 109.898 83.4573Z" fill="#FFB6B6"/>
<path d="M123.885 60.5757C123.616 60.7172 123.352 60.8476 123.084 60.9779C122.805 61.1119 122.525 61.246 122.242 61.3726C116.861 63.8119 112.478 64.0838 109.819 60.5757C109.746 58.7301 109.33 56.9141 108.594 55.2204C108.724 57.1131 108.225 58.9958 107.175 60.5757H101.819C96.3041 64.2365 93.4738 67.5994 97.3021 79.617C97.5516 80.4065 99.261 108.456 99.7488 110.613C91.3995 107.41 84.1971 73.4052 84.0146 64.445C84.0035 64.2998 84.0035 64.1471 84.0035 63.9981C84.0013 63.2804 84.0386 62.563 84.1152 61.8493C84.2135 60.875 84.3827 59.9091 84.6217 58.9594L84.5993 58.9557C83.7498 58.1435 83.1017 57.1442 82.7067 56.0373C82.3117 54.9304 82.1806 53.7466 82.3239 52.58C83.7246 50.7461 85.4579 49.1922 87.4333 47.9994C89.2296 47.1296 91.102 46.4265 93.0269 45.899C93.0753 45.8879 93.1163 45.8767 93.1647 45.8655C93.7531 45.7054 94.3564 45.5601 94.9597 45.4335C96.203 45.1728 97.46 44.9826 98.7247 44.8637C98.8178 44.86 98.9072 44.8525 98.9891 44.8525C99.495 44.8529 99.9915 44.9892 100.427 45.2473C100.43 45.2473 100.43 45.251 100.438 45.251C100.856 45.5008 101.203 45.8541 101.445 46.2767C101.687 46.6994 101.816 47.1772 101.819 47.6642H107.785C108.005 47.6642 108.225 47.6717 108.445 47.6829C116.753 48.0143 123.43 51.5671 123.858 59.7341C123.877 60.0171 123.885 60.2927 123.885 60.5757Z" fill="#2F2E41"/>
<path d="M88.6111 61.2252C94.4617 61.2252 99.2045 56.4823 99.2045 50.6316C99.2045 44.781 94.4617 40.0381 88.6111 40.0381C82.7604 40.0381 78.0176 44.781 78.0176 50.6316C78.0176 56.4823 82.7604 61.2252 88.6111 61.2252Z" fill="#2F2E41"/>
<path d="M103.154 45.7311C101.951 51.4567 96.0131 54.881 90.3326 53.4802C87.6047 52.8076 85.2558 51.0788 83.8026 48.6742C82.3494 46.2697 81.9109 43.3863 82.5835 40.6585C83.9843 34.978 90.8782 36.6156 95.4052 32.9093C101.809 27.6663 104.777 38.0098 103.154 45.7311Z" fill="#2F2E41"/>
<path d="M79.6209 205.106C88.6495 168.287 106.539 136.641 136.166 111.846C137.313 109.96 139.161 108.605 141.305 108.08C143.449 107.555 145.713 107.901 147.602 109.043L218.034 151.748C219.92 152.894 221.274 154.742 221.8 156.886C222.325 159.03 221.979 161.295 220.836 163.184C209.528 200.964 192.591 233.747 164.291 256.444C163.145 258.33 161.297 259.685 159.153 260.21C157.009 260.736 154.744 260.389 152.855 259.247L82.4238 216.542C80.5375 215.396 79.1831 213.548 78.6576 211.404C78.1321 209.26 78.4786 206.995 79.6209 205.106Z" fill="#9098D9"/>
<path opacity="0.2" d="M92.1393 217.514C90.2531 216.368 88.8987 214.52 88.3732 212.376C87.8478 210.232 88.1942 207.967 89.3365 206.078C98.3651 169.259 116.255 137.613 145.882 112.818C146.641 111.583 147.712 110.571 148.988 109.884L147.602 109.043C145.713 107.901 143.449 107.555 141.305 108.08C139.161 108.605 137.313 109.96 136.166 111.846C106.539 136.641 88.6495 168.287 79.6209 205.106C78.4786 206.995 78.1321 209.26 78.6576 211.404C79.183 213.548 80.5374 215.396 82.4237 216.542L152.855 259.247C154.109 260.001 155.539 260.41 157.002 260.434C158.465 260.457 159.908 260.093 161.185 259.379L92.1393 217.514Z" fill="black"/>
<path d="M174.735 196.945L127.458 168.459C126.707 168.005 126.167 167.272 125.956 166.42C125.746 165.568 125.882 164.667 126.334 163.916C126.787 163.164 127.52 162.623 128.372 162.411C129.223 162.199 130.124 162.334 130.877 162.786L178.153 191.272C178.903 191.727 179.441 192.46 179.651 193.311C179.86 194.162 179.724 195.062 179.272 195.812C178.819 196.563 178.088 197.104 177.237 197.316C176.387 197.529 175.487 197.395 174.735 196.945Z" fill="white"/>
<path d="M147.231 159.171L136.83 152.904C136.077 152.453 135.533 151.722 135.319 150.87C135.105 150.018 135.238 149.116 135.689 148.362C136.139 147.608 136.871 147.065 137.723 146.85C138.575 146.636 139.477 146.769 140.231 147.22L140.249 147.231L150.649 153.498C151.399 153.953 151.938 154.686 152.147 155.537C152.357 156.388 152.221 157.288 151.768 158.039C151.316 158.79 150.584 159.33 149.734 159.543C148.883 159.755 147.983 159.621 147.231 159.171Z" fill="white"/>
<path d="M167.222 209.414L119.945 180.928C119.193 180.475 118.652 179.742 118.44 178.891C118.228 178.039 118.363 177.138 118.815 176.385C119.267 175.633 119.999 175.091 120.851 174.878C121.703 174.665 122.604 174.799 123.357 175.251L123.363 175.255L170.64 203.741C171.389 204.196 171.928 204.929 172.137 205.78C172.347 206.631 172.211 207.531 171.758 208.281C171.306 209.032 170.575 209.573 169.724 209.785C168.874 209.998 167.974 209.864 167.222 209.414Z" fill="white"/>
<path d="M180.74 143.232C188.366 143.232 194.549 137.049 194.549 129.423C194.549 121.797 188.366 115.614 180.74 115.614C173.114 115.614 166.932 121.797 166.932 129.423C166.932 137.049 173.114 143.232 180.74 143.232Z" fill="#5E66A7"/>
<path d="M156.934 277.387C173.234 277.387 186.447 264.173 186.447 247.873C186.447 231.573 173.234 218.359 156.934 218.359C140.634 218.359 127.42 231.573 127.42 247.873C127.42 264.173 140.634 277.387 156.934 277.387Z" fill="white"/>
<path d="M156.935 277.805C151.017 277.805 145.231 276.05 140.31 272.762C135.388 269.473 131.553 264.8 129.288 259.331C127.023 253.863 126.43 247.846 127.585 242.041C128.739 236.236 131.59 230.904 135.775 226.719C139.96 222.534 145.292 219.683 151.097 218.529C156.902 217.374 162.919 217.967 168.387 220.232C173.855 222.496 178.529 226.332 181.817 231.253C185.106 236.175 186.861 241.96 186.861 247.879C186.852 255.813 183.696 263.42 178.086 269.03C172.476 274.64 164.869 277.796 156.935 277.805ZM156.935 218.777C151.179 218.777 145.553 220.484 140.767 223.682C135.981 226.879 132.251 231.425 130.048 236.742C127.846 242.06 127.269 247.912 128.392 253.557C129.515 259.202 132.287 264.388 136.357 268.458C140.427 272.528 145.613 275.3 151.258 276.422C156.903 277.545 162.755 276.969 168.072 274.766C173.39 272.564 177.935 268.833 181.133 264.048C184.331 259.262 186.037 253.635 186.037 247.879C186.029 240.163 182.96 232.766 177.504 227.31C172.048 221.855 164.651 218.786 156.935 218.777Z" fill="#3F3D56"/>
<path d="M152.91 263.237C152.401 263.237 151.898 263.118 151.442 262.89C150.986 262.662 150.59 262.331 150.284 261.923L142.232 251.188C141.973 250.843 141.785 250.45 141.677 250.032C141.57 249.614 141.546 249.18 141.607 248.753C141.668 248.326 141.812 247.915 142.032 247.543C142.252 247.172 142.542 246.848 142.887 246.589C143.233 246.33 143.625 246.142 144.043 246.035C144.461 245.928 144.896 245.905 145.323 245.966C145.75 246.027 146.161 246.172 146.532 246.392C146.903 246.612 147.227 246.903 147.485 247.248L152.753 254.271L166.283 233.977C166.522 233.618 166.829 233.31 167.187 233.07C167.546 232.83 167.948 232.663 168.37 232.579C168.793 232.494 169.228 232.494 169.651 232.578C170.074 232.661 170.477 232.827 170.835 233.067C171.194 233.306 171.502 233.613 171.742 233.971C171.982 234.33 172.149 234.732 172.234 235.154C172.318 235.577 172.319 236.012 172.235 236.435C172.151 236.858 171.985 237.261 171.746 237.619L155.642 261.775C155.351 262.212 154.959 262.572 154.5 262.827C154.04 263.081 153.527 263.221 153.002 263.236C152.971 263.236 152.941 263.237 152.91 263.237Z" fill="#9098D9"/>
<path d="M84.0111 205.501C82.9588 205.07 82.0126 204.415 81.2381 203.582C80.4637 202.749 79.8793 201.758 79.5256 200.677C79.1718 199.596 79.0571 198.452 79.1892 197.322C79.3214 196.192 79.6974 195.105 80.2912 194.135L57.6035 162.243L64.8819 153.799L91.5514 191.874C93.1098 192.995 94.2029 194.649 94.6235 196.522C95.0441 198.395 94.7631 200.357 93.8337 202.037C92.9042 203.716 91.3909 204.997 89.5806 205.635C87.7702 206.274 85.7886 206.226 84.0111 205.501Z" fill="#FFB6B6"/>
<path d="M84.5291 104.432C83.3813 103.756 82.0303 103.512 80.7188 103.743C79.4072 103.974 78.2209 104.665 77.3728 105.692L46.7188 148.563L75.127 188.911L86.2433 176.972L68.9513 149.798L91.9325 127.917C93.821 123.78 94.1095 119.09 92.7422 114.752C91.3749 110.415 88.4488 106.738 84.5291 104.432Z" fill="#FCF670"/>
<path d="M106.296 68.8093C106.296 69.5346 106.768 70.0987 107.252 70.0642C107.735 70.0297 108.069 69.408 108.023 68.6827C107.977 67.9574 107.54 67.3932 107.068 67.4278C106.596 67.4623 106.25 68.0725 106.296 68.8093Z" fill="#263238"/>
<path d="M114.527 68.2331C114.584 68.9585 115.01 69.5226 115.482 69.488C115.954 69.4535 116.3 68.8318 116.254 68.1065C116.208 67.3812 115.77 66.8171 115.298 66.8516C114.826 66.8861 114.481 67.5424 114.527 68.2331Z" fill="#263238"/>
<path d="M111.082 68.3689C111.466 70.7336 112.174 73.034 113.188 75.2047C112.622 75.4505 112.01 75.5695 111.394 75.5536C110.777 75.5376 110.172 75.387 109.62 75.1122L111.082 68.3689Z" fill="#D89090"/>
<path d="M103.556 66.3218C103.635 66.3273 103.713 66.3122 103.784 66.2778C103.854 66.2435 103.915 66.1912 103.959 66.1261C104.242 65.6691 104.628 65.2843 105.085 65.0025C105.543 64.7207 106.06 64.5496 106.596 64.5028C106.708 64.5028 106.817 64.4579 106.897 64.3781C106.977 64.2982 107.021 64.1898 107.021 64.0768C107.021 63.9639 106.977 63.8555 106.897 63.7756C106.817 63.6958 106.708 63.6509 106.596 63.6509C105.918 63.6927 105.26 63.8964 104.677 64.2449C104.094 64.5935 103.603 65.0767 103.245 65.6541C103.213 65.7007 103.19 65.7534 103.178 65.809C103.167 65.8645 103.166 65.9219 103.177 65.9777C103.187 66.0335 103.209 66.0865 103.241 66.1338C103.272 66.181 103.313 66.2215 103.36 66.2528C103.422 66.2859 103.488 66.3092 103.556 66.3218Z" fill="#263238"/>
<path d="M114.345 78.2892C113.414 78.7875 112.376 79.0541 111.32 79.0662C110.263 79.0784 109.22 78.8357 108.277 78.3589C108.25 78.3447 108.227 78.3252 108.208 78.3015C108.19 78.2778 108.176 78.2505 108.168 78.2214C108.161 78.1922 108.159 78.1618 108.164 78.132C108.169 78.1022 108.179 78.0737 108.196 78.0483C108.21 78.0217 108.229 77.9983 108.253 77.9796C108.277 77.9609 108.304 77.9473 108.333 77.9397C108.362 77.932 108.393 77.9305 108.423 77.9352C108.452 77.9399 108.481 77.9507 108.506 77.9669C109.388 78.3904 110.356 78.6026 111.334 78.5869C112.312 78.5711 113.273 78.3277 114.141 77.876C114.167 77.8609 114.197 77.8515 114.228 77.8486C114.258 77.8457 114.289 77.8492 114.318 77.8591C114.348 77.8689 114.374 77.8848 114.397 77.9057C114.42 77.9266 114.437 77.952 114.45 77.9803C114.465 78.007 114.474 78.0367 114.477 78.0673C114.48 78.098 114.476 78.1289 114.467 78.158C114.457 78.1872 114.441 78.2139 114.42 78.2365C114.399 78.2591 114.374 78.2771 114.345 78.2892Z" fill="#263238"/>
<path d="M117.853 65.1477C117.932 65.1553 118.011 65.1412 118.083 65.107C118.155 65.0728 118.216 65.0197 118.26 64.9534C118.303 64.8872 118.328 64.8102 118.332 64.7309C118.335 64.6515 118.317 64.5728 118.279 64.503C117.953 63.9048 117.487 63.3938 116.922 63.0131C116.357 62.6323 115.709 62.3931 115.032 62.3156C114.976 62.3125 114.92 62.3205 114.867 62.339C114.814 62.3576 114.766 62.3865 114.724 62.4239C114.682 62.4613 114.648 62.5066 114.624 62.5572C114.6 62.6077 114.586 62.6626 114.583 62.7185C114.58 62.8308 114.62 62.94 114.695 63.0236C114.77 63.1072 114.874 63.1587 114.986 63.1675C115.519 63.2443 116.027 63.4446 116.468 63.7524C116.91 64.0602 117.274 64.4671 117.53 64.9405C117.565 64.9972 117.612 65.0454 117.668 65.0813C117.724 65.1172 117.787 65.1399 117.853 65.1477Z" fill="#263238"/>
</g>
<defs>
<clipPath id="clip0_556_12459">
<rect width="280" height="300" fill="white"/>
</clipPath>
</defs>
</svg>
