<svg width="279" height="320" viewBox="0 0 279 320" fill="none" xmlns="http://www.w3.org/2000/svg">
<g clip-path="url(#clip0_465_11610)">
<path fill-rule="evenodd" clip-rule="evenodd" d="M65.2141 257.343C21.5431 218.322 -15.9701 163.863 7.26323 108.008C30.6979 51.6696 97.0554 32.5176 156.599 37.648C210.31 42.276 252.569 78.6777 267.492 130.43C286.035 194.739 293.691 275.819 235.755 312.168C178.282 348.228 114.196 301.108 65.2141 257.343Z" fill="#E7E7FF" fill-opacity="0.4"/>
<path d="M273.898 242.181L29.6462 242.286C29.5432 242.286 29.4444 242.243 29.3716 242.167C29.2987 242.091 29.2578 241.988 29.2578 241.881C29.2578 241.774 29.2987 241.671 29.3716 241.595C29.4444 241.519 29.5432 241.476 29.6462 241.476L273.898 241.372C274.001 241.372 274.1 241.414 274.173 241.49C274.245 241.566 274.286 241.669 274.286 241.776C274.286 241.884 274.245 241.987 274.173 242.063C274.1 242.139 274.001 242.181 273.898 242.181Z" fill="#CACACA"/>
<path d="M220.482 241.846C204.808 242.533 195.945 242.033 184.519 231.749C176.74 231.535 170.556 225.701 170.734 218.746C170.913 211.79 177.387 206.306 185.166 206.521L213.412 207.909C221.191 208.124 235.658 207.628 235.48 214.583C235.392 217.998 235.391 222.427 235.085 227.066C234.834 230.962 233.204 234.625 230.51 237.352C227.815 240.079 224.244 241.68 220.482 241.846Z" fill="#2F2E41"/>
<path d="M170.13 306.956L162.037 308.327L153.086 276.612L165.03 274.589L170.13 306.956Z" fill="#FFB6B6"/>
<path d="M166.92 240.825C182.008 244.672 193.15 240.34 202.327 240.902C207.543 231.775 224.195 220.182 215.109 215.302C210.05 212.585 158.615 206.32 151.863 213.55C134.5 232.142 156.058 290.856 156.058 290.856L168.048 290.695L171.878 285.026L168.793 278.847L171.712 273.795L168.371 268.591L166.92 240.825Z" fill="#2F2E41"/>
<path d="M175.701 313.292L170.399 314.764L168.112 309.837L167.029 315.7L152.967 319.604C152.293 319.791 151.579 319.75 150.929 319.487C150.279 319.223 149.727 318.751 149.354 318.14C148.981 317.528 148.807 316.809 148.856 316.087C148.905 315.365 149.175 314.679 149.628 314.128L158.781 302.968L157.426 297.721L169.426 295.173L175.701 313.292Z" fill="#9098D9"/>
<path d="M236.456 296.619L230.549 302.518L205.797 281.704L214.514 272.998L236.456 296.619Z" fill="#FFB6B6"/>
<path d="M188.838 231.042C202.67 236.566 214.767 230.423 226.719 223.302C226.006 212.718 225.608 197.458 215.458 198.799C209.806 199.546 163.088 207.55 161.497 217.479C157.407 243.008 216.042 291.672 216.042 291.672L225.818 284.473L225.861 277.55L219.935 274.286L219.567 268.41L213.965 266.097L188.838 231.042Z" fill="#2F2E41"/>
<path d="M244.51 298.551L240.955 302.888L236.372 300.182L238.695 305.644L229.267 317.145C228.815 317.696 228.205 318.083 227.526 318.25C226.847 318.416 226.134 318.353 225.492 318.07C224.85 317.787 224.312 317.298 223.957 316.675C223.602 316.052 223.448 315.328 223.518 314.608L224.929 300.032L220.938 296.514L229.413 287.344L244.51 298.551Z" fill="#9098D9"/>
<path d="M181.549 209.986C180.575 209.986 180.021 209.788 179.807 209.363C179.493 208.739 177.485 207.925 178.116 206.981C178.557 206.324 179.621 205.443 179.211 204.936C177.634 202.984 173.696 146.967 172.768 139.325C172.54 136.96 172.849 134.572 173.671 132.353C176.27 124.716 179.819 122.369 186.888 117.694C187.461 117.315 188.059 116.918 188.68 116.505C189.484 115.969 189.439 117.22 189.392 115.34C189.339 113.25 189.285 111.089 190.272 109.739L190.336 109.651L190.44 109.626C192.827 109.054 200.859 107.991 205.615 109.634L205.68 109.657L205.729 109.707C206.859 110.879 206.962 113.148 207.062 115.342C207.143 117.144 207.22 115.819 207.86 116.558C210.303 119.382 213.984 121.013 217.055 121.939C218.98 122.512 220.665 123.735 221.844 125.414C223.023 127.092 223.628 129.131 223.564 131.206C223.231 141.66 223.493 158.191 221.772 169.841C218.907 189.229 245.056 217.229 230.079 217.804C230.117 217.865 230.138 217.936 230.14 218.008C230.143 218.081 230.126 218.152 230.091 218.216C229.022 220.287 185.221 209.986 181.549 209.986Z" fill="#FCF670"/>
<path d="M196.708 108.069C206.568 108.069 214.561 99.7814 214.561 89.5578C214.561 79.3342 206.568 71.0464 196.708 71.0464C186.849 71.0464 178.855 79.3342 178.855 89.5578C178.855 99.7814 186.849 108.069 196.708 108.069Z" fill="#2F2E41"/>
<path d="M198.142 109.598C205.225 109.389 210.804 103.267 210.603 95.9228C210.402 88.5785 204.498 82.7935 197.415 83.0016C190.332 83.2097 184.753 89.3321 184.953 96.6764C185.154 104.021 191.059 109.806 198.142 109.598Z" fill="#FFB6B6"/>
<path d="M197.903 76.0112L192.702 76.164C189.425 76.2631 186.319 77.7064 184.067 80.1772C181.814 82.6481 180.599 85.9446 180.688 89.3432L180.691 89.4627L180.786 89.5243C183.613 91.4637 186.95 92.448 190.338 92.3421L190.63 92.3336L193.504 92.1986C193.988 90.9079 194.149 89.5118 193.974 88.1392C194.408 89.4403 194.747 90.7735 194.988 92.1274L207.882 91.5187C208.632 91.4802 209.338 91.1392 209.849 90.5685C210.361 89.9978 210.636 89.2425 210.618 88.4639C210.521 85.0654 209.128 81.8456 206.745 79.5109C204.361 77.1763 201.181 75.9177 197.903 76.0112Z" fill="#2F2E41"/>
<path d="M187.543 72.6731C186.369 74.1741 184.484 74.7995 182.79 75.6125C179.802 77.0777 177.204 79.2767 175.22 82.0186C173.237 84.7606 171.929 87.9628 171.409 91.3475C171.01 94.1038 171.149 96.9408 170.474 99.6362C169.803 102.331 168.031 105.009 165.399 105.55C163.618 105.92 161.804 105.256 160.102 104.598C159.165 104.239 158.229 103.879 157.292 103.517C158.189 100.976 159.085 98.4353 159.979 95.8944C158.496 98.3111 156.756 100.547 154.792 102.561C151.436 101.271 148.077 99.9816 144.715 98.692C152.894 98.4839 151.273 90.2933 152.877 81.9804C153.759 77.4124 162.238 74.0877 163.799 69.7205C164.643 67.3518 166.123 65.2832 168.064 63.7595C170.006 62.2358 172.328 61.3208 174.756 61.1227C177.183 60.9247 179.615 61.4519 181.762 62.642C183.91 63.8321 185.684 65.6353 186.874 67.8381C188.572 68.4824 188.695 71.1911 187.543 72.6731Z" fill="#2F2E41"/>
<path d="M188.359 78.1782C192.03 78.1782 195.007 75.0921 195.007 71.2852C195.007 67.4782 192.03 64.3921 188.359 64.3921C184.687 64.3921 181.711 67.4782 181.711 71.2852C181.711 75.0921 184.687 78.1782 188.359 78.1782Z" fill="#2F2E41"/>
<path d="M211.971 177.638H181.28C180.229 177.637 179.222 177.203 178.479 176.433C177.736 175.662 177.318 174.617 177.316 173.528V139.321C177.318 138.231 177.736 137.187 178.479 136.416C179.222 135.646 180.229 135.212 181.28 135.211H211.971C213.022 135.212 214.03 135.646 214.773 136.416C215.516 137.187 215.934 138.231 215.935 139.321V173.528C215.934 174.617 215.516 175.662 214.773 176.433C214.03 177.203 213.022 177.637 211.971 177.638Z" fill="#9098D9"/>
<path d="M182.146 142.6C183.416 142.6 184.445 141.533 184.445 140.217C184.445 138.9 183.416 137.833 182.146 137.833C180.877 137.833 179.848 138.9 179.848 140.217C179.848 141.533 180.877 142.6 182.146 142.6Z" fill="#E6E6E6"/>
<path d="M182.149 141.647C182.911 141.647 183.528 141.007 183.528 140.217C183.528 139.427 182.911 138.787 182.149 138.787C181.387 138.787 180.77 139.427 180.77 140.217C180.77 141.007 181.387 141.647 182.149 141.647Z" fill="#3F3D56"/>
<path d="M191.783 175.977L170.703 170.434L167.426 181.681C167.426 181.681 190.106 183.422 190.953 183.43C191.587 184.36 192.478 185.069 193.509 185.463C194.54 185.856 195.662 185.916 196.726 185.634C197.791 185.352 198.747 184.742 199.47 183.884C200.192 183.026 200.647 181.961 200.773 180.83C200.899 179.698 200.69 178.554 200.176 177.548C199.661 176.542 198.863 175.721 197.889 175.195C196.915 174.669 195.809 174.462 194.719 174.602C193.629 174.742 192.605 175.221 191.783 175.977Z" fill="#FFB6B6"/>
<path d="M177.72 124.976C162.689 133.304 156.102 151.87 146.88 168.186C146.69 169.969 146.86 171.773 147.381 173.484C147.901 175.194 148.76 176.773 149.902 178.12C151.045 179.467 152.445 180.552 154.015 181.305C155.585 182.058 157.289 182.464 159.019 182.496L177.059 182.927L174.798 171.384L168.764 167.83L175.896 149.939L177.72 124.976Z" fill="#FCF670"/>
<path d="M200 143.007L214.388 161.111L208.447 170.873C208.447 170.873 193.98 147.422 193.653 146.61C192.584 146.352 191.615 145.762 190.875 144.92C190.135 144.078 189.66 143.023 189.511 141.895C189.362 140.766 189.547 139.617 190.042 138.6C190.536 137.583 191.317 136.746 192.28 136.199C193.244 135.652 194.345 135.421 195.438 135.537C196.531 135.653 197.564 136.11 198.4 136.848C199.237 137.586 199.838 138.57 200.124 139.67C200.409 140.77 200.366 141.933 200 143.007Z" fill="#FFB6B6"/>
<path d="M221.683 125.439C226.026 122.95 238.693 161.326 225.364 183.152C223.843 184.006 222.166 184.522 220.442 184.666C218.718 184.81 216.984 184.58 215.35 183.989C213.717 183.399 212.221 182.461 210.956 181.237C209.692 180.013 208.688 178.528 208.009 176.879L201.109 159.369L212.165 155.715L217.444 161.997L216.71 149.498L222.994 131.736L221.683 125.439Z" fill="#FCF670"/>
<path d="M77.7711 106.339C89.1887 106.339 98.4445 96.7414 98.4445 84.9027C98.4445 73.064 89.1887 63.4668 77.7711 63.4668C66.3535 63.4668 57.0977 73.064 57.0977 84.9027C57.0977 96.7414 66.3535 106.339 77.7711 106.339Z" fill="#9098D9"/>
<path d="M90.9925 97.7833C91.0822 97.039 91.1719 96.3878 91.1719 95.6435C91.1719 88.2006 85.3397 82.0602 78.0718 82.0602C77.354 82.0602 76.7259 82.1532 76.0081 82.2463C74.8417 81.595 73.5855 81.3159 72.3293 81.3159C67.843 81.3159 64.2539 85.0374 64.2539 89.6892C64.2539 90.9917 64.5231 92.2942 65.1512 93.5036C65.0614 94.2479 64.9717 94.8992 64.9717 95.6435C64.9717 103.086 70.804 109.227 78.0718 109.227C78.7896 109.227 79.4177 109.134 80.1355 109.041C81.302 109.599 82.5582 109.971 83.8143 109.971C88.3007 109.971 91.8897 106.25 91.8897 101.598C91.8897 100.295 91.5308 98.9928 90.9925 97.7833ZM83.5452 100.574C83.276 101.133 82.9171 101.598 82.3787 101.97C81.8404 102.342 81.302 102.621 80.5842 102.807C79.8664 102.993 79.0588 103.086 78.1616 103.086C76.2773 103.086 74.7519 102.621 73.6752 101.784C73.0471 101.226 72.5088 100.574 72.2396 99.7371C71.8807 98.9928 72.5088 98.0624 73.406 98.0624H73.6752C74.2136 98.0624 74.7519 98.4345 74.9314 98.8997C75.1108 99.3649 75.38 99.7371 75.7389 100.016C76.2773 100.481 77.0848 100.667 78.0718 100.667C78.9691 100.667 79.6869 100.481 80.2253 100.202C80.7636 99.9231 81.0328 99.3649 81.0328 98.8067C81.0328 98.5276 80.9431 98.3415 80.8534 98.1554C80.7636 97.9694 80.4944 97.7833 80.315 97.6903C80.0458 97.5042 79.7766 97.4112 79.328 97.3181C78.9691 97.2251 78.5205 97.039 77.9821 96.946L77.4437 96.7599C76.8157 96.5738 76.0978 96.3878 75.5595 96.2017C74.9314 96.0156 74.393 95.7365 73.9444 95.4574C73.4958 95.1783 73.1369 94.8061 72.8677 94.2479C72.5985 93.7827 72.5088 93.1315 72.5088 92.3872C72.5088 91.6429 72.6882 90.9917 72.9574 90.4335C73.2266 89.8752 73.6752 89.4101 74.1238 89.1309C74.6622 88.7588 75.2006 88.4797 75.9184 88.3867C76.5465 88.2006 77.2643 88.1075 78.0718 88.1075C78.9691 88.1075 79.6869 88.2006 80.4047 88.3867C81.1225 88.5727 81.6609 88.8518 82.1993 89.317C82.7376 89.6892 83.0965 90.1543 83.3657 90.8056C83.8143 91.6429 83.1863 92.7594 82.1993 92.7594H81.9301C81.3917 92.7594 80.9431 92.4802 80.6739 92.0151C80.4944 91.736 80.315 91.4568 80.0458 91.1777C79.5972 90.8056 78.8794 90.6195 78.0718 90.6195C77.2643 90.6195 76.6362 90.8056 76.1876 91.0847C75.7389 91.3638 75.5595 91.829 75.5595 92.2942C75.5595 92.5733 75.6492 92.7594 75.7389 92.9454C75.8287 93.1315 76.0081 93.3176 76.2773 93.4106C76.5465 93.5036 76.8157 93.6897 77.1746 93.7827C77.5335 93.8758 77.9821 93.9688 78.5205 94.1549C79.0588 94.2479 79.5075 94.434 80.0458 94.527C80.4944 94.6201 80.9431 94.8061 81.3917 94.8992C81.8404 95.0853 82.1993 95.2713 82.5582 95.4574C82.9171 95.6435 83.1863 95.9226 83.4554 96.2017C83.7246 96.4808 83.9041 96.8529 83.9938 97.2251C84.1732 97.5972 84.1732 98.1554 84.1732 98.7137C83.9938 99.3649 83.8143 100.016 83.5452 100.574Z" fill="#FEFEFF"/>
<path d="M84.2359 229.114C95.6535 229.114 104.909 219.516 104.909 207.678C104.909 195.839 95.6535 186.242 84.2359 186.242C72.8183 186.242 63.5625 195.839 63.5625 207.678C63.5625 219.516 72.8183 229.114 84.2359 229.114Z" fill="#9098D9"/>
<path d="M78.9104 229.113C75.5113 229.116 72.1848 228.093 69.336 226.171L67.9023 225.205L69.6017 225.4C70.0468 225.451 70.5264 225.481 71.0266 225.489C73.3173 225.491 75.5599 224.807 77.4855 223.521C76.3413 223.264 75.2816 222.701 74.4114 221.889C73.5411 221.077 72.8904 220.043 72.5236 218.891L72.311 218.211L72.9874 218.348C73.2947 218.411 73.6065 218.448 73.9196 218.457C72.8475 217.885 71.9477 217.018 71.3185 215.952C70.6893 214.885 70.355 213.66 70.3522 212.41V211.69L70.9569 211.967C71.3155 212.176 71.6954 212.344 72.0896 212.466C71.1572 211.382 70.5782 210.02 70.4347 208.575C70.2913 207.129 70.5907 205.674 71.2904 204.415L71.5858 203.886L71.9565 204.361C74.6564 207.825 78.5251 210.096 82.7792 210.713C82.8959 210.73 83.0148 210.721 83.1278 210.686C83.2407 210.651 83.345 210.591 83.4334 210.51C83.5239 210.429 83.5964 210.328 83.6461 210.215C83.6957 210.102 83.7214 209.979 83.7213 209.855C83.7114 208.511 84.0877 207.194 84.8023 206.072C85.5169 204.95 86.5375 204.075 87.7339 203.557C88.9303 203.039 90.2483 202.902 91.52 203.164C92.7917 203.425 93.9594 204.074 94.8744 205.026C96.1263 204.743 97.3266 204.254 98.4299 203.578L99.361 203.007L99.0216 204.072C98.7073 205.06 98.1799 205.961 97.4795 206.706C98.1009 206.538 98.7085 206.32 99.2965 206.052L100.558 205.477L99.7979 206.669C98.9927 207.933 97.9868 209.047 96.8229 209.963V210.571C96.8229 219.686 90.1363 229.113 78.9465 229.113H78.9104Z" fill="white"/>
<path d="M35.9312 167.726C47.3488 167.726 56.6046 158.129 56.6046 146.29C56.6046 134.452 47.3488 124.854 35.9312 124.854C24.5136 124.854 15.2578 134.452 15.2578 146.29C15.2578 158.129 24.5136 167.726 35.9312 167.726Z" fill="#9098D9"/>
<path d="M45.1728 142.497H26.6906C25.9149 142.497 25.1709 142.816 24.6224 143.385C24.0738 143.954 23.7656 144.725 23.7656 145.529V164.693C23.7656 165.498 24.0738 166.269 24.6223 166.838C25.1709 167.407 25.9149 167.726 26.6906 167.726H45.1728C45.9485 167.726 46.6925 167.407 47.241 166.838C47.7896 166.269 48.0977 165.498 48.0977 164.693V145.529C48.0977 144.725 47.7896 143.954 47.241 143.385C46.6925 142.816 45.9485 142.497 45.1728 142.497ZM41.7024 148.967H39.5829C38.1357 148.967 37.8541 149.677 37.8541 150.726V152.95H41.3053L40.8571 156.442H37.8476V165.549C36.5608 165.799 35.2401 165.796 33.9544 165.539V156.442H31.1946V152.95H34.0057V150.368C34.0057 147.28 36.0739 145.594 38.7376 145.594C40.0183 145.594 41.3886 145.693 41.7024 145.74L41.7024 148.967Z" fill="white"/>
<path d="M193.503 96.6308C193.503 97.3431 193.967 97.8971 194.441 97.8632C194.916 97.8293 195.244 97.2187 195.199 96.5064C195.154 95.7941 194.724 95.24 194.261 95.2739C193.797 95.3079 193.458 95.9071 193.503 96.6308Z" fill="#263238"/>
<path d="M201.589 96.0653C201.646 96.7777 202.064 97.3317 202.527 97.2978C202.991 97.2638 203.33 96.6533 203.285 95.941C203.24 95.2286 202.81 94.6746 202.347 94.7085C201.883 94.7424 201.544 95.3869 201.589 96.0653Z" fill="#263238"/>
<path d="M198.259 96.5967C199.054 98.2825 200.079 99.8501 201.305 101.255C200.935 101.561 200.503 101.781 200.038 101.902C199.574 102.023 199.089 102.041 198.617 101.954L198.259 96.5967Z" fill="#D89090"/>
<path d="M190.812 94.1881C190.889 94.1935 190.966 94.1786 191.035 94.1449C191.105 94.1111 191.164 94.0598 191.207 93.9959C191.485 93.547 191.864 93.1691 192.313 92.8924C192.763 92.6156 193.271 92.4476 193.797 92.4016C193.907 92.4016 194.014 92.3576 194.092 92.2791C194.171 92.2007 194.215 92.0942 194.215 91.9833C194.215 91.8723 194.171 91.7659 194.092 91.6875C194.014 91.609 193.907 91.5649 193.797 91.5649C193.131 91.606 192.485 91.806 191.912 92.1483C191.34 92.4907 190.857 92.9652 190.506 93.5323C190.474 93.5781 190.452 93.6298 190.44 93.6844C190.429 93.739 190.428 93.7953 190.439 93.8501C190.449 93.9049 190.471 93.957 190.502 94.0034C190.533 94.0498 190.573 94.0895 190.619 94.1203C190.679 94.1528 190.744 94.1756 190.812 94.1881Z" fill="#263238"/>
<path d="M202.076 104.067C201.182 104.593 200.174 104.895 199.138 104.949C198.102 105.002 197.068 104.805 196.124 104.374C196.097 104.361 196.074 104.343 196.054 104.321C196.035 104.298 196.021 104.272 196.012 104.243C196.003 104.215 196.001 104.185 196.004 104.156C196.008 104.127 196.017 104.098 196.032 104.073C196.045 104.046 196.063 104.022 196.086 104.003C196.108 103.984 196.134 103.969 196.163 103.961C196.191 103.952 196.221 103.949 196.25 103.953C196.28 103.956 196.308 103.966 196.334 103.98C197.216 104.361 198.174 104.532 199.133 104.478C200.092 104.424 201.026 104.147 201.859 103.67C201.885 103.654 201.914 103.644 201.944 103.64C201.974 103.635 202.004 103.638 202.033 103.646C202.062 103.655 202.089 103.669 202.112 103.689C202.135 103.709 202.154 103.733 202.167 103.76C202.182 103.786 202.193 103.814 202.197 103.844C202.201 103.874 202.199 103.905 202.19 103.934C202.182 103.963 202.167 103.99 202.147 104.013C202.128 104.036 202.104 104.054 202.076 104.067Z" fill="#263238"/>
<path d="M204.854 93.035C204.931 93.0425 205.009 93.0286 205.08 92.995C205.15 92.9614 205.21 92.9093 205.253 92.8442C205.296 92.7791 205.321 92.7036 205.324 92.6256C205.327 92.5477 205.309 92.4703 205.272 92.4018C204.952 91.8143 204.495 91.3124 203.94 90.9385C203.385 90.5647 202.748 90.3297 202.083 90.2536C202.028 90.2505 201.973 90.2583 201.921 90.2766C201.87 90.2948 201.822 90.3232 201.781 90.3599C201.74 90.3967 201.707 90.4412 201.683 90.4908C201.659 90.5405 201.645 90.5943 201.642 90.6493C201.639 90.7596 201.678 90.8668 201.752 90.9489C201.826 91.031 201.928 91.0816 202.038 91.0903C202.562 91.1656 203.06 91.3623 203.494 91.6647C203.928 91.967 204.285 92.3666 204.537 92.8315C204.571 92.8872 204.617 92.9345 204.672 92.9698C204.727 93.005 204.789 93.0273 204.854 93.035Z" fill="#263238"/>
</g>
<defs>
<clipPath id="clip0_465_11610">
<rect width="279" height="320" fill="white"/>
</clipPath>
</defs>
</svg>
