<svg width="101" height="100" viewBox="0 0 101 100" fill="none" xmlns="http://www.w3.org/2000/svg">
<g clip-path="url(#clip0_556_11054)">
<path fill-rule="evenodd" clip-rule="evenodd" d="M51.6654 24.0915C49.2544 21.6817 46.232 19.9747 42.9234 19.1542C39.6147 18.3337 36.145 18.4307 32.8873 19.4348C29.6296 20.4389 26.7074 22.3122 24.4347 24.853C22.1621 27.3938 20.6252 30.5062 19.9892 33.8552C19.3533 37.2043 19.6423 40.6633 20.8254 43.8603C22.0084 47.0573 24.0407 49.8713 26.7035 51.9996C29.3663 54.1279 32.559 55.4899 35.9381 55.9393C39.3173 56.3887 42.755 55.9083 45.8816 54.5499C46.9809 54.0661 48.168 53.8137 49.3691 53.8082H55.0482C57.9232 53.8082 60.2565 56.1415 60.2565 59.0165L60.2564 65.5915H66.8272C69.7022 65.5915 72.0355 67.9249 72.0355 70.7999L72.0354 77.3749H81.3812L81.3813 71.4832L59.065 49.1707C56.7983 46.904 56.2317 43.7707 56.7734 41.1249C57.4002 38.0847 57.2615 34.9365 56.3699 31.9633C55.4783 28.99 53.8616 26.285 51.6654 24.0915ZM19.2571 18.1999C23.3753 14.081 28.7115 11.3995 34.4741 10.5531C40.2367 9.70676 46.1185 10.7406 51.247 13.5014C56.3755 16.2621 60.4774 20.6026 62.944 25.8788C65.4106 31.1551 66.1106 37.086 64.9401 42.7915C64.9012 42.9544 64.9098 43.1251 64.9651 43.2832L87.8814 66.1999C88.4624 66.7802 88.9234 67.4693 89.2379 68.2278C89.5525 68.9864 89.7145 69.7995 89.7146 70.6207L89.7145 81.4999C89.7144 83.8249 87.8311 85.7082 85.5061 85.7082H68.9102C66.0352 85.7082 63.7019 83.3749 63.702 80.4999L63.7021 73.9249H57.1271C54.2521 73.9249 51.9188 71.5915 51.9188 68.7165L51.9189 62.1415H49.3773C49.3689 62.1415 49.3106 62.1499 49.2023 62.1957C43.4181 64.7034 36.9405 65.1153 30.8853 63.3605C24.8301 61.6058 19.5765 57.7942 16.0295 52.5824C12.4825 47.3706 10.8642 41.0849 11.4533 34.8081C12.0425 28.5314 14.8022 22.6607 19.2571 18.1999ZM39.8818 38.8249C39.3012 39.4054 38.612 39.8659 37.8535 40.1801C37.095 40.4943 36.282 40.656 35.4609 40.656C34.6399 40.656 33.8269 40.4943 33.0684 40.1801C32.3099 39.8659 31.6207 39.4054 31.0401 38.8249C30.4596 38.2443 29.9991 37.5551 29.6849 36.7966C29.3707 36.038 29.209 35.2251 29.209 34.404C29.2091 33.583 29.3708 32.77 29.685 32.0115C29.9992 31.253 30.4597 30.5637 31.0403 29.9832C32.2122 28.8107 33.8019 28.1518 35.4597 28.1514C37.1174 28.151 38.7074 28.8092 39.8799 29.9811C41.0523 31.153 41.7112 32.7427 41.7116 34.4005C41.7119 36.0582 41.0537 37.6524 39.8818 38.8249Z" fill="#E7E7FF" fill-opacity="0.4"/>
</g>
<defs>
<clipPath id="clip0_556_11054">
<rect width="100" height="100" fill="white" transform="matrix(1 0 1.56419e-05 1 0 0)"/>
</clipPath>
</defs>
</svg>
