<svg width="151" height="150" viewBox="0 0 151 150" fill="none" xmlns="http://www.w3.org/2000/svg">
<g clip-path="url(#clip0_556_11027)">
<path fill-rule="evenodd" clip-rule="evenodd" d="M74.0764 36.1375C77.6929 32.5227 82.2264 29.9622 87.1894 28.7315C92.1524 27.5007 97.357 27.6463 102.243 29.1524C107.13 30.6586 111.513 33.4685 114.922 37.2797C118.331 41.091 120.637 45.7595 121.591 50.7831C122.545 55.8066 122.111 60.9952 120.336 65.7907C118.562 70.5862 115.513 74.8072 111.519 77.9996C107.525 81.1921 102.736 83.2352 97.6672 83.9092C92.5985 84.5832 87.4419 83.8627 82.7521 81.825C81.1031 81.0994 79.3224 80.7207 77.5208 80.7125H69.0021C64.6896 80.7125 61.1896 84.2125 61.1897 88.525L61.1898 98.3875H51.3336C47.0211 98.3875 43.5211 101.888 43.5212 106.2L43.5214 116.063H29.5026L29.5025 107.225L62.977 73.7563C66.3769 70.3563 67.2269 65.6563 66.4143 61.6875C65.4742 57.1273 65.6822 52.405 67.0196 47.9451C68.3571 43.4853 70.782 39.4278 74.0764 36.1375ZM122.689 27.3C116.512 21.1218 108.507 17.0995 99.8633 15.83C91.2195 14.5604 82.3966 16.1112 74.7039 20.2523C67.0112 24.3934 60.8584 30.9041 57.1584 38.8185C53.4585 46.7329 52.4085 55.6292 54.1643 64.1875C54.2227 64.4319 54.2097 64.6879 54.1268 64.925L19.7524 99.3C18.8808 100.17 18.1894 101.204 17.7175 102.342C17.2457 103.48 17.0027 104.699 17.0025 105.931L17.0027 122.25C17.0028 125.738 19.8278 128.563 23.3153 128.563H48.209C52.5215 128.563 56.0215 125.063 56.0214 120.75L56.0213 110.888H65.8838C70.1963 110.888 73.6962 107.388 73.6962 103.075L73.696 93.2125H77.5085C77.521 93.2125 77.6085 93.225 77.771 93.2938C86.4473 97.0553 96.1637 97.6732 105.246 95.0411C114.329 92.4089 122.21 86.6915 127.53 78.8738C132.851 71.0561 135.278 61.6276 134.394 52.2124C133.511 42.7973 129.371 33.9913 122.689 27.3ZM91.7517 58.2375C92.6226 59.1084 93.6564 59.7991 94.7942 60.2704C95.932 60.7417 97.1515 60.9843 98.383 60.9843C99.6146 60.9843 100.834 60.7417 101.972 60.2704C103.11 59.7991 104.143 59.1084 105.014 58.2375C105.885 57.3667 106.576 56.3329 107.047 55.1951C107.518 54.0573 107.761 52.8378 107.761 51.6063C107.761 50.3748 107.518 49.1553 107.047 48.0175C106.576 46.8797 105.885 45.8459 105.014 44.975C103.256 43.2163 100.872 42.228 98.385 42.2274C95.8983 42.2268 93.5134 43.214 91.7547 44.9719C89.996 46.7298 89.0076 49.1143 89.0071 51.601C89.0065 54.0876 89.9938 56.4788 91.7517 58.2375Z" fill="#E7E7FF" fill-opacity="0.4"/>
</g>
<defs>
<clipPath id="clip0_556_11027">
<rect width="150" height="150" fill="white" transform="matrix(1 0 1.49983e-05 1 0 0)"/>
</clipPath>
</defs>
</svg>
