<svg width="160" height="180" viewBox="0 0 160 180" fill="none" xmlns="http://www.w3.org/2000/svg">
<path d="M73.7976 164.67C70.6821 166.123 67.4993 166.258 64.2489 165.075C60.993 163.89 58.6387 161.74 57.186 158.624L30.7723 101.98C29.3196 98.8644 29.1857 95.6788 30.3707 92.4229C31.5538 89.1726 33.703 86.821 36.8184 85.3683L87.7982 61.596L82.5155 50.2671C80.3144 45.5468 76.7913 42.3049 71.9462 40.5414C67.1012 38.778 62.3185 38.9968 57.5981 41.1979C53.7274 43.0029 50.845 45.7538 48.9507 49.4507C47.0544 53.1532 46.4015 56.9931 46.9918 60.9704C47.1802 62.6066 46.9883 64.1029 46.4162 65.4592C45.8422 66.8211 44.8943 67.8102 43.5726 68.4265C41.6844 69.307 39.8763 69.3732 38.1483 68.625C36.422 67.8807 35.3734 66.618 35.0027 64.837C33.4692 57.8514 34.2716 51.0685 37.4097 44.4882C40.5495 37.9118 45.5181 33.0387 52.3154 29.8691C60.1512 26.2152 68.1187 25.8606 76.2178 28.8053C84.3149 31.7556 90.1905 37.1486 93.8443 44.9844L99.1271 56.3133L104.792 53.6719C107.907 52.2192 111.092 52.0834 114.346 53.2647C117.598 54.4515 119.95 56.6026 121.403 59.7181L147.817 116.362C149.27 119.478 149.405 122.663 148.224 125.917C147.037 129.169 144.886 131.521 141.771 132.974L73.7976 164.67ZM68.5148 153.341L136.488 121.645L110.074 65.0008L42.1012 96.6972L68.5148 153.341ZM94.5773 120.5C97.6927 119.047 99.8438 116.695 101.031 113.443C102.212 110.189 102.076 107.004 100.623 103.888C99.1706 100.773 96.8182 98.6218 93.5661 97.435C90.312 96.2538 87.1272 96.3895 84.0118 97.8423C80.8964 99.295 78.7471 101.647 77.5641 104.897C76.3791 108.153 76.5129 111.338 77.9657 114.454C79.4184 117.569 81.7728 119.72 85.0286 120.905C88.279 122.088 91.4618 121.953 94.5773 120.5Z" fill="#E7E7FF" fill-opacity="0.4"/>
</svg>
