<svg width="125.000000" height="24.000000" viewBox="0 0 125 24" fill="none" xmlns="http://www.w3.org/2000/svg" xmlns:xlink="http://www.w3.org/1999/xlink">
	<desc>
			Created with Pixso.
	</desc>
	<defs>
		<clipPath id="clip169_13122">
			<rect id="Logo" width="125.000000" height="24.000000" fill="white" fill-opacity="0"/>
		</clipPath>
	</defs>
	<g clip-path="url(#clip169_13122)">
		<path id="path" d="M0 2.68C2.3 -3.42 12.57 5.65 16.55 10.72L18.43 13.12L20.33 10.7C24.31 5.64 34.17 -4.97 36.87 2.69L36.87 23.55L28.68 23.55L28.68 12.42L21.32 22.41C20.79 23.12 19.95 23.55 19.05 23.55L17.81 23.55C16.91 23.55 16.07 23.12 15.54 22.41L8.18 12.42L8.18 23.55L0 23.55L0 2.68Z" fill="#000000" fill-opacity="1.000000" fill-rule="nonzero"/>
		<path id="path" d="M68.34 11.16L68.34 12.83C68.37 21.48 61.98 23.98 54.18 24C46.37 23.98 39.98 21.48 40.01 12.83L40.01 11.16C39.98 2.5 46.37 0.01 54.18 0C62 0 68.34 2.51 68.34 11.16ZM60.25 11.71C60.3 7.98 57.49 7.3 54.18 7.25C50.86 7.3 48.06 7.98 48.1 11.71L48.1 12.27C48.06 16.01 50.86 16.69 54.18 16.75C57.49 16.7 60.3 16.01 60.25 12.27L60.25 11.71Z" fill="#000000" fill-opacity="1.000000" fill-rule="nonzero"/>
		<path id="path" d="M82.5 16.35L85.18 9.46C87.42 3.71 92.45 0 98.02 0L87.33 23.55L77.66 23.55L66.99 0C72.55 0 77.59 3.71 79.83 9.46L82.5 16.35Z" fill="#9098D9" fill-opacity="1.000000" fill-rule="nonzero"/>
		<path id="path" d="M113.69 0L124.99 23.55L115.74 23.55C114.73 21.09 112.53 19.52 110.11 19.52L107.5 19.52C105.08 19.52 102.88 21.09 101.87 23.55L92.62 23.55L103.92 0L113.69 0ZM105.92 13.77L111.7 13.77L108.82 6.81L105.92 13.77Z" fill="#000000" fill-opacity="1.000000" fill-rule="nonzero"/>
	</g>
</svg>
