<svg xmlns="http://www.w3.org/2000/svg" width="130" height="50" viewBox="0 0 130 50" fill="none">
<g id="Logo">
<g id="Group">
<path id="Vector" d="M18.8198 18H11V13.4069H32.2791V18H18.8198Z" fill="#5E66A7"/>
<path id="Vector_2" d="M29.6928 38.2616C26.2335 38.2616 23.53 37.3023 21.5532 35.3546C19.6056 33.436 18.6172 30.6744 18.6172 27.0988V13.436H24.2567V26.8953C24.2567 29.2209 24.7218 30.9069 25.6811 31.9244C26.6404 32.9418 27.9777 33.4651 29.6928 33.4651C31.4079 33.4651 32.7451 32.9418 33.7044 31.9244C34.6637 30.9069 35.1288 29.2209 35.1288 26.8953V13.436H40.7102V27.0988C40.7102 30.6744 39.7218 33.436 37.7742 35.3546C35.8265 37.2732 33.123 38.2616 29.6346 38.2616H29.6928Z" fill="#5E66A7"/>
<path id="Vector_3" d="M51.9584 37.7965V17.9709H44.1387V13.3778H65.4177V17.9709H57.598V37.7965H51.9584Z" fill="#5E66A7"/>
<path id="Vector_4" d="M79.9834 38.2325C78.0648 38.2325 76.2625 37.9127 74.6346 37.3023C73.0067 36.6627 71.5823 35.7907 70.3904 34.6569C69.1985 33.5232 68.2683 32.186 67.5997 30.6453C66.9311 29.1046 66.6113 27.4476 66.6113 25.6162C66.6113 23.7848 66.9311 22.1279 67.5997 20.5872C68.2683 19.0465 69.1985 17.7092 70.4195 16.5755C71.6404 15.4418 73.0357 14.5406 74.6637 13.9302C76.2916 13.2906 78.0648 12.9999 79.9544 12.9999C81.8439 12.9999 83.6462 13.3197 85.2741 13.9302C86.902 14.5697 88.2974 15.4418 89.4892 16.5755C90.6811 17.7092 91.6113 19.0465 92.309 20.5581C93.0067 22.0697 93.3264 23.7558 93.3264 25.5872C93.3264 27.4186 92.9776 29.0755 92.309 30.6162C91.6404 32.1569 90.7102 33.4941 89.4892 34.6279C88.2974 35.7616 86.873 36.6337 85.2741 37.2732C83.6462 37.9127 81.902 38.2034 79.9834 38.2034V38.2325ZM79.9544 33.4069C81.059 33.4069 82.0474 33.2325 82.9776 32.8546C83.9078 32.4767 84.6927 31.9534 85.3904 31.2558C86.0881 30.5581 86.6404 29.7441 87.0183 28.7848C87.3962 27.8255 87.5997 26.779 87.5997 25.6162C87.5997 24.4534 87.3962 23.4069 87.0183 22.4476C86.6404 21.4883 86.0881 20.6744 85.4195 19.9767C84.7218 19.279 83.9369 18.7558 83.0067 18.3778C82.0764 17.9999 81.059 17.8255 79.9834 17.8255C78.9078 17.8255 77.8904 17.9999 76.9602 18.3778C76.0299 18.7558 75.2451 19.279 74.5474 19.9767C73.8497 20.6744 73.2974 21.4883 72.9195 22.4476C72.5416 23.4069 72.3381 24.4534 72.3381 25.6162C72.3381 26.779 72.5416 27.7965 72.9195 28.7848C73.2974 29.7441 73.8497 30.5872 74.5183 31.2848C75.216 31.9825 76.0009 32.5058 76.9311 32.8837C77.8613 33.2616 78.8788 33.436 79.9544 33.436V33.4069Z" fill="#5E66A7"/>
<path id="Vector_5" d="M97.5703 37.7965V13.3778H108.152C110.332 13.3778 112.221 13.7267 113.791 14.4534C115.361 15.1511 116.582 16.1685 117.454 17.5057C118.326 18.843 118.733 20.4127 118.733 22.2441C118.733 24.0755 118.297 25.6162 117.454 26.9244C116.582 28.2325 115.361 29.2499 113.791 29.9476C112.221 30.6453 110.332 30.9941 108.152 30.9941H100.71L103.21 28.5232V37.7965H97.5703ZM103.21 29.1337L100.71 26.4883H107.832C109.576 26.4883 110.884 26.1104 111.727 25.3546C112.599 24.5988 113.006 23.5523 113.006 22.2441C113.006 20.936 112.57 19.8604 111.727 19.1046C110.855 18.3488 109.576 17.9999 107.832 17.9999H100.71L103.21 15.3255V29.1627V29.1337ZM113.094 37.7965L106.989 28.9302H113.035L119.198 37.7965H113.094Z" fill="#5E66A7"/>
</g>
</g>
</svg>