<svg width="500" height="320" viewBox="0 0 500 320" fill="none" xmlns="http://www.w3.org/2000/svg">
<g clip-path="url(#clip0_1951_14475)">
<path fill-rule="evenodd" clip-rule="evenodd" d="M303.105 47.5652C363.731 79.9503 421.891 131.065 411.888 199.068C401.798 267.66 332.458 305.718 263.758 315.042C201.787 323.453 143.514 293.625 111.64 239.818C72.0321 172.956 39.8432 84.6892 94.6814 29.6253C149.082 -24.9996 235.105 11.2418 303.105 47.5652Z" fill="#F8FFA5" fill-opacity="0.7"/>
<path d="M437.684 131.861H72.5758C71.0255 131.861 69.5387 132.477 68.4425 133.573C67.3463 134.669 66.7305 136.156 66.7305 137.706C66.7305 139.257 67.3463 140.743 68.4425 141.84C69.5387 142.936 71.0255 143.552 72.5758 143.552H82.9175V283.39C82.9175 284.94 83.5334 286.427 84.6296 287.523C85.7258 288.619 87.2126 289.235 88.7628 289.235C90.3131 289.235 91.7999 288.619 92.8961 287.523C93.9923 286.427 94.6082 284.94 94.6082 283.39L94.697 143.552H414.752V283.39C414.752 284.94 415.368 286.427 416.464 287.523C417.56 288.619 419.047 289.235 420.597 289.235C422.148 289.235 423.634 288.619 424.731 287.523C425.827 286.427 426.443 284.94 426.443 283.39V146.634L428.143 143.552H437.684C439.234 143.552 440.721 142.936 441.817 141.84C442.913 140.743 443.529 139.257 443.529 137.706C443.529 136.156 442.913 134.669 441.817 133.573C440.721 132.477 439.234 131.861 437.684 131.861Z" fill="#CCCCCC"/>
<path d="M274.994 134.92H164.398C162.257 134.918 160.204 134.066 158.69 132.552C157.175 131.037 156.324 128.984 156.321 126.843V65.9534C156.324 63.8119 157.175 61.7589 158.69 60.2447C160.204 58.7304 162.257 57.8786 164.398 57.8762H274.994C277.135 57.8786 279.188 58.7304 280.702 60.2447C282.217 61.7589 283.068 63.8119 283.071 65.9534V126.843C283.068 128.984 282.217 131.037 280.702 132.552C279.188 134.066 277.135 134.918 274.994 134.92Z" fill="#2C3475"/>
<path d="M274.994 64.0927H164.4C163.907 64.0938 163.434 64.2902 163.085 64.6391C162.736 64.988 162.54 65.4609 162.539 65.9542V126.844C162.54 127.338 162.737 127.811 163.085 128.16C163.434 128.508 163.907 128.705 164.4 128.706H274.994C275.488 128.705 275.961 128.508 276.309 128.16C276.658 127.811 276.855 127.338 276.856 126.844V65.9542C276.855 65.4609 276.658 64.988 276.309 64.6391C275.961 64.2902 275.488 64.0938 274.994 64.0927Z" fill="#E7E7FF"/>
<path d="M229.13 107.203C229.13 107.203 215.891 104.152 208.609 109.745C201.327 115.338 217.877 128.049 217.877 128.049L229.13 107.203Z" fill="#2C3475"/>
<path d="M220.345 101.438C227.242 101.438 232.833 95.847 232.833 88.9499C232.833 82.0527 227.242 76.4615 220.345 76.4615C213.448 76.4615 207.856 82.0527 207.856 88.9499C207.856 95.847 213.448 101.438 220.345 101.438Z" fill="#FFB8B8"/>
<path d="M210.689 71.4192C211.522 70.0057 212.729 68.8498 214.178 68.0793C215.626 67.3087 217.259 66.9533 218.897 67.0525C220.609 67.2673 222.281 67.7352 223.856 68.4409L232.02 71.6255C234.133 72.4495 236.447 73.4589 237.363 75.5329C238.214 77.4579 237.579 79.681 236.937 81.6851L233.882 91.2115C233.544 89.0554 232.963 86.9444 232.151 84.9186C231.326 82.8792 229.835 81.1791 227.921 80.0949C225.8 79.007 223.301 79.0296 220.92 79.1441C217.549 79.3064 213.883 79.7353 211.487 82.1134C210.216 83.4639 209.354 85.1477 209.001 86.9689C208.654 88.7803 208.48 90.6206 208.48 92.4649C207.097 90.0884 205.933 87.5916 205 85.005C204.233 83.0791 203.796 81.0377 203.707 78.9665C203.627 76.8777 204.32 74.8326 205.654 73.2228C206.331 72.4362 207.214 71.8543 208.204 71.5428C209.194 71.2312 210.251 71.2023 211.257 71.4594L210.689 71.4192Z" fill="#2F2E41"/>
<path d="M250.166 118.032C250.049 117.61 249.809 117.232 249.478 116.946C249.147 116.659 248.739 116.477 248.305 116.422C248.276 116.402 248.246 116.384 248.214 116.368L229.571 105.92C229.039 105.622 228.412 105.54 227.821 105.692C227.23 105.844 226.72 106.218 226.398 106.737L221.299 114.992L213.619 107.312L213.497 107.19C213.103 106.796 212.583 106.553 212.028 106.505C211.472 106.456 210.918 106.605 210.461 106.924L195.139 117.654C195.112 117.654 195.085 117.663 195.058 117.663C194.325 117.785 193.655 118.154 193.16 118.708C192.664 119.262 192.373 119.969 192.333 120.711L191.938 128.706H253.125L250.166 118.032Z" fill="#9098D9"/>
<path d="M284.314 127.464H272.509C272.509 127.135 272.378 126.819 272.145 126.586C271.912 126.352 271.596 126.222 271.267 126.222H267.539C267.209 126.222 266.893 126.352 266.66 126.586C266.427 126.819 266.296 127.135 266.296 127.464H262.568C262.568 127.135 262.437 126.819 262.204 126.586C261.971 126.352 261.655 126.222 261.325 126.222H257.598C257.268 126.222 256.952 126.352 256.719 126.586C256.486 126.819 256.355 127.135 256.355 127.464H252.627C252.627 127.135 252.496 126.819 252.263 126.586C252.03 126.352 251.714 126.222 251.384 126.222H247.656C247.327 126.222 247.011 126.352 246.778 126.586C246.545 126.819 246.414 127.135 246.414 127.464H242.686C242.686 127.135 242.555 126.819 242.322 126.586C242.089 126.352 241.773 126.222 241.443 126.222H237.715C237.386 126.222 237.07 126.352 236.837 126.586C236.604 126.819 236.473 127.135 236.473 127.464H232.745C232.745 127.135 232.614 126.819 232.381 126.586C232.148 126.352 231.832 126.222 231.502 126.222H227.774C227.445 126.222 227.129 126.352 226.896 126.586C226.662 126.819 226.532 127.135 226.532 127.464H222.804C222.804 127.135 222.673 126.819 222.44 126.586C222.207 126.352 221.89 126.222 221.561 126.222H217.833C217.503 126.222 217.187 126.352 216.954 126.586C216.721 126.819 216.59 127.135 216.59 127.464H212.862C212.862 127.135 212.731 126.819 212.498 126.586C212.265 126.352 211.949 126.222 211.62 126.222H207.892C207.562 126.222 207.246 126.352 207.013 126.586C206.78 126.819 206.649 127.135 206.649 127.464H202.921C202.921 127.135 202.79 126.819 202.557 126.586C202.324 126.352 202.008 126.222 201.679 126.222H197.951C197.621 126.222 197.305 126.352 197.072 126.586C196.839 126.819 196.708 127.135 196.708 127.464H192.98C192.98 127.135 192.849 126.819 192.616 126.586C192.383 126.352 192.067 126.222 191.737 126.222H188.01C187.68 126.222 187.364 126.352 187.131 126.586C186.898 126.819 186.767 127.135 186.767 127.464H183.039C183.039 127.135 182.908 126.819 182.675 126.586C182.442 126.352 182.126 126.222 181.796 126.222H178.068C177.739 126.222 177.423 126.352 177.19 126.586C176.957 126.819 176.826 127.135 176.826 127.464H173.098C173.098 127.135 172.967 126.819 172.734 126.586C172.501 126.352 172.185 126.222 171.855 126.222H168.127C167.798 126.222 167.482 126.352 167.249 126.586C167.016 126.819 166.885 127.135 166.885 127.464H155.08C154.092 127.466 153.145 127.859 152.447 128.558C151.749 129.257 151.357 130.204 151.357 131.192C151.357 132.18 151.749 133.127 152.447 133.826C153.145 134.525 154.092 134.919 155.08 134.92H284.314C285.303 134.92 286.251 134.527 286.95 133.828C287.65 133.129 288.042 132.181 288.042 131.192C288.042 130.203 287.65 129.255 286.95 128.556C286.251 127.857 285.303 127.464 284.314 127.464Z" fill="#2C3475"/>
<path d="M135.863 105.815V130.568H73.8471C72.1855 130.626 70.5293 130.349 68.9773 129.753C67.4252 129.157 66.009 128.255 64.8131 127.1C63.6172 125.945 62.6661 124.561 62.0166 123.03C61.367 121.5 61.0322 119.854 61.0322 118.192C61.0322 116.529 61.367 114.884 62.0166 113.353C62.6661 111.823 63.6172 110.439 64.8131 109.284C66.009 108.129 67.4252 107.226 68.9773 106.63C70.5293 106.035 72.1855 105.757 73.8471 105.815H135.863Z" fill="#F2F2F2"/>
<path d="M137.386 130.378C137.386 130.63 137.285 130.873 137.107 131.051C136.928 131.23 136.686 131.33 136.434 131.33H72.7414C69.2821 131.33 65.9645 129.956 63.5185 127.51C61.0724 125.064 59.6982 121.746 59.6982 118.287C59.6982 114.828 61.0724 111.51 63.5185 109.064C65.9645 106.618 69.2821 105.244 72.7414 105.244H136.434C136.686 105.244 136.928 105.344 137.107 105.523C137.285 105.701 137.386 105.943 137.386 106.196C137.386 106.448 137.285 106.691 137.107 106.869C136.928 107.048 136.686 107.148 136.434 107.148H72.7414C69.7888 107.151 66.9582 108.325 64.8714 110.414C62.7846 112.503 61.6123 115.334 61.6123 118.287C61.6123 121.239 62.7846 124.071 64.8714 126.16C66.9582 128.249 69.7888 129.423 72.7414 129.426H136.434C136.686 129.426 136.928 129.526 137.107 129.705C137.285 129.883 137.386 130.125 137.386 130.378Z" fill="#FCF670"/>
<path d="M135.862 111.527H69.2181C69.193 111.528 69.1681 111.523 69.1448 111.513C69.1216 111.504 69.1004 111.49 69.0826 111.472C69.0648 111.454 69.0506 111.433 69.041 111.41C69.0313 111.387 69.0264 111.362 69.0264 111.337C69.0264 111.312 69.0313 111.287 69.041 111.264C69.0506 111.241 69.0648 111.22 69.0826 111.202C69.1004 111.184 69.1216 111.17 69.1448 111.161C69.1681 111.151 69.193 111.146 69.2181 111.146H135.862C135.912 111.147 135.96 111.167 135.996 111.203C136.031 111.238 136.051 111.287 136.051 111.337C136.051 111.387 136.031 111.435 135.996 111.471C135.96 111.507 135.912 111.527 135.862 111.527Z" fill="#CCCCCC"/>
<path d="M135.862 116.097H69.2181C69.193 116.097 69.1681 116.093 69.1448 116.083C69.1216 116.074 69.1004 116.06 69.0826 116.042C69.0648 116.024 69.0506 116.003 69.041 115.98C69.0313 115.957 69.0264 115.932 69.0264 115.907C69.0264 115.882 69.0313 115.857 69.041 115.834C69.0506 115.81 69.0648 115.789 69.0826 115.772C69.1004 115.754 69.1216 115.74 69.1448 115.73C69.1681 115.721 69.193 115.716 69.2181 115.716H135.862C135.912 115.717 135.96 115.737 135.996 115.773C136.031 115.808 136.051 115.857 136.051 115.907C136.051 115.957 136.031 116.005 135.996 116.041C135.96 116.077 135.912 116.097 135.862 116.097Z" fill="#CCCCCC"/>
<path d="M135.862 120.667H69.2181C69.193 120.667 69.1681 120.662 69.1448 120.653C69.1216 120.643 69.1004 120.629 69.0826 120.612C69.0648 120.594 69.0506 120.573 69.041 120.55C69.0313 120.527 69.0264 120.502 69.0264 120.477C69.0264 120.452 69.0313 120.427 69.041 120.403C69.0506 120.38 69.0648 120.359 69.0826 120.342C69.1004 120.324 69.1216 120.31 69.1448 120.3C69.1681 120.291 69.193 120.286 69.2181 120.286H135.862C135.912 120.287 135.96 120.307 135.996 120.342C136.031 120.378 136.051 120.426 136.051 120.477C136.051 120.527 136.031 120.575 135.996 120.611C135.96 120.646 135.912 120.667 135.862 120.667Z" fill="#CCCCCC"/>
<path d="M135.862 125.237H69.2181C69.193 125.237 69.1681 125.232 69.1448 125.223C69.1216 125.213 69.1004 125.199 69.0826 125.182C69.0648 125.164 69.0506 125.143 69.041 125.12C69.0313 125.096 69.0264 125.072 69.0264 125.046C69.0264 125.021 69.0313 124.996 69.041 124.973C69.0506 124.95 69.0648 124.929 69.0826 124.911C69.1004 124.894 69.1216 124.88 69.1448 124.87C69.1681 124.861 69.193 124.856 69.2181 124.856H135.862C135.912 124.856 135.96 124.877 135.996 124.912C136.031 124.948 136.051 124.996 136.051 125.046C136.051 125.097 136.031 125.145 135.996 125.181C135.96 125.216 135.912 125.236 135.862 125.237Z" fill="#CCCCCC"/>
<path d="M124.173 79.7359V104.489H62.1567C60.4951 104.547 58.8389 104.27 57.2868 103.674C55.7347 103.078 54.3185 102.175 53.1227 101.02C51.9268 99.8655 50.9757 98.4815 50.3261 96.9511C49.6766 95.4207 49.3418 93.7751 49.3418 92.1126C49.3418 90.45 49.6766 88.8044 50.3261 87.274C50.9757 85.7436 51.9268 84.3597 53.1227 83.2047C54.3185 82.0497 55.7347 81.1473 57.2868 80.5514C58.8389 79.9554 60.4951 79.6781 62.1567 79.7359H124.173Z" fill="#F2F2F2"/>
<path d="M125.695 104.299C125.695 104.551 125.595 104.793 125.416 104.972C125.238 105.15 124.996 105.251 124.743 105.251H61.0509C59.3381 105.251 57.642 104.914 56.0595 104.258C54.4771 103.603 53.0392 102.642 51.8281 101.431C50.6169 100.219 49.6561 98.7816 49.0006 97.1992C48.3452 95.6167 48.0078 93.9206 48.0078 92.2078C48.0078 90.4949 48.3452 88.7989 49.0006 87.2164C49.6561 85.6339 50.6169 84.1961 51.8281 82.9849C53.0392 81.7737 54.4771 80.813 56.0595 80.1575C57.642 79.502 59.3381 79.1647 61.0509 79.1647H124.743C124.996 79.1647 125.238 79.265 125.416 79.4435C125.595 79.6221 125.695 79.8642 125.695 80.1167C125.695 80.3692 125.595 80.6114 125.416 80.7899C125.238 80.9685 124.996 81.0688 124.743 81.0688H61.0509C58.0984 81.0714 55.2677 82.2462 53.1809 84.3349C51.0941 86.4235 49.9219 89.2553 49.9219 92.2078C49.9219 95.1603 51.0941 97.992 53.1809 100.081C55.2677 102.169 58.0984 103.344 61.0509 103.347H124.743C124.996 103.347 125.238 103.447 125.416 103.626C125.595 103.804 125.695 104.046 125.695 104.299Z" fill="#5E66A7"/>
<path d="M124.171 85.4482H57.5277C57.5025 85.4483 57.4776 85.4435 57.4544 85.434C57.4311 85.4245 57.41 85.4105 57.3922 85.3928C57.3743 85.3751 57.3602 85.3541 57.3506 85.3309C57.3409 85.3077 57.3359 85.2829 57.3359 85.2578C57.3359 85.2326 57.3409 85.2078 57.3506 85.1846C57.3602 85.1614 57.3743 85.1404 57.3922 85.1227C57.41 85.105 57.4311 85.091 57.4544 85.0815C57.4776 85.072 57.5025 85.0672 57.5277 85.0673H124.171C124.222 85.0677 124.27 85.0879 124.305 85.1236C124.341 85.1592 124.36 85.2075 124.36 85.2578C124.36 85.308 124.341 85.3563 124.305 85.3919C124.27 85.4276 124.222 85.4478 124.171 85.4482Z" fill="#CCCCCC"/>
<path d="M124.171 90.0181H57.5277C57.5025 90.0182 57.4776 90.0134 57.4544 90.0039C57.4311 89.9944 57.41 89.9805 57.3922 89.9628C57.3743 89.9451 57.3602 89.924 57.3506 89.9008C57.3409 89.8776 57.3359 89.8528 57.3359 89.8276C57.3359 89.8025 57.3409 89.7776 57.3506 89.7545C57.3602 89.7313 57.3743 89.7102 57.3922 89.6925C57.41 89.6748 57.4311 89.6608 57.4544 89.6513C57.4776 89.6419 57.5025 89.6371 57.5277 89.6372H124.171C124.222 89.6376 124.27 89.6578 124.305 89.6934C124.341 89.7291 124.36 89.7774 124.36 89.8276C124.36 89.8779 124.341 89.9261 124.305 89.9618C124.27 89.9975 124.222 90.0177 124.171 90.0181Z" fill="#CCCCCC"/>
<path d="M124.171 94.5879H57.5277C57.5025 94.588 57.4776 94.5833 57.4544 94.5738C57.4311 94.5643 57.41 94.5503 57.3922 94.5326C57.3743 94.5149 57.3602 94.4938 57.3506 94.4706C57.3409 94.4474 57.3359 94.4226 57.3359 94.3975C57.3359 94.3724 57.3409 94.3475 57.3506 94.3243C57.3602 94.3011 57.3743 94.2801 57.3922 94.2624C57.41 94.2447 57.4311 94.2307 57.4544 94.2212C57.4776 94.2117 57.5025 94.2069 57.5277 94.2071H124.171C124.222 94.2074 124.27 94.2276 124.305 94.2633C124.341 94.299 124.36 94.3472 124.36 94.3975C124.36 94.4477 124.341 94.496 124.305 94.5316C124.27 94.5673 124.222 94.5875 124.171 94.5879Z" fill="#CCCCCC"/>
<path d="M124.171 99.1577H57.5277C57.5025 99.1579 57.4776 99.1531 57.4544 99.1436C57.4311 99.1341 57.41 99.1201 57.3922 99.1024C57.3743 99.0847 57.3602 99.0637 57.3506 99.0405C57.3409 99.0173 57.3359 98.9924 57.3359 98.9673C57.3359 98.9422 57.3409 98.9173 57.3506 98.8942C57.3602 98.871 57.3743 98.8499 57.3922 98.8322C57.41 98.8145 57.4311 98.8005 57.4544 98.791C57.4776 98.7815 57.5025 98.7767 57.5277 98.7769H124.171C124.222 98.7773 124.27 98.7975 124.305 98.8331C124.341 98.8688 124.36 98.9171 124.36 98.9673C124.36 99.0176 124.341 99.0658 124.305 99.1015C124.27 99.1372 124.222 99.1574 124.171 99.1577Z" fill="#CCCCCC"/>
<path d="M196.315 218.553V196.97C196.315 196.016 195.936 195.101 195.261 194.427C194.587 193.752 193.672 193.373 192.718 193.373H110.883C109.929 193.373 109.014 193.752 108.34 194.427C107.665 195.101 107.286 196.016 107.286 196.97V218.553H196.315Z" fill="#CCCCCC"/>
<path d="M196.315 226.647H107.286V254.524H196.315V226.647Z" fill="#CCCCCC"/>
<path d="M107.286 262.618V284.201C107.286 285.155 107.665 286.07 108.34 286.744C109.014 287.419 109.929 287.798 110.883 287.798H192.718C193.672 287.798 194.587 287.419 195.261 286.744C195.936 286.07 196.315 285.155 196.315 284.201V262.618H107.286Z" fill="#CCCCCC"/>
<path d="M151.351 209.56C152.841 209.56 154.049 208.352 154.049 206.863C154.049 205.373 152.841 204.165 151.351 204.165C149.861 204.165 148.653 205.373 148.653 206.863C148.653 208.352 149.861 209.56 151.351 209.56Z" fill="#FCF670"/>
<path d="M151.351 245.532C152.841 245.532 154.049 244.324 154.049 242.834C154.049 241.344 152.841 240.136 151.351 240.136C149.861 240.136 148.653 241.344 148.653 242.834C148.653 244.324 149.861 245.532 151.351 245.532Z" fill="#FCF670"/>
<path d="M151.497 280.741C152.987 280.741 154.195 279.533 154.195 278.043C154.195 276.553 152.987 275.345 151.497 275.345C150.007 275.345 148.799 276.553 148.799 278.043C148.799 279.533 150.007 280.741 151.497 280.741Z" fill="#FCF670"/>
<path d="M186.222 168.765V193.518H124.205C122.544 193.576 120.888 193.299 119.336 192.703C117.784 192.107 116.367 191.204 115.171 190.049C113.976 188.894 113.025 187.51 112.375 185.98C111.725 184.449 111.391 182.804 111.391 181.141C111.391 179.479 111.725 177.833 112.375 176.303C113.025 174.772 113.976 173.388 115.171 172.233C116.367 171.079 117.784 170.176 119.336 169.58C120.888 168.984 122.544 168.707 124.205 168.765H186.222Z" fill="#F2F2F2"/>
<path d="M187.746 193.328C187.746 193.58 187.646 193.822 187.467 194.001C187.289 194.179 187.046 194.28 186.794 194.28H123.102C121.388 194.281 119.691 193.945 118.107 193.29C116.523 192.635 115.084 191.675 113.872 190.463C112.66 189.252 111.698 187.814 111.042 186.23C110.386 184.647 110.048 182.95 110.048 181.237C110.048 179.523 110.386 177.826 111.042 176.243C111.698 174.66 112.66 173.221 113.872 172.01C115.084 170.799 116.523 169.838 118.107 169.183C119.691 168.528 121.388 168.192 123.102 168.193H186.794C187.047 168.193 187.289 168.294 187.467 168.472C187.646 168.651 187.746 168.893 187.746 169.145C187.746 169.398 187.646 169.64 187.467 169.819C187.289 169.997 187.047 170.098 186.794 170.098H123.102C120.149 170.1 117.319 171.275 115.232 173.364C113.145 175.452 111.973 178.284 111.973 181.237C111.973 184.189 113.145 187.021 115.232 189.109C117.319 191.198 120.149 192.373 123.102 192.376H186.794C187.046 192.376 187.289 192.476 187.467 192.655C187.646 192.833 187.746 193.075 187.746 193.328Z" fill="#5E66A7"/>
<path d="M186.221 174.477H119.577C119.552 174.477 119.527 174.472 119.504 174.463C119.481 174.453 119.46 174.439 119.442 174.422C119.424 174.404 119.41 174.383 119.4 174.36C119.391 174.337 119.386 174.312 119.386 174.287C119.386 174.261 119.391 174.237 119.4 174.213C119.41 174.19 119.424 174.169 119.442 174.151C119.46 174.134 119.481 174.12 119.504 174.11C119.527 174.101 119.552 174.096 119.577 174.096H186.221C186.271 174.096 186.319 174.117 186.355 174.152C186.39 174.188 186.41 174.236 186.41 174.287C186.41 174.337 186.39 174.385 186.355 174.421C186.319 174.456 186.271 174.477 186.221 174.477Z" fill="#CCCCCC"/>
<path d="M186.221 179.047H119.577C119.552 179.047 119.527 179.042 119.504 179.033C119.481 179.023 119.46 179.009 119.442 178.992C119.424 178.974 119.41 178.953 119.4 178.93C119.391 178.906 119.386 178.882 119.386 178.856C119.386 178.831 119.391 178.806 119.4 178.783C119.41 178.76 119.424 178.739 119.442 178.721C119.46 178.704 119.481 178.69 119.504 178.68C119.527 178.671 119.552 178.666 119.577 178.666H186.221C186.271 178.666 186.319 178.687 186.355 178.722C186.39 178.758 186.41 178.806 186.41 178.856C186.41 178.907 186.39 178.955 186.355 178.991C186.319 179.026 186.271 179.046 186.221 179.047Z" fill="#CCCCCC"/>
<path d="M186.221 183.617H119.577C119.552 183.617 119.527 183.612 119.504 183.603C119.481 183.593 119.46 183.579 119.442 183.561C119.424 183.544 119.41 183.523 119.4 183.499C119.391 183.476 119.386 183.451 119.386 183.426C119.386 183.401 119.391 183.376 119.4 183.353C119.41 183.33 119.424 183.309 119.442 183.291C119.46 183.273 119.481 183.259 119.504 183.25C119.527 183.24 119.552 183.236 119.577 183.236H186.221C186.271 183.236 186.319 183.256 186.355 183.292C186.39 183.328 186.41 183.376 186.41 183.426C186.41 183.477 186.39 183.525 186.355 183.56C186.319 183.596 186.271 183.616 186.221 183.617Z" fill="#CCCCCC"/>
<path d="M186.221 188.186H119.577C119.552 188.187 119.527 188.182 119.504 188.172C119.481 188.163 119.46 188.149 119.442 188.131C119.424 188.114 119.41 188.092 119.4 188.069C119.391 188.046 119.386 188.021 119.386 187.996C119.386 187.971 119.391 187.946 119.4 187.923C119.41 187.9 119.424 187.879 119.442 187.861C119.46 187.843 119.481 187.829 119.504 187.82C119.527 187.81 119.552 187.805 119.577 187.806H186.221C186.271 187.806 186.319 187.826 186.355 187.862C186.39 187.898 186.41 187.946 186.41 187.996C186.41 188.046 186.39 188.095 186.355 188.13C186.319 188.166 186.271 188.186 186.221 188.186Z" fill="#CCCCCC"/>
<path d="M332.341 124.129H304.086C303.817 124.128 303.553 124.19 303.312 124.309L296.181 127.879C295.946 127.978 295.746 128.145 295.605 128.358C295.465 128.57 295.39 128.82 295.39 129.075C295.39 129.33 295.465 129.579 295.605 129.792C295.746 130.004 295.946 130.171 296.181 130.271L303.312 133.841C303.553 133.959 303.817 134.021 304.086 134.021H332.341C332.73 134.043 333.113 133.912 333.406 133.654C333.699 133.396 333.878 133.034 333.906 132.645V125.505C333.878 125.116 333.699 124.753 333.406 124.495C333.113 124.238 332.73 124.106 332.341 124.129Z" fill="#3F3D56"/>
<path d="M333.905 125.505V132.645C333.878 133.034 333.698 133.396 333.405 133.654C333.112 133.911 332.73 134.043 332.34 134.021H326.711V124.129H332.34C332.73 124.106 333.112 124.238 333.405 124.495C333.698 124.753 333.878 125.116 333.905 125.505Z" fill="#FCF670"/>
<path d="M332.127 70.7112C333.407 70.1589 334.789 69.8833 336.183 69.9023C337.577 69.9214 338.951 70.2347 340.215 70.8218C341.479 71.4088 342.605 72.2564 343.519 73.309C344.433 74.3615 345.114 75.5953 345.518 76.9294C345.644 77.3524 345.74 77.7836 345.806 78.2199L385.319 97.8135L394.463 91.7537L405.84 104.852L391.878 116.192C390.199 117.545 388.129 118.32 385.974 118.404C383.819 118.487 381.695 117.873 379.917 116.653L339.827 88.9299C339.529 89.0564 339.225 89.1675 338.915 89.2627C337.58 89.6663 336.176 89.7834 334.793 89.6062C333.41 89.4291 332.081 88.9619 330.891 88.235C329.702 87.5082 328.679 86.5381 327.89 85.3885C327.102 84.2389 326.565 82.9357 326.315 81.5642C326.241 81.1661 326.193 80.7638 326.169 80.3596C326.058 78.3353 326.569 76.3256 327.635 74.6007C328.7 72.8757 330.268 71.5184 332.127 70.7112Z" fill="#FFB8B8"/>
<path d="M414.424 191.349H371.25C371.25 192.59 326.754 193.597 326.754 193.597C326.055 194.123 325.419 194.726 324.856 195.395C323.166 197.411 322.242 199.959 322.248 202.59V204.388C322.249 207.369 323.434 210.228 325.542 212.336C327.65 214.443 330.508 215.628 333.489 215.629H414.424C417.405 215.627 420.263 214.442 422.37 212.334C424.478 210.226 425.663 207.369 425.665 204.388V202.59C425.661 199.61 424.476 196.753 422.368 194.646C420.261 192.538 417.404 191.353 414.424 191.349Z" fill="#3F3D56"/>
<path d="M367.461 290.722H379.151V215.183H367.461V290.722Z" fill="#3F3D56"/>
<path d="M334.188 290.312C334.188 291.575 351.903 290.8 373.756 290.8C395.609 290.8 413.324 291.575 413.324 290.312C413.324 289.048 395.609 279.032 373.756 279.032C351.903 279.032 334.188 289.048 334.188 290.312Z" fill="#3F3D56"/>
<path d="M344.741 281.458L333.717 281.457L328.472 252.862L344.743 252.863L344.741 281.458Z" fill="#FFB8B8"/>
<path d="M347.554 292.145L312.005 292.143V291.694C312.005 289.877 312.363 288.077 313.058 286.399C313.753 284.72 314.773 283.194 316.058 281.91C317.342 280.625 318.868 279.606 320.547 278.91C322.225 278.215 324.025 277.857 325.842 277.857H325.843L347.555 277.858L347.554 292.145Z" fill="#2F2E41"/>
<path d="M328.253 263.726L306.274 214.438C304.439 210.284 304.236 205.591 305.705 201.294C307.175 196.997 310.209 193.411 314.204 191.251L361.878 165.687L383.633 163.836L403.7 162.012L403.845 162.257C404.03 162.57 408.344 170.022 405.428 178.194C403.215 184.392 397.461 189.234 388.324 192.584C366.999 200.404 342.363 207.087 332.761 209.597C332.337 209.705 331.94 209.902 331.598 210.175C331.255 210.448 330.974 210.79 330.773 211.179C330.571 211.564 330.451 211.986 330.421 212.419C330.391 212.852 330.45 213.287 330.596 213.696L351.016 259.573C351.229 260.155 351.306 260.778 351.24 261.394C351.175 262.01 350.968 262.603 350.637 263.127C350.306 263.651 349.859 264.092 349.331 264.415C348.803 264.739 348.207 264.938 347.59 264.995L332.332 266.106C332.203 266.118 332.074 266.124 331.946 266.124C331.164 266.124 330.4 265.897 329.744 265.472C329.089 265.046 328.571 264.44 328.253 263.726Z" fill="#2C3475"/>
<path d="M350.137 281.458L339.113 281.457L333.867 252.862L350.139 252.863L350.137 281.458Z" fill="#FFB8B8"/>
<path d="M352.949 292.145L317.4 292.143V291.694C317.4 289.877 317.758 288.077 318.454 286.399C319.149 284.72 320.168 283.194 321.453 281.91C322.738 280.625 324.263 279.606 325.942 278.91C327.621 278.215 329.42 277.857 331.237 277.857H331.238L352.95 277.858L352.949 292.145Z" fill="#2F2E41"/>
<path d="M334.548 266.424L312.569 217.136C310.734 212.982 310.531 208.289 312 203.992C313.47 199.695 316.504 196.109 320.499 193.949L368.173 168.384L389.928 166.534L409.995 164.71L410.139 164.955C410.325 165.268 414.639 172.72 411.723 180.892C409.51 187.09 403.756 191.932 394.619 195.282C373.294 203.102 348.658 209.785 339.056 212.295C338.632 212.403 338.235 212.6 337.892 212.873C337.55 213.146 337.269 213.488 337.068 213.877C336.866 214.262 336.746 214.684 336.716 215.117C336.686 215.55 336.745 215.985 336.891 216.394L357.311 262.271C357.524 262.852 357.601 263.475 357.535 264.092C357.469 264.708 357.263 265.301 356.932 265.825C356.601 266.349 356.154 266.789 355.626 267.113C355.098 267.437 354.502 267.635 353.885 267.693L338.627 268.804C338.498 268.816 338.369 268.822 338.24 268.822C337.459 268.822 336.694 268.595 336.039 268.169C335.384 267.744 334.866 267.137 334.548 266.424Z" fill="#2C3475"/>
<path d="M323.594 115.856C314.358 103.571 307.056 89.9445 301.943 75.4501C301.647 74.5831 301.668 73.6391 302.003 72.7862C302.337 71.9333 302.964 71.2268 303.77 70.7924L335.376 53.8575C335.887 53.5815 336.455 53.4257 337.035 53.4022C337.616 53.3786 338.194 53.4878 338.726 53.7215C339.268 53.957 339.749 54.313 340.133 54.7624C340.516 55.2118 340.792 55.7429 340.939 56.3151C344.618 70.2823 351.533 83.1875 361.124 93.9866C361.519 94.4261 361.809 94.95 361.97 95.5183C362.132 96.0865 362.162 96.6842 362.058 97.2658C361.958 97.8382 361.729 98.3802 361.387 98.8506C361.046 99.3209 360.602 99.7072 360.089 99.98L328.484 116.915C327.675 117.346 326.74 117.476 325.845 117.282C324.949 117.089 324.151 116.583 323.594 115.856Z" fill="#CCCCCC"/>
<path d="M325.75 114.236C325.92 114.448 326.159 114.594 326.425 114.649C326.691 114.704 326.969 114.664 327.209 114.537L358.814 97.6017C358.968 97.5217 359.101 97.4073 359.203 97.2673C359.304 97.1274 359.372 96.9657 359.401 96.7951C359.434 96.6149 359.425 96.4296 359.374 96.2536C359.324 96.0776 359.233 95.9157 359.109 95.7807C349.235 84.6635 342.116 71.3781 338.329 56.9992C338.286 56.8216 338.201 56.6565 338.083 56.5169C337.965 56.3772 337.816 56.2669 337.648 56.1944C337.489 56.1236 337.317 56.0905 337.144 56.0976C336.97 56.1048 336.801 56.1521 336.649 56.2357L305.044 73.1705C304.805 73.2998 304.618 73.5088 304.516 73.7611C304.415 74.0135 304.404 74.2935 304.487 74.5528C309.509 88.7877 316.679 102.17 325.75 114.236Z" fill="white"/>
<path d="M428.589 111.339L403.837 120.745L397.794 103.958C396.991 101.729 397.003 99.2884 397.826 97.0669C398.649 94.8454 400.231 92.9864 402.292 91.8185C404.377 90.637 406.816 90.2399 409.168 90.6991C411.52 91.1583 413.631 92.4435 415.118 94.3225L428.589 111.339Z" fill="#6C63FF"/>
<path d="M365.631 177.85C365.11 177.481 364.674 177.006 364.351 176.456C364.028 175.906 363.826 175.293 363.758 174.658C360.587 145.063 362.796 121.903 370.508 103.854C371.866 100.741 373.912 97.9758 376.493 95.7672C379.073 93.5586 382.12 91.9636 385.406 91.1021L405.414 90.0922L405.518 90.1422C410.033 92.3537 413.715 95.9613 416.019 100.43C418.322 104.899 419.124 109.991 418.305 114.952C411.87 131.915 406.481 149.577 410.591 163.824C410.763 164.42 410.813 165.044 410.738 165.66C410.664 166.275 410.465 166.87 410.155 167.407C409.855 167.926 409.451 168.378 408.969 168.735C408.488 169.092 407.938 169.347 407.354 169.483L369.243 178.549C368.626 178.696 367.985 178.709 367.362 178.589C366.739 178.468 366.149 178.216 365.631 177.85Z" fill="#FCF670"/>
<path d="M398.738 82.6189C410.936 82.6189 420.825 72.7301 420.825 60.5317C420.825 48.3332 410.936 38.4444 398.738 38.4444C386.539 38.4444 376.65 48.3332 376.65 60.5317C376.65 72.7301 386.539 82.6189 398.738 82.6189Z" fill="#FFB8B8"/>
<path d="M337.448 78.0254L320.235 85.6239C319.58 85.9121 318.838 85.9287 318.171 85.6703C317.504 85.4118 316.967 84.8994 316.677 84.2453L316.251 83.2808C315.963 82.6262 315.946 81.8839 316.205 81.217C316.463 80.5501 316.976 80.0128 317.63 79.7233L334.844 72.1248C335.498 71.8366 336.24 71.82 336.907 72.0784C337.574 72.3369 338.112 72.8493 338.401 73.5034L338.827 74.4678C339.115 75.1225 339.132 75.8648 338.873 76.5317C338.615 77.1986 338.102 77.7358 337.448 78.0254Z" fill="#CCCCCC"/>
<path d="M343.744 89.716L326.53 97.3145C325.876 97.6027 325.134 97.6194 324.467 97.3609C323.8 97.1025 323.263 96.59 322.973 95.9359L322.547 94.9714C322.259 94.3168 322.242 93.5746 322.501 92.9076C322.759 92.2407 323.272 91.7035 323.926 91.4139L341.139 83.8154C341.794 83.5272 342.536 83.5106 343.203 83.769C343.87 84.0275 344.407 84.5399 344.697 85.194L345.123 86.1585C345.411 86.8131 345.428 87.5554 345.169 88.2223C344.911 88.8893 344.398 89.4264 343.744 89.716Z" fill="#CCCCCC"/>
<path d="M357.02 135.379L318.644 105.104C318.338 105.211 318.027 105.303 317.712 105.379C316.357 105.695 314.951 105.724 313.585 105.462C312.219 105.2 310.923 104.653 309.782 103.858C308.633 103.061 307.668 102.029 306.951 100.83C306.233 99.6305 305.78 98.2917 305.622 96.9031C305.364 94.6832 305.865 92.4415 307.041 90.5417C308.218 88.6419 310.002 87.1954 312.105 86.4371C313.417 85.9665 314.813 85.7783 316.203 85.8851C317.593 85.9918 318.944 86.3909 320.169 87.0563C321.394 87.7217 322.465 88.6384 323.31 89.7463C324.156 90.8542 324.759 92.1283 325.078 93.4851C325.177 93.9151 325.246 94.3515 325.284 94.791L363.486 116.83L372.993 111.357L383.525 125.144L368.764 135.665C367.036 136.887 364.96 137.519 362.844 137.467C360.729 137.415 358.686 136.683 357.02 135.379Z" fill="#FFB8B8"/>
<path d="M388.207 129.438L366.311 114.548L376.601 99.9739C377.967 98.0386 379.974 96.6487 382.266 96.0497C384.558 95.4507 386.988 95.6812 389.127 96.7005C391.29 97.7317 393.013 99.5024 393.985 101.693C394.958 103.883 395.114 106.349 394.427 108.645L388.207 129.438Z" fill="#FCF670"/>
<path d="M390.64 57.2419C384.963 61.1273 377.509 65.1212 371.711 60.9836C367.904 58.2668 366.705 53.2359 368.248 48.8209C371.025 40.8816 378.653 37.3863 385.947 34.7071C395.429 31.2241 405.754 28.4533 415.543 30.9476C425.332 33.442 433.983 42.9197 432.216 52.8657C430.795 60.8641 423.25 67.5194 424.321 75.5722C425.399 83.6766 434.514 87.9426 442.56 89.391C450.607 90.8395 459.611 91.3049 465.394 97.0846C472.771 104.458 470.928 117.636 463.987 125.421C457.046 133.205 446.571 136.734 436.421 139.132C422.972 142.311 408.427 143.981 395.654 138.706C382.882 133.432 372.942 119.233 376.642 105.919C378.205 100.295 381.887 95.5418 385.445 90.9147C389.003 86.2875 392.606 81.4489 393.963 75.7718C395.094 71.0409 394.257 65.5482 391.12 61.9995C390.549 61.3783 390.19 60.5923 390.094 59.7544C389.998 58.9164 390.17 58.0695 390.586 57.3354L390.64 57.2419Z" fill="#2F2E41"/>
<path d="M223.682 87.7629C223.682 88.4065 223.263 88.9072 222.834 88.8765C222.405 88.8459 222.108 88.2942 222.149 87.6505C222.19 87.0068 222.578 86.5062 222.997 86.5369C223.416 86.5675 223.723 87.109 223.682 87.7629Z" fill="#263238"/>
<path d="M216.375 87.252C216.324 87.8956 215.946 88.3962 215.527 88.3656C215.108 88.3349 214.802 87.7832 214.843 87.1396C214.883 86.4959 215.272 85.9953 215.691 86.0259C216.109 86.0566 216.416 86.639 216.375 87.252Z" fill="#263238"/>
<path d="M218.676 87.7324C217.768 89.655 216.599 91.4428 215.202 93.0451C215.624 93.3935 216.117 93.6454 216.646 93.7831C217.176 93.9207 217.729 93.9408 218.267 93.842L218.676 87.7324Z" fill="#D89090"/>
<path d="M226.112 85.5559C226.043 85.5608 225.973 85.5473 225.91 85.5169C225.848 85.4864 225.794 85.44 225.755 85.3823C225.504 84.9766 225.162 84.6352 224.755 84.3851C224.349 84.135 223.89 83.9832 223.415 83.9417C223.315 83.9417 223.219 83.9019 223.148 83.831C223.077 83.7601 223.037 83.6639 223.037 83.5637C223.037 83.4634 223.077 83.3672 223.148 83.2964C223.219 83.2255 223.315 83.1856 223.415 83.1856C224.017 83.2227 224.601 83.4035 225.118 83.7128C225.635 84.0221 226.071 84.451 226.388 84.9634C226.417 85.0047 226.437 85.0515 226.448 85.1008C226.458 85.1501 226.459 85.201 226.449 85.2505C226.44 85.3 226.42 85.3471 226.392 85.389C226.364 85.431 226.328 85.4669 226.286 85.4946C226.232 85.524 226.173 85.5447 226.112 85.5559Z" fill="#263238"/>
<path d="M221.078 96.9989C222.015 96.9814 222.935 96.7383 223.758 96.2901C224.582 95.842 225.285 95.2019 225.808 94.4243C225.823 94.4018 225.833 94.3765 225.837 94.3501C225.841 94.3236 225.84 94.2966 225.833 94.2707C225.826 94.2448 225.814 94.2206 225.798 94.1995C225.781 94.1785 225.76 94.1611 225.737 94.1484C225.714 94.134 225.689 94.1243 225.663 94.1201C225.636 94.1159 225.609 94.1172 225.583 94.1239C225.557 94.1306 225.533 94.1426 225.512 94.1591C225.491 94.1757 225.474 94.1964 225.461 94.2199C224.962 94.9299 224.304 95.5137 223.539 95.9251C222.775 96.3365 221.925 96.5643 221.058 96.5902C221.03 96.5901 221.003 96.5957 220.978 96.6067C220.953 96.6177 220.931 96.6339 220.913 96.6541C220.894 96.6744 220.88 96.6983 220.872 96.7242C220.864 96.7502 220.861 96.7776 220.864 96.8048C220.863 96.8321 220.869 96.8591 220.88 96.8841C220.891 96.9091 220.907 96.9315 220.927 96.9498C220.948 96.9681 220.972 96.982 220.997 96.9904C221.023 96.9989 221.051 97.0018 221.078 96.9989Z" fill="#263238"/>
<path d="M213.425 84.5139C213.355 84.5206 213.284 84.5081 213.221 84.4778C213.157 84.4474 213.103 84.4003 213.064 84.3415C213.025 84.2827 213.003 84.2144 213 84.144C212.997 84.0736 213.014 84.0037 213.047 83.9418C213.337 83.4109 213.749 82.9574 214.251 82.6195C214.752 82.2817 215.328 82.0694 215.928 82.0006C215.978 81.9978 216.028 82.0049 216.075 82.0214C216.122 82.0379 216.165 82.0635 216.202 82.0967C216.239 82.1299 216.269 82.1701 216.29 82.215C216.312 82.2598 216.324 82.3085 216.327 82.3582C216.33 82.4578 216.294 82.5547 216.228 82.6289C216.161 82.7031 216.069 82.7488 215.969 82.7566C215.496 82.8247 215.046 83.0025 214.654 83.2757C214.262 83.5488 213.939 83.9099 213.711 84.33C213.681 84.3804 213.639 84.4231 213.59 84.455C213.54 84.4868 213.484 84.507 213.425 84.5139Z" fill="#263238"/>
<path d="M382.439 68.1021C382.727 68.7569 382.525 69.4534 382.074 69.614C381.624 69.7746 381.076 69.3457 380.83 68.6727C380.584 67.9996 380.755 67.3168 381.195 67.1608C381.635 67.0048 382.189 67.4186 382.439 68.1021Z" fill="#263238"/>
<path d="M379.104 70.534C379.523 72.2429 379.703 74.0014 379.639 75.7596C380.092 75.7639 380.54 75.669 380.952 75.4816C381.364 75.2942 381.73 75.019 382.025 74.6751L379.104 70.534Z" fill="#D89090"/>
<path d="M383.925 64.7708C383.856 64.8068 383.78 64.8242 383.702 64.8213C383.625 64.8183 383.549 64.7951 383.484 64.7539C383.047 64.4534 382.546 64.259 382.021 64.1862C381.496 64.1133 380.962 64.1639 380.46 64.3341C380.358 64.3789 380.242 64.3813 380.138 64.3409C380.034 64.3005 379.951 64.2204 379.906 64.1184C379.861 64.0164 379.859 63.9008 379.899 63.797C379.94 63.6932 380.02 63.6097 380.122 63.5649C380.75 63.3338 381.425 63.2567 382.09 63.3402C382.754 63.4236 383.389 63.6652 383.941 64.0446C383.989 64.0739 384.03 64.1124 384.063 64.1579C384.095 64.2034 384.119 64.255 384.131 64.3096C384.143 64.3642 384.145 64.4207 384.135 64.4759C384.125 64.531 384.105 64.5837 384.074 64.6308C384.032 64.6849 383.982 64.7322 383.925 64.7708Z" fill="#263238"/>
<path d="M385.953 77.886C386.368 77.6897 386.707 77.3444 386.943 76.8791C387.178 76.4139 387.303 75.8426 387.307 75.2135C387.306 75.1954 387.303 75.1764 387.297 75.1577C387.291 75.139 387.283 75.121 387.272 75.1048C387.261 75.0886 387.249 75.0746 387.235 75.0636C387.221 75.0526 387.207 75.0449 387.193 75.041C387.178 75.0356 387.164 75.0341 387.151 75.0364C387.138 75.0388 387.126 75.045 387.116 75.0546C387.107 75.0642 387.1 75.0771 387.095 75.0924C387.091 75.1078 387.089 75.1252 387.09 75.1436C387.078 75.7222 386.956 76.2466 386.736 76.6753C386.516 77.104 386.203 77.4252 385.822 77.6135C385.81 77.6188 385.8 77.6279 385.792 77.6403C385.784 77.6526 385.779 77.668 385.777 77.6853C385.774 77.7026 385.775 77.7215 385.779 77.7407C385.783 77.7599 385.79 77.7791 385.799 77.7969C385.807 77.8154 385.818 77.8326 385.83 77.8473C385.843 77.862 385.857 77.874 385.871 77.8824C385.886 77.8908 385.9 77.8955 385.914 77.8961C385.929 77.8967 385.942 77.8933 385.953 77.886Z" fill="#263238"/>
</g>
<defs>
<clipPath id="clip0_1951_14475">
<rect width="500" height="320" fill="white"/>
</clipPath>
</defs>
</svg>
