<svg width="680" height="430" viewBox="0 0 680 430" fill="none" xmlns="http://www.w3.org/2000/svg">
<g clip-path="url(#clip0_556_11446)">
<rect width="59.8366" height="60.1667" rx="4" transform="matrix(0.906705 -0.4217 0.423514 0.905858 83.4863 219.884)" fill="#5E66A7"/>
<path d="M115.679 255.876C115.087 254.623 115.023 253.189 115.5 251.89C115.977 250.591 116.956 249.534 118.222 248.95L143.995 237.069" stroke="#FEFEFF" stroke-width="2" stroke-linecap="round" stroke-linejoin="round"/>
<path d="M104.864 220.619L130.625 208.747L148.45 246.527L122.69 258.398C121.425 258.981 119.977 259.043 118.664 258.57C117.351 258.096 116.282 257.127 115.691 255.874L102.322 227.539C101.731 226.287 101.667 224.854 102.144 223.556C102.62 222.258 103.599 221.202 104.864 220.619Z" stroke="#FEFEFF" stroke-width="2" stroke-linecap="round" stroke-linejoin="round"/>
<rect width="59.8922" height="60.1077" rx="4" transform="matrix(0.985022 0.172414 -0.17489 0.984585 431.092 20.0002)" fill="#5E66A7"/>
<path d="M446.817 60.246L461.294 62.7401M445.704 66.4142L452.942 67.6613M473.357 37.2584L444.402 32.2703C443.854 32.1758 443.289 32.3018 442.831 32.6205C442.374 32.9393 442.061 33.4247 441.963 33.97L435.284 70.9791C435.185 71.5244 435.309 72.0849 435.627 72.5373C435.945 72.9897 436.432 73.2969 436.981 73.3914L465.936 78.3796C466.484 78.4741 467.049 78.3481 467.507 78.0293C467.964 77.7106 468.276 77.2251 468.375 76.6798L475.054 39.6708C475.152 39.1255 475.029 38.565 474.711 38.1126C474.392 37.6602 473.905 37.3529 473.357 37.2584Z" stroke="#FEFEFF" stroke-width="2" stroke-linecap="round" stroke-linejoin="round"/>
<path d="M463.402 45.0959L453.632 51.905L450.233 47.0732" stroke="#FEFEFF" stroke-width="2" stroke-linecap="round" stroke-linejoin="round"/>
<rect width="59.8922" height="60.1077" rx="4" transform="matrix(0.985022 0.172414 -0.17489 0.984585 24.0938 322)" fill="#5E66A7"/>
<path d="M45.1469 377.304C56.5875 379.284 67.5139 371.69 69.5525 360.341C71.5911 348.991 63.9697 338.186 52.529 336.206C41.0884 334.226 30.162 341.82 28.1234 353.17C26.0848 364.519 33.7062 375.324 45.1469 377.304Z" stroke="#FEFEFF" stroke-width="2" stroke-linecap="round" stroke-linejoin="round"/>
<path d="M43.7355 349.519C45.0257 342.333 56.4041 344.303 55.1139 351.49C54.1923 356.623 49.2046 354.701 48.0987 360.861M46.6205 369.095L46.6452 369.076" stroke="#FEFEFF" stroke-width="2" stroke-linecap="round" stroke-linejoin="round"/>
<path fill-rule="evenodd" clip-rule="evenodd" d="M463.416 132.322C530.106 167.945 594.081 224.172 583.078 298.975C571.979 374.426 495.705 416.29 420.135 426.546C351.967 435.798 287.867 402.987 252.805 343.8C209.236 270.252 173.829 173.158 234.151 112.588C293.992 52.5005 388.617 92.366 463.416 132.322Z" fill="#F8FFA5" fill-opacity="0.7"/>
<path d="M611.453 224.223H209.834C208.129 224.223 206.493 224.896 205.288 226.095C204.082 227.294 203.404 228.92 203.404 230.616C203.404 232.312 204.082 233.938 205.288 235.137C206.493 236.336 208.129 237.009 209.834 237.009H221.21V389.957C221.21 391.653 221.887 393.279 223.093 394.478C224.299 395.677 225.935 396.351 227.64 396.351C229.345 396.351 230.981 395.677 232.186 394.478C233.392 393.279 234.07 391.653 234.07 389.957L234.167 237.009H586.228V389.957C586.228 391.653 586.905 393.279 588.111 394.478C589.317 395.677 590.953 396.351 592.658 396.351C594.363 396.351 595.999 395.677 597.204 394.478C598.41 393.279 599.088 391.653 599.088 389.957V240.38L600.958 237.009H611.453C613.158 237.009 614.794 236.336 615.999 235.137C617.205 233.938 617.883 232.312 617.883 230.616C617.883 228.92 617.205 227.294 615.999 226.095C614.794 224.896 613.158 224.223 611.453 224.223Z" fill="#CCCCCC"/>
<path d="M432.493 227.569H310.838C308.482 227.566 306.224 226.635 304.558 224.978C302.893 223.322 301.956 221.077 301.953 218.735V152.137C301.956 149.794 302.893 147.549 304.558 145.893C306.224 144.237 308.482 143.305 310.838 143.302H432.493C434.848 143.305 437.107 144.237 438.772 145.893C440.438 147.549 441.375 149.794 441.378 152.137V218.735C441.375 221.077 440.438 223.322 438.772 224.978C437.107 226.635 434.848 227.566 432.493 227.569Z" fill="#2C3475"/>
<path d="M432.494 150.101H310.84C310.298 150.103 309.778 150.317 309.394 150.699C309.01 151.081 308.794 151.598 308.793 152.137V218.736C308.794 219.276 309.01 219.793 309.394 220.175C309.778 220.556 310.298 220.771 310.84 220.772H432.494C433.036 220.771 433.557 220.556 433.94 220.175C434.324 219.793 434.54 219.276 434.541 218.736V152.137C434.54 151.598 434.324 151.081 433.94 150.699C433.557 150.317 433.037 150.103 432.494 150.101Z" fill="#E7E7FF"/>
<path d="M382.043 197.253C382.043 197.253 367.48 193.916 359.47 200.033C351.46 206.151 369.664 220.054 369.664 220.054L382.043 197.253Z" fill="#2C3475"/>
<path d="M372.378 190.948C379.965 190.948 386.115 184.833 386.115 177.289C386.115 169.745 379.965 163.63 372.378 163.63C364.791 163.63 358.641 169.745 358.641 177.289C358.641 184.833 364.791 190.948 372.378 190.948Z" fill="#FFB8B8"/>
<path d="M361.757 158.115C362.673 156.569 364.001 155.304 365.594 154.462C367.187 153.619 368.984 153.23 370.785 153.339C372.669 153.574 374.508 154.085 376.241 154.857L385.221 158.34C387.545 159.242 390.09 160.346 391.099 162.614C392.035 164.72 391.336 167.151 390.629 169.343L387.27 179.763C386.897 177.404 386.259 175.095 385.366 172.88C384.458 170.649 382.818 168.79 380.712 167.604C378.379 166.414 375.63 166.439 373.011 166.564C369.303 166.741 365.27 167.21 362.635 169.811C361.236 171.289 360.288 173.13 359.9 175.122C359.519 177.103 359.327 179.116 359.327 181.133C357.806 178.534 356.525 175.803 355.499 172.974C354.656 170.868 354.175 168.635 354.077 166.37C353.989 164.085 354.751 161.848 356.218 160.087C356.963 159.227 357.935 158.591 359.024 158.25C360.113 157.909 361.276 157.877 362.382 158.159L361.757 158.115Z" fill="#2F2E41"/>
<path d="M405.182 209.097C405.053 208.635 404.79 208.222 404.426 207.909C404.061 207.596 403.612 207.396 403.135 207.336C403.103 207.314 403.07 207.295 403.036 207.277L382.528 195.85C381.942 195.523 381.253 195.434 380.603 195.6C379.953 195.767 379.392 196.176 379.038 196.743L373.429 205.772L364.981 197.372L364.847 197.239C364.413 196.808 363.841 196.542 363.23 196.489C362.619 196.436 362.009 196.599 361.507 196.948L344.653 208.684C344.623 208.684 344.593 208.694 344.564 208.694C343.757 208.827 343.02 209.23 342.475 209.837C341.93 210.443 341.61 211.216 341.566 212.028L341.131 220.772H408.437L405.182 209.097Z" fill="#9098D9"/>
<path d="M442.745 219.414H429.759C429.759 219.053 429.615 218.708 429.359 218.453C429.102 218.198 428.755 218.055 428.392 218.055H424.292C423.929 218.055 423.581 218.198 423.325 218.453C423.069 218.708 422.925 219.053 422.925 219.414H418.824C418.824 219.053 418.68 218.708 418.424 218.453C418.167 218.198 417.82 218.055 417.457 218.055H413.356C412.994 218.055 412.646 218.198 412.39 218.453C412.133 218.708 411.989 219.053 411.989 219.414H407.889C407.889 219.053 407.745 218.708 407.488 218.453C407.232 218.198 406.884 218.055 406.522 218.055H402.421C402.059 218.055 401.711 218.198 401.455 218.453C401.198 218.708 401.054 219.053 401.054 219.414H396.953C396.953 219.053 396.809 218.708 396.553 218.453C396.297 218.198 395.949 218.055 395.587 218.055H391.486C391.123 218.055 390.776 218.198 390.519 218.453C390.263 218.708 390.119 219.053 390.119 219.414H386.018C386.018 219.053 385.874 218.708 385.618 218.453C385.362 218.198 385.014 218.055 384.651 218.055H380.551C380.188 218.055 379.84 218.198 379.584 218.453C379.328 218.708 379.184 219.053 379.184 219.414H375.083C375.083 219.053 374.939 218.708 374.683 218.453C374.426 218.198 374.079 218.055 373.716 218.055H369.615C369.253 218.055 368.905 218.198 368.649 218.453C368.392 218.708 368.248 219.053 368.248 219.414H364.148C364.148 219.053 364.004 218.708 363.747 218.453C363.491 218.198 363.143 218.055 362.781 218.055H358.68C358.318 218.055 357.97 218.198 357.714 218.453C357.457 218.708 357.313 219.053 357.313 219.414H353.212C353.212 219.053 353.068 218.708 352.812 218.453C352.556 218.198 352.208 218.055 351.846 218.055H347.745C347.382 218.055 347.035 218.198 346.778 218.453C346.522 218.708 346.378 219.053 346.378 219.414H342.277C342.277 219.053 342.133 218.708 341.877 218.453C341.62 218.198 341.273 218.055 340.91 218.055H336.81C336.447 218.055 336.099 218.198 335.843 218.453C335.587 218.708 335.443 219.053 335.443 219.414H331.342C331.342 219.053 331.198 218.708 330.942 218.453C330.685 218.198 330.338 218.055 329.975 218.055H325.874C325.512 218.055 325.164 218.198 324.908 218.453C324.651 218.708 324.507 219.053 324.507 219.414H320.407C320.407 219.053 320.263 218.708 320.006 218.453C319.75 218.198 319.402 218.055 319.04 218.055H314.939C314.577 218.055 314.229 218.198 313.973 218.453C313.716 218.708 313.572 219.053 313.572 219.414H300.587C299.5 219.416 298.459 219.846 297.691 220.61C296.923 221.375 296.492 222.411 296.492 223.491C296.492 224.572 296.923 225.608 297.691 226.372C298.459 227.137 299.5 227.567 300.587 227.569H442.745C443.832 227.569 444.875 227.139 445.644 226.374C446.414 225.61 446.846 224.573 446.846 223.491C446.846 222.41 446.414 221.373 445.644 220.608C444.875 219.843 443.832 219.414 442.745 219.414Z" fill="#2C3475"/>
<path d="M279.449 195.735V222.809H211.231C209.403 222.872 207.582 222.569 205.874 221.917C204.167 221.266 202.609 220.279 201.294 219.015C199.978 217.752 198.932 216.238 198.218 214.564C197.503 212.89 197.135 211.091 197.135 209.272C197.135 207.454 197.503 205.654 198.218 203.98C198.932 202.306 199.978 200.793 201.294 199.529C202.609 198.266 204.167 197.279 205.874 196.627C207.582 195.975 209.403 195.672 211.231 195.735H279.449Z" fill="#F2F2F2"/>
<path d="M281.126 222.601C281.126 222.877 281.016 223.142 280.819 223.337C280.623 223.532 280.357 223.642 280.079 223.642H210.017C206.212 223.642 202.563 222.139 199.872 219.464C197.182 216.788 195.67 213.16 195.67 209.376C195.67 205.593 197.182 201.964 199.872 199.289C202.563 196.613 206.212 195.11 210.017 195.11H280.079C280.357 195.11 280.623 195.22 280.819 195.415C281.016 195.611 281.126 195.875 281.126 196.152C281.126 196.428 281.016 196.693 280.819 196.888C280.623 197.083 280.357 197.193 280.079 197.193H210.017C206.77 197.196 203.656 198.481 201.36 200.765C199.065 203.05 197.775 206.147 197.775 209.376C197.775 212.606 199.065 215.703 201.36 217.987C203.656 220.272 206.77 221.557 210.017 221.56H280.079C280.357 221.56 280.623 221.669 280.819 221.865C281.016 222.06 281.126 222.325 281.126 222.601Z" fill="#FCF670"/>
<path d="M279.449 201.983H206.141C206.113 201.983 206.086 201.978 206.06 201.967C206.034 201.957 206.011 201.942 205.992 201.922C205.972 201.903 205.956 201.88 205.946 201.855C205.935 201.829 205.93 201.802 205.93 201.775C205.93 201.747 205.935 201.72 205.946 201.695C205.956 201.669 205.972 201.646 205.992 201.627C206.011 201.608 206.034 201.592 206.06 201.582C206.086 201.571 206.113 201.566 206.141 201.566H279.449C279.504 201.567 279.557 201.589 279.596 201.628C279.635 201.667 279.657 201.72 279.657 201.775C279.657 201.83 279.635 201.882 279.596 201.921C279.557 201.96 279.504 201.983 279.449 201.983Z" fill="#CCCCCC"/>
<path d="M279.449 206.981H206.141C206.113 206.982 206.086 206.976 206.06 206.966C206.034 206.956 206.011 206.94 205.992 206.921C205.972 206.902 205.956 206.879 205.946 206.853C205.935 206.828 205.93 206.801 205.93 206.773C205.93 206.746 205.935 206.719 205.946 206.693C205.956 206.668 205.972 206.645 205.992 206.625C206.011 206.606 206.034 206.591 206.06 206.58C206.086 206.57 206.113 206.565 206.141 206.565H279.449C279.504 206.565 279.557 206.587 279.596 206.626C279.635 206.665 279.657 206.718 279.657 206.773C279.657 206.828 279.635 206.881 279.596 206.92C279.557 206.959 279.504 206.981 279.449 206.981Z" fill="#CCCCCC"/>
<path d="M279.449 211.98H206.141C206.113 211.98 206.086 211.974 206.06 211.964C206.034 211.954 206.011 211.938 205.992 211.919C205.972 211.9 205.956 211.877 205.946 211.851C205.935 211.826 205.93 211.799 205.93 211.771C205.93 211.744 205.935 211.717 205.946 211.691C205.956 211.666 205.972 211.643 205.992 211.623C206.011 211.604 206.034 211.589 206.06 211.578C206.086 211.568 206.113 211.563 206.141 211.563H279.449C279.504 211.563 279.557 211.585 279.596 211.624C279.635 211.664 279.657 211.716 279.657 211.771C279.657 211.826 279.635 211.879 279.596 211.918C279.557 211.957 279.504 211.979 279.449 211.98Z" fill="#CCCCCC"/>
<path d="M279.449 216.978H206.141C206.113 216.978 206.086 216.973 206.06 216.962C206.034 216.952 206.011 216.936 205.992 216.917C205.972 216.898 205.956 216.875 205.946 216.849C205.935 216.824 205.93 216.797 205.93 216.769C205.93 216.742 205.935 216.715 205.946 216.689C205.956 216.664 205.972 216.641 205.992 216.622C206.011 216.602 206.034 216.587 206.06 216.576C206.086 216.566 206.113 216.561 206.141 216.561H279.449C279.504 216.561 279.557 216.584 279.596 216.623C279.635 216.662 279.657 216.714 279.657 216.769C279.657 216.824 279.635 216.877 279.596 216.916C279.557 216.955 279.504 216.977 279.449 216.978Z" fill="#CCCCCC"/>
<path d="M266.59 167.211V194.285H198.372C196.544 194.349 194.722 194.045 193.015 193.393C191.308 192.742 189.75 191.755 188.434 190.491C187.119 189.228 186.073 187.714 185.358 186.04C184.644 184.367 184.275 182.567 184.275 180.748C184.275 178.93 184.644 177.13 185.358 175.456C186.073 173.782 187.119 172.269 188.434 171.005C189.75 169.742 191.308 168.755 193.015 168.103C194.722 167.451 196.544 167.148 198.372 167.211H266.59Z" fill="#F2F2F2"/>
<path d="M268.265 194.077C268.265 194.353 268.154 194.618 267.958 194.813C267.762 195.008 267.495 195.118 267.217 195.118H197.156C195.272 195.118 193.406 194.749 191.665 194.032C189.925 193.315 188.343 192.264 187.011 190.94C185.679 189.615 184.622 188.042 183.901 186.312C183.18 184.581 182.809 182.726 182.809 180.852C182.809 178.979 183.18 177.124 183.901 175.393C184.622 173.662 185.679 172.089 187.011 170.765C188.343 169.44 189.925 168.389 191.665 167.672C193.406 166.955 195.272 166.586 197.156 166.586H267.217C267.495 166.586 267.762 166.696 267.958 166.891C268.154 167.087 268.265 167.351 268.265 167.628C268.265 167.904 268.154 168.169 267.958 168.364C267.762 168.559 267.495 168.669 267.217 168.669H197.156C193.908 168.672 190.795 169.957 188.499 172.241C186.204 174.526 184.914 177.623 184.914 180.852C184.914 184.082 186.204 187.179 188.499 189.463C190.795 191.748 193.908 193.033 197.156 193.036H267.217C267.495 193.036 267.762 193.145 267.958 193.341C268.154 193.536 268.265 193.801 268.265 194.077Z" fill="#5E66A7"/>
<path d="M266.589 173.459H193.281C193.254 173.459 193.226 173.454 193.201 173.444C193.175 173.433 193.152 173.418 193.132 173.399C193.113 173.379 193.097 173.356 193.086 173.331C193.076 173.305 193.07 173.278 193.07 173.251C193.07 173.223 193.076 173.196 193.086 173.171C193.097 173.145 193.113 173.122 193.132 173.103C193.152 173.084 193.175 173.068 193.201 173.058C193.226 173.048 193.254 173.042 193.281 173.042H266.589C266.644 173.043 266.697 173.065 266.736 173.104C266.775 173.143 266.797 173.196 266.797 173.251C266.797 173.306 266.775 173.359 266.736 173.398C266.697 173.437 266.644 173.459 266.589 173.459Z" fill="#CCCCCC"/>
<path d="M266.589 178.457H193.281C193.254 178.457 193.226 178.452 193.201 178.442C193.175 178.431 193.152 178.416 193.132 178.397C193.113 178.377 193.097 178.354 193.086 178.329C193.076 178.303 193.07 178.276 193.07 178.249C193.07 178.221 193.076 178.194 193.086 178.169C193.097 178.143 193.113 178.12 193.132 178.101C193.152 178.082 193.175 178.066 193.201 178.056C193.226 178.046 193.254 178.04 193.281 178.041H266.589C266.644 178.041 266.697 178.063 266.736 178.102C266.775 178.141 266.797 178.194 266.797 178.249C266.797 178.304 266.775 178.357 266.736 178.396C266.697 178.435 266.644 178.457 266.589 178.457Z" fill="#CCCCCC"/>
<path d="M266.589 183.456H193.281C193.254 183.456 193.226 183.451 193.201 183.44C193.175 183.43 193.152 183.414 193.132 183.395C193.113 183.376 193.097 183.353 193.086 183.327C193.076 183.302 193.07 183.275 193.07 183.247C193.07 183.22 193.076 183.193 193.086 183.167C193.097 183.142 193.113 183.119 193.132 183.1C193.152 183.08 193.175 183.065 193.201 183.054C193.226 183.044 193.254 183.039 193.281 183.039H266.589C266.644 183.039 266.697 183.062 266.736 183.101C266.775 183.14 266.797 183.192 266.797 183.247C266.797 183.302 266.775 183.355 266.736 183.394C266.697 183.433 266.644 183.455 266.589 183.456Z" fill="#CCCCCC"/>
<path d="M266.589 188.454H193.281C193.254 188.454 193.226 188.449 193.201 188.438C193.175 188.428 193.152 188.413 193.132 188.393C193.113 188.374 193.097 188.351 193.086 188.325C193.076 188.3 193.07 188.273 193.07 188.245C193.07 188.218 193.076 188.191 193.086 188.165C193.097 188.14 193.113 188.117 193.132 188.098C193.152 188.078 193.175 188.063 193.201 188.053C193.226 188.042 193.254 188.037 193.281 188.037H266.589C266.644 188.037 266.697 188.06 266.736 188.099C266.775 188.138 266.797 188.19 266.797 188.245C266.797 188.3 266.775 188.353 266.736 188.392C266.697 188.431 266.644 188.453 266.589 188.454Z" fill="#CCCCCC"/>
<path d="M345.945 319.043V295.437C345.945 294.393 345.528 293.392 344.786 292.655C344.044 291.917 343.038 291.502 341.988 291.502H251.971C250.921 291.502 249.915 291.917 249.173 292.655C248.431 293.392 248.014 294.393 248.014 295.437V319.043H345.945Z" fill="#CCCCCC"/>
<path d="M345.945 327.895H248.014V358.386H345.945V327.895Z" fill="#CCCCCC"/>
<path d="M248.014 367.239V390.845C248.014 391.888 248.431 392.889 249.173 393.627C249.915 394.365 250.921 394.779 251.971 394.779H341.988C343.038 394.779 344.044 394.365 344.786 393.627C345.528 392.889 345.945 391.888 345.945 390.845V367.239H248.014Z" fill="#CCCCCC"/>
<path d="M296.485 309.207C298.124 309.207 299.453 307.885 299.453 306.256C299.453 304.626 298.124 303.305 296.485 303.305C294.846 303.305 293.518 304.626 293.518 306.256C293.518 307.885 294.846 309.207 296.485 309.207Z" fill="#FCF670"/>
<path d="M296.485 348.55C298.124 348.55 299.453 347.229 299.453 345.599C299.453 343.97 298.124 342.648 296.485 342.648C294.846 342.648 293.518 343.97 293.518 345.599C293.518 347.229 294.846 348.55 296.485 348.55Z" fill="#FCF670"/>
<path d="M296.647 387.061C298.286 387.061 299.615 385.74 299.615 384.11C299.615 382.48 298.286 381.159 296.647 381.159C295.008 381.159 293.68 382.48 293.68 384.11C293.68 385.74 295.008 387.061 296.647 387.061Z" fill="#FCF670"/>
<path d="M334.844 264.586V291.66H266.626C264.798 291.724 262.976 291.42 261.269 290.768C259.562 290.117 258.004 289.13 256.688 287.866C255.373 286.603 254.327 285.089 253.612 283.415C252.898 281.742 252.529 279.942 252.529 278.123C252.529 276.305 252.898 274.505 253.612 272.831C254.327 271.157 255.373 269.644 256.688 268.38C258.004 267.117 259.562 266.13 261.269 265.478C262.976 264.826 264.798 264.523 266.626 264.586H334.844Z" fill="#F2F2F2"/>
<path d="M336.519 291.452C336.519 291.728 336.408 291.993 336.212 292.188C336.016 292.383 335.749 292.493 335.472 292.493H265.41C263.525 292.495 261.658 292.127 259.916 291.411C258.174 290.694 256.591 289.644 255.257 288.319C253.924 286.994 252.866 285.421 252.144 283.689C251.422 281.958 251.051 280.102 251.051 278.227C251.051 276.353 251.422 274.497 252.144 272.765C252.866 271.034 253.924 269.46 255.257 268.136C256.591 266.811 258.174 265.76 259.916 265.044C261.658 264.328 263.525 263.96 265.41 263.961H335.472C335.749 263.961 336.016 264.071 336.212 264.266C336.408 264.462 336.519 264.727 336.519 265.003C336.519 265.279 336.408 265.544 336.212 265.739C336.016 265.934 335.749 266.044 335.472 266.044H265.41C262.162 266.047 259.049 267.332 256.753 269.616C254.458 271.901 253.168 274.998 253.168 278.227C253.168 281.457 254.458 284.554 256.753 286.838C259.049 289.123 262.162 290.408 265.41 290.411H335.472C335.749 290.411 336.016 290.52 336.212 290.716C336.408 290.911 336.519 291.176 336.519 291.452Z" fill="#5E66A7"/>
<path d="M334.845 270.834H261.537C261.509 270.834 261.482 270.829 261.456 270.819C261.431 270.808 261.408 270.793 261.388 270.774C261.368 270.754 261.353 270.731 261.342 270.706C261.332 270.68 261.326 270.653 261.326 270.626C261.326 270.598 261.332 270.571 261.342 270.546C261.353 270.52 261.368 270.497 261.388 270.478C261.408 270.459 261.431 270.443 261.456 270.433C261.482 270.423 261.509 270.417 261.537 270.417H334.845C334.9 270.418 334.953 270.44 334.992 270.479C335.031 270.518 335.053 270.571 335.053 270.626C335.053 270.681 335.031 270.734 334.992 270.773C334.953 270.812 334.9 270.834 334.845 270.834Z" fill="#CCCCCC"/>
<path d="M334.845 275.833H261.537C261.509 275.833 261.482 275.827 261.456 275.817C261.431 275.807 261.408 275.791 261.388 275.772C261.368 275.753 261.353 275.73 261.342 275.704C261.332 275.679 261.326 275.652 261.326 275.624C261.326 275.597 261.332 275.57 261.342 275.544C261.353 275.519 261.368 275.496 261.388 275.476C261.408 275.457 261.431 275.442 261.456 275.431C261.482 275.421 261.509 275.416 261.537 275.416H334.845C334.9 275.416 334.953 275.438 334.992 275.477C335.031 275.517 335.053 275.569 335.053 275.624C335.053 275.679 335.031 275.732 334.992 275.771C334.953 275.81 334.9 275.832 334.845 275.833Z" fill="#CCCCCC"/>
<path d="M334.845 280.831H261.537C261.509 280.831 261.482 280.826 261.456 280.815C261.431 280.805 261.408 280.789 261.388 280.77C261.368 280.751 261.353 280.728 261.342 280.702C261.332 280.677 261.326 280.65 261.326 280.622C261.326 280.595 261.332 280.568 261.342 280.542C261.353 280.517 261.368 280.494 261.388 280.475C261.408 280.455 261.431 280.44 261.456 280.429C261.482 280.419 261.509 280.414 261.537 280.414H334.845C334.9 280.414 334.953 280.437 334.992 280.476C335.031 280.515 335.053 280.567 335.053 280.622C335.053 280.677 335.031 280.73 334.992 280.769C334.953 280.808 334.9 280.83 334.845 280.831Z" fill="#CCCCCC"/>
<path d="M334.845 285.829H261.537C261.509 285.829 261.482 285.824 261.456 285.814C261.431 285.803 261.408 285.788 261.388 285.769C261.368 285.749 261.353 285.726 261.342 285.701C261.332 285.676 261.326 285.648 261.326 285.621C261.326 285.593 261.332 285.566 261.342 285.541C261.353 285.515 261.368 285.492 261.388 285.473C261.408 285.454 261.431 285.438 261.456 285.428C261.482 285.418 261.509 285.412 261.537 285.413H334.845C334.9 285.413 334.953 285.435 334.992 285.474C335.031 285.513 335.053 285.566 335.053 285.621C335.053 285.676 335.031 285.729 334.992 285.768C334.953 285.807 334.9 285.829 334.845 285.829Z" fill="#CCCCCC"/>
<path d="M495.576 215.765H464.495C464.2 215.765 463.909 215.833 463.645 215.962L455.8 219.867C455.542 219.976 455.322 220.158 455.167 220.391C455.012 220.624 454.93 220.896 454.93 221.175C454.93 221.454 455.012 221.727 455.167 221.96C455.322 222.192 455.542 222.374 455.8 222.483L463.645 226.388C463.909 226.518 464.2 226.585 464.495 226.585H495.576C496.004 226.61 496.425 226.465 496.747 226.184C497.07 225.902 497.267 225.506 497.298 225.08V217.27C497.267 216.845 497.07 216.448 496.747 216.167C496.425 215.885 496.004 215.741 495.576 215.765Z" fill="#3F3D56"/>
<path d="M497.296 217.271V225.081C497.266 225.506 497.069 225.903 496.746 226.184C496.424 226.466 496.003 226.61 495.575 226.585H489.383V215.766H495.575C496.003 215.741 496.424 215.885 496.746 216.167C497.069 216.449 497.266 216.845 497.296 217.271Z" fill="#FCF670"/>
<path d="M495.34 157.34C496.748 156.736 498.268 156.435 499.801 156.456C501.334 156.476 502.846 156.819 504.237 157.461C505.627 158.103 506.866 159.03 507.871 160.182C508.876 161.333 509.626 162.682 510.07 164.142C510.208 164.604 510.314 165.076 510.387 165.553L553.85 186.984L563.909 180.356L576.424 194.682L561.066 207.085C559.219 208.565 556.941 209.413 554.571 209.504C552.201 209.595 549.864 208.923 547.908 207.589L503.81 177.267C503.482 177.405 503.147 177.527 502.806 177.631C501.338 178.073 499.793 178.201 498.272 178.007C496.751 177.813 495.288 177.302 493.98 176.507C492.671 175.712 491.547 174.651 490.679 173.394C489.812 172.136 489.221 170.711 488.947 169.211C488.865 168.775 488.812 168.335 488.786 167.893C488.664 165.679 489.226 163.481 490.398 161.594C491.57 159.708 493.294 158.223 495.34 157.34Z" fill="#FFB8B8"/>
<path d="M585.867 289.288H538.375C538.375 290.645 489.429 291.747 489.429 291.747C488.661 292.322 487.96 292.982 487.342 293.714C485.483 295.918 484.467 298.705 484.473 301.582V303.55C484.474 306.81 485.777 309.937 488.096 312.242C490.414 314.548 493.559 315.843 496.838 315.844H585.867C589.145 315.842 592.289 314.545 594.607 312.24C596.925 309.935 598.229 306.809 598.232 303.55V301.582C598.227 298.323 596.923 295.198 594.605 292.894C592.287 290.589 589.145 289.292 585.867 289.288Z" fill="#3F3D56"/>
<path d="M534.209 397.978H547.068V315.356H534.209V397.978Z" fill="#3F3D56"/>
<path d="M497.605 397.528C497.605 398.91 517.092 398.063 541.131 398.063C565.169 398.063 584.656 398.91 584.656 397.528C584.656 396.147 565.169 385.191 541.131 385.191C517.092 385.191 497.605 396.147 497.605 397.528Z" fill="#3F3D56"/>
<path d="M509.217 387.845L497.09 387.844L491.32 356.568L509.219 356.569L509.217 387.845Z" fill="#FFB8B8"/>
<path d="M512.309 399.533L473.205 399.532V399.04C473.205 397.053 473.599 395.085 474.364 393.248C475.129 391.412 476.25 389.744 477.663 388.339C479.076 386.933 480.754 385.819 482.601 385.058C484.448 384.298 486.427 383.906 488.426 383.906H488.427L512.31 383.907L512.309 399.533Z" fill="#2F2E41"/>
<path d="M491.079 368.45L466.901 314.542C464.883 309.998 464.66 304.865 466.276 300.165C467.893 295.465 471.231 291.544 475.625 289.181L528.066 261.22L551.996 259.196L574.07 257.201L574.229 257.469C574.433 257.811 579.179 265.962 575.971 274.9C573.537 281.679 567.207 286.974 557.157 290.639C533.699 299.191 506.6 306.501 496.038 309.246C495.571 309.365 495.135 309.581 494.758 309.879C494.381 310.177 494.071 310.552 493.85 310.977C493.629 311.398 493.497 311.86 493.464 312.333C493.43 312.807 493.496 313.283 493.656 313.73L516.118 363.908C516.352 364.544 516.437 365.225 516.364 365.899C516.292 366.573 516.065 367.222 515.701 367.795C515.337 368.368 514.846 368.85 514.265 369.204C513.683 369.558 513.028 369.775 512.349 369.838L495.566 371.053C495.423 371.066 495.282 371.073 495.14 371.073C494.281 371.073 493.44 370.825 492.719 370.359C491.998 369.894 491.428 369.231 491.079 368.45Z" fill="#2C3475"/>
<path d="M515.151 387.844L503.024 387.843L497.254 356.568L515.153 356.569L515.151 387.844Z" fill="#FFB8B8"/>
<path d="M518.245 399.533L479.141 399.532V399.04C479.141 397.052 479.534 395.084 480.299 393.248C481.064 391.412 482.185 389.744 483.599 388.339C485.012 386.933 486.69 385.819 488.536 385.058C490.383 384.297 492.362 383.906 494.361 383.906H494.362L518.245 383.907L518.245 399.533Z" fill="#2F2E41"/>
<path d="M498.002 371.401L473.825 317.492C471.807 312.949 471.583 307.816 473.2 303.116C474.817 298.416 478.154 294.494 482.549 292.131L534.99 264.17L558.92 262.146L580.994 260.151L581.153 260.419C581.357 260.761 586.103 268.912 582.895 277.85C580.461 284.63 574.131 289.925 564.081 293.59C540.623 302.142 513.523 309.452 502.961 312.197C502.495 312.316 502.058 312.531 501.681 312.83C501.304 313.128 500.995 313.502 500.774 313.928C500.552 314.349 500.421 314.81 500.387 315.284C500.354 315.758 500.419 316.234 500.58 316.681L523.041 366.858C523.276 367.495 523.36 368.176 523.288 368.85C523.216 369.524 522.989 370.173 522.625 370.746C522.261 371.319 521.77 371.801 521.188 372.155C520.607 372.509 519.952 372.726 519.273 372.789L502.49 374.004C502.347 374.017 502.205 374.024 502.064 374.024C501.205 374.024 500.364 373.776 499.643 373.31C498.922 372.845 498.352 372.181 498.002 371.401Z" fill="#2C3475"/>
<path d="M485.952 206.718C475.793 193.281 467.761 178.377 462.137 162.524C461.811 161.575 461.834 160.543 462.202 159.61C462.57 158.677 463.259 157.904 464.147 157.429L498.913 138.907C499.475 138.605 500.099 138.434 500.738 138.409C501.377 138.383 502.013 138.502 502.598 138.758C503.194 139.016 503.723 139.405 504.145 139.896C504.567 140.388 504.871 140.969 505.033 141.595C509.079 156.871 516.686 170.986 527.236 182.798C527.67 183.279 527.989 183.852 528.167 184.473C528.345 185.095 528.378 185.748 528.263 186.385C528.153 187.011 527.901 187.603 527.525 188.118C527.15 188.632 526.662 189.055 526.097 189.353L491.331 207.876C490.442 208.347 489.413 208.49 488.428 208.278C487.443 208.066 486.566 207.513 485.952 206.718Z" fill="#CCCCCC"/>
<path d="M488.325 204.945C488.512 205.177 488.775 205.337 489.068 205.397C489.361 205.458 489.666 205.414 489.93 205.275L524.696 186.752C524.865 186.664 525.011 186.539 525.123 186.386C525.235 186.233 525.31 186.056 525.342 185.87C525.378 185.673 525.368 185.47 525.312 185.277C525.256 185.085 525.156 184.908 525.02 184.76C514.158 172.601 506.328 158.07 502.162 142.343C502.114 142.149 502.021 141.968 501.891 141.815C501.761 141.663 501.597 141.542 501.413 141.463C501.238 141.385 501.049 141.349 500.858 141.357C500.668 141.365 500.481 141.416 500.314 141.508L465.549 160.03C465.285 160.172 465.08 160.4 464.968 160.676C464.856 160.952 464.845 161.259 464.936 161.542C470.46 177.112 478.347 191.749 488.325 204.945Z" fill="white"/>
<path d="M601.448 201.777L574.22 212.065L567.573 193.705C566.69 191.267 566.703 188.597 567.608 186.167C568.514 183.738 570.254 181.704 572.521 180.427C574.815 179.135 577.497 178.7 580.085 179.203C582.672 179.705 584.993 181.11 586.63 183.166L601.448 201.777Z" fill="#6C63FF"/>
<path d="M532.195 274.523C531.622 274.12 531.142 273.6 530.786 272.998C530.431 272.396 530.209 271.726 530.134 271.032C526.647 238.663 529.076 213.331 537.559 193.59C539.053 190.185 541.304 187.161 544.142 184.745C546.981 182.33 550.333 180.585 553.947 179.643L575.956 178.538L576.07 178.593C581.037 181.012 585.087 184.958 587.621 189.845C590.155 194.733 591.037 200.303 590.136 205.728C583.057 224.282 577.13 243.6 581.65 259.183C581.84 259.834 581.895 260.517 581.813 261.19C581.73 261.864 581.512 262.513 581.171 263.101C580.841 263.669 580.397 264.163 579.867 264.554C579.337 264.944 578.732 265.223 578.089 265.372L536.168 275.288C535.489 275.448 534.784 275.463 534.099 275.331C533.413 275.199 532.765 274.924 532.195 274.523Z" fill="#FCF670"/>
<path d="M568.612 170.364C582.031 170.364 592.908 159.548 592.908 146.206C592.908 132.864 582.031 122.048 568.612 122.048C555.194 122.048 544.316 132.864 544.316 146.206C544.316 159.548 555.194 170.364 568.612 170.364Z" fill="#FFB8B8"/>
<path d="M501.193 165.34L482.258 173.651C481.538 173.966 480.722 173.985 479.988 173.702C479.254 173.419 478.664 172.859 478.345 172.143L477.877 171.088C477.56 170.372 477.541 169.561 477.826 168.831C478.11 168.102 478.674 167.514 479.393 167.197L498.328 158.887C499.048 158.571 499.865 158.553 500.598 158.836C501.332 159.118 501.923 159.679 502.242 160.394L502.71 161.449C503.027 162.165 503.045 162.977 502.761 163.707C502.477 164.436 501.913 165.024 501.193 165.34Z" fill="#CCCCCC"/>
<path d="M508.119 178.127L489.184 186.438C488.464 186.753 487.648 186.771 486.914 186.489C486.18 186.206 485.589 185.645 485.271 184.93L484.802 183.875C484.486 183.159 484.467 182.347 484.752 181.618C485.036 180.888 485.6 180.301 486.319 179.984L505.254 171.673C505.974 171.358 506.791 171.34 507.524 171.622C508.258 171.905 508.849 172.466 509.167 173.181L509.636 174.236C509.953 174.952 509.971 175.764 509.687 176.493C509.402 177.223 508.839 177.81 508.119 178.127Z" fill="#CCCCCC"/>
<path d="M522.72 228.07L480.506 194.957C480.17 195.075 479.828 195.175 479.481 195.258C477.991 195.604 476.445 195.635 474.942 195.349C473.439 195.062 472.014 194.464 470.758 193.594C469.495 192.723 468.433 191.594 467.644 190.282C466.854 188.971 466.356 187.506 466.182 185.988C465.899 183.56 466.449 181.108 467.744 179.03C469.038 176.952 471.001 175.37 473.313 174.54C474.756 174.026 476.293 173.82 477.822 173.937C479.35 174.053 480.837 174.49 482.184 175.218C483.532 175.945 484.709 176.948 485.64 178.16C486.57 179.371 487.233 180.765 487.584 182.249C487.693 182.719 487.768 183.197 487.81 183.677L529.833 207.783L540.291 201.796L551.876 216.876L535.639 228.384C533.738 229.72 531.454 230.411 529.127 230.354C526.8 230.298 524.553 229.497 522.72 228.07Z" fill="#FFB8B8"/>
<path d="M557.027 221.573L532.941 205.287L544.261 189.346C545.764 187.23 547.971 185.709 550.492 185.054C553.014 184.399 555.687 184.651 558.039 185.766C560.419 186.894 562.314 188.831 563.384 191.227C564.453 193.622 564.626 196.32 563.87 198.831L557.027 221.573Z" fill="#FCF670"/>
<path d="M559.704 142.608C553.46 146.858 545.261 151.226 538.883 146.701C534.695 143.729 533.375 138.227 535.074 133.398C538.128 124.714 546.518 120.891 554.542 117.961C564.972 114.151 576.33 111.121 587.098 113.849C597.866 116.577 607.382 126.943 605.438 137.822C603.875 146.57 595.576 153.849 596.754 162.657C597.94 171.521 607.965 176.187 616.817 177.771C625.668 179.355 635.572 179.865 641.933 186.186C650.048 194.25 648.022 208.664 640.386 217.178C632.751 225.693 621.228 229.552 610.063 232.176C595.27 235.652 579.27 237.479 565.22 231.71C551.17 225.941 540.237 210.411 544.307 195.848C546.026 189.697 550.076 184.499 553.99 179.438C557.904 174.377 561.867 169.084 563.36 162.875C564.604 157.701 563.683 151.693 560.232 147.812C559.605 147.132 559.21 146.273 559.104 145.356C558.998 144.44 559.188 143.513 559.644 142.71L559.704 142.608Z" fill="#2F2E41"/>
<path d="M376.047 175.991C376.047 176.695 375.587 177.242 375.115 177.209C374.643 177.175 374.317 176.572 374.362 175.868C374.407 175.164 374.834 174.616 375.294 174.65C375.755 174.683 376.092 175.276 376.047 175.991Z" fill="#263238"/>
<path d="M368.012 175.432C367.956 176.136 367.54 176.683 367.079 176.65C366.619 176.616 366.281 176.013 366.326 175.309C366.371 174.605 366.798 174.057 367.259 174.091C367.72 174.124 368.057 174.761 368.012 175.432Z" fill="#263238"/>
<path d="M370.544 175.958C369.546 178.06 368.26 180.016 366.723 181.768C367.187 182.149 367.729 182.425 368.311 182.575C368.894 182.726 369.502 182.748 370.094 182.64L370.544 175.958Z" fill="#D89090"/>
<path d="M378.723 173.577C378.646 173.582 378.569 173.567 378.5 173.534C378.431 173.501 378.372 173.45 378.329 173.387C378.053 172.943 377.677 172.57 377.23 172.296C376.783 172.023 376.278 171.857 375.756 171.811C375.645 171.811 375.54 171.768 375.462 171.69C375.384 171.613 375.34 171.507 375.34 171.398C375.34 171.288 375.384 171.183 375.462 171.105C375.54 171.028 375.645 170.984 375.756 170.984C376.417 171.025 377.06 171.223 377.629 171.561C378.198 171.899 378.677 172.368 379.026 172.929C379.058 172.974 379.08 173.025 379.091 173.079C379.103 173.133 379.103 173.189 379.093 173.243C379.083 173.297 379.061 173.348 379.03 173.394C379 173.44 378.96 173.479 378.914 173.51C378.854 173.542 378.789 173.564 378.723 173.577Z" fill="#263238"/>
<path d="M373.186 186.093C374.217 186.074 375.229 185.808 376.134 185.318C377.04 184.827 377.814 184.127 378.39 183.277C378.406 183.252 378.416 183.224 378.421 183.196C378.426 183.167 378.424 183.137 378.417 183.109C378.409 183.08 378.396 183.054 378.378 183.031C378.36 183.008 378.337 182.989 378.311 182.975C378.286 182.959 378.259 182.949 378.23 182.944C378.2 182.939 378.171 182.941 378.142 182.948C378.114 182.956 378.087 182.969 378.064 182.987C378.041 183.005 378.022 183.027 378.008 183.053C377.458 183.83 376.735 184.468 375.894 184.918C375.053 185.368 374.118 185.617 373.164 185.646C373.134 185.646 373.104 185.652 373.077 185.664C373.049 185.676 373.025 185.693 373.004 185.716C372.984 185.738 372.969 185.764 372.96 185.792C372.95 185.821 372.947 185.851 372.95 185.88C372.95 185.91 372.956 185.94 372.969 185.967C372.981 185.995 372.998 186.019 373.021 186.039C373.043 186.059 373.069 186.074 373.098 186.083C373.126 186.093 373.157 186.096 373.186 186.093Z" fill="#263238"/>
<path d="M364.767 172.437C364.689 172.444 364.612 172.431 364.542 172.398C364.472 172.364 364.412 172.313 364.37 172.248C364.327 172.184 364.303 172.109 364.299 172.032C364.296 171.955 364.314 171.879 364.351 171.811C364.669 171.231 365.123 170.735 365.675 170.365C366.226 169.996 366.859 169.763 367.52 169.688C367.575 169.685 367.629 169.693 367.681 169.711C367.733 169.729 367.78 169.757 367.821 169.793C367.862 169.83 367.895 169.874 367.918 169.923C367.942 169.972 367.956 170.025 367.958 170.079C367.962 170.188 367.923 170.294 367.849 170.375C367.776 170.456 367.674 170.506 367.565 170.515C367.045 170.59 366.549 170.784 366.118 171.083C365.687 171.382 365.332 171.776 365.081 172.236C365.048 172.291 365.002 172.338 364.947 172.373C364.893 172.407 364.831 172.43 364.767 172.437Z" fill="#263238"/>
<path d="M550.684 154.487C551 155.203 550.778 155.965 550.282 156.14C549.787 156.316 549.184 155.847 548.914 155.111C548.643 154.375 548.831 153.628 549.315 153.457C549.799 153.287 550.408 153.739 550.684 154.487Z" fill="#263238"/>
<path d="M547.015 157.146C547.475 159.016 547.673 160.939 547.603 162.862C548.101 162.867 548.594 162.763 549.048 162.558C549.501 162.353 549.904 162.052 550.228 161.676L547.015 157.146Z" fill="#D89090"/>
<path d="M552.317 150.844C552.242 150.883 552.157 150.902 552.072 150.899C551.987 150.896 551.904 150.87 551.832 150.825C551.352 150.496 550.801 150.284 550.223 150.204C549.646 150.124 549.058 150.18 548.506 150.366C548.393 150.415 548.266 150.418 548.152 150.373C548.038 150.329 547.946 150.242 547.897 150.13C547.847 150.019 547.845 149.892 547.889 149.779C547.934 149.665 548.022 149.574 548.134 149.525C548.825 149.272 549.568 149.188 550.299 149.279C551.03 149.37 551.728 149.634 552.335 150.049C552.387 150.081 552.433 150.123 552.469 150.173C552.505 150.223 552.53 150.279 552.544 150.339C552.558 150.399 552.559 150.461 552.549 150.521C552.538 150.581 552.515 150.639 552.482 150.69C552.435 150.75 552.38 150.801 552.317 150.844Z" fill="#263238"/>
<path d="M554.55 165.188C555.006 164.973 555.38 164.596 555.639 164.087C555.898 163.578 556.035 162.953 556.039 162.265C556.039 162.245 556.035 162.224 556.029 162.204C556.022 162.183 556.013 162.164 556.001 162.146C555.989 162.128 555.975 162.113 555.96 162.101C555.945 162.089 555.929 162.081 555.913 162.076C555.898 162.07 555.882 162.069 555.868 162.071C555.853 162.074 555.84 162.081 555.83 162.091C555.819 162.102 555.811 162.116 555.806 162.133C555.801 162.149 555.8 162.168 555.801 162.189C555.787 162.821 555.654 163.395 555.412 163.864C555.17 164.333 554.825 164.684 554.406 164.89C554.393 164.896 554.381 164.906 554.373 164.919C554.364 164.933 554.358 164.95 554.356 164.968C554.353 164.987 554.354 165.008 554.359 165.029C554.363 165.05 554.371 165.071 554.381 165.09C554.39 165.111 554.401 165.13 554.415 165.146C554.429 165.162 554.444 165.175 554.46 165.184C554.476 165.193 554.492 165.198 554.508 165.199C554.523 165.2 554.538 165.196 554.55 165.188Z" fill="#263238"/>
</g>
<defs>
<clipPath id="clip0_556_11446">
<rect width="680" height="430" fill="white"/>
</clipPath>
</defs>
</svg>
