<svg width="250" height="250" viewBox="0 0 250 250" fill="none" xmlns="http://www.w3.org/2000/svg">
<path d="M223.246 103.658C223.174 103.658 223.104 103.636 223.045 103.595L126.007 36.0148C125.712 35.8101 125.361 35.7007 125.002 35.7013C124.642 35.7019 124.292 35.8125 123.997 36.0182L27.6579 103.594C27.5817 103.648 27.4874 103.669 27.3958 103.653C27.3041 103.637 27.2225 103.585 27.1691 103.508C27.1157 103.432 27.0947 103.338 27.1108 103.246C27.1268 103.155 27.1787 103.073 27.2549 103.02L123.594 35.4436C124.007 35.1556 124.497 35.0008 125 35C125.504 34.9992 125.995 35.1523 126.408 35.4389L223.446 103.019C223.508 103.062 223.554 103.123 223.578 103.194C223.602 103.264 223.603 103.341 223.581 103.412C223.558 103.483 223.514 103.546 223.453 103.59C223.393 103.634 223.32 103.658 223.246 103.658Z" fill="#5E66A7"/>
<path d="M33.1631 106.053L125.097 37.9189L217.729 110.901L129.834 163.007L82.1147 152.129L33.1631 106.053Z" fill="#E6E6E6"/>
<path d="M86.1419 195.19H40.7242C40.4453 195.19 40.1691 195.136 39.9114 195.029C39.6536 194.923 39.4194 194.766 39.2221 194.569C39.0247 194.372 38.8682 194.138 38.7614 193.881C38.6546 193.623 38.5996 193.347 38.5996 193.068C38.5996 192.789 38.6546 192.513 38.7614 192.255C38.8682 191.998 39.0247 191.764 39.2221 191.567C39.4194 191.37 39.6536 191.213 39.9114 191.107C40.1691 191 40.4453 190.946 40.7242 190.946H86.1419C86.4208 190.946 86.697 191 86.9547 191.107C87.2125 191.213 87.4467 191.37 87.644 191.567C87.8414 191.764 87.9979 191.998 88.1047 192.255C88.2115 192.513 88.2665 192.789 88.2665 193.068C88.2665 193.347 88.2115 193.623 88.1047 193.881C87.9979 194.138 87.8414 194.372 87.644 194.569C87.4467 194.766 87.2125 194.923 86.9547 195.029C86.697 195.136 86.4208 195.19 86.1419 195.19Z" fill="#9098D9"/>
<path d="M57.0191 186.067H40.7242C40.4453 186.067 40.1691 186.013 39.9114 185.906C39.6536 185.8 39.4194 185.644 39.2221 185.446C39.0247 185.249 38.8682 185.015 38.7614 184.758C38.6546 184.5 38.5996 184.224 38.5996 183.945C38.5996 183.666 38.6546 183.39 38.7614 183.132C38.8682 182.875 39.0247 182.641 39.2221 182.444C39.4194 182.247 39.6536 182.09 39.9114 181.984C40.1691 181.877 40.4453 181.823 40.7242 181.823H57.0191C57.2979 181.823 57.5742 181.877 57.8319 181.984C58.0897 182.09 58.3239 182.247 58.5212 182.444C58.7186 182.641 58.8751 182.875 58.9819 183.132C59.0887 183.39 59.1437 183.666 59.1437 183.945C59.1437 184.224 59.0887 184.5 58.9819 184.758C58.8751 185.015 58.7186 185.249 58.5212 185.446C58.3239 185.644 58.0897 185.8 57.8319 185.906C57.5742 186.013 57.2979 186.067 57.0191 186.067Z" fill="#9098D9"/>
<path d="M126.39 144.003C126.045 144.004 125.703 143.937 125.383 143.806L68.6846 120.28V46.6402C68.6853 45.989 68.9443 45.3648 69.4048 44.9043C69.8652 44.4439 70.4895 44.1848 71.1407 44.1841H179.913C180.564 44.1848 181.188 44.4439 181.649 44.9043C182.109 45.3648 182.368 45.989 182.369 46.6402V120.332L182.262 120.377L127.427 143.795C127.099 143.933 126.746 144.004 126.39 144.003Z" fill="white"/>
<path d="M126.389 144.178C126.021 144.179 125.657 144.108 125.316 143.968L68.5088 120.397V46.6401C68.5096 45.9424 68.7871 45.2735 69.2804 44.7802C69.7738 44.2868 70.4427 44.0093 71.1404 44.0085H179.912C180.61 44.0093 181.279 44.2868 181.772 44.7802C182.266 45.2735 182.543 45.9424 182.544 46.6401V120.447L127.496 143.956C127.145 144.103 126.769 144.179 126.389 144.178ZM69.2105 119.929L125.584 143.32C126.109 143.533 126.698 143.529 127.221 143.31L181.842 119.984V46.6401C181.842 46.1285 181.638 45.638 181.276 45.2762C180.914 44.9144 180.424 44.7109 179.912 44.7103H71.1404C70.6287 44.7109 70.1382 44.9144 69.7765 45.2762C69.4147 45.638 69.2112 46.1285 69.2106 46.6401L69.2105 119.929Z" fill="#5E66A7"/>
<path d="M222.544 102.956H222.474L182.193 120.156L127.081 143.689C126.865 143.78 126.634 143.827 126.401 143.828C126.167 143.83 125.936 143.785 125.719 143.696L68.8596 120.107L27.5894 102.984L27.5264 102.956H27.4561C26.805 102.957 26.1806 103.216 25.7202 103.676C25.2597 104.137 25.0007 104.761 25 105.412V212.079C25.0007 212.73 25.2597 213.354 25.7202 213.815C26.1806 214.275 26.805 214.534 27.4561 214.535H222.544C223.195 214.534 223.819 214.275 224.28 213.815C224.74 213.354 224.999 212.73 225 212.079V105.412C224.999 104.761 224.74 104.137 224.28 103.676C223.819 103.216 223.195 102.957 222.544 102.956ZM224.298 212.079C224.298 212.544 224.113 212.99 223.784 213.319C223.455 213.648 223.009 213.833 222.544 213.833H27.4561C26.9909 213.833 26.5448 213.648 26.2158 213.319C25.8868 212.99 25.7019 212.544 25.7018 212.079V105.412C25.7024 104.959 25.8784 104.523 26.1929 104.196C26.5074 103.869 26.9362 103.676 27.3895 103.658L68.8596 120.865L125.449 144.346C126.062 144.595 126.748 144.591 127.358 144.335L182.193 120.917L222.614 103.658C223.067 103.677 223.494 103.871 223.808 104.197C224.122 104.524 224.297 104.959 224.298 105.412V212.079Z" fill="#5E66A7"/>
<path d="M125.823 123.122C123.73 123.126 121.692 122.449 120.017 121.193L119.913 121.115L98.0499 104.376C97.0373 103.6 96.1875 102.632 95.5489 101.528C94.9104 100.424 94.4955 99.2047 94.3281 97.9402C94.1607 96.6756 94.2441 95.3905 94.5733 94.1581C94.9026 92.9257 95.4714 91.7703 96.2472 90.7578C97.023 89.7452 97.9907 88.8954 99.0949 88.2568C100.199 87.6182 101.418 87.2034 102.683 87.036C103.947 86.8686 105.233 86.9519 106.465 87.2812C107.697 87.6105 108.853 88.1793 109.865 88.9551L124.027 99.814L157.493 56.1695C158.269 55.1572 159.237 54.3077 160.341 53.6695C161.446 53.0313 162.665 52.6169 163.93 52.45C165.194 52.2831 166.48 52.3669 167.712 52.6966C168.944 53.0263 170.099 53.5956 171.111 54.3718L170.903 54.6543L171.117 54.3759C173.159 55.9452 174.495 58.2604 174.832 60.8135C175.169 63.3667 174.479 65.9492 172.915 67.9946L133.551 119.331C132.64 120.514 131.47 121.471 130.129 122.129C128.789 122.786 127.316 123.126 125.823 123.122Z" fill="#9098D9"/>
</svg>
