<svg width="500" height="380" viewBox="0 0 500 380" fill="none" xmlns="http://www.w3.org/2000/svg">
<g clip-path="url(#clip0_463_11418)">
<path fill-rule="evenodd" clip-rule="evenodd" d="M220.878 370.29C132.493 362.499 37.5372 331.908 14.9248 248.616C-7.88359 164.602 55.1198 86.9146 131.936 42.6735C201.228 2.76571 285.523 8.75523 350.644 55.2638C431.564 113.057 514.534 199.149 477.367 289.377C440.497 378.886 320.012 379.028 220.878 370.29Z" fill="#E7E7FF" fill-opacity="0.4"/>
<path d="M253.295 113.583C248.836 106.189 243.553 98.2932 235.28 95.8787C225.699 93.0824 215.857 98.6372 207.508 104.119C182.542 120.512 158.498 138.278 135.488 157.334L135.513 157.621C153.428 156.382 171.342 155.143 189.256 153.904C202.199 153.009 215.586 151.991 227.024 145.85C231.365 143.52 235.596 140.408 240.514 140.191C246.625 139.921 251.953 144.201 256.14 148.673C280.908 175.123 288.075 215.571 315.862 238.809C298.34 195.474 277.419 153.601 253.295 113.583Z" fill="#F2F2F2"/>
<path d="M405.541 337.927C402.802 334.458 401.683 333.646 398.981 330.145C376.983 301.612 356.306 272.115 336.951 241.655C323.804 220.967 311.31 199.882 299.467 178.4C293.829 168.187 288.345 157.894 283.016 147.521C278.881 139.477 274.838 131.386 270.887 123.247C269.758 120.922 268.66 118.587 267.567 116.246C264.993 110.741 262.467 105.21 259.755 99.7801C256.664 93.5914 252.902 87.1034 247.226 82.9456C244.643 80.9757 241.555 79.7838 238.321 79.5092C233.701 79.21 229.438 81.1232 225.431 83.2128C196.11 98.5455 168.661 117.769 143.833 139.643C118.941 161.566 96.6924 186.334 77.5396 213.442C76.9537 214.281 75.568 213.48 76.1595 212.635C78.4883 209.332 80.8633 206.065 83.2845 202.834C113.39 162.68 150.303 128.15 192.337 100.822C199.409 96.2261 206.614 91.8456 213.952 87.6806C217.65 85.5803 221.365 83.5067 225.143 81.5614C228.847 79.6535 232.779 77.938 237.011 77.8739C251.41 77.6494 258.865 94.0029 263.986 105.007C265.596 108.47 267.224 111.922 268.873 115.364C275.102 128.431 281.572 141.378 288.281 154.206C292.422 162.126 296.653 170 300.975 177.828C314.425 202.203 328.721 226.085 343.863 249.473C363.921 280.454 383.82 307.822 406.671 336.793C407.3 337.595 406.175 338.739 405.541 337.927Z" fill="#2C3475"/>
<path d="M142.41 131.568C141.574 130.633 140.742 129.698 139.9 128.762C133.26 121.398 126.136 114.119 117.018 109.897C112.67 107.82 107.924 106.717 103.109 106.664C98.1316 106.68 93.2663 107.989 88.6674 109.822C86.4931 110.693 84.3667 111.682 82.2726 112.735C79.8797 113.943 77.5296 115.231 75.1903 116.529C70.7991 118.966 66.4648 121.51 62.1876 124.161C53.677 129.436 45.433 135.113 37.4555 141.193C33.32 144.346 29.2699 147.603 25.3052 150.963C21.6175 154.084 18.0045 157.288 14.466 160.577C13.7093 161.277 12.5795 160.144 13.3362 159.444C14.2688 158.573 15.212 157.707 16.1553 156.852C18.8198 154.436 21.527 152.067 24.2768 149.744C29.2913 145.501 34.4355 141.421 39.7096 137.506C47.9111 131.413 56.3948 125.734 65.1609 120.468C69.5415 117.839 73.9823 115.32 78.4835 112.911C79.8425 112.184 81.2175 111.474 82.6083 110.8C85.7641 109.204 89.0432 107.865 92.4136 106.797C97.188 105.248 102.239 104.751 107.223 105.338C112.035 106.04 116.671 107.649 120.887 110.079C129.839 115.097 136.783 122.857 143.54 130.43C144.222 131.199 143.098 132.338 142.41 131.568Z" fill="#2C3475"/>
<path d="M325.844 207.883L347.297 200.014L357.948 196.107C361.417 194.834 364.878 193.386 368.464 192.475C371.58 191.582 374.889 191.624 377.982 192.596C380.74 193.62 383.265 195.19 385.406 197.212C387.593 199.232 389.628 201.411 391.495 203.733C393.814 206.528 396.099 209.352 398.394 212.167C407.866 223.784 417.276 235.451 426.624 247.169C435.971 258.887 445.257 270.654 454.48 282.472C463.725 294.318 472.907 306.213 482.025 318.159C483.142 319.622 484.258 321.086 485.373 322.551C485.989 323.36 487.379 322.562 486.754 321.742C477.568 309.676 468.319 297.66 459.005 285.694C449.669 273.699 440.268 261.754 430.802 249.861C421.337 237.968 411.808 226.126 402.214 214.336C399.824 211.399 397.431 208.465 395.033 205.534C393.01 203.062 391.01 200.563 388.792 198.262C384.719 194.038 379.632 190.306 373.541 190.204C369.961 190.145 366.495 191.284 363.169 192.491C359.582 193.793 356.004 195.118 352.422 196.432L330.819 204.356L325.419 206.337C324.46 206.688 324.874 208.238 325.844 207.883Z" fill="#2C3475"/>
<path d="M114.194 119.164C103.292 113.545 89.3306 114.645 79.3125 121.666C98.4212 124.972 117.321 129.395 135.915 134.914C128.193 130.376 122.154 123.267 114.194 119.164Z" fill="#F2F2F2"/>
<path d="M79.2042 121.646L77.1055 123.357C77.8154 122.758 78.5534 122.197 79.3115 121.665C79.2757 121.659 79.24 121.652 79.2042 121.646Z" fill="#F2F2F2"/>
<path d="M384.6 207.961C382.489 205.384 380.205 202.684 377.047 201.637L374.098 201.754C396.546 241.535 426.865 276.296 463.193 303.902C436.995 271.922 410.798 239.942 384.6 207.961Z" fill="#F2F2F2"/>
<path d="M201.219 186.695C202.584 191.668 205.658 195.996 209.899 198.914C211.538 200.033 213.478 201.107 214.038 203.015C214.333 204.231 214.152 205.514 213.531 206.6C212.911 207.672 212.156 208.659 211.286 209.539L211.207 209.837C207.138 207.42 203.268 204.361 201.021 200.188C198.773 196.016 198.46 190.547 201.219 186.695Z" fill="#F2F2F2"/>
<path d="M336.664 305.039C338.029 310.011 341.104 314.339 345.344 317.257C346.983 318.376 348.923 319.45 349.484 321.358C349.779 322.574 349.597 323.857 348.976 324.943C348.356 326.015 347.602 327.003 346.731 327.882L346.652 328.181C342.584 325.763 338.713 322.704 336.466 318.532C334.219 314.359 333.905 308.89 336.664 305.039Z" fill="#F2F2F2"/>
<path d="M66.3597 296.877C67.7244 301.849 70.7989 306.177 75.0392 309.095C76.6786 310.215 78.6182 311.288 79.179 313.196C79.474 314.412 79.2923 315.696 78.6712 316.781C78.0512 317.853 77.2969 318.841 76.4266 319.72L76.3472 320.019C72.2789 317.601 68.4086 314.543 66.1614 310.37C63.9141 306.197 63.6004 300.728 66.3597 296.877Z" fill="#F2F2F2"/>
<path d="M377.412 79.4631C393.786 79.4631 407.059 66.1518 407.059 49.7315C407.059 33.3113 393.786 20 377.412 20C361.039 20 347.766 33.3113 347.766 49.7315C347.766 66.1518 361.039 79.4631 377.412 79.4631Z" fill="#FCF670"/>
<path d="M430.911 26.9208C416.543 24.9731 400.139 32.7614 396.415 46.8138C395.477 44.3153 393.771 42.1807 391.543 40.7183C389.316 39.2559 386.682 38.5416 384.024 38.6784C381.365 38.8152 378.818 39.7962 376.752 41.4795C374.685 43.1628 373.206 45.4614 372.527 48.0431L374.172 49.2246C404.963 55.9021 436.835 55.7576 467.564 48.8012C457.57 38.2675 445.279 28.8684 430.911 26.9208Z" fill="#9098D9"/>
<path d="M369.294 66.5624C354.926 64.6147 338.522 72.403 334.798 86.4554C333.86 83.9569 332.153 81.8223 329.926 80.3599C327.699 78.8975 325.065 78.1832 322.406 78.32C319.748 78.4568 317.201 79.4378 315.135 81.1211C313.068 82.8044 311.589 85.103 310.91 87.6847L312.555 88.8662C343.345 95.5437 375.218 95.3992 405.947 88.4428C395.953 77.9091 383.662 68.51 369.294 66.5624Z" fill="#9098D9"/>
<path d="M494.697 74.0581C494.637 74.0582 494.578 74.049 494.521 74.0308C340.82 25.2838 205.354 31.6583 118.776 45.5899C106.994 47.4851 95.1803 49.6741 83.6632 52.0965C80.7229 52.7142 77.6725 53.3763 74.5968 54.0657C70.9236 54.8861 67.2992 55.7309 63.8238 56.5758C62.3229 56.9322 60.8513 57.2914 59.409 57.6535C57.2243 58.1943 55.0075 58.7579 52.6311 59.3773C49.9758 60.0639 47.2779 60.7841 44.6106 61.5179C44.6009 61.5214 44.5909 61.5242 44.5808 61.5265L44.5811 61.5271C41.5684 62.352 38.5716 63.2008 35.6736 64.0485C34.1051 64.5028 32.5905 64.9509 31.1398 65.3932C30.9777 65.4382 30.8341 65.4815 30.6885 65.5259L30.3769 65.621C30.1963 65.6762 30.0181 65.7303 29.8398 65.7815L29.8285 65.7849L29.8288 65.7855L29.357 65.9324C28.7944 66.1032 28.2455 66.27 27.7056 66.4362C13.4375 70.8472 5.59383 73.9853 5.51635 74.016C5.44549 74.0445 5.36973 74.0587 5.2934 74.0578C5.21706 74.0569 5.14165 74.041 5.07146 74.0109C5.00127 73.9808 4.93768 73.9371 4.88432 73.8824C4.83096 73.8276 4.78888 73.7629 4.76048 73.6918C4.73207 73.6207 4.71791 73.5447 4.71879 73.4682C4.71966 73.3916 4.73557 73.316 4.76559 73.2456C4.79561 73.1752 4.83915 73.1115 4.89375 73.058C4.94835 73.0044 5.01291 72.9622 5.08377 72.9338C5.16183 72.903 13.0438 69.7491 27.3639 65.3215C27.9057 65.1547 28.4561 64.9879 29.0204 64.8166L29.4586 64.6799C29.4737 64.6742 29.4887 64.6697 29.504 64.6651C29.6814 64.6145 29.8586 64.5604 30.0385 64.5057L30.3507 64.4107C30.5063 64.3634 30.6596 64.3167 30.8165 64.2734C32.2573 63.8339 33.777 63.3848 35.3495 62.9287C38.2486 62.0805 41.2483 61.2316 44.2632 60.4056C44.2726 60.4022 44.2822 60.3999 44.2916 60.397C46.9682 59.6609 49.6761 58.9373 52.3399 58.2485C54.7199 57.6285 56.941 57.0637 59.1294 56.5217C60.5778 56.1602 62.0523 55.8002 63.5528 55.4418C67.0321 54.5958 70.6638 53.7498 74.3436 52.9277C77.4241 52.2377 80.4796 51.5739 83.4248 50.9556C94.9598 48.5292 106.792 46.3368 118.592 44.4388C205.293 30.4873 340.954 24.1025 494.871 72.9195C495.004 72.9614 495.117 73.0494 495.19 73.1676C495.263 73.2858 495.292 73.4264 495.271 73.564C495.25 73.7015 495.18 73.827 495.075 73.9176C494.97 74.0083 494.835 74.0581 494.697 74.0581Z" fill="#2C3475"/>
<path d="M152.873 264.755C152.672 264.165 152.333 263.631 151.885 263.198C151.719 263.044 151.54 262.906 151.35 262.784C149.833 261.77 147.566 261.543 146.124 262.784C145.979 262.911 145.845 263.049 145.723 263.198C145.293 263.729 144.851 264.248 144.398 264.755C143.653 265.606 142.892 266.428 142.096 267.227C141.869 267.448 141.642 267.676 141.41 267.897C141.276 268.031 141.142 268.159 141.009 268.288C140.497 268.777 139.974 269.25 139.445 269.716C139.166 269.967 138.887 270.211 138.602 270.451C138.178 270.806 137.753 271.162 137.323 271.506C137.282 271.535 137.242 271.564 137.201 271.599C137.189 271.605 137.184 271.616 137.172 271.622C137.166 271.622 137.16 271.622 137.154 271.634C137.139 271.64 137.125 271.65 137.114 271.663C136.986 271.751 136.899 271.809 136.835 271.861C136.858 271.85 136.881 271.832 136.904 271.82C136.8 271.902 136.689 271.984 136.585 272.065C135.567 272.817 134.527 273.54 133.463 274.216C130.831 275.906 128.067 277.378 125.197 278.618C125.005 278.694 124.808 278.775 124.61 278.851C117.096 281.938 108.946 283.143 100.863 282.361C100.038 282.296 99.2125 282.209 98.3871 282.098C97.4338 281.958 96.4863 281.789 95.5445 281.597C91.9594 280.88 88.4515 279.818 85.0694 278.426C80.8387 276.483 76.8149 274.115 73.0596 271.36C72.4783 270.946 71.8912 270.532 71.304 270.13C71.9725 268.486 72.6294 266.842 73.2689 265.186C73.5886 264.388 73.8967 263.589 74.199 262.784C76.5765 256.587 78.8087 250.332 80.9479 244.054C83.1104 237.693 85.1508 231.296 87.0691 224.862C87.2667 224.209 87.4586 223.556 87.6446 222.903C88.6502 219.505 89.6152 216.098 90.5395 212.684C90.6267 212.352 90.7197 212.025 90.8011 211.693C91.0685 210.713 91.33 209.734 91.5858 208.755C92.1671 206.545 90.8534 203.904 88.5398 203.374C87.4258 203.087 86.2445 203.246 85.2448 203.816C84.245 204.385 83.5048 205.322 83.1801 206.429C82.9302 207.373 82.6802 208.312 82.4244 209.256C81.1979 213.821 79.9074 218.37 78.5529 222.903C78.3553 223.556 78.1577 224.209 77.96 224.862C74.9721 234.738 71.6916 244.514 68.1185 254.191C67.6883 255.363 67.2523 256.531 66.8105 257.695C66.5955 258.266 66.3804 258.838 66.1595 259.409C65.7351 260.534 65.2992 261.659 64.8632 262.784C64.6132 263.443 64.3574 264.102 64.1017 264.755C63.9331 265.169 63.7703 265.583 63.6076 265.991C61.9501 265.394 60.233 264.98 58.4862 264.755L58.2072 264.72C56.853 264.556 55.4835 264.568 54.1322 264.755C52.1099 264.992 50.1641 265.671 48.4324 266.745C46.7006 267.818 45.2253 269.261 44.1105 270.969C41.3377 275.347 41.3726 281.609 45.2615 285.328C49.2667 289.158 55.3297 289.129 60.0441 286.733C62.5425 285.377 64.649 283.397 66.1595 280.985C66.7381 280.11 67.2698 279.205 67.7523 278.274C67.8743 278.356 67.9964 278.437 68.1185 278.525C68.5835 278.851 69.0486 279.183 69.5078 279.51C72.1836 281.454 75.0033 283.19 77.9426 284.704C84.2625 287.855 91.0655 289.918 98.0674 290.808C98.2244 290.825 98.3755 290.849 98.5324 290.866C99.3056 290.965 100.085 291.041 100.863 291.105C112.037 291.95 123.225 289.656 133.173 284.483C134.015 284.045 134.851 283.587 135.678 283.107C136.963 282.361 138.218 281.568 139.445 280.728C140.113 280.274 140.764 279.813 141.41 279.329C144.229 277.246 146.858 274.915 149.263 272.363C150.176 271.401 151.05 270.408 151.885 269.384C152.675 268.546 153.13 267.446 153.164 266.294C153.159 265.768 153.061 265.246 152.873 264.755ZM56.6144 278.641C56.7365 278.554 56.8586 278.461 56.9748 278.367C56.94 278.455 56.7714 278.554 56.6144 278.641ZM58.4804 276.758C58.3467 276.91 58.2246 277.061 58.0909 277.213C57.6842 277.669 57.2472 278.098 56.783 278.495C56.7191 278.554 56.6493 278.612 56.5796 278.665C56.5788 278.665 56.578 278.665 56.5773 278.665C56.5766 278.665 56.576 278.666 56.5754 278.666C56.5749 278.667 56.5744 278.667 56.5741 278.668C56.5739 278.669 56.5737 278.67 56.5737 278.67C56.4898 278.708 56.4082 278.751 56.3296 278.799C56.0796 278.95 55.8238 279.09 55.5623 279.218C55.0501 279.407 54.5232 279.554 53.9869 279.656C53.5749 279.686 53.1613 279.69 52.7487 279.667H52.7371C52.4524 279.604 52.1711 279.526 51.8942 279.434C51.7547 279.364 51.621 279.283 51.4873 279.201C51.435 279.154 51.3885 279.108 51.3594 279.078C51.3026 279.026 51.2502 278.97 51.2025 278.909C51.2025 278.909 51.2024 278.908 51.2021 278.907C51.2018 278.906 51.2014 278.906 51.2008 278.905C51.2003 278.905 51.1996 278.904 51.1989 278.904C51.1982 278.904 51.1975 278.904 51.1967 278.904C51.1327 278.787 51.063 278.67 50.999 278.554C50.9957 278.551 50.9937 278.547 50.9932 278.542C50.9467 278.396 50.906 278.245 50.8712 278.093C50.8585 277.827 50.8605 277.56 50.877 277.295C50.955 276.922 51.0599 276.556 51.1909 276.199C51.3086 275.945 51.4426 275.7 51.592 275.464C51.6036 275.441 51.6617 275.347 51.7257 275.243C51.7315 275.237 51.7315 275.237 51.7315 275.231C51.8187 275.132 51.9059 275.027 51.9989 274.934C52.1558 274.759 52.3244 274.607 52.493 274.45C52.8209 274.234 53.1605 274.038 53.5103 273.861C54.0652 273.663 54.6347 273.509 55.2135 273.4C56.0671 273.332 56.9249 273.34 57.7771 273.424C58.5842 273.564 59.3806 273.761 60.1604 274.012C59.6878 274.932 59.1497 275.817 58.5502 276.659C58.5269 276.694 58.5037 276.729 58.4804 276.758ZM52.0163 274.84C51.9651 274.923 51.9046 274.999 51.8361 275.068C51.8822 274.982 51.9432 274.905 52.0163 274.84Z" fill="#5E66A7"/>
<path d="M135.402 205.216C135.35 207.047 135.298 208.877 135.246 210.708C135.135 214.771 135.021 218.836 134.903 222.903C134.78 227.48 134.653 232.054 134.519 236.627C134.455 238.988 134.389 241.349 134.321 243.71C134.141 250.07 133.963 256.428 133.786 262.784C133.769 263.443 133.746 264.096 133.728 264.755C133.641 267.909 133.554 271.063 133.467 274.216C133.368 277.639 133.271 281.061 133.176 284.483C133.106 287.048 133.035 289.615 132.961 292.184C132.438 310.798 131.915 329.412 131.391 348.027C131.369 349.179 130.903 350.278 130.09 351.094C129.277 351.909 128.181 352.377 127.032 352.399C125.878 352.389 124.775 351.926 123.959 351.108C123.143 350.29 122.681 349.183 122.672 348.027C122.963 337.556 123.257 327.086 123.555 316.616C123.817 307.149 124.083 297.681 124.352 288.214C124.439 285.095 124.526 281.974 124.613 278.851C124.747 274.152 124.879 269.454 125.009 264.755C125.026 264.096 125.049 263.443 125.067 262.784C125.078 262.207 125.096 261.636 125.113 261.059C125.369 251.935 125.625 242.81 125.881 233.683C125.985 230.091 126.086 226.498 126.183 222.903C126.299 218.805 126.415 214.709 126.532 210.614C126.584 208.813 126.631 207.017 126.683 205.216C126.705 204.063 127.171 202.964 127.984 202.149C128.797 201.334 129.893 200.866 131.043 200.844C132.196 200.853 133.3 201.317 134.115 202.135C134.931 202.953 135.393 204.059 135.402 205.216Z" fill="#5E66A7"/>
<path d="M374.571 206.43C369.999 223.79 364.535 240.902 358.2 257.697C356.452 262.329 354.664 266.953 352.753 271.52L353.192 270.476C352.339 272.651 351.249 274.726 349.943 276.662C349.854 276.787 349.764 276.911 349.671 277.033C350.123 276.454 350.209 276.339 349.929 276.69C349.781 276.865 349.635 277.041 349.483 277.212C349.076 277.668 348.639 278.098 348.175 278.496C348.059 278.596 347.94 278.694 347.82 278.79L348.365 278.365C348.302 278.515 347.857 278.713 347.719 278.798C347.271 279.069 346.804 279.307 346.321 279.509L347.363 279.068C346.572 279.387 345.746 279.614 344.903 279.744L346.062 279.588C345.234 279.703 344.394 279.712 343.564 279.615L344.723 279.771C344.043 279.677 343.378 279.498 342.743 279.237L343.785 279.677C343.446 279.529 343.12 279.355 342.809 279.155C342.651 279.052 342.167 278.684 342.8 279.169C343.459 279.674 342.885 279.213 342.749 279.079C342.636 278.967 342.535 278.845 342.424 278.732C341.911 278.204 343.003 279.639 342.655 279.022C342.468 278.713 342.298 278.395 342.144 278.068L342.584 279.113C342.384 278.615 342.242 278.097 342.161 277.567L342.316 278.729C342.233 278.07 342.232 277.403 342.314 276.744L342.159 277.907C342.265 277.171 342.459 276.451 342.737 275.761L342.297 276.806C342.491 276.342 342.72 275.894 342.982 275.466C343.103 275.244 343.245 275.035 343.406 274.841C343.434 274.85 342.668 275.723 343.075 275.282C343.181 275.167 343.281 275.046 343.388 274.931C343.56 274.749 343.745 274.581 343.926 274.408C344.533 273.828 343.076 274.971 343.777 274.512C344.285 274.178 344.819 273.885 345.375 273.638L344.334 274.079C345.265 273.696 346.24 273.433 347.237 273.298L346.078 273.454C347.327 273.31 348.589 273.325 349.834 273.499L348.675 273.343C350.252 273.582 351.793 274.017 353.263 274.637L352.221 274.196C355.354 275.545 358.129 277.548 360.899 279.512C363.574 281.454 366.393 283.19 369.331 284.704C375.652 287.855 382.455 289.919 389.458 290.81C399.5 292.043 409.69 290.728 419.094 286.985C428.498 283.241 436.813 277.189 443.278 269.384C444.067 268.545 444.521 267.445 444.555 266.293C444.547 265.135 444.089 264.026 443.278 263.201C441.679 261.728 438.657 261.313 437.112 263.201C435.649 264.993 434.075 266.693 432.4 268.289C431.618 269.032 430.816 269.753 429.992 270.451C429.522 270.85 429.045 271.241 428.562 271.624C428.333 271.805 427.621 272.287 428.714 271.509C428.464 271.687 428.223 271.882 427.976 272.065C424.315 274.772 420.348 277.035 416.157 278.807L417.198 278.366C412.701 280.258 407.978 281.556 403.147 282.227L404.306 282.071C399.337 282.726 394.303 282.719 389.336 282.049L390.495 282.205C385.528 281.521 380.671 280.194 376.045 278.258L377.086 278.699C372.622 276.718 368.385 274.257 364.451 271.359C362.403 269.838 360.244 268.475 357.991 267.281C355.366 265.937 352.525 265.071 349.598 264.723C344.111 264.075 338.52 266.218 335.504 270.972C332.728 275.348 332.763 281.608 336.651 285.328C340.655 289.16 346.718 289.127 351.437 286.731C355.981 284.422 358.711 279.627 360.63 275.105C364.95 264.929 368.774 254.518 372.338 244.054C375.863 233.702 379.06 223.245 381.928 212.683C382.283 211.375 382.634 210.065 382.979 208.754C383.56 206.546 382.246 203.904 379.934 203.376C378.819 203.088 377.637 203.246 376.637 203.816C375.636 204.385 374.895 205.323 374.571 206.43Z" fill="#5E66A7"/>
<path d="M418.068 205.216L416.498 261.061L414.937 316.614L414.055 348.027C414.065 349.184 414.527 350.29 415.343 351.108C416.158 351.926 417.261 352.389 418.414 352.399C419.564 352.377 420.66 351.909 421.473 351.094C422.286 350.279 422.752 349.18 422.774 348.027L424.344 292.182L425.905 236.629L426.787 205.216C426.778 204.059 426.315 202.953 425.5 202.135C424.684 201.317 423.581 200.854 422.428 200.844C421.278 200.866 420.182 201.334 419.369 202.149C418.556 202.964 418.09 204.063 418.068 205.216Z" fill="#5E66A7"/>
<path opacity="0.2" d="M267.164 332.435H268.518V270.616H300.099V269.262H268.518V243.177H292.907C292.549 242.721 292.181 242.271 291.803 241.826H268.518V224.598C268.07 224.406 267.619 224.222 267.164 224.048V241.826H240.626V219.752C240.171 219.773 239.724 219.804 239.272 219.842V241.826H218.101V225.357C217.646 225.559 217.199 225.771 216.754 225.994V241.826H198.957V243.177H216.754V269.262H198.957V270.616H216.754V332.435H218.101V270.616C220.881 270.615 223.635 271.164 226.204 272.231C228.772 273.298 231.107 274.862 233.073 276.833C235.039 278.805 236.598 281.146 237.662 283.722C238.726 286.298 239.273 289.059 239.272 291.848V332.435H240.626V270.616H267.164V332.435ZM218.101 269.262V243.177H239.272V269.262H218.101ZM240.626 269.262V243.177H241.157C244.573 243.177 247.955 243.852 251.11 245.163C254.266 246.474 257.133 248.396 259.547 250.818C261.962 253.24 263.878 256.115 265.185 259.28C266.492 262.445 267.164 265.836 267.164 269.262H240.626Z" fill="black"/>
<path d="M258.895 313.899C257.191 321.524 253.108 328.405 247.24 333.545C246.81 333.918 246.379 334.28 245.932 334.635C244.845 334.734 243.765 334.836 242.694 334.939C241.804 335.02 240.927 335.108 240.055 335.189L239.898 335.207L239.787 334.251L239.346 330.38C237.632 327.574 236.569 324.417 236.237 321.143C235.905 317.869 236.312 314.563 237.427 311.468C238.962 307.317 241.741 303.65 244.473 300.013C248.245 294.987 251.913 290.021 252.047 283.894C253.903 286.276 255.447 288.888 256.639 291.665C255.514 292.196 254.503 292.942 253.663 293.862C253.425 294.125 253.186 294.492 253.349 294.807C253.489 295.075 253.838 295.139 254.14 295.174C254.866 295.25 255.599 295.326 256.326 295.401C256.907 295.465 257.488 295.524 258.069 295.588C258.773 297.903 259.25 300.281 259.494 302.689C259.885 306.434 259.683 310.217 258.895 313.899Z" fill="#2C3475"/>
<path d="M278.199 298.62C274.769 301.12 272.763 304.717 271.205 308.682C269.609 309.194 268.172 310.114 267.037 311.352C266.799 311.614 266.561 311.981 266.724 312.296C266.863 312.564 267.212 312.628 267.514 312.663C268.241 312.739 268.973 312.815 269.7 312.891C268.142 317.578 266.712 322.428 263.957 326.386C262.124 329 259.735 331.172 256.963 332.747C256.208 333.179 255.427 333.566 254.627 333.907C251.674 334.134 248.777 334.377 245.936 334.635C244.849 334.735 243.77 334.836 242.698 334.939C241.809 335.02 240.931 335.108 240.059 335.189C240.053 334.869 240.053 334.548 240.059 334.227C240.243 325.686 243.376 317.473 248.924 310.99C249.186 310.687 249.453 310.39 249.726 310.092C252.537 307.082 255.842 304.577 259.498 302.689C265.258 299.685 271.715 298.28 278.199 298.62Z" fill="#FCF670"/>
<path d="M243.7 331.949L243.031 333.931L242.694 334.939C241.805 335.021 240.927 335.108 240.055 335.19L239.898 335.207C238.933 335.306 237.974 335.406 237.015 335.505C236.765 335.213 236.515 334.916 236.271 334.613C230.203 327.244 227.29 317.766 228.169 308.251C229.048 298.735 233.648 289.955 240.962 283.83C240.194 287.858 241.09 291.718 242.56 295.548C242.403 295.612 242.252 295.676 242.107 295.746C240.982 296.277 239.971 297.024 239.131 297.944C238.892 298.206 238.654 298.573 238.817 298.888C238.956 299.156 239.305 299.22 239.607 299.255C240.334 299.331 241.066 299.407 241.793 299.483C242.374 299.547 242.956 299.605 243.537 299.669C243.81 299.699 244.083 299.728 244.357 299.757C244.397 299.844 244.432 299.926 244.473 300.013C246.13 303.616 247.914 307.236 248.92 310.991C249.172 311.933 249.37 312.888 249.513 313.853C249.96 317.113 249.67 320.433 248.664 323.566C247.658 326.698 245.961 329.563 243.7 331.949Z" fill="#FCF670"/>
<path d="M302.212 247.394C297.208 237.605 289.455 229.368 280.336 223.315C271.188 217.271 260.692 213.59 249.781 212.6C248.351 212.47 246.917 212.393 245.48 212.371C243.782 212.346 218.237 219.735 209.679 225.769C201.126 231.729 194.091 239.623 189.14 248.812C184.198 258.052 181.767 268.433 182.091 278.913C182.515 289.456 185.445 299.745 190.638 308.922C195.76 318.069 203.032 325.823 211.823 331.51C220.739 337.215 229.696 352.342 240.223 352.876C250.829 353.415 262.925 339.145 272.599 334.812C282.272 330.443 290.635 323.608 296.854 314.988C302.897 306.54 306.806 296.749 308.247 286.453C309.743 275.911 309.046 265.039 305.456 254.963C304.535 252.374 303.451 249.846 302.212 247.394C301.178 245.351 298.145 244.598 296.247 245.825C295.269 246.429 294.561 247.388 294.27 248.502C293.978 249.616 294.126 250.8 294.683 251.807C295.291 253.008 295.855 254.227 296.378 255.467L295.938 254.423C297.915 259.189 299.259 264.194 299.936 269.311L299.78 268.148C300.5 273.7 300.487 279.322 299.741 284.869L299.897 283.707C299.143 289.254 297.667 294.679 295.506 299.84L295.945 298.796C294.833 301.43 293.537 303.981 292.067 306.432C291.322 307.67 290.531 308.879 289.695 310.059C289.328 310.577 288.949 311.086 288.568 311.593C288.07 312.255 289.246 310.728 288.732 311.377C288.644 311.488 288.557 311.599 288.469 311.709C288.205 312.04 287.937 312.368 287.666 312.693C285.853 314.862 283.875 316.886 281.75 318.747C281.221 319.21 280.682 319.663 280.135 320.105C279.863 320.326 279.594 320.556 279.309 320.761C279.32 320.753 280.228 320.062 279.69 320.463C279.522 320.589 279.354 320.718 279.185 320.843C278.057 321.681 276.9 322.476 275.712 323.229C272.978 324.956 270.11 326.46 267.135 327.725L268.176 327.285C263.044 329.451 257.651 330.931 252.134 331.687L253.293 331.531C247.779 332.278 242.19 332.288 236.674 331.56L237.833 331.716C232.819 331.041 227.915 329.712 223.245 327.761L224.286 328.202C221.581 327.057 218.973 325.694 216.487 324.126C215.257 323.349 214.059 322.524 212.893 321.65C212.727 321.526 212.562 321.399 212.396 321.274C211.864 320.871 212.778 321.571 212.785 321.576C212.476 321.353 212.178 321.115 211.893 320.862C211.33 320.402 210.775 319.931 210.23 319.45C208.047 317.522 206.008 315.435 204.13 313.207C203.66 312.65 203.2 312.084 202.75 311.51C202.555 311.262 202.2 310.758 202.985 311.818C202.882 311.679 202.775 311.542 202.67 311.403C202.42 311.07 202.172 310.734 201.929 310.396C201.075 309.211 200.263 307.998 199.494 306.755C197.756 303.941 196.239 300.997 194.957 297.947L195.396 298.991C193.298 293.986 191.864 288.726 191.129 283.346L191.285 284.509C190.622 279.55 190.613 274.525 191.257 269.564L191.101 270.726C191.762 265.921 193.05 261.225 194.935 256.758L194.495 257.803C195.681 255.007 197.079 252.306 198.678 249.725C199.478 248.434 200.326 247.173 201.223 245.945C201.426 245.666 201.632 245.388 201.84 245.112C202.028 244.863 202.546 244.242 201.663 245.339C201.749 245.231 201.833 245.121 201.918 245.012C202.41 244.387 202.913 243.772 203.429 243.167C205.381 240.875 207.495 238.728 209.756 236.742C210.327 236.24 210.907 235.749 211.497 235.268C211.764 235.049 212.034 234.833 212.305 234.619C212.414 234.534 212.524 234.45 212.632 234.363C211.47 235.29 212.309 234.616 212.573 234.418C213.787 233.505 215.034 232.638 216.313 231.817C219.158 229.993 222.15 228.411 225.258 227.09L224.216 227.531C228.727 225.631 248.713 221.148 252.348 221.637L251.189 221.481C256.532 222.229 261.754 223.676 266.721 225.785L265.68 225.344C268.197 226.416 270.644 227.648 273.005 229.034C274.184 229.727 275.34 230.458 276.473 231.227C277.01 231.591 277.54 231.963 278.065 232.343C278.327 232.534 278.588 232.726 278.848 232.92C278.992 233.028 279.135 233.137 279.279 233.245C279.883 233.699 278.447 232.588 279.08 233.09C281.199 234.76 283.212 236.561 285.107 238.484C286.037 239.434 286.936 240.415 287.802 241.425C288.246 241.944 288.682 242.47 289.108 243.004C289.32 243.269 290.041 244.229 289.157 243.053C289.373 243.34 289.592 243.626 289.805 243.915C291.642 246.409 293.273 249.048 294.683 251.807C295.725 253.847 298.744 254.607 300.648 253.376C301.626 252.772 302.335 251.814 302.626 250.7C302.917 249.585 302.769 248.401 302.212 247.394Z" fill="#9098D9"/>
<path d="M251.414 318.747C250.964 318.768 250.519 318.649 250.138 318.408C249.758 318.166 249.46 317.813 249.286 317.396C249.113 316.979 249.071 316.519 249.167 316.077C249.262 315.636 249.491 315.235 249.822 314.928C249.877 314.707 249.917 314.548 249.973 314.328C249.953 314.28 249.933 314.232 249.913 314.184C247.89 309.346 234.982 322.831 234.424 327.377C234.178 329.387 234.282 331.424 234.73 333.398C230.549 324.251 228.378 314.31 228.364 304.248C228.363 301.723 228.503 299.2 228.783 296.69C229.014 294.633 229.335 292.591 229.746 290.563C231.987 279.56 236.799 269.248 243.785 260.472C247.781 260.696 251.283 260.085 251.621 252.319C251.681 250.938 252.703 249.741 252.928 248.381C252.547 248.431 252.159 248.462 251.778 248.487C251.659 248.493 251.534 248.5 251.415 248.506L251.37 248.508C250.951 248.527 250.535 248.424 250.173 248.211C249.811 247.999 249.518 247.686 249.329 247.31C249.14 246.934 249.063 246.511 249.108 246.093C249.153 245.674 249.318 245.278 249.582 244.951C249.747 244.748 249.912 244.545 250.077 244.342C250.327 244.028 250.583 243.721 250.833 243.407C250.862 243.377 250.889 243.346 250.915 243.313C251.202 242.956 251.49 242.604 251.778 242.247C251.253 241.43 250.546 240.745 249.714 240.246C246.831 238.553 242.854 239.726 240.771 242.341C238.682 244.956 238.289 248.625 239.014 251.893C239.727 254.673 240.907 257.311 242.504 259.694C242.347 259.895 242.185 260.09 242.028 260.29C239.17 263.976 236.679 267.933 234.591 272.106C235.182 267.478 227.958 250.765 225.164 247.224C221.808 242.972 214.926 244.828 214.335 250.218C214.329 250.271 214.324 250.323 214.318 250.375C214.733 250.61 215.14 250.859 215.537 251.123C216.036 251.457 216.423 251.935 216.647 252.494C216.871 253.053 216.921 253.666 216.791 254.254C216.661 254.842 216.357 255.377 215.919 255.789C215.481 256.201 214.929 256.47 214.335 256.562L214.275 256.571C208.72 264.525 226.527 285.227 230.984 280.579C228.886 286.541 227.57 292.752 227.07 299.055C226.786 302.773 226.803 306.509 227.12 310.224L227.101 310.093C226.11 302 209.12 289.967 204.159 290.969C201.301 291.547 198.485 291.415 198.919 294.307C198.926 294.353 198.933 294.399 198.941 294.445C199.711 294.76 200.46 295.122 201.186 295.53C201.601 295.765 202.007 296.014 202.404 296.278C202.904 296.612 203.29 297.09 203.514 297.649C203.738 298.208 203.788 298.822 203.658 299.41C203.528 299.997 203.225 300.532 202.786 300.944C202.348 301.356 201.796 301.625 201.203 301.717L201.142 301.726C201.098 301.733 201.06 301.739 201.017 301.745C198.488 310.47 217.24 324.551 228.639 320.071H228.645C229.775 324.994 231.412 329.786 233.53 334.37H250.977C251.04 334.175 251.096 333.975 251.152 333.78C249.537 333.882 247.916 333.785 246.324 333.492C247.619 331.899 248.913 330.293 250.208 328.7C250.237 328.671 250.264 328.639 250.289 328.606C250.946 327.791 251.609 326.982 252.265 326.167L252.266 326.166C252.301 323.667 252.015 321.173 251.415 318.747L251.414 318.747ZM231.435 279.331L231.444 279.318L231.435 279.343V279.331ZM227.57 314.27L227.42 313.931C227.426 313.686 227.426 313.442 227.42 313.191C227.42 313.122 227.407 313.053 227.407 312.984C227.463 313.417 227.513 313.849 227.576 314.282L227.57 314.27Z" fill="#2C3475"/>
<path d="M55.3709 282.337C58.9024 282.337 61.7653 279.466 61.7653 275.924C61.7653 272.383 58.9024 269.512 55.3709 269.512C51.8394 269.512 48.9766 272.383 48.9766 275.924C48.9766 279.466 51.8394 282.337 55.3709 282.337Z" fill="#5E66A7"/>
<path d="M132.105 352.294C135.637 352.294 138.5 349.423 138.5 345.881C138.5 342.34 135.637 339.469 132.105 339.469C128.574 339.469 125.711 342.34 125.711 345.881C125.711 349.423 128.574 352.294 132.105 352.294Z" fill="#5E66A7"/>
<path d="M423.336 352.294C426.867 352.294 429.73 349.423 429.73 345.881C429.73 342.34 426.867 339.469 423.336 339.469C419.804 339.469 416.941 342.34 416.941 345.881C416.941 349.423 419.804 352.294 423.336 352.294Z" fill="#5E66A7"/>
<path d="M439.031 270.678C442.563 270.678 445.425 267.807 445.425 264.265C445.425 260.724 442.563 257.853 439.031 257.853C435.5 257.853 432.637 260.724 432.637 264.265C432.637 267.807 435.5 270.678 439.031 270.678Z" fill="#5E66A7"/>
<path d="M420.43 211.215C423.961 211.215 426.824 208.344 426.824 204.802C426.824 201.261 423.961 198.39 420.43 198.39C416.898 198.39 414.035 201.261 414.035 204.802C414.035 208.344 416.898 211.215 420.43 211.215Z" fill="#5E66A7"/>
<path d="M153.608 264.265C153.605 265.903 152.973 267.477 151.844 268.661C150.715 269.845 149.176 270.549 147.544 270.626C145.913 270.703 144.314 270.149 143.079 269.077C141.844 268.005 141.067 266.498 140.909 264.868C140.751 263.237 141.224 261.609 142.23 260.318C143.236 259.028 144.698 258.175 146.314 257.936C147.93 257.696 149.576 258.089 150.911 259.033C152.246 259.977 153.168 261.399 153.486 263.006C153.568 263.421 153.609 263.842 153.608 264.265Z" fill="#5E66A7"/>
<path d="M281.496 229.87C285.027 229.87 287.89 226.999 287.89 223.457C287.89 219.915 285.027 217.044 281.496 217.044C277.964 217.044 275.102 219.915 275.102 223.457C275.102 226.999 277.964 229.87 281.496 229.87Z" fill="#9098D9"/>
<path d="M218.136 223.458C218.132 225.096 217.5 226.669 216.372 227.853C215.243 229.037 213.703 229.741 212.072 229.818C210.44 229.896 208.842 229.341 207.606 228.269C206.371 227.198 205.594 225.691 205.436 224.06C205.278 222.43 205.751 220.801 206.757 219.511C207.763 218.22 209.226 217.367 210.842 217.128C212.457 216.889 214.103 217.282 215.438 218.226C216.773 219.169 217.695 220.592 218.014 222.198C218.096 222.613 218.137 223.035 218.136 223.458Z" fill="#9098D9"/>
<path d="M135.589 204.802C135.585 206.44 134.953 208.014 133.825 209.198C132.696 210.382 131.156 211.086 129.525 211.163C127.893 211.241 126.295 210.686 125.059 209.614C123.824 208.542 123.047 207.035 122.889 205.405C122.731 203.775 123.204 202.146 124.21 200.855C125.217 199.565 126.679 198.712 128.295 198.473C129.911 198.234 131.556 198.626 132.891 199.57C134.226 200.514 135.148 201.936 135.467 203.543C135.549 203.958 135.59 204.38 135.589 204.802Z" fill="#5E66A7"/>
<path d="M348.347 284.669C351.879 284.669 354.742 281.798 354.742 278.256C354.742 274.715 351.879 271.844 348.347 271.844C344.816 271.844 341.953 274.715 341.953 278.256C341.953 281.798 344.816 284.669 348.347 284.669Z" fill="#5E66A7"/>
<path d="M247.785 226.372C252.922 226.372 257.086 222.196 257.086 217.044C257.086 211.893 252.922 207.717 247.785 207.717C242.649 207.717 238.484 211.893 238.484 217.044C238.484 222.196 242.649 226.372 247.785 226.372Z" fill="#9098D9"/>
<path d="M499.308 352.784L0.692146 352.963C0.601252 352.963 0.511245 352.945 0.42727 352.91C0.343294 352.875 0.266997 352.824 0.202725 352.76C0.138453 352.695 0.0874629 352.619 0.0526791 352.534C0.0178953 352.45 0 352.36 0 352.269C0 352.178 0.0178953 352.087 0.0526791 352.003C0.0874629 351.919 0.138453 351.842 0.202725 351.778C0.266997 351.714 0.343294 351.662 0.42727 351.628C0.511245 351.593 0.601252 351.575 0.692146 351.575L499.308 351.396C499.491 351.396 499.667 351.469 499.796 351.599C499.925 351.73 499.998 351.906 499.998 352.09C499.998 352.273 499.925 352.45 499.796 352.58C499.667 352.71 499.491 352.783 499.308 352.784Z" fill="#CACACA"/>
</g>
<defs>
<clipPath id="clip0_463_11418">
<rect width="500" height="380" fill="white"/>
</clipPath>
</defs>
</svg>
