<svg width="300" height="300" viewBox="0 0 300 300" fill="none" xmlns="http://www.w3.org/2000/svg">
<g clip-path="url(#clip0_556_12064)">
<path fill-rule="evenodd" clip-rule="evenodd" d="M80.5538 70.3833C32.3708 106.187 -11.262 157.85 6.16224 215.295C23.7374 273.237 88.5452 297.153 149.089 296.333C203.703 295.593 250.183 262.302 270.764 211.709C296.339 148.842 312.74 68.4434 258.261 27.9656C204.217 -12.1894 134.596 30.2255 80.5538 70.3833Z" fill="#E7E7FF" fill-opacity="0.4"/>
<path d="M131.745 54.9604H261.93C266.895 54.9604 270.936 50.9195 270.936 45.9548C270.936 40.99 266.895 36.9492 261.93 36.9492H131.745C126.78 36.9492 122.739 40.99 122.739 45.9548C122.739 50.9195 126.78 54.9604 131.745 54.9604ZM261.93 38.0624C266.282 38.0624 269.822 41.6023 269.822 45.9548C269.822 50.3073 266.282 53.8472 261.93 53.8472H131.745C127.392 53.8472 123.852 50.3073 123.852 45.9548C123.852 41.6023 127.392 38.0624 131.745 38.0624H261.93Z" fill="#9098D9"/>
<path d="M131.745 160.349H261.931C266.745 160.349 270.658 156.436 270.658 151.622C270.658 146.807 266.745 142.895 261.931 142.895H131.745C126.931 142.895 123.018 146.807 123.018 151.622C123.018 156.436 126.931 160.349 131.745 160.349Z" fill="#5E66A7"/>
<path d="M131.745 90.1771H261.93C266.895 90.1771 270.936 86.1363 270.936 81.1716C270.936 76.2068 266.895 72.166 261.93 72.166H131.745C126.78 72.166 122.739 76.2068 122.739 81.1716C122.739 86.1363 126.78 90.1771 131.745 90.1771ZM261.93 73.2792C266.282 73.2792 269.822 76.8191 269.822 81.1716C269.822 85.5241 266.282 89.064 261.93 89.064H131.745C127.392 89.064 123.852 85.5241 123.852 81.1716C123.852 76.8191 127.392 73.2792 131.745 73.2792H261.93Z" fill="#9098D9"/>
<path d="M131.745 125.404H261.93C266.895 125.404 270.936 121.363 270.936 116.398C270.936 111.433 266.895 107.393 261.93 107.393H131.745C126.78 107.393 122.739 111.433 122.739 116.398C122.739 121.363 126.78 125.404 131.745 125.404ZM261.93 108.506C266.282 108.506 269.822 112.046 269.822 116.398C269.822 120.751 266.282 124.291 261.93 124.291H131.745C127.392 124.291 123.852 120.751 123.852 116.398C123.852 112.046 127.392 108.506 131.745 108.506H261.93Z" fill="#9098D9"/>
<path d="M232.285 30.4805H266.404C267.219 30.4805 267.879 31.1396 267.879 31.9526C267.879 32.7657 267.219 33.4248 266.404 33.4248H232.285C231.471 33.4248 230.81 32.7657 230.81 31.9526C230.81 31.1396 231.471 30.4805 232.285 30.4805Z" fill="#9098D9"/>
<path d="M232.285 66.5371H266.404C267.219 66.5371 267.879 67.1962 267.879 68.0093C267.879 68.8223 267.219 69.4815 266.404 69.4815H232.285C231.471 69.4815 230.81 68.8223 230.81 68.0093C230.81 67.1962 231.471 66.5371 232.285 66.5371Z" fill="#9098D9"/>
<path d="M232.285 102.598H266.404C267.219 102.598 267.879 103.257 267.879 104.07C267.879 104.883 267.219 105.542 266.404 105.542H232.285C231.471 105.542 230.81 104.883 230.81 104.07C230.81 103.257 231.471 102.598 232.285 102.598Z" fill="#9098D9"/>
<path d="M68.4903 65.615L80.9355 69.7114V51.7949H69.6424L68.4903 65.615Z" fill="#FFB8B8"/>
<path d="M79.4 56.8015C72.5513 56.8015 66.9993 51.2495 66.9993 44.4007C66.9993 37.552 72.5513 32 79.4 32C86.2488 32 91.8008 37.552 91.8008 44.4007C91.8008 51.2495 86.2488 56.8015 79.4 56.8015Z" fill="#FFB8B8"/>
<path d="M81.7639 43.7373C81.7639 44.3779 82.1808 44.8762 82.6079 44.8457C83.035 44.8152 83.3299 44.2661 83.2892 43.6254C83.2485 42.9847 82.8621 42.4864 82.4452 42.517C82.0283 42.5475 81.7232 43.0864 81.7639 43.7373Z" fill="#263238"/>
<path d="M89.0354 43.2275C89.0863 43.8682 89.4625 44.3664 89.8795 44.3359C90.2964 44.3054 90.6015 43.7563 90.5608 43.1156C90.5201 42.475 90.1337 41.9767 89.7168 42.0072C89.2998 42.0377 88.9948 42.6174 89.0354 43.2275Z" fill="#263238"/>
<path d="M86.7476 43.707C87.6508 45.6206 88.8143 47.4001 90.2051 48.995C89.7852 49.3418 89.2946 49.5925 88.7676 49.7295C88.2405 49.8665 87.6899 49.8865 87.1543 49.7882L86.7476 43.707Z" fill="#D89090"/>
<path d="M79.3414 41.5389C79.4107 41.5438 79.48 41.5304 79.5425 41.5C79.6049 41.4697 79.6583 41.4235 79.6973 41.3661C79.9472 40.9623 80.2878 40.6225 80.6921 40.3736C81.0963 40.1247 81.5531 39.9735 82.0261 39.9322C82.1259 39.9322 82.2216 39.8926 82.2921 39.822C82.3627 39.7514 82.4023 39.6557 82.4023 39.5559C82.4023 39.4562 82.3627 39.3605 82.2921 39.2899C82.2216 39.2193 82.1259 39.1797 82.0261 39.1797C81.4273 39.2166 80.8461 39.3965 80.3312 39.7044C79.8163 40.0123 79.3828 40.4391 79.0669 40.9491C79.0382 40.9903 79.0181 41.0368 79.0077 41.0859C78.9973 41.135 78.9968 41.1857 79.0063 41.2349C79.0158 41.2842 79.035 41.3311 79.0629 41.3728C79.0908 41.4145 79.1267 41.4503 79.1686 41.4779C79.2227 41.5071 79.281 41.5277 79.3414 41.5389Z" fill="#263238"/>
<path d="M87.9195 52.7508C87.0149 52.9798 86.0684 52.9873 85.1603 52.7729C84.2521 52.5585 83.409 52.1283 82.7024 51.5189C82.6826 51.5011 82.6667 51.4793 82.6558 51.4551C82.6448 51.4308 82.6389 51.4045 82.6386 51.3779C82.6382 51.3513 82.6434 51.3248 82.6538 51.3003C82.6641 51.2758 82.6794 51.2536 82.6988 51.2353C82.7166 51.2155 82.7383 51.1996 82.7626 51.1886C82.7869 51.1777 82.8131 51.1718 82.8398 51.1715C82.8664 51.1711 82.8928 51.1763 82.9174 51.1866C82.9419 51.197 82.964 51.2123 82.9824 51.2316C83.6481 51.7823 84.4329 52.1704 85.2747 52.365C86.1165 52.5597 86.992 52.5556 87.8319 52.353C87.8581 52.3457 87.8855 52.344 87.9124 52.348C87.9393 52.3521 87.965 52.3617 87.9879 52.3763C88.0108 52.391 88.0304 52.4103 88.0453 52.433C88.0602 52.4557 88.0702 52.4813 88.0746 52.5081C88.0819 52.5343 88.0836 52.5618 88.0796 52.5886C88.0756 52.6155 88.0659 52.6412 88.0513 52.6641C88.0366 52.687 88.0173 52.7066 87.9946 52.7215C87.9719 52.7365 87.9463 52.7464 87.9195 52.7508Z" fill="#263238"/>
<path d="M91.9712 40.5022C92.041 40.5089 92.1114 40.4965 92.1747 40.4662C92.238 40.436 92.2919 40.3891 92.3305 40.3306C92.3692 40.272 92.3912 40.2041 92.3942 40.134C92.3972 40.0639 92.381 39.9943 92.3475 39.9327C92.0594 39.4043 91.6485 38.9529 91.1494 38.6166C90.6503 38.2804 90.0777 38.0691 89.4798 38.0006C89.4303 37.9978 89.3809 38.0049 89.3342 38.0213C89.2875 38.0377 89.2445 38.0632 89.2076 38.0962C89.1708 38.1293 89.1408 38.1693 89.1195 38.214C89.0981 38.2586 89.0858 38.3071 89.0832 38.3565C89.0803 38.4557 89.1156 38.5521 89.1818 38.626C89.2481 38.6998 89.3402 38.7453 89.4391 38.7531C89.9099 38.8209 90.3582 38.9978 90.7484 39.2697C91.1386 39.5416 91.4599 39.901 91.6865 40.3191C91.7169 40.3693 91.7584 40.4118 91.8077 40.4435C91.8571 40.4752 91.913 40.4953 91.9712 40.5022Z" fill="#263238"/>
<path d="M75.9889 43.1237C78.0649 43.0624 79.4285 40.9641 80.2356 39.0494C81.0426 37.1348 81.872 34.9363 83.7978 34.1459C85.3729 33.5003 88.1503 37.8695 89.3914 36.7062C90.6883 35.4929 89.4248 29.2647 88.0501 28.1459C86.6753 27.0272 84.794 26.8101 83.0241 26.7266C78.705 26.5263 74.3581 26.8769 70.1224 27.7619C67.5009 28.3073 64.807 29.1311 62.9146 31.0235C60.5213 33.4279 59.9091 37.0513 59.7365 40.4409C59.5584 43.9084 59.7588 47.5374 61.4453 50.5708C63.1317 53.6042 66.6605 55.8416 70.0445 55.068C70.384 53.2313 70.0389 51.3444 69.9054 49.4743C69.7773 47.6097 69.9109 45.5949 71.0519 44.1088C72.1874 42.6227 74.6252 42.0327 75.9499 43.3519" fill="#2F2E43"/>
<path d="M60.7314 47.4197C59.4902 46.5125 58.0041 45.75 56.4791 45.9392C54.8316 46.1396 53.4345 47.4977 53.0115 49.1062C52.5885 50.7147 53.0616 52.4847 54.0857 53.7982C55.1043 55.1118 56.6238 55.98 58.2267 56.4142C59.1562 56.6646 60.1748 56.7704 61.0598 56.3919C62.3622 55.8298 63.069 54.1656 62.557 52.8409" fill="#2F2E43"/>
<path d="M108.186 164.1C109.015 168.174 107.495 171.898 104.802 172.416C102.108 172.933 99.2524 170.045 98.4286 165.97C98.078 164.345 98.1336 162.664 98.59 161.061L88.3321 97.1929L101.161 94.7773L106.115 159.62C107.167 160.933 107.874 162.469 108.186 164.106V164.1Z" fill="#FFB8B8"/>
<path d="M81.0709 61.4922H89.826C96.0153 62.4328 97.6962 65.7334 99.1043 71.8336C101.253 81.1397 103.997 93.5293 103.451 93.713C102.577 94.0024 87.672 101.015 80.0746 99.4124L81.0709 61.4922Z" fill="#FCF670"/>
<path d="M72.6049 264.93H84.2598V281.466H72.6049V264.93Z" fill="#FFB8B8"/>
<path d="M95.6092 291.473C96.8337 291.473 97.9246 291.445 98.7483 291.367C101.843 291.084 104.798 288.796 106.285 287.46C106.952 286.859 107.164 285.902 106.819 285.078C106.568 284.488 106.073 284.043 105.455 283.87L97.2734 281.533L84.0266 272.594L83.8764 272.861C83.8207 272.961 82.5183 275.304 82.0842 276.885C81.9172 277.486 81.9617 277.987 82.2122 278.377C82.3847 278.644 82.6296 278.8 82.8244 278.889C82.5851 279.139 81.8337 279.651 79.5183 280.019C76.1398 280.553 75.4274 277.052 75.3996 276.907L75.3773 276.79L75.2771 276.724C73.6686 275.688 72.6778 275.215 72.3383 275.315C72.1268 275.377 71.7706 275.488 70.8077 285.022C70.7131 285.323 70.0396 287.516 70.496 289.614C70.9914 291.896 80.9654 291.111 82.9636 290.933C83.0192 290.939 90.4886 291.473 95.6036 291.473H95.6092Z" fill="#2F2E43"/>
<path d="M39.4173 251.936L49.3066 258.104L40.556 272.135L30.6667 265.967L39.4173 251.936Z" fill="#FFB8B8"/>
<path d="M52.5503 289.208C53.9195 289.208 55.1773 289.041 56.0735 288.885C56.9529 288.729 57.643 288.028 57.7877 287.148C57.8879 286.514 57.7043 285.874 57.2701 285.401L51.5651 279.089L45.0531 264.495L44.7859 264.64C44.6857 264.696 42.3425 265.992 41.1347 267.106C40.6727 267.529 40.4445 267.979 40.4556 268.441C40.4612 268.764 40.5837 269.02 40.7061 269.204C40.3722 269.293 39.4649 269.326 37.3054 268.414C34.1551 267.083 35.4019 263.733 35.4575 263.594L35.502 263.482L35.4519 263.377C34.6338 261.646 34.0494 260.722 33.7043 260.627C33.4872 260.566 33.131 260.471 27.2701 268.057C27.0308 268.258 25.2998 269.766 24.5763 271.787C23.7915 273.985 32.669 278.599 34.4557 279.501C34.5113 279.545 43.8007 286.297 47.6189 288.217C49.1328 288.979 50.925 289.213 52.5558 289.213L52.5503 289.208Z" fill="#2F2E43"/>
<path d="M64.0196 126.645H96.6522L99.6133 157.001L86.656 269.164H69.9973L76.6597 204.383L49.6374 262.869L34.8322 252.505L55.9324 197.904C55.9324 197.904 48.3962 150.338 54.3183 138.489C60.2404 126.645 64.0196 126.645 64.0196 126.645Z" fill="#2C3475"/>
<path d="M47.784 128.494H99.6133L84.0623 61.4922H61.4816L47.784 128.494Z" fill="#FCF670"/>
<path d="M43.1212 164.096C42.2919 168.17 43.8114 171.894 46.5052 172.412C49.1991 172.929 52.0544 170.041 52.8781 165.966C53.2288 164.341 53.1731 162.66 52.7167 161.057L62.9746 97.189L50.1453 94.7734L45.1917 159.616C44.1397 160.929 43.4329 162.465 43.1212 164.102V164.096Z" fill="#FFB8B8"/>
<path d="M70.2381 61.4922H61.483C55.2937 62.4328 53.6129 65.7334 52.2047 71.8336C50.0563 81.1397 47.3123 93.5293 47.8578 93.713C48.7316 94.0024 63.637 101.015 71.2344 99.4124L70.2381 61.4922Z" fill="#FCF670"/>
</g>
<defs>
<clipPath id="clip0_556_12064">
<rect width="300" height="300" fill="white" transform="matrix(-1 0 0 1 300 0)"/>
</clipPath>
</defs>
</svg>
