<svg width="500" height="470" viewBox="0 0 500 470" fill="none" xmlns="http://www.w3.org/2000/svg">
<g clip-path="url(#clip0_465_21124)">
<path fill-rule="evenodd" clip-rule="evenodd" d="M440.746 137.867C399.009 51.6248 315.487 -9.58613 220.181 0.231432C115.319 11.0333 13.8177 78.6845 0.327692 183.235C-11.8264 277.431 87.5794 331.666 171.735 375.694C250.993 417.16 346.293 458.543 413.308 399.296C485.884 335.133 482.945 225.065 440.746 137.867Z" fill="#F8FFA5" fill-opacity="0.7"/>
<path d="M463.131 401.9L476.599 397.628C478.278 390.4 478.166 382.871 476.275 375.695C470.864 387.726 454.989 390.674 445.943 400.277C443.145 403.294 441.062 406.901 439.847 410.833C438.633 414.764 438.319 418.918 438.928 422.988L436.095 432.6C442.713 432.035 449.13 430.041 454.903 426.757C460.677 423.473 465.67 418.976 469.538 413.576C471.678 410.525 473.426 407.217 474.739 403.73C468.995 403.155 463.131 401.9 463.131 401.9Z" fill="#F2F2F2"/>
<path d="M448.738 384.126L458.888 374.295C457.167 367.076 453.709 360.387 448.816 354.808C449.339 367.99 436.444 377.709 432.631 390.338C431.472 394.286 431.216 398.444 431.883 402.504C432.549 406.564 434.121 410.423 436.481 413.793L438.232 423.66C443.903 420.203 448.757 415.557 452.46 410.042C456.163 404.528 458.626 398.276 459.681 391.718C460.236 388.033 460.324 384.293 459.945 380.586C454.547 382.633 448.738 384.126 448.738 384.126Z" fill="#F2F2F2"/>
<path d="M381.269 28.5102H1.66836C1.27354 28.5019 0.897707 28.3391 0.621432 28.057C0.345156 27.7748 0.19043 27.3956 0.19043 27.0007C0.19043 26.6057 0.345156 26.2265 0.621432 25.9444C0.897707 25.6622 1.27354 25.4994 1.66836 25.4911H381.269C381.664 25.4994 382.04 25.6622 382.316 25.9444C382.592 26.2265 382.747 26.6057 382.747 27.0007C382.747 27.3956 382.592 27.7748 382.316 28.057C382.04 28.3391 381.664 28.5019 381.269 28.5102Z" fill="#3F3D56"/>
<path d="M27.5079 17.7835C32.3938 17.7835 36.3547 13.7344 36.3547 8.7396C36.3547 3.74478 32.3938 -0.304321 27.5079 -0.304321C22.622 -0.304321 18.6611 3.74478 18.6611 8.7396C18.6611 13.7344 22.622 17.7835 27.5079 17.7835Z" fill="#3F3D56"/>
<path d="M58.0694 17.7835C62.9554 17.7835 66.9162 13.7344 66.9162 8.7396C66.9162 3.74478 62.9554 -0.304321 58.0694 -0.304321C53.1835 -0.304321 49.2227 3.74478 49.2227 8.7396C49.2227 13.7344 53.1835 17.7835 58.0694 17.7835Z" fill="#3F3D56"/>
<path d="M88.631 17.7835C93.5169 17.7835 97.4777 13.7344 97.4777 8.7396C97.4777 3.74478 93.5169 -0.304321 88.631 -0.304321C83.745 -0.304321 79.7842 3.74478 79.7842 8.7396C79.7842 13.7344 83.745 17.7835 88.631 17.7835Z" fill="#3F3D56"/>
<path d="M362.869 1.93738H341.159C340.729 1.94595 340.319 2.12289 340.018 2.43023C339.717 2.73757 339.548 3.15078 339.548 3.58116C339.548 4.01154 339.717 4.42476 340.018 4.73209C340.319 5.03943 340.729 5.21638 341.159 5.22495H362.869C363.299 5.21638 363.709 5.03943 364.01 4.73209C364.311 4.42476 364.48 4.01154 364.48 3.58116C364.48 3.15078 364.311 2.73757 364.01 2.43023C363.709 2.12289 363.299 1.94595 362.869 1.93738Z" fill="#3F3D56"/>
<path d="M362.868 8.10754H341.158C340.728 8.11606 340.318 8.29299 340.017 8.60033C339.716 8.90767 339.547 9.32092 339.547 9.75133C339.547 10.1817 339.716 10.595 340.017 10.9023C340.318 11.2097 340.728 11.3866 341.158 11.3951H362.868C363.298 11.3866 363.708 11.2097 364.009 10.9023C364.311 10.595 364.479 10.1817 364.479 9.75133C364.479 9.32092 364.311 8.90767 364.009 8.60033C363.708 8.29299 363.298 8.11606 362.868 8.10754Z" fill="#3F3D56"/>
<path d="M362.868 14.2698H341.158C340.728 14.2783 340.318 14.4552 340.017 14.7626C339.716 15.0699 339.547 15.4831 339.547 15.9136C339.547 16.344 339.716 16.7572 340.017 17.0646C340.318 17.3719 340.728 17.5488 341.158 17.5573H362.868C363.298 17.5488 363.708 17.3719 364.009 17.0646C364.311 16.7572 364.479 16.344 364.479 15.9136C364.479 15.4831 364.311 15.0699 364.009 14.7626C363.708 14.4552 363.298 14.2783 362.868 14.2698Z" fill="#3F3D56"/>
<path d="M29.5984 89.8425C35.6389 89.8425 40.5357 84.9457 40.5357 78.9052C40.5357 72.8647 35.6389 67.9679 29.5984 67.9679C23.5579 67.9679 18.6611 72.8647 18.6611 78.9052C18.6611 84.9457 23.5579 89.8425 29.5984 89.8425Z" fill="#E6E7E8"/>
<path d="M308.118 103.124H21.918C21.0542 103.124 20.2258 102.781 19.615 102.17C19.0043 101.559 18.6611 100.731 18.6611 99.8673C18.6611 99.0035 19.0043 98.1751 19.615 97.5643C20.2258 96.9535 21.0542 96.6104 21.918 96.6104H308.118C308.982 96.6104 309.81 96.9535 310.421 97.5643C311.032 98.1751 311.375 99.0035 311.375 99.8673C311.375 100.731 311.032 101.559 310.421 102.17C309.81 102.781 308.982 103.124 308.118 103.124Z" fill="#E6E7E8"/>
<path d="M233.057 115.994H21.9182C21.0544 115.994 20.2259 115.651 19.6151 115.04C19.0043 114.429 18.6611 113.601 18.6611 112.737C18.6611 111.873 19.0043 111.045 19.6151 110.434C20.2259 109.823 21.0544 109.48 21.9182 109.48H233.057C233.921 109.48 234.749 109.823 235.36 110.434C235.971 111.045 236.314 111.873 236.314 112.737C236.314 113.601 235.971 114.429 235.36 115.04C234.749 115.651 233.921 115.994 233.057 115.994Z" fill="#E6E7E8"/>
<path d="M29.5984 260.556C35.6389 260.556 40.5357 255.66 40.5357 249.619C40.5357 243.579 35.6389 238.682 29.5984 238.682C23.5579 238.682 18.6611 243.579 18.6611 249.619C18.6611 255.66 23.5579 260.556 29.5984 260.556Z" fill="#E6E7E8"/>
<path d="M308.118 273.838H21.9184C21.4902 273.839 21.0661 273.755 20.6704 273.592C20.2746 273.428 19.915 273.189 19.612 272.886C19.309 272.584 19.0687 272.224 18.9047 271.829C18.7407 271.433 18.6562 271.009 18.6562 270.581C18.6562 270.153 18.7407 269.729 18.9047 269.334C19.0687 268.938 19.309 268.579 19.612 268.276C19.915 267.974 20.2746 267.734 20.6704 267.571C21.0661 267.407 21.4902 267.324 21.9184 267.324H308.118C309.026 267.375 309.881 267.763 310.517 268.412C311.153 269.061 311.524 269.924 311.556 270.832C311.529 271.256 311.419 271.67 311.231 272.051C311.044 272.432 310.783 272.772 310.463 273.051C310.143 273.331 309.772 273.544 309.369 273.679C308.967 273.814 308.542 273.868 308.118 273.838Z" fill="#E6E7E8"/>
<path d="M233.057 286.708H21.9182C21.0544 286.708 20.2259 286.365 19.6151 285.754C19.0043 285.143 18.6611 284.314 18.6611 283.451C18.6611 282.587 19.0043 281.758 19.6151 281.148C20.2259 280.537 21.0544 280.194 21.9182 280.194H233.057C233.921 280.194 234.749 280.537 235.36 281.148C235.971 281.758 236.314 282.587 236.314 283.451C236.314 284.314 235.971 285.143 235.36 285.754C234.749 286.365 233.921 286.708 233.057 286.708Z" fill="#E6E7E8"/>
<path d="M29.5984 168.765C35.6389 168.765 40.5357 163.868 40.5357 157.827C40.5357 151.787 35.6389 146.89 29.5984 146.89C23.5579 146.89 18.6611 151.787 18.6611 157.827C18.6611 163.868 23.5579 168.765 29.5984 168.765Z" fill="#E6E7E8"/>
<path d="M308.118 182.046H21.918C21.0542 182.046 20.2258 181.703 19.615 181.092C19.0043 180.482 18.6611 179.653 18.6611 178.789C18.6611 177.926 19.0043 177.097 19.615 176.486C20.2258 175.876 21.0542 175.532 21.918 175.532H308.118C308.982 175.532 309.81 175.876 310.421 176.486C311.032 177.097 311.375 177.926 311.375 178.789C311.375 179.653 311.032 180.482 310.421 181.092C309.81 181.703 308.982 182.046 308.118 182.046Z" fill="#E6E7E8"/>
<path d="M268.263 194.916H21.9182C21.0544 194.916 20.2259 194.573 19.6151 193.962C19.0043 193.351 18.6611 192.523 18.6611 191.659C18.6611 190.795 19.0043 189.967 19.6151 189.356C20.2259 188.745 21.0544 188.402 21.9182 188.402H268.263C269.127 188.402 269.955 188.745 270.566 189.356C271.177 189.967 271.52 190.795 271.52 191.659C271.52 192.523 271.177 193.351 270.566 193.962C269.955 194.573 269.127 194.916 268.263 194.916Z" fill="#E6E7E8"/>
<path d="M251.543 207.786H21.9182C21.0544 207.786 20.2259 207.442 19.6151 206.832C19.0043 206.221 18.6611 205.392 18.6611 204.529C18.6611 203.665 19.0043 202.836 19.6151 202.225C20.2259 201.615 21.0544 201.271 21.9182 201.271H251.543C252.406 201.271 253.235 201.615 253.846 202.225C254.457 202.836 254.8 203.665 254.8 204.529C254.8 205.392 254.457 206.221 253.846 206.832C253.235 207.442 252.406 207.786 251.543 207.786Z" fill="#E6E7E8"/>
<path d="M256.182 292.806C259.132 292.806 261.523 290.415 261.523 287.466C261.523 284.516 259.132 282.125 256.182 282.125C253.233 282.125 250.842 284.516 250.842 287.466C250.842 290.415 253.233 292.806 256.182 292.806Z" fill="#9098D9"/>
<path d="M348.555 422.955L339.235 422.954L334.801 387.001L348.558 387.002L348.555 422.955Z" fill="#FFB8B8"/>
<path d="M348.884 432.678L320.221 432.677V432.314C320.221 429.356 321.396 426.518 323.489 424.426C325.581 422.334 328.418 421.158 331.377 421.158L336.614 417.186L346.382 421.159L348.884 421.159L348.884 432.678Z" fill="#2C3475"/>
<path d="M414.507 422.955L423.828 422.954L428.262 387.001L414.505 387.002L414.507 422.955Z" fill="#FFB8B8"/>
<path d="M414.178 432.678L442.841 432.677V432.314C442.841 429.356 441.666 426.518 439.573 424.426C437.481 422.334 434.644 421.158 431.685 421.158L426.448 417.186L416.68 421.159L414.178 421.159L414.178 432.678Z" fill="#2C3475"/>
<path d="M334.39 360.582C334.528 358.53 335.622 347.185 335.622 347.185L338.244 323.125L342.865 259.346L343.166 255.171L367.371 250.524L383.913 242.594L403.576 248.879L418.886 254.621C418.886 254.621 418.913 257.078 419.031 260.047C419.188 263.934 419.463 268.699 420.118 269.938C421.213 272.127 420.938 283.878 420.938 283.878C420.938 283.878 422.026 307.788 423.396 310.41C424.765 313.031 425.041 318.491 424.628 319.585C424.215 320.68 425.998 349.394 425.998 349.394C425.998 349.394 430.573 400.207 427.702 407.868C424.832 415.53 413.984 410.511 413.984 410.511C413.984 410.511 414.508 408.467 411.362 407.503C408.216 406.54 398.634 334.49 398.634 334.49C398.634 334.49 396.851 319.716 395.213 315.483C393.574 311.249 392.067 299.353 392.067 299.353C392.067 299.353 381.947 279.664 381.816 275.286C381.816 275.286 380.492 271.189 379.24 275.699C377.988 280.208 374.298 291.009 374.298 291.009L370.7 304.275L366.466 324.095L363.726 340.782C363.726 340.782 359.624 362.928 358.968 363.885C358.313 364.842 358.968 385.075 358.968 385.075C358.968 385.075 355.796 402.306 351.313 405.314C346.83 408.322 334.952 405.362 334.952 405.362C334.952 405.362 334.252 362.633 334.39 360.582Z" fill="#2C3475"/>
<path d="M344.716 197.002L350.098 213.211L343.458 221.115L346.382 224.124L344.225 228.377L338.602 272.959L369.432 284.651L379.814 271.634L388.001 284.651L423.675 275.934L414.577 219.084V215.367L412.009 208.19V192.998L418.792 147.774L398.546 140.682L388.865 133.021L385.733 143.796L372.395 141.424L372.048 133.328L361.843 142.97L353.249 145.421L342.96 147.774L341.649 151.051L344.27 150.396L343.845 193.031L344.716 197.002Z" fill="#2C3475"/>
<path d="M335.501 256.307L340.679 206.188L342.045 185.56L327.552 182.939C327.552 182.939 328.127 197.689 326.228 206.01C324.354 214.222 325.979 255.207 326.095 256.303C325.031 257.255 324.28 258.507 323.943 259.895C323.606 261.282 323.698 262.739 324.208 264.073C324.717 265.407 325.619 266.555 326.794 267.366C327.97 268.176 329.364 268.61 330.792 268.61C332.22 268.611 333.614 268.178 334.791 267.369C335.967 266.56 336.87 265.413 337.381 264.08C337.891 262.746 337.985 261.289 337.649 259.901C337.313 258.513 336.564 257.26 335.501 256.307Z" fill="#FFB8B8"/>
<path d="M321.364 216.573L325.394 217.406L339.224 220.27L339.99 220.427L341.622 213.938L343.517 211.92L347.121 193.031L347.311 192.048L352.758 180.407L356.526 145.421L342.513 147.938C342.441 148.01 342.376 148.089 342.31 148.167C340.298 150.448 338.863 153.62 336.516 156.812C328.881 167.201 323.022 192.441 323.251 206.27C323.258 206.493 323.028 206.735 322.753 206.984C321.454 208.179 320.606 209.785 320.353 211.532C320.1 213.278 320.457 215.059 321.364 216.573Z" fill="#2C3475"/>
<path d="M425.594 256.307L420.417 206.188L419.05 185.56L433.543 182.939C433.543 182.939 432.969 197.689 434.867 206.01C436.741 214.222 435.116 255.207 435 256.303C436.064 257.255 436.815 258.507 437.152 259.895C437.489 261.282 437.397 262.739 436.888 264.073C436.378 265.407 435.476 266.555 434.301 267.366C433.125 268.176 431.731 268.61 430.303 268.61C428.875 268.611 427.481 268.178 426.304 267.369C425.128 266.56 424.225 265.413 423.714 264.08C423.204 262.746 423.11 261.289 423.446 259.901C423.782 258.513 424.531 257.26 425.594 256.307Z" fill="#FFB8B8"/>
<path d="M439.732 216.573L435.702 217.406L421.872 220.27L421.105 220.427L419.473 213.938L417.579 211.92L413.974 193.031L413.784 192.048L408.338 180.407L409.583 145.421L418.582 147.938C418.654 148.01 418.72 148.089 418.786 148.167C420.798 150.448 422.233 153.62 424.579 156.812C432.215 167.201 438.074 192.441 437.845 206.27C437.838 206.493 438.068 206.735 438.343 206.984C439.642 208.179 440.49 209.785 440.743 211.532C440.996 213.278 440.639 215.059 439.732 216.573Z" fill="#2C3475"/>
<path d="M365.463 150.598L372.047 133.329L388.865 133.021L394.446 150.598L414.505 262.653C414.505 262.653 353.052 279.766 353.676 259.195C354.331 237.566 357.288 208.836 357.288 208.836L365.463 150.598Z" fill="#FCF670"/>
<path d="M380.08 128.498C391.022 128.498 399.892 119.628 399.892 108.687C399.892 97.745 391.022 88.875 380.08 88.875C369.139 88.875 360.269 97.745 360.269 108.687C360.269 119.628 369.139 128.498 380.08 128.498Z" fill="#FFB8B8"/>
<path d="M359.101 94.3145C362.326 90.8039 366.36 84.3777 378.58 81.6792C393.679 78.3448 400.814 91.985 397.007 92.2086C408.141 95.5803 400.988 118.622 397.796 116.69C397.769 116.67 397.743 116.65 397.717 116.628C396.001 115.364 394.56 113.763 393.483 111.923C392.406 110.083 391.715 108.043 391.453 105.927L390.847 100.474C390.76 104.911 386.226 105.498 381.594 103.864C381.867 102.891 382.39 102.007 383.11 101.298C383.83 100.589 384.723 100.08 385.7 99.821C382.47 102.749 378.368 104.533 374.025 104.901C374.253 103.79 374.715 102.741 375.382 101.823C376.048 100.906 376.904 100.142 377.89 99.5828L377.707 99.4032C375.898 100.929 373.821 102.105 371.582 102.871C369.029 103.603 365.969 103.207 364.219 101.208C363.748 100.657 363.392 100.016 363.173 99.3248C363.551 102.838 361.194 106.849 359.364 106.16C357.841 105.864 356.953 96.6516 359.101 94.3145Z" fill="#2F2E41"/>
<path d="M500.191 432.676C500.192 432.807 500.166 432.936 500.116 433.057C500.066 433.178 499.993 433.288 499.901 433.38C499.808 433.472 499.699 433.546 499.578 433.595C499.457 433.645 499.327 433.671 499.197 433.67H264.99C264.727 433.67 264.474 433.566 264.287 433.379C264.101 433.193 263.996 432.94 263.996 432.676C263.996 432.412 264.101 432.159 264.287 431.973C264.474 431.786 264.727 431.682 264.99 431.682H499.197C499.327 431.681 499.457 431.707 499.578 431.757C499.699 431.806 499.808 431.88 499.901 431.972C499.993 432.064 500.066 432.174 500.116 432.295C500.166 432.416 500.192 432.545 500.191 432.676Z" fill="#CCCCCC"/>
<path d="M236.294 351.773C281.027 351.773 317.291 315.51 317.291 270.777C317.291 226.044 281.027 189.781 236.294 189.781C191.561 189.781 155.298 226.044 155.298 270.777C155.298 315.51 191.561 351.773 236.294 351.773Z" fill="#9098D9"/>
<path d="M236.182 299.037C242.573 299.037 247.753 293.856 247.753 287.466C247.753 281.075 242.573 275.895 236.182 275.895C229.792 275.895 224.611 281.075 224.611 287.466C224.611 293.856 229.792 299.037 236.182 299.037Z" fill="#2C3475"/>
<path d="M257.662 313.223H214.927C210.695 313.218 206.638 311.535 203.646 308.543C200.654 305.551 198.971 301.494 198.966 297.263V277.669C198.971 273.437 200.654 269.38 203.646 266.388C206.638 263.396 210.695 261.713 214.927 261.708H257.662C261.894 261.713 265.95 263.396 268.943 266.388C271.935 269.38 273.618 273.437 273.623 277.669V297.263C273.618 301.494 271.935 305.551 268.942 308.543C265.95 311.535 261.893 313.218 257.662 313.223ZM214.927 263.379C211.138 263.383 207.506 264.89 204.827 267.569C202.148 270.248 200.641 273.88 200.637 277.669V297.263C200.641 301.051 202.148 304.683 204.827 307.362C207.506 310.041 211.138 311.548 214.927 311.552H257.662C261.45 311.548 265.083 310.041 267.761 307.362C270.44 304.683 271.947 301.051 271.951 297.263V277.669C271.947 273.88 270.44 270.248 267.761 267.569C265.083 264.89 261.45 263.383 257.662 263.379L214.927 263.379Z" fill="white"/>
<path d="M212.395 302.587H250.327C252.296 302.587 254.246 302.199 256.065 301.446C257.884 300.692 259.536 299.588 260.928 298.196C262.321 296.804 263.425 295.151 264.178 293.332C264.932 291.513 265.32 289.563 265.32 287.594V271.197C265.317 269.379 264.982 267.576 264.331 265.879C266.181 267.272 267.683 269.076 268.717 271.149C269.751 273.222 270.289 275.507 270.289 277.823V294.22C270.289 296.189 269.901 298.139 269.148 299.958C268.395 301.777 267.29 303.43 265.898 304.822C264.506 306.214 262.853 307.318 261.034 308.072C259.215 308.825 257.266 309.213 255.297 309.213H217.365C214.325 309.211 211.357 308.285 208.856 306.557C206.355 304.829 204.439 302.382 203.361 299.539C205.958 301.517 209.132 302.587 212.395 302.587Z" fill="#2C3475"/>
<path d="M236.952 226.86C229.03 226.86 222.067 230.446 218.124 235.83C222.339 232.762 227.428 231.13 232.641 231.172C244.908 231.172 254.889 239.765 254.889 250.328V259.108H259.201V246.016C259.201 235.454 249.22 226.86 236.952 226.86Z" fill="#2C3475"/>
<path d="M262.163 263.602H210.425V248.379C210.425 236.098 222.03 226.106 236.294 226.106C250.558 226.106 262.163 236.098 262.163 248.379V263.602ZM212.096 261.931H260.491V248.379C260.491 237.019 249.637 227.777 236.294 227.777C222.951 227.777 212.096 237.019 212.096 248.379V261.931Z" fill="white"/>
<path d="M249.544 257.79H223.043C221.851 257.789 220.708 257.315 219.865 256.472C219.022 255.629 218.548 254.485 218.547 253.293V247.235C218.547 238.789 226.508 231.917 236.294 231.917C246.079 231.917 254.041 238.789 254.041 247.235V253.293C254.039 254.485 253.565 255.629 252.722 256.472C251.879 257.315 250.736 257.789 249.544 257.79ZM236.294 233.589C227.429 233.589 220.218 239.71 220.218 247.235V253.293C220.219 254.042 220.517 254.761 221.046 255.29C221.576 255.82 222.294 256.118 223.043 256.119H249.544C250.293 256.118 251.011 255.82 251.541 255.29C252.071 254.761 252.369 254.042 252.369 253.293V247.235C252.369 239.71 245.158 233.589 236.294 233.589Z" fill="white"/>
<path d="M244.182 136.372C261.774 129.378 270.366 109.447 263.372 91.8541C256.378 74.2616 236.447 65.6699 218.854 72.664C201.262 79.6581 192.67 99.5894 199.664 117.182C206.658 134.774 226.589 143.366 244.182 136.372Z" fill="#9098D9"/>
<path d="M235.892 115.649C238.405 114.65 239.633 111.803 238.634 109.29C237.635 106.777 234.787 105.549 232.274 106.548C229.761 107.547 228.533 110.395 229.533 112.908C230.532 115.421 233.379 116.649 235.892 115.649Z" fill="#2C3475"/>
<path d="M246.558 117.87L229.751 124.552C228.086 125.212 226.227 125.184 224.583 124.475C222.938 123.766 221.642 122.434 220.978 120.771L217.915 113.065C217.255 111.4 217.283 109.541 217.992 107.897C218.7 106.252 220.033 104.956 221.696 104.292L238.503 97.6105C240.168 96.9508 242.027 96.9785 243.671 97.6874C245.316 98.3963 246.612 99.7287 247.276 101.392L250.339 109.098C250.999 110.763 250.971 112.621 250.262 114.266C249.553 115.911 248.221 117.207 246.558 117.87ZM221.958 104.949C220.468 105.543 219.275 106.704 218.641 108.176C218.006 109.649 217.981 111.313 218.572 112.804L221.635 120.509C222.23 121.999 223.39 123.191 224.862 123.826C226.335 124.461 227.999 124.485 229.489 123.895L246.296 117.213C247.785 116.619 248.978 115.458 249.613 113.986C250.248 112.514 250.272 110.85 249.682 109.359L246.618 101.653C246.024 100.164 244.864 98.9713 243.391 98.3366C241.919 97.7018 240.255 97.6771 238.764 98.2677L221.958 104.949Z" fill="white"/>
<path d="M227.093 120.765L242.011 114.834C242.785 114.526 243.491 114.069 244.089 113.488C244.686 112.908 245.164 112.215 245.494 111.45C245.823 110.684 245.999 109.862 246.011 109.029C246.023 108.195 245.871 107.368 245.563 106.594L242.999 100.145C242.714 99.4305 242.3 98.774 241.779 98.208C242.724 98.4667 243.597 98.9415 244.328 99.5951C245.058 100.249 245.627 101.063 245.99 101.974L248.553 108.423C248.861 109.197 249.013 110.024 249.002 110.858C248.99 111.691 248.814 112.513 248.484 113.279C248.154 114.044 247.677 114.736 247.079 115.317C246.482 115.898 245.776 116.355 245.001 116.663L230.083 122.594C228.888 123.068 227.576 123.168 226.322 122.88C225.068 122.591 223.932 121.928 223.064 120.979C224.394 121.35 225.81 121.275 227.093 120.765Z" fill="#2C3475"/>
<path d="M224.91 87.1436C221.795 88.3822 219.617 90.8814 218.908 93.615C220.086 91.7496 221.832 90.3118 223.889 89.5135C228.713 87.5954 233.982 89.4145 235.634 93.5686L237.006 97.0216L238.702 96.3475L236.655 91.1987C235.004 87.0446 229.735 85.2255 224.91 87.1436Z" fill="#2C3475"/>
<path d="M240.57 97.6517L220.222 105.741L217.842 99.7543C215.922 94.9242 218.924 89.1802 224.533 86.95C230.143 84.7198 236.269 86.8349 238.189 91.665L240.57 97.6517ZM220.618 104.822L239.651 97.2558L237.532 91.9263C235.756 87.4585 230.042 85.521 224.795 87.6072C219.547 89.6934 216.723 95.0253 218.499 99.493L220.618 104.822Z" fill="white"/>
<path d="M234.698 97.3389L224.276 101.482C223.807 101.668 223.283 101.66 222.82 101.461C222.357 101.261 221.991 100.885 221.805 100.417L220.857 98.0343C219.537 94.7125 221.593 90.7654 225.442 89.2354C229.29 87.7054 233.496 89.1631 234.816 92.4848L235.763 94.8673C235.949 95.3364 235.942 95.86 235.742 96.3234C235.542 96.7868 235.167 97.152 234.698 97.3389ZM225.703 89.8926C222.217 91.2785 220.338 94.8136 221.515 97.773L222.462 100.156C222.579 100.45 222.809 100.686 223.1 100.811C223.391 100.937 223.72 100.942 224.015 100.825L234.437 96.6817C234.731 96.5642 234.967 96.3347 235.093 96.0436C235.218 95.7524 235.223 95.4233 235.106 95.1286L234.159 92.7461C232.982 89.7866 229.189 88.5067 225.703 89.8926Z" fill="white"/>
<path d="M64.0187 126.784C76.6385 121.767 82.8017 107.47 77.7845 94.8501C72.7674 82.2303 58.4699 76.0671 45.8501 81.0843C33.2303 86.1014 27.0672 100.399 32.0843 113.019C37.1014 125.638 51.399 131.802 64.0187 126.784Z" fill="#9098D9"/>
<path d="M58.0725 111.919C59.8753 111.203 60.7557 109.16 60.039 107.357C59.3223 105.555 57.2798 104.674 55.4769 105.391C53.6741 106.108 52.7937 108.15 53.5104 109.953C54.2271 111.756 56.2696 112.636 58.0725 111.919Z" fill="#2C3475"/>
<path d="M65.7227 113.512L53.6666 118.305C52.4723 118.779 51.139 118.759 49.9593 118.25C48.7795 117.742 47.8497 116.786 47.3737 115.593L45.1761 110.065C44.7029 108.871 44.7227 107.538 45.2312 106.358C45.7398 105.178 46.6955 104.248 47.8888 103.772L59.9449 98.9793C61.1393 98.5061 62.4725 98.5259 63.6523 99.0345C64.832 99.543 65.7618 100.499 66.2378 101.692L68.4353 107.22C68.9086 108.414 68.8887 109.747 68.3802 110.927C67.8716 112.107 66.9159 113.036 65.7227 113.512ZM48.0762 104.244C47.0079 104.67 46.1522 105.502 45.6969 106.559C45.2416 107.615 45.2239 108.809 45.6476 109.878L47.8452 115.406C48.2713 116.474 49.1038 117.329 50.16 117.785C51.2162 118.24 52.4099 118.258 53.4791 117.834L65.5353 113.041C66.6036 112.615 67.4592 111.782 67.9145 110.726C68.3698 109.67 68.3876 108.476 67.9639 107.407L65.7663 101.879C65.3402 100.811 64.5077 99.9555 63.4515 99.5002C62.3953 99.0448 61.2016 99.0271 60.1324 99.4508L48.0762 104.244Z" fill="white"/>
<path d="M51.7602 115.589L62.4613 111.335C63.0167 111.114 63.5232 110.786 63.9519 110.369C64.3805 109.953 64.7229 109.456 64.9595 108.907C65.1961 108.358 65.3223 107.768 65.3309 107.17C65.3394 106.572 65.2301 105.979 65.0093 105.423L63.1703 100.798C62.9655 100.285 62.6688 99.8141 62.2947 99.4081C62.9731 99.5936 63.5991 99.9342 64.1233 100.403C64.6475 100.872 65.0556 101.456 65.3154 102.11L67.1545 106.735C67.3753 107.291 67.4845 107.884 67.476 108.482C67.4674 109.08 67.3413 109.67 67.1047 110.219C66.868 110.768 66.5256 111.265 66.097 111.681C65.6683 112.098 65.1618 112.426 64.6064 112.647L53.9053 116.901C53.0476 117.241 52.1065 117.313 51.2071 117.106C50.3077 116.899 49.4925 116.423 48.8698 115.742C49.8241 116.009 50.8395 115.955 51.7602 115.589Z" fill="#2C3475"/>
<path d="M50.1948 91.471C47.9599 92.3595 46.3976 94.1523 45.8891 96.1132C46.7341 94.7751 47.9866 93.7437 49.462 93.1711C52.9228 91.7951 56.7023 93.1001 57.887 96.08L58.8717 98.5569L60.0882 98.0733L58.6198 94.3799C57.4351 91.4001 53.6556 90.0951 50.1948 91.471Z" fill="#2C3475"/>
<path d="M61.4273 99.0089L46.8314 104.812L45.1241 100.517C43.7466 97.0524 45.8998 92.932 49.9239 91.3321C53.948 89.7323 58.3425 91.2496 59.72 94.7144L61.4273 99.0089ZM47.1155 104.153L60.7684 98.7249L59.2485 94.9019C57.9744 91.697 53.8755 90.3071 50.1114 91.8036C46.3472 93.3001 44.3214 97.1248 45.5956 100.33L47.1155 104.153Z" fill="white"/>
<path d="M57.2161 98.7846L49.74 101.757C49.4035 101.89 49.0278 101.885 48.6955 101.741C48.3631 101.598 48.1011 101.329 47.967 100.992L47.2876 99.2834C46.3403 96.9006 47.8156 94.0691 50.5762 92.9716C53.3368 91.8741 56.3535 92.9197 57.3008 95.3026L57.9803 97.0116C58.1136 97.3481 58.108 97.7237 57.9648 98.0561C57.8215 98.3885 57.5523 98.6505 57.2161 98.7846ZM50.7636 93.4431C48.2629 94.4372 46.9151 96.973 47.759 99.096L48.4385 100.805C48.5227 101.016 48.6873 101.186 48.8962 101.276C49.105 101.366 49.3411 101.369 49.5525 101.285L57.0286 98.3131C57.2399 98.2288 57.4091 98.0642 57.4991 97.8554C57.5891 97.6465 57.5926 97.4105 57.5088 97.199L56.8293 95.49C55.9853 93.367 53.2643 92.4489 50.7636 93.4431Z" fill="white"/>
<path d="M380.289 111.709C380.289 112.57 379.729 113.24 379.155 113.199C378.581 113.158 378.185 112.42 378.239 111.559C378.294 110.698 378.813 110.028 379.374 110.069C379.934 110.11 380.344 110.834 380.289 111.709Z" fill="#263238"/>
<path d="M370.515 111.026C370.447 111.887 369.941 112.556 369.381 112.515C368.82 112.474 368.41 111.736 368.465 110.875C368.52 110.014 369.039 109.344 369.599 109.385C370.16 109.426 370.57 110.205 370.515 111.026Z" fill="#263238"/>
<path d="M373.592 111.668C372.378 114.24 370.814 116.632 368.945 118.775C369.509 119.241 370.169 119.578 370.877 119.762C371.585 119.946 372.325 119.973 373.045 119.841L373.592 111.668Z" fill="#D89090"/>
<path d="M383.54 108.757C383.447 108.763 383.354 108.745 383.27 108.705C383.186 108.664 383.115 108.602 383.062 108.524C382.726 107.982 382.269 107.525 381.725 107.191C381.182 106.856 380.568 106.653 379.932 106.597C379.798 106.597 379.67 106.544 379.575 106.449C379.48 106.354 379.427 106.226 379.427 106.092C379.427 105.958 379.48 105.829 379.575 105.734C379.67 105.639 379.798 105.586 379.932 105.586C380.737 105.636 381.518 105.877 382.21 106.291C382.902 106.705 383.485 107.279 383.91 107.964C383.948 108.019 383.975 108.082 383.989 108.148C384.003 108.214 384.004 108.282 383.991 108.348C383.978 108.414 383.952 108.477 383.915 108.534C383.877 108.59 383.829 108.638 383.773 108.675C383.7 108.714 383.622 108.742 383.54 108.757Z" fill="#263238"/>
<path d="M376.806 124.064C378.059 124.041 379.289 123.715 380.391 123.116C381.492 122.516 382.433 121.66 383.133 120.62C383.153 120.59 383.166 120.556 383.171 120.521C383.177 120.485 383.175 120.449 383.166 120.415C383.157 120.38 383.141 120.347 383.119 120.319C383.097 120.291 383.069 120.268 383.038 120.251C383.008 120.232 382.974 120.219 382.938 120.213C382.903 120.207 382.867 120.209 382.832 120.218C382.798 120.227 382.765 120.243 382.737 120.265C382.709 120.287 382.686 120.315 382.669 120.347C382.001 121.296 381.12 122.077 380.098 122.628C379.075 123.178 377.939 123.483 376.778 123.517C376.742 123.517 376.706 123.525 376.672 123.539C376.639 123.554 376.609 123.576 376.584 123.603C376.56 123.63 376.541 123.662 376.53 123.697C376.519 123.731 376.515 123.768 376.519 123.804C376.518 123.841 376.526 123.877 376.541 123.911C376.555 123.944 376.577 123.974 376.604 123.998C376.631 124.023 376.663 124.041 376.698 124.053C376.732 124.064 376.769 124.068 376.806 124.064Z" fill="#263238"/>
<path d="M366.569 107.363C366.475 107.372 366.381 107.355 366.295 107.315C366.21 107.274 366.138 107.211 366.086 107.132C366.034 107.054 366.004 106.962 366 106.868C365.996 106.774 366.018 106.68 366.063 106.598C366.45 105.887 367.003 105.281 367.673 104.829C368.344 104.377 369.114 104.093 369.917 104.001C369.984 103.997 370.05 104.007 370.113 104.029C370.176 104.051 370.234 104.085 370.283 104.129C370.333 104.174 370.373 104.228 370.402 104.288C370.43 104.348 370.447 104.413 370.45 104.479C370.454 104.612 370.407 104.742 370.318 104.841C370.229 104.94 370.105 105.002 369.972 105.012C369.339 105.103 368.737 105.341 368.212 105.706C367.688 106.072 367.256 106.555 366.952 107.117C366.911 107.184 366.855 107.241 366.789 107.284C366.722 107.327 366.647 107.354 366.569 107.363Z" fill="#263238"/>
</g>
<defs>
<clipPath id="clip0_465_21124">
<rect width="500" height="470" fill="white"/>
</clipPath>
</defs>
</svg>
