<svg width="470" height="390" viewBox="0 0 470 390" fill="none" xmlns="http://www.w3.org/2000/svg">
<g clip-path="url(#clip0_556_12621)">
<path fill-rule="evenodd" clip-rule="evenodd" d="M318.408 78.0237C397.84 124.951 474.878 193.07 464.84 269.845C454.714 347.285 367.008 380.149 278.924 380.004C199.467 379.874 123.174 336.266 79.8745 269.211C26.0696 185.888 -19.0763 79.0742 49.2432 24.3153C117.018 -30.0069 229.317 25.3895 318.408 78.0237Z" fill="#E7E7FF" fill-opacity="0.4"/>
<path d="M364.461 218.991C364.858 218.873 365.264 218.787 365.674 218.732L382.058 185.603L377.056 178.141L387.386 169.156L400.373 184.97L373.924 223.276C374.575 224.724 374.767 226.336 374.475 227.896C374.183 229.456 373.42 230.89 372.289 232.009C371.158 233.127 369.711 233.876 368.142 234.156C366.572 234.436 364.954 234.234 363.503 233.577C362.051 232.92 360.835 231.839 360.017 230.477C359.198 229.115 358.815 227.538 358.919 225.954C359.023 224.371 359.609 222.857 360.599 221.613C361.589 220.369 362.936 219.454 364.461 218.991Z" fill="#FFB8B8"/>
<path d="M392.432 173.733C392.208 173.967 391.952 174.168 391.671 174.329L374.908 184C374.505 184.232 374.058 184.379 373.595 184.431C373.132 184.483 372.664 184.438 372.219 184.301C371.774 184.163 371.363 183.935 371.012 183.631C370.66 183.327 370.376 182.954 370.176 182.535L362.023 165.394C361.676 164.672 361.602 163.851 361.813 163.079C362.024 162.308 362.507 161.637 363.174 161.191L373.565 154.156C374.214 153.717 374.996 153.517 375.777 153.591C376.558 153.665 377.289 154.008 377.843 154.561L392.368 169.066C392.985 169.683 393.338 170.515 393.35 171.386C393.362 172.258 393.032 173.099 392.432 173.733Z" fill="#FCF670"/>
<path d="M415.969 363.569L407.118 365.966L393.617 333.134L406.68 329.597L415.969 363.569Z" fill="#FFB8B8"/>
<path d="M400.107 365.161L417.176 360.54L420.1 371.235L392.284 378.766C391.899 377.362 391.797 375.896 391.983 374.452C392.168 373.008 392.637 371.615 393.364 370.352C394.09 369.088 395.059 367.98 396.216 367.089C397.373 366.199 398.695 365.543 400.107 365.161Z" fill="#2F2E41"/>
<path d="M340.305 370.29L331.134 370.289L326.77 335.081L340.307 335.082L340.305 370.29Z" fill="#FFB8B8"/>
<path d="M324.579 367.682H342.269V378.766H313.441C313.441 377.31 313.729 375.869 314.289 374.524C314.849 373.179 315.669 371.957 316.704 370.928C317.738 369.899 318.966 369.082 320.317 368.525C321.668 367.968 323.117 367.682 324.579 367.682Z" fill="#2F2E41"/>
<path d="M349.97 142.468C360.118 142.468 368.346 134.281 368.346 124.181C368.346 114.082 360.118 105.895 349.97 105.895C339.821 105.895 331.594 114.082 331.594 124.181C331.594 134.281 339.821 142.468 349.97 142.468Z" fill="#FFB8B8"/>
<path d="M339.742 345.187H327.207C326.35 345.186 325.526 344.86 324.901 344.276C324.277 343.692 323.899 342.894 323.843 342.043C320.108 282.955 322.293 240.57 330.719 208.656C330.756 208.516 330.801 208.379 330.855 208.245L331.527 206.575C331.775 205.952 332.206 205.418 332.763 205.042C333.321 204.666 333.979 204.467 334.653 204.469H360.429C360.915 204.468 361.395 204.573 361.836 204.775C362.277 204.977 362.669 205.271 362.985 205.639L366.486 209.704C366.555 209.783 366.618 209.864 366.68 209.949C382.467 231.858 396.615 274.69 413.001 332.261C413.243 333.098 413.147 333.995 412.734 334.762C412.32 335.53 411.622 336.106 410.788 336.368L397.317 340.658C396.544 340.9 395.708 340.858 394.964 340.54C394.219 340.221 393.614 339.647 393.258 338.922L358.301 266.77C358.057 266.266 357.656 265.854 357.157 265.594C356.659 265.334 356.09 265.241 355.534 265.329C354.978 265.416 354.466 265.679 354.072 266.079C353.678 266.479 353.425 266.994 353.348 267.549L343.077 342.29C342.965 343.092 342.565 343.826 341.952 344.358C341.34 344.89 340.555 345.184 339.742 345.187Z" fill="#9098D9"/>
<path d="M365.074 210.002C365.039 210.002 365.004 210.001 364.969 210.001L333.659 209.017C332.854 208.994 332.084 208.685 331.489 208.144C330.895 207.604 330.515 206.869 330.42 206.073C326.451 174.101 337.336 165.536 342.201 163.338C342.607 163.155 342.959 162.872 343.223 162.514C343.487 162.156 343.653 161.736 343.706 161.296L344.127 157.944C344.199 157.353 344.429 156.791 344.792 156.317C352.419 146.485 362.833 143.337 368.362 142.336C368.81 142.256 369.27 142.267 369.714 142.369C370.158 142.472 370.576 142.662 370.944 142.931C371.311 143.199 371.62 143.538 371.852 143.929C372.083 144.319 372.233 144.752 372.291 145.202L372.921 150.014C372.985 150.473 373.169 150.907 373.455 151.273C389.36 171.966 371.641 202.518 367.927 208.432C367.624 208.912 367.203 209.308 366.704 209.583C366.205 209.857 365.645 210.002 365.074 210.002Z" fill="#FCF670"/>
<path d="M387.045 126.241C382.946 120.497 378.03 115.375 372.452 111.037C367.815 107.432 362.653 104.353 356.958 102.879C351.262 101.406 344.973 101.657 339.777 104.405C334.581 107.153 329.209 112.613 329.176 118.469C329.166 120.35 329.646 122.895 331.508 122.57L332.047 122.641C336.537 121.738 341.028 120.836 345.519 119.933C347.432 126.539 349.344 133.144 351.257 139.75C351.66 141.142 352.201 142.699 353.529 143.292C354.78 143.851 356.226 143.325 357.491 142.799C357.699 142.712 359.488 138.718 359.488 138.718C359.532 138.593 359.61 138.482 359.712 138.397C359.814 138.312 359.937 138.255 360.069 138.234C360.2 138.212 360.335 138.225 360.459 138.272C360.584 138.32 360.693 138.399 360.776 138.503L361.839 139.824C362.042 140.077 362.322 140.256 362.637 140.336C362.951 140.417 363.284 140.392 363.584 140.268C370.907 137.226 378.231 134.183 385.554 131.141C386.566 130.72 387.698 130.171 387.991 129.12C388.272 128.112 387.653 127.093 387.045 126.241Z" fill="#2F2E41"/>
<path d="M469.23 379.436H244.029C243.831 379.436 243.641 379.358 243.5 379.218C243.36 379.079 243.281 378.889 243.281 378.692C243.281 378.494 243.36 378.305 243.5 378.165C243.641 378.026 243.831 377.947 244.029 377.947H469.23C469.428 377.947 469.618 378.026 469.759 378.165C469.899 378.305 469.978 378.494 469.978 378.692C469.978 378.889 469.899 379.079 469.759 379.218C469.618 379.358 469.428 379.436 469.23 379.436Z" fill="#A2A2A2"/>
<path d="M349.139 263.41C348.63 263.408 348.135 263.245 347.725 262.944L344.32 260.482C344.037 260.276 343.696 260.166 343.346 260.166C342.997 260.166 342.656 260.276 342.373 260.482L338.967 262.944C338.557 263.241 338.062 263.401 337.554 263.401C337.047 263.401 336.552 263.241 336.141 262.944C335.731 262.647 335.425 262.228 335.268 261.748C335.111 261.267 335.111 260.75 335.268 260.269L336.569 256.285C336.677 255.954 336.678 255.598 336.57 255.266C336.461 254.935 336.25 254.647 335.967 254.443L332.561 251.98C332.151 251.683 331.845 251.264 331.688 250.784C331.531 250.303 331.531 249.786 331.688 249.305C331.845 248.825 332.151 248.406 332.561 248.109C332.972 247.812 333.467 247.652 333.974 247.652H338.184C338.534 247.653 338.875 247.543 339.158 247.338C339.441 247.134 339.652 246.845 339.759 246.513L341.06 242.529C341.217 242.049 341.522 241.63 341.933 241.333C342.344 241.036 342.839 240.876 343.346 240.876C343.854 240.876 344.349 241.036 344.76 241.333C345.17 241.63 345.476 242.049 345.633 242.529L346.934 246.513C347.041 246.845 347.252 247.134 347.535 247.338C347.818 247.543 348.159 247.653 348.509 247.652H352.718C353.226 247.652 353.721 247.812 354.131 248.109C354.542 248.406 354.848 248.825 355.005 249.305C355.162 249.786 355.162 250.303 355.005 250.784C354.848 251.264 354.542 251.683 354.132 251.98L350.726 254.442C350.442 254.647 350.231 254.935 350.123 255.266C350.015 255.597 350.016 255.954 350.124 256.285L351.425 260.269C351.588 260.749 351.591 261.269 351.433 261.751C351.276 262.232 350.967 262.651 350.552 262.944C350.142 263.244 349.647 263.408 349.139 263.41Z" fill="#5E66A7"/>
<path d="M362.154 255.445C363.116 254.773 363.919 253.9 364.505 252.887C365.091 251.874 365.447 250.745 365.547 249.58C365.648 248.414 365.49 247.242 365.086 246.144C364.681 245.046 364.04 244.05 363.207 243.225L369.022 173.334L351.707 175.705L351.377 243.61C350.078 245.095 349.371 247.002 349.391 248.971C349.411 250.939 350.155 252.832 351.484 254.291C352.812 255.75 354.632 256.673 356.599 256.886C358.565 257.098 360.542 256.586 362.154 255.445Z" fill="#FFB8B8"/>
<path d="M370.152 183.399C369.827 183.399 369.505 183.352 369.193 183.26L350.604 177.82C350.158 177.689 349.743 177.467 349.386 177.169C349.03 176.871 348.74 176.502 348.534 176.086C348.328 175.67 348.211 175.217 348.191 174.754C348.17 174.29 348.246 173.828 348.415 173.396L355.294 155.71C355.581 154.963 356.128 154.344 356.836 153.965C357.544 153.586 358.365 153.473 359.149 153.647L371.43 156.304C372.197 156.47 372.881 156.897 373.365 157.512C373.849 158.126 374.102 158.89 374.08 159.67L373.509 180.139C373.484 181.01 373.12 181.837 372.494 182.446C371.867 183.054 371.027 183.396 370.152 183.399Z" fill="#FCF670"/>
<path d="M260.237 94.6359H31.7631C30.7654 94.6348 29.8089 94.2441 29.1034 93.5494C28.3979 92.8548 28.0011 91.913 28 90.9306V23.7053C28.0011 22.723 28.3979 21.7811 29.1034 21.0865C29.8089 20.3918 30.7654 20.0011 31.7631 20H260.237C261.235 20.0011 262.191 20.3918 262.897 21.0865C263.602 21.7811 263.999 22.723 264 23.7053V90.9306C263.999 91.913 263.602 92.8548 262.897 93.5494C262.191 94.2441 261.235 94.6348 260.237 94.6359ZM31.7631 21.0587C31.0505 21.0595 30.3673 21.3386 29.8634 21.8348C29.3595 22.3309 29.076 23.0036 29.0752 23.7053V90.9306C29.076 91.6323 29.3595 92.305 29.8634 92.8012C30.3673 93.2973 31.0505 93.5764 31.7631 93.5773H260.237C260.95 93.5765 261.633 93.2974 262.137 92.8012C262.641 92.305 262.924 91.6323 262.925 90.9306V23.7053C262.924 23.0036 262.641 22.3309 262.137 21.8347C261.633 21.3386 260.95 21.0595 260.237 21.0587H31.7631Z" fill="#5E66A7"/>
<path d="M131.665 123.495C131.211 123.493 130.77 123.349 130.405 123.083L127.368 120.909C127.116 120.727 126.812 120.629 126.5 120.629C126.188 120.629 125.884 120.727 125.632 120.909L122.596 123.083C122.229 123.346 121.788 123.487 121.336 123.487C120.883 123.487 120.442 123.346 120.076 123.083C119.709 122.821 119.437 122.451 119.297 122.027C119.157 121.603 119.157 121.145 119.297 120.721L120.457 117.202C120.554 116.91 120.554 116.595 120.458 116.302C120.361 116.01 120.173 115.755 119.92 115.574L116.884 113.4C116.517 113.137 116.245 112.767 116.105 112.343C115.965 111.919 115.965 111.461 116.105 111.037C116.245 110.613 116.517 110.243 116.884 109.98C117.25 109.718 117.691 109.577 118.144 109.577H121.897C122.209 109.577 122.513 109.48 122.766 109.3C123.018 109.119 123.206 108.864 123.301 108.571L124.461 105.052C124.601 104.628 124.874 104.258 125.24 103.995C125.606 103.733 126.047 103.592 126.5 103.592C126.953 103.592 127.394 103.733 127.76 103.995C128.126 104.258 128.399 104.628 128.539 105.052L129.699 108.571C129.795 108.864 129.982 109.119 130.235 109.3C130.487 109.48 130.791 109.577 131.103 109.577H134.856C135.309 109.577 135.75 109.718 136.116 109.98C136.483 110.243 136.755 110.613 136.895 111.037C137.035 111.461 137.035 111.919 136.895 112.343C136.755 112.767 136.483 113.137 136.116 113.4L133.08 115.574C132.827 115.755 132.639 116.01 132.543 116.302C132.446 116.595 132.446 116.91 132.543 117.202L133.703 120.721C133.848 121.145 133.851 121.604 133.711 122.029C133.57 122.455 133.295 122.824 132.925 123.083C132.559 123.349 132.118 123.493 131.665 123.495Z" fill="#5E66A7"/>
<path d="M161.919 123.495C161.487 123.493 161.066 123.349 160.719 123.083L157.826 120.909C157.587 120.727 157.297 120.629 157 120.629C156.703 120.629 156.413 120.727 156.173 120.909L153.281 123.083C152.933 123.346 152.513 123.487 152.081 123.487C151.65 123.487 151.23 123.346 150.881 123.083C150.533 122.821 150.273 122.451 150.14 122.027C150.006 121.603 150.006 121.145 150.14 120.721L151.244 117.202C151.337 116.91 151.337 116.595 151.245 116.302C151.153 116.01 150.974 115.755 150.734 115.574L147.841 113.4C147.493 113.137 147.233 112.767 147.1 112.343C146.967 111.919 146.967 111.461 147.1 111.037C147.233 110.613 147.493 110.243 147.842 109.98C148.19 109.718 148.61 109.577 149.042 109.577H152.616C152.913 109.577 153.203 109.48 153.443 109.3C153.684 109.119 153.862 108.864 153.954 108.571L155.058 105.052C155.191 104.628 155.451 104.258 155.8 103.995C156.149 103.733 156.569 103.592 157 103.592C157.431 103.592 157.851 103.733 158.2 103.995C158.549 104.258 158.808 104.628 158.942 105.052L160.046 108.571C160.138 108.864 160.316 109.119 160.557 109.3C160.797 109.48 161.087 109.577 161.384 109.577H164.958C165.39 109.577 165.81 109.718 166.158 109.98C166.507 110.243 166.767 110.613 166.9 111.037C167.033 111.461 167.033 111.919 166.9 112.343C166.767 112.767 166.507 113.137 166.159 113.4L163.266 115.574C163.026 115.755 162.847 116.01 162.755 116.302C162.663 116.595 162.663 116.91 162.756 117.202L163.86 120.721C163.998 121.145 164.001 121.604 163.867 122.029C163.734 122.455 163.471 122.824 163.119 123.083C162.771 123.349 162.351 123.493 161.919 123.495Z" fill="#5E66A7"/>
<path d="M192.665 123.495C192.211 123.493 191.77 123.349 191.405 123.083L188.368 120.909C188.116 120.728 187.812 120.63 187.5 120.63C187.188 120.63 186.884 120.728 186.632 120.909L183.595 123.083C183.229 123.346 182.788 123.487 182.336 123.487C181.883 123.487 181.442 123.346 181.076 123.083C180.709 122.821 180.437 122.451 180.297 122.027C180.157 121.603 180.157 121.145 180.297 120.721L181.457 117.202C181.553 116.91 181.554 116.595 181.457 116.302C181.361 116.01 181.173 115.755 180.92 115.574L177.884 113.4C177.517 113.137 177.245 112.767 177.105 112.343C176.965 111.919 176.965 111.461 177.105 111.037C177.245 110.613 177.517 110.243 177.884 109.98C178.25 109.718 178.691 109.577 179.144 109.577H182.897C183.209 109.577 183.513 109.48 183.765 109.3C184.018 109.119 184.205 108.864 184.301 108.571L185.461 105.052C185.601 104.628 185.874 104.258 186.24 103.995C186.606 103.733 187.047 103.592 187.5 103.592C187.953 103.592 188.394 103.733 188.76 103.995C189.126 104.258 189.399 104.628 189.539 105.052L190.699 108.571C190.795 108.864 190.982 109.119 191.235 109.3C191.487 109.48 191.791 109.577 192.103 109.577H195.856C196.309 109.577 196.75 109.718 197.116 109.98C197.483 110.243 197.755 110.613 197.895 111.037C198.035 111.461 198.035 111.919 197.895 112.343C197.755 112.767 197.483 113.137 197.116 113.4L194.08 115.574C193.827 115.755 193.639 116.01 193.543 116.302C193.446 116.595 193.447 116.91 193.544 117.202L194.703 120.721C194.848 121.145 194.851 121.604 194.711 122.029C194.57 122.455 194.295 122.824 193.925 123.083C193.56 123.349 193.118 123.493 192.665 123.495Z" fill="#5E66A7"/>
<path d="M239.437 123.495C238.949 123.493 238.474 123.338 238.081 123.053C237.682 122.774 237.385 122.376 237.234 121.918C237.083 121.46 237.086 120.967 237.242 120.51L238.379 117.064C238.461 116.818 238.461 116.554 238.38 116.308C238.299 116.063 238.141 115.849 237.928 115.697L234.952 113.567C234.557 113.285 234.264 112.887 234.113 112.43C233.962 111.974 233.962 111.482 234.113 111.025C234.264 110.568 234.557 110.17 234.952 109.888C235.346 109.606 235.821 109.454 236.308 109.454H239.988C240.25 109.454 240.505 109.373 240.718 109.221C240.93 109.069 241.087 108.855 241.168 108.61L242.305 105.163C242.455 104.706 242.749 104.308 243.143 104.026C243.538 103.744 244.013 103.592 244.5 103.592C244.988 103.592 245.463 103.744 245.857 104.026C246.251 104.308 246.545 104.706 246.695 105.163L247.832 108.61C247.913 108.855 248.071 109.069 248.283 109.221C248.495 109.373 248.75 109.454 249.012 109.454H252.692C253.179 109.454 253.654 109.606 254.048 109.888C254.443 110.17 254.736 110.568 254.887 111.025C255.038 111.482 255.038 111.974 254.887 112.43C254.736 112.887 254.443 113.285 254.049 113.567L251.072 115.697C250.859 115.849 250.701 116.063 250.62 116.308C250.539 116.554 250.54 116.818 250.621 117.064L251.758 120.51C251.909 120.967 251.909 121.459 251.758 121.916C251.607 122.372 251.314 122.77 250.919 123.052C250.525 123.335 250.05 123.487 249.563 123.487C249.075 123.487 248.6 123.335 248.206 123.052L245.229 120.922C245.017 120.77 244.762 120.688 244.5 120.688C244.238 120.688 243.983 120.77 243.771 120.922L240.794 123.052C240.401 123.338 239.926 123.493 239.437 123.495ZM244.5 119.636C244.988 119.636 245.463 119.788 245.857 120.071L248.833 122.202C249.045 122.353 249.301 122.435 249.563 122.435C249.825 122.435 250.08 122.353 250.292 122.202C250.504 122.05 250.662 121.836 250.743 121.591C250.824 121.345 250.824 121.081 250.743 120.835L249.606 117.389C249.454 116.932 249.454 116.44 249.604 115.983C249.755 115.526 250.049 115.128 250.444 114.847L253.421 112.716C253.633 112.564 253.791 112.351 253.872 112.105C253.952 111.86 253.952 111.595 253.872 111.35C253.791 111.105 253.633 110.891 253.421 110.739C253.209 110.587 252.954 110.506 252.692 110.506H249.012C248.525 110.507 248.049 110.355 247.655 110.073C247.26 109.79 246.967 109.392 246.817 108.935L245.68 105.488C245.599 105.242 245.441 105.029 245.229 104.877C245.017 104.725 244.762 104.643 244.5 104.643C244.238 104.643 243.983 104.725 243.771 104.877C243.559 105.029 243.401 105.242 243.32 105.488L242.183 108.935C242.033 109.392 241.74 109.79 241.345 110.073C240.951 110.355 240.476 110.507 239.988 110.506H236.308C236.046 110.506 235.791 110.587 235.579 110.739C235.367 110.891 235.209 111.105 235.128 111.35C235.047 111.595 235.047 111.86 235.128 112.105C235.209 112.351 235.367 112.564 235.579 112.716L238.556 114.847C238.951 115.128 239.245 115.526 239.396 115.983C239.546 116.44 239.546 116.932 239.394 117.389L238.257 120.835C238.176 121.081 238.176 121.345 238.257 121.591C238.338 121.836 238.496 122.05 238.708 122.202C238.92 122.353 239.175 122.435 239.437 122.435C239.699 122.435 239.954 122.353 240.166 122.202L243.143 120.071C243.537 119.788 244.012 119.636 244.5 119.636Z" fill="#A2A2A2"/>
<path d="M212.437 123.495C211.949 123.493 211.474 123.338 211.081 123.053C210.682 122.774 210.385 122.376 210.234 121.918C210.083 121.46 210.086 120.967 210.242 120.51L211.379 117.064C211.461 116.818 211.461 116.554 211.38 116.308C211.299 116.063 211.141 115.849 210.928 115.697L207.952 113.567C207.557 113.285 207.264 112.887 207.113 112.43C206.962 111.974 206.962 111.482 207.113 111.025C207.264 110.568 207.557 110.17 207.952 109.888C208.346 109.606 208.821 109.454 209.308 109.454H212.988C213.25 109.454 213.505 109.373 213.717 109.221C213.93 109.069 214.087 108.855 214.168 108.61L215.305 105.163C215.455 104.706 215.749 104.308 216.143 104.026C216.538 103.744 217.013 103.592 217.5 103.592C217.988 103.592 218.463 103.744 218.857 104.026C219.251 104.308 219.545 104.706 219.695 105.163L220.832 108.61C220.913 108.855 221.071 109.069 221.283 109.221C221.495 109.373 221.75 109.454 222.012 109.454H225.692C226.179 109.454 226.654 109.606 227.048 109.888C227.443 110.17 227.736 110.568 227.887 111.025C228.038 111.482 228.038 111.974 227.887 112.43C227.736 112.887 227.443 113.285 227.049 113.567L224.072 115.697C223.859 115.849 223.701 116.063 223.62 116.308C223.539 116.554 223.54 116.818 223.621 117.064L224.758 120.51C224.909 120.967 224.909 121.459 224.758 121.916C224.607 122.372 224.314 122.77 223.919 123.052C223.525 123.335 223.05 123.487 222.563 123.487C222.075 123.487 221.6 123.335 221.206 123.052L218.229 120.922C218.017 120.77 217.762 120.688 217.5 120.688C217.238 120.688 216.983 120.77 216.771 120.922L213.794 123.052C213.401 123.338 212.926 123.493 212.437 123.495ZM217.5 119.636C217.988 119.636 218.463 119.788 218.857 120.071L221.833 122.201C222.045 122.353 222.301 122.435 222.563 122.435C222.825 122.435 223.08 122.353 223.292 122.202C223.504 122.05 223.662 121.836 223.743 121.591C223.824 121.345 223.824 121.081 223.743 120.835L222.606 117.389C222.454 116.932 222.454 116.44 222.604 115.983C222.755 115.526 223.049 115.128 223.444 114.847L226.421 112.716C226.633 112.564 226.791 112.351 226.872 112.105C226.952 111.86 226.952 111.595 226.872 111.35C226.791 111.105 226.633 110.891 226.421 110.739C226.209 110.587 225.954 110.506 225.692 110.506H222.012C221.525 110.507 221.049 110.355 220.655 110.073C220.26 109.79 219.967 109.392 219.817 108.935L218.68 105.488C218.599 105.242 218.441 105.028 218.229 104.877C218.017 104.725 217.762 104.643 217.5 104.643C217.238 104.643 216.983 104.725 216.771 104.877C216.559 105.028 216.401 105.242 216.32 105.488L215.183 108.935C215.033 109.392 214.74 109.79 214.345 110.073C213.951 110.355 213.476 110.507 212.988 110.506H209.308C209.046 110.506 208.791 110.587 208.579 110.739C208.367 110.891 208.209 111.105 208.128 111.35C208.047 111.595 208.047 111.86 208.128 112.105C208.209 112.351 208.367 112.564 208.579 112.716L211.556 114.847C211.951 115.128 212.245 115.526 212.396 115.983C212.546 116.44 212.546 116.932 212.394 117.389L211.257 120.835C211.176 121.081 211.176 121.345 211.257 121.591C211.338 121.836 211.496 122.05 211.708 122.202C211.92 122.353 212.175 122.435 212.437 122.435C212.699 122.435 212.954 122.353 213.166 122.201L216.143 120.071C216.537 119.788 217.012 119.636 217.5 119.636Z" fill="#A2A2A2"/>
<path d="M57.4971 35.9219C56.5696 35.9219 55.6801 36.2888 55.0243 36.942C54.3684 37.5952 54 38.4811 54 39.4049C54 40.3286 54.3684 41.2146 55.0243 41.8677C55.6801 42.5209 56.5696 42.8879 57.4971 42.8879H234.503C235.43 42.8879 236.32 42.5209 236.976 41.8677C237.632 41.2146 238 40.3286 238 39.4049C238 38.4811 237.632 37.5952 236.976 36.942C236.32 36.2888 235.43 35.9219 234.503 35.9219H57.4971Z" fill="#FCF670"/>
<path d="M57.4971 53.835C56.5696 53.835 55.6801 54.2019 55.0243 54.8551C54.3684 55.5083 54 56.3942 54 57.318C54 58.2417 54.3684 59.1276 55.0243 59.7808C55.6801 60.434 56.5696 60.801 57.4971 60.801H234.503C235.43 60.801 236.32 60.434 236.976 59.7808C237.632 59.1276 238 58.2417 238 57.318C238 56.3942 237.632 55.5083 236.976 54.8551C236.32 54.2019 235.43 53.835 234.503 53.835H57.4971Z" fill="#FCF670"/>
<path d="M57.4971 71.748C56.5696 71.748 55.6801 72.115 55.0243 72.7682C54.3684 73.4214 54 74.3073 54 75.2311C54 76.1548 54.3684 77.0407 55.0243 77.6939C55.6801 78.3471 56.5696 78.7141 57.4971 78.7141H234.503C235.43 78.7141 236.32 78.3471 236.976 77.6939C237.632 77.0407 238 76.1548 238 75.2311C238 74.3073 237.632 73.4214 236.976 72.7682C236.32 72.115 235.43 71.748 234.503 71.748H57.4971Z" fill="#FCF670"/>
<path d="M302.237 221.019H73.7631C72.7654 221.018 71.8089 220.627 71.1034 219.932C70.3979 219.238 70.0011 218.296 70 217.313V150.088C70.0011 149.106 70.3979 148.164 71.1034 147.469C71.8089 146.775 72.7654 146.384 73.7631 146.383H302.237C303.235 146.384 304.191 146.775 304.897 147.469C305.602 148.164 305.999 149.106 306 150.088V217.313C305.999 218.296 305.602 219.238 304.897 219.932C304.191 220.627 303.235 221.018 302.237 221.019ZM73.7631 147.441C73.0505 147.442 72.3673 147.721 71.8634 148.218C71.3595 148.714 71.076 149.386 71.0752 150.088V217.313C71.076 218.015 71.3595 218.688 71.8634 219.184C72.3673 219.68 73.0505 219.959 73.7631 219.96H302.237C302.95 219.959 303.633 219.68 304.137 219.184C304.641 218.688 304.924 218.015 304.925 217.313V150.088C304.924 149.386 304.641 148.714 304.137 148.218C303.633 147.721 302.95 147.442 302.237 147.441H73.7631Z" fill="#5E66A7"/>
<path d="M252.665 249.878C252.211 249.876 251.77 249.732 251.405 249.466L248.368 247.291C248.116 247.11 247.812 247.012 247.5 247.012C247.188 247.012 246.884 247.11 246.632 247.291L243.596 249.466C243.229 249.728 242.788 249.87 242.336 249.87C241.883 249.87 241.442 249.729 241.076 249.466C240.709 249.204 240.437 248.834 240.297 248.41C240.157 247.985 240.157 247.528 240.297 247.104L241.457 243.585C241.554 243.293 241.554 242.977 241.458 242.685C241.361 242.392 241.173 242.138 240.92 241.957L237.884 239.782C237.517 239.52 237.245 239.15 237.105 238.726C236.965 238.301 236.965 237.844 237.105 237.42C237.245 236.995 237.517 236.626 237.884 236.363C238.25 236.101 238.691 235.96 239.144 235.96H242.897C243.209 235.96 243.513 235.863 243.766 235.682C244.018 235.502 244.206 235.247 244.301 234.954L245.461 231.435C245.601 231.011 245.874 230.641 246.24 230.378C246.606 230.116 247.047 229.975 247.5 229.975C247.953 229.975 248.394 230.116 248.76 230.378C249.126 230.641 249.399 231.011 249.539 231.435L250.699 234.954C250.795 235.247 250.982 235.502 251.235 235.682C251.487 235.863 251.791 235.96 252.103 235.96H255.856C256.309 235.96 256.75 236.101 257.116 236.363C257.483 236.626 257.755 236.995 257.895 237.42C258.035 237.844 258.035 238.301 257.895 238.726C257.755 239.15 257.483 239.52 257.116 239.782L254.08 241.957C253.827 242.138 253.639 242.392 253.543 242.685C253.446 242.977 253.446 243.293 253.543 243.585L254.703 247.104C254.848 247.528 254.851 247.987 254.711 248.412C254.57 248.838 254.295 249.207 253.925 249.466C253.559 249.732 253.118 249.876 252.665 249.878Z" fill="#5E66A7"/>
<path d="M163.919 249.878C163.487 249.876 163.066 249.732 162.719 249.466L159.826 247.291C159.587 247.11 159.297 247.012 159 247.012C158.703 247.012 158.413 247.11 158.173 247.291L155.281 249.466C154.933 249.729 154.513 249.87 154.081 249.87C153.65 249.87 153.23 249.729 152.881 249.466C152.533 249.204 152.273 248.834 152.14 248.41C152.006 247.985 152.006 247.528 152.14 247.104L153.244 243.585C153.337 243.293 153.337 242.977 153.245 242.685C153.153 242.392 152.974 242.138 152.734 241.957L149.841 239.782C149.493 239.52 149.233 239.15 149.1 238.726C148.967 238.301 148.967 237.844 149.1 237.42C149.233 236.995 149.493 236.626 149.842 236.363C150.19 236.101 150.61 235.96 151.042 235.96H154.616C154.913 235.96 155.203 235.863 155.443 235.682C155.684 235.502 155.862 235.247 155.954 234.954L157.058 231.435C157.191 231.011 157.451 230.641 157.8 230.378C158.149 230.116 158.569 229.975 159 229.975C159.431 229.975 159.851 230.116 160.2 230.378C160.549 230.641 160.808 231.011 160.942 231.435L162.046 234.954C162.138 235.247 162.316 235.502 162.557 235.682C162.797 235.863 163.087 235.96 163.384 235.96H166.958C167.39 235.96 167.81 236.101 168.158 236.363C168.507 236.626 168.767 236.995 168.9 237.42C169.033 237.844 169.033 238.301 168.9 238.726C168.767 239.15 168.507 239.52 168.159 239.782L165.266 241.957C165.026 242.138 164.847 242.392 164.755 242.685C164.663 242.977 164.663 243.293 164.756 243.585L165.86 247.104C165.998 247.528 166.001 247.987 165.867 248.412C165.734 248.838 165.471 249.207 165.119 249.466C164.771 249.732 164.351 249.876 163.919 249.878Z" fill="#5E66A7"/>
<path d="M194.665 249.878C194.211 249.876 193.77 249.732 193.405 249.466L190.368 247.291C190.116 247.11 189.812 247.013 189.5 247.013C189.188 247.013 188.884 247.11 188.632 247.291L185.595 249.466C185.229 249.729 184.788 249.87 184.336 249.87C183.883 249.87 183.442 249.729 183.076 249.466C182.709 249.204 182.437 248.834 182.297 248.41C182.157 247.985 182.157 247.528 182.297 247.104L183.457 243.585C183.553 243.293 183.554 242.977 183.457 242.685C183.361 242.392 183.173 242.138 182.92 241.957L179.884 239.782C179.517 239.52 179.245 239.15 179.105 238.726C178.965 238.301 178.965 237.844 179.105 237.42C179.245 236.995 179.517 236.626 179.884 236.363C180.25 236.101 180.691 235.96 181.144 235.96H184.897C185.209 235.96 185.513 235.863 185.765 235.682C186.018 235.502 186.205 235.247 186.301 234.954L187.461 231.435C187.601 231.011 187.874 230.641 188.24 230.378C188.606 230.116 189.047 229.975 189.5 229.975C189.953 229.975 190.394 230.116 190.76 230.378C191.126 230.641 191.399 231.011 191.539 231.435L192.699 234.954C192.795 235.247 192.982 235.502 193.235 235.682C193.487 235.863 193.791 235.96 194.103 235.96H197.856C198.309 235.96 198.75 236.101 199.116 236.363C199.483 236.626 199.755 236.995 199.895 237.42C200.035 237.844 200.035 238.301 199.895 238.726C199.755 239.15 199.483 239.52 199.116 239.782L196.08 241.957C195.827 242.138 195.639 242.392 195.543 242.685C195.446 242.977 195.447 243.293 195.544 243.585L196.703 247.104C196.848 247.528 196.851 247.987 196.711 248.412C196.57 248.838 196.295 249.207 195.925 249.466C195.56 249.732 195.118 249.876 194.665 249.878Z" fill="#5E66A7"/>
<path d="M222.665 249.878C222.211 249.876 221.77 249.732 221.405 249.466L218.368 247.291C218.116 247.11 217.812 247.013 217.5 247.013C217.188 247.013 216.884 247.11 216.632 247.291L213.595 249.466C213.229 249.729 212.788 249.87 212.336 249.87C211.883 249.87 211.442 249.729 211.076 249.466C210.709 249.204 210.437 248.834 210.297 248.41C210.157 247.985 210.157 247.528 210.297 247.104L211.457 243.585C211.553 243.293 211.554 242.977 211.457 242.685C211.361 242.392 211.173 242.138 210.92 241.957L207.884 239.782C207.517 239.52 207.245 239.15 207.105 238.726C206.965 238.301 206.965 237.844 207.105 237.42C207.245 236.995 207.517 236.626 207.884 236.363C208.25 236.101 208.691 235.96 209.144 235.96H212.897C213.209 235.96 213.513 235.863 213.765 235.682C214.018 235.502 214.205 235.247 214.301 234.954L215.461 231.435C215.601 231.011 215.874 230.641 216.24 230.378C216.606 230.116 217.047 229.975 217.5 229.975C217.953 229.975 218.394 230.116 218.76 230.378C219.126 230.641 219.399 231.011 219.539 231.435L220.699 234.954C220.795 235.247 220.982 235.502 221.235 235.682C221.487 235.863 221.791 235.96 222.103 235.96H225.856C226.309 235.96 226.75 236.101 227.116 236.363C227.483 236.626 227.755 236.995 227.895 237.42C228.035 237.844 228.035 238.301 227.895 238.726C227.755 239.15 227.483 239.52 227.116 239.782L224.08 241.957C223.827 242.138 223.639 242.392 223.543 242.685C223.446 242.977 223.447 243.293 223.544 243.585L224.703 247.104C224.848 247.528 224.851 247.987 224.711 248.412C224.57 248.838 224.295 249.207 223.925 249.466C223.56 249.732 223.118 249.876 222.665 249.878Z" fill="#5E66A7"/>
<path d="M270.437 249.878C269.949 249.876 269.474 249.721 269.081 249.435C268.682 249.157 268.385 248.759 268.234 248.301C268.083 247.843 268.086 247.349 268.242 246.893L269.379 243.446C269.461 243.201 269.461 242.937 269.38 242.691C269.299 242.445 269.141 242.232 268.928 242.08L265.952 239.95C265.557 239.668 265.264 239.27 265.113 238.813C264.962 238.356 264.962 237.864 265.113 237.408C265.264 236.951 265.557 236.553 265.952 236.271C266.346 235.989 266.821 235.837 267.308 235.837H270.988C271.25 235.837 271.505 235.756 271.717 235.604C271.93 235.452 272.087 235.238 272.168 234.992L273.305 231.546C273.455 231.089 273.749 230.691 274.143 230.409C274.538 230.127 275.013 229.975 275.5 229.975C275.988 229.975 276.463 230.127 276.857 230.409C277.251 230.691 277.545 231.089 277.695 231.546L278.832 234.992C278.913 235.238 279.071 235.452 279.283 235.604C279.495 235.756 279.75 235.837 280.012 235.837H283.692C284.179 235.837 284.654 235.989 285.048 236.271C285.443 236.553 285.736 236.951 285.887 237.408C286.038 237.864 286.038 238.356 285.887 238.813C285.736 239.27 285.443 239.668 285.049 239.95L282.072 242.08C281.859 242.232 281.701 242.445 281.62 242.691C281.539 242.936 281.54 243.201 281.621 243.446L282.758 246.893C282.909 247.35 282.909 247.842 282.758 248.298C282.607 248.755 282.314 249.153 281.919 249.435C281.525 249.717 281.05 249.869 280.563 249.869C280.075 249.869 279.6 249.717 279.206 249.435L276.229 247.305C276.017 247.153 275.762 247.071 275.5 247.071C275.238 247.071 274.983 247.153 274.771 247.305L271.794 249.435C271.401 249.721 270.926 249.876 270.437 249.878ZM275.5 246.019C275.988 246.019 276.463 246.171 276.857 246.454L279.833 248.584C280.045 248.736 280.301 248.818 280.563 248.818C280.825 248.818 281.08 248.736 281.292 248.585C281.504 248.433 281.662 248.219 281.743 247.973C281.824 247.728 281.824 247.464 281.743 247.218L280.606 243.771C280.454 243.315 280.454 242.823 280.604 242.366C280.755 241.909 281.049 241.511 281.444 241.229L284.421 239.099C284.633 238.947 284.791 238.733 284.872 238.488C284.952 238.243 284.952 237.978 284.872 237.733C284.791 237.487 284.633 237.274 284.421 237.122C284.209 236.97 283.954 236.888 283.692 236.888H280.012C279.525 236.889 279.049 236.738 278.655 236.455C278.26 236.173 277.967 235.775 277.817 235.317L276.68 231.871C276.599 231.625 276.441 231.411 276.229 231.26C276.017 231.108 275.762 231.026 275.5 231.026C275.238 231.026 274.983 231.108 274.771 231.26C274.559 231.411 274.401 231.625 274.32 231.871L273.183 235.317C273.033 235.775 272.74 236.173 272.345 236.455C271.951 236.738 271.476 236.889 270.988 236.888H267.308C267.046 236.888 266.791 236.97 266.579 237.122C266.367 237.273 266.209 237.487 266.128 237.733C266.047 237.978 266.047 238.243 266.128 238.488C266.209 238.733 266.367 238.947 266.579 239.099L269.556 241.229C269.951 241.511 270.245 241.909 270.396 242.366C270.546 242.823 270.546 243.315 270.394 243.771L269.257 247.218C269.176 247.464 269.176 247.728 269.257 247.973C269.338 248.219 269.496 248.433 269.708 248.584C269.92 248.736 270.175 248.818 270.437 248.818C270.699 248.818 270.954 248.736 271.166 248.584L274.143 246.454C274.537 246.171 275.012 246.019 275.5 246.019Z" fill="#A2A2A2"/>
<path d="M99.4971 162.305C98.5696 162.305 97.6801 162.672 97.0243 163.325C96.3684 163.978 96 164.864 96 165.788C96 166.711 96.3684 167.597 97.0243 168.251C97.6801 168.904 98.5696 169.271 99.4971 169.271H276.503C277.43 169.271 278.32 168.904 278.976 168.251C279.632 167.597 280 166.711 280 165.788C280 164.864 279.632 163.978 278.976 163.325C278.32 162.672 277.43 162.305 276.503 162.305H99.4971Z" fill="#FCF670"/>
<path d="M99.4971 180.219C98.5696 180.219 97.6801 180.586 97.0243 181.239C96.3684 181.892 96 182.778 96 183.702C96 184.626 96.3684 185.511 97.0243 186.165C97.6801 186.818 98.5696 187.185 99.4971 187.185H276.503C277.43 187.185 278.32 186.818 278.976 186.165C279.632 185.511 280 184.626 280 183.702C280 182.778 279.632 181.892 278.976 181.239C278.32 180.586 277.43 180.219 276.503 180.219H99.4971Z" fill="#FCF670"/>
<path d="M99.4971 198.131C98.5696 198.131 97.6801 198.498 97.0243 199.151C96.3684 199.804 96 200.69 96 201.614C96 202.538 96.3684 203.424 97.0243 204.077C97.6801 204.73 98.5696 205.097 99.4971 205.097H276.503C277.43 205.097 278.32 204.73 278.976 204.077C279.632 203.424 280 202.538 280 201.614C280 200.69 279.632 199.804 278.976 199.151C278.32 198.498 277.43 198.131 276.503 198.131H99.4971Z" fill="#FCF670"/>
<path d="M336.637 128.902C336.684 129.503 337.037 129.97 337.428 129.942C337.819 129.913 338.105 129.398 338.067 128.797C338.029 128.197 337.666 127.729 337.275 127.758C336.884 127.787 336.598 128.33 336.637 128.902Z" fill="#263238"/>
<path d="M332.851 130C333.091 132.043 333.047 134.109 332.721 136.139C333.245 136.209 333.779 136.164 334.284 136.005C334.789 135.847 335.253 135.58 335.644 135.224L332.851 130Z" fill="#D89090"/>
<path d="M339.13 138.999C339.695 138.987 340.249 138.818 340.746 138.507C341.242 138.196 341.666 137.752 341.981 137.213C341.99 137.197 341.996 137.18 341.999 137.161C342.001 137.143 342 137.124 341.996 137.106C341.992 137.088 341.985 137.071 341.975 137.057C341.965 137.042 341.953 137.03 341.938 137.021C341.925 137.011 341.91 137.005 341.894 137.002C341.878 136.999 341.861 137 341.846 137.004C341.83 137.009 341.816 137.017 341.803 137.029C341.79 137.04 341.78 137.055 341.772 137.071C341.471 137.564 341.074 137.969 340.614 138.254C340.153 138.54 339.641 138.698 339.118 138.716C339.101 138.716 339.085 138.719 339.07 138.727C339.055 138.735 339.041 138.746 339.03 138.76C339.019 138.774 339.011 138.791 339.006 138.809C339.001 138.827 338.999 138.846 339.001 138.865C339.001 138.883 339.004 138.902 339.011 138.92C339.017 138.937 339.027 138.952 339.039 138.965C339.051 138.978 339.066 138.988 339.081 138.993C339.097 138.999 339.114 139.001 339.13 138.999Z" fill="#263238"/>
<path d="M339.729 125.867C339.792 125.85 339.85 125.816 339.896 125.768C339.941 125.721 339.973 125.662 339.988 125.598C340.002 125.534 339.999 125.467 339.979 125.404C339.959 125.342 339.922 125.286 339.872 125.243C339.445 124.874 338.936 124.612 338.387 124.481C337.838 124.35 337.266 124.353 336.718 124.49C336.674 124.503 336.633 124.526 336.597 124.556C336.561 124.585 336.532 124.622 336.511 124.663C336.489 124.704 336.476 124.749 336.472 124.795C336.468 124.842 336.473 124.888 336.487 124.933C336.517 125.021 336.58 125.094 336.662 125.137C336.745 125.18 336.84 125.189 336.93 125.164C337.366 125.068 337.817 125.076 338.25 125.187C338.682 125.297 339.082 125.507 339.418 125.8C339.462 125.834 339.512 125.857 339.566 125.869C339.62 125.881 339.675 125.88 339.729 125.867Z" fill="#263238"/>
</g>
<defs>
<clipPath id="clip0_556_12621">
<rect width="470" height="390" fill="white"/>
</clipPath>
</defs>
</svg>
