<svg width="380" height="300" viewBox="0 0 380 300" fill="none" xmlns="http://www.w3.org/2000/svg">
<g clip-path="url(#clip0_556_11628)">
<path fill-rule="evenodd" clip-rule="evenodd" d="M188.295 13.0135C258.719 18.1964 323.633 54.4285 343.332 114.271C365.006 180.114 346.948 257.127 279.325 289.551C218.4 318.764 153.847 271.318 100.485 230.713C50.2293 192.471 -4.41401 144.521 17.4607 90.2885C41.1506 31.5556 117.09 7.77313 188.295 13.0135Z" fill="#F8FFA5" fill-opacity="0.7"/>
<path d="M309.575 40.1514H42.1172V211.443H309.575V40.1514Z" fill="#E6E6E6"/>
<path d="M301.923 61.6355H49.7617V201.309H301.923V61.6355Z" fill="white"/>
<path d="M309.457 40H42V51.3626H309.457V40Z" fill="#5E66A7"/>
<path d="M50.4497 47.9148C51.6128 47.9148 52.5557 46.9719 52.5557 45.8088C52.5557 44.6458 51.6128 43.7029 50.4497 43.7029C49.2866 43.7029 48.3438 44.6458 48.3438 45.8088C48.3438 46.9719 49.2866 47.9148 50.4497 47.9148Z" fill="white"/>
<path d="M58.438 47.9146C59.6011 47.9146 60.544 46.9717 60.544 45.8086C60.544 44.6455 59.6011 43.7026 58.438 43.7026C57.2749 43.7026 56.332 44.6455 56.332 45.8086C56.332 46.9717 57.2749 47.9146 58.438 47.9146Z" fill="white"/>
<path d="M66.4341 47.9148C67.5972 47.9148 68.5401 46.9719 68.5401 45.8088C68.5401 44.6458 67.5972 43.7029 66.4341 43.7029C65.271 43.7029 64.3281 44.6458 64.3281 45.8088C64.3281 46.9719 65.271 47.9148 66.4341 47.9148Z" fill="white"/>
<path d="M137.466 76.1277H72.6719V186.817H137.466V76.1277Z" fill="#E6E6E6"/>
<path d="M202.651 76.1277H148.656V106.596H202.651V76.1277Z" fill="#E6E6E6"/>
<path d="M202.651 115.081H148.656V147.864H202.651V115.081Z" fill="#E6E6E6"/>
<path d="M202.651 156.348H148.656V186.817H202.651V156.348Z" fill="#E6E6E6"/>
<path d="M279.012 76.1277H214.219V124.365H279.012V76.1277Z" fill="#E6E6E6"/>
<path d="M279.012 138.579H214.219V186.817H279.012V138.579Z" fill="#E6E6E6"/>
<path d="M254.051 127.831V117.446C254.051 113.755 255.517 110.216 258.127 107.606C260.736 104.996 264.276 103.53 267.967 103.53C271.657 103.53 275.197 104.996 277.806 107.606C280.416 110.216 281.882 113.755 281.882 117.446V127.831C281.882 128.326 281.685 128.802 281.334 129.152C280.984 129.502 280.509 129.7 280.013 129.7H255.92C255.424 129.7 254.949 129.502 254.599 129.152C254.248 128.802 254.051 128.326 254.051 127.831Z" fill="#2F2E41"/>
<path d="M288.546 262.978L283.638 264.336L276.062 246.052L283.307 244.047L288.546 262.978Z" fill="#FFB8B8"/>
<path d="M279.741 263.904L289.207 261.285L290.856 267.245L275.431 271.514C275.214 270.731 275.154 269.913 275.253 269.107C275.353 268.301 275.61 267.523 276.01 266.816C276.41 266.11 276.946 265.489 277.586 264.989C278.226 264.49 278.958 264.121 279.741 263.904Z" fill="#2F2E41"/>
<path d="M237.375 266.753H232.282L229.859 247.11H237.376L237.375 266.753Z" fill="#FFB8B8"/>
<path d="M228.645 265.298H238.466V271.482H222.461C222.461 270.67 222.621 269.866 222.932 269.115C223.242 268.365 223.698 267.683 224.272 267.109C224.846 266.535 225.528 266.079 226.278 265.769C227.029 265.458 227.833 265.298 228.645 265.298Z" fill="#2F2E41"/>
<path d="M231.232 156.974C231.595 157.465 232.062 157.87 232.599 158.161C233.136 158.452 233.73 158.621 234.34 158.657C234.949 158.694 235.56 158.596 236.127 158.371C236.695 158.146 237.207 157.799 237.626 157.355L251.164 163.444L249.932 155.829L237.265 151.215C236.473 150.56 235.467 150.219 234.44 150.255C233.412 150.292 232.434 150.705 231.69 151.415C230.947 152.125 230.489 153.083 230.405 154.107C230.32 155.132 230.615 156.152 231.232 156.974Z" fill="#FFB8B8"/>
<path d="M259.36 202.767C255.107 202.767 250.704 202.133 247.002 200.249C245.038 199.268 243.297 197.893 241.888 196.208C240.479 194.524 239.433 192.567 238.816 190.46C236.887 184.354 239.319 178.355 241.67 172.554C243.127 168.959 244.503 165.564 244.86 162.217L244.985 161.029C245.541 155.692 246.021 151.083 248.681 149.355C250.059 148.458 251.912 148.407 254.347 149.198L277.212 156.626L276.372 200.031L276.233 200.077C276.113 200.117 268.052 202.767 259.36 202.767Z" fill="#2F2E41"/>
<path d="M253.949 135.685C253.949 135.685 265.165 132.362 273.888 133.608C273.888 133.608 268.903 161.024 270.565 170.163C272.227 179.302 241.695 173.694 247.926 164.971L250.003 154.586C250.003 154.586 245.849 150.432 249.588 145.447L253.949 135.685Z" fill="#FCF670"/>
<path d="M248.432 201.944L234.609 199.352L239.435 162.213C239.76 161.176 247.236 137.645 250.631 136.372C253.096 135.504 255.617 134.803 258.177 134.276L258.669 134.177L255.897 138.335L244.862 164.777L248.432 201.944Z" fill="#5E66A7"/>
<path d="M241.227 262.202L223.367 259.226L233.39 218.3L248.304 162.33L248.451 163.324C248.463 163.398 249.856 170.71 270.53 167.466L270.712 167.437L270.762 167.614L295.749 255.901L275.398 259.293L256.837 194.879L241.227 262.202Z" fill="#2F2E41"/>
<path d="M265.98 208.894L265.992 208.579C266.004 208.231 267.233 173.532 266.822 159.576C266.411 145.574 270.944 133.448 270.99 133.327L271.027 133.229L271.127 133.201C276.992 131.525 282.08 136.526 282.131 136.577L282.203 136.648L280.532 150.429L287.684 200.543L265.98 208.894Z" fill="#5E66A7"/>
<path d="M265.109 129.459C270.744 129.459 275.311 124.891 275.311 119.256C275.311 113.621 270.744 109.053 265.109 109.053C259.474 109.053 254.906 113.621 254.906 119.256C254.906 124.891 259.474 129.459 265.109 129.459Z" fill="#FFB8B8"/>
<path d="M250.758 118.277C250.761 115.358 251.922 112.56 253.986 110.497C256.049 108.433 258.847 107.272 261.766 107.269H263.843C266.761 107.272 269.559 108.433 271.623 110.497C273.687 112.56 274.847 115.358 274.851 118.277V118.484H270.461L268.964 114.292L268.665 118.484H266.397L265.641 116.369L265.49 118.484H250.758V118.277Z" fill="#2F2E41"/>
<path d="M264.102 130.868C263.896 130.589 263.773 130.257 263.747 129.911C263.721 129.566 263.794 129.219 263.956 128.913C266.157 124.726 269.239 116.991 265.148 112.22L264.854 111.877H276.729V129.706L265.942 131.61C265.833 131.629 265.722 131.639 265.611 131.639C265.316 131.639 265.026 131.569 264.764 131.435C264.502 131.301 264.275 131.107 264.102 130.868Z" fill="#2F2E41"/>
<path d="M216.292 57.2579C207.982 50.2461 197.814 45.8008 187.024 44.4627C176.234 43.1247 165.288 44.9517 155.517 49.7214C145.747 54.491 137.573 61.9977 131.991 71.328C126.409 80.6583 123.659 91.4099 124.076 102.275C124.494 113.139 128.06 123.648 134.34 132.523C140.621 141.398 149.346 148.256 159.454 152.263C169.561 156.269 180.615 157.251 191.271 155.09C201.927 152.929 211.724 147.717 219.472 140.089L288.269 198.139C289.316 199.024 290.671 199.457 292.037 199.343C293.403 199.228 294.668 198.576 295.553 197.529C296.438 196.483 296.871 195.127 296.756 193.761C296.642 192.395 295.989 191.131 294.943 190.246L294.935 190.239L226.138 132.189C234.13 120.718 237.551 106.677 235.729 92.8161C233.908 78.9552 226.976 66.2741 216.292 57.2579ZM211.857 126.599C206.497 132.951 199.375 137.57 191.389 139.874C183.404 142.178 174.915 142.062 166.996 139.541C159.077 137.02 152.083 132.207 146.899 125.712C141.714 119.216 138.573 111.329 137.871 103.047C137.17 94.7663 138.94 86.463 142.957 79.1877C146.974 71.9124 153.059 65.9917 160.441 62.1745C167.824 58.3572 176.172 56.8148 184.431 57.7423C192.69 58.6698 200.489 62.0255 206.84 67.3851C211.058 70.9437 214.533 75.2982 217.068 80.1999C219.602 85.1016 221.146 90.4545 221.612 95.953C222.078 101.451 221.456 106.988 219.783 112.246C218.109 117.504 215.416 122.381 211.857 126.599Z" fill="#9098D9"/>
<path opacity="0.3" d="M152.643 131.615C144.582 124.813 139.374 115.227 138.053 104.762C136.732 94.2976 139.395 83.7187 145.513 75.1262C144.709 75.9353 143.933 76.7827 143.183 77.6684C139.624 81.8858 136.931 86.7629 135.257 92.0211C133.583 97.2793 132.962 102.816 133.427 108.314C133.893 113.813 135.437 119.166 137.972 124.067C140.507 128.969 143.982 133.323 148.199 136.882C152.417 140.441 157.294 143.134 162.552 144.808C167.81 146.482 173.347 147.103 178.845 146.637C184.344 146.172 189.696 144.627 194.598 142.093C199.5 139.558 203.854 136.083 207.413 131.866C208.161 130.979 208.866 130.071 209.527 129.141C202.086 136.617 192.106 141.022 181.568 141.48C171.03 141.939 160.705 138.417 152.643 131.615Z" fill="black"/>
<path d="M268.385 174.81C268.978 174.955 269.596 174.969 270.195 174.849C270.794 174.729 271.359 174.48 271.851 174.118C272.343 173.757 272.75 173.291 273.043 172.756C273.336 172.22 273.507 171.626 273.546 171.017L287.849 167.047L282.035 161.977L269.344 166.525C268.316 166.528 267.324 166.908 266.558 167.593C265.791 168.278 265.302 169.22 265.184 170.242C265.066 171.263 265.327 172.292 265.916 173.134C266.506 173.976 267.385 174.573 268.385 174.81Z" fill="#FFB8B8"/>
<path d="M274.327 172.709L273.457 164.44L285.405 157.848L277.615 148.418L278.886 137.826L282.051 136.469L282.15 136.596C283.642 138.515 296.732 155.405 296.732 157.493C296.732 159.638 294.228 165.936 290.802 167.649C287.497 169.301 275.087 172.513 274.561 172.649L274.327 172.709Z" fill="#5E66A7"/>
<path d="M336.322 272.037H178.056C177.946 272.037 177.84 271.993 177.762 271.915C177.684 271.837 177.641 271.731 177.641 271.621C177.641 271.511 177.684 271.405 177.762 271.327C177.84 271.25 177.946 271.206 178.056 271.206H336.322C336.432 271.206 336.538 271.25 336.616 271.327C336.693 271.405 336.737 271.511 336.737 271.621C336.737 271.731 336.693 271.837 336.616 271.915C336.538 271.993 336.432 272.037 336.322 272.037Z" fill="#CCCCCC"/>
<path d="M259.104 122.454C259.139 122.897 259.399 123.241 259.687 123.22C259.975 123.199 260.186 122.82 260.158 122.377C260.13 121.934 259.863 121.59 259.574 121.611C259.286 121.632 259.076 122.033 259.104 122.454Z" fill="#263238"/>
<path d="M255.398 121.79C255.682 123.224 255.765 124.691 255.647 126.148C256.023 126.168 256.398 126.106 256.747 125.966C257.097 125.826 257.411 125.611 257.668 125.337L255.398 121.79Z" fill="#D89090"/>
<path d="M258.332 129.157C258.977 129.145 259.609 128.978 260.175 128.67C260.741 128.362 261.225 127.921 261.585 127.387C261.595 127.371 261.602 127.354 261.605 127.336C261.607 127.317 261.607 127.299 261.602 127.281C261.597 127.263 261.589 127.247 261.578 127.232C261.566 127.218 261.552 127.206 261.536 127.197C261.52 127.187 261.503 127.18 261.485 127.177C261.467 127.175 261.448 127.175 261.43 127.18C261.412 127.185 261.396 127.193 261.381 127.204C261.367 127.216 261.355 127.23 261.346 127.246C261.003 127.734 260.55 128.136 260.025 128.419C259.499 128.702 258.915 128.858 258.318 128.876C258.299 128.876 258.28 128.88 258.263 128.888C258.246 128.895 258.231 128.906 258.218 128.92C258.206 128.934 258.196 128.95 258.19 128.968C258.184 128.986 258.182 129.005 258.184 129.024C258.184 129.043 258.188 129.061 258.196 129.078C258.203 129.096 258.214 129.111 258.228 129.124C258.242 129.136 258.259 129.146 258.276 129.151C258.294 129.157 258.313 129.159 258.332 129.157Z" fill="#263238"/>
<path d="M261.133 120.571C261.182 120.576 261.23 120.567 261.274 120.546C261.318 120.525 261.355 120.493 261.382 120.453C261.408 120.412 261.423 120.365 261.426 120.317C261.428 120.268 261.416 120.22 261.393 120.178C261.194 119.813 260.91 119.501 260.566 119.268C260.221 119.036 259.825 118.89 259.412 118.843C259.378 118.841 259.344 118.846 259.311 118.857C259.279 118.868 259.249 118.886 259.224 118.909C259.198 118.932 259.178 118.959 259.163 118.99C259.148 119.021 259.14 119.054 259.138 119.089C259.136 119.157 259.16 119.224 259.206 119.275C259.252 119.326 259.315 119.357 259.384 119.363C259.709 119.409 260.019 119.532 260.288 119.72C260.558 119.907 260.78 120.156 260.937 120.445C260.958 120.479 260.986 120.509 261.02 120.531C261.054 120.553 261.093 120.566 261.133 120.571Z" fill="#263238"/>
</g>
<defs>
<clipPath id="clip0_556_11628">
<rect width="380" height="300" fill="white"/>
</clipPath>
</defs>
</svg>
