<svg width="220" height="200" viewBox="0 0 220 200" fill="none" xmlns="http://www.w3.org/2000/svg">
<path fill-rule="evenodd" clip-rule="evenodd" d="M103.893 28.5652C67.3229 28.8922 27.2695 38.402 15.1157 71.9922C2.8567 105.874 26.0605 139.947 56.0885 160.687C83.1754 179.395 118.003 179.677 146.351 162.634C181.576 141.455 218.616 108.68 206.456 70.2811C194.392 32.1881 144.911 28.1984 103.893 28.5652Z" fill="#E7E7FF" fill-opacity="0.4"/>
<path d="M111.986 159.069C118.448 159.069 123.687 154.423 123.687 148.691C123.687 142.96 118.448 138.314 111.986 138.314C105.524 138.314 100.285 142.96 100.285 148.691C100.285 154.423 105.524 159.069 111.986 159.069Z" fill="#FCF670"/>
<path d="M110.731 40.4053C92.4435 40.5199 77.4702 53.6997 77.2104 69.9171C77.208 70.0668 77.2069 71.1197 77.207 72.4966C77.2072 74.5156 78.1115 76.4519 79.7212 77.8796C81.3308 79.3072 83.514 80.1094 85.7905 80.1096C86.919 80.1094 88.0364 79.912 89.0788 79.5286C90.1212 79.1453 91.0682 78.5835 91.8657 77.8754C92.6633 77.1674 93.2957 76.3268 93.7268 75.4019C94.1579 74.477 94.3793 73.4858 94.3783 72.485C94.3774 71.5483 94.3769 70.9 94.3769 70.8602C94.3763 68.3538 95.1114 65.8904 96.5099 63.7124C97.9083 61.5344 99.922 59.7168 102.353 58.4384C104.783 57.1599 107.548 56.4647 110.373 56.421C113.199 56.3774 115.989 56.9868 118.468 58.1895C120.948 59.3921 123.031 61.1464 124.514 63.2799C125.998 65.4134 126.829 67.8525 126.927 70.3574C127.025 72.8623 126.385 75.3466 125.072 77.566C123.759 79.7853 121.817 81.6633 119.438 83.0152L119.441 83.0184C119.441 83.0184 107.224 89.9938 103.499 99.5627L103.502 99.5634C102.847 101.524 102.515 103.558 102.517 105.602C102.517 106.443 102.573 113.796 102.68 119.765C102.718 121.824 103.667 123.788 105.322 125.232C106.978 126.676 109.207 127.486 111.53 127.485C112.697 127.485 113.852 127.28 114.929 126.883C116.007 126.485 116.985 125.903 117.807 125.169C118.63 124.435 119.281 123.564 119.722 122.606C120.164 121.648 120.388 120.622 120.38 119.587C120.343 114.121 120.323 107.756 120.323 107.294C120.323 101.419 126.714 95.5642 131.964 91.7465C138.009 87.3503 142.359 81.3594 144.106 74.6013C144.493 73.21 144.706 71.7852 144.742 70.3526C144.742 66.4015 143.861 62.4895 142.148 58.842C140.436 55.1944 137.927 51.8834 134.765 49.0997C131.604 46.316 127.853 44.1147 123.728 42.6225C119.603 41.1303 115.185 40.3768 110.731 40.4053Z" fill="#FCF670"/>
<path d="M88.2171 76.5088C85.9406 76.5085 83.7574 75.7064 82.1477 74.2787C80.538 72.851 79.6337 70.9147 79.6336 68.8958C79.6334 67.5188 79.6345 66.466 79.6369 66.3162C79.7092 61.5998 81.0485 56.9666 83.5437 52.801C79.4442 57.7783 77.1901 63.7625 77.0932 69.9258C77.0908 70.0755 77.0897 71.1283 77.0899 72.5053C77.09 74.5243 77.9943 76.4606 79.604 77.8882C81.2137 79.3159 83.3969 80.1181 85.6734 80.1183C87.544 80.1177 89.3633 79.5756 90.8548 78.5743C92.3464 77.573 93.4287 76.1673 93.9373 74.5707C92.3656 75.8207 90.3281 76.511 88.2171 76.5088Z" fill="#3F3D56"/>
<path d="M111.316 56.4466C113.948 56.5581 116.51 57.2343 118.782 58.4174C121.054 59.6004 122.969 61.2548 124.361 63.2386C125.754 65.2224 126.582 67.4762 126.776 69.8066C126.97 72.137 126.523 74.4744 125.474 76.6179C126.992 75.0375 128.107 73.1855 128.744 71.1883C129.381 69.191 129.525 67.0953 129.166 65.0442C128.807 62.993 127.954 61.0347 126.664 59.3025C125.375 57.5704 123.679 56.1053 121.693 55.007C119.707 53.9087 117.478 53.2031 115.156 52.9384C112.835 52.6736 110.477 52.8558 108.242 53.4727C106.007 54.0896 103.949 55.1265 102.207 56.5129C100.465 57.8992 99.0808 59.6024 98.1484 61.5062C99.7599 59.8249 101.785 58.4943 104.068 57.6171C106.351 56.7399 108.831 56.3394 111.316 56.4466Z" fill="#3F3D56"/>
<path d="M113.951 123.884C111.629 123.885 109.399 123.075 107.744 121.631C106.088 120.187 105.139 118.223 105.102 116.164C104.994 110.195 104.938 102.842 104.938 102.001C104.937 99.9567 105.269 97.9227 105.924 95.9624L105.92 95.9617C106.307 94.9778 106.774 94.0202 107.318 93.0965C105.649 95.0691 104.321 97.2514 103.377 99.5713L103.38 99.572C102.725 101.532 102.393 103.566 102.395 105.611C102.395 106.451 102.45 113.805 102.558 119.773C102.596 121.833 103.545 123.796 105.2 125.241C106.856 126.685 109.085 127.494 111.408 127.494C113.322 127.493 115.185 126.943 116.717 125.924C118.249 124.905 119.367 123.473 119.904 121.843C118.277 123.159 116.153 123.887 113.951 123.884Z" fill="#3F3D56"/>
<path d="M109.413 156.538C107.75 155.895 106.279 154.92 105.115 153.687C103.951 152.454 103.126 150.998 102.705 149.434C102.284 147.87 102.278 146.241 102.689 144.675C103.099 143.109 103.915 141.649 105.07 140.41C103.73 141.278 102.614 142.388 101.795 143.668C100.976 144.948 100.473 146.367 100.32 147.833C100.166 149.298 100.366 150.775 100.906 152.167C101.446 153.558 102.313 154.832 103.451 155.903C104.588 156.975 105.969 157.819 107.503 158.381C109.036 158.943 110.687 159.209 112.345 159.162C114.004 159.115 115.632 158.755 117.122 158.107C118.611 157.459 119.929 156.538 120.986 155.404C119.337 156.473 117.4 157.14 115.37 157.339C113.339 157.538 111.285 157.262 109.413 156.538Z" fill="#3F3D56"/>
<path d="M178.66 80.2483C184.233 80.2483 188.75 75.7411 188.75 70.1812C188.75 64.6213 184.233 60.1141 178.66 60.1141C173.088 60.1141 168.57 64.6213 168.57 70.1812C168.57 75.7411 173.088 80.2483 178.66 80.2483Z" fill="#2F2E41"/>
<path d="M160.011 183.984H155.888L153.926 168.115H160.012L160.011 183.984Z" fill="#FFB8B8"/>
<path d="M152.944 182.808H160.897V187.804H147.938C147.937 187.147 148.067 186.498 148.319 185.892C148.57 185.286 148.939 184.735 149.404 184.271C149.869 183.807 150.421 183.439 151.028 183.188C151.636 182.937 152.287 182.808 152.944 182.808Z" fill="#2F2E41"/>
<path d="M191.964 183.984H187.841L185.879 168.115H191.965L191.964 183.984Z" fill="#FFB8B8"/>
<path d="M184.898 182.808H192.85V187.804H179.891C179.891 187.147 180.02 186.498 180.272 185.892C180.523 185.286 180.892 184.735 181.357 184.271C181.822 183.807 182.374 183.439 182.981 183.188C183.589 182.937 184.24 182.808 184.898 182.808Z" fill="#2F2E41"/>
<path d="M177.128 80.307C181.69 80.307 185.388 76.6169 185.388 72.0651C185.388 67.5132 181.69 63.8231 177.128 63.8231C172.566 63.8231 168.867 67.5132 168.867 72.0651C168.867 76.6169 172.566 80.307 177.128 80.307Z" fill="#FFB8B8"/>
<path d="M182.047 106.896L185.743 98.4226C186.641 96.4349 186.898 94.2182 186.479 92.0784C186.061 89.9386 184.987 87.9812 183.406 86.4763C183.081 86.1561 182.736 85.8568 182.373 85.5804C180.549 84.1569 178.302 83.381 175.986 83.3757C174.429 83.3817 172.892 83.7228 171.479 84.3757C171.358 84.4294 171.24 84.4864 171.119 84.5435C170.887 84.6542 170.659 84.775 170.437 84.8992C168.989 85.7287 167.756 86.886 166.839 88.278C165.922 89.6699 165.345 91.2575 165.156 92.9126L163.525 106.55C163.115 107.621 148.477 146.278 153.597 175.791C153.651 176.106 153.805 176.396 154.036 176.618C154.267 176.839 154.563 176.981 154.881 177.023L160.071 177.728C160.45 177.779 160.834 177.686 161.147 177.466C161.46 177.246 161.677 176.916 161.756 176.543L170.464 135.13C170.518 134.873 170.657 134.641 170.859 134.472C171.061 134.303 171.313 134.206 171.577 134.198C171.84 134.189 172.099 134.268 172.312 134.423C172.524 134.578 172.679 134.8 172.751 135.053L185.054 178.603C185.141 178.92 185.33 179.199 185.592 179.398C185.854 179.596 186.174 179.704 186.503 179.704C186.601 179.703 186.699 179.694 186.796 179.677L193.136 178.459C193.504 178.39 193.834 178.187 194.06 177.888C194.285 177.589 194.391 177.217 194.357 176.845C193.425 166.479 188.474 114.557 182.047 106.896Z" fill="#5E66A7"/>
<path d="M145.023 78.924C144.965 79.414 145.017 79.9106 145.172 80.3788C145.328 80.8469 145.585 81.2753 145.925 81.6338C146.264 81.9922 146.679 82.272 147.139 82.4533C147.598 82.6347 148.092 82.7133 148.586 82.6835L153.203 93.7547L156.696 88.5889L151.776 78.8675C151.671 78.0435 151.267 77.2867 150.64 76.7403C150.013 76.1939 149.207 75.896 148.374 75.903C147.542 75.91 146.741 76.2213 146.123 76.7781C145.505 77.3349 145.114 78.0985 145.023 78.924Z" fill="#FFB8B8"/>
<path d="M176.666 118.043C177.157 117.985 177.629 117.82 178.049 117.559C178.469 117.299 178.826 116.95 179.097 116.537C179.367 116.124 179.543 115.657 179.613 115.168C179.682 114.68 179.644 114.182 179.5 113.71L189.215 106.65L183.366 104.465L175.037 111.504C174.258 111.798 173.615 112.367 173.228 113.102C172.842 113.838 172.739 114.689 172.94 115.496C173.141 116.302 173.631 117.006 174.318 117.476C175.004 117.945 175.84 118.147 176.666 118.043Z" fill="#FFB8B8"/>
<path d="M160.827 101.136C160.454 101.135 160.083 101.099 159.717 101.026C158.834 100.859 158.005 100.477 157.304 99.9138C156.604 99.3511 156.052 98.625 155.699 97.7996L149.23 89.9294C149.093 89.763 148.994 89.5694 148.938 89.3615C148.882 89.1536 148.872 88.9362 148.907 88.724C148.943 88.5117 149.023 88.3094 149.143 88.1307C149.263 87.952 149.42 87.8009 149.604 87.6876L154.206 84.8451C154.376 84.7401 154.565 84.6698 154.762 84.6381C154.96 84.6064 155.161 84.6141 155.356 84.6606C155.55 84.707 155.733 84.7915 155.895 84.909C156.056 85.0265 156.193 85.1747 156.297 85.3452L160.856 92.8398L169.588 86.4014C170.283 86.0377 171.086 85.9357 171.85 86.114C172.615 86.2924 173.289 86.7391 173.751 87.3727C174.212 88.0062 174.43 88.7843 174.364 89.5647C174.298 90.3452 173.953 91.0759 173.391 91.6233L164.676 99.5551C163.652 100.568 162.269 101.136 160.827 101.136Z" fill="#5E66A7"/>
<path d="M184.422 112.972C184.41 112.972 184.398 112.972 184.386 112.972C184.174 112.966 183.965 112.917 183.773 112.826C183.582 112.735 183.411 112.605 183.273 112.445L179.181 107.682C179.041 107.52 178.938 107.33 178.878 107.125C178.817 106.92 178.801 106.704 178.831 106.493C178.86 106.281 178.934 106.078 179.048 105.897C179.161 105.716 179.312 105.561 179.49 105.443L187.153 100.346L180.211 92.0199C179.807 91.3482 179.659 90.5541 179.794 89.7825C179.928 89.0109 180.337 88.3134 180.944 87.8173C181.552 87.3213 182.318 87.06 183.103 87.081C183.887 87.102 184.638 87.404 185.218 87.9318L193.655 96.1575C194.319 96.7626 194.825 97.5196 195.132 98.3632C195.438 99.2069 195.534 100.112 195.413 101.001C195.291 101.89 194.955 102.736 194.434 103.467C193.912 104.198 193.221 104.792 192.418 105.198L185.523 112.498C185.382 112.647 185.211 112.767 185.022 112.848C184.832 112.93 184.628 112.972 184.422 112.972Z" fill="#5E66A7"/>
<path d="M175.023 95.4221C174.957 95.4221 174.891 95.4179 174.826 95.4096C174.541 95.3751 174.272 95.2597 174.051 95.0771C173.83 94.8946 173.666 94.6526 173.578 94.3798L170.503 84.9741C170.426 84.7363 170.438 84.4787 170.537 84.2489C170.635 84.0192 170.814 83.8328 171.039 83.7242L171.139 83.6772C171.23 83.6343 171.319 83.5918 171.411 83.5512C172.845 82.8877 174.405 82.5417 175.986 82.5368C178.038 82.5405 180.044 83.142 181.758 84.2672C181.988 84.4198 182.148 84.6563 182.205 84.9259C182.262 85.1954 182.21 85.4764 182.061 85.7083L176.293 94.7242C176.158 94.9383 175.97 95.1146 175.748 95.2367C175.526 95.3587 175.276 95.4225 175.023 95.4221Z" fill="#DDDDFF"/>
<path d="M186.618 65.6868C188.442 65.6868 189.92 64.2119 189.92 62.3926C189.92 60.5733 188.442 59.0984 186.618 59.0984C184.795 59.0984 183.316 60.5733 183.316 62.3926C183.316 64.2119 184.795 65.6868 186.618 65.6868Z" fill="#2F2E41"/>
<path d="M175.299 58.7718C172.98 58.7718 170.756 59.691 169.116 61.3272C167.476 62.9634 166.555 65.1826 166.555 67.4965V71.1878H171.105L173.281 67.4966L173.934 71.1878H187.744L184.044 67.4965C184.044 65.1826 183.123 62.9634 181.483 61.3272C179.843 59.691 177.619 58.7718 175.299 58.7718Z" fill="#2F2E41"/>
<path d="M188.312 60.1362C188.678 58.9971 189.434 58.0229 190.447 57.3849C191.461 56.7468 192.668 56.4858 193.856 56.6477C195.96 56.9987 197.623 58.6862 198.614 60.5709C199.606 62.4556 200.063 64.565 200.73 66.5869C201.396 68.6089 202.341 70.6418 204.023 71.9507C205.706 73.2595 208.287 73.6145 209.939 72.2681C209.751 73.6713 209.125 74.9798 208.15 76.0085C207.175 77.0372 205.9 77.7341 204.507 78.0005C203.113 78.267 201.671 78.0895 200.384 77.4932C199.097 76.897 198.03 75.9121 197.335 74.6779C196.463 73.1304 196.238 71.3166 195.979 69.5602C195.721 67.8038 195.385 65.9864 194.344 64.5466C193.303 63.1068 191.355 62.1665 189.701 62.8223L188.312 60.1362Z" fill="#2F2E41"/>
<path d="M39.9151 184.137L44.0382 184.136L46 168.268L39.9141 168.268L39.9151 184.137Z" fill="#FFB8B8"/>
<path d="M51.9961 187.956L39.037 187.957L39.0368 182.961L46.989 182.961C48.3169 182.961 49.5904 183.487 50.5294 184.424C51.4685 185.361 51.996 186.631 51.9961 187.956Z" fill="#2F2E41"/>
<path d="M25.1143 184.137L29.2374 184.136L31.1992 168.268L25.1133 168.268L25.1143 184.137Z" fill="#FFB8B8"/>
<path d="M37.1992 187.956L24.2401 187.957L24.2399 182.961L32.1921 182.961C33.52 182.961 34.7935 183.487 35.7326 184.424C36.6716 185.361 37.1992 186.631 37.1992 187.956Z" fill="#2F2E41"/>
<path d="M28.7278 179.256L24.7003 179.045C24.4926 179.034 24.2891 178.982 24.1017 178.892C23.9143 178.802 23.7466 178.676 23.6084 178.521C23.4701 178.366 23.3641 178.185 23.2965 177.989C23.2288 177.793 23.2008 177.585 23.2142 177.378L28.028 124.202L50.1959 130.17L52.3317 129.589L45.6527 176.664C45.5958 177.018 45.4196 177.342 45.1531 177.583C44.8866 177.823 44.5458 177.966 44.1869 177.988L39.8453 178.189C39.6282 178.201 39.411 178.168 39.2073 178.092C39.0037 178.016 38.818 177.899 38.6622 177.748C38.5063 177.597 38.3835 177.415 38.3017 177.214C38.2198 177.013 38.1807 176.797 38.1867 176.58L38.9733 148.326C38.977 148.196 38.9315 148.069 38.8458 147.97C38.7601 147.871 38.6404 147.808 38.5103 147.792C38.3802 147.777 38.2491 147.811 38.1429 147.888C38.0366 147.964 37.963 148.078 37.9364 148.206L30.3498 178.008C30.2781 178.362 30.0858 178.68 29.8056 178.908C29.5254 179.136 29.1746 179.26 28.813 179.258C28.7848 179.258 28.7564 179.258 28.7278 179.256Z" fill="#2F2E41"/>
<path d="M40.6591 80.6925C45.2213 80.6925 48.9197 77.0024 48.9197 72.4506C48.9197 67.8987 45.2213 64.2086 40.6591 64.2086C36.0969 64.2086 32.3984 67.8987 32.3984 72.4506C32.3984 77.0024 36.0969 80.6925 40.6591 80.6925Z" fill="#FFB8B8"/>
<path d="M26.8973 96.6648L27.8056 116.218L28.1339 123.331C28.147 123.641 28.2524 123.94 28.4366 124.189C28.6208 124.439 28.8754 124.628 29.1679 124.732L50.4698 132.431C50.6419 132.495 50.8242 132.527 51.0078 132.525C51.2176 132.526 51.4255 132.485 51.619 132.404C51.8125 132.323 51.9877 132.204 52.1341 132.054C52.2805 131.904 52.3951 131.727 52.4711 131.531C52.5471 131.336 52.5829 131.128 52.5763 130.919L51.703 95.7621C51.6456 92.8777 50.5815 90.1036 48.6939 87.9182C46.8063 85.7327 44.2137 84.2727 41.3629 83.79C41.1569 83.7586 40.9473 83.7272 40.7376 83.6994C38.9699 83.4804 37.1756 83.6506 35.4809 84.198C33.7862 84.7453 32.2323 85.6566 30.9285 86.8675C29.5785 88.1064 28.5177 89.626 27.8211 91.319C27.1245 93.0119 26.8092 94.8369 26.8973 96.6648Z" fill="#9098D9"/>
<path d="M60.6544 128.53C60.1506 128.374 59.6903 128.102 59.3102 127.737C58.9302 127.372 58.6409 126.924 58.4655 126.427C58.29 125.931 58.2333 125.401 58.2999 124.879C58.3664 124.356 58.5544 123.857 58.8487 123.42L51.625 113.836L57.8586 113.451L63.7627 122.611C64.3948 123.099 64.8346 123.793 65.0051 124.572C65.1755 125.351 65.0657 126.164 64.6949 126.871C64.324 127.577 63.7159 128.13 62.9771 128.433C62.2383 128.737 61.416 128.771 60.6544 128.53Z" fill="#FFB8B8"/>
<path d="M55.5813 121.686C55.3899 121.608 55.2158 121.494 55.0691 121.349C54.9224 121.204 54.806 121.031 54.7266 120.841L43.8435 94.9704C43.63 94.4638 43.5186 93.9203 43.5157 93.3708C43.5128 92.8213 43.6184 92.2766 43.8266 91.7679C44.0348 91.2591 44.3414 90.7963 44.729 90.4059C45.1165 90.0154 45.5773 89.705 46.0852 89.4923C46.593 89.2797 47.1379 89.1689 47.6886 89.1665C48.2394 89.164 48.7852 89.2698 49.2949 89.4779C49.8047 89.686 50.2683 89.9923 50.6593 90.3793C51.0504 90.7663 51.3612 91.2263 51.5739 91.7332L62.457 117.604C62.6178 117.987 62.6196 118.419 62.462 118.804C62.3043 119.189 62.0001 119.496 61.616 119.657L56.7845 121.68C56.5943 121.76 56.39 121.802 56.1834 121.803C55.9769 121.804 55.7722 121.764 55.5813 121.686Z" fill="#9098D9"/>
<path d="M38.0059 120.773L48.4588 100.804C48.6604 100.42 49.0064 100.131 49.421 100.002C49.8355 99.8718 50.2848 99.9114 50.6701 100.112L65.8426 108.018C66.2275 108.219 66.5167 108.564 66.6468 108.978C66.7769 109.391 66.7373 109.839 66.5366 110.224L56.0836 130.193C55.882 130.577 55.536 130.866 55.1214 130.996C54.7069 131.126 54.2576 131.086 53.8723 130.886L38.6999 122.98C38.3149 122.779 38.0257 122.433 37.8956 122.02C37.7655 121.606 37.8051 121.158 38.0059 120.773Z" fill="#3F3D56"/>
<path d="M45.013 111.65C44.8272 111.157 44.5285 110.715 44.1409 110.358C43.7532 110.001 43.2873 109.739 42.7803 109.594C42.2733 109.448 41.7393 109.423 41.2208 109.52C40.7024 109.618 40.2138 109.834 39.7942 110.153L29.7787 103.524L29.7617 109.756L39.2751 115.095C39.8003 115.696 40.5207 116.093 41.3099 116.217C42.0992 116.341 42.9069 116.183 43.5915 115.772C44.276 115.361 44.7937 114.723 45.0536 113.969C45.3135 113.215 45.2992 112.394 45.013 111.65Z" fill="#FFB8B8"/>
<path d="M32.3547 113.051L24.1694 106.582C23.284 106.286 22.4839 105.779 21.8378 105.106C21.1918 104.433 20.7191 103.613 20.4603 102.718C20.2015 101.823 20.1644 100.878 20.3522 99.9648C20.5399 99.0519 20.9469 98.1981 21.5382 97.4766L28.9701 87.7587C29.4866 87.129 30.2129 86.7058 31.0164 86.5665C31.8198 86.4271 32.6467 86.5809 33.3458 86.9997C34.045 87.4185 34.5698 88.0744 34.8242 88.8474C35.0786 89.6204 35.0456 90.459 34.7314 91.2098L28.851 100.807L37.4927 104.897C37.6937 104.992 37.8721 105.128 38.0162 105.297C38.1604 105.466 38.2669 105.664 38.3289 105.877C38.3908 106.09 38.4067 106.314 38.3755 106.534C38.3443 106.753 38.2667 106.964 38.1479 107.151L34.6596 112.66C34.5417 112.845 34.3859 113.005 34.2024 113.127C34.019 113.249 33.8119 113.331 33.5945 113.368C33.5859 113.369 33.5772 113.371 33.5685 113.372C33.355 113.404 33.1371 113.392 32.9283 113.337C32.7195 113.282 32.5243 113.185 32.3547 113.051Z" fill="#9098D9"/>
<path d="M34.4206 77.9694C34.3852 77.866 34.374 77.7558 34.3878 77.6474C34.4016 77.5389 34.4401 77.435 34.5004 77.3437C34.5606 77.2524 34.6411 77.1761 34.7355 77.1206C34.8299 77.0651 34.9357 77.0318 35.045 77.0235C35.2687 77.0356 35.4877 77.0928 35.6886 77.1918C35.8896 77.2907 36.0683 77.4292 36.2141 77.5989C36.5131 77.9428 36.8611 78.241 37.247 78.4839C37.6466 78.6848 38.1886 78.6562 38.4164 78.273C38.6303 77.9132 38.4838 77.4314 38.3543 77.0135C38.0247 75.9502 37.8403 74.8474 37.8061 73.735C37.7688 72.4933 37.9443 71.1974 38.6333 70.2289C39.5226 68.979 41.1126 68.5045 42.6173 68.5389C44.1221 68.5733 45.6024 69.0368 47.0929 69.3297C47.6075 69.4309 48.2123 69.4826 48.5565 69.0847C48.9224 68.6616 48.7881 67.9769 48.6324 67.4056C48.2285 65.9232 47.8 64.3906 46.8615 63.1935C45.8468 61.9495 44.3974 61.1353 42.8051 60.9149C41.2764 60.726 39.7246 60.9017 38.2773 61.4278C35.9192 62.1693 33.8443 63.6115 32.33 65.5615C30.769 67.6352 30.0944 70.2413 30.4539 72.8098C30.8051 75.047 31.9932 77.0681 33.7788 78.4657L34.4206 77.9694Z" fill="#2F2E41"/>
<path d="M176.21 73.0785C176.21 73.429 175.981 73.7016 175.747 73.6849C175.513 73.6683 175.351 73.3678 175.373 73.0173C175.395 72.6669 175.607 72.3942 175.836 72.4109C176.065 72.4276 176.232 72.7225 176.21 73.0785Z" fill="#263238"/>
<path d="M172.229 72.8003C172.201 73.1508 171.995 73.4234 171.766 73.4067C171.538 73.39 171.37 73.0896 171.393 72.7391C171.415 72.3886 171.627 72.116 171.855 72.1327C172.084 72.1494 172.251 72.4665 172.229 72.8003Z" fill="#263238"/>
<path d="M173.482 73.0619C172.987 74.1088 172.349 75.0824 171.586 75.9549C171.816 76.1446 172.085 76.2818 172.374 76.3567C172.663 76.4317 172.965 76.4427 173.259 76.3888L173.482 73.0619Z" fill="#D89090"/>
<path d="M177.538 71.8768C177.5 71.8795 177.462 71.8721 177.428 71.8555C177.393 71.8389 177.364 71.8137 177.343 71.7822C177.206 71.5614 177.019 71.3754 176.797 71.2393C176.575 71.1031 176.325 71.0204 176.066 70.9978C176.011 70.9978 175.958 70.9761 175.92 70.9375C175.881 70.8989 175.859 70.8465 175.859 70.7919C175.859 70.7374 175.881 70.685 175.92 70.6464C175.958 70.6078 176.011 70.5861 176.066 70.5861C176.394 70.6063 176.713 70.7047 176.995 70.8732C177.277 71.0416 177.515 71.2751 177.688 71.5541C177.704 71.5767 177.715 71.6021 177.721 71.629C177.726 71.6558 177.727 71.6835 177.722 71.7105C177.716 71.7375 177.706 71.7631 177.69 71.7859C177.675 71.8088 177.656 71.8283 177.633 71.8434C177.603 71.8594 177.571 71.8707 177.538 71.8768Z" fill="#263238"/>
<path d="M174.79 78.1079C175.301 78.0984 175.803 77.966 176.252 77.7219C176.702 77.4779 177.085 77.1294 177.371 76.7059C177.379 76.6937 177.384 76.6799 177.387 76.6655C177.389 76.6511 177.388 76.6364 177.385 76.6223C177.381 76.6082 177.374 76.595 177.365 76.5835C177.356 76.5721 177.345 76.5626 177.332 76.5557C177.32 76.5478 177.306 76.5426 177.292 76.5403C177.277 76.538 177.263 76.5387 177.248 76.5423C177.234 76.546 177.221 76.5525 177.21 76.5615C177.198 76.5705 177.189 76.5818 177.182 76.5946C176.909 76.9812 176.55 77.2991 176.133 77.5232C175.716 77.7472 175.252 77.8712 174.778 77.8854C174.764 77.8853 174.749 77.8883 174.735 77.8943C174.721 77.9003 174.709 77.9091 174.699 77.9201C174.689 77.9312 174.682 77.9442 174.677 77.9583C174.672 77.9725 174.671 77.9874 174.672 78.0022C174.672 78.0171 174.675 78.0318 174.681 78.0454C174.687 78.059 174.696 78.0712 174.707 78.0812C174.718 78.0911 174.731 78.0987 174.746 78.1033C174.76 78.1079 174.775 78.1095 174.79 78.1079Z" fill="#263238"/>
<path d="M170.615 71.3094C170.577 71.313 170.538 71.3062 170.503 71.2897C170.469 71.2731 170.439 71.2475 170.418 71.2155C170.397 71.1834 170.385 71.1463 170.383 71.1079C170.381 71.0696 170.39 71.0315 170.409 70.9978C170.567 70.7087 170.792 70.4618 171.066 70.2778C171.339 70.0938 171.653 69.9782 171.981 69.9408C172.008 69.9393 172.035 69.9431 172.061 69.9521C172.087 69.9611 172.11 69.975 172.13 69.9931C172.15 70.0112 172.167 70.0331 172.179 70.0575C172.19 70.0819 172.197 70.1084 172.199 70.1355C172.2 70.1897 172.181 70.2425 172.144 70.2829C172.108 70.3233 172.058 70.3482 172.003 70.3525C171.745 70.3895 171.499 70.4863 171.285 70.6351C171.071 70.7838 170.895 70.9805 170.771 71.2092C170.754 71.2366 170.732 71.2599 170.705 71.2773C170.678 71.2946 170.647 71.3056 170.615 71.3094Z" fill="#263238"/>
<path d="M42.0131 73.0785C42.0131 73.429 42.2417 73.7016 42.4759 73.685C42.7101 73.6683 42.8718 73.3678 42.8495 73.0174C42.8272 72.6669 42.6153 72.3942 42.3867 72.4109C42.1581 72.4276 41.9908 72.7225 42.0131 73.0785Z" fill="#263238"/>
<path d="M46.0014 72.8003C46.0293 73.1508 46.2356 73.4234 46.4642 73.4067C46.6929 73.39 46.8602 73.0896 46.8378 72.7391C46.8155 72.3886 46.6036 72.116 46.375 72.1327C46.1464 72.1494 45.9791 72.4665 46.0014 72.8003Z" fill="#263238"/>
<path d="M44.7409 73.0619C45.2361 74.1088 45.8741 75.0824 46.6367 75.9549C46.4065 76.1446 46.1375 76.2817 45.8485 76.3567C45.5595 76.4317 45.2576 76.4426 44.9639 76.3888L44.7409 73.0619Z" fill="#D89090"/>
<path d="M40.6888 71.8768C40.7268 71.8795 40.7648 71.8721 40.7991 71.8555C40.8333 71.8389 40.8626 71.8137 40.884 71.7822C41.0209 71.5614 41.2077 71.3754 41.4294 71.2393C41.6511 71.1031 41.9015 71.0204 42.1609 70.9978C42.2156 70.9978 42.2681 70.9761 42.3068 70.9375C42.3455 70.8989 42.3672 70.8465 42.3672 70.7919C42.3672 70.7374 42.3455 70.685 42.3068 70.6464C42.2681 70.6078 42.2156 70.5861 42.1609 70.5861C41.8326 70.6063 41.5139 70.7047 41.2315 70.8732C40.9492 71.0416 40.7115 71.2751 40.5383 71.5541C40.5225 71.5767 40.5115 71.6021 40.5058 71.629C40.5001 71.6558 40.4999 71.6835 40.5051 71.7105C40.5102 71.7375 40.5208 71.7631 40.5361 71.7859C40.5514 71.8088 40.5711 71.8283 40.594 71.8434C40.6237 71.8594 40.6557 71.8707 40.6888 71.8768Z" fill="#263238"/>
<path d="M43.437 78.1079C42.9254 78.0983 42.4237 77.9659 41.9743 77.7219C41.5249 77.4779 41.1411 77.1293 40.8553 76.7059C40.8474 76.6936 40.8422 76.6799 40.8399 76.6655C40.8376 76.6511 40.8382 76.6364 40.8419 76.6223C40.8456 76.6082 40.8521 76.595 40.8611 76.5835C40.8702 76.572 40.8815 76.5626 40.8943 76.5557C40.9066 76.5478 40.9204 76.5426 40.9348 76.5403C40.9493 76.538 40.964 76.5387 40.9782 76.5423C40.9923 76.546 41.0055 76.5525 41.017 76.5615C41.0285 76.5705 41.038 76.5818 41.0449 76.5946C41.3175 76.9812 41.6766 77.2991 42.0937 77.5231C42.5109 77.7472 42.9746 77.8712 43.4482 77.8853C43.4631 77.8852 43.4778 77.8883 43.4914 77.8943C43.5051 77.9003 43.5173 77.9091 43.5273 77.9201C43.5373 77.9311 43.5449 77.9441 43.5495 77.9583C43.5541 77.9724 43.5557 77.9874 43.5541 78.0022C43.5542 78.017 43.5511 78.0317 43.5451 78.0454C43.5391 78.059 43.5303 78.0712 43.5192 78.0811C43.5082 78.0911 43.4951 78.0986 43.481 78.1032C43.4668 78.1079 43.4518 78.1094 43.437 78.1079Z" fill="#263238"/>
<path d="M47.6116 71.3094C47.6499 71.313 47.6885 71.3062 47.7232 71.2897C47.7579 71.2731 47.7875 71.2475 47.8087 71.2155C47.8299 71.1834 47.8419 71.1463 47.8436 71.1079C47.8452 71.0696 47.8363 71.0315 47.8179 70.9978C47.66 70.7087 47.4347 70.4618 47.161 70.2778C46.8874 70.0938 46.5734 69.9782 46.2455 69.9408C46.2184 69.9393 46.1913 69.9431 46.1657 69.9521C46.1401 69.9611 46.1165 69.975 46.0963 69.9931C46.0761 70.0112 46.0596 70.0331 46.0479 70.0575C46.0362 70.0819 46.0295 70.1084 46.028 70.1355C46.0265 70.1897 46.0458 70.2425 46.0821 70.2829C46.1185 70.3233 46.169 70.3482 46.2232 70.3525C46.4813 70.3895 46.7272 70.4863 46.9411 70.6351C47.1551 70.7838 47.3313 70.9805 47.4555 71.2092C47.4722 71.2366 47.4949 71.2599 47.522 71.2773C47.549 71.2946 47.5797 71.3056 47.6116 71.3094Z" fill="#263238"/>
</svg>
