<svg width="381" height="230" viewBox="0 0 381 230" fill="none" xmlns="http://www.w3.org/2000/svg">
<g clip-path="url(#clip0_556_12367)">
<path fill-rule="evenodd" clip-rule="evenodd" d="M205.904 15.9731C272.775 21.0454 344.952 39.0443 363.29 86.2553C381.786 133.875 335.378 177.27 278.032 201.67C226.303 223.68 162.549 219.656 112.664 192.895C50.6747 159.641 -13.29 110.39 13.4154 59.7165C39.9079 9.44745 130.902 10.2839 205.904 15.9731Z" fill="#F8FFA5" fill-opacity="0.7"/>
<path d="M343.806 53.6094H45.0708C44.956 53.609 44.8461 53.5631 44.7651 53.4818C44.6842 53.4006 44.6387 53.2905 44.6387 53.1758C44.6387 53.061 44.6842 52.951 44.7651 52.8697C44.8461 52.7884 44.956 52.7426 45.0708 52.7422H343.806C343.921 52.7426 344.031 52.7884 344.112 52.8697C344.193 52.951 344.239 53.061 344.239 53.1758C344.239 53.2905 344.193 53.4006 344.112 53.4818C344.031 53.5631 343.921 53.609 343.806 53.6094Z" fill="#CACACA"/>
<path d="M54.8299 47.5387C57.464 47.5387 59.5993 45.4034 59.5993 42.7694C59.5993 40.1353 57.464 38 54.8299 38C52.1959 38 50.0605 40.1353 50.0605 42.7694C50.0605 45.4034 52.1959 47.5387 54.8299 47.5387Z" fill="#3F3D56"/>
<path d="M71.3065 47.5387C73.9405 47.5387 76.0758 45.4034 76.0758 42.7694C76.0758 40.1353 73.9405 38 71.3065 38C68.6724 38 66.5371 40.1353 66.5371 42.7694C66.5371 45.4034 68.6724 47.5387 71.3065 47.5387Z" fill="#3F3D56"/>
<path d="M87.7811 47.5387C90.4151 47.5387 92.5504 45.4034 92.5504 42.7694C92.5504 40.1353 90.4151 38 87.7811 38C85.147 38 83.0117 40.1353 83.0117 42.7694C83.0117 45.4034 85.147 47.5387 87.7811 47.5387Z" fill="#3F3D56"/>
<path d="M333.935 40.914H322.228C321.999 40.914 321.778 40.8226 321.615 40.66C321.453 40.4974 321.361 40.2768 321.361 40.0468C321.361 39.8169 321.453 39.5963 321.615 39.4337C321.778 39.271 321.999 39.1797 322.228 39.1797H333.935C334.165 39.1797 334.386 39.271 334.548 39.4337C334.711 39.5963 334.802 39.8169 334.802 40.0468C334.802 40.2768 334.711 40.4974 334.548 40.66C334.386 40.8226 334.165 40.914 333.935 40.914Z" fill="#3F3D56"/>
<path d="M333.935 44.1679H322.228C321.999 44.1679 321.778 44.0765 321.615 43.9139C321.453 43.7513 321.361 43.5307 321.361 43.3007C321.361 43.0708 321.453 42.8502 321.615 42.6876C321.778 42.525 321.999 42.4336 322.228 42.4336H333.935C334.165 42.4336 334.386 42.525 334.548 42.6876C334.711 42.8502 334.802 43.0708 334.802 43.3007C334.802 43.5307 334.711 43.7513 334.548 43.9139C334.386 44.0765 334.165 44.1679 333.935 44.1679Z" fill="#3F3D56"/>
<path d="M333.935 47.4179H322.228C321.999 47.4179 321.778 47.3265 321.615 47.1639C321.453 47.0013 321.361 46.7807 321.361 46.5507C321.361 46.3208 321.453 46.1002 321.615 45.9376C321.778 45.775 321.999 45.6836 322.228 45.6836H333.935C334.165 45.6844 334.384 45.7761 334.546 45.9386C334.708 46.1012 334.799 46.3213 334.799 46.5507C334.799 46.7802 334.708 47.0003 334.546 47.1629C334.384 47.3254 334.165 47.4171 333.935 47.4179Z" fill="#3F3D56"/>
<path d="M248.087 72.1992H49.9414V191H248.087V72.1992Z" fill="#E7E7FF"/>
<path d="M334.803 72.2012H272.367V109.635H334.803V72.2012Z" fill="#E7E7FF"/>
<path d="M322.344 126.832H285.195C284.731 126.832 284.286 126.647 283.958 126.319C283.63 125.991 283.445 125.546 283.445 125.082C283.445 124.618 283.63 124.173 283.958 123.845C284.286 123.516 284.731 123.332 285.195 123.332H322.344C322.808 123.332 323.253 123.516 323.581 123.845C323.909 124.173 324.094 124.618 324.094 125.082C324.094 125.546 323.909 125.991 323.581 126.319C323.253 126.647 322.808 126.832 322.344 126.832Z" fill="#E7E7FF"/>
<path d="M316.357 120.839H291.187C290.723 120.839 290.278 120.655 289.95 120.327C289.622 119.999 289.438 119.554 289.438 119.09C289.438 118.626 289.622 118.18 289.95 117.852C290.278 117.524 290.723 117.34 291.187 117.34H316.357C316.821 117.34 317.266 117.524 317.594 117.852C317.922 118.18 318.107 118.626 318.107 119.09C318.107 119.554 317.922 119.999 317.594 120.327C317.266 120.655 316.821 120.839 316.357 120.839Z" fill="#E7E7FF"/>
<path d="M334.803 140.27H272.367V177.703H334.803V140.27Z" fill="#E7E7FF"/>
<path d="M322.344 194.902H285.195C284.731 194.902 284.286 194.718 283.958 194.389C283.63 194.061 283.445 193.616 283.445 193.152C283.445 192.688 283.63 192.243 283.958 191.915C284.286 191.587 284.731 191.402 285.195 191.402H322.344C322.808 191.402 323.253 191.587 323.581 191.915C323.909 192.243 324.094 192.688 324.094 193.152C324.094 193.616 323.909 194.061 323.581 194.389C323.253 194.718 322.808 194.902 322.344 194.902Z" fill="#E7E7FF"/>
<path d="M316.357 188.91H291.187C290.723 188.91 290.278 188.725 289.95 188.397C289.622 188.069 289.438 187.624 289.438 187.16C289.438 186.696 289.622 186.251 289.95 185.923C290.278 185.595 290.723 185.41 291.187 185.41H316.357C316.821 185.411 317.265 185.596 317.592 185.924C317.92 186.252 318.104 186.696 318.104 187.16C318.104 187.623 317.92 188.068 317.592 188.396C317.265 188.724 316.821 188.909 316.357 188.91Z" fill="#E7E7FF"/>
<path d="M152.458 136.111C160.624 136.111 167.244 129.491 167.244 121.325C167.244 113.159 160.624 106.539 152.458 106.539C144.292 106.539 137.672 113.159 137.672 121.325C137.672 129.491 144.292 136.111 152.458 136.111Z" fill="#FFB8B8"/>
<path d="M177.37 190.998H140.295L142.376 144.115L142.632 143.846L146.313 139.961H158.02L162.364 144.167L162.706 144.501L171.951 153.359L177.37 190.998Z" fill="#FCF670"/>
<path d="M150.555 191.003H122.377C122.191 173.061 122.043 159.525 122.043 159.525L123.483 158.649L123.491 158.645L139.295 149.05L142.612 143.66L142.63 143.851L143.605 155.211C143.605 155.211 148.907 172.341 150.555 191.003Z" fill="#9098D9"/>
<path d="M188.897 191.003H163.823C162.483 184.924 161.785 179.136 162.089 174.31C163.32 154.595 160.48 143.66 161.711 143.66L162.362 144.172L170.097 150.281L180.282 154.014L187.349 156.607L188.58 157.058V157.652C188.585 160.635 188.615 174.488 188.897 191.003Z" fill="#9098D9"/>
<path d="M138.47 125.946C138.47 125.946 139.726 123.74 139.434 116.37C139.142 108.999 150.365 113.168 159.743 112.465C169.122 111.762 167.136 124.77 167.136 124.77C167.136 124.77 167.813 123.997 169.261 117.719C170.71 111.441 167.421 105.184 167.421 105.184C166.452 98.5872 161.232 100.702 161.232 100.702C163.746 101.68 163.263 103.773 163.263 103.773C161.135 100.042 155.915 102.156 155.915 102.156C148.952 97.7871 141.896 103.541 141.896 103.541C133.485 105.45 138.418 112.138 138.418 112.138C129.959 116.413 138.47 125.946 138.47 125.946Z" fill="#2F2E41"/>
<path d="M114.213 190.999C114.932 176.608 115.483 165.318 115.266 164.446C114.659 162.023 123.223 158.74 123.483 158.645L123.487 158.641H123.491L125.126 159.521L126.323 190.999H114.213Z" fill="#9098D9"/>
<path d="M194.795 191.001H182.07L178.428 155.027L179.928 153.93C179.928 153.93 180.058 153.96 180.284 154.012C181.45 154.303 185.213 155.287 187.351 156.605C187.824 156.872 188.242 157.227 188.582 157.65C188.79 157.899 188.895 158.219 188.873 158.543C188.764 159.562 191.539 173.965 194.795 191.001Z" fill="#9098D9"/>
<path d="M149.975 121.425C149.975 122.135 150.437 122.687 150.91 122.653C151.384 122.62 151.711 122.011 151.666 121.301C151.621 120.59 151.192 120.038 150.73 120.072C150.268 120.106 149.93 120.703 149.975 121.425Z" fill="#263238"/>
<path d="M158.035 120.86C158.092 121.57 158.509 122.123 158.971 122.089C159.433 122.055 159.772 121.446 159.726 120.736C159.681 120.026 159.253 119.474 158.791 119.507C158.329 119.541 157.99 120.184 158.035 120.86Z" fill="#263238"/>
<path d="M155.499 121.391C156.5 123.512 157.79 125.485 159.332 127.253C158.867 127.637 158.323 127.915 157.738 128.067C157.154 128.219 156.544 128.241 155.95 128.132L155.499 121.391Z" fill="#D89090"/>
<path d="M147.29 118.988C147.367 118.994 147.444 118.979 147.513 118.945C147.582 118.912 147.642 118.86 147.685 118.797C147.962 118.349 148.339 117.973 148.788 117.697C149.236 117.421 149.742 117.253 150.266 117.207C150.377 117.207 150.483 117.163 150.561 117.085C150.64 117.007 150.684 116.901 150.684 116.79C150.684 116.68 150.64 116.573 150.561 116.495C150.483 116.417 150.377 116.373 150.266 116.373C149.603 116.414 148.958 116.613 148.388 116.955C147.817 117.296 147.336 117.769 146.986 118.335C146.954 118.38 146.932 118.432 146.92 118.486C146.909 118.541 146.908 118.597 146.919 118.651C146.929 118.706 146.951 118.758 146.982 118.804C147.012 118.851 147.052 118.89 147.099 118.921C147.159 118.953 147.223 118.976 147.29 118.988Z" fill="#263238"/>
<path d="M156.799 131.417C155.797 131.671 154.747 131.679 153.741 131.441C152.734 131.203 151.799 130.727 151.016 130.051C150.994 130.031 150.976 130.007 150.964 129.98C150.952 129.953 150.945 129.924 150.945 129.895C150.945 129.865 150.95 129.836 150.962 129.809C150.973 129.782 150.99 129.757 151.012 129.737C151.032 129.715 151.056 129.697 151.083 129.685C151.109 129.673 151.139 129.666 151.168 129.666C151.198 129.666 151.227 129.671 151.254 129.683C151.281 129.694 151.306 129.711 151.326 129.733C152.064 130.343 152.934 130.773 153.867 130.989C154.801 131.205 155.771 131.2 156.702 130.976C156.731 130.968 156.762 130.966 156.792 130.97C156.821 130.975 156.85 130.985 156.875 131.002C156.901 131.018 156.922 131.039 156.939 131.064C156.955 131.09 156.966 131.118 156.971 131.148C156.979 131.177 156.981 131.207 156.977 131.237C156.972 131.267 156.962 131.295 156.945 131.321C156.929 131.346 156.908 131.368 156.883 131.384C156.857 131.401 156.829 131.412 156.799 131.417Z" fill="#263238"/>
<path d="M161.29 117.838C161.368 117.846 161.446 117.832 161.516 117.798C161.586 117.765 161.646 117.713 161.689 117.648C161.732 117.583 161.756 117.508 161.759 117.43C161.763 117.352 161.745 117.275 161.708 117.207C161.388 116.621 160.933 116.121 160.379 115.748C159.826 115.375 159.191 115.141 158.529 115.065C158.474 115.062 158.419 115.07 158.367 115.088C158.315 115.106 158.268 115.134 158.227 115.171C158.186 115.208 158.153 115.252 158.129 115.302C158.105 115.351 158.092 115.405 158.089 115.46C158.086 115.57 158.125 115.677 158.198 115.758C158.272 115.84 158.374 115.891 158.483 115.899C159.005 115.974 159.502 116.171 159.935 116.472C160.368 116.773 160.724 117.172 160.975 117.635C161.009 117.691 161.055 117.738 161.109 117.773C161.164 117.808 161.226 117.831 161.29 117.838Z" fill="#263238"/>
</g>
<defs>
<clipPath id="clip0_556_12367">
<rect width="380" height="230" fill="white" transform="translate(0.5)"/>
</clipPath>
</defs>
</svg>
