<svg width="226" height="200" viewBox="0 0 226 200" fill="none" xmlns="http://www.w3.org/2000/svg">
<path fill-rule="evenodd" clip-rule="evenodd" d="M124.323 190.321C162.178 190.615 203.68 180.878 216.411 144.177C229.252 107.158 205.387 69.2944 174.398 45.9638C146.445 24.9185 110.396 23.987 80.9774 42.2127C44.4213 64.8604 5.93391 100.221 18.3487 142.641C30.6645 184.724 81.8644 189.992 124.323 190.321Z" fill="#F8FFA5" fill-opacity="0.7"/>
<path d="M81.4922 95.7879L94.4546 90.3327L100.014 101.73L86.3928 107.29L81.4922 95.7879Z" fill="#FFB6B6"/>
<path opacity="0.1" d="M81.4922 95.7879L94.4546 90.3327L100.014 101.73L86.3928 107.29L81.4922 95.7879Z" fill="black"/>
<path d="M83.3372 91.4447L96.1248 106.178C96.1248 106.178 87.229 134.255 78.3333 136.757C69.4376 139.259 53.0362 151.491 53.0362 151.491L32.4648 138.147L42.4725 123.414C42.4725 123.414 66.6577 90.3327 73.0515 90.3327C79.4453 90.3327 83.3372 91.4447 83.3372 91.4447Z" fill="#9098D9"/>
<path d="M66.0537 187.491H36.2865L34.4045 184.975L26.7208 174.703L24.9528 172.34C24.9528 172.34 18.281 160.109 19.671 148.989C21.0609 137.869 35.5165 135.367 35.5165 135.367H36.1114L53.8082 150.918L52.7519 165.39L58.3562 174.703L66.0537 187.491Z" fill="#2F2E41"/>
<path d="M42.3885 187.491H34.4102V175.676L42.3885 187.491Z" fill="#2F2E41"/>
<path d="M214.462 169.555L213.47 174.703L211.007 187.491H161.527C161.914 184.625 162.442 180.499 163.006 176.046C163.062 175.601 163.12 175.153 163.176 174.703C164.591 163.508 166.139 150.84 166.139 150.84L172.644 151.63L185.265 153.159L190.408 153.781L204.179 155.452C211.046 156.283 215.769 162.761 214.462 169.555Z" fill="#F2F2F2"/>
<path d="M170.658 101.348L182.329 117.854L161.97 118.462L159.785 102.95L170.658 101.348Z" fill="#FFB6B6"/>
<path opacity="0.1" d="M170.658 101.348L182.329 117.854L161.97 118.462L159.785 102.95L170.658 101.348Z" fill="black"/>
<path d="M113.1 135.546C111.602 131.226 108.159 128.497 105.41 129.451C102.661 130.404 101.647 134.679 103.146 139C103.721 140.734 104.703 142.306 106.009 143.583L112.586 161.807L121.072 158.539L113.688 140.92C113.924 139.108 113.722 137.265 113.1 135.546Z" fill="#FFB6B6"/>
<path d="M192.098 127.136L192.082 143.957L190.517 150.17L187.298 162.95L184.955 174.703L183.209 183.46L182.586 186.587C182.116 186.901 181.649 187.202 181.182 187.491H140.521C138.211 186.104 136.918 185.025 136.918 185.025C136.918 185.025 137.557 184.424 138.288 183.46C139.523 181.831 141.016 179.162 140.101 176.613C139.909 176.079 139.859 175.429 139.917 174.703C140.29 169.916 145.311 161.821 145.311 161.821L144.271 149.806L143.815 144.541L147.029 118.868L157.507 112.778L159.316 112.603L177.171 111.638L184.551 112.063L184.887 112.155L192.098 127.136Z" fill="#5E66A7"/>
<path d="M192.89 187.491H183.994L183.602 183.46L183.594 183.379L186.112 183.207L192.665 182.759L192.779 185.172L192.868 187.024L192.89 187.491Z" fill="#FFB6B6"/>
<path d="M195.078 131.203L198.814 153.128L195.765 174.703L195.29 178.061L194.45 183.991L194.192 185.814L194.2 186.012L194.264 187.491H183.7L183.311 183.46L183.278 183.098L182.483 174.842L182.469 174.703L180.781 157.195L184.089 144.541L184.334 143.61V143.607L185.773 121.94L184.659 112.094L184.647 112.002C184.67 112.016 184.689 112.03 184.711 112.044C184.77 112.08 184.828 112.116 184.884 112.155C191.378 116.275 195.247 123.503 195.078 131.203Z" fill="#5E66A7"/>
<path d="M150.819 123.07L146.757 118.868C146.757 118.868 138.061 122.788 137.627 124.963C137.194 127.138 121.84 159.083 121.84 159.083L115.16 141.242L106.465 147.047C106.465 147.047 113.442 174.747 119.967 176.047C126.492 177.347 148.36 143.262 148.36 143.262L150.819 123.07Z" fill="#5E66A7"/>
<path d="M212.822 175H11.1752C8.32107 175 6 178.591 6 183.002C6 187.413 8.32107 191 11.1752 191H212.822C215.677 191 218 187.413 218 183.002C218 178.591 215.677 175 212.822 175Z" fill="#E6E6E6"/>
<path d="M190.24 149.759L189.625 178.46C189.566 181.239 187.297 183.46 184.518 183.46H131.721C129.008 183.46 126.768 181.339 126.62 178.63L125.051 149.929C124.891 147.002 127.221 144.541 130.152 144.541H185.133C187.997 144.541 190.302 146.896 190.24 149.759Z" fill="#2C3475"/>
<path d="M105.022 102.716C111.999 102.716 117.654 97.0606 117.654 90.0843C117.654 83.108 111.999 77.4526 105.022 77.4526C98.046 77.4526 92.3906 83.108 92.3906 90.0843C92.3906 97.0606 98.046 102.716 105.022 102.716Z" fill="#FFB6B6"/>
<path d="M83.8923 123.136L85.2822 138.147L94.7339 176.232L86.5683 179.094L72.7726 137.591L70.8672 120.912L83.8923 123.136Z" fill="#FFB6B6"/>
<path d="M80.1271 149.759L79.5121 178.46C79.4525 181.239 77.1832 183.46 74.4043 183.46H21.6078C18.8946 183.46 16.6546 181.339 16.5065 178.63L14.9375 149.929C14.7775 147.002 17.1076 144.541 20.0388 144.541H75.0193C77.8837 144.541 80.1885 146.896 80.1271 149.759Z" fill="#2C3475"/>
<path d="M96.2337 183.654C101.743 183.654 106.21 181.678 106.21 179.241C106.21 176.804 101.743 174.829 96.2337 174.829C90.7242 174.829 86.2578 176.804 86.2578 179.241C86.2578 181.678 90.7242 183.654 96.2337 183.654Z" fill="#FFB6B6"/>
<path d="M64.293 125.431L69.9918 95.0586C69.9918 95.0586 85.8373 92.8347 86.3932 98.1165C86.9492 103.398 85.996 129.211 85.996 129.211L64.293 125.431Z" fill="#9098D9"/>
<path d="M99.919 92.0704C99.919 92.0704 107.733 89.2817 111.029 87.7811C114.325 86.2806 120.873 96.7466 121.019 91.2192C121.165 85.6918 118.902 83.3738 118.902 83.3738C118.902 83.3738 118.337 71.2818 106.155 72.7936C106.155 72.7936 108.834 66.7439 100.038 65.8084C91.2425 64.8729 77.5583 86.1136 78.7839 89.2879C80.0094 92.4622 81.4785 95.0865 78.0016 98.4805C74.5246 101.875 68.014 121.03 72.9676 126.184C77.9211 131.339 78.2462 133.575 74.8522 136.782C71.4583 139.989 63.4359 146.961 72.1099 148.172C80.784 149.382 71.3163 148.478 77.783 142.79C84.2496 137.102 93.6859 137.334 90.1625 128.208C86.6392 119.082 92.7605 106.004 91.9946 104.021C91.2286 102.037 93.7106 89.4384 93.7106 89.4384C93.7106 89.4384 99.4871 88.5898 99.919 92.0704Z" fill="#2F2E41"/>
<path d="M164.418 107.322C172.013 107.322 178.169 101.166 178.169 93.5718C178.169 85.9775 172.013 79.8212 164.418 79.8212C156.824 79.8212 150.668 85.9775 150.668 93.5718C150.668 101.166 156.824 107.322 164.418 107.322Z" fill="#FFB6B6"/>
<path d="M165.514 75.0851C165.116 75.3174 164.583 74.966 164.456 74.5233C164.328 74.0806 164.477 73.6105 164.624 73.174L165.366 70.9766C165.892 69.4181 166.451 67.8052 167.59 66.619C169.31 64.8286 172.044 64.3731 174.505 64.7031C177.665 65.1268 180.782 66.838 182.252 69.6675C183.721 72.4971 183.095 76.4453 180.44 78.2107C184.224 82.5476 185.543 87.3811 185.335 93.1329C185.127 98.8848 178.859 104.178 174.771 108.23C173.858 107.677 173.028 105.084 173.53 104.142C174.032 103.2 173.313 102.108 173.935 101.24C174.557 100.373 175.077 101.754 174.448 100.892C174.052 100.347 175.599 99.0945 175.01 98.7686C172.158 97.1925 171.21 93.6383 169.419 90.9166C167.259 87.6337 163.562 85.4105 159.65 85.0417C157.494 84.8385 155.218 85.2065 153.451 86.4577C151.685 87.709 150.541 89.9449 150.951 92.0706C149.89 90.9934 149.362 89.4147 149.561 87.9159C149.76 86.4171 150.682 85.0312 151.988 84.2685C151.194 81.6435 151.874 78.624 153.716 76.5927C155.559 74.5614 163.032 74.9074 165.722 75.442L165.514 75.0851Z" fill="#2F2E41"/>
<path d="M165.93 85.1214C169.492 85.5059 172.064 88.5919 174.236 91.4417C175.488 93.0843 176.8 94.8982 176.768 96.9633C176.736 99.0511 175.341 100.842 174.673 102.82C173.583 106.055 174.646 109.902 177.242 112.118C174.677 112.605 171.904 110.682 171.461 108.109C170.946 105.114 173.216 102.223 172.947 99.196C172.71 96.529 170.609 94.4765 168.822 92.4824C167.035 90.4883 165.357 87.8421 166.179 85.2939L165.93 85.1214Z" fill="#2F2E41"/>
<path d="M162.317 95.5561C162.317 96.1767 161.912 96.6593 161.497 96.6298C161.082 96.6002 160.796 96.0683 160.836 95.4478C160.875 94.8272 161.25 94.3445 161.655 94.3741C162.06 94.4036 162.356 94.9257 162.317 95.5561Z" fill="#263238"/>
<path d="M155.27 95.0635C155.22 95.684 154.855 96.1667 154.45 96.1371C154.045 96.1076 153.749 95.5757 153.789 94.9551C153.828 94.3345 154.203 93.8519 154.608 93.8814C155.013 93.911 155.309 94.4724 155.27 95.0635Z" fill="#263238"/>
<path d="M157.486 95.5267C156.609 97.3803 155.479 99.104 154.129 100.649C154.537 100.985 155.013 101.228 155.524 101.36C156.036 101.493 156.571 101.512 157.091 101.417L157.486 95.5267Z" fill="#D89090"/>
<path d="M164.667 93.4284C164.6 93.4331 164.532 93.4201 164.472 93.3907C164.411 93.3613 164.359 93.3166 164.321 93.2609C164.079 92.8699 163.748 92.5407 163.356 92.2996C162.963 92.0585 162.52 91.9121 162.061 91.8721C161.964 91.8721 161.871 91.8337 161.802 91.7653C161.734 91.697 161.695 91.6043 161.695 91.5076C161.695 91.4109 161.734 91.3182 161.802 91.2499C161.871 91.1815 161.964 91.1431 162.061 91.1431C162.642 91.1789 163.206 91.3532 163.706 91.6514C164.206 91.9496 164.627 92.3631 164.934 92.8571C164.961 92.897 164.981 92.942 164.991 92.9896C165.001 93.0371 165.001 93.0862 164.992 93.1339C164.983 93.1817 164.964 93.227 164.937 93.2675C164.91 93.3079 164.875 93.3425 164.835 93.3693C164.782 93.3976 164.726 93.4175 164.667 93.4284Z" fill="#263238"/>
<path d="M159.802 104.461C160.708 104.444 161.596 104.209 162.392 103.777C163.188 103.345 163.867 102.728 164.373 101.978C164.387 101.957 164.396 101.932 164.4 101.907C164.405 101.881 164.403 101.855 164.397 101.83C164.39 101.805 164.379 101.782 164.363 101.762C164.347 101.742 164.327 101.725 164.304 101.713C164.282 101.699 164.258 101.689 164.232 101.685C164.207 101.681 164.181 101.682 164.156 101.689C164.131 101.695 164.107 101.707 164.087 101.723C164.066 101.739 164.05 101.759 164.037 101.781C163.555 102.466 162.919 103.029 162.18 103.425C161.442 103.822 160.621 104.042 159.782 104.067C159.756 104.067 159.73 104.072 159.706 104.083C159.682 104.093 159.66 104.109 159.642 104.128C159.625 104.148 159.611 104.171 159.603 104.196C159.595 104.221 159.592 104.247 159.595 104.274C159.595 104.3 159.6 104.326 159.611 104.35C159.621 104.374 159.637 104.396 159.657 104.413C159.676 104.431 159.699 104.444 159.724 104.453C159.749 104.461 159.776 104.464 159.802 104.461Z" fill="#263238"/>
<path d="M152.411 92.4237C152.343 92.4302 152.275 92.4181 152.213 92.3889C152.152 92.3596 152.1 92.3141 152.062 92.2574C152.025 92.2008 152.003 92.1349 152 92.067C151.997 91.9992 152.013 91.9318 152.046 91.8721C152.325 91.3603 152.724 90.923 153.209 90.5973C153.693 90.2716 154.249 90.0669 154.83 90.0006C154.878 89.9979 154.926 90.0047 154.971 90.0206C155.016 90.0365 155.058 90.0612 155.094 90.0932C155.13 90.1252 155.159 90.164 155.18 90.2073C155.2 90.2505 155.212 90.2974 155.215 90.3453C155.218 90.4414 155.183 90.5348 155.119 90.6063C155.055 90.6778 154.965 90.7219 154.869 90.7295C154.412 90.7951 153.977 90.9665 153.598 91.2299C153.219 91.4933 152.907 91.8414 152.687 92.2464C152.658 92.2949 152.618 92.3361 152.57 92.3669C152.522 92.3976 152.468 92.417 152.411 92.4237Z" fill="#263238"/>
<path d="M108.087 91.8767C107.759 92.2907 107.773 92.8269 108.066 93.0265C108.358 93.2261 108.83 93.0226 109.132 92.5876C109.434 92.1527 109.439 91.6322 109.153 91.4378C108.868 91.2435 108.394 91.4352 108.087 91.8767Z" fill="#263238"/>
<path d="M113.048 95.275C112.752 95.7151 112.741 96.2304 113.027 96.4247C113.312 96.6191 113.791 96.4209 114.093 95.9859C114.395 95.551 114.4 95.0305 114.114 94.8361C113.829 94.6417 113.334 94.8597 113.048 95.275Z" fill="#263238"/>
<path d="M111.323 94.4115C110.928 96.112 110.77 97.8596 110.853 99.6044C110.404 99.613 109.958 99.5231 109.546 99.341C109.134 99.159 108.767 98.8892 108.471 98.5507L111.323 94.4115Z" fill="#D89090"/>
<path d="M107.641 89.2134C107.683 89.2521 107.735 89.2791 107.791 89.2915C107.847 89.304 107.905 89.3015 107.96 89.2844C108.328 89.1518 108.723 89.107 109.113 89.1537C109.502 89.2004 109.875 89.3373 110.203 89.5534C110.267 89.6047 110.35 89.6282 110.432 89.6188C110.513 89.6095 110.588 89.5679 110.639 89.5035C110.69 89.439 110.714 89.3568 110.704 89.2749C110.695 89.1931 110.653 89.1183 110.588 89.0671C110.182 88.7835 109.713 88.6013 109.222 88.536C108.73 88.4706 108.231 88.5238 107.765 88.6912C107.725 88.7032 107.688 88.7229 107.656 88.7493C107.625 88.7757 107.598 88.8082 107.579 88.8449C107.56 88.8816 107.549 88.9218 107.545 88.963C107.542 89.0043 107.547 89.0459 107.56 89.0852C107.58 89.1319 107.607 89.1751 107.641 89.2134Z" fill="#263238"/>
<path d="M107.052 102.147C106.457 101.657 105.988 101.031 105.685 100.322C105.383 99.6126 105.256 98.8414 105.315 98.0736C105.317 98.0517 105.324 98.0305 105.334 98.0114C105.345 97.9922 105.36 97.9755 105.377 97.9622C105.395 97.949 105.415 97.9395 105.436 97.9345C105.458 97.9294 105.48 97.9288 105.502 97.9327C105.523 97.9349 105.545 97.9416 105.564 97.9524C105.583 97.9632 105.6 97.9778 105.613 97.9954C105.626 98.0129 105.636 98.033 105.641 98.0544C105.646 98.0758 105.647 98.098 105.643 98.1196C105.603 98.8316 105.73 99.5434 106.013 100.199C106.296 100.854 106.727 101.435 107.274 101.895C107.291 101.909 107.306 101.926 107.316 101.946C107.327 101.966 107.333 101.988 107.334 102.01C107.336 102.033 107.333 102.055 107.325 102.076C107.317 102.097 107.305 102.116 107.289 102.132C107.275 102.15 107.258 102.164 107.238 102.175C107.218 102.185 107.197 102.191 107.174 102.193C107.152 102.194 107.129 102.191 107.108 102.183C107.087 102.175 107.068 102.163 107.052 102.147Z" fill="#263238"/>
<path d="M116.35 95.0252C116.392 95.0654 116.444 95.0935 116.5 95.1065C116.557 95.1194 116.616 95.1168 116.671 95.0988C116.726 95.0808 116.775 95.0482 116.813 95.0044C116.851 94.9607 116.876 94.9074 116.886 94.8504C116.97 94.361 116.935 93.8582 116.784 93.3846C116.633 92.911 116.37 92.4804 116.018 92.1291C115.987 92.102 115.952 92.0811 115.913 92.0678C115.874 92.0544 115.833 92.0488 115.793 92.0512C115.752 92.0537 115.712 92.0642 115.675 92.0821C115.638 92.1 115.606 92.1249 115.579 92.1556C115.526 92.2181 115.499 92.2986 115.504 92.3804C115.51 92.4621 115.546 92.5388 115.606 92.5946C115.876 92.8802 116.076 93.2247 116.189 93.6008C116.303 93.9769 116.327 94.3741 116.259 94.7607C116.254 94.8088 116.259 94.8575 116.274 94.9034C116.29 94.9492 116.316 94.9909 116.35 95.0252Z" fill="#263238"/>
</svg>
