<svg width="109" height="26" viewBox="0 0 109 26" fill="none" xmlns="http://www.w3.org/2000/svg">
<path d="M7.81977 5.00001H0V0.406982H21.2791V5.00001H7.81977Z" fill="#FEFEFF"/>
<path d="M18.6928 25.2616C15.2335 25.2616 12.53 24.3023 10.5532 22.3547C8.60556 20.4361 7.61719 17.6744 7.61719 14.0988V0.436035H13.2567V13.8953C13.2567 16.2209 13.7218 17.907 14.6811 18.9244C15.6404 19.9419 16.9777 20.4651 18.6928 20.4651C20.4079 20.4651 21.7451 19.9419 22.7044 18.9244C23.6637 17.907 24.1288 16.2209 24.1288 13.8953V0.436035H29.7102V14.0988C29.7102 17.6744 28.7218 20.4361 26.7742 22.3547C24.8265 24.2733 22.123 25.2616 18.6346 25.2616H18.6928Z" fill="#FEFEFF"/>
<path d="M40.9584 24.7966V4.97096H33.1387V0.37793H54.4177V4.97096H46.598V24.7966H40.9584Z" fill="#FEFEFF"/>
<path d="M68.9834 25.2326C67.0648 25.2326 65.2625 24.9128 63.6346 24.3023C62.0067 23.6628 60.5823 22.7907 59.3904 21.657C58.1985 20.5233 57.2683 19.1861 56.5997 17.6454C55.9311 16.1047 55.6113 14.4477 55.6113 12.6163C55.6113 10.7849 55.9311 9.12791 56.5997 7.58721C57.2683 6.04651 58.1985 4.7093 59.4195 3.57558C60.6404 2.44186 62.0357 1.5407 63.6637 0.930232C65.2916 0.290697 67.0648 0 68.9544 0C70.8439 0 72.6462 0.319767 74.2741 0.930232C75.902 1.56977 77.2974 2.44186 78.4892 3.57558C79.6811 4.7093 80.6113 6.04651 81.309 7.55814C82.0067 9.06977 82.3264 10.7558 82.3264 12.5872C82.3264 14.4186 81.9776 16.0756 81.309 17.6163C80.6404 19.157 79.7102 20.4942 78.4892 21.6279C77.2974 22.7616 75.873 23.6337 74.2741 24.2733C72.6462 24.9128 70.902 25.2035 68.9834 25.2035V25.2326ZM68.9544 20.407C70.059 20.407 71.0474 20.2326 71.9776 19.8547C72.9078 19.4768 73.6927 18.9535 74.3904 18.2558C75.0881 17.5582 75.6404 16.7442 76.0183 15.7849C76.3962 14.8256 76.5997 13.7791 76.5997 12.6163C76.5997 11.4535 76.3962 10.407 76.0183 9.44768C75.6404 8.48838 75.0881 7.67442 74.4195 6.97675C73.7218 6.27907 72.9369 5.75582 72.0067 5.37791C71.0764 5 70.059 4.82558 68.9834 4.82558C67.9078 4.82558 66.8904 5 65.9602 5.37791C65.0299 5.75582 64.2451 6.27907 63.5474 6.97675C62.8497 7.67442 62.2974 8.48838 61.9195 9.44768C61.5416 10.407 61.3381 11.4535 61.3381 12.6163C61.3381 13.7791 61.5416 14.7965 61.9195 15.7849C62.2974 16.7442 62.8497 17.5872 63.5183 18.2849C64.216 18.9826 65.0009 19.5058 65.9311 19.8837C66.8613 20.2616 67.8788 20.4361 68.9544 20.4361V20.407Z" fill="#FEFEFF"/>
<path d="M86.5703 24.7966V0.37793H97.1517C99.3319 0.37793 101.221 0.726767 102.791 1.45351C104.361 2.15119 105.582 3.16863 106.454 4.50584C107.326 5.84305 107.733 7.41282 107.733 9.24422C107.733 11.0756 107.297 12.6163 106.454 13.9245C105.582 15.2326 104.361 16.25 102.791 16.9477C101.221 17.6454 99.3319 17.9942 97.1517 17.9942H89.7098L92.2098 15.5233V24.7966H86.5703ZM92.2098 16.1338L89.7098 13.4884H96.8319C98.5761 13.4884 99.8843 13.1105 100.727 12.3547C101.599 11.5989 102.006 10.5524 102.006 9.24422C102.006 7.93608 101.57 6.86049 100.727 6.10468C99.8552 5.34886 98.5761 5.00003 96.8319 5.00003H89.7098L92.2098 2.32561V16.1628V16.1338ZM102.094 24.7966L95.9889 15.9303H102.035L108.198 24.7966H102.094Z" fill="#FEFEFF"/>
</svg>
